%
M48
M72
T01C0.01500
T02C0.01600
T03C0.04016
T04C0.04291
T05C0.04724
T06C0.07087
T07C0.10827
T08C0.11811
%
T01
X123118Y661169
X131780Y659161
X131976Y666760
X117134Y682154
X110362Y674201
X107488Y698295
X120874Y703138
X126740Y703295
X141465Y730106
X136150Y735028
X143157Y740815
X155874Y735303
X157803Y754988
X162161Y769673
X170913Y768571
X165087Y799240
X156268Y799240
X156268Y818413
X165087Y818413
X141976Y792469
X145244Y785461
X145402Y769043
X135205Y769594
X131189Y783846
X119417Y795303
X112764Y800776
X105441Y778965
X104929Y773571
X110795Y776406
X106189Y752193
X104142Y745343
X109496Y740657
X94417Y734358
X87803Y746839
X82764Y738295
X82528Y783807
X82173Y790224
X89181Y795933
X90717Y783807
X96543Y831917
X85362Y833374
X80598Y840106
X97252Y869634
X102055Y875697
X103157Y889476
X100402Y894358
X107961Y894083
X84535Y924358
X82134Y938020
X74654Y941445
X71543Y923413
X64102Y914634
X55677Y920461
X56307Y907823
X53472Y893453
X55835Y888177
X55244Y867508
X51543Y863177
X60559Y864201
X52016Y841996
X56071Y838295
X55559Y815933
X58709Y810894
X51465Y810894
X55126Y788059
X57764Y783886
X55795Y761287
X59732Y757075
X50913Y757941
X53551Y735106
X56780Y730776
X53472Y705579
X57134Y700736
X82685Y686681
X94220Y673571
X84575Y664752
X147528Y706681
X170717Y704673
X178000Y695776
X179575Y704280
X193701Y704280
X199339Y695776
X211071Y667154
X206583Y738728
X190126Y738492
X171031Y668728
X242843Y746169
X250559Y766406
X263236Y754831
X266780Y771209
X266583Y793492
X268236Y809358
X274417Y830539
X279654Y843965
X286425Y852587
X288591Y844634
X297606Y832744
X293354Y824083
X300008Y810382
X315126Y816248
X322173Y821130
X319457Y832744
X312764Y840185
X310992Y843807
X311425Y852547
X292961Y870224
X289614Y865461
X286110Y870067
X277134Y871169
X272213Y864752
X267449Y871051
X262134Y852626
X245638Y868256
X241346Y864319
X237685Y868571
X234063Y864555
X236583Y836248
X234535Y828531
X248157Y816524
X250362Y802705
X250559Y787783
X280677Y737469
X289929Y737469
X298591Y737469
X310835Y781878
X321661Y766327
X321661Y762114
X334181Y759555
X332291Y781996
X332370Y790815
X340008Y791130
X353866Y786996
X356268Y796917
X355756Y776366
X349693Y776366
X350244Y737350
X364969Y732705
X369929Y715579
X369929Y709673
X375835Y710854
X380559Y706130
X386307Y755224
X376819Y768492
X387331Y777075
X387488Y798492
X375441Y810618
X385559Y830067
X404063Y808768
X418709Y797429
X413472Y768492
X414181Y755894
X436071Y759831
X434969Y783413
X432803Y811642
X420913Y839516
X418197Y853413
X403394Y855067
X418827Y886406
X419220Y902232
X418866Y917390
X418591Y931287
X433039Y924516
X425283Y956287
X426228Y967154
X402055Y947114
X394299Y957469
X384535Y938531
X388512Y916957
X386740Y902193
X385520Y882980
X373709Y879555
X384929Y865264
X402646Y901720
X376976Y917035
X365244Y908571
X359260Y889437
X351583Y915185
X363827Y941878
X364339Y967035
X361583Y980382
X352134Y992980
X352409Y1010303
X330992Y952587
X330992Y947705
X320323Y980303
X313984Y980421
X309063Y992114
X310165Y1011563
X278866Y959594
X270717Y959594
X262370Y959594
X254220Y946799
X240559Y946799
X228748Y962500
X228630Y975464
X228512Y986949
X212252Y995650
X208472Y991752
X202882Y962547
X197094Y953531
X185953Y934713
X172252Y936366
X165480Y954555
X148827Y938059
X149811Y893098
X151780Y887705
X153945Y875697
X144181Y873492
X134614Y883650
X163748Y859713
X173433Y859594
X188787Y888523
X189142Y892618
X194732Y866327
X204654Y859122
X200480Y832941
X193394Y832823
X219850Y893917
X226740Y893760
X241740Y894114
X253669Y893130
X289850Y893138
X304024Y942902
X322016Y893925
X339535Y886957
X354969Y846839
X355126Y837587
X349181Y825303
X341819Y825421
X343787Y705972
X350756Y705776
X358709Y650933
X380677Y650657
X402409Y690185
X410953Y687980
X417173Y679280
X420362Y696366
X433787Y686012
X435795Y729398
X406858Y654594
X313591Y671327
X281150Y671327
X247685Y670539
X135717Y828256
X108079Y847075
X111583Y947783
X113748Y955539
X113748Y963138
X113748Y970618
X105126Y971209
X105402Y962587
X105402Y955264
X97528Y981091
X84575Y997587
X85362Y1009280
X68787Y977665
X57961Y984398
X125301Y1000925
X123512Y1010776
X141819Y985933
X182961Y1003925
X188000Y1000382
X186819Y973650
X211071Y954988
X258276Y1011563
X269220Y991720
X274811Y1010539
X387252Y1011051
X403000Y1011051
T02
X64102Y686051
X51150Y744043
X51661Y798650
X52291Y851012
T03
X123583Y905965
X123583Y915965
X123578Y925965
X123578Y935965
X133578Y935965
X133578Y925965
X133583Y915965
X133583Y905965
X143583Y905965
X143583Y915965
X153583Y915965
X153583Y905965
X163583Y905965
X163583Y915965
X173583Y915965
X173583Y905965
X183583Y905965
X183583Y915965
X193583Y915965
X193583Y905965
X203583Y905965
X203583Y915965
X213583Y915965
X213583Y905965
X223583Y905965
X223583Y915965
X233583Y915965
X233583Y905965
X243583Y905965
X243583Y915965
X253583Y915965
X253583Y905965
X263583Y905965
X263583Y915965
X273583Y915965
X273583Y905965
X283583Y905965
X283583Y915965
X293583Y915965
X293583Y905965
X303583Y905965
X303583Y915965
X313583Y915965
X313583Y905965
T04
X406346Y914280
X406346Y924280
X406346Y934280
X406307Y961425
X406307Y971425
X406307Y981425
X406307Y991425
X406307Y1001425
X406243Y711954
X406243Y701954
X381780Y684319
X371780Y684319
X361780Y684319
X200402Y684398
X190402Y684398
X161701Y684516
X151701Y684516
X87256Y706565
X87256Y716565
X87256Y726565
X87178Y754618
X87178Y764618
X87178Y774618
X87256Y804118
X87256Y814118
X87256Y824118
X87060Y853129
X87060Y863129
X87060Y873129
X79929Y903886
X79929Y913886
T05
X405343Y878925
X405343Y838925
X405343Y793925
X405343Y748925
X432902Y748925
X432902Y793925
X432902Y838925
X432902Y878925
T06
X333000Y721098
X333000Y699398
X296740Y699358
X296740Y721058
X264673Y721058
X264673Y699358
X232862Y699161
X232862Y720861
T07
X65451Y662675
X104397Y910934
X104397Y1001486
X65451Y1000175
X332744Y1001486
X371701Y1000175
X332744Y910934
X427951Y662675
T08
X333000Y670657
X296740Y670618
X264673Y670618
X232862Y670421
M30
