G75*
%MOIN*%
%OFA0B0*%
%FSLAX25Y25*%
%IPPOS*%
%LPD*%
%AMOC8*
5,1,8,0,0,1.08239X$1,22.5*
%
%ADD10R,0.03543X0.03937*%
%ADD11R,0.03937X0.03543*%
%ADD12R,0.01772X0.04331*%
%ADD13R,0.04331X0.02362*%
%ADD14C,0.07091*%
%ADD15R,0.03543X0.08858*%
%ADD16R,0.03543X0.11024*%
%ADD17R,0.01772X0.05118*%
%ADD18C,0.06737*%
%ADD19R,0.06737X0.06737*%
%ADD20C,0.05906*%
%ADD21R,0.05315X0.04331*%
%ADD22C,0.07400*%
%ADD23C,0.01772*%
%ADD24R,0.09843X0.06299*%
%ADD25R,0.01575X0.05315*%
%ADD26R,0.06299X0.05512*%
%ADD27R,0.07480X0.07480*%
%ADD28C,0.07524*%
%ADD29R,0.07480X0.06299*%
%ADD30R,0.03150X0.01575*%
%ADD31R,0.02362X0.04331*%
%ADD32R,0.04331X0.06890*%
%ADD33C,0.06816*%
%ADD34C,0.07874*%
%ADD35C,0.01102*%
%ADD36R,0.08465X0.06299*%
%ADD37R,0.05118X0.02362*%
%ADD38R,0.02362X0.05118*%
%ADD39C,0.00800*%
%ADD40C,0.00600*%
%ADD41C,0.01000*%
%ADD42C,0.02400*%
%ADD43C,0.03500*%
%ADD44C,0.03075*%
%ADD45C,0.02067*%
%ADD46C,0.01575*%
%ADD47C,0.01600*%
%ADD48C,0.04173*%
%ADD49C,0.01969*%
%ADD50C,0.00700*%
%ADD51C,0.02000*%
%ADD52C,0.04000*%
D10*
X0042402Y0050843D03*
X0042402Y0057535D03*
X0045551Y0063835D03*
X0045551Y0070528D03*
X0010512Y0066984D03*
X0010512Y0060291D03*
X0084921Y0039425D03*
X0084921Y0032732D03*
X0094370Y0034701D03*
X0101850Y0034701D03*
X0109331Y0034701D03*
X0117598Y0034701D03*
X0117598Y0028008D03*
X0127047Y0031551D03*
X0127047Y0038244D03*
X0141614Y0044150D03*
X0141614Y0050843D03*
X0109331Y0041394D03*
X0101850Y0041394D03*
X0094370Y0028008D03*
X0195157Y0085882D03*
X0195157Y0092575D03*
X0205394Y0093362D03*
X0213268Y0093362D03*
X0213268Y0100055D03*
X0205394Y0100055D03*
X0205394Y0087063D03*
X0205394Y0080370D03*
X0199882Y0075646D03*
X0199882Y0068953D03*
X0227047Y0072102D03*
X0227047Y0078795D03*
X0253031Y0088638D03*
X0253031Y0095331D03*
X0238071Y0103598D03*
X0238071Y0110291D03*
X0226260Y0053598D03*
X0226260Y0046906D03*
X0122323Y0119740D03*
X0122323Y0126433D03*
X0102441Y0126630D03*
X0102441Y0119937D03*
D11*
X0146142Y0114031D03*
X0152835Y0114031D03*
X0160709Y0114031D03*
X0167402Y0114031D03*
X0173701Y0114031D03*
X0180394Y0114031D03*
X0186299Y0108913D03*
X0192992Y0108913D03*
X0193780Y0123874D03*
X0187087Y0123874D03*
X0200866Y0123874D03*
X0207559Y0123874D03*
X0207559Y0136079D03*
X0200866Y0136079D03*
X0194173Y0136079D03*
X0187480Y0136079D03*
X0167402Y0108126D03*
X0160709Y0108126D03*
X0127244Y0087654D03*
X0120551Y0087654D03*
X0116220Y0077811D03*
X0109528Y0077811D03*
X0130000Y0063638D03*
X0136693Y0063638D03*
X0152441Y0063638D03*
X0159134Y0063638D03*
X0133937Y0044740D03*
X0127244Y0044740D03*
X0134724Y0031354D03*
X0141417Y0031354D03*
X0078031Y0027811D03*
X0071339Y0027811D03*
X0033543Y0049465D03*
X0026850Y0049465D03*
X0026850Y0055370D03*
X0033543Y0055370D03*
X0017402Y0053008D03*
X0010709Y0053008D03*
X0010709Y0073480D03*
X0017402Y0073480D03*
X0025276Y0073480D03*
X0031969Y0073480D03*
X0213071Y0073874D03*
X0219764Y0073874D03*
X0224094Y0094346D03*
X0230787Y0094346D03*
X0229606Y0100646D03*
X0222913Y0100646D03*
X0244961Y0108520D03*
X0251654Y0108520D03*
X0230394Y0027811D03*
X0223701Y0027811D03*
D12*
X0113957Y0084504D03*
X0111398Y0084504D03*
X0108839Y0084504D03*
X0106280Y0084504D03*
X0106280Y0094740D03*
X0108839Y0094740D03*
X0111398Y0094740D03*
X0113957Y0094740D03*
D13*
X0149094Y0050941D03*
X0149094Y0046020D03*
X0149094Y0041098D03*
X0149094Y0036177D03*
X0157756Y0036177D03*
X0157756Y0041098D03*
X0157756Y0046020D03*
X0157756Y0050941D03*
D14*
X0108031Y0048360D02*
X0108031Y0055451D01*
X0098031Y0055451D02*
X0098031Y0048360D01*
X0059412Y0058638D02*
X0052320Y0058638D01*
X0052320Y0068638D02*
X0059412Y0068638D01*
X0075591Y0075053D02*
X0075591Y0082144D01*
X0085591Y0082144D02*
X0085591Y0075053D01*
X0097480Y0106470D02*
X0097480Y0113561D01*
X0107480Y0113561D02*
X0107480Y0106470D01*
X0117480Y0106470D02*
X0117480Y0113561D01*
X0127480Y0113561D02*
X0127480Y0106470D01*
X0150906Y0125840D02*
X0150906Y0132931D01*
X0160906Y0132931D02*
X0160906Y0125840D01*
X0170906Y0125840D02*
X0170906Y0132931D01*
D15*
X0201850Y0055665D03*
X0206772Y0055665D03*
X0211890Y0055665D03*
X0216811Y0055665D03*
X0216811Y0034602D03*
X0206772Y0034602D03*
X0201850Y0034602D03*
D16*
X0211890Y0035685D03*
D17*
X0238957Y0086177D03*
X0241516Y0086177D03*
X0244075Y0086177D03*
X0246634Y0086177D03*
X0246634Y0095429D03*
X0244075Y0095429D03*
X0241516Y0095429D03*
X0238957Y0095429D03*
D18*
X0227953Y0111236D03*
X0217953Y0111236D03*
X0217953Y0121236D03*
X0227953Y0121236D03*
X0227953Y0131236D03*
X0077953Y0131236D03*
X0067953Y0131236D03*
X0057953Y0131236D03*
X0047953Y0131236D03*
X0037953Y0131236D03*
X0047953Y0121236D03*
X0057953Y0121236D03*
X0067953Y0121236D03*
X0077953Y0121236D03*
D19*
X0037953Y0121236D03*
X0217953Y0131236D03*
D20*
X0207756Y0130173D03*
X0207362Y0117575D03*
X0207362Y0109307D03*
X0195354Y0115803D03*
X0137126Y0114622D03*
X0112756Y0122496D03*
X0090866Y0119898D03*
X0123504Y0080173D03*
X0159331Y0070331D03*
X0119173Y0047102D03*
X0010906Y0080567D03*
D21*
X0010906Y0086866D03*
X0019173Y0086866D03*
X0027441Y0086866D03*
X0027441Y0094740D03*
X0019173Y0094740D03*
X0010906Y0094740D03*
X0016024Y0123087D03*
X0025472Y0123087D03*
X0025472Y0130961D03*
X0016024Y0130961D03*
X0057756Y0087654D03*
X0057756Y0079780D03*
X0067992Y0062850D03*
X0067992Y0054976D03*
X0077047Y0042772D03*
X0077047Y0034898D03*
D22*
X0236693Y0051236D03*
X0254409Y0051236D03*
X0254409Y0076827D03*
X0236693Y0076827D03*
D23*
X0189055Y0091433D02*
X0189055Y0093007D01*
X0185118Y0093007D02*
X0185118Y0091433D01*
X0181181Y0091433D02*
X0181181Y0093007D01*
X0181181Y0102851D02*
X0181181Y0104425D01*
X0185118Y0104425D02*
X0185118Y0102851D01*
X0189055Y0102851D02*
X0189055Y0104425D01*
D24*
X0185118Y0097929D03*
D25*
X0054213Y0038205D03*
X0051654Y0038205D03*
X0049094Y0038205D03*
X0046535Y0038205D03*
X0043976Y0038205D03*
D26*
X0036496Y0037319D03*
X0061693Y0037319D03*
D27*
X0053819Y0027673D03*
X0044370Y0027673D03*
D28*
X0036102Y0027673D03*
X0062087Y0027673D03*
D29*
X0063858Y0103795D03*
X0047717Y0103795D03*
D30*
X0033150Y0066197D03*
X0033150Y0063638D03*
X0033150Y0061079D03*
X0025669Y0061079D03*
X0025669Y0063638D03*
X0025669Y0066197D03*
X0212677Y0081945D03*
X0212677Y0084504D03*
X0212677Y0087063D03*
X0220157Y0087063D03*
X0220157Y0084504D03*
X0220157Y0081945D03*
D31*
X0083543Y0062850D03*
X0079803Y0062850D03*
X0076063Y0062850D03*
X0076063Y0051827D03*
X0083543Y0051827D03*
D32*
X0083346Y0097988D03*
X0077835Y0097988D03*
X0077835Y0108815D03*
X0083346Y0108815D03*
D33*
X0020748Y0116787D03*
X0103425Y0068756D03*
X0123110Y0059307D03*
X0130591Y0054976D03*
X0169567Y0038992D03*
X0179567Y0038992D03*
X0179567Y0028992D03*
X0169567Y0028992D03*
X0061693Y0047890D03*
D34*
X0114055Y0064031D03*
X0171929Y0087260D03*
D35*
X0046496Y0088008D02*
X0046496Y0090154D01*
X0044528Y0090154D02*
X0044528Y0088008D01*
X0042559Y0088008D02*
X0042559Y0090154D01*
X0040591Y0090154D02*
X0040591Y0088008D01*
X0038622Y0088008D02*
X0038622Y0090154D01*
X0038622Y0078638D02*
X0038622Y0076492D01*
X0040591Y0076492D02*
X0040591Y0078638D01*
X0042559Y0078638D02*
X0042559Y0076492D01*
X0044528Y0076492D02*
X0044528Y0078638D01*
X0046496Y0078638D02*
X0046496Y0076492D01*
D36*
X0042559Y0083323D03*
D37*
X0170157Y0078618D03*
X0170157Y0073618D03*
X0170157Y0068618D03*
X0170157Y0063618D03*
X0191024Y0063618D03*
X0191024Y0068618D03*
X0191024Y0073618D03*
X0191024Y0078618D03*
D38*
X0152657Y0071315D03*
X0147657Y0071315D03*
X0142657Y0071315D03*
X0137657Y0071315D03*
X0137657Y0092181D03*
X0142657Y0092181D03*
X0147657Y0092181D03*
X0152657Y0092181D03*
D39*
X0145157Y0098677D02*
X0144370Y0098677D01*
X0146142Y0114031D02*
X0145945Y0114228D01*
X0160709Y0114031D02*
X0160906Y0114228D01*
X0167402Y0114031D02*
X0168110Y0114031D01*
X0185118Y0103638D02*
X0185315Y0103835D01*
X0187087Y0123874D02*
X0187480Y0124268D01*
X0222323Y0100646D02*
X0222913Y0100646D01*
X0228898Y0110291D02*
X0227953Y0111236D01*
X0252441Y0089228D02*
X0253031Y0088638D01*
X0241614Y0086079D02*
X0241516Y0086177D01*
X0238957Y0086177D02*
X0238858Y0086079D01*
X0220157Y0081945D02*
X0219961Y0081748D01*
X0212677Y0074268D02*
X0213071Y0073874D01*
X0211693Y0055862D02*
X0211890Y0055665D01*
X0212480Y0040016D02*
X0212480Y0039622D01*
X0211890Y0039031D01*
X0211890Y0035685D01*
X0184626Y0051827D02*
X0184528Y0051827D01*
X0149094Y0050941D02*
X0148602Y0051433D01*
X0149094Y0046020D02*
X0148799Y0045724D01*
X0136693Y0050843D02*
X0133937Y0048087D01*
X0133937Y0044740D01*
X0134528Y0031551D02*
X0134724Y0031354D01*
X0083543Y0050449D02*
X0083543Y0051827D01*
X0079803Y0062850D02*
X0080197Y0063244D01*
X0057756Y0079780D02*
X0055541Y0077959D01*
X0045945Y0072102D02*
X0045551Y0070528D01*
X0045354Y0064819D02*
X0045551Y0063835D01*
X0044567Y0064819D01*
X0033150Y0066197D02*
X0032953Y0066000D01*
X0031969Y0073480D02*
X0031969Y0074071D01*
X0025669Y0073087D02*
X0025276Y0073480D01*
X0010709Y0073480D02*
X0010512Y0073283D01*
X0033543Y0055370D02*
X0034921Y0055370D01*
X0010709Y0054386D02*
X0010709Y0053008D01*
X0075866Y0036079D02*
X0077047Y0034898D01*
X0097480Y0110016D02*
X0097520Y0110055D01*
X0067992Y0121197D02*
X0067953Y0121236D01*
D40*
X0074617Y0111084D02*
X0079409Y0111084D01*
X0079409Y0111669D02*
X0079409Y0105764D01*
X0075472Y0105764D01*
X0067992Y0101039D01*
X0060512Y0101039D01*
X0060512Y0106551D01*
X0067992Y0106551D01*
X0075472Y0111669D01*
X0079409Y0111669D01*
X0079409Y0110485D02*
X0073742Y0110485D01*
X0072867Y0109887D02*
X0079409Y0109887D01*
X0079409Y0109288D02*
X0071992Y0109288D01*
X0071118Y0108690D02*
X0079409Y0108690D01*
X0079409Y0108091D02*
X0070243Y0108091D01*
X0069368Y0107493D02*
X0079409Y0107493D01*
X0079409Y0106894D02*
X0068493Y0106894D01*
X0072524Y0103902D02*
X0060512Y0103902D01*
X0060512Y0104500D02*
X0073472Y0104500D01*
X0074419Y0105099D02*
X0060512Y0105099D01*
X0060512Y0105697D02*
X0075367Y0105697D01*
X0079409Y0106296D02*
X0060512Y0106296D01*
X0060512Y0103303D02*
X0071576Y0103303D01*
X0070629Y0102705D02*
X0060512Y0102705D01*
X0060512Y0102106D02*
X0069681Y0102106D01*
X0068733Y0101508D02*
X0060512Y0101508D01*
X0051063Y0101508D02*
X0044370Y0101508D01*
X0044370Y0102106D02*
X0051063Y0102106D01*
X0051063Y0102705D02*
X0044370Y0102705D01*
X0044370Y0103303D02*
X0051063Y0103303D01*
X0051063Y0103902D02*
X0044370Y0103902D01*
X0044370Y0104500D02*
X0051063Y0104500D01*
X0051063Y0105099D02*
X0044370Y0105099D01*
X0044370Y0105697D02*
X0051063Y0105697D01*
X0051063Y0106296D02*
X0044370Y0106296D01*
X0044370Y0106551D02*
X0044370Y0091243D01*
X0044610Y0091003D01*
X0044610Y0088047D01*
X0046732Y0088047D01*
X0046732Y0089622D01*
X0051063Y0093953D01*
X0051063Y0106551D01*
X0044370Y0106551D01*
X0044370Y0100909D02*
X0051063Y0100909D01*
X0051063Y0100310D02*
X0044370Y0100310D01*
X0044370Y0099712D02*
X0051063Y0099712D01*
X0051063Y0099113D02*
X0044370Y0099113D01*
X0044370Y0098515D02*
X0051063Y0098515D01*
X0051063Y0097916D02*
X0044370Y0097916D01*
X0044370Y0097318D02*
X0051063Y0097318D01*
X0051063Y0096719D02*
X0044370Y0096719D01*
X0044370Y0096121D02*
X0051063Y0096121D01*
X0051063Y0095522D02*
X0044370Y0095522D01*
X0044370Y0094924D02*
X0051063Y0094924D01*
X0051063Y0094325D02*
X0044370Y0094325D01*
X0044370Y0093727D02*
X0050837Y0093727D01*
X0050239Y0093128D02*
X0044370Y0093128D01*
X0044370Y0092530D02*
X0049640Y0092530D01*
X0049042Y0091931D02*
X0044370Y0091931D01*
X0044370Y0091333D02*
X0048443Y0091333D01*
X0047845Y0090734D02*
X0044610Y0090734D01*
X0044610Y0090136D02*
X0047246Y0090136D01*
X0046732Y0089537D02*
X0044610Y0089537D01*
X0044610Y0088939D02*
X0046732Y0088939D01*
X0046732Y0088340D02*
X0044610Y0088340D01*
X0073110Y0052142D02*
X0073582Y0052139D01*
X0073582Y0052117D01*
X0075772Y0052117D01*
X0075772Y0051536D01*
X0073582Y0051536D01*
X0073582Y0049490D01*
X0073670Y0049160D01*
X0073842Y0048863D01*
X0074084Y0048621D01*
X0074380Y0048450D01*
X0074711Y0048361D01*
X0075772Y0048361D01*
X0075772Y0051536D01*
X0076354Y0051536D01*
X0076354Y0052117D01*
X0077258Y0052117D01*
X0079803Y0052102D01*
X0079803Y0050646D01*
X0081772Y0047496D01*
X0081772Y0042457D01*
X0081005Y0042453D01*
X0081005Y0042472D01*
X0077347Y0042472D01*
X0077347Y0043072D01*
X0076747Y0043072D01*
X0076747Y0046237D01*
X0074219Y0046237D01*
X0073888Y0046148D01*
X0073592Y0045977D01*
X0073350Y0045735D01*
X0073178Y0045439D01*
X0073090Y0045108D01*
X0073090Y0043072D01*
X0076747Y0043072D01*
X0076747Y0042472D01*
X0073090Y0042472D01*
X0073090Y0042414D01*
X0065630Y0042378D01*
X0063804Y0043682D01*
X0064160Y0043863D01*
X0064760Y0044299D01*
X0065284Y0044823D01*
X0065719Y0045422D01*
X0066056Y0046083D01*
X0066285Y0046787D01*
X0066401Y0047519D01*
X0066401Y0047590D01*
X0061993Y0047590D01*
X0061993Y0048190D01*
X0066401Y0048190D01*
X0066401Y0048260D01*
X0066285Y0048992D01*
X0066056Y0049697D01*
X0065974Y0049858D01*
X0070354Y0049858D01*
X0072874Y0051945D01*
X0073110Y0052142D01*
X0072737Y0051831D02*
X0075772Y0051831D01*
X0076354Y0051831D02*
X0079803Y0051831D01*
X0079803Y0051233D02*
X0078544Y0051233D01*
X0078544Y0051536D02*
X0076354Y0051536D01*
X0076354Y0048361D01*
X0077415Y0048361D01*
X0077746Y0048450D01*
X0078042Y0048621D01*
X0078284Y0048863D01*
X0078455Y0049160D01*
X0078544Y0049490D01*
X0078544Y0051536D01*
X0078544Y0050634D02*
X0079810Y0050634D01*
X0080184Y0050036D02*
X0078544Y0050036D01*
X0078530Y0049437D02*
X0080559Y0049437D01*
X0080933Y0048839D02*
X0078260Y0048839D01*
X0076354Y0048839D02*
X0075772Y0048839D01*
X0075772Y0049437D02*
X0076354Y0049437D01*
X0076354Y0050036D02*
X0075772Y0050036D01*
X0075772Y0050634D02*
X0076354Y0050634D01*
X0076354Y0051233D02*
X0075772Y0051233D01*
X0073582Y0051233D02*
X0072014Y0051233D01*
X0071291Y0050634D02*
X0073582Y0050634D01*
X0073582Y0050036D02*
X0070568Y0050036D01*
X0073596Y0049437D02*
X0066140Y0049437D01*
X0066309Y0048839D02*
X0073866Y0048839D01*
X0073460Y0045846D02*
X0065935Y0045846D01*
X0066173Y0046444D02*
X0081772Y0046444D01*
X0081772Y0045846D02*
X0080634Y0045846D01*
X0080745Y0045735D02*
X0080503Y0045977D01*
X0080206Y0046148D01*
X0079876Y0046237D01*
X0077347Y0046237D01*
X0077347Y0043072D01*
X0081005Y0043072D01*
X0081005Y0045108D01*
X0080916Y0045439D01*
X0080745Y0045735D01*
X0080967Y0045247D02*
X0081772Y0045247D01*
X0081772Y0044649D02*
X0081005Y0044649D01*
X0081005Y0044050D02*
X0081772Y0044050D01*
X0081772Y0043452D02*
X0081005Y0043452D01*
X0081772Y0042853D02*
X0077347Y0042853D01*
X0077347Y0043452D02*
X0076747Y0043452D01*
X0076747Y0044050D02*
X0077347Y0044050D01*
X0077347Y0044649D02*
X0076747Y0044649D01*
X0076747Y0045247D02*
X0077347Y0045247D01*
X0077347Y0045846D02*
X0076747Y0045846D01*
X0076747Y0042853D02*
X0064964Y0042853D01*
X0064126Y0043452D02*
X0073090Y0043452D01*
X0073090Y0044050D02*
X0064418Y0044050D01*
X0065110Y0044649D02*
X0073090Y0044649D01*
X0073127Y0045247D02*
X0065592Y0045247D01*
X0066325Y0047043D02*
X0081772Y0047043D01*
X0081681Y0047641D02*
X0061993Y0047641D01*
X0066401Y0048240D02*
X0081307Y0048240D01*
D41*
X0083543Y0048874D02*
X0083543Y0051827D01*
X0083543Y0048874D02*
X0084921Y0047496D01*
X0084921Y0039425D01*
X0084921Y0032732D02*
X0084921Y0029386D01*
X0083346Y0027811D01*
X0089646Y0028992D02*
X0090827Y0027811D01*
X0094173Y0027811D01*
X0094370Y0028008D01*
X0117598Y0028008D01*
X0121339Y0028008D01*
X0122717Y0029386D01*
X0122717Y0043559D01*
X0119173Y0047102D01*
X0127047Y0044543D02*
X0127244Y0044740D01*
X0127244Y0038441D01*
X0127047Y0038244D01*
X0134528Y0036472D02*
X0134724Y0036276D01*
X0134724Y0031354D01*
X0127244Y0031354D01*
X0127047Y0031551D01*
X0117598Y0034701D02*
X0109331Y0034701D01*
X0101850Y0034701D02*
X0094370Y0034701D01*
X0089646Y0028992D02*
X0089646Y0056157D01*
X0088465Y0057339D01*
X0085315Y0057339D01*
X0083543Y0059110D01*
X0083543Y0062850D01*
X0076273Y0062844D02*
X0067933Y0062844D01*
X0068386Y0062457D02*
X0065630Y0064819D01*
X0065630Y0067969D01*
X0072717Y0077024D01*
X0073504Y0077024D01*
X0076654Y0073874D01*
X0076260Y0062457D01*
X0068386Y0062457D01*
X0066768Y0063843D02*
X0076308Y0063843D01*
X0076342Y0064841D02*
X0065630Y0064841D01*
X0065630Y0065840D02*
X0076377Y0065840D01*
X0076411Y0066839D02*
X0065630Y0066839D01*
X0065630Y0067837D02*
X0076445Y0067837D01*
X0076480Y0068836D02*
X0066308Y0068836D01*
X0067090Y0069834D02*
X0076514Y0069834D01*
X0076549Y0070833D02*
X0067871Y0070833D01*
X0068653Y0071831D02*
X0076583Y0071831D01*
X0076618Y0072830D02*
X0069434Y0072830D01*
X0070216Y0073828D02*
X0076652Y0073828D01*
X0075701Y0074827D02*
X0070997Y0074827D01*
X0071779Y0075825D02*
X0074702Y0075825D01*
X0073704Y0076824D02*
X0072560Y0076824D01*
X0085591Y0078598D02*
X0093583Y0078598D01*
X0103425Y0068756D01*
X0114055Y0064031D02*
X0118780Y0059307D01*
X0123110Y0059307D01*
X0129803Y0063835D02*
X0129803Y0071512D01*
X0133346Y0071512D02*
X0137461Y0071512D01*
X0137657Y0071315D01*
X0142657Y0071315D02*
X0142795Y0071453D01*
X0142795Y0075055D01*
X0144370Y0076630D01*
X0151063Y0076630D01*
X0152657Y0075035D01*
X0152657Y0071315D01*
X0152441Y0071098D01*
X0152441Y0063638D01*
X0152441Y0059504D01*
X0151457Y0058520D01*
X0147657Y0059445D02*
X0147657Y0071315D01*
X0155394Y0078205D02*
X0147657Y0085941D01*
X0147657Y0092181D01*
X0147520Y0092319D01*
X0147520Y0096315D01*
X0145157Y0098677D01*
X0144370Y0098677D02*
X0150669Y0104976D01*
X0153031Y0104976D01*
X0155787Y0102220D01*
X0160906Y0102220D01*
X0162323Y0103638D01*
X0181181Y0103638D01*
X0185118Y0103638D02*
X0185118Y0107732D01*
X0186299Y0108913D01*
X0180984Y0108913D01*
X0180394Y0114031D02*
X0183740Y0114031D01*
X0185709Y0116000D01*
X0185906Y0115803D01*
X0195354Y0115803D01*
X0187087Y0117378D02*
X0187087Y0123874D01*
X0187480Y0124268D02*
X0187480Y0136079D01*
X0194173Y0136079D02*
X0200866Y0136079D01*
X0207559Y0136079D02*
X0213110Y0136079D01*
X0217953Y0131236D01*
X0216890Y0130173D01*
X0207756Y0130173D01*
X0207559Y0123874D02*
X0215315Y0123874D01*
X0217953Y0121236D01*
X0214291Y0117575D01*
X0207362Y0117575D01*
X0200866Y0123874D02*
X0193780Y0123874D01*
X0187087Y0117378D02*
X0185709Y0116000D01*
X0192992Y0108913D02*
X0199094Y0108913D01*
X0205394Y0102614D01*
X0205394Y0100055D01*
X0213268Y0100055D02*
X0213268Y0103402D01*
X0207362Y0109307D01*
X0213268Y0102614D02*
X0214449Y0103795D01*
X0219961Y0103795D01*
X0223110Y0106945D01*
X0223110Y0126394D01*
X0227953Y0131236D01*
X0227953Y0111236D02*
X0229606Y0109583D01*
X0229606Y0100646D01*
X0222323Y0100646D02*
X0219961Y0100646D01*
X0219173Y0099858D01*
X0219173Y0097496D01*
X0218780Y0097102D01*
X0221535Y0094346D01*
X0224094Y0094346D01*
X0221142Y0090016D02*
X0217795Y0093362D01*
X0213268Y0093362D01*
X0205394Y0093362D01*
X0200276Y0089622D02*
X0202835Y0087063D01*
X0205394Y0087063D01*
X0212677Y0087063D01*
X0212677Y0084504D02*
X0209331Y0084504D01*
X0208937Y0084110D01*
X0208937Y0081748D01*
X0207559Y0080370D01*
X0205394Y0080370D01*
X0205394Y0075055D01*
X0199882Y0075646D02*
X0199882Y0082535D01*
X0195157Y0085882D02*
X0194961Y0085685D01*
X0189646Y0085685D01*
X0184921Y0080961D01*
X0184921Y0075449D01*
X0186752Y0073618D01*
X0191024Y0073618D01*
X0191024Y0068618D02*
X0191024Y0063618D01*
X0191398Y0063244D01*
X0194764Y0063244D01*
X0195748Y0064228D01*
X0195748Y0066000D01*
X0199488Y0066000D01*
X0199882Y0066394D01*
X0199882Y0068953D01*
X0198307Y0062457D02*
X0205394Y0062457D01*
X0206772Y0061079D01*
X0206772Y0055665D01*
X0211890Y0055665D02*
X0212087Y0055862D01*
X0212087Y0062063D01*
X0212874Y0062850D01*
X0216024Y0062850D01*
X0216811Y0062063D01*
X0216811Y0055665D01*
X0217106Y0055370D01*
X0220748Y0055370D01*
X0222520Y0053598D01*
X0226260Y0053598D01*
X0226260Y0060882D01*
X0227047Y0066787D02*
X0227047Y0072102D01*
X0219961Y0074071D02*
X0219961Y0077417D01*
X0221339Y0078795D01*
X0227047Y0078795D01*
X0227047Y0082142D01*
X0224685Y0084504D01*
X0220157Y0084504D01*
X0220157Y0087063D02*
X0226457Y0087063D01*
X0236693Y0076827D01*
X0236693Y0051236D01*
X0226260Y0046906D02*
X0225669Y0046315D01*
X0226260Y0045724D01*
X0226260Y0041984D01*
X0230197Y0033717D02*
X0230197Y0028008D01*
X0230394Y0027811D01*
X0223701Y0027811D02*
X0223307Y0027417D01*
X0212874Y0027417D01*
X0211890Y0028402D01*
X0211890Y0035685D01*
X0206772Y0034602D02*
X0206575Y0034406D01*
X0206575Y0027417D01*
X0201850Y0034602D02*
X0196634Y0034602D01*
X0193189Y0038047D01*
X0193189Y0043264D01*
X0184626Y0051827D01*
X0184528Y0051827D02*
X0179567Y0046866D01*
X0179567Y0038992D01*
X0173209Y0046020D02*
X0170354Y0046020D01*
X0169567Y0045232D01*
X0169567Y0038992D01*
X0170354Y0046020D02*
X0157756Y0046020D01*
X0157756Y0050941D02*
X0170256Y0050941D01*
X0177835Y0058520D01*
X0185709Y0058520D02*
X0173209Y0046020D01*
X0157756Y0036177D02*
X0149094Y0036177D01*
X0149094Y0032929D01*
X0147520Y0031354D01*
X0141417Y0031354D01*
X0143583Y0039228D02*
X0145453Y0041098D01*
X0149094Y0041098D01*
X0143583Y0039228D02*
X0141614Y0041197D01*
X0141614Y0044150D01*
X0145157Y0046709D02*
X0145157Y0050941D01*
X0149094Y0050941D01*
X0145157Y0050941D02*
X0143091Y0050941D01*
X0142008Y0049858D01*
X0141614Y0050843D01*
X0136693Y0050843D01*
X0136496Y0051039D01*
X0145157Y0046709D02*
X0145945Y0045921D01*
X0148996Y0045921D01*
X0149094Y0046020D01*
X0145551Y0057339D02*
X0138465Y0057339D01*
X0137283Y0058520D01*
X0137283Y0063047D01*
X0136693Y0063638D01*
X0130000Y0063638D02*
X0129803Y0063835D01*
X0117205Y0072299D02*
X0117205Y0076827D01*
X0116220Y0077811D01*
X0117008Y0078598D01*
X0117008Y0082535D01*
X0115039Y0084504D01*
X0113957Y0084504D01*
X0111398Y0084504D02*
X0111398Y0081846D01*
X0109528Y0079976D01*
X0109528Y0077811D01*
X0106181Y0077811D01*
X0104606Y0079386D01*
X0115236Y0089622D02*
X0117205Y0087654D01*
X0120551Y0087654D01*
X0127244Y0087654D02*
X0130984Y0087654D01*
X0132953Y0085685D01*
X0132953Y0080961D01*
X0136102Y0080961D01*
X0137677Y0082535D01*
X0137677Y0092161D01*
X0137657Y0092181D01*
X0142657Y0092181D02*
X0142795Y0092043D01*
X0142795Y0088441D01*
X0140433Y0086079D01*
X0140433Y0079386D01*
X0138071Y0077024D01*
X0126654Y0077024D01*
X0123504Y0080173D01*
X0115236Y0089622D02*
X0110512Y0089622D01*
X0108839Y0091295D01*
X0108839Y0094740D01*
X0108937Y0094642D01*
X0111299Y0094642D02*
X0111398Y0094740D01*
X0111299Y0094839D01*
X0111299Y0098283D01*
X0113268Y0100252D01*
X0128622Y0100252D01*
X0134921Y0106551D01*
X0144764Y0106551D01*
X0139252Y0102220D02*
X0134134Y0102220D01*
X0129016Y0097102D01*
X0118386Y0097102D01*
X0116417Y0095134D01*
X0114350Y0095134D01*
X0113957Y0094740D01*
X0111693Y0094445D02*
X0111398Y0094740D01*
X0106280Y0094740D02*
X0106181Y0094839D01*
X0106181Y0097890D01*
X0105000Y0099071D01*
X0102244Y0099071D01*
X0097520Y0110055D02*
X0097520Y0117575D01*
X0095197Y0119898D01*
X0090866Y0119898D01*
X0102047Y0126236D02*
X0102441Y0126630D01*
X0102047Y0126236D02*
X0072717Y0126236D01*
X0067953Y0131000D01*
X0067953Y0131236D01*
X0077953Y0131236D02*
X0120866Y0131236D01*
X0122323Y0129780D01*
X0122323Y0126433D01*
X0117480Y0117772D02*
X0112756Y0122496D01*
X0107480Y0118638D02*
X0106181Y0119937D01*
X0102441Y0119937D01*
X0107480Y0118638D02*
X0107480Y0110016D01*
X0117480Y0110016D02*
X0117480Y0117772D01*
X0122323Y0119740D02*
X0122520Y0119543D01*
X0126260Y0119543D01*
X0127480Y0118323D01*
X0127480Y0110016D01*
X0137126Y0114622D02*
X0143583Y0121079D01*
X0143583Y0127417D01*
X0145551Y0129386D01*
X0150906Y0129386D01*
X0160906Y0129386D02*
X0160906Y0114228D01*
X0160709Y0114031D02*
X0152835Y0114031D01*
X0154213Y0108520D02*
X0154606Y0108126D01*
X0160709Y0108126D01*
X0167402Y0108126D02*
X0167795Y0108520D01*
X0172323Y0108520D01*
X0173701Y0109898D01*
X0173701Y0114031D01*
X0173504Y0114228D01*
X0173307Y0114031D01*
X0167402Y0114031D01*
X0173504Y0114228D02*
X0173504Y0116787D01*
X0170906Y0119386D01*
X0170906Y0129386D01*
X0155787Y0119150D02*
X0147520Y0119150D01*
X0145945Y0117575D01*
X0145945Y0114228D01*
X0151457Y0099858D02*
X0152657Y0098657D01*
X0152657Y0092181D01*
X0154803Y0092181D01*
X0156575Y0090409D01*
X0156575Y0083323D01*
X0158937Y0080961D01*
X0164055Y0080961D01*
X0166398Y0078618D01*
X0170157Y0078618D01*
X0165098Y0073618D02*
X0163661Y0075055D01*
X0160512Y0078205D01*
X0155394Y0078205D01*
X0165098Y0073618D02*
X0170157Y0073618D01*
X0165374Y0068618D02*
X0163661Y0070331D01*
X0159331Y0070331D01*
X0165374Y0068618D02*
X0170157Y0068618D01*
X0170157Y0063618D02*
X0159154Y0063618D01*
X0159134Y0063638D01*
X0158937Y0063441D01*
X0158937Y0058913D01*
X0147657Y0059445D02*
X0145551Y0057339D01*
X0109331Y0050606D02*
X0109331Y0041394D01*
X0101850Y0041394D02*
X0101654Y0041591D01*
X0099488Y0041591D01*
X0098031Y0043047D01*
X0098031Y0051906D01*
X0108031Y0051906D02*
X0109331Y0050606D01*
X0057756Y0079780D02*
X0054606Y0079780D01*
X0052244Y0077417D01*
X0046644Y0077417D01*
X0046496Y0077565D01*
X0046496Y0072654D01*
X0045945Y0072102D01*
X0044528Y0076000D02*
X0044528Y0077565D01*
X0044528Y0076000D02*
X0041614Y0073087D01*
X0041614Y0069150D01*
X0038661Y0066197D01*
X0041024Y0063835D01*
X0045551Y0063835D01*
X0038661Y0066197D02*
X0033150Y0066197D01*
X0032953Y0066000D02*
X0030197Y0066000D01*
X0029409Y0065213D01*
X0029409Y0062063D01*
X0028425Y0061079D01*
X0025669Y0061079D01*
X0027835Y0058913D02*
X0032165Y0058913D01*
X0033150Y0059898D01*
X0033150Y0061079D01*
X0033150Y0063638D02*
X0036496Y0063638D01*
X0038071Y0062063D01*
X0038071Y0058126D01*
X0041811Y0058126D01*
X0042402Y0057535D01*
X0038071Y0058126D02*
X0038071Y0055370D01*
X0033543Y0055370D01*
X0038071Y0055370D02*
X0038071Y0050252D01*
X0037283Y0049465D01*
X0033543Y0049465D01*
X0026850Y0049465D02*
X0024291Y0049465D01*
X0022323Y0051433D01*
X0022323Y0053008D01*
X0024685Y0055370D01*
X0026850Y0055370D01*
X0026850Y0057929D01*
X0027835Y0058913D01*
X0025669Y0063638D02*
X0021929Y0063638D01*
X0018386Y0060094D01*
X0014843Y0056551D01*
X0011693Y0056551D01*
X0010709Y0055567D01*
X0010709Y0053008D01*
X0017402Y0053008D02*
X0022323Y0053008D01*
X0013071Y0060291D02*
X0010512Y0060291D01*
X0013071Y0060291D02*
X0016024Y0063244D01*
X0016024Y0066787D01*
X0010512Y0066984D02*
X0010512Y0073283D01*
X0017402Y0073480D02*
X0025276Y0073480D01*
X0025276Y0079583D01*
X0027441Y0081748D01*
X0027941Y0083201D02*
X0030296Y0083201D01*
X0030677Y0083303D01*
X0031019Y0083500D01*
X0031299Y0083780D01*
X0031496Y0084122D01*
X0031598Y0084503D01*
X0031598Y0086366D01*
X0027941Y0086366D01*
X0027941Y0083201D01*
X0027941Y0083813D02*
X0026941Y0083813D01*
X0026941Y0083201D02*
X0026941Y0086366D01*
X0027941Y0086366D01*
X0027941Y0087366D01*
X0031598Y0087366D01*
X0031598Y0087388D01*
X0033937Y0087378D01*
X0036260Y0085961D01*
X0047520Y0085961D01*
X0053819Y0091984D01*
X0057756Y0091984D01*
X0057756Y0088154D01*
X0057256Y0088154D01*
X0057256Y0091319D01*
X0054901Y0091319D01*
X0054519Y0091217D01*
X0054177Y0091019D01*
X0053898Y0090740D01*
X0053701Y0090398D01*
X0053598Y0090016D01*
X0053598Y0088154D01*
X0057256Y0088154D01*
X0057256Y0087154D01*
X0053598Y0087154D01*
X0053598Y0085391D01*
X0052638Y0084110D01*
X0052638Y0080961D01*
X0051850Y0080173D01*
X0049488Y0080173D01*
X0048031Y0080685D01*
X0037283Y0080685D01*
X0035709Y0080173D01*
X0007500Y0080173D01*
X0007500Y0083401D01*
X0007669Y0083303D01*
X0008051Y0083201D01*
X0010406Y0083201D01*
X0010406Y0086366D01*
X0011405Y0086366D01*
X0011405Y0083201D01*
X0013760Y0083201D01*
X0014142Y0083303D01*
X0014484Y0083500D01*
X0014763Y0083780D01*
X0014961Y0084122D01*
X0015039Y0084415D01*
X0015118Y0084122D01*
X0015315Y0083780D01*
X0015595Y0083500D01*
X0015937Y0083303D01*
X0016318Y0083201D01*
X0018673Y0083201D01*
X0018673Y0086366D01*
X0011406Y0086366D01*
X0011406Y0087366D01*
X0015016Y0087366D01*
X0018673Y0087366D01*
X0018673Y0086366D01*
X0019673Y0086366D01*
X0019673Y0083201D01*
X0022028Y0083201D01*
X0022410Y0083303D01*
X0022752Y0083500D01*
X0023031Y0083780D01*
X0023228Y0084122D01*
X0023307Y0084415D01*
X0023386Y0084122D01*
X0023583Y0083780D01*
X0023862Y0083500D01*
X0024204Y0083303D01*
X0024586Y0083201D01*
X0026941Y0083201D01*
X0026941Y0084812D02*
X0027941Y0084812D01*
X0027941Y0085810D02*
X0026941Y0085810D01*
X0026941Y0086366D02*
X0023331Y0086366D01*
X0019673Y0086366D01*
X0019673Y0087366D01*
X0026941Y0087366D01*
X0026941Y0086366D01*
X0026941Y0086809D02*
X0019673Y0086809D01*
X0019673Y0085810D02*
X0018673Y0085810D01*
X0018673Y0084812D02*
X0019673Y0084812D01*
X0019673Y0083813D02*
X0018673Y0083813D01*
X0023050Y0083813D02*
X0023564Y0083813D01*
X0027941Y0086809D02*
X0034870Y0086809D01*
X0031598Y0085810D02*
X0053598Y0085810D01*
X0053598Y0086809D02*
X0048407Y0086809D01*
X0049451Y0087807D02*
X0057256Y0087807D01*
X0057256Y0088806D02*
X0057756Y0088806D01*
X0057756Y0089804D02*
X0057256Y0089804D01*
X0057256Y0090803D02*
X0057756Y0090803D01*
X0057756Y0091801D02*
X0053628Y0091801D01*
X0053961Y0090803D02*
X0052583Y0090803D01*
X0053598Y0089804D02*
X0051539Y0089804D01*
X0050495Y0088806D02*
X0053598Y0088806D01*
X0053164Y0084812D02*
X0031598Y0084812D01*
X0031318Y0083813D02*
X0052638Y0083813D01*
X0052638Y0082815D02*
X0007500Y0082815D01*
X0007500Y0081816D02*
X0052638Y0081816D01*
X0052495Y0080818D02*
X0007500Y0080818D01*
X0010406Y0083813D02*
X0011405Y0083813D01*
X0011405Y0084812D02*
X0010406Y0084812D01*
X0010406Y0085810D02*
X0011405Y0085810D01*
X0011406Y0086809D02*
X0018673Y0086809D01*
X0015296Y0083813D02*
X0014783Y0083813D01*
X0025276Y0073480D02*
X0025276Y0066591D01*
X0025669Y0066197D01*
X0031969Y0074071D02*
X0031969Y0076433D01*
X0032953Y0077417D01*
X0038474Y0077417D01*
X0038622Y0077565D01*
X0040591Y0077565D02*
X0040591Y0075606D01*
X0038465Y0073480D01*
X0037283Y0073480D01*
X0040873Y0088441D02*
X0040873Y0091086D01*
X0039555Y0092405D01*
X0039322Y0092405D01*
X0038465Y0093165D01*
X0032165Y0093165D01*
X0031598Y0093591D01*
X0031598Y0094240D01*
X0030732Y0094240D01*
X0030591Y0094346D01*
X0027941Y0094346D01*
X0027941Y0095240D01*
X0031598Y0095240D01*
X0031598Y0097103D01*
X0031496Y0097484D01*
X0031299Y0097827D01*
X0031019Y0098106D01*
X0030677Y0098303D01*
X0030296Y0098405D01*
X0027941Y0098405D01*
X0027941Y0095240D01*
X0026941Y0095240D01*
X0026941Y0094346D01*
X0019673Y0094346D01*
X0019673Y0095240D01*
X0018673Y0095240D01*
X0018673Y0094346D01*
X0011406Y0094346D01*
X0011406Y0095240D01*
X0015016Y0095240D01*
X0018673Y0095240D01*
X0018673Y0098405D01*
X0016318Y0098405D01*
X0015937Y0098303D01*
X0015595Y0098106D01*
X0015315Y0097827D01*
X0015118Y0097484D01*
X0015039Y0097191D01*
X0014961Y0097484D01*
X0014763Y0097827D01*
X0014484Y0098106D01*
X0014142Y0098303D01*
X0013760Y0098405D01*
X0011405Y0098405D01*
X0011405Y0095240D01*
X0010406Y0095240D01*
X0010406Y0098405D01*
X0008051Y0098405D01*
X0007669Y0098303D01*
X0007500Y0098206D01*
X0007500Y0123480D01*
X0015524Y0123480D01*
X0015524Y0122587D01*
X0016524Y0122587D01*
X0016524Y0123480D01*
X0024972Y0123480D01*
X0024972Y0122587D01*
X0021315Y0122587D01*
X0021315Y0121667D01*
X0021248Y0121677D01*
X0021248Y0117287D01*
X0025638Y0117287D01*
X0025535Y0117937D01*
X0025296Y0118671D01*
X0024946Y0119360D01*
X0024901Y0119421D01*
X0024972Y0119421D01*
X0024972Y0122587D01*
X0025972Y0122587D01*
X0025972Y0119421D01*
X0028228Y0119421D01*
X0028228Y0109701D01*
X0028795Y0109134D01*
X0029044Y0108534D01*
X0030014Y0107563D01*
X0030614Y0107315D01*
X0032559Y0105370D01*
X0033707Y0105370D01*
X0034432Y0105070D01*
X0035804Y0105070D01*
X0036530Y0105370D01*
X0038858Y0105370D01*
X0042205Y0101433D01*
X0042205Y0088441D01*
X0040873Y0088441D01*
X0040873Y0088806D02*
X0042205Y0088806D01*
X0042205Y0089804D02*
X0040873Y0089804D01*
X0040873Y0090803D02*
X0042205Y0090803D01*
X0042205Y0091801D02*
X0040158Y0091801D01*
X0038877Y0092800D02*
X0042205Y0092800D01*
X0042205Y0093798D02*
X0031598Y0093798D01*
X0031598Y0095795D02*
X0042205Y0095795D01*
X0042205Y0094797D02*
X0027941Y0094797D01*
X0027941Y0095795D02*
X0026941Y0095795D01*
X0026941Y0095240D02*
X0026941Y0098405D01*
X0024586Y0098405D01*
X0024204Y0098303D01*
X0023862Y0098106D01*
X0023583Y0097827D01*
X0023386Y0097484D01*
X0023307Y0097191D01*
X0023228Y0097484D01*
X0023031Y0097827D01*
X0022752Y0098106D01*
X0022410Y0098303D01*
X0022028Y0098405D01*
X0019673Y0098405D01*
X0019673Y0095240D01*
X0026941Y0095240D01*
X0026941Y0094797D02*
X0019673Y0094797D01*
X0019673Y0095795D02*
X0018673Y0095795D01*
X0018673Y0094797D02*
X0011406Y0094797D01*
X0011405Y0095795D02*
X0010406Y0095795D01*
X0010406Y0096794D02*
X0011405Y0096794D01*
X0011405Y0097792D02*
X0010406Y0097792D01*
X0007500Y0098791D02*
X0042205Y0098791D01*
X0042205Y0099789D02*
X0007500Y0099789D01*
X0007500Y0100788D02*
X0042205Y0100788D01*
X0041904Y0101786D02*
X0007500Y0101786D01*
X0007500Y0102785D02*
X0019875Y0102785D01*
X0020062Y0102707D02*
X0021434Y0102707D01*
X0022702Y0103233D01*
X0023673Y0104203D01*
X0024198Y0105471D01*
X0024198Y0106844D01*
X0023673Y0108112D01*
X0022702Y0109082D01*
X0021434Y0109607D01*
X0020062Y0109607D01*
X0018794Y0109082D01*
X0017823Y0108112D01*
X0017298Y0106844D01*
X0017298Y0105471D01*
X0017823Y0104203D01*
X0018794Y0103233D01*
X0020062Y0102707D01*
X0021621Y0102785D02*
X0041056Y0102785D01*
X0040207Y0103783D02*
X0023253Y0103783D01*
X0023912Y0104782D02*
X0039358Y0104782D01*
X0032149Y0105780D02*
X0024198Y0105780D01*
X0024198Y0106779D02*
X0031150Y0106779D01*
X0029800Y0107777D02*
X0023811Y0107777D01*
X0023009Y0108776D02*
X0028943Y0108776D01*
X0028228Y0109775D02*
X0007500Y0109775D01*
X0007500Y0110773D02*
X0028228Y0110773D01*
X0028228Y0111772D02*
X0007500Y0111772D01*
X0007500Y0112770D02*
X0017928Y0112770D01*
X0018176Y0112590D02*
X0018864Y0112239D01*
X0019599Y0112000D01*
X0020248Y0111898D01*
X0020248Y0116287D01*
X0021248Y0116287D01*
X0021248Y0111898D01*
X0021897Y0112000D01*
X0022632Y0112239D01*
X0023320Y0112590D01*
X0023945Y0113044D01*
X0024492Y0113590D01*
X0024946Y0114215D01*
X0025296Y0114903D01*
X0025535Y0115638D01*
X0025638Y0116287D01*
X0021248Y0116287D01*
X0021248Y0117287D01*
X0020248Y0117287D01*
X0020248Y0116287D01*
X0015858Y0116287D01*
X0015961Y0115638D01*
X0016200Y0114903D01*
X0016550Y0114215D01*
X0017005Y0113590D01*
X0017551Y0113044D01*
X0018176Y0112590D01*
X0016875Y0113769D02*
X0007500Y0113769D01*
X0007500Y0114767D02*
X0016269Y0114767D01*
X0015941Y0115766D02*
X0007500Y0115766D01*
X0007500Y0116764D02*
X0020248Y0116764D01*
X0020248Y0117287D02*
X0015858Y0117287D01*
X0015961Y0117937D01*
X0016200Y0118671D01*
X0016550Y0119360D01*
X0016595Y0119421D01*
X0016524Y0119421D01*
X0016524Y0122587D01*
X0020181Y0122587D01*
X0020181Y0121667D01*
X0020248Y0121677D01*
X0020248Y0117287D01*
X0020248Y0117763D02*
X0021248Y0117763D01*
X0021248Y0118761D02*
X0020248Y0118761D01*
X0020248Y0119760D02*
X0021248Y0119760D01*
X0021248Y0120758D02*
X0020248Y0120758D01*
X0020181Y0121757D02*
X0021315Y0121757D01*
X0024972Y0121757D02*
X0025972Y0121757D01*
X0025972Y0120758D02*
X0024972Y0120758D01*
X0024972Y0119760D02*
X0025972Y0119760D01*
X0025251Y0118761D02*
X0028228Y0118761D01*
X0028228Y0117763D02*
X0025563Y0117763D01*
X0025555Y0115766D02*
X0028228Y0115766D01*
X0028228Y0116764D02*
X0021248Y0116764D01*
X0021248Y0115766D02*
X0020248Y0115766D01*
X0020248Y0114767D02*
X0021248Y0114767D01*
X0021248Y0113769D02*
X0020248Y0113769D01*
X0020248Y0112770D02*
X0021248Y0112770D01*
X0023568Y0112770D02*
X0028228Y0112770D01*
X0028228Y0113769D02*
X0024621Y0113769D01*
X0025227Y0114767D02*
X0028228Y0114767D01*
X0018488Y0108776D02*
X0007500Y0108776D01*
X0007500Y0107777D02*
X0017685Y0107777D01*
X0017298Y0106779D02*
X0007500Y0106779D01*
X0007500Y0105780D02*
X0017298Y0105780D01*
X0017584Y0104782D02*
X0007500Y0104782D01*
X0007500Y0103783D02*
X0018243Y0103783D01*
X0018673Y0097792D02*
X0019673Y0097792D01*
X0019673Y0096794D02*
X0018673Y0096794D01*
X0023051Y0097792D02*
X0023563Y0097792D01*
X0026941Y0097792D02*
X0027941Y0097792D01*
X0027941Y0096794D02*
X0026941Y0096794D01*
X0031318Y0097792D02*
X0042205Y0097792D01*
X0042205Y0096794D02*
X0031598Y0096794D01*
X0015296Y0097792D02*
X0014783Y0097792D01*
X0015933Y0117763D02*
X0007500Y0117763D01*
X0007500Y0118761D02*
X0016245Y0118761D01*
X0015524Y0119421D02*
X0015524Y0122587D01*
X0011866Y0122587D01*
X0011866Y0120724D01*
X0011968Y0120342D01*
X0012166Y0120000D01*
X0012445Y0119721D01*
X0012787Y0119523D01*
X0013169Y0119421D01*
X0015524Y0119421D01*
X0015524Y0119760D02*
X0016524Y0119760D01*
X0016524Y0120758D02*
X0015524Y0120758D01*
X0015524Y0121757D02*
X0016524Y0121757D01*
X0016524Y0122755D02*
X0024972Y0122755D01*
X0015524Y0122755D02*
X0007500Y0122755D01*
X0007500Y0121757D02*
X0011866Y0121757D01*
X0011866Y0120758D02*
X0007500Y0120758D01*
X0007500Y0119760D02*
X0012406Y0119760D01*
X0015524Y0130567D02*
X0008367Y0130567D01*
X0009831Y0133103D01*
X0011913Y0135185D01*
X0014463Y0136657D01*
X0017307Y0137419D01*
X0018779Y0137516D01*
X0048307Y0137516D01*
X0048307Y0131721D01*
X0047468Y0131721D01*
X0047468Y0136089D01*
X0046813Y0135985D01*
X0046084Y0135748D01*
X0045401Y0135400D01*
X0044781Y0134950D01*
X0044239Y0134408D01*
X0043789Y0133788D01*
X0043441Y0133105D01*
X0043204Y0132376D01*
X0043100Y0131720D01*
X0047468Y0131720D01*
X0047468Y0130752D01*
X0043100Y0130752D01*
X0043130Y0130567D01*
X0042776Y0130567D01*
X0042805Y0130752D01*
X0038437Y0130752D01*
X0038437Y0131720D01*
X0042805Y0131720D01*
X0042701Y0132376D01*
X0042465Y0133105D01*
X0042117Y0133788D01*
X0041666Y0134408D01*
X0041124Y0134950D01*
X0040504Y0135400D01*
X0039822Y0135748D01*
X0039093Y0135985D01*
X0038437Y0136089D01*
X0038437Y0131721D01*
X0037468Y0131721D01*
X0037468Y0136089D01*
X0036813Y0135985D01*
X0036084Y0135748D01*
X0035401Y0135400D01*
X0034781Y0134950D01*
X0034239Y0134408D01*
X0033789Y0133788D01*
X0033441Y0133105D01*
X0033204Y0132376D01*
X0033100Y0131720D01*
X0037468Y0131720D01*
X0037468Y0130752D01*
X0033100Y0130752D01*
X0033130Y0130567D01*
X0025972Y0130567D01*
X0025972Y0131461D01*
X0024972Y0131461D01*
X0024972Y0130567D01*
X0016524Y0130567D01*
X0016524Y0131461D01*
X0015524Y0131461D01*
X0015524Y0134626D01*
X0013169Y0134626D01*
X0012787Y0134524D01*
X0012445Y0134326D01*
X0012166Y0134047D01*
X0011968Y0133705D01*
X0011866Y0133323D01*
X0011866Y0131461D01*
X0015524Y0131461D01*
X0015524Y0130567D01*
X0015524Y0130743D02*
X0008469Y0130743D01*
X0009045Y0131742D02*
X0011866Y0131742D01*
X0011866Y0132740D02*
X0009622Y0132740D01*
X0010467Y0133739D02*
X0011988Y0133739D01*
X0011465Y0134737D02*
X0034569Y0134737D01*
X0033764Y0133739D02*
X0029508Y0133739D01*
X0029528Y0133705D02*
X0029330Y0134047D01*
X0029051Y0134326D01*
X0028709Y0134524D01*
X0028327Y0134626D01*
X0025972Y0134626D01*
X0025972Y0131461D01*
X0029630Y0131461D01*
X0029630Y0133323D01*
X0029528Y0133705D01*
X0029630Y0132740D02*
X0033322Y0132740D01*
X0033104Y0131742D02*
X0029630Y0131742D01*
X0033102Y0130743D02*
X0025972Y0130743D01*
X0025972Y0131742D02*
X0024972Y0131742D01*
X0024972Y0131461D02*
X0024972Y0134626D01*
X0022617Y0134626D01*
X0022236Y0134524D01*
X0021894Y0134326D01*
X0021615Y0134047D01*
X0021417Y0133705D01*
X0021315Y0133323D01*
X0021315Y0131461D01*
X0024972Y0131461D01*
X0024972Y0130743D02*
X0016524Y0130743D01*
X0016524Y0131461D02*
X0020181Y0131461D01*
X0020181Y0133323D01*
X0020079Y0133705D01*
X0019881Y0134047D01*
X0019602Y0134326D01*
X0019260Y0134524D01*
X0018879Y0134626D01*
X0016524Y0134626D01*
X0016524Y0131461D01*
X0016524Y0131742D02*
X0015524Y0131742D01*
X0015524Y0132740D02*
X0016524Y0132740D01*
X0016524Y0133739D02*
X0015524Y0133739D01*
X0012867Y0135736D02*
X0036060Y0135736D01*
X0037468Y0135736D02*
X0038437Y0135736D01*
X0038437Y0134737D02*
X0037468Y0134737D01*
X0037468Y0133739D02*
X0038437Y0133739D01*
X0038437Y0132740D02*
X0037468Y0132740D01*
X0037468Y0131742D02*
X0038437Y0131742D01*
X0041337Y0134737D02*
X0044569Y0134737D01*
X0043764Y0133739D02*
X0042142Y0133739D01*
X0042583Y0132740D02*
X0043322Y0132740D01*
X0043104Y0131742D02*
X0042802Y0131742D01*
X0042804Y0130743D02*
X0043102Y0130743D01*
X0047468Y0131742D02*
X0048307Y0131742D01*
X0048307Y0132740D02*
X0047468Y0132740D01*
X0047468Y0133739D02*
X0048307Y0133739D01*
X0048307Y0134737D02*
X0047468Y0134737D01*
X0047468Y0135736D02*
X0048307Y0135736D01*
X0048307Y0136734D02*
X0014751Y0136734D01*
X0020059Y0133739D02*
X0021437Y0133739D01*
X0021315Y0132740D02*
X0020181Y0132740D01*
X0020181Y0131742D02*
X0021315Y0131742D01*
X0024972Y0132740D02*
X0025972Y0132740D01*
X0025972Y0133739D02*
X0024972Y0133739D01*
X0039846Y0135736D02*
X0046060Y0135736D01*
X0067992Y0121197D02*
X0067992Y0116000D01*
X0069567Y0114425D01*
X0073110Y0114425D01*
X0151457Y0099858D02*
X0155000Y0096315D01*
X0165236Y0096315D01*
X0172323Y0096315D01*
X0176260Y0092378D01*
X0181024Y0092378D01*
X0181181Y0092220D01*
X0185118Y0092220D02*
X0185118Y0089819D01*
X0185118Y0092220D02*
X0185118Y0086669D01*
X0184921Y0086472D01*
X0172717Y0086472D01*
X0171929Y0087260D01*
X0191024Y0078618D02*
X0194350Y0078618D01*
X0197323Y0075646D01*
X0199882Y0075646D01*
X0212677Y0074268D02*
X0212677Y0081945D01*
X0216417Y0080961D02*
X0217205Y0081748D01*
X0219961Y0081748D01*
X0216417Y0080961D02*
X0216417Y0078205D01*
X0219961Y0074071D02*
X0219764Y0073874D01*
X0232559Y0086079D02*
X0238858Y0086079D01*
X0241614Y0086079D02*
X0241614Y0082142D01*
X0243976Y0079780D01*
X0248209Y0086177D02*
X0251063Y0083323D01*
X0248209Y0086177D02*
X0246634Y0086177D01*
X0250669Y0088835D02*
X0252835Y0088835D01*
X0253031Y0088638D01*
X0250669Y0088835D02*
X0248701Y0090803D01*
X0245157Y0090803D01*
X0244075Y0091886D01*
X0244075Y0095429D01*
X0246634Y0095429D02*
X0246634Y0100941D01*
X0247913Y0102220D01*
X0251457Y0102220D01*
X0251654Y0102417D01*
X0251654Y0108520D01*
X0244961Y0108520D02*
X0244764Y0108323D01*
X0244764Y0104583D01*
X0243583Y0103402D01*
X0238268Y0103402D01*
X0238268Y0103401D02*
X0238242Y0103403D01*
X0238217Y0103408D01*
X0238193Y0103416D01*
X0238170Y0103427D01*
X0238148Y0103442D01*
X0238129Y0103459D01*
X0238112Y0103478D01*
X0238097Y0103500D01*
X0238086Y0103523D01*
X0238078Y0103547D01*
X0238073Y0103572D01*
X0238071Y0103598D01*
X0241516Y0101335D02*
X0241516Y0095429D01*
X0238957Y0095429D02*
X0235217Y0095429D01*
X0234134Y0094346D01*
X0230787Y0094346D01*
X0230787Y0091787D01*
X0232953Y0089622D01*
X0234134Y0089622D01*
X0232559Y0086079D02*
X0228622Y0090016D01*
X0221142Y0090016D01*
X0213268Y0100055D02*
X0213268Y0102614D01*
X0228898Y0110291D02*
X0238071Y0110291D01*
X0243583Y0103402D02*
X0241516Y0101335D01*
X0251457Y0102220D02*
X0253031Y0100646D01*
X0253031Y0095331D01*
X0200276Y0089622D02*
X0197323Y0092575D01*
X0195157Y0092575D01*
X0152264Y0099051D02*
X0151457Y0099858D01*
X0195157Y0059307D02*
X0198307Y0062457D01*
X0195157Y0059307D02*
X0195157Y0054583D01*
X0192402Y0051827D01*
X0043976Y0044346D02*
X0042402Y0045921D01*
X0042402Y0050843D01*
D42*
X0057756Y0079780D02*
X0062087Y0079780D01*
X0063858Y0081551D01*
X0063858Y0103795D01*
D43*
X0073110Y0114425D03*
X0102244Y0099071D03*
X0121142Y0093165D03*
X0133740Y0096315D03*
X0139252Y0102220D03*
X0144764Y0106551D03*
X0154213Y0108520D03*
X0160906Y0102220D03*
X0166811Y0100646D03*
X0165236Y0096315D03*
X0162480Y0088835D03*
X0164055Y0080961D03*
X0163661Y0075055D03*
X0144370Y0084898D03*
X0132953Y0080961D03*
X0133346Y0071512D03*
X0129803Y0071512D03*
X0117205Y0072299D03*
X0104606Y0079386D03*
X0090039Y0067969D03*
X0085315Y0067969D03*
X0080591Y0067969D03*
X0073504Y0067575D03*
X0069961Y0067575D03*
X0071535Y0070724D03*
X0090039Y0062063D03*
X0094370Y0064819D03*
X0079803Y0057339D03*
X0072323Y0048677D03*
X0069173Y0047102D03*
X0071929Y0044740D03*
X0079409Y0047890D03*
X0070354Y0034898D03*
X0083346Y0027811D03*
X0047520Y0044346D03*
X0043976Y0044346D03*
X0040433Y0044346D03*
X0022323Y0053008D03*
X0018386Y0060094D03*
X0016024Y0066787D03*
X0037283Y0073480D03*
X0034528Y0081748D03*
X0034528Y0085291D03*
X0027441Y0081748D03*
X0019173Y0081748D03*
X0050669Y0081748D03*
X0050669Y0085291D03*
X0020748Y0106157D03*
X0010118Y0102220D03*
X0031969Y0110488D03*
X0035118Y0108520D03*
X0035118Y0112457D03*
X0089646Y0135685D03*
X0098701Y0135685D03*
X0107756Y0135685D03*
X0116811Y0135685D03*
X0131772Y0135685D03*
X0155787Y0119150D03*
X0176260Y0119543D03*
X0185709Y0116000D03*
X0180984Y0108913D03*
X0199094Y0108913D03*
X0218780Y0097102D03*
X0234134Y0089622D03*
X0243976Y0079780D03*
X0251063Y0083323D03*
X0227047Y0066787D03*
X0226260Y0060882D03*
X0205394Y0075055D03*
X0199882Y0082535D03*
X0200276Y0089622D03*
X0184921Y0086472D03*
X0216417Y0078205D03*
X0195748Y0066000D03*
X0185709Y0058520D03*
X0177835Y0058520D03*
X0184528Y0051827D03*
X0192402Y0051827D03*
X0158937Y0058913D03*
X0151457Y0058520D03*
X0136496Y0051039D03*
X0143583Y0039228D03*
X0134528Y0036472D03*
X0141220Y0026236D03*
X0126260Y0026236D03*
X0156969Y0026236D03*
X0192008Y0026236D03*
X0206575Y0027417D03*
X0230197Y0033717D03*
X0226260Y0041984D03*
X0256181Y0063244D03*
X0251457Y0102220D03*
X0243583Y0103402D03*
X0256181Y0114425D03*
X0235315Y0135291D03*
X0151457Y0099858D03*
X0144370Y0098677D03*
D44*
X0077047Y0034898D02*
X0070354Y0034898D01*
X0071339Y0027811D02*
X0062224Y0027811D01*
X0062087Y0027673D01*
X0078031Y0027811D02*
X0083346Y0027811D01*
D45*
X0067992Y0054976D02*
X0059528Y0054976D01*
X0055866Y0058638D01*
X0067992Y0062850D02*
X0067992Y0067575D01*
X0073504Y0067575D01*
X0079803Y0062850D02*
X0079803Y0057339D01*
D46*
X0055866Y0058638D02*
X0054213Y0056984D01*
X0054213Y0038205D01*
D47*
X0049094Y0042772D02*
X0045157Y0042772D01*
X0045111Y0042633D01*
X0045001Y0042662D01*
X0043976Y0042662D01*
X0042952Y0042662D01*
X0042494Y0042540D01*
X0042084Y0042303D01*
X0041749Y0041967D01*
X0041512Y0041557D01*
X0041389Y0041099D01*
X0041389Y0038205D01*
X0043976Y0038205D01*
X0043976Y0038205D01*
X0043976Y0042662D01*
X0043976Y0038205D01*
X0043976Y0038205D01*
X0041389Y0038205D01*
X0041389Y0038203D01*
X0041220Y0038205D01*
X0041220Y0041984D01*
X0039252Y0041984D01*
X0038071Y0043165D01*
X0038071Y0045528D01*
X0038858Y0046315D01*
X0049488Y0046315D01*
X0049882Y0045921D01*
X0049882Y0043559D01*
X0049094Y0042772D01*
X0049882Y0044285D02*
X0038071Y0044285D01*
X0038426Y0045883D02*
X0049882Y0045883D01*
X0045129Y0042686D02*
X0038550Y0042686D01*
X0041220Y0041088D02*
X0041389Y0041088D01*
X0041389Y0039489D02*
X0041220Y0039489D01*
X0043976Y0039489D02*
X0043976Y0039489D01*
X0043976Y0041088D02*
X0043976Y0041088D01*
X0079803Y0063638D02*
X0079803Y0066816D01*
X0079409Y0066816D01*
X0079409Y0068756D01*
X0080197Y0069543D01*
X0084400Y0069543D01*
X0084487Y0069507D01*
X0086694Y0069507D01*
X0086781Y0069543D01*
X0094764Y0069543D01*
X0096732Y0067575D01*
X0096732Y0062850D01*
X0092795Y0058913D01*
X0090425Y0058913D01*
X0089881Y0059458D01*
X0088962Y0059839D01*
X0088720Y0059839D01*
X0087677Y0060882D01*
X0087677Y0065213D01*
X0086575Y0066906D01*
X0085663Y0066906D01*
X0085553Y0067016D01*
X0081534Y0067016D01*
X0081424Y0066906D01*
X0081063Y0066906D01*
X0081058Y0066816D01*
X0079803Y0066816D01*
X0079803Y0063638D01*
X0079803Y0063638D01*
X0079803Y0065065D02*
X0079803Y0065065D01*
X0079803Y0066664D02*
X0079803Y0066664D01*
X0079409Y0068262D02*
X0096045Y0068262D01*
X0096732Y0066664D02*
X0086732Y0066664D01*
X0087677Y0065065D02*
X0096732Y0065065D01*
X0096732Y0063467D02*
X0087677Y0063467D01*
X0087677Y0061868D02*
X0095750Y0061868D01*
X0094152Y0060270D02*
X0088289Y0060270D01*
D48*
X0036496Y0028624D02*
X0036494Y0028554D01*
X0036489Y0028484D01*
X0036479Y0028414D01*
X0036467Y0028345D01*
X0036450Y0028276D01*
X0036430Y0028209D01*
X0036407Y0028142D01*
X0036380Y0028077D01*
X0036350Y0028014D01*
X0036316Y0027952D01*
X0036279Y0027892D01*
X0036239Y0027834D01*
X0036196Y0027778D01*
X0036151Y0027725D01*
X0036102Y0027674D01*
X0036102Y0027673D02*
X0036496Y0028067D01*
X0043976Y0028067D01*
X0044370Y0027673D01*
X0053819Y0027673D01*
X0062087Y0027673D01*
X0061693Y0028067D01*
X0061693Y0035547D01*
X0036496Y0037319D02*
X0036496Y0028624D01*
X0055866Y0068638D02*
X0065630Y0068638D01*
X0075591Y0078598D01*
D49*
X0076063Y0078598D01*
X0076063Y0062850D01*
D50*
X0100276Y0086079D02*
X0101850Y0084504D01*
X0106280Y0084504D01*
X0108839Y0084504D02*
X0108839Y0086965D01*
X0086890Y0108913D01*
X0083445Y0108913D01*
X0083346Y0108815D01*
X0083642Y0098283D02*
X0083346Y0097988D01*
X0083642Y0098283D02*
X0088071Y0098283D01*
X0091000Y0095354D01*
X0091001Y0095354D02*
X0091058Y0095299D01*
X0091117Y0095248D01*
X0091179Y0095200D01*
X0091243Y0095155D01*
X0091309Y0095113D01*
X0091378Y0095074D01*
X0091448Y0095039D01*
X0091520Y0095007D01*
X0091593Y0094979D01*
X0091668Y0094954D01*
X0091743Y0094933D01*
X0091820Y0094916D01*
X0091897Y0094902D01*
X0091975Y0094893D01*
X0092053Y0094887D01*
X0092132Y0094885D01*
X0092211Y0094887D01*
X0092289Y0094893D01*
X0092367Y0094902D01*
X0092444Y0094916D01*
X0092521Y0094933D01*
X0092596Y0094954D01*
X0092671Y0094979D01*
X0092744Y0095007D01*
X0092816Y0095039D01*
X0092886Y0095074D01*
X0092955Y0095113D01*
X0093021Y0095155D01*
X0093085Y0095200D01*
X0093147Y0095248D01*
X0093206Y0095299D01*
X0093263Y0095354D01*
X0093443Y0095533D01*
X0093500Y0095588D01*
X0093559Y0095639D01*
X0093621Y0095687D01*
X0093685Y0095732D01*
X0093751Y0095774D01*
X0093820Y0095813D01*
X0093890Y0095848D01*
X0093962Y0095880D01*
X0094035Y0095908D01*
X0094110Y0095933D01*
X0094185Y0095954D01*
X0094262Y0095971D01*
X0094339Y0095985D01*
X0094417Y0095994D01*
X0094495Y0096000D01*
X0094574Y0096002D01*
X0094653Y0096000D01*
X0094731Y0095994D01*
X0094809Y0095985D01*
X0094886Y0095971D01*
X0094963Y0095954D01*
X0095038Y0095933D01*
X0095113Y0095908D01*
X0095186Y0095880D01*
X0095258Y0095848D01*
X0095328Y0095813D01*
X0095397Y0095774D01*
X0095463Y0095732D01*
X0095527Y0095687D01*
X0095589Y0095639D01*
X0095648Y0095588D01*
X0095705Y0095533D01*
X0095780Y0095459D01*
X0095780Y0095458D02*
X0095835Y0095401D01*
X0095886Y0095342D01*
X0095934Y0095280D01*
X0095979Y0095216D01*
X0096021Y0095150D01*
X0096060Y0095081D01*
X0096095Y0095011D01*
X0096127Y0094939D01*
X0096155Y0094866D01*
X0096180Y0094791D01*
X0096201Y0094716D01*
X0096218Y0094639D01*
X0096232Y0094562D01*
X0096241Y0094484D01*
X0096247Y0094406D01*
X0096249Y0094327D01*
X0096247Y0094248D01*
X0096241Y0094170D01*
X0096232Y0094092D01*
X0096218Y0094015D01*
X0096201Y0093938D01*
X0096180Y0093863D01*
X0096155Y0093788D01*
X0096127Y0093715D01*
X0096095Y0093643D01*
X0096060Y0093573D01*
X0096021Y0093504D01*
X0095979Y0093438D01*
X0095934Y0093374D01*
X0095886Y0093312D01*
X0095835Y0093253D01*
X0095780Y0093196D01*
X0095601Y0093016D01*
X0095546Y0092959D01*
X0095495Y0092900D01*
X0095447Y0092838D01*
X0095402Y0092774D01*
X0095360Y0092708D01*
X0095321Y0092639D01*
X0095286Y0092569D01*
X0095254Y0092497D01*
X0095226Y0092424D01*
X0095201Y0092349D01*
X0095180Y0092274D01*
X0095163Y0092197D01*
X0095149Y0092120D01*
X0095140Y0092042D01*
X0095134Y0091964D01*
X0095132Y0091885D01*
X0095134Y0091806D01*
X0095140Y0091728D01*
X0095149Y0091650D01*
X0095163Y0091573D01*
X0095180Y0091496D01*
X0095201Y0091421D01*
X0095226Y0091346D01*
X0095254Y0091273D01*
X0095286Y0091201D01*
X0095321Y0091131D01*
X0095360Y0091062D01*
X0095402Y0090996D01*
X0095447Y0090932D01*
X0095495Y0090870D01*
X0095546Y0090811D01*
X0095601Y0090754D01*
X0095675Y0090679D01*
X0095676Y0090679D02*
X0095733Y0090624D01*
X0095792Y0090573D01*
X0095854Y0090525D01*
X0095918Y0090480D01*
X0095984Y0090438D01*
X0096053Y0090399D01*
X0096123Y0090364D01*
X0096195Y0090332D01*
X0096268Y0090304D01*
X0096343Y0090279D01*
X0096418Y0090258D01*
X0096495Y0090241D01*
X0096572Y0090227D01*
X0096650Y0090218D01*
X0096728Y0090212D01*
X0096807Y0090210D01*
X0096886Y0090212D01*
X0096964Y0090218D01*
X0097042Y0090227D01*
X0097119Y0090241D01*
X0097196Y0090258D01*
X0097271Y0090279D01*
X0097346Y0090304D01*
X0097419Y0090332D01*
X0097491Y0090364D01*
X0097561Y0090399D01*
X0097630Y0090438D01*
X0097696Y0090480D01*
X0097760Y0090525D01*
X0097822Y0090573D01*
X0097881Y0090624D01*
X0097938Y0090679D01*
X0098118Y0090859D01*
X0098118Y0090858D02*
X0098175Y0090913D01*
X0098234Y0090964D01*
X0098296Y0091012D01*
X0098360Y0091057D01*
X0098426Y0091099D01*
X0098495Y0091138D01*
X0098565Y0091173D01*
X0098637Y0091205D01*
X0098710Y0091233D01*
X0098785Y0091258D01*
X0098860Y0091279D01*
X0098937Y0091296D01*
X0099014Y0091310D01*
X0099092Y0091319D01*
X0099170Y0091325D01*
X0099249Y0091327D01*
X0099328Y0091325D01*
X0099406Y0091319D01*
X0099484Y0091310D01*
X0099561Y0091296D01*
X0099638Y0091279D01*
X0099713Y0091258D01*
X0099788Y0091233D01*
X0099861Y0091205D01*
X0099933Y0091173D01*
X0100003Y0091138D01*
X0100072Y0091099D01*
X0100138Y0091057D01*
X0100202Y0091012D01*
X0100264Y0090964D01*
X0100323Y0090913D01*
X0100380Y0090858D01*
X0100380Y0090859D02*
X0100455Y0090784D01*
X0100455Y0090783D02*
X0100510Y0090726D01*
X0100561Y0090667D01*
X0100609Y0090605D01*
X0100654Y0090541D01*
X0100696Y0090475D01*
X0100735Y0090406D01*
X0100770Y0090336D01*
X0100802Y0090264D01*
X0100830Y0090191D01*
X0100855Y0090116D01*
X0100876Y0090041D01*
X0100893Y0089964D01*
X0100907Y0089887D01*
X0100916Y0089809D01*
X0100922Y0089731D01*
X0100924Y0089652D01*
X0100922Y0089573D01*
X0100916Y0089495D01*
X0100907Y0089417D01*
X0100893Y0089340D01*
X0100876Y0089263D01*
X0100855Y0089188D01*
X0100830Y0089113D01*
X0100802Y0089040D01*
X0100770Y0088968D01*
X0100735Y0088898D01*
X0100696Y0088829D01*
X0100654Y0088763D01*
X0100609Y0088699D01*
X0100561Y0088637D01*
X0100510Y0088578D01*
X0100455Y0088521D01*
X0100276Y0088341D01*
X0100221Y0088284D01*
X0100170Y0088225D01*
X0100122Y0088163D01*
X0100077Y0088099D01*
X0100035Y0088033D01*
X0099996Y0087964D01*
X0099961Y0087894D01*
X0099929Y0087822D01*
X0099901Y0087749D01*
X0099876Y0087674D01*
X0099855Y0087599D01*
X0099838Y0087522D01*
X0099824Y0087445D01*
X0099815Y0087367D01*
X0099809Y0087289D01*
X0099807Y0087210D01*
X0099809Y0087131D01*
X0099815Y0087053D01*
X0099824Y0086975D01*
X0099838Y0086898D01*
X0099855Y0086821D01*
X0099876Y0086746D01*
X0099901Y0086671D01*
X0099929Y0086598D01*
X0099961Y0086526D01*
X0099996Y0086456D01*
X0100035Y0086387D01*
X0100077Y0086321D01*
X0100122Y0086257D01*
X0100170Y0086195D01*
X0100221Y0086136D01*
X0100276Y0086079D01*
D51*
X0061693Y0037319D02*
X0061693Y0035547D01*
X0053819Y0027673D02*
X0053681Y0027811D01*
X0044370Y0027673D02*
X0044114Y0027673D01*
D52*
X0085591Y0078598D02*
X0085709Y0078717D01*
X0085709Y0084898D01*
X0077835Y0092772D01*
X0077835Y0097988D01*
M02*
