%
M48
M72
T01C0.01500
T02C0.03937
T03C0.04000
T04C0.04016
T05C0.04291
T06C0.04724
T07C0.10827
%
T01
X70354Y34898
X83346Y27811
X71929Y44740
X69173Y47102
X72323Y48677
X79409Y47890
X79803Y57339
X90039Y62063
X94370Y64819
X90039Y67969
X85315Y67969
X80591Y67969
X73504Y67575
X69961Y67575
X71535Y70724
X50669Y81748
X50669Y85291
X34528Y85291
X34528Y81748
X27441Y81748
X19173Y81748
X37283Y73480
X16024Y66787
X18386Y60094
X22323Y53008
X40433Y44346
X43976Y44346
X47520Y44346
X104606Y79386
X117205Y72299
X129803Y71512
X133346Y71512
X132953Y80961
X144370Y84898
X133740Y96315
X139252Y102220
X144764Y106551
X154213Y108520
X160906Y102220
X166811Y100646
X165236Y96315
X162480Y88835
X164055Y80961
X163661Y75055
X184921Y86472
X199882Y82535
X205394Y75055
X216417Y78205
X227047Y66787
X226260Y60882
X256181Y63244
X243976Y79780
X251063Y83323
X234134Y89622
X218780Y97102
X200276Y89622
X199094Y108913
X185709Y116000
X176260Y119543
X180984Y108913
X155787Y119150
X131772Y135685
X116811Y135685
X107756Y135685
X98701Y135685
X89646Y135685
X73110Y114425
X102244Y99071
X121142Y93165
X144370Y98677
X151457Y99858
X195748Y66000
X185709Y58520
X177835Y58520
X184528Y51827
X192402Y51827
X158937Y58913
X151457Y58520
X136496Y51039
X143583Y39228
X134528Y36472
X141220Y26236
X126260Y26236
X156969Y26236
X192008Y26236
X206575Y27417
X230197Y33717
X226260Y41984
X243583Y103402
X251457Y102220
X256181Y114425
X235315Y135291
X35118Y112457
X31969Y110488
X35118Y108520
X20748Y106157
X10118Y102220
T02
X37953Y121236
X47953Y121236
X57953Y121236
X67953Y121236
X77953Y121236
X77953Y131236
X67953Y131236
X57953Y131236
X47953Y131236
X37953Y131236
X217953Y131236
X227953Y131236
X227953Y121236
X217953Y121236
X217953Y111236
X227953Y111236
T03
X236693Y76827
X254409Y76827
X254409Y51236
X236693Y51236
T04
X179567Y38992
X169567Y38992
X169567Y28992
X179567Y28992
X130591Y54976
X123110Y59307
X103425Y68756
X61693Y47890
X20748Y116787
T05
X75591Y78598
X85591Y78598
X55866Y68638
X55866Y58638
X98031Y51906
X108031Y51906
X107480Y110016
X117480Y110016
X127480Y110016
X97480Y110016
X150906Y129386
X160906Y129386
X170906Y129386
T06
X36102Y27673
X62087Y27673
T07
X18780Y35685
X247126Y35685
X247126Y126236
M30
