G75*
G70*
%OFA0B0*%
%FSLAX25Y25*%
%IPPOS*%
%LPD*%
%AMOC8*
5,1,8,0,0,1.08239X$1,22.5*
%
%ADD300C,0.00000*%
X0000300Y0000300D02*
G75*
%LPD*%
D93*
X0118410Y0014080D02*
X0118410Y0242426D01*
X0118411Y0242426D02*
X0118407Y0242759D01*
X0118395Y0243092D01*
X0118375Y0243424D01*
X0118347Y0243756D01*
X0118311Y0244087D01*
X0118266Y0244417D01*
X0118214Y0244746D01*
X0118154Y0245074D01*
X0118086Y0245400D01*
X0118011Y0245724D01*
X0117927Y0246046D01*
X0117836Y0246366D01*
X0117737Y0246684D01*
X0117630Y0247000D01*
X0117516Y0247312D01*
X0117394Y0247622D01*
X0117264Y0247929D01*
X0117128Y0248233D01*
X0116984Y0248533D01*
X0116833Y0248830D01*
X0116674Y0249123D01*
X0116509Y0249412D01*
X0116337Y0249697D01*
X0116158Y0249978D01*
X0115972Y0250254D01*
X0115779Y0250526D01*
X0115580Y0250793D01*
X0115375Y0251055D01*
X0115163Y0251312D01*
X0114945Y0251564D01*
X0114722Y0251810D01*
X0114492Y0252051D01*
X0114256Y0252287D01*
X0114015Y0252517D01*
X0113769Y0252740D01*
X0113517Y0252958D01*
X0113260Y0253170D01*
X0112998Y0253375D01*
X0112731Y0253574D01*
X0112459Y0253767D01*
X0112183Y0253953D01*
X0111902Y0254132D01*
X0111617Y0254304D01*
X0111328Y0254469D01*
X0111035Y0254628D01*
X0110738Y0254779D01*
X0110438Y0254923D01*
X0110134Y0255059D01*
X0109827Y0255189D01*
X0109517Y0255311D01*
X0109205Y0255425D01*
X0108889Y0255532D01*
X0108571Y0255631D01*
X0108251Y0255722D01*
X0107929Y0255806D01*
X0107605Y0255881D01*
X0107279Y0255949D01*
X0106951Y0256009D01*
X0106622Y0256061D01*
X0106292Y0256106D01*
X0105961Y0256142D01*
X0105629Y0256170D01*
X0105297Y0256190D01*
X0104964Y0256202D01*
X0104631Y0256206D01*
X0014080Y0256206D01*
X0013747Y0256202D01*
X0013414Y0256190D01*
X0013082Y0256170D01*
X0012750Y0256142D01*
X0012419Y0256106D01*
X0012089Y0256061D01*
X0011760Y0256009D01*
X0011432Y0255949D01*
X0011106Y0255881D01*
X0010782Y0255806D01*
X0010460Y0255722D01*
X0010140Y0255631D01*
X0009822Y0255532D01*
X0009506Y0255425D01*
X0009194Y0255311D01*
X0008884Y0255189D01*
X0008577Y0255059D01*
X0008273Y0254923D01*
X0007973Y0254779D01*
X0007676Y0254628D01*
X0007383Y0254469D01*
X0007094Y0254304D01*
X0006809Y0254132D01*
X0006528Y0253953D01*
X0006252Y0253767D01*
X0005980Y0253574D01*
X0005713Y0253375D01*
X0005451Y0253170D01*
X0005194Y0252958D01*
X0004942Y0252740D01*
X0004696Y0252517D01*
X0004455Y0252287D01*
X0004219Y0252051D01*
X0003989Y0251810D01*
X0003766Y0251564D01*
X0003548Y0251312D01*
X0003336Y0251055D01*
X0003131Y0250793D01*
X0002932Y0250526D01*
X0002739Y0250254D01*
X0002553Y0249978D01*
X0002374Y0249697D01*
X0002202Y0249412D01*
X0002037Y0249123D01*
X0001878Y0248830D01*
X0001727Y0248533D01*
X0001583Y0248233D01*
X0001447Y0247929D01*
X0001317Y0247622D01*
X0001195Y0247312D01*
X0001081Y0247000D01*
X0000974Y0246684D01*
X0000875Y0246366D01*
X0000784Y0246046D01*
X0000700Y0245724D01*
X0000625Y0245400D01*
X0000557Y0245074D01*
X0000497Y0244746D01*
X0000445Y0244417D01*
X0000400Y0244087D01*
X0000364Y0243756D01*
X0000336Y0243424D01*
X0000316Y0243092D01*
X0000304Y0242759D01*
X0000300Y0242426D01*
X0000300Y0014080D01*
X0000304Y0013747D01*
X0000316Y0013414D01*
X0000336Y0013082D01*
X0000364Y0012750D01*
X0000400Y0012419D01*
X0000445Y0012089D01*
X0000497Y0011760D01*
X0000557Y0011432D01*
X0000625Y0011106D01*
X0000700Y0010782D01*
X0000784Y0010460D01*
X0000875Y0010140D01*
X0000974Y0009822D01*
X0001081Y0009506D01*
X0001195Y0009194D01*
X0001317Y0008884D01*
X0001447Y0008577D01*
X0001583Y0008273D01*
X0001727Y0007973D01*
X0001878Y0007676D01*
X0002037Y0007383D01*
X0002202Y0007094D01*
X0002374Y0006809D01*
X0002553Y0006528D01*
X0002739Y0006252D01*
X0002932Y0005980D01*
X0003131Y0005713D01*
X0003336Y0005451D01*
X0003548Y0005194D01*
X0003766Y0004942D01*
X0003989Y0004696D01*
X0004219Y0004455D01*
X0004455Y0004219D01*
X0004696Y0003989D01*
X0004942Y0003766D01*
X0005194Y0003548D01*
X0005451Y0003336D01*
X0005713Y0003131D01*
X0005980Y0002932D01*
X0006252Y0002739D01*
X0006528Y0002553D01*
X0006809Y0002374D01*
X0007094Y0002202D01*
X0007383Y0002037D01*
X0007676Y0001878D01*
X0007973Y0001727D01*
X0008273Y0001583D01*
X0008577Y0001447D01*
X0008884Y0001317D01*
X0009194Y0001195D01*
X0009506Y0001081D01*
X0009822Y0000974D01*
X0010140Y0000875D01*
X0010460Y0000784D01*
X0010782Y0000700D01*
X0011106Y0000625D01*
X0011432Y0000557D01*
X0011760Y0000497D01*
X0012089Y0000445D01*
X0012419Y0000400D01*
X0012750Y0000364D01*
X0013082Y0000336D01*
X0013414Y0000316D01*
X0013747Y0000304D01*
X0014080Y0000300D01*
X0104631Y0000300D01*
X0104964Y0000304D01*
X0105297Y0000316D01*
X0105629Y0000336D01*
X0105961Y0000364D01*
X0106292Y0000400D01*
X0106622Y0000445D01*
X0106951Y0000497D01*
X0107279Y0000557D01*
X0107605Y0000625D01*
X0107929Y0000700D01*
X0108251Y0000784D01*
X0108571Y0000875D01*
X0108889Y0000974D01*
X0109205Y0001081D01*
X0109517Y0001195D01*
X0109827Y0001317D01*
X0110134Y0001447D01*
X0110438Y0001583D01*
X0110738Y0001727D01*
X0111035Y0001878D01*
X0111328Y0002037D01*
X0111617Y0002202D01*
X0111902Y0002374D01*
X0112183Y0002553D01*
X0112459Y0002739D01*
X0112731Y0002932D01*
X0112998Y0003131D01*
X0113260Y0003336D01*
X0113517Y0003548D01*
X0113769Y0003766D01*
X0114015Y0003989D01*
X0114256Y0004219D01*
X0114492Y0004455D01*
X0114722Y0004696D01*
X0114945Y0004942D01*
X0115163Y0005194D01*
X0115375Y0005451D01*
X0115580Y0005713D01*
X0115779Y0005980D01*
X0115972Y0006252D01*
X0116158Y0006528D01*
X0116337Y0006809D01*
X0116509Y0007094D01*
X0116674Y0007383D01*
X0116833Y0007676D01*
X0116984Y0007973D01*
X0117128Y0008273D01*
X0117264Y0008577D01*
X0117394Y0008884D01*
X0117516Y0009194D01*
X0117630Y0009506D01*
X0117737Y0009822D01*
X0117836Y0010140D01*
X0117927Y0010460D01*
X0118011Y0010782D01*
X0118086Y0011106D01*
X0118154Y0011432D01*
X0118214Y0011760D01*
X0118266Y0012089D01*
X0118311Y0012419D01*
X0118347Y0012750D01*
X0118375Y0013082D01*
X0118395Y0013414D01*
X0118407Y0013747D01*
X0118411Y0014080D01*
X0126211Y0000300D02*
G75*
%LPD*%
D93*
X0244321Y0014080D02*
X0244321Y0242426D01*
X0244322Y0242426D02*
X0244318Y0242759D01*
X0244306Y0243092D01*
X0244286Y0243424D01*
X0244258Y0243756D01*
X0244222Y0244087D01*
X0244177Y0244417D01*
X0244125Y0244746D01*
X0244065Y0245074D01*
X0243997Y0245400D01*
X0243922Y0245724D01*
X0243838Y0246046D01*
X0243747Y0246366D01*
X0243648Y0246684D01*
X0243541Y0247000D01*
X0243427Y0247312D01*
X0243305Y0247622D01*
X0243175Y0247929D01*
X0243039Y0248233D01*
X0242895Y0248533D01*
X0242744Y0248830D01*
X0242585Y0249123D01*
X0242420Y0249412D01*
X0242248Y0249697D01*
X0242069Y0249978D01*
X0241883Y0250254D01*
X0241690Y0250526D01*
X0241491Y0250793D01*
X0241286Y0251055D01*
X0241074Y0251312D01*
X0240856Y0251564D01*
X0240633Y0251810D01*
X0240403Y0252051D01*
X0240167Y0252287D01*
X0239926Y0252517D01*
X0239680Y0252740D01*
X0239428Y0252958D01*
X0239171Y0253170D01*
X0238909Y0253375D01*
X0238642Y0253574D01*
X0238370Y0253767D01*
X0238094Y0253953D01*
X0237813Y0254132D01*
X0237528Y0254304D01*
X0237239Y0254469D01*
X0236946Y0254628D01*
X0236649Y0254779D01*
X0236349Y0254923D01*
X0236045Y0255059D01*
X0235738Y0255189D01*
X0235428Y0255311D01*
X0235116Y0255425D01*
X0234800Y0255532D01*
X0234482Y0255631D01*
X0234162Y0255722D01*
X0233840Y0255806D01*
X0233516Y0255881D01*
X0233190Y0255949D01*
X0232862Y0256009D01*
X0232533Y0256061D01*
X0232203Y0256106D01*
X0231872Y0256142D01*
X0231540Y0256170D01*
X0231208Y0256190D01*
X0230875Y0256202D01*
X0230542Y0256206D01*
X0139991Y0256206D01*
X0139658Y0256202D01*
X0139325Y0256190D01*
X0138993Y0256170D01*
X0138661Y0256142D01*
X0138330Y0256106D01*
X0138000Y0256061D01*
X0137671Y0256009D01*
X0137343Y0255949D01*
X0137017Y0255881D01*
X0136693Y0255806D01*
X0136371Y0255722D01*
X0136051Y0255631D01*
X0135733Y0255532D01*
X0135417Y0255425D01*
X0135105Y0255311D01*
X0134795Y0255189D01*
X0134488Y0255059D01*
X0134184Y0254923D01*
X0133884Y0254779D01*
X0133587Y0254628D01*
X0133294Y0254469D01*
X0133005Y0254304D01*
X0132720Y0254132D01*
X0132439Y0253953D01*
X0132163Y0253767D01*
X0131891Y0253574D01*
X0131624Y0253375D01*
X0131362Y0253170D01*
X0131105Y0252958D01*
X0130853Y0252740D01*
X0130607Y0252517D01*
X0130366Y0252287D01*
X0130130Y0252051D01*
X0129900Y0251810D01*
X0129677Y0251564D01*
X0129459Y0251312D01*
X0129247Y0251055D01*
X0129042Y0250793D01*
X0128843Y0250526D01*
X0128650Y0250254D01*
X0128464Y0249978D01*
X0128285Y0249697D01*
X0128113Y0249412D01*
X0127948Y0249123D01*
X0127789Y0248830D01*
X0127638Y0248533D01*
X0127494Y0248233D01*
X0127358Y0247929D01*
X0127228Y0247622D01*
X0127106Y0247312D01*
X0126992Y0247000D01*
X0126885Y0246684D01*
X0126786Y0246366D01*
X0126695Y0246046D01*
X0126611Y0245724D01*
X0126536Y0245400D01*
X0126468Y0245074D01*
X0126408Y0244746D01*
X0126356Y0244417D01*
X0126311Y0244087D01*
X0126275Y0243756D01*
X0126247Y0243424D01*
X0126227Y0243092D01*
X0126215Y0242759D01*
X0126211Y0242426D01*
X0126211Y0014080D01*
X0126215Y0013747D01*
X0126227Y0013414D01*
X0126247Y0013082D01*
X0126275Y0012750D01*
X0126311Y0012419D01*
X0126356Y0012089D01*
X0126408Y0011760D01*
X0126468Y0011432D01*
X0126536Y0011106D01*
X0126611Y0010782D01*
X0126695Y0010460D01*
X0126786Y0010140D01*
X0126885Y0009822D01*
X0126992Y0009506D01*
X0127106Y0009194D01*
X0127228Y0008884D01*
X0127358Y0008577D01*
X0127494Y0008273D01*
X0127638Y0007973D01*
X0127789Y0007676D01*
X0127948Y0007383D01*
X0128113Y0007094D01*
X0128285Y0006809D01*
X0128464Y0006528D01*
X0128650Y0006252D01*
X0128843Y0005980D01*
X0129042Y0005713D01*
X0129247Y0005451D01*
X0129459Y0005194D01*
X0129677Y0004942D01*
X0129900Y0004696D01*
X0130130Y0004455D01*
X0130366Y0004219D01*
X0130607Y0003989D01*
X0130853Y0003766D01*
X0131105Y0003548D01*
X0131362Y0003336D01*
X0131624Y0003131D01*
X0131891Y0002932D01*
X0132163Y0002739D01*
X0132439Y0002553D01*
X0132720Y0002374D01*
X0133005Y0002202D01*
X0133294Y0002037D01*
X0133587Y0001878D01*
X0133884Y0001727D01*
X0134184Y0001583D01*
X0134488Y0001447D01*
X0134795Y0001317D01*
X0135105Y0001195D01*
X0135417Y0001081D01*
X0135733Y0000974D01*
X0136051Y0000875D01*
X0136371Y0000784D01*
X0136693Y0000700D01*
X0137017Y0000625D01*
X0137343Y0000557D01*
X0137671Y0000497D01*
X0138000Y0000445D01*
X0138330Y0000400D01*
X0138661Y0000364D01*
X0138993Y0000336D01*
X0139325Y0000316D01*
X0139658Y0000304D01*
X0139991Y0000300D01*
X0230542Y0000300D01*
X0230875Y0000304D01*
X0231208Y0000316D01*
X0231540Y0000336D01*
X0231872Y0000364D01*
X0232203Y0000400D01*
X0232533Y0000445D01*
X0232862Y0000497D01*
X0233190Y0000557D01*
X0233516Y0000625D01*
X0233840Y0000700D01*
X0234162Y0000784D01*
X0234482Y0000875D01*
X0234800Y0000974D01*
X0235116Y0001081D01*
X0235428Y0001195D01*
X0235738Y0001317D01*
X0236045Y0001447D01*
X0236349Y0001583D01*
X0236649Y0001727D01*
X0236946Y0001878D01*
X0237239Y0002037D01*
X0237528Y0002202D01*
X0237813Y0002374D01*
X0238094Y0002553D01*
X0238370Y0002739D01*
X0238642Y0002932D01*
X0238909Y0003131D01*
X0239171Y0003336D01*
X0239428Y0003548D01*
X0239680Y0003766D01*
X0239926Y0003989D01*
X0240167Y0004219D01*
X0240403Y0004455D01*
X0240633Y0004696D01*
X0240856Y0004942D01*
X0241074Y0005194D01*
X0241286Y0005451D01*
X0241491Y0005713D01*
X0241690Y0005980D01*
X0241883Y0006252D01*
X0242069Y0006528D01*
X0242248Y0006809D01*
X0242420Y0007094D01*
X0242585Y0007383D01*
X0242744Y0007676D01*
X0242895Y0007973D01*
X0243039Y0008273D01*
X0243175Y0008577D01*
X0243305Y0008884D01*
X0243427Y0009194D01*
X0243541Y0009506D01*
X0243648Y0009822D01*
X0243747Y0010140D01*
X0243838Y0010460D01*
X0243922Y0010782D01*
X0243997Y0011106D01*
X0244065Y0011432D01*
X0244125Y0011760D01*
X0244177Y0012089D01*
X0244222Y0012419D01*
X0244258Y0012750D01*
X0244286Y0013082D01*
X0244306Y0013414D01*
X0244318Y0013747D01*
X0244322Y0014080D01*
X0252122Y0000300D02*
G75*
%LPD*%
D93*
X0370232Y0014080D02*
X0370232Y0242426D01*
X0370233Y0242426D02*
X0370229Y0242759D01*
X0370217Y0243092D01*
X0370197Y0243424D01*
X0370169Y0243756D01*
X0370133Y0244087D01*
X0370088Y0244417D01*
X0370036Y0244746D01*
X0369976Y0245074D01*
X0369908Y0245400D01*
X0369833Y0245724D01*
X0369749Y0246046D01*
X0369658Y0246366D01*
X0369559Y0246684D01*
X0369452Y0247000D01*
X0369338Y0247312D01*
X0369216Y0247622D01*
X0369086Y0247929D01*
X0368950Y0248233D01*
X0368806Y0248533D01*
X0368655Y0248830D01*
X0368496Y0249123D01*
X0368331Y0249412D01*
X0368159Y0249697D01*
X0367980Y0249978D01*
X0367794Y0250254D01*
X0367601Y0250526D01*
X0367402Y0250793D01*
X0367197Y0251055D01*
X0366985Y0251312D01*
X0366767Y0251564D01*
X0366544Y0251810D01*
X0366314Y0252051D01*
X0366078Y0252287D01*
X0365837Y0252517D01*
X0365591Y0252740D01*
X0365339Y0252958D01*
X0365082Y0253170D01*
X0364820Y0253375D01*
X0364553Y0253574D01*
X0364281Y0253767D01*
X0364005Y0253953D01*
X0363724Y0254132D01*
X0363439Y0254304D01*
X0363150Y0254469D01*
X0362857Y0254628D01*
X0362560Y0254779D01*
X0362260Y0254923D01*
X0361956Y0255059D01*
X0361649Y0255189D01*
X0361339Y0255311D01*
X0361027Y0255425D01*
X0360711Y0255532D01*
X0360393Y0255631D01*
X0360073Y0255722D01*
X0359751Y0255806D01*
X0359427Y0255881D01*
X0359101Y0255949D01*
X0358773Y0256009D01*
X0358444Y0256061D01*
X0358114Y0256106D01*
X0357783Y0256142D01*
X0357451Y0256170D01*
X0357119Y0256190D01*
X0356786Y0256202D01*
X0356453Y0256206D01*
X0265902Y0256206D01*
X0265569Y0256202D01*
X0265236Y0256190D01*
X0264904Y0256170D01*
X0264572Y0256142D01*
X0264241Y0256106D01*
X0263911Y0256061D01*
X0263582Y0256009D01*
X0263254Y0255949D01*
X0262928Y0255881D01*
X0262604Y0255806D01*
X0262282Y0255722D01*
X0261962Y0255631D01*
X0261644Y0255532D01*
X0261328Y0255425D01*
X0261016Y0255311D01*
X0260706Y0255189D01*
X0260399Y0255059D01*
X0260095Y0254923D01*
X0259795Y0254779D01*
X0259498Y0254628D01*
X0259205Y0254469D01*
X0258916Y0254304D01*
X0258631Y0254132D01*
X0258350Y0253953D01*
X0258074Y0253767D01*
X0257802Y0253574D01*
X0257535Y0253375D01*
X0257273Y0253170D01*
X0257016Y0252958D01*
X0256764Y0252740D01*
X0256518Y0252517D01*
X0256277Y0252287D01*
X0256041Y0252051D01*
X0255811Y0251810D01*
X0255588Y0251564D01*
X0255370Y0251312D01*
X0255158Y0251055D01*
X0254953Y0250793D01*
X0254754Y0250526D01*
X0254561Y0250254D01*
X0254375Y0249978D01*
X0254196Y0249697D01*
X0254024Y0249412D01*
X0253859Y0249123D01*
X0253700Y0248830D01*
X0253549Y0248533D01*
X0253405Y0248233D01*
X0253269Y0247929D01*
X0253139Y0247622D01*
X0253017Y0247312D01*
X0252903Y0247000D01*
X0252796Y0246684D01*
X0252697Y0246366D01*
X0252606Y0246046D01*
X0252522Y0245724D01*
X0252447Y0245400D01*
X0252379Y0245074D01*
X0252319Y0244746D01*
X0252267Y0244417D01*
X0252222Y0244087D01*
X0252186Y0243756D01*
X0252158Y0243424D01*
X0252138Y0243092D01*
X0252126Y0242759D01*
X0252122Y0242426D01*
X0252122Y0014080D01*
X0252126Y0013747D01*
X0252138Y0013414D01*
X0252158Y0013082D01*
X0252186Y0012750D01*
X0252222Y0012419D01*
X0252267Y0012089D01*
X0252319Y0011760D01*
X0252379Y0011432D01*
X0252447Y0011106D01*
X0252522Y0010782D01*
X0252606Y0010460D01*
X0252697Y0010140D01*
X0252796Y0009822D01*
X0252903Y0009506D01*
X0253017Y0009194D01*
X0253139Y0008884D01*
X0253269Y0008577D01*
X0253405Y0008273D01*
X0253549Y0007973D01*
X0253700Y0007676D01*
X0253859Y0007383D01*
X0254024Y0007094D01*
X0254196Y0006809D01*
X0254375Y0006528D01*
X0254561Y0006252D01*
X0254754Y0005980D01*
X0254953Y0005713D01*
X0255158Y0005451D01*
X0255370Y0005194D01*
X0255588Y0004942D01*
X0255811Y0004696D01*
X0256041Y0004455D01*
X0256277Y0004219D01*
X0256518Y0003989D01*
X0256764Y0003766D01*
X0257016Y0003548D01*
X0257273Y0003336D01*
X0257535Y0003131D01*
X0257802Y0002932D01*
X0258074Y0002739D01*
X0258350Y0002553D01*
X0258631Y0002374D01*
X0258916Y0002202D01*
X0259205Y0002037D01*
X0259498Y0001878D01*
X0259795Y0001727D01*
X0260095Y0001583D01*
X0260399Y0001447D01*
X0260706Y0001317D01*
X0261016Y0001195D01*
X0261328Y0001081D01*
X0261644Y0000974D01*
X0261962Y0000875D01*
X0262282Y0000784D01*
X0262604Y0000700D01*
X0262928Y0000625D01*
X0263254Y0000557D01*
X0263582Y0000497D01*
X0263911Y0000445D01*
X0264241Y0000400D01*
X0264572Y0000364D01*
X0264904Y0000336D01*
X0265236Y0000316D01*
X0265569Y0000304D01*
X0265902Y0000300D01*
X0356453Y0000300D01*
X0356786Y0000304D01*
X0357119Y0000316D01*
X0357451Y0000336D01*
X0357783Y0000364D01*
X0358114Y0000400D01*
X0358444Y0000445D01*
X0358773Y0000497D01*
X0359101Y0000557D01*
X0359427Y0000625D01*
X0359751Y0000700D01*
X0360073Y0000784D01*
X0360393Y0000875D01*
X0360711Y0000974D01*
X0361027Y0001081D01*
X0361339Y0001195D01*
X0361649Y0001317D01*
X0361956Y0001447D01*
X0362260Y0001583D01*
X0362560Y0001727D01*
X0362857Y0001878D01*
X0363150Y0002037D01*
X0363439Y0002202D01*
X0363724Y0002374D01*
X0364005Y0002553D01*
X0364281Y0002739D01*
X0364553Y0002932D01*
X0364820Y0003131D01*
X0365082Y0003336D01*
X0365339Y0003548D01*
X0365591Y0003766D01*
X0365837Y0003989D01*
X0366078Y0004219D01*
X0366314Y0004455D01*
X0366544Y0004696D01*
X0366767Y0004942D01*
X0366985Y0005194D01*
X0367197Y0005451D01*
X0367402Y0005713D01*
X0367601Y0005980D01*
X0367794Y0006252D01*
X0367980Y0006528D01*
X0368159Y0006809D01*
X0368331Y0007094D01*
X0368496Y0007383D01*
X0368655Y0007676D01*
X0368806Y0007973D01*
X0368950Y0008273D01*
X0369086Y0008577D01*
X0369216Y0008884D01*
X0369338Y0009194D01*
X0369452Y0009506D01*
X0369559Y0009822D01*
X0369658Y0010140D01*
X0369749Y0010460D01*
X0369833Y0010782D01*
X0369908Y0011106D01*
X0369976Y0011432D01*
X0370036Y0011760D01*
X0370088Y0012089D01*
X0370133Y0012419D01*
X0370169Y0012750D01*
X0370197Y0013082D01*
X0370217Y0013414D01*
X0370229Y0013747D01*
X0370233Y0014080D01*
X0000300Y0264006D02*
G75*
%LPD*%
D93*
X0014080Y0264007D02*
X0242426Y0264007D01*
X0242426Y0264006D02*
X0242759Y0264010D01*
X0243092Y0264022D01*
X0243424Y0264042D01*
X0243756Y0264070D01*
X0244087Y0264106D01*
X0244417Y0264151D01*
X0244746Y0264203D01*
X0245074Y0264263D01*
X0245400Y0264331D01*
X0245724Y0264406D01*
X0246046Y0264490D01*
X0246366Y0264581D01*
X0246684Y0264680D01*
X0247000Y0264787D01*
X0247312Y0264901D01*
X0247622Y0265023D01*
X0247929Y0265153D01*
X0248233Y0265289D01*
X0248533Y0265433D01*
X0248830Y0265584D01*
X0249123Y0265743D01*
X0249412Y0265908D01*
X0249697Y0266080D01*
X0249978Y0266259D01*
X0250254Y0266445D01*
X0250526Y0266638D01*
X0250793Y0266837D01*
X0251055Y0267042D01*
X0251312Y0267254D01*
X0251564Y0267472D01*
X0251810Y0267695D01*
X0252051Y0267925D01*
X0252287Y0268161D01*
X0252517Y0268402D01*
X0252740Y0268648D01*
X0252958Y0268900D01*
X0253170Y0269157D01*
X0253375Y0269419D01*
X0253574Y0269686D01*
X0253767Y0269958D01*
X0253953Y0270234D01*
X0254132Y0270515D01*
X0254304Y0270800D01*
X0254469Y0271089D01*
X0254628Y0271382D01*
X0254779Y0271679D01*
X0254923Y0271979D01*
X0255059Y0272283D01*
X0255189Y0272590D01*
X0255311Y0272900D01*
X0255425Y0273212D01*
X0255532Y0273528D01*
X0255631Y0273846D01*
X0255722Y0274166D01*
X0255806Y0274488D01*
X0255881Y0274812D01*
X0255949Y0275138D01*
X0256009Y0275466D01*
X0256061Y0275795D01*
X0256106Y0276125D01*
X0256142Y0276456D01*
X0256170Y0276788D01*
X0256190Y0277120D01*
X0256202Y0277453D01*
X0256206Y0277786D01*
X0256206Y0368337D01*
X0256202Y0368670D01*
X0256190Y0369003D01*
X0256170Y0369335D01*
X0256142Y0369667D01*
X0256106Y0369998D01*
X0256061Y0370328D01*
X0256009Y0370657D01*
X0255949Y0370985D01*
X0255881Y0371311D01*
X0255806Y0371635D01*
X0255722Y0371957D01*
X0255631Y0372277D01*
X0255532Y0372595D01*
X0255425Y0372911D01*
X0255311Y0373223D01*
X0255189Y0373533D01*
X0255059Y0373840D01*
X0254923Y0374144D01*
X0254779Y0374444D01*
X0254628Y0374741D01*
X0254469Y0375034D01*
X0254304Y0375323D01*
X0254132Y0375608D01*
X0253953Y0375889D01*
X0253767Y0376165D01*
X0253574Y0376437D01*
X0253375Y0376704D01*
X0253170Y0376966D01*
X0252958Y0377223D01*
X0252740Y0377475D01*
X0252517Y0377721D01*
X0252287Y0377962D01*
X0252051Y0378198D01*
X0251810Y0378428D01*
X0251564Y0378651D01*
X0251312Y0378869D01*
X0251055Y0379081D01*
X0250793Y0379286D01*
X0250526Y0379485D01*
X0250254Y0379678D01*
X0249978Y0379864D01*
X0249697Y0380043D01*
X0249412Y0380215D01*
X0249123Y0380380D01*
X0248830Y0380539D01*
X0248533Y0380690D01*
X0248233Y0380834D01*
X0247929Y0380970D01*
X0247622Y0381100D01*
X0247312Y0381222D01*
X0247000Y0381336D01*
X0246684Y0381443D01*
X0246366Y0381542D01*
X0246046Y0381633D01*
X0245724Y0381717D01*
X0245400Y0381792D01*
X0245074Y0381860D01*
X0244746Y0381920D01*
X0244417Y0381972D01*
X0244087Y0382017D01*
X0243756Y0382053D01*
X0243424Y0382081D01*
X0243092Y0382101D01*
X0242759Y0382113D01*
X0242426Y0382117D01*
X0014080Y0382117D01*
X0013747Y0382113D01*
X0013414Y0382101D01*
X0013082Y0382081D01*
X0012750Y0382053D01*
X0012419Y0382017D01*
X0012089Y0381972D01*
X0011760Y0381920D01*
X0011432Y0381860D01*
X0011106Y0381792D01*
X0010782Y0381717D01*
X0010460Y0381633D01*
X0010140Y0381542D01*
X0009822Y0381443D01*
X0009506Y0381336D01*
X0009194Y0381222D01*
X0008884Y0381100D01*
X0008577Y0380970D01*
X0008273Y0380834D01*
X0007973Y0380690D01*
X0007676Y0380539D01*
X0007383Y0380380D01*
X0007094Y0380215D01*
X0006809Y0380043D01*
X0006528Y0379864D01*
X0006252Y0379678D01*
X0005980Y0379485D01*
X0005713Y0379286D01*
X0005451Y0379081D01*
X0005194Y0378869D01*
X0004942Y0378651D01*
X0004696Y0378428D01*
X0004455Y0378198D01*
X0004219Y0377962D01*
X0003989Y0377721D01*
X0003766Y0377475D01*
X0003548Y0377223D01*
X0003336Y0376966D01*
X0003131Y0376704D01*
X0002932Y0376437D01*
X0002739Y0376165D01*
X0002553Y0375889D01*
X0002374Y0375608D01*
X0002202Y0375323D01*
X0002037Y0375034D01*
X0001878Y0374741D01*
X0001727Y0374444D01*
X0001583Y0374144D01*
X0001447Y0373840D01*
X0001317Y0373533D01*
X0001195Y0373223D01*
X0001081Y0372911D01*
X0000974Y0372595D01*
X0000875Y0372277D01*
X0000784Y0371957D01*
X0000700Y0371635D01*
X0000625Y0371311D01*
X0000557Y0370985D01*
X0000497Y0370657D01*
X0000445Y0370328D01*
X0000400Y0369998D01*
X0000364Y0369667D01*
X0000336Y0369335D01*
X0000316Y0369003D01*
X0000304Y0368670D01*
X0000300Y0368337D01*
X0000300Y0277786D01*
X0000304Y0277453D01*
X0000316Y0277120D01*
X0000336Y0276788D01*
X0000364Y0276456D01*
X0000400Y0276125D01*
X0000445Y0275795D01*
X0000497Y0275466D01*
X0000557Y0275138D01*
X0000625Y0274812D01*
X0000700Y0274488D01*
X0000784Y0274166D01*
X0000875Y0273846D01*
X0000974Y0273528D01*
X0001081Y0273212D01*
X0001195Y0272900D01*
X0001317Y0272590D01*
X0001447Y0272283D01*
X0001583Y0271979D01*
X0001727Y0271679D01*
X0001878Y0271382D01*
X0002037Y0271089D01*
X0002202Y0270800D01*
X0002374Y0270515D01*
X0002553Y0270234D01*
X0002739Y0269958D01*
X0002932Y0269686D01*
X0003131Y0269419D01*
X0003336Y0269157D01*
X0003548Y0268900D01*
X0003766Y0268648D01*
X0003989Y0268402D01*
X0004219Y0268161D01*
X0004455Y0267925D01*
X0004696Y0267695D01*
X0004942Y0267472D01*
X0005194Y0267254D01*
X0005451Y0267042D01*
X0005713Y0266837D01*
X0005980Y0266638D01*
X0006252Y0266445D01*
X0006528Y0266259D01*
X0006809Y0266080D01*
X0007094Y0265908D01*
X0007383Y0265743D01*
X0007676Y0265584D01*
X0007973Y0265433D01*
X0008273Y0265289D01*
X0008577Y0265153D01*
X0008884Y0265023D01*
X0009194Y0264901D01*
X0009506Y0264787D01*
X0009822Y0264680D01*
X0010140Y0264581D01*
X0010460Y0264490D01*
X0010782Y0264406D01*
X0011106Y0264331D01*
X0011432Y0264263D01*
X0011760Y0264203D01*
X0012089Y0264151D01*
X0012419Y0264106D01*
X0012750Y0264070D01*
X0013082Y0264042D01*
X0013414Y0264022D01*
X0013747Y0264010D01*
X0014080Y0264006D01*
X0264006Y0264006D02*
G75*
%LPD*%
D93*
X0264006Y0264006D02*
X0264006Y0319124D01*
X0334872Y0319124D01*
X0334872Y0264006D01*
X0264006Y0264006D01*
X0264006Y0326924D02*
G75*
%LPD*%
D93*
X0264006Y0326924D02*
X0264006Y0382042D01*
X0334872Y0382042D01*
X0334872Y0326924D01*
X0264006Y0326924D01*
M02*
