%
M48
M72
T01C0.01500
T02C0.02362
T03C0.04000
T04C0.04291
T05C0.04724
T06C0.07874
T07C0.08000
T08C0.09000
T09C0.09449
T10C0.10827
%
T01
X348307Y481378
X356575Y492795
X366024Y497126
X367992Y479409
X348307Y509331
X358543Y517205
X366811Y533346
X371535Y530197
X367205Y539252
X359331Y537677
X329409Y566417
X337677Y576654
X330984Y596339
X327047Y600276
X310512Y605394
X309724Y612480
X301457Y596339
X308543Y592402
X305394Y588071
X301850Y579803
X288071Y582559
X276654Y584921
X272323Y579016
X280197Y593583
X273504Y594370
X276654Y600669
X301850Y562480
X312087Y555787
X306575Y527835
X301850Y524291
X288071Y515630
X299488Y493583
X306575Y500669
X309724Y506969
X281772Y558937
X265630Y543976
X259724Y551850
X256575Y520354
X263268Y508543
X266811Y502638
X263268Y499094
X246339Y492008
X234134Y497126
X234921Y511299
X215236Y524685
X206969Y517205
X211299Y508150
X195157Y533346
X194370Y542008
X202244Y554606
X200669Y589252
X173504Y603819
X170748Y565236
X167205Y556575
X167992Y551850
X167205Y535709
X164055Y530591
X233346Y593976
X244764Y619961
X240039Y639252
X230984Y653819
X230197Y665236
X245157Y665236
X256181Y677047
X266024Y673504
X269567Y693583
X266024Y695945
X259331Y702244
X265630Y710512
X262087Y715630
X260512Y720748
X253425Y726260
X247913Y720748
X251063Y715630
X264055Y737677
X250276Y748307
X221142Y741614
X212874Y750276
X216417Y753425
X220354Y756181
X217205Y725079
X206969Y721142
X229016Y705394
X183740Y677047
X277047Y703425
X291614Y706575
X303031Y696732
X310906Y697913
X310906Y690039
X325472Y683346
X327835Y687283
X332165Y683740
X323110Y674291
X327047Y669567
X319961Y668780
X303819Y668780
X300276Y675472
X289252Y672323
X284921Y674685
X287283Y657362
X292008Y648307
X299094Y660118
X309724Y639646
X313661Y636496
X317205Y645945
X321929Y651457
X338465Y625472
X355787Y639646
X363268Y642008
X361693Y634134
X372323Y638858
X380984Y635709
X387677Y611693
X384528Y600669
X372323Y608937
X396339Y627047
X396339Y642795
X405394Y643583
X405787Y649882
X406181Y654606
X399094Y660512
X407756Y674685
X417598Y672717
X423110Y659724
X418780Y650276
X437677Y629409
X436890Y625079
X448701Y629016
X456181Y629016
X456575Y635709
X464055Y634528
X458937Y621142
X469961Y614055
X466811Y608937
X463268Y603819
X453819Y595945
X448307Y601063
X449882Y608150
X440039Y603819
X436890Y592008
X451457Y579016
X453425Y572323
X457756Y567992
X452638Y564449
X460512Y556181
X467205Y549882
X472323Y545157
X477835Y539252
X492008Y547913
X499488Y550276
X498307Y542795
X512087Y545551
X518780Y545551
X537677Y521142
X549094Y524685
X561299Y527835
X565630Y537677
X566417Y547520
X573504Y547520
X574685Y537677
X560512Y554213
X551850Y558543
X548701Y547126
X538858Y580197
X530984Y577047
X522323Y605394
X517205Y605787
X517205Y615630
X525866Y627835
X527835Y647913
X521929Y676654
X515630Y699094
X519173Y706181
X510906Y705787
X506181Y699094
X490433Y706181
X474685Y693583
X456181Y688071
X452638Y672717
X452638Y664055
X433740Y684921
X430984Y702244
X436890Y702244
X436890Y710512
X456181Y707362
X477047Y742795
X481772Y760512
X462480Y771929
X450276Y759331
X433740Y752244
X432165Y760512
X417205Y764449
X405000Y755394
X397126Y762874
X371535Y751063
X369567Y744370
X351850Y765630
X343976Y753031
X336890Y754606
X331772Y756181
X330984Y751850
X342008Y736496
X345945Y730591
X345157Y716811
X340827Y710512
X332953Y700276
X327441Y703425
X325866Y712087
X319961Y710512
X313268Y712087
X313268Y725866
X329016Y719961
X349094Y705000
X356181Y713268
X372717Y711693
X376260Y702638
X384921Y702638
X380591Y694370
X384921Y689646
X384528Y684921
X388071Y681378
X382953Y671535
X373504Y667205
X363661Y679409
X365236Y688465
X359331Y692008
X349882Y676260
X349882Y667205
X354606Y666811
X391614Y718780
X411299Y696339
X418780Y718780
X484921Y668780
X490433Y658150
X479409Y592008
X467205Y592008
X480984Y559331
X486496Y553819
X499094Y571929
X450276Y517205
X451063Y510906
X445551Y523110
X440827Y529016
X428622Y532559
X424685Y548701
X417992Y545551
X410512Y558150
X407362Y554606
X406575Y564449
X408543Y569173
X403425Y570354
X412087Y590827
X405000Y609331
X423110Y620748
X434921Y550669
X428622Y514055
X430984Y507756
X422323Y507756
X392402Y516417
X560118Y653819
X559724Y664055
X559724Y674291
X559724Y683740
X566024Y703425
X566811Y637677
X580984Y593189
X580591Y583740
X580984Y573898
X580984Y564055
X329803Y775472
X300669Y762087
X292008Y747913
X288858Y754606
T02
X186890Y583740
X175866Y583740
X349882Y534134
X404213Y547126
X485315Y642402
X497520Y511693
X564055Y511299
T03
X561181Y473386
X571181Y473386
X571181Y463386
X561181Y463386
X551181Y463386
X551181Y473386
X541181Y473386
X541181Y463386
X531181Y463386
X531181Y473386
X521181Y473386
X521181Y463386
X511181Y463386
X511181Y473386
X501181Y473386
X501181Y463386
X491181Y463386
X491181Y473386
X581181Y473386
X581181Y463386
X293819Y463386
X293819Y473386
X283819Y473386
X283819Y463386
X273819Y463386
X273819Y473386
X263819Y473386
X263819Y463386
X253819Y463386
X253819Y473386
X243819Y473386
X243819Y463386
X233819Y463386
X233819Y473386
X223819Y473386
X223819Y463386
X213819Y463386
X213819Y473386
X203819Y473386
X203819Y463386
X193272Y718620
X193272Y736420
X192918Y749643
X192918Y767443
X167318Y767443
X167318Y749643
X167672Y736420
X167672Y718620
T04
X204252Y787795
X214252Y787795
X224252Y787795
X234252Y787795
X266496Y788189
X276496Y788189
X286496Y788189
X296496Y788189
X328346Y788189
X338346Y788189
X348346Y788189
X358346Y788189
X398465Y788622
X408465Y788622
X418465Y788622
X459961Y788583
X469961Y788583
X479961Y788583
X489961Y788583
X499961Y788583
X540236Y788583
X550236Y788583
X560236Y788583
X570236Y788583
X602008Y789094
X602008Y779094
X600984Y694016
X600984Y684016
X600984Y674016
X600984Y664016
X600984Y654016
X600984Y644016
X600984Y634016
X639173Y603661
X639173Y593661
X639173Y583661
X639173Y573661
X639173Y563661
X600787Y531614
X600787Y521614
X600787Y511614
X600787Y501614
X536890Y493898
X526890Y493898
X516890Y493898
X480197Y494291
X470197Y494291
X460197Y494291
X209409Y569685
X209409Y579685
X176260Y624409
X176260Y634409
T05
X162441Y679646
X162441Y705630
T06
X323177Y508913
T07
X493795Y726283
X544795Y726283
T08
X474795Y677283
X474795Y571283
X562795Y624283
T09
X433201Y477417
T10
X171535Y464449
X171535Y826654
X640039Y826654
X640039Y464449
M30
