G75*
%MOIN*%
%OFA0B0*%
%FSLAX25Y25*%
%IPPOS*%
%LPD*%
%AMOC8*
5,1,8,0,0,1.08239X$1,22.5*
%
%ADD10R,0.05315X0.01575*%
%ADD11C,0.07091*%
%ADD12R,0.03543X0.03937*%
%ADD13R,0.04134X0.02362*%
%ADD14C,0.06737*%
%ADD15R,0.06737X0.06737*%
%ADD16R,0.01083X0.01772*%
%ADD17R,0.01772X0.01083*%
%ADD18R,0.03937X0.03543*%
%ADD19C,0.05906*%
%ADD20C,0.07400*%
%ADD21C,0.07524*%
%ADD22C,0.07874*%
%ADD23C,0.06816*%
%ADD24C,0.03500*%
%ADD25C,0.00800*%
%ADD26C,0.00600*%
%ADD27C,0.01000*%
%ADD28C,0.01500*%
%ADD29C,0.01600*%
D10*
X0173307Y0092870D03*
X0173307Y0095429D03*
X0173307Y0097988D03*
X0173307Y0100547D03*
X0190236Y0100547D03*
X0190236Y0097988D03*
X0190236Y0095429D03*
X0190236Y0092870D03*
D11*
X0170906Y0125840D02*
X0170906Y0132931D01*
X0160906Y0132931D02*
X0160906Y0125840D01*
X0150906Y0125840D02*
X0150906Y0132931D01*
X0127480Y0113561D02*
X0127480Y0106470D01*
X0117480Y0106470D02*
X0117480Y0113561D01*
X0107480Y0113561D02*
X0107480Y0106470D01*
X0097480Y0106470D02*
X0097480Y0113561D01*
X0085591Y0082144D02*
X0085591Y0075053D01*
X0075591Y0075053D02*
X0075591Y0082144D01*
X0059412Y0068638D02*
X0052320Y0068638D01*
X0052320Y0058638D02*
X0059412Y0058638D01*
X0098031Y0055451D02*
X0098031Y0048360D01*
X0108031Y0048360D02*
X0108031Y0055451D01*
D12*
X0123110Y0066197D03*
X0123110Y0072890D03*
X0097520Y0079583D03*
X0097520Y0086276D03*
X0086496Y0100055D03*
X0086496Y0106748D03*
X0060906Y0105567D03*
X0052638Y0105567D03*
X0052638Y0112260D03*
X0060906Y0112260D03*
X0040433Y0112260D03*
X0040433Y0105567D03*
X0026063Y0096315D03*
X0026063Y0089622D03*
X0125866Y0092575D03*
X0125866Y0099268D03*
X0144764Y0111472D03*
X0144764Y0118165D03*
X0168386Y0114228D03*
X0174291Y0114228D03*
X0174291Y0107535D03*
X0168386Y0107535D03*
D13*
X0026063Y0109898D03*
X0026063Y0102417D03*
X0015433Y0102417D03*
X0015433Y0106157D03*
X0015433Y0109898D03*
D14*
X0047953Y0121236D03*
X0057953Y0121236D03*
X0067953Y0121236D03*
X0077953Y0121236D03*
X0077953Y0131236D03*
X0067953Y0131236D03*
X0057953Y0131236D03*
X0047953Y0131236D03*
X0037953Y0131236D03*
X0217953Y0121236D03*
X0227953Y0121236D03*
X0227953Y0111236D03*
X0217953Y0111236D03*
X0227953Y0131236D03*
D15*
X0217953Y0131236D03*
X0037953Y0121236D03*
D16*
X0130413Y0086768D03*
X0132106Y0086768D03*
X0133799Y0086768D03*
X0135492Y0086768D03*
X0135492Y0075154D03*
X0133799Y0075154D03*
X0132106Y0075154D03*
X0130413Y0075154D03*
D17*
X0128130Y0075035D03*
X0128130Y0076728D03*
X0128130Y0078421D03*
X0128130Y0080114D03*
X0128130Y0081807D03*
X0128130Y0083500D03*
X0128130Y0085193D03*
X0128130Y0086886D03*
X0137776Y0086886D03*
X0137776Y0085193D03*
X0137776Y0083500D03*
X0137776Y0081807D03*
X0137776Y0080114D03*
X0137776Y0078421D03*
X0137776Y0076728D03*
X0137776Y0075035D03*
D18*
X0150472Y0084504D03*
X0157165Y0084504D03*
X0157165Y0091197D03*
X0150472Y0091197D03*
X0117795Y0088835D03*
X0111102Y0088835D03*
X0111102Y0083323D03*
X0117795Y0083323D03*
X0117795Y0077811D03*
X0111102Y0077811D03*
X0076850Y0108126D03*
X0070157Y0108126D03*
X0042992Y0096512D03*
X0036299Y0096512D03*
D19*
X0134528Y0064031D03*
X0142795Y0068756D03*
X0149488Y0064031D03*
X0153031Y0071118D03*
X0155787Y0077811D03*
X0251890Y0110055D03*
D20*
X0254409Y0076827D03*
X0236693Y0076827D03*
X0236693Y0051236D03*
X0254409Y0051236D03*
D21*
X0036102Y0027673D03*
X0062087Y0027673D03*
D22*
X0205394Y0114031D03*
X0206181Y0130173D03*
X0193976Y0130173D03*
X0181181Y0130370D03*
X0209331Y0087654D03*
D23*
X0179567Y0038992D03*
X0169567Y0038992D03*
X0169567Y0028992D03*
X0179567Y0028992D03*
X0130591Y0054976D03*
X0123110Y0059307D03*
X0103425Y0068756D03*
X0061693Y0047890D03*
X0020748Y0116787D03*
D24*
X0031969Y0110488D03*
X0035118Y0108520D03*
X0035118Y0112457D03*
X0020748Y0106157D03*
X0010118Y0102220D03*
X0034528Y0085291D03*
X0034528Y0081748D03*
X0027441Y0081748D03*
X0019173Y0081748D03*
X0037283Y0073480D03*
X0050669Y0081748D03*
X0050669Y0085291D03*
X0071535Y0070724D03*
X0069961Y0067575D03*
X0073504Y0067575D03*
X0080591Y0067969D03*
X0085315Y0067969D03*
X0090039Y0067969D03*
X0094370Y0064819D03*
X0090039Y0062063D03*
X0079803Y0057339D03*
X0072323Y0048677D03*
X0069173Y0047102D03*
X0071929Y0044740D03*
X0079409Y0047890D03*
X0070354Y0034898D03*
X0083346Y0027811D03*
X0047520Y0044346D03*
X0043976Y0044346D03*
X0040433Y0044346D03*
X0022323Y0053008D03*
X0018386Y0060094D03*
X0016024Y0066787D03*
X0073110Y0114425D03*
X0102244Y0099071D03*
X0121142Y0093165D03*
X0133740Y0096315D03*
X0139252Y0102220D03*
X0144764Y0106551D03*
X0154213Y0108520D03*
X0160906Y0102220D03*
X0166811Y0100646D03*
X0165236Y0096315D03*
X0162480Y0088835D03*
X0164055Y0080961D03*
X0163661Y0075055D03*
X0144370Y0084898D03*
X0132953Y0080961D03*
X0133346Y0071512D03*
X0129803Y0071512D03*
X0117205Y0072299D03*
X0104606Y0079386D03*
X0144370Y0098677D03*
X0151457Y0099858D03*
X0155787Y0119150D03*
X0176260Y0119543D03*
X0185709Y0116000D03*
X0180984Y0108913D03*
X0199094Y0108913D03*
X0218780Y0097102D03*
X0234134Y0089622D03*
X0243976Y0079780D03*
X0251063Y0083323D03*
X0227047Y0066787D03*
X0226260Y0060882D03*
X0205394Y0075055D03*
X0199882Y0082535D03*
X0200276Y0089622D03*
X0184921Y0086472D03*
X0216417Y0078205D03*
X0195748Y0066000D03*
X0185709Y0058520D03*
X0177835Y0058520D03*
X0184528Y0051827D03*
X0192402Y0051827D03*
X0158937Y0058913D03*
X0151457Y0058520D03*
X0136496Y0051039D03*
X0143583Y0039228D03*
X0134528Y0036472D03*
X0141220Y0026236D03*
X0126260Y0026236D03*
X0156969Y0026236D03*
X0192008Y0026236D03*
X0206575Y0027417D03*
X0230197Y0033717D03*
X0226260Y0041984D03*
X0256181Y0063244D03*
X0251457Y0102220D03*
X0243583Y0103402D03*
X0256181Y0114425D03*
X0235315Y0135291D03*
X0131772Y0135685D03*
X0116811Y0135685D03*
X0107756Y0135685D03*
X0098701Y0135685D03*
X0089646Y0135685D03*
D25*
X0138858Y0101827D02*
X0139252Y0102220D01*
X0138858Y0101827D02*
X0134921Y0101827D01*
X0130413Y0097319D01*
X0130413Y0086768D01*
X0132106Y0086768D02*
X0132106Y0094681D01*
X0133740Y0096315D01*
X0135709Y0093559D02*
X0133799Y0091650D01*
X0133799Y0086768D01*
X0135492Y0086768D02*
X0135492Y0088618D01*
X0138071Y0091197D01*
X0150472Y0091197D01*
X0149882Y0087654D02*
X0147323Y0087654D01*
X0146142Y0088835D01*
X0139646Y0088835D01*
X0137776Y0086965D01*
X0137776Y0086886D01*
X0137776Y0085193D02*
X0144075Y0085193D01*
X0144370Y0084898D01*
X0142972Y0083500D01*
X0137776Y0083500D01*
X0137776Y0081807D02*
X0147854Y0081807D01*
X0151850Y0077811D01*
X0155787Y0077811D01*
X0150669Y0076236D02*
X0150669Y0074661D01*
X0153031Y0072299D01*
X0153031Y0071118D01*
X0149488Y0066394D02*
X0147913Y0067969D01*
X0147913Y0075449D01*
X0144941Y0078421D01*
X0137776Y0078421D01*
X0137776Y0076728D02*
X0139154Y0076728D01*
X0142795Y0073087D01*
X0142795Y0068756D01*
X0137776Y0067280D02*
X0137776Y0075035D01*
X0135492Y0075154D02*
X0135492Y0073657D01*
X0133346Y0071512D01*
X0132106Y0072752D01*
X0132106Y0075154D01*
X0130413Y0075154D02*
X0130413Y0072122D01*
X0129803Y0071512D01*
X0128130Y0073185D01*
X0128130Y0075035D01*
X0128130Y0076728D01*
X0128130Y0078421D01*
X0128110Y0080094D02*
X0128130Y0080114D01*
X0128071Y0080094D01*
X0128110Y0080094D02*
X0125827Y0080094D01*
X0123110Y0077417D01*
X0123110Y0072890D01*
X0133346Y0071512D02*
X0133799Y0071965D01*
X0133799Y0075154D01*
X0137776Y0080114D02*
X0146791Y0080114D01*
X0150669Y0076236D01*
X0150472Y0084504D02*
X0150276Y0084701D01*
X0150276Y0087260D01*
X0149882Y0087654D01*
X0145157Y0093559D02*
X0135709Y0093559D01*
X0125866Y0092575D02*
X0125866Y0089150D01*
X0128130Y0086886D01*
X0128130Y0085193D02*
X0124193Y0085193D01*
X0120551Y0088835D01*
X0117795Y0088835D01*
X0117972Y0083500D02*
X0117795Y0083323D01*
X0117972Y0083500D02*
X0128130Y0083500D01*
X0125866Y0083500D01*
X0125866Y0082142D01*
X0126260Y0081748D01*
X0128071Y0081748D01*
X0128130Y0081807D01*
X0128110Y0081787D01*
X0125866Y0092575D02*
X0121732Y0092575D01*
X0121142Y0093165D01*
X0145157Y0093559D02*
X0151457Y0099858D01*
X0149488Y0066394D02*
X0149488Y0064031D01*
X0147913Y0064031D01*
X0137776Y0067280D02*
X0134528Y0064031D01*
X0250709Y0111236D02*
X0251890Y0110055D01*
D26*
X0097520Y0067181D02*
X0097520Y0063244D01*
X0090039Y0055764D01*
X0088858Y0055764D01*
X0086496Y0053402D01*
X0069173Y0053402D01*
X0067598Y0054976D01*
X0067598Y0060488D01*
X0069567Y0062457D01*
X0076260Y0062457D01*
X0078228Y0064425D01*
X0078228Y0068756D01*
X0079409Y0069937D01*
X0094764Y0069937D01*
X0097520Y0067181D01*
X0097308Y0067392D02*
X0078228Y0067392D01*
X0078228Y0066794D02*
X0097520Y0066794D01*
X0097520Y0066195D02*
X0078228Y0066195D01*
X0078228Y0065597D02*
X0097520Y0065597D01*
X0097520Y0064998D02*
X0078228Y0064998D01*
X0078203Y0064400D02*
X0097520Y0064400D01*
X0097520Y0063801D02*
X0077604Y0063801D01*
X0077006Y0063203D02*
X0097478Y0063203D01*
X0096880Y0062604D02*
X0076407Y0062604D01*
X0074291Y0064819D02*
X0069173Y0064819D01*
X0068386Y0065606D01*
X0059331Y0065606D01*
X0059331Y0069543D01*
X0069961Y0080173D01*
X0075472Y0080173D01*
X0075866Y0079780D01*
X0075866Y0066394D01*
X0074291Y0064819D01*
X0074471Y0064998D02*
X0068994Y0064998D01*
X0068395Y0065597D02*
X0075069Y0065597D01*
X0075668Y0066195D02*
X0059331Y0066195D01*
X0059331Y0066794D02*
X0075866Y0066794D01*
X0075866Y0067392D02*
X0059331Y0067392D01*
X0059331Y0067991D02*
X0075866Y0067991D01*
X0075866Y0068589D02*
X0059331Y0068589D01*
X0059331Y0069188D02*
X0075866Y0069188D01*
X0075866Y0069786D02*
X0059574Y0069786D01*
X0060172Y0070385D02*
X0075866Y0070385D01*
X0075866Y0070983D02*
X0060771Y0070983D01*
X0061369Y0071582D02*
X0075866Y0071582D01*
X0075866Y0072180D02*
X0061968Y0072180D01*
X0062566Y0072779D02*
X0075866Y0072779D01*
X0075866Y0073377D02*
X0063165Y0073377D01*
X0063763Y0073976D02*
X0075866Y0073976D01*
X0075866Y0074575D02*
X0064362Y0074575D01*
X0064960Y0075173D02*
X0075866Y0075173D01*
X0075866Y0075772D02*
X0065559Y0075772D01*
X0066157Y0076370D02*
X0075866Y0076370D01*
X0075866Y0076969D02*
X0066756Y0076969D01*
X0067354Y0077567D02*
X0075866Y0077567D01*
X0075866Y0078166D02*
X0067953Y0078166D01*
X0068551Y0078764D02*
X0075866Y0078764D01*
X0075866Y0079363D02*
X0069150Y0079363D01*
X0069749Y0079961D02*
X0075685Y0079961D01*
X0064843Y0084110D02*
X0064843Y0086079D01*
X0071142Y0092378D01*
X0071142Y0098677D01*
X0068386Y0101433D01*
X0065236Y0101433D01*
X0059724Y0095921D01*
X0051850Y0095921D01*
X0048307Y0091984D01*
X0029075Y0091984D01*
X0029135Y0091762D01*
X0029135Y0089922D01*
X0026363Y0089922D01*
X0026363Y0089322D01*
X0026363Y0086354D01*
X0028006Y0086354D01*
X0028336Y0086442D01*
X0028633Y0086613D01*
X0028875Y0086855D01*
X0029046Y0087152D01*
X0029135Y0087482D01*
X0029135Y0089322D01*
X0026363Y0089322D01*
X0025763Y0089322D01*
X0025763Y0086354D01*
X0024120Y0086354D01*
X0023790Y0086442D01*
X0023493Y0086613D01*
X0023251Y0086855D01*
X0023080Y0087152D01*
X0022991Y0087482D01*
X0022991Y0089322D01*
X0025763Y0089322D01*
X0025763Y0089922D01*
X0022991Y0089922D01*
X0022991Y0091762D01*
X0023051Y0091984D01*
X0016024Y0091984D01*
X0013661Y0089622D01*
X0013661Y0078598D01*
X0016417Y0075843D01*
X0034528Y0075843D01*
X0036496Y0077811D01*
X0041220Y0077811D01*
X0042402Y0078992D01*
X0059724Y0078992D01*
X0064843Y0084110D01*
X0064843Y0084151D02*
X0013661Y0084151D01*
X0013661Y0084749D02*
X0064843Y0084749D01*
X0064843Y0085348D02*
X0013661Y0085348D01*
X0013661Y0085946D02*
X0064843Y0085946D01*
X0065309Y0086545D02*
X0028514Y0086545D01*
X0029041Y0087143D02*
X0065907Y0087143D01*
X0066506Y0087742D02*
X0029135Y0087742D01*
X0029135Y0088340D02*
X0067104Y0088340D01*
X0067703Y0088939D02*
X0029135Y0088939D01*
X0029135Y0090136D02*
X0068900Y0090136D01*
X0069498Y0090734D02*
X0029135Y0090734D01*
X0029135Y0091333D02*
X0070097Y0091333D01*
X0070695Y0091931D02*
X0029089Y0091931D01*
X0026363Y0089537D02*
X0068301Y0089537D01*
X0071142Y0092530D02*
X0048798Y0092530D01*
X0049337Y0093128D02*
X0071142Y0093128D01*
X0071142Y0093727D02*
X0049875Y0093727D01*
X0050414Y0094325D02*
X0071142Y0094325D01*
X0071142Y0094924D02*
X0050953Y0094924D01*
X0051491Y0095522D02*
X0071142Y0095522D01*
X0071142Y0096121D02*
X0059924Y0096121D01*
X0060523Y0096719D02*
X0071142Y0096719D01*
X0071142Y0097318D02*
X0061121Y0097318D01*
X0061720Y0097916D02*
X0071142Y0097916D01*
X0071142Y0098515D02*
X0062318Y0098515D01*
X0062917Y0099113D02*
X0070705Y0099113D01*
X0070107Y0099712D02*
X0063515Y0099712D01*
X0064114Y0100310D02*
X0069508Y0100310D01*
X0068910Y0100909D02*
X0064712Y0100909D01*
X0064284Y0083552D02*
X0013661Y0083552D01*
X0013661Y0082954D02*
X0063686Y0082954D01*
X0063087Y0082355D02*
X0013661Y0082355D01*
X0013661Y0081757D02*
X0062489Y0081757D01*
X0061890Y0081158D02*
X0013661Y0081158D01*
X0013661Y0080560D02*
X0061292Y0080560D01*
X0060693Y0079961D02*
X0013661Y0079961D01*
X0013661Y0079363D02*
X0060095Y0079363D01*
X0042174Y0078764D02*
X0013661Y0078764D01*
X0014094Y0078166D02*
X0041575Y0078166D01*
X0036252Y0077567D02*
X0014693Y0077567D01*
X0015291Y0076969D02*
X0035654Y0076969D01*
X0035055Y0076370D02*
X0015890Y0076370D01*
X0011299Y0073480D02*
X0010906Y0073480D01*
X0013661Y0086545D02*
X0023612Y0086545D01*
X0023085Y0087143D02*
X0013661Y0087143D01*
X0013661Y0087742D02*
X0022991Y0087742D01*
X0022991Y0088340D02*
X0013661Y0088340D01*
X0013661Y0088939D02*
X0022991Y0088939D01*
X0022991Y0090136D02*
X0014175Y0090136D01*
X0013661Y0089537D02*
X0025763Y0089537D01*
X0025763Y0088939D02*
X0026363Y0088939D01*
X0026363Y0088340D02*
X0025763Y0088340D01*
X0025763Y0087742D02*
X0026363Y0087742D01*
X0026363Y0087143D02*
X0025763Y0087143D01*
X0025763Y0086545D02*
X0026363Y0086545D01*
X0022991Y0090734D02*
X0014774Y0090734D01*
X0015372Y0091333D02*
X0022991Y0091333D01*
X0023037Y0091931D02*
X0015971Y0091931D01*
X0067919Y0060809D02*
X0095084Y0060809D01*
X0094486Y0060210D02*
X0067598Y0060210D01*
X0067598Y0059612D02*
X0093887Y0059612D01*
X0093289Y0059013D02*
X0067598Y0059013D01*
X0067598Y0058415D02*
X0092690Y0058415D01*
X0092092Y0057816D02*
X0067598Y0057816D01*
X0067598Y0057218D02*
X0091493Y0057218D01*
X0090895Y0056619D02*
X0067598Y0056619D01*
X0067598Y0056021D02*
X0090296Y0056021D01*
X0088517Y0055422D02*
X0067598Y0055422D01*
X0067751Y0054824D02*
X0087918Y0054824D01*
X0087320Y0054225D02*
X0068350Y0054225D01*
X0068948Y0053627D02*
X0086721Y0053627D01*
X0095683Y0061407D02*
X0068517Y0061407D01*
X0069116Y0062006D02*
X0096281Y0062006D01*
X0096710Y0067991D02*
X0078228Y0067991D01*
X0078228Y0068589D02*
X0096111Y0068589D01*
X0095513Y0069188D02*
X0078660Y0069188D01*
X0079259Y0069786D02*
X0094914Y0069786D01*
D27*
X0099094Y0075055D02*
X0105000Y0075055D01*
X0116024Y0064031D01*
X0116024Y0054976D01*
X0124685Y0046315D01*
X0133346Y0046315D01*
X0162087Y0045921D01*
X0199488Y0045921D01*
X0205394Y0051827D01*
X0205394Y0075055D01*
X0202244Y0087654D02*
X0200276Y0089622D01*
X0202244Y0087654D02*
X0209331Y0087654D01*
X0200276Y0092772D02*
X0205394Y0097890D01*
X0205394Y0114031D01*
X0195157Y0119150D02*
X0195157Y0106945D01*
X0200276Y0101827D01*
X0200276Y0097102D01*
X0198602Y0095429D01*
X0190236Y0095429D01*
X0190236Y0092870D02*
X0190335Y0092772D01*
X0200276Y0092772D01*
X0195551Y0097890D02*
X0190335Y0097890D01*
X0190236Y0097988D01*
X0190236Y0100547D02*
X0189646Y0101138D01*
X0189646Y0121906D01*
X0181181Y0130370D01*
X0192402Y0128598D02*
X0193976Y0130173D01*
X0192402Y0128598D02*
X0192402Y0105764D01*
X0195945Y0102220D01*
X0195945Y0098283D01*
X0195551Y0097890D01*
X0173307Y0097988D02*
X0169469Y0097988D01*
X0166811Y0100646D01*
X0160906Y0102220D02*
X0160906Y0095134D01*
X0163169Y0092870D01*
X0173307Y0092870D01*
X0173307Y0095429D02*
X0166122Y0095429D01*
X0165236Y0096315D01*
X0160118Y0091197D02*
X0157165Y0091197D01*
X0160118Y0091197D02*
X0162480Y0088835D01*
X0162480Y0086079D01*
X0160906Y0084504D01*
X0157165Y0084504D01*
X0164055Y0080961D02*
X0185709Y0059307D01*
X0185709Y0058520D01*
X0192402Y0051827D01*
X0184528Y0051827D02*
X0177835Y0058520D01*
X0163661Y0072693D01*
X0163661Y0075055D01*
X0129803Y0071512D02*
X0129803Y0070331D01*
X0125669Y0066197D01*
X0123110Y0066197D01*
X0117205Y0072299D02*
X0117205Y0077811D01*
X0117795Y0077811D01*
X0117795Y0083323D01*
X0111102Y0083323D02*
X0108543Y0083323D01*
X0104606Y0079386D01*
X0104606Y0085685D01*
X0107756Y0088835D01*
X0111102Y0088835D01*
X0104606Y0079386D02*
X0106181Y0077811D01*
X0111102Y0077811D01*
X0099094Y0075055D02*
X0097520Y0076630D01*
X0097520Y0079583D01*
X0097520Y0086276D02*
X0097520Y0109976D01*
X0097480Y0110016D01*
X0092717Y0110016D01*
X0089449Y0106748D01*
X0086496Y0106748D01*
X0079803Y0108126D02*
X0095551Y0123874D01*
X0133740Y0123874D01*
X0139252Y0118362D01*
X0139252Y0102220D01*
X0142795Y0098677D01*
X0144370Y0098677D01*
X0151457Y0099858D02*
X0144764Y0106551D01*
X0144764Y0111472D01*
X0154213Y0108520D02*
X0155197Y0107535D01*
X0168386Y0107535D01*
X0174291Y0107535D01*
X0173307Y0106551D01*
X0173307Y0100547D01*
X0174291Y0114228D02*
X0176260Y0116197D01*
X0176260Y0119543D01*
X0171142Y0119543D01*
X0168386Y0116787D01*
X0168386Y0114228D01*
X0144764Y0118165D02*
X0144764Y0124268D01*
X0138071Y0130961D01*
X0089646Y0130961D01*
X0084921Y0126236D01*
X0052953Y0126236D01*
X0047953Y0121236D01*
X0052638Y0116551D01*
X0052638Y0112260D01*
X0060906Y0112260D02*
X0064252Y0112260D01*
X0065630Y0110882D01*
X0065630Y0109307D01*
X0066811Y0108126D01*
X0070157Y0108126D01*
X0076850Y0108126D02*
X0079803Y0108126D01*
X0083150Y0100055D02*
X0086496Y0100055D01*
X0083150Y0100055D02*
X0067205Y0084110D01*
X0067205Y0081748D01*
X0062087Y0076630D01*
X0052638Y0076630D01*
X0046339Y0070331D01*
X0046339Y0064425D01*
X0042008Y0060094D01*
X0018386Y0060094D01*
X0016024Y0066787D02*
X0016024Y0068756D01*
X0011299Y0073480D01*
X0037283Y0073480D01*
X0010906Y0073480D02*
X0009331Y0075055D01*
X0009331Y0101433D01*
X0010118Y0102220D01*
X0015236Y0109701D02*
X0015433Y0109898D01*
X0030197Y0109775D02*
X0036890Y0109775D01*
X0036890Y0110773D02*
X0030197Y0110773D01*
X0030197Y0111772D02*
X0036890Y0111772D01*
X0036890Y0112770D02*
X0030197Y0112770D01*
X0030197Y0112850D02*
X0031772Y0114425D01*
X0035709Y0114425D01*
X0036890Y0113244D01*
X0036890Y0108126D01*
X0037161Y0107628D01*
X0037161Y0105953D01*
X0040047Y0105953D01*
X0040047Y0105181D01*
X0037161Y0105181D01*
X0037161Y0103401D01*
X0037264Y0103019D01*
X0037461Y0102677D01*
X0037740Y0102398D01*
X0038082Y0102201D01*
X0038464Y0102098D01*
X0040047Y0102098D01*
X0040047Y0105181D01*
X0040819Y0105181D01*
X0040819Y0105953D01*
X0043705Y0105953D01*
X0043705Y0105961D01*
X0044370Y0105961D01*
X0044370Y0099783D01*
X0043378Y0099783D01*
X0043378Y0096898D01*
X0042606Y0096898D01*
X0042606Y0099783D01*
X0042008Y0099783D01*
X0042008Y0099819D01*
X0039136Y0099819D01*
X0038972Y0099983D01*
X0036712Y0099983D01*
X0030197Y0107732D01*
X0030197Y0112850D01*
X0031115Y0113769D02*
X0036365Y0113769D01*
X0036890Y0108776D02*
X0030197Y0108776D01*
X0030197Y0107777D02*
X0037080Y0107777D01*
X0037161Y0106779D02*
X0030998Y0106779D01*
X0031838Y0105780D02*
X0040047Y0105780D01*
X0040433Y0105567D02*
X0052638Y0105567D01*
X0060906Y0105567D01*
X0060906Y0112260D02*
X0060906Y0118283D01*
X0057953Y0121236D01*
X0044370Y0105780D02*
X0040819Y0105780D01*
X0040819Y0105181D02*
X0043705Y0105181D01*
X0043705Y0103401D01*
X0043602Y0103019D01*
X0043405Y0102677D01*
X0043126Y0102398D01*
X0042784Y0102201D01*
X0042402Y0102098D01*
X0040819Y0102098D01*
X0040819Y0105181D01*
X0040819Y0104782D02*
X0040047Y0104782D01*
X0040047Y0103783D02*
X0040819Y0103783D01*
X0040819Y0102785D02*
X0040047Y0102785D01*
X0037399Y0102785D02*
X0034357Y0102785D01*
X0035196Y0101786D02*
X0044370Y0101786D01*
X0044370Y0100788D02*
X0036036Y0100788D01*
X0037161Y0103783D02*
X0033517Y0103783D01*
X0032677Y0104782D02*
X0037161Y0104782D01*
X0043705Y0104782D02*
X0044370Y0104782D01*
X0044370Y0103783D02*
X0043705Y0103783D01*
X0043467Y0102785D02*
X0044370Y0102785D01*
X0044370Y0099789D02*
X0042008Y0099789D01*
X0042606Y0098791D02*
X0043378Y0098791D01*
X0043378Y0097792D02*
X0042606Y0097792D01*
X0117480Y0110016D02*
X0119961Y0107535D01*
X0119961Y0101433D01*
X0122126Y0099268D01*
X0125866Y0099268D01*
X0195157Y0119150D02*
X0206181Y0130173D01*
X0227953Y0111236D02*
X0244803Y0111236D01*
X0245945Y0110094D01*
X0251850Y0110094D01*
X0251890Y0110055D01*
X0243583Y0103402D02*
X0243583Y0089622D01*
X0236693Y0082732D01*
X0236693Y0076827D01*
D28*
X0040433Y0112260D02*
X0040433Y0115606D01*
X0039252Y0116787D01*
X0039252Y0119937D01*
X0037953Y0121236D01*
X0020748Y0106157D02*
X0015433Y0106157D01*
X0015236Y0109701D02*
X0011693Y0109701D01*
X0010512Y0108520D01*
X0010512Y0102614D01*
X0010118Y0102220D01*
X0015236Y0102220D01*
X0015433Y0102417D01*
X0026063Y0102417D02*
X0026063Y0096315D01*
X0033346Y0096315D01*
X0036299Y0096512D01*
D29*
X0087283Y0050252D02*
X0089252Y0052220D01*
X0092686Y0052220D01*
X0092686Y0052178D01*
X0096409Y0052178D01*
X0097318Y0051633D01*
X0092686Y0051633D01*
X0092686Y0047939D01*
X0092817Y0047108D01*
X0093077Y0046308D01*
X0093459Y0045558D01*
X0093954Y0044877D01*
X0094549Y0044282D01*
X0095230Y0043788D01*
X0095979Y0043406D01*
X0096780Y0043146D01*
X0097611Y0043014D01*
X0097759Y0043014D01*
X0097759Y0051368D01*
X0098304Y0051041D01*
X0098304Y0043014D01*
X0098307Y0043014D01*
X0098307Y0040803D01*
X0038465Y0040803D01*
X0036102Y0043165D01*
X0036102Y0046315D01*
X0038071Y0048283D01*
X0055787Y0048283D01*
X0057362Y0044346D01*
X0058477Y0043789D01*
X0058963Y0043436D01*
X0059694Y0043063D01*
X0060473Y0042810D01*
X0061283Y0042682D01*
X0061489Y0042682D01*
X0061489Y0047686D01*
X0061897Y0047686D01*
X0061897Y0042682D01*
X0062103Y0042682D01*
X0062912Y0042810D01*
X0063692Y0043063D01*
X0064422Y0043436D01*
X0064592Y0043559D01*
X0064843Y0043559D01*
X0066811Y0045528D01*
X0066811Y0046913D01*
X0066901Y0047480D01*
X0066901Y0047686D01*
X0066811Y0047686D01*
X0066811Y0047890D01*
X0069173Y0050252D01*
X0087283Y0050252D01*
X0087710Y0050679D02*
X0092686Y0050679D01*
X0092686Y0049080D02*
X0068001Y0049080D01*
X0066901Y0047482D02*
X0092758Y0047482D01*
X0093294Y0045883D02*
X0066811Y0045883D01*
X0065568Y0044285D02*
X0094547Y0044285D01*
X0097759Y0044285D02*
X0098304Y0044285D01*
X0098304Y0045883D02*
X0097759Y0045883D01*
X0097759Y0047482D02*
X0098304Y0047482D01*
X0098304Y0049080D02*
X0097759Y0049080D01*
X0097759Y0050679D02*
X0098304Y0050679D01*
X0098307Y0042686D02*
X0062130Y0042686D01*
X0061897Y0042686D02*
X0061489Y0042686D01*
X0061256Y0042686D02*
X0036582Y0042686D01*
X0036102Y0044285D02*
X0057486Y0044285D01*
X0056748Y0045883D02*
X0036102Y0045883D01*
X0037269Y0047482D02*
X0056108Y0047482D01*
X0061489Y0047482D02*
X0061897Y0047482D01*
X0061897Y0045883D02*
X0061489Y0045883D01*
X0061489Y0044285D02*
X0061897Y0044285D01*
X0038180Y0041088D02*
X0098307Y0041088D01*
M02*
