G75*
%MOIN*%
%OFA0B0*%
%FSLAX25Y25*%
%IPPOS*%
%LPD*%
%AMOC8*
5,1,8,0,0,1.08239X$1,22.5*
%
%ADD10C,0.07091*%
%ADD11C,0.06737*%
%ADD12C,0.06800*%
%ADD13C,0.07524*%
%ADD14C,0.06816*%
%ADD15C,0.03500*%
%ADD16C,0.00600*%
%ADD17C,0.00800*%
%ADD18C,0.01000*%
D10*
X0055866Y0058638D03*
X0055866Y0068638D03*
X0075591Y0078598D03*
X0085591Y0078598D03*
X0098031Y0051906D03*
X0108031Y0051906D03*
X0107480Y0110016D03*
X0117480Y0110016D03*
X0127480Y0110016D03*
X0097480Y0110016D03*
X0150906Y0129386D03*
X0160906Y0129386D03*
X0170906Y0129386D03*
D11*
X0217953Y0131236D03*
X0227953Y0131236D03*
X0227953Y0121236D03*
X0217953Y0121236D03*
X0217953Y0111236D03*
X0227953Y0111236D03*
X0077953Y0121236D03*
X0067953Y0121236D03*
X0057953Y0121236D03*
X0047953Y0121236D03*
X0037953Y0121236D03*
X0037953Y0131236D03*
X0047953Y0131236D03*
X0057953Y0131236D03*
X0067953Y0131236D03*
X0077953Y0131236D03*
D12*
X0236693Y0076827D03*
X0254409Y0076827D03*
X0254409Y0051236D03*
X0236693Y0051236D03*
D13*
X0062087Y0027673D03*
X0036102Y0027673D03*
D14*
X0061693Y0047890D03*
X0103425Y0068756D03*
X0123110Y0059307D03*
X0130591Y0054976D03*
X0169567Y0038992D03*
X0179567Y0038992D03*
X0179567Y0028992D03*
X0169567Y0028992D03*
X0020748Y0116787D03*
D15*
X0031969Y0110488D03*
X0035118Y0108520D03*
X0035118Y0112457D03*
X0020748Y0106157D03*
X0010118Y0102220D03*
X0034528Y0085291D03*
X0034528Y0081748D03*
X0027441Y0081748D03*
X0019173Y0081748D03*
X0037283Y0073480D03*
X0050669Y0081748D03*
X0050669Y0085291D03*
X0071535Y0070724D03*
X0069961Y0067575D03*
X0073504Y0067575D03*
X0080591Y0067969D03*
X0085315Y0067969D03*
X0090039Y0067969D03*
X0094370Y0064819D03*
X0090039Y0062063D03*
X0079803Y0057339D03*
X0072323Y0048677D03*
X0069173Y0047102D03*
X0071929Y0044740D03*
X0079409Y0047890D03*
X0070354Y0034898D03*
X0083346Y0027811D03*
X0047520Y0044346D03*
X0043976Y0044346D03*
X0040433Y0044346D03*
X0022323Y0053008D03*
X0018386Y0060094D03*
X0016024Y0066787D03*
X0073110Y0114425D03*
X0102244Y0099071D03*
X0121142Y0093165D03*
X0133740Y0096315D03*
X0139252Y0102220D03*
X0144764Y0106551D03*
X0154213Y0108520D03*
X0160906Y0102220D03*
X0166811Y0100646D03*
X0165236Y0096315D03*
X0162480Y0088835D03*
X0164055Y0080961D03*
X0163661Y0075055D03*
X0144370Y0084898D03*
X0132953Y0080961D03*
X0133346Y0071512D03*
X0129803Y0071512D03*
X0117205Y0072299D03*
X0104606Y0079386D03*
X0144370Y0098677D03*
X0151457Y0099858D03*
X0155787Y0119150D03*
X0176260Y0119543D03*
X0185709Y0116000D03*
X0180984Y0108913D03*
X0199094Y0108913D03*
X0218780Y0097102D03*
X0234134Y0089622D03*
X0243976Y0079780D03*
X0251063Y0083323D03*
X0227047Y0066787D03*
X0226260Y0060882D03*
X0205394Y0075055D03*
X0199882Y0082535D03*
X0200276Y0089622D03*
X0184921Y0086472D03*
X0216417Y0078205D03*
X0195748Y0066000D03*
X0185709Y0058520D03*
X0177835Y0058520D03*
X0184528Y0051827D03*
X0192402Y0051827D03*
X0158937Y0058913D03*
X0151457Y0058520D03*
X0136496Y0051039D03*
X0143583Y0039228D03*
X0134528Y0036472D03*
X0141220Y0026236D03*
X0126260Y0026236D03*
X0156969Y0026236D03*
X0192008Y0026236D03*
X0206575Y0027417D03*
X0230197Y0033717D03*
X0226260Y0041984D03*
X0256181Y0063244D03*
X0251457Y0102220D03*
X0243583Y0103402D03*
X0256181Y0114425D03*
X0235315Y0135291D03*
X0131772Y0135685D03*
X0116811Y0135685D03*
X0107756Y0135685D03*
X0098701Y0135685D03*
X0089646Y0135685D03*
D16*
X0056575Y0091984D02*
X0057756Y0090803D01*
X0057756Y0080567D01*
X0054606Y0077417D01*
X0014843Y0077417D01*
X0011693Y0080567D01*
X0011693Y0087260D01*
X0016417Y0091984D01*
X0056575Y0091984D01*
X0056628Y0091931D02*
X0016364Y0091931D01*
X0015766Y0091333D02*
X0057226Y0091333D01*
X0057756Y0090734D02*
X0015167Y0090734D01*
X0014569Y0090136D02*
X0057756Y0090136D01*
X0057756Y0089537D02*
X0013970Y0089537D01*
X0013372Y0088939D02*
X0057756Y0088939D01*
X0057756Y0088340D02*
X0012773Y0088340D01*
X0012175Y0087742D02*
X0057756Y0087742D01*
X0057756Y0087143D02*
X0011693Y0087143D01*
X0011693Y0086545D02*
X0057756Y0086545D01*
X0057756Y0085946D02*
X0011693Y0085946D01*
X0011693Y0085348D02*
X0057756Y0085348D01*
X0057756Y0084749D02*
X0011693Y0084749D01*
X0011693Y0084151D02*
X0057756Y0084151D01*
X0057756Y0083552D02*
X0011693Y0083552D01*
X0011693Y0082954D02*
X0057756Y0082954D01*
X0057756Y0082355D02*
X0011693Y0082355D01*
X0011693Y0081757D02*
X0057756Y0081757D01*
X0057756Y0081158D02*
X0011693Y0081158D01*
X0011700Y0080560D02*
X0057749Y0080560D01*
X0057150Y0079961D02*
X0012299Y0079961D01*
X0012897Y0079363D02*
X0056552Y0079363D01*
X0055953Y0078764D02*
X0013496Y0078764D01*
X0014094Y0078166D02*
X0055355Y0078166D01*
X0054756Y0077567D02*
X0014693Y0077567D01*
D17*
X0040827Y0050252D02*
X0057501Y0050252D01*
X0057237Y0049735D01*
X0057003Y0049016D01*
X0056888Y0048290D01*
X0061293Y0048290D01*
X0061293Y0047490D01*
X0056888Y0047490D01*
X0057003Y0046764D01*
X0057237Y0046044D01*
X0057581Y0045370D01*
X0058026Y0044758D01*
X0058561Y0044223D01*
X0059173Y0043778D01*
X0059847Y0043434D01*
X0060567Y0043200D01*
X0061293Y0043085D01*
X0061293Y0047490D01*
X0062093Y0047490D01*
X0062093Y0048290D01*
X0066497Y0048290D01*
X0066382Y0049016D01*
X0066149Y0049735D01*
X0065885Y0050252D01*
X0067598Y0050252D01*
X0071535Y0054189D01*
X0078653Y0054189D01*
X0079137Y0053989D01*
X0080470Y0053989D01*
X0080953Y0054189D01*
X0086496Y0054189D01*
X0091242Y0058935D01*
X0091937Y0059223D01*
X0092879Y0060165D01*
X0093167Y0060860D01*
X0093189Y0060882D01*
X0100276Y0060882D01*
X0101457Y0059701D01*
X0101457Y0055475D01*
X0101253Y0055678D01*
X0100624Y0056135D01*
X0099930Y0056489D01*
X0099190Y0056729D01*
X0098431Y0056849D01*
X0098431Y0052306D01*
X0097631Y0052306D01*
X0097631Y0056849D01*
X0096873Y0056729D01*
X0096133Y0056489D01*
X0095439Y0056135D01*
X0094810Y0055678D01*
X0094259Y0055127D01*
X0093802Y0054498D01*
X0093448Y0053804D01*
X0093208Y0053064D01*
X0093088Y0052305D01*
X0097631Y0052305D01*
X0097631Y0051506D01*
X0093088Y0051506D01*
X0093208Y0050747D01*
X0093448Y0050007D01*
X0093802Y0049313D01*
X0094259Y0048684D01*
X0094810Y0048133D01*
X0095439Y0047676D01*
X0096133Y0047322D01*
X0096873Y0047082D01*
X0097631Y0046962D01*
X0097631Y0051505D01*
X0098431Y0051505D01*
X0098431Y0046962D01*
X0099190Y0047082D01*
X0099930Y0047322D01*
X0100624Y0047676D01*
X0101253Y0048133D01*
X0101457Y0048336D01*
X0101457Y0043953D01*
X0098307Y0040803D01*
X0038465Y0040803D01*
X0036496Y0042772D01*
X0036496Y0045921D01*
X0040827Y0050252D01*
X0040428Y0049853D02*
X0057297Y0049853D01*
X0057016Y0049055D02*
X0039630Y0049055D01*
X0038831Y0048256D02*
X0061293Y0048256D01*
X0061293Y0047458D02*
X0062093Y0047458D01*
X0062093Y0047490D02*
X0062093Y0043085D01*
X0062819Y0043200D01*
X0063538Y0043434D01*
X0064213Y0043778D01*
X0064825Y0044223D01*
X0065360Y0044758D01*
X0065805Y0045370D01*
X0066149Y0046044D01*
X0066382Y0046764D01*
X0066497Y0047490D01*
X0062093Y0047490D01*
X0062093Y0048256D02*
X0094686Y0048256D01*
X0093989Y0049055D02*
X0066370Y0049055D01*
X0066088Y0049853D02*
X0093526Y0049853D01*
X0093239Y0050652D02*
X0067998Y0050652D01*
X0068797Y0051450D02*
X0093096Y0051450D01*
X0093205Y0053047D02*
X0070394Y0053047D01*
X0069595Y0052249D02*
X0097631Y0052249D01*
X0097631Y0053047D02*
X0098431Y0053047D01*
X0098431Y0053846D02*
X0097631Y0053846D01*
X0097631Y0054644D02*
X0098431Y0054644D01*
X0098431Y0055443D02*
X0097631Y0055443D01*
X0097631Y0056241D02*
X0098431Y0056241D01*
X0100415Y0056241D02*
X0101457Y0056241D01*
X0101457Y0057040D02*
X0089347Y0057040D01*
X0088549Y0056241D02*
X0095648Y0056241D01*
X0094575Y0055443D02*
X0087750Y0055443D01*
X0086952Y0054644D02*
X0093908Y0054644D01*
X0093470Y0053846D02*
X0071192Y0053846D01*
X0066492Y0047458D02*
X0095867Y0047458D01*
X0097631Y0047458D02*
X0098431Y0047458D01*
X0098431Y0048256D02*
X0097631Y0048256D01*
X0097631Y0049055D02*
X0098431Y0049055D01*
X0098431Y0049853D02*
X0097631Y0049853D01*
X0097631Y0050652D02*
X0098431Y0050652D01*
X0098431Y0051450D02*
X0097631Y0051450D01*
X0100196Y0047458D02*
X0101457Y0047458D01*
X0101457Y0048256D02*
X0101377Y0048256D01*
X0101457Y0046659D02*
X0066348Y0046659D01*
X0066055Y0045861D02*
X0101457Y0045861D01*
X0101457Y0045062D02*
X0065582Y0045062D01*
X0064866Y0044264D02*
X0101457Y0044264D01*
X0100969Y0043465D02*
X0063600Y0043465D01*
X0062093Y0043465D02*
X0061293Y0043465D01*
X0061293Y0044264D02*
X0062093Y0044264D01*
X0062093Y0045062D02*
X0061293Y0045062D01*
X0061293Y0045861D02*
X0062093Y0045861D01*
X0062093Y0046659D02*
X0061293Y0046659D01*
X0058519Y0044264D02*
X0036496Y0044264D01*
X0036496Y0045062D02*
X0057804Y0045062D01*
X0057331Y0045861D02*
X0036496Y0045861D01*
X0037234Y0046659D02*
X0057037Y0046659D01*
X0056894Y0047458D02*
X0038033Y0047458D01*
X0036496Y0043465D02*
X0059786Y0043465D01*
X0038198Y0041070D02*
X0098574Y0041070D01*
X0099372Y0041868D02*
X0037399Y0041868D01*
X0036601Y0042667D02*
X0100171Y0042667D01*
X0101457Y0057839D02*
X0090146Y0057839D01*
X0090944Y0058637D02*
X0101457Y0058637D01*
X0101457Y0059436D02*
X0092150Y0059436D01*
X0092908Y0060234D02*
X0100923Y0060234D01*
D18*
X0018626Y0024416D02*
X0007537Y0035123D01*
X0007500Y0035685D01*
X0007500Y0099960D01*
X0008164Y0099296D01*
X0009432Y0098770D01*
X0010804Y0098770D01*
X0012072Y0099296D01*
X0013043Y0100266D01*
X0013568Y0101534D01*
X0013568Y0102907D01*
X0013043Y0104175D01*
X0012072Y0105145D01*
X0010804Y0105670D01*
X0009432Y0105670D01*
X0008164Y0105145D01*
X0007500Y0104481D01*
X0007500Y0126236D01*
X0007537Y0126805D01*
X0018211Y0137478D01*
X0018779Y0137516D01*
X0086670Y0137516D01*
X0086196Y0136371D01*
X0086196Y0134999D01*
X0086721Y0133731D01*
X0087691Y0132760D01*
X0088959Y0132235D01*
X0090332Y0132235D01*
X0091600Y0132760D01*
X0092570Y0133731D01*
X0093096Y0134999D01*
X0093096Y0136371D01*
X0092622Y0137516D01*
X0095725Y0137516D01*
X0095251Y0136371D01*
X0095251Y0134999D01*
X0095776Y0133731D01*
X0096747Y0132760D01*
X0098015Y0132235D01*
X0099387Y0132235D01*
X0100655Y0132760D01*
X0101626Y0133731D01*
X0102151Y0134999D01*
X0102151Y0136371D01*
X0101677Y0137516D01*
X0104780Y0137516D01*
X0104306Y0136371D01*
X0104306Y0134999D01*
X0104831Y0133731D01*
X0105802Y0132760D01*
X0107070Y0132235D01*
X0108442Y0132235D01*
X0109710Y0132760D01*
X0110681Y0133731D01*
X0111206Y0134999D01*
X0111206Y0136371D01*
X0110732Y0137516D01*
X0113835Y0137516D01*
X0113361Y0136371D01*
X0113361Y0134999D01*
X0113886Y0133731D01*
X0114857Y0132760D01*
X0116125Y0132235D01*
X0117497Y0132235D01*
X0118765Y0132760D01*
X0119736Y0133731D01*
X0120261Y0134999D01*
X0120261Y0136371D01*
X0119787Y0137516D01*
X0128796Y0137516D01*
X0128322Y0136371D01*
X0128322Y0134999D01*
X0128847Y0133731D01*
X0129817Y0132760D01*
X0131085Y0132235D01*
X0132458Y0132235D01*
X0133726Y0132760D01*
X0134696Y0133731D01*
X0135222Y0134999D01*
X0135222Y0136371D01*
X0134748Y0137516D01*
X0232660Y0137516D01*
X0232390Y0137246D01*
X0231865Y0135978D01*
X0231865Y0134605D01*
X0231945Y0134412D01*
X0230824Y0135533D01*
X0228961Y0136305D01*
X0226945Y0136305D01*
X0225082Y0135533D01*
X0223656Y0134107D01*
X0222953Y0132410D01*
X0222250Y0134107D01*
X0220824Y0135533D01*
X0218961Y0136305D01*
X0216945Y0136305D01*
X0215082Y0135533D01*
X0213656Y0134107D01*
X0212884Y0132244D01*
X0212884Y0130228D01*
X0213656Y0128365D01*
X0215082Y0126939D01*
X0216779Y0126236D01*
X0215082Y0125533D01*
X0213656Y0124107D01*
X0212884Y0122244D01*
X0212884Y0120228D01*
X0213656Y0118365D01*
X0215082Y0116939D01*
X0216779Y0116236D01*
X0215082Y0115533D01*
X0213656Y0114107D01*
X0212884Y0112244D01*
X0212884Y0110228D01*
X0213656Y0108365D01*
X0215082Y0106939D01*
X0216945Y0106168D01*
X0218961Y0106168D01*
X0220824Y0106939D01*
X0222250Y0108365D01*
X0222953Y0110063D01*
X0223656Y0108365D01*
X0225082Y0106939D01*
X0226945Y0106168D01*
X0228961Y0106168D01*
X0230824Y0106939D01*
X0232250Y0108365D01*
X0233021Y0110228D01*
X0233021Y0112244D01*
X0232250Y0114107D01*
X0230824Y0115533D01*
X0229126Y0116236D01*
X0230824Y0116939D01*
X0232250Y0118365D01*
X0233021Y0120228D01*
X0233021Y0122244D01*
X0232250Y0124107D01*
X0230824Y0125533D01*
X0229126Y0126236D01*
X0230824Y0126939D01*
X0232250Y0128365D01*
X0233021Y0130228D01*
X0233021Y0132244D01*
X0232695Y0133032D01*
X0233361Y0132367D01*
X0234629Y0131841D01*
X0236001Y0131841D01*
X0237269Y0132367D01*
X0238240Y0133337D01*
X0238765Y0134605D01*
X0238765Y0135978D01*
X0238240Y0137246D01*
X0237970Y0137516D01*
X0247126Y0137516D01*
X0248101Y0137452D01*
X0258395Y0126395D01*
X0258406Y0126236D01*
X0258406Y0117080D01*
X0258135Y0117350D01*
X0256867Y0117875D01*
X0255495Y0117875D01*
X0254227Y0117350D01*
X0253256Y0116379D01*
X0252731Y0115111D01*
X0252731Y0113739D01*
X0253256Y0112471D01*
X0254227Y0111500D01*
X0255495Y0110975D01*
X0256867Y0110975D01*
X0258135Y0111500D01*
X0258406Y0111771D01*
X0258406Y0080043D01*
X0257298Y0081150D01*
X0255424Y0081927D01*
X0253395Y0081927D01*
X0251521Y0081150D01*
X0250086Y0079716D01*
X0249309Y0077841D01*
X0249309Y0075812D01*
X0250086Y0073938D01*
X0251521Y0072503D01*
X0253395Y0071727D01*
X0255424Y0071727D01*
X0257298Y0072503D01*
X0258406Y0073610D01*
X0258406Y0065899D01*
X0258135Y0066169D01*
X0256867Y0066694D01*
X0255495Y0066694D01*
X0254227Y0066169D01*
X0253256Y0065198D01*
X0252731Y0063930D01*
X0252731Y0062558D01*
X0253256Y0061290D01*
X0254227Y0060319D01*
X0255495Y0059794D01*
X0256867Y0059794D01*
X0258135Y0060319D01*
X0258406Y0060589D01*
X0258406Y0054453D01*
X0257298Y0055560D01*
X0255424Y0056336D01*
X0253395Y0056336D01*
X0251521Y0055560D01*
X0250086Y0054125D01*
X0249309Y0052251D01*
X0249309Y0050222D01*
X0250086Y0048347D01*
X0251521Y0046913D01*
X0253395Y0046136D01*
X0255424Y0046136D01*
X0257298Y0046913D01*
X0258406Y0048020D01*
X0258406Y0035685D01*
X0258396Y0035538D01*
X0247273Y0024415D01*
X0247126Y0024405D01*
X0208319Y0024405D01*
X0208529Y0024493D01*
X0209500Y0025463D01*
X0210025Y0026731D01*
X0210025Y0028104D01*
X0209500Y0029372D01*
X0208529Y0030342D01*
X0207261Y0030867D01*
X0205889Y0030867D01*
X0204621Y0030342D01*
X0203650Y0029372D01*
X0203125Y0028104D01*
X0203125Y0026731D01*
X0203650Y0025463D01*
X0204621Y0024493D01*
X0204831Y0024405D01*
X0194984Y0024405D01*
X0195458Y0025550D01*
X0195458Y0026922D01*
X0194933Y0028190D01*
X0193962Y0029161D01*
X0192694Y0029686D01*
X0191322Y0029686D01*
X0190054Y0029161D01*
X0189083Y0028190D01*
X0188558Y0026922D01*
X0188558Y0025550D01*
X0189032Y0024405D01*
X0181841Y0024405D01*
X0182460Y0024662D01*
X0183897Y0026099D01*
X0184675Y0027976D01*
X0184675Y0030008D01*
X0183897Y0031885D01*
X0182460Y0033322D01*
X0180843Y0033992D01*
X0182460Y0034662D01*
X0183897Y0036099D01*
X0184675Y0037976D01*
X0184675Y0040008D01*
X0183897Y0041885D01*
X0182460Y0043322D01*
X0180583Y0044100D01*
X0178551Y0044100D01*
X0176674Y0043322D01*
X0175237Y0041885D01*
X0174567Y0040269D01*
X0173897Y0041885D01*
X0172460Y0043322D01*
X0170583Y0044100D01*
X0168551Y0044100D01*
X0166674Y0043322D01*
X0165237Y0041885D01*
X0164459Y0040008D01*
X0164459Y0037976D01*
X0165237Y0036099D01*
X0166674Y0034662D01*
X0168551Y0033884D01*
X0170583Y0033884D01*
X0172460Y0034662D01*
X0173897Y0036099D01*
X0174567Y0037716D01*
X0175237Y0036099D01*
X0176674Y0034662D01*
X0178290Y0033992D01*
X0176674Y0033322D01*
X0175237Y0031885D01*
X0174459Y0030008D01*
X0174459Y0027976D01*
X0175237Y0026099D01*
X0176674Y0024662D01*
X0177293Y0024405D01*
X0171333Y0024405D01*
X0171451Y0024444D01*
X0172139Y0024795D01*
X0172764Y0025249D01*
X0173310Y0025795D01*
X0173765Y0026420D01*
X0174115Y0027108D01*
X0174354Y0027843D01*
X0174457Y0028492D01*
X0170067Y0028492D01*
X0170067Y0029492D01*
X0174457Y0029492D01*
X0174354Y0030141D01*
X0174115Y0030876D01*
X0173765Y0031564D01*
X0173310Y0032189D01*
X0172764Y0032736D01*
X0172139Y0033190D01*
X0171451Y0033540D01*
X0170716Y0033779D01*
X0170067Y0033882D01*
X0170067Y0029492D01*
X0169067Y0029492D01*
X0169067Y0028492D01*
X0164677Y0028492D01*
X0164780Y0027843D01*
X0165019Y0027108D01*
X0165369Y0026420D01*
X0165823Y0025795D01*
X0166370Y0025249D01*
X0166995Y0024795D01*
X0167683Y0024444D01*
X0167801Y0024405D01*
X0159944Y0024405D01*
X0160418Y0025550D01*
X0160418Y0026922D01*
X0159893Y0028190D01*
X0158923Y0029161D01*
X0157655Y0029686D01*
X0156282Y0029686D01*
X0155014Y0029161D01*
X0154044Y0028190D01*
X0153519Y0026922D01*
X0153519Y0025550D01*
X0153993Y0024405D01*
X0144196Y0024405D01*
X0144670Y0025550D01*
X0144670Y0026922D01*
X0144145Y0028190D01*
X0143175Y0029161D01*
X0141907Y0029686D01*
X0140534Y0029686D01*
X0139266Y0029161D01*
X0138296Y0028190D01*
X0137770Y0026922D01*
X0137770Y0025550D01*
X0138245Y0024405D01*
X0129236Y0024405D01*
X0129710Y0025550D01*
X0129710Y0026922D01*
X0129185Y0028190D01*
X0128214Y0029161D01*
X0126946Y0029686D01*
X0125574Y0029686D01*
X0124306Y0029161D01*
X0123335Y0028190D01*
X0122810Y0026922D01*
X0122810Y0025550D01*
X0123284Y0024405D01*
X0084140Y0024405D01*
X0085301Y0024886D01*
X0086271Y0025857D01*
X0086796Y0027125D01*
X0086796Y0028497D01*
X0086271Y0029765D01*
X0085301Y0030736D01*
X0084033Y0031261D01*
X0082660Y0031261D01*
X0081392Y0030736D01*
X0080422Y0029765D01*
X0079896Y0028497D01*
X0079896Y0027125D01*
X0080422Y0025857D01*
X0081392Y0024886D01*
X0082553Y0024405D01*
X0066544Y0024405D01*
X0066717Y0024579D01*
X0067549Y0026587D01*
X0067549Y0028760D01*
X0066717Y0030767D01*
X0065181Y0032304D01*
X0063173Y0033135D01*
X0061000Y0033135D01*
X0058993Y0032304D01*
X0057456Y0030767D01*
X0056624Y0028760D01*
X0056624Y0026587D01*
X0057456Y0024579D01*
X0057630Y0024405D01*
X0040559Y0024405D01*
X0040733Y0024579D01*
X0041565Y0026587D01*
X0041565Y0028760D01*
X0040733Y0030767D01*
X0039196Y0032304D01*
X0037189Y0033135D01*
X0035016Y0033135D01*
X0033008Y0032304D01*
X0031472Y0030767D01*
X0030640Y0028760D01*
X0030640Y0026587D01*
X0031472Y0024579D01*
X0031645Y0024405D01*
X0018780Y0024405D01*
X0018626Y0024416D01*
X0018124Y0024901D02*
X0031338Y0024901D01*
X0030925Y0025900D02*
X0017089Y0025900D01*
X0016055Y0026898D02*
X0030640Y0026898D01*
X0030640Y0027897D02*
X0020655Y0027897D01*
X0020354Y0027772D02*
X0023262Y0028976D01*
X0025488Y0031202D01*
X0026693Y0034111D01*
X0026693Y0037259D01*
X0025488Y0040168D01*
X0023262Y0042394D01*
X0020354Y0043598D01*
X0017205Y0043598D01*
X0014297Y0042394D01*
X0012071Y0040168D01*
X0010866Y0037259D01*
X0010866Y0034111D01*
X0012071Y0031202D01*
X0014297Y0028976D01*
X0017205Y0027772D01*
X0020354Y0027772D01*
X0023066Y0028895D02*
X0030696Y0028895D01*
X0031110Y0029894D02*
X0024179Y0029894D01*
X0025178Y0030892D02*
X0031597Y0030892D01*
X0032595Y0031891D02*
X0025773Y0031891D01*
X0026187Y0032889D02*
X0034421Y0032889D01*
X0037783Y0032889D02*
X0060406Y0032889D01*
X0058579Y0031891D02*
X0039610Y0031891D01*
X0040608Y0030892D02*
X0057581Y0030892D01*
X0057094Y0029894D02*
X0041095Y0029894D01*
X0041508Y0028895D02*
X0056680Y0028895D01*
X0056624Y0027897D02*
X0041565Y0027897D01*
X0041565Y0026898D02*
X0056624Y0026898D01*
X0056909Y0025900D02*
X0041280Y0025900D01*
X0040866Y0024901D02*
X0057323Y0024901D01*
X0066851Y0024901D02*
X0081377Y0024901D01*
X0080404Y0025900D02*
X0067264Y0025900D01*
X0067549Y0026898D02*
X0079990Y0026898D01*
X0079896Y0027897D02*
X0067549Y0027897D01*
X0067493Y0028895D02*
X0080061Y0028895D01*
X0080550Y0029894D02*
X0067079Y0029894D01*
X0066592Y0030892D02*
X0081770Y0030892D01*
X0084923Y0030892D02*
X0165027Y0030892D01*
X0165019Y0030876D02*
X0164780Y0030141D01*
X0164677Y0029492D01*
X0169067Y0029492D01*
X0169067Y0033882D01*
X0168418Y0033779D01*
X0167683Y0033540D01*
X0166995Y0033190D01*
X0166370Y0032736D01*
X0165823Y0032189D01*
X0165369Y0031564D01*
X0165019Y0030876D01*
X0164741Y0029894D02*
X0086143Y0029894D01*
X0086632Y0028895D02*
X0124040Y0028895D01*
X0123213Y0027897D02*
X0086796Y0027897D01*
X0086703Y0026898D02*
X0122810Y0026898D01*
X0122810Y0025900D02*
X0086289Y0025900D01*
X0085316Y0024901D02*
X0123079Y0024901D01*
X0129441Y0024901D02*
X0138039Y0024901D01*
X0137770Y0025900D02*
X0129710Y0025900D01*
X0129710Y0026898D02*
X0137770Y0026898D01*
X0138174Y0027897D02*
X0129306Y0027897D01*
X0128480Y0028895D02*
X0139000Y0028895D01*
X0143441Y0028895D02*
X0154748Y0028895D01*
X0153922Y0027897D02*
X0144267Y0027897D01*
X0144670Y0026898D02*
X0153519Y0026898D01*
X0153519Y0025900D02*
X0144670Y0025900D01*
X0144402Y0024901D02*
X0153787Y0024901D01*
X0159189Y0028895D02*
X0169067Y0028895D01*
X0169067Y0029894D02*
X0170067Y0029894D01*
X0170067Y0030892D02*
X0169067Y0030892D01*
X0169067Y0031891D02*
X0170067Y0031891D01*
X0170067Y0032889D02*
X0169067Y0032889D01*
X0168543Y0033888D02*
X0136822Y0033888D01*
X0136482Y0033548D02*
X0137452Y0034518D01*
X0137978Y0035786D01*
X0137978Y0037159D01*
X0137452Y0038427D01*
X0136482Y0039397D01*
X0135214Y0039922D01*
X0133841Y0039922D01*
X0132573Y0039397D01*
X0131603Y0038427D01*
X0131078Y0037159D01*
X0131078Y0035786D01*
X0131603Y0034518D01*
X0132573Y0033548D01*
X0133841Y0033022D01*
X0135214Y0033022D01*
X0136482Y0033548D01*
X0137605Y0034886D02*
X0166449Y0034886D01*
X0165451Y0035885D02*
X0144526Y0035885D01*
X0144269Y0035778D02*
X0145537Y0036304D01*
X0146507Y0037274D01*
X0147033Y0038542D01*
X0147033Y0039915D01*
X0146507Y0041183D01*
X0145537Y0042153D01*
X0144269Y0042678D01*
X0142896Y0042678D01*
X0141628Y0042153D01*
X0140658Y0041183D01*
X0140133Y0039915D01*
X0140133Y0038542D01*
X0140658Y0037274D01*
X0141628Y0036304D01*
X0142896Y0035778D01*
X0144269Y0035778D01*
X0142640Y0035885D02*
X0137978Y0035885D01*
X0137978Y0036883D02*
X0141049Y0036883D01*
X0140406Y0037882D02*
X0137678Y0037882D01*
X0136999Y0038880D02*
X0140133Y0038880D01*
X0140133Y0039879D02*
X0135319Y0039879D01*
X0133736Y0039879D02*
X0100352Y0039879D01*
X0099354Y0038880D02*
X0132056Y0038880D01*
X0131377Y0037882D02*
X0072165Y0037882D01*
X0072309Y0037822D02*
X0071041Y0038348D01*
X0069668Y0038348D01*
X0068400Y0037822D01*
X0067430Y0036852D01*
X0066904Y0035584D01*
X0066904Y0034211D01*
X0067430Y0032943D01*
X0068400Y0031973D01*
X0069668Y0031448D01*
X0071041Y0031448D01*
X0072309Y0031973D01*
X0073279Y0032943D01*
X0073804Y0034211D01*
X0073804Y0035584D01*
X0073279Y0036852D01*
X0072309Y0037822D01*
X0073248Y0036883D02*
X0131078Y0036883D01*
X0131078Y0035885D02*
X0073680Y0035885D01*
X0073804Y0034886D02*
X0131450Y0034886D01*
X0132233Y0033888D02*
X0073670Y0033888D01*
X0073225Y0032889D02*
X0166581Y0032889D01*
X0165606Y0031891D02*
X0072110Y0031891D01*
X0068599Y0031891D02*
X0065594Y0031891D01*
X0063768Y0032889D02*
X0067484Y0032889D01*
X0067038Y0033888D02*
X0026600Y0033888D01*
X0026693Y0034886D02*
X0066904Y0034886D01*
X0067029Y0035885D02*
X0026693Y0035885D01*
X0026693Y0036883D02*
X0067461Y0036883D01*
X0068543Y0037882D02*
X0026435Y0037882D01*
X0026021Y0038880D02*
X0037418Y0038880D01*
X0037595Y0038703D02*
X0099177Y0038703D01*
X0102327Y0041853D01*
X0103557Y0043083D01*
X0103557Y0049001D01*
X0103584Y0048934D01*
X0105060Y0047458D01*
X0106988Y0046660D01*
X0109075Y0046660D01*
X0111003Y0047458D01*
X0112479Y0048934D01*
X0113277Y0050862D01*
X0113277Y0052949D01*
X0112479Y0054877D01*
X0111003Y0056353D01*
X0109075Y0057151D01*
X0106988Y0057151D01*
X0105060Y0056353D01*
X0103584Y0054877D01*
X0103557Y0054810D01*
X0103557Y0060571D01*
X0102327Y0061801D01*
X0101145Y0062982D01*
X0097343Y0062982D01*
X0097820Y0064133D01*
X0097820Y0065505D01*
X0097295Y0066773D01*
X0096324Y0067744D01*
X0095056Y0068269D01*
X0093684Y0068269D01*
X0093489Y0068188D01*
X0093489Y0068655D01*
X0092964Y0069923D01*
X0091994Y0070893D01*
X0090726Y0071418D01*
X0089353Y0071418D01*
X0088085Y0070893D01*
X0087677Y0070485D01*
X0087269Y0070893D01*
X0086001Y0071418D01*
X0084629Y0071418D01*
X0083361Y0070893D01*
X0082953Y0070485D01*
X0082545Y0070893D01*
X0081277Y0071418D01*
X0079904Y0071418D01*
X0078636Y0070893D01*
X0077666Y0069923D01*
X0077141Y0068655D01*
X0077141Y0067282D01*
X0077666Y0066014D01*
X0078636Y0065044D01*
X0079904Y0064519D01*
X0081277Y0064519D01*
X0082545Y0065044D01*
X0082953Y0065452D01*
X0083361Y0065044D01*
X0084629Y0064519D01*
X0086001Y0064519D01*
X0087269Y0065044D01*
X0087677Y0065452D01*
X0088085Y0065044D01*
X0088153Y0065016D01*
X0088085Y0064988D01*
X0087115Y0064017D01*
X0086589Y0062749D01*
X0086589Y0061377D01*
X0087115Y0060109D01*
X0088085Y0059138D01*
X0088361Y0059024D01*
X0085626Y0056289D01*
X0083103Y0056289D01*
X0083253Y0056652D01*
X0083253Y0058025D01*
X0082728Y0059293D01*
X0081757Y0060263D01*
X0080489Y0060789D01*
X0079117Y0060789D01*
X0077849Y0060263D01*
X0076878Y0059293D01*
X0076353Y0058025D01*
X0076353Y0056652D01*
X0076504Y0056289D01*
X0070666Y0056289D01*
X0066729Y0052352D01*
X0064268Y0052352D01*
X0062709Y0052998D01*
X0060677Y0052998D01*
X0059118Y0052352D01*
X0039957Y0052352D01*
X0035626Y0048021D01*
X0035626Y0048021D01*
X0034396Y0046791D01*
X0034396Y0041902D01*
X0036365Y0039933D01*
X0037595Y0038703D01*
X0036419Y0039879D02*
X0025608Y0039879D01*
X0024779Y0040877D02*
X0035421Y0040877D01*
X0034422Y0041876D02*
X0023780Y0041876D01*
X0022102Y0042874D02*
X0034396Y0042874D01*
X0034396Y0043873D02*
X0007500Y0043873D01*
X0007500Y0044871D02*
X0034396Y0044871D01*
X0034396Y0045870D02*
X0007500Y0045870D01*
X0007500Y0046868D02*
X0034473Y0046868D01*
X0035472Y0047867D02*
X0007500Y0047867D01*
X0007500Y0048865D02*
X0036470Y0048865D01*
X0037469Y0049864D02*
X0023748Y0049864D01*
X0024277Y0050083D02*
X0025248Y0051054D01*
X0025773Y0052322D01*
X0025773Y0053694D01*
X0025248Y0054962D01*
X0024277Y0055933D01*
X0023009Y0056458D01*
X0021637Y0056458D01*
X0020369Y0055933D01*
X0019398Y0054962D01*
X0018873Y0053694D01*
X0018873Y0052322D01*
X0019398Y0051054D01*
X0020369Y0050083D01*
X0021637Y0049558D01*
X0023009Y0049558D01*
X0024277Y0050083D01*
X0025056Y0050862D02*
X0038467Y0050862D01*
X0039466Y0051861D02*
X0025582Y0051861D01*
X0025773Y0052859D02*
X0060343Y0052859D01*
X0058838Y0054191D02*
X0060313Y0055666D01*
X0061112Y0057594D01*
X0061112Y0059681D01*
X0060313Y0061609D01*
X0058838Y0063085D01*
X0057503Y0063638D01*
X0058838Y0064191D01*
X0060313Y0065666D01*
X0061112Y0067594D01*
X0061112Y0069681D01*
X0060313Y0071609D01*
X0058838Y0073085D01*
X0056910Y0073883D01*
X0054823Y0073883D01*
X0052895Y0073085D01*
X0051419Y0071609D01*
X0050620Y0069681D01*
X0050620Y0067594D01*
X0051419Y0065666D01*
X0052895Y0064191D01*
X0054230Y0063638D01*
X0052895Y0063085D01*
X0051419Y0061609D01*
X0050620Y0059681D01*
X0050620Y0057594D01*
X0051419Y0055666D01*
X0052895Y0054191D01*
X0054823Y0053392D01*
X0056910Y0053392D01*
X0058838Y0054191D01*
X0058034Y0053858D02*
X0068234Y0053858D01*
X0067236Y0052859D02*
X0063043Y0052859D01*
X0060391Y0055855D02*
X0070232Y0055855D01*
X0069233Y0054856D02*
X0059503Y0054856D01*
X0060805Y0056853D02*
X0076353Y0056853D01*
X0076353Y0057852D02*
X0061112Y0057852D01*
X0061112Y0058850D02*
X0076695Y0058850D01*
X0077434Y0059849D02*
X0061042Y0059849D01*
X0060629Y0060847D02*
X0086809Y0060847D01*
X0086589Y0061846D02*
X0060076Y0061846D01*
X0059078Y0062844D02*
X0086629Y0062844D01*
X0087042Y0063843D02*
X0057998Y0063843D01*
X0059488Y0064841D02*
X0067815Y0064841D01*
X0068006Y0064650D02*
X0067036Y0065621D01*
X0066511Y0066889D01*
X0066511Y0068261D01*
X0067036Y0069529D01*
X0068006Y0070500D01*
X0068085Y0070532D01*
X0068085Y0071411D01*
X0068611Y0072679D01*
X0069581Y0073649D01*
X0070849Y0074174D01*
X0072222Y0074174D01*
X0073490Y0073649D01*
X0074460Y0072679D01*
X0074985Y0071411D01*
X0074985Y0070695D01*
X0075458Y0070500D01*
X0076429Y0069529D01*
X0076954Y0068261D01*
X0076954Y0066889D01*
X0076429Y0065621D01*
X0075458Y0064650D01*
X0074190Y0064125D01*
X0072818Y0064125D01*
X0071732Y0064574D01*
X0070647Y0064125D01*
X0069274Y0064125D01*
X0068006Y0064650D01*
X0066945Y0065840D02*
X0060385Y0065840D01*
X0060799Y0066839D02*
X0066531Y0066839D01*
X0066511Y0067837D02*
X0061112Y0067837D01*
X0061112Y0068836D02*
X0066749Y0068836D01*
X0067341Y0069834D02*
X0061048Y0069834D01*
X0060635Y0070833D02*
X0068085Y0070833D01*
X0068260Y0071831D02*
X0060091Y0071831D01*
X0059093Y0072830D02*
X0068762Y0072830D01*
X0070013Y0073828D02*
X0057043Y0073828D01*
X0055435Y0075417D02*
X0056606Y0076589D01*
X0059756Y0079738D01*
X0059756Y0091632D01*
X0058584Y0092803D01*
X0057403Y0093984D01*
X0015589Y0093984D01*
X0014417Y0092813D01*
X0009693Y0088088D01*
X0009693Y0079738D01*
X0010864Y0078567D01*
X0014014Y0075417D01*
X0034352Y0075417D01*
X0033833Y0074167D01*
X0033833Y0072794D01*
X0034359Y0071526D01*
X0035329Y0070556D01*
X0036597Y0070030D01*
X0037970Y0070030D01*
X0039238Y0070556D01*
X0040208Y0071526D01*
X0040733Y0072794D01*
X0040733Y0074167D01*
X0040215Y0075417D01*
X0055435Y0075417D01*
X0055843Y0075825D02*
X0071061Y0075825D01*
X0071143Y0075627D02*
X0072619Y0074151D01*
X0074547Y0073353D01*
X0076634Y0073353D01*
X0078562Y0074151D01*
X0080038Y0075627D01*
X0080591Y0076962D01*
X0081143Y0075627D01*
X0082619Y0074151D01*
X0084547Y0073353D01*
X0086634Y0073353D01*
X0088562Y0074151D01*
X0090038Y0075627D01*
X0090836Y0077555D01*
X0090836Y0079642D01*
X0090038Y0081570D01*
X0088562Y0083045D01*
X0086634Y0083844D01*
X0084547Y0083844D01*
X0082619Y0083045D01*
X0081143Y0081570D01*
X0080591Y0080235D01*
X0080038Y0081570D01*
X0078562Y0083045D01*
X0076634Y0083844D01*
X0074547Y0083844D01*
X0072619Y0083045D01*
X0071143Y0081570D01*
X0070345Y0079642D01*
X0070345Y0077555D01*
X0071143Y0075627D01*
X0071944Y0074827D02*
X0040460Y0074827D01*
X0040733Y0073828D02*
X0054689Y0073828D01*
X0052639Y0072830D02*
X0040733Y0072830D01*
X0040335Y0071831D02*
X0051641Y0071831D01*
X0051097Y0070833D02*
X0039515Y0070833D01*
X0035052Y0070833D02*
X0007500Y0070833D01*
X0007500Y0071831D02*
X0034232Y0071831D01*
X0033833Y0072830D02*
X0007500Y0072830D01*
X0007500Y0073828D02*
X0033833Y0073828D01*
X0034107Y0074827D02*
X0007500Y0074827D01*
X0007500Y0075825D02*
X0013606Y0075825D01*
X0012608Y0076824D02*
X0007500Y0076824D01*
X0007500Y0077822D02*
X0011609Y0077822D01*
X0010611Y0078821D02*
X0007500Y0078821D01*
X0007500Y0079819D02*
X0009693Y0079819D01*
X0009693Y0080818D02*
X0007500Y0080818D01*
X0007500Y0081816D02*
X0009693Y0081816D01*
X0009693Y0082815D02*
X0007500Y0082815D01*
X0007500Y0083813D02*
X0009693Y0083813D01*
X0009693Y0084812D02*
X0007500Y0084812D01*
X0007500Y0085810D02*
X0009693Y0085810D01*
X0009693Y0086809D02*
X0007500Y0086809D01*
X0007500Y0087807D02*
X0009693Y0087807D01*
X0010410Y0088806D02*
X0007500Y0088806D01*
X0007500Y0089804D02*
X0011409Y0089804D01*
X0012407Y0090803D02*
X0007500Y0090803D01*
X0007500Y0091801D02*
X0013406Y0091801D01*
X0014404Y0092800D02*
X0007500Y0092800D01*
X0007500Y0093798D02*
X0015403Y0093798D01*
X0007500Y0094797D02*
X0162131Y0094797D01*
X0162311Y0094361D02*
X0163282Y0093390D01*
X0164550Y0092865D01*
X0165922Y0092865D01*
X0167190Y0093390D01*
X0168161Y0094361D01*
X0168686Y0095629D01*
X0168686Y0097001D01*
X0168443Y0097588D01*
X0168765Y0097721D01*
X0169736Y0098691D01*
X0170261Y0099959D01*
X0170261Y0101332D01*
X0169736Y0102600D01*
X0168765Y0103570D01*
X0167497Y0104096D01*
X0166125Y0104096D01*
X0164857Y0103570D01*
X0164308Y0103022D01*
X0163830Y0104175D01*
X0162860Y0105145D01*
X0161592Y0105670D01*
X0160219Y0105670D01*
X0158951Y0105145D01*
X0157981Y0104175D01*
X0157456Y0102907D01*
X0157456Y0101534D01*
X0157981Y0100266D01*
X0158951Y0099296D01*
X0160219Y0098770D01*
X0161592Y0098770D01*
X0162860Y0099296D01*
X0163409Y0099845D01*
X0163604Y0099373D01*
X0163282Y0099240D01*
X0162311Y0098269D01*
X0161786Y0097001D01*
X0161786Y0095629D01*
X0162311Y0094361D01*
X0162874Y0093798D02*
X0057589Y0093798D01*
X0058588Y0092800D02*
X0198932Y0092800D01*
X0198321Y0092547D02*
X0197351Y0091576D01*
X0196826Y0090308D01*
X0196826Y0088936D01*
X0197351Y0087668D01*
X0198321Y0086697D01*
X0199589Y0086172D01*
X0200962Y0086172D01*
X0202230Y0086697D01*
X0203200Y0087668D01*
X0203726Y0088936D01*
X0203726Y0090308D01*
X0203200Y0091576D01*
X0202230Y0092547D01*
X0200962Y0093072D01*
X0199589Y0093072D01*
X0198321Y0092547D01*
X0197576Y0091801D02*
X0164333Y0091801D01*
X0164435Y0091759D02*
X0163167Y0092285D01*
X0161794Y0092285D01*
X0160526Y0091759D01*
X0159556Y0090789D01*
X0159030Y0089521D01*
X0159030Y0088148D01*
X0159556Y0086880D01*
X0160526Y0085910D01*
X0161794Y0085385D01*
X0163167Y0085385D01*
X0164435Y0085910D01*
X0165405Y0086880D01*
X0165930Y0088148D01*
X0165930Y0089521D01*
X0165405Y0090789D01*
X0164435Y0091759D01*
X0165391Y0090803D02*
X0197030Y0090803D01*
X0196826Y0089804D02*
X0185893Y0089804D01*
X0185608Y0089922D02*
X0184235Y0089922D01*
X0182967Y0089397D01*
X0181996Y0088427D01*
X0181471Y0087159D01*
X0181471Y0085786D01*
X0181996Y0084518D01*
X0182967Y0083548D01*
X0184235Y0083022D01*
X0185608Y0083022D01*
X0186876Y0083548D01*
X0187846Y0084518D01*
X0188371Y0085786D01*
X0188371Y0087159D01*
X0187846Y0088427D01*
X0186876Y0089397D01*
X0185608Y0089922D01*
X0183950Y0089804D02*
X0165813Y0089804D01*
X0165930Y0088806D02*
X0182376Y0088806D01*
X0181740Y0087807D02*
X0165789Y0087807D01*
X0165333Y0086809D02*
X0181471Y0086809D01*
X0181471Y0085810D02*
X0164194Y0085810D01*
X0164741Y0084411D02*
X0163369Y0084411D01*
X0162101Y0083885D01*
X0161130Y0082915D01*
X0160605Y0081647D01*
X0160605Y0080274D01*
X0161130Y0079006D01*
X0162025Y0078112D01*
X0161707Y0077980D01*
X0160737Y0077009D01*
X0160211Y0075741D01*
X0160211Y0074369D01*
X0160737Y0073101D01*
X0161707Y0072130D01*
X0162975Y0071605D01*
X0164348Y0071605D01*
X0165616Y0072130D01*
X0166586Y0073101D01*
X0167111Y0074369D01*
X0167111Y0075741D01*
X0166586Y0077009D01*
X0165691Y0077904D01*
X0166009Y0078036D01*
X0166980Y0079006D01*
X0167505Y0080274D01*
X0167505Y0081647D01*
X0166980Y0082915D01*
X0166009Y0083885D01*
X0164741Y0084411D01*
X0166082Y0083813D02*
X0182701Y0083813D01*
X0181875Y0084812D02*
X0059756Y0084812D01*
X0059756Y0085810D02*
X0160767Y0085810D01*
X0159627Y0086809D02*
X0059756Y0086809D01*
X0059756Y0087807D02*
X0159172Y0087807D01*
X0159030Y0088806D02*
X0059756Y0088806D01*
X0059756Y0089804D02*
X0159148Y0089804D01*
X0159569Y0090803D02*
X0059756Y0090803D01*
X0059586Y0091801D02*
X0160627Y0091801D01*
X0167599Y0093798D02*
X0217741Y0093798D01*
X0218093Y0093652D02*
X0219466Y0093652D01*
X0220734Y0094178D01*
X0221704Y0095148D01*
X0222230Y0096416D01*
X0222230Y0097789D01*
X0221704Y0099057D01*
X0220734Y0100027D01*
X0219466Y0100552D01*
X0218093Y0100552D01*
X0216825Y0100027D01*
X0215855Y0099057D01*
X0215330Y0097789D01*
X0215330Y0096416D01*
X0215855Y0095148D01*
X0216825Y0094178D01*
X0218093Y0093652D01*
X0219818Y0093798D02*
X0258406Y0093798D01*
X0258406Y0092800D02*
X0201619Y0092800D01*
X0202975Y0091801D02*
X0258406Y0091801D01*
X0258406Y0090803D02*
X0203521Y0090803D01*
X0203726Y0089804D02*
X0258406Y0089804D01*
X0258406Y0088806D02*
X0203672Y0088806D01*
X0203258Y0087807D02*
X0258406Y0087807D01*
X0258406Y0086809D02*
X0202341Y0086809D01*
X0198210Y0086809D02*
X0188371Y0086809D01*
X0188371Y0085810D02*
X0258406Y0085810D01*
X0258406Y0084812D02*
X0187968Y0084812D01*
X0187141Y0083813D02*
X0258406Y0083813D01*
X0258406Y0082815D02*
X0245664Y0082815D01*
X0245931Y0082704D02*
X0244663Y0083230D01*
X0243290Y0083230D01*
X0242022Y0082704D01*
X0241052Y0081734D01*
X0240526Y0080466D01*
X0240526Y0080206D01*
X0239582Y0081150D01*
X0237707Y0081927D01*
X0235678Y0081927D01*
X0233804Y0081150D01*
X0232369Y0079716D01*
X0231593Y0077841D01*
X0231593Y0075812D01*
X0232369Y0073938D01*
X0233804Y0072503D01*
X0235678Y0071727D01*
X0237707Y0071727D01*
X0239582Y0072503D01*
X0241016Y0073938D01*
X0241793Y0075812D01*
X0241793Y0077084D01*
X0242022Y0076855D01*
X0243290Y0076330D01*
X0244663Y0076330D01*
X0245931Y0076855D01*
X0246901Y0077825D01*
X0247426Y0079093D01*
X0247426Y0080466D01*
X0246901Y0081734D01*
X0245931Y0082704D01*
X0246819Y0081816D02*
X0253128Y0081816D01*
X0251188Y0080818D02*
X0247281Y0080818D01*
X0247426Y0079819D02*
X0250189Y0079819D01*
X0249715Y0078821D02*
X0247313Y0078821D01*
X0246898Y0077822D02*
X0249309Y0077822D01*
X0249309Y0076824D02*
X0245855Y0076824D01*
X0249309Y0075825D02*
X0241793Y0075825D01*
X0241793Y0076824D02*
X0242097Y0076824D01*
X0241385Y0074827D02*
X0249718Y0074827D01*
X0250196Y0073828D02*
X0240907Y0073828D01*
X0239908Y0072830D02*
X0251194Y0072830D01*
X0253143Y0071831D02*
X0237959Y0071831D01*
X0235427Y0071831D02*
X0206625Y0071831D01*
X0206080Y0071605D02*
X0207348Y0072130D01*
X0208318Y0073101D01*
X0208844Y0074369D01*
X0208844Y0075741D01*
X0208318Y0077009D01*
X0207348Y0077980D01*
X0206080Y0078505D01*
X0204707Y0078505D01*
X0203439Y0077980D01*
X0202469Y0077009D01*
X0201944Y0075741D01*
X0201944Y0074369D01*
X0202469Y0073101D01*
X0203439Y0072130D01*
X0204707Y0071605D01*
X0206080Y0071605D01*
X0204162Y0071831D02*
X0164893Y0071831D01*
X0166315Y0072830D02*
X0202740Y0072830D01*
X0202168Y0073828D02*
X0166887Y0073828D01*
X0167111Y0074827D02*
X0201944Y0074827D01*
X0201978Y0075825D02*
X0167077Y0075825D01*
X0166663Y0076824D02*
X0202392Y0076824D01*
X0203282Y0077822D02*
X0165773Y0077822D01*
X0166794Y0078821D02*
X0212967Y0078821D01*
X0212967Y0078891D02*
X0212967Y0077518D01*
X0213493Y0076250D01*
X0214463Y0075280D01*
X0215731Y0074755D01*
X0217104Y0074755D01*
X0218372Y0075280D01*
X0219342Y0076250D01*
X0219867Y0077518D01*
X0219867Y0078891D01*
X0219342Y0080159D01*
X0218372Y0081129D01*
X0217104Y0081655D01*
X0215731Y0081655D01*
X0214463Y0081129D01*
X0213493Y0080159D01*
X0212967Y0078891D01*
X0213352Y0079819D02*
X0167317Y0079819D01*
X0167505Y0080818D02*
X0214151Y0080818D01*
X0212967Y0077822D02*
X0207506Y0077822D01*
X0208395Y0076824D02*
X0213255Y0076824D01*
X0213918Y0075825D02*
X0208809Y0075825D01*
X0208844Y0074827D02*
X0215558Y0074827D01*
X0217277Y0074827D02*
X0232001Y0074827D01*
X0231593Y0075825D02*
X0218917Y0075825D01*
X0219579Y0076824D02*
X0231593Y0076824D01*
X0231593Y0077822D02*
X0219867Y0077822D01*
X0219867Y0078821D02*
X0231999Y0078821D01*
X0232473Y0079819D02*
X0219483Y0079819D01*
X0218683Y0080818D02*
X0233471Y0080818D01*
X0235412Y0081816D02*
X0167435Y0081816D01*
X0167021Y0082815D02*
X0242289Y0082815D01*
X0241134Y0081816D02*
X0237974Y0081816D01*
X0239914Y0080818D02*
X0240672Y0080818D01*
X0232479Y0073828D02*
X0208620Y0073828D01*
X0208047Y0072830D02*
X0233478Y0072830D01*
X0229878Y0068836D02*
X0258406Y0068836D01*
X0258406Y0069834D02*
X0228707Y0069834D01*
X0229002Y0069712D02*
X0227733Y0070237D01*
X0226361Y0070237D01*
X0225093Y0069712D01*
X0224122Y0068742D01*
X0223597Y0067474D01*
X0223597Y0066101D01*
X0224122Y0064833D01*
X0225093Y0063863D01*
X0226361Y0063337D01*
X0227733Y0063337D01*
X0229002Y0063863D01*
X0229972Y0064833D01*
X0230497Y0066101D01*
X0230497Y0067474D01*
X0229972Y0068742D01*
X0229002Y0069712D01*
X0225387Y0069834D02*
X0136386Y0069834D01*
X0136271Y0069558D02*
X0136796Y0070826D01*
X0136796Y0072198D01*
X0136271Y0073466D01*
X0135301Y0074437D01*
X0134033Y0074962D01*
X0132660Y0074962D01*
X0131575Y0074512D01*
X0130489Y0074962D01*
X0129117Y0074962D01*
X0127849Y0074437D01*
X0126878Y0073466D01*
X0126353Y0072198D01*
X0126353Y0070826D01*
X0126878Y0069558D01*
X0127849Y0068587D01*
X0129117Y0068062D01*
X0130489Y0068062D01*
X0131575Y0068511D01*
X0132660Y0068062D01*
X0134033Y0068062D01*
X0135301Y0068587D01*
X0136271Y0069558D01*
X0135549Y0068836D02*
X0193705Y0068836D01*
X0193794Y0068925D02*
X0192823Y0067954D01*
X0192298Y0066686D01*
X0192298Y0065314D01*
X0192823Y0064046D01*
X0193794Y0063075D01*
X0195062Y0062550D01*
X0196434Y0062550D01*
X0197702Y0063075D01*
X0198673Y0064046D01*
X0199198Y0065314D01*
X0199198Y0066686D01*
X0198673Y0067954D01*
X0197702Y0068925D01*
X0196434Y0069450D01*
X0195062Y0069450D01*
X0193794Y0068925D01*
X0192775Y0067837D02*
X0108533Y0067837D01*
X0108533Y0067740D02*
X0107755Y0065863D01*
X0106319Y0064426D01*
X0104441Y0063648D01*
X0102409Y0063648D01*
X0100532Y0064426D01*
X0099095Y0065863D01*
X0098317Y0067740D01*
X0098317Y0069772D01*
X0099095Y0071649D01*
X0100532Y0073086D01*
X0102409Y0073864D01*
X0104441Y0073864D01*
X0106319Y0073086D01*
X0107755Y0071649D01*
X0108533Y0069772D01*
X0108533Y0067740D01*
X0108160Y0066839D02*
X0192361Y0066839D01*
X0192298Y0065840D02*
X0107733Y0065840D01*
X0106734Y0064841D02*
X0192494Y0064841D01*
X0193026Y0063843D02*
X0125507Y0063843D01*
X0126004Y0063637D02*
X0124126Y0064415D01*
X0122094Y0064415D01*
X0120217Y0063637D01*
X0118780Y0062200D01*
X0118002Y0060323D01*
X0118002Y0058291D01*
X0118780Y0056414D01*
X0120217Y0054977D01*
X0122094Y0054199D01*
X0124126Y0054199D01*
X0126004Y0054977D01*
X0126503Y0055476D01*
X0130090Y0055476D01*
X0130090Y0054476D01*
X0125701Y0054476D01*
X0125804Y0053827D01*
X0126042Y0053092D01*
X0126393Y0052404D01*
X0126847Y0051779D01*
X0127393Y0051233D01*
X0128018Y0050779D01*
X0128707Y0050428D01*
X0129441Y0050189D01*
X0130091Y0050087D01*
X0130091Y0054476D01*
X0131091Y0054476D01*
X0131091Y0055476D01*
X0135480Y0055476D01*
X0135378Y0056126D01*
X0135139Y0056860D01*
X0134788Y0057549D01*
X0134334Y0058174D01*
X0133788Y0058720D01*
X0133163Y0059174D01*
X0132475Y0059525D01*
X0131740Y0059763D01*
X0131091Y0059866D01*
X0131091Y0055476D01*
X0130091Y0055476D01*
X0130091Y0059866D01*
X0129441Y0059763D01*
X0128707Y0059525D01*
X0128218Y0059276D01*
X0128218Y0060323D01*
X0127440Y0062200D01*
X0126004Y0063637D01*
X0126796Y0062844D02*
X0194351Y0062844D01*
X0197145Y0062844D02*
X0252731Y0062844D01*
X0252731Y0063843D02*
X0228954Y0063843D01*
X0229975Y0064841D02*
X0253109Y0064841D01*
X0253898Y0065840D02*
X0230389Y0065840D01*
X0230497Y0066839D02*
X0258406Y0066839D01*
X0258406Y0067837D02*
X0230347Y0067837D01*
X0224216Y0068836D02*
X0197791Y0068836D01*
X0198721Y0067837D02*
X0223748Y0067837D01*
X0223597Y0066839D02*
X0199135Y0066839D01*
X0199198Y0065840D02*
X0223705Y0065840D01*
X0224119Y0064841D02*
X0199002Y0064841D01*
X0198470Y0063843D02*
X0225140Y0063843D01*
X0233804Y0055560D02*
X0232369Y0054125D01*
X0231593Y0052251D01*
X0231593Y0050222D01*
X0232369Y0048347D01*
X0233804Y0046913D01*
X0235678Y0046136D01*
X0237707Y0046136D01*
X0239582Y0046913D01*
X0241016Y0048347D01*
X0241793Y0050222D01*
X0241793Y0052251D01*
X0241016Y0054125D01*
X0239582Y0055560D01*
X0237707Y0056336D01*
X0235678Y0056336D01*
X0233804Y0055560D01*
X0234516Y0055855D02*
X0187923Y0055855D01*
X0187663Y0055595D02*
X0188633Y0056565D01*
X0189159Y0057833D01*
X0189159Y0059206D01*
X0188633Y0060474D01*
X0187663Y0061444D01*
X0186395Y0061970D01*
X0185022Y0061970D01*
X0183754Y0061444D01*
X0182784Y0060474D01*
X0182259Y0059206D01*
X0182259Y0057833D01*
X0182784Y0056565D01*
X0183754Y0055595D01*
X0184523Y0055277D01*
X0183841Y0055277D01*
X0182573Y0054752D01*
X0181603Y0053781D01*
X0181078Y0052513D01*
X0181078Y0051141D01*
X0181603Y0049873D01*
X0182573Y0048902D01*
X0183841Y0048377D01*
X0185214Y0048377D01*
X0186482Y0048902D01*
X0187452Y0049873D01*
X0187978Y0051141D01*
X0187978Y0052513D01*
X0187452Y0053781D01*
X0186482Y0054752D01*
X0185714Y0055070D01*
X0186395Y0055070D01*
X0187663Y0055595D01*
X0186229Y0054856D02*
X0190700Y0054856D01*
X0190447Y0054752D02*
X0189477Y0053781D01*
X0188952Y0052513D01*
X0188952Y0051141D01*
X0189477Y0049873D01*
X0190447Y0048902D01*
X0191715Y0048377D01*
X0193088Y0048377D01*
X0194356Y0048902D01*
X0195326Y0049873D01*
X0195852Y0051141D01*
X0195852Y0052513D01*
X0195326Y0053781D01*
X0194356Y0054752D01*
X0193088Y0055277D01*
X0191715Y0055277D01*
X0190447Y0054752D01*
X0189554Y0053858D02*
X0187375Y0053858D01*
X0187834Y0052859D02*
X0189095Y0052859D01*
X0188952Y0051861D02*
X0187978Y0051861D01*
X0187862Y0050862D02*
X0189067Y0050862D01*
X0189485Y0049864D02*
X0187444Y0049864D01*
X0186393Y0048865D02*
X0190536Y0048865D01*
X0194267Y0048865D02*
X0232155Y0048865D01*
X0231741Y0049864D02*
X0195318Y0049864D01*
X0195736Y0050862D02*
X0231593Y0050862D01*
X0231593Y0051861D02*
X0195852Y0051861D01*
X0195708Y0052859D02*
X0231845Y0052859D01*
X0232259Y0053858D02*
X0195249Y0053858D01*
X0194103Y0054856D02*
X0233101Y0054856D01*
X0238869Y0055855D02*
X0252233Y0055855D01*
X0250817Y0054856D02*
X0240285Y0054856D01*
X0241127Y0053858D02*
X0249975Y0053858D01*
X0249562Y0052859D02*
X0241541Y0052859D01*
X0241793Y0051861D02*
X0249309Y0051861D01*
X0249309Y0050862D02*
X0241793Y0050862D01*
X0241645Y0049864D02*
X0249458Y0049864D01*
X0249871Y0048865D02*
X0241231Y0048865D01*
X0240536Y0047867D02*
X0250566Y0047867D01*
X0251628Y0046868D02*
X0239475Y0046868D01*
X0242643Y0042394D02*
X0240417Y0040168D01*
X0239213Y0037259D01*
X0239213Y0034111D01*
X0240417Y0031202D01*
X0242643Y0028976D01*
X0245552Y0027772D01*
X0248700Y0027772D01*
X0251609Y0028976D01*
X0253835Y0031202D01*
X0255039Y0034111D01*
X0255039Y0037259D01*
X0253835Y0040168D01*
X0251609Y0042394D01*
X0248700Y0043598D01*
X0245552Y0043598D01*
X0242643Y0042394D01*
X0242125Y0041876D02*
X0229710Y0041876D01*
X0229710Y0041298D02*
X0229185Y0040030D01*
X0228214Y0039059D01*
X0226946Y0038534D01*
X0225574Y0038534D01*
X0224306Y0039059D01*
X0223335Y0040030D01*
X0222810Y0041298D01*
X0222810Y0042670D01*
X0223335Y0043939D01*
X0224306Y0044909D01*
X0225574Y0045434D01*
X0226946Y0045434D01*
X0228214Y0044909D01*
X0229185Y0043939D01*
X0229710Y0042670D01*
X0229710Y0041298D01*
X0229536Y0040877D02*
X0241127Y0040877D01*
X0240298Y0039879D02*
X0229033Y0039879D01*
X0227781Y0038880D02*
X0239884Y0038880D01*
X0239470Y0037882D02*
X0184636Y0037882D01*
X0184675Y0038880D02*
X0224738Y0038880D01*
X0223486Y0039879D02*
X0184675Y0039879D01*
X0184315Y0040877D02*
X0222984Y0040877D01*
X0222810Y0041876D02*
X0183901Y0041876D01*
X0182908Y0042874D02*
X0222894Y0042874D01*
X0223308Y0043873D02*
X0181132Y0043873D01*
X0178002Y0043873D02*
X0171132Y0043873D01*
X0172908Y0042874D02*
X0176225Y0042874D01*
X0175233Y0041876D02*
X0173901Y0041876D01*
X0174315Y0040877D02*
X0174819Y0040877D01*
X0168002Y0043873D02*
X0103557Y0043873D01*
X0103557Y0044871D02*
X0224268Y0044871D01*
X0228252Y0044871D02*
X0258406Y0044871D01*
X0258406Y0043873D02*
X0229212Y0043873D01*
X0229625Y0042874D02*
X0243804Y0042874D01*
X0250448Y0042874D02*
X0258406Y0042874D01*
X0258406Y0041876D02*
X0252126Y0041876D01*
X0253125Y0040877D02*
X0258406Y0040877D01*
X0258406Y0039879D02*
X0253954Y0039879D01*
X0254368Y0038880D02*
X0258406Y0038880D01*
X0258406Y0037882D02*
X0254781Y0037882D01*
X0255039Y0036883D02*
X0258406Y0036883D01*
X0258406Y0035885D02*
X0255039Y0035885D01*
X0255039Y0034886D02*
X0257744Y0034886D01*
X0256746Y0033888D02*
X0254947Y0033888D01*
X0254533Y0032889D02*
X0255747Y0032889D01*
X0254749Y0031891D02*
X0254120Y0031891D01*
X0253750Y0030892D02*
X0253524Y0030892D01*
X0252752Y0029894D02*
X0252526Y0029894D01*
X0251753Y0028895D02*
X0251412Y0028895D01*
X0250755Y0027897D02*
X0249002Y0027897D01*
X0249756Y0026898D02*
X0210025Y0026898D01*
X0210025Y0027897D02*
X0245250Y0027897D01*
X0242840Y0028895D02*
X0209697Y0028895D01*
X0208978Y0029894D02*
X0241726Y0029894D01*
X0240728Y0030892D02*
X0184309Y0030892D01*
X0184675Y0029894D02*
X0204172Y0029894D01*
X0203453Y0028895D02*
X0194228Y0028895D01*
X0195054Y0027897D02*
X0203125Y0027897D01*
X0203125Y0026898D02*
X0195458Y0026898D01*
X0195458Y0025900D02*
X0203469Y0025900D01*
X0204212Y0024901D02*
X0195189Y0024901D01*
X0188827Y0024901D02*
X0182699Y0024901D01*
X0183698Y0025900D02*
X0188558Y0025900D01*
X0188558Y0026898D02*
X0184228Y0026898D01*
X0184642Y0027897D02*
X0188961Y0027897D01*
X0189788Y0028895D02*
X0184675Y0028895D01*
X0183892Y0031891D02*
X0240132Y0031891D01*
X0239719Y0032889D02*
X0182894Y0032889D01*
X0182685Y0034886D02*
X0239213Y0034886D01*
X0239213Y0035885D02*
X0183683Y0035885D01*
X0184222Y0036883D02*
X0239213Y0036883D01*
X0239305Y0033888D02*
X0181096Y0033888D01*
X0178038Y0033888D02*
X0170591Y0033888D01*
X0172553Y0032889D02*
X0176240Y0032889D01*
X0175242Y0031891D02*
X0173527Y0031891D01*
X0174107Y0030892D02*
X0174825Y0030892D01*
X0174459Y0029894D02*
X0174393Y0029894D01*
X0174459Y0028895D02*
X0170067Y0028895D01*
X0165747Y0025900D02*
X0160418Y0025900D01*
X0160418Y0026898D02*
X0165126Y0026898D01*
X0164771Y0027897D02*
X0160015Y0027897D01*
X0160150Y0024901D02*
X0166848Y0024901D01*
X0172286Y0024901D02*
X0176434Y0024901D01*
X0175436Y0025900D02*
X0173386Y0025900D01*
X0174008Y0026898D02*
X0174906Y0026898D01*
X0174492Y0027897D02*
X0174362Y0027897D01*
X0172685Y0034886D02*
X0176449Y0034886D01*
X0175451Y0035885D02*
X0173683Y0035885D01*
X0174222Y0036883D02*
X0174912Y0036883D01*
X0165233Y0041876D02*
X0145814Y0041876D01*
X0146634Y0040877D02*
X0164819Y0040877D01*
X0164459Y0039879D02*
X0147033Y0039879D01*
X0147033Y0038880D02*
X0164459Y0038880D01*
X0164498Y0037882D02*
X0146759Y0037882D01*
X0146117Y0036883D02*
X0164912Y0036883D01*
X0166225Y0042874D02*
X0103348Y0042874D01*
X0102350Y0041876D02*
X0141351Y0041876D01*
X0140531Y0040877D02*
X0101351Y0040877D01*
X0103557Y0045870D02*
X0258406Y0045870D01*
X0258406Y0046868D02*
X0257191Y0046868D01*
X0258253Y0047867D02*
X0258406Y0047867D01*
X0258406Y0054856D02*
X0258002Y0054856D01*
X0258406Y0055855D02*
X0256586Y0055855D01*
X0258406Y0056853D02*
X0188753Y0056853D01*
X0189159Y0057852D02*
X0258406Y0057852D01*
X0258406Y0058850D02*
X0189159Y0058850D01*
X0188892Y0059849D02*
X0255362Y0059849D01*
X0257000Y0059849D02*
X0258406Y0059849D01*
X0253699Y0060847D02*
X0188260Y0060847D01*
X0186694Y0061846D02*
X0253026Y0061846D01*
X0258406Y0070833D02*
X0136796Y0070833D01*
X0136796Y0071831D02*
X0162430Y0071831D01*
X0161008Y0072830D02*
X0136535Y0072830D01*
X0135909Y0073828D02*
X0160435Y0073828D01*
X0160211Y0074827D02*
X0134359Y0074827D01*
X0132334Y0074827D02*
X0130816Y0074827D01*
X0128791Y0074827D02*
X0089237Y0074827D01*
X0090120Y0075825D02*
X0160246Y0075825D01*
X0160660Y0076824D02*
X0106923Y0076824D01*
X0106561Y0076461D02*
X0107531Y0077432D01*
X0108056Y0078700D01*
X0108056Y0080072D01*
X0107531Y0081340D01*
X0106561Y0082311D01*
X0105293Y0082836D01*
X0103920Y0082836D01*
X0102652Y0082311D01*
X0101682Y0081340D01*
X0101156Y0080072D01*
X0101156Y0078700D01*
X0101682Y0077432D01*
X0102652Y0076461D01*
X0103920Y0075936D01*
X0105293Y0075936D01*
X0106561Y0076461D01*
X0107693Y0077822D02*
X0131514Y0077822D01*
X0130998Y0078036D02*
X0132266Y0077511D01*
X0133639Y0077511D01*
X0134907Y0078036D01*
X0135878Y0079006D01*
X0136403Y0080274D01*
X0136403Y0081647D01*
X0135878Y0082915D01*
X0134907Y0083885D01*
X0133639Y0084411D01*
X0132266Y0084411D01*
X0130998Y0083885D01*
X0130028Y0082915D01*
X0129503Y0081647D01*
X0129503Y0080274D01*
X0130028Y0079006D01*
X0130998Y0078036D01*
X0130214Y0078821D02*
X0108056Y0078821D01*
X0108056Y0079819D02*
X0129691Y0079819D01*
X0129503Y0080818D02*
X0107747Y0080818D01*
X0107055Y0081816D02*
X0129573Y0081816D01*
X0129987Y0082815D02*
X0105344Y0082815D01*
X0103869Y0082815D02*
X0088793Y0082815D01*
X0089791Y0081816D02*
X0102158Y0081816D01*
X0101465Y0080818D02*
X0090349Y0080818D01*
X0090763Y0079819D02*
X0101156Y0079819D01*
X0101156Y0078821D02*
X0090836Y0078821D01*
X0090836Y0077822D02*
X0101520Y0077822D01*
X0102289Y0076824D02*
X0090533Y0076824D01*
X0087782Y0073828D02*
X0102323Y0073828D01*
X0104527Y0073828D02*
X0127240Y0073828D01*
X0126615Y0072830D02*
X0106575Y0072830D01*
X0107574Y0071831D02*
X0126353Y0071831D01*
X0126353Y0070833D02*
X0108094Y0070833D01*
X0108507Y0069834D02*
X0126764Y0069834D01*
X0127600Y0068836D02*
X0108533Y0068836D01*
X0104912Y0063843D02*
X0120713Y0063843D01*
X0119424Y0062844D02*
X0101283Y0062844D01*
X0101938Y0063843D02*
X0097700Y0063843D01*
X0097820Y0064841D02*
X0100116Y0064841D01*
X0099117Y0065840D02*
X0097681Y0065840D01*
X0097229Y0066839D02*
X0098691Y0066839D01*
X0098317Y0067837D02*
X0096099Y0067837D01*
X0098317Y0068836D02*
X0093414Y0068836D01*
X0093001Y0069834D02*
X0098343Y0069834D01*
X0098757Y0070833D02*
X0092054Y0070833D01*
X0088024Y0070833D02*
X0087330Y0070833D01*
X0083300Y0070833D02*
X0082605Y0070833D01*
X0078576Y0070833D02*
X0074985Y0070833D01*
X0074811Y0071831D02*
X0099277Y0071831D01*
X0100275Y0072830D02*
X0074309Y0072830D01*
X0073400Y0073828D02*
X0073058Y0073828D01*
X0070648Y0076824D02*
X0056841Y0076824D01*
X0057840Y0077822D02*
X0070345Y0077822D01*
X0070345Y0078821D02*
X0058838Y0078821D01*
X0059756Y0079819D02*
X0070418Y0079819D01*
X0070832Y0080818D02*
X0059756Y0080818D01*
X0059756Y0081816D02*
X0071390Y0081816D01*
X0072388Y0082815D02*
X0059756Y0082815D01*
X0059756Y0083813D02*
X0074473Y0083813D01*
X0076709Y0083813D02*
X0084473Y0083813D01*
X0086709Y0083813D02*
X0130926Y0083813D01*
X0134979Y0083813D02*
X0162029Y0083813D01*
X0161089Y0082815D02*
X0135919Y0082815D01*
X0136333Y0081816D02*
X0160675Y0081816D01*
X0160605Y0080818D02*
X0136403Y0080818D01*
X0136214Y0079819D02*
X0160794Y0079819D01*
X0161316Y0078821D02*
X0135692Y0078821D01*
X0134391Y0077822D02*
X0161549Y0077822D01*
X0159623Y0062363D02*
X0158251Y0062363D01*
X0156983Y0061838D01*
X0156012Y0060868D01*
X0155487Y0059600D01*
X0155487Y0058227D01*
X0156012Y0056959D01*
X0156983Y0055989D01*
X0158251Y0055463D01*
X0159623Y0055463D01*
X0160891Y0055989D01*
X0161862Y0056959D01*
X0162387Y0058227D01*
X0162387Y0059600D01*
X0161862Y0060868D01*
X0160891Y0061838D01*
X0159623Y0062363D01*
X0160872Y0061846D02*
X0176850Y0061846D01*
X0177148Y0061970D02*
X0175880Y0061444D01*
X0174910Y0060474D01*
X0174385Y0059206D01*
X0174385Y0057833D01*
X0174910Y0056565D01*
X0175880Y0055595D01*
X0177148Y0055070D01*
X0178521Y0055070D01*
X0179789Y0055595D01*
X0180759Y0056565D01*
X0181285Y0057833D01*
X0181285Y0059206D01*
X0180759Y0060474D01*
X0179789Y0061444D01*
X0178521Y0061970D01*
X0177148Y0061970D01*
X0178820Y0061846D02*
X0184724Y0061846D01*
X0183157Y0060847D02*
X0180386Y0060847D01*
X0181018Y0059849D02*
X0182525Y0059849D01*
X0182259Y0058850D02*
X0181285Y0058850D01*
X0181285Y0057852D02*
X0182259Y0057852D01*
X0182665Y0056853D02*
X0180879Y0056853D01*
X0180049Y0055855D02*
X0183494Y0055855D01*
X0182826Y0054856D02*
X0131091Y0054856D01*
X0131091Y0054476D02*
X0135480Y0054476D01*
X0135378Y0053827D01*
X0135139Y0053092D01*
X0134788Y0052404D01*
X0134334Y0051779D01*
X0133788Y0051233D01*
X0133163Y0050779D01*
X0132475Y0050428D01*
X0131740Y0050189D01*
X0131091Y0050087D01*
X0131091Y0054476D01*
X0131091Y0053858D02*
X0130091Y0053858D01*
X0130090Y0054856D02*
X0125713Y0054856D01*
X0125799Y0053858D02*
X0112901Y0053858D01*
X0113277Y0052859D02*
X0126161Y0052859D01*
X0126788Y0051861D02*
X0113277Y0051861D01*
X0113277Y0050862D02*
X0127903Y0050862D01*
X0130091Y0050862D02*
X0131091Y0050862D01*
X0131091Y0051861D02*
X0130091Y0051861D01*
X0130091Y0052859D02*
X0131091Y0052859D01*
X0133278Y0050862D02*
X0181193Y0050862D01*
X0181078Y0051861D02*
X0134393Y0051861D01*
X0135020Y0052859D02*
X0181221Y0052859D01*
X0181680Y0053858D02*
X0135382Y0053858D01*
X0135420Y0055855D02*
X0157306Y0055855D01*
X0156118Y0056853D02*
X0135141Y0056853D01*
X0134568Y0057852D02*
X0155642Y0057852D01*
X0155487Y0058850D02*
X0133608Y0058850D01*
X0131091Y0058850D02*
X0130091Y0058850D01*
X0130091Y0057852D02*
X0131091Y0057852D01*
X0131091Y0056853D02*
X0130091Y0056853D01*
X0130091Y0055855D02*
X0131091Y0055855D01*
X0131091Y0059849D02*
X0130091Y0059849D01*
X0129981Y0059849D02*
X0128218Y0059849D01*
X0128001Y0060847D02*
X0156004Y0060847D01*
X0155590Y0059849D02*
X0131200Y0059849D01*
X0127587Y0061846D02*
X0157002Y0061846D01*
X0161870Y0060847D02*
X0175283Y0060847D01*
X0174651Y0059849D02*
X0162284Y0059849D01*
X0162387Y0058850D02*
X0174385Y0058850D01*
X0174385Y0057852D02*
X0162232Y0057852D01*
X0161756Y0056853D02*
X0174791Y0056853D01*
X0175620Y0055855D02*
X0160568Y0055855D01*
X0181611Y0049864D02*
X0112864Y0049864D01*
X0112410Y0048865D02*
X0182662Y0048865D01*
X0209680Y0025900D02*
X0248758Y0025900D01*
X0247759Y0024901D02*
X0208938Y0024901D01*
X0233911Y0046868D02*
X0109578Y0046868D01*
X0111411Y0047867D02*
X0232850Y0047867D01*
X0255676Y0071831D02*
X0258406Y0071831D01*
X0258406Y0072830D02*
X0257625Y0072830D01*
X0257631Y0080818D02*
X0258406Y0080818D01*
X0258406Y0081816D02*
X0255691Y0081816D01*
X0258406Y0094797D02*
X0221353Y0094797D01*
X0221972Y0095795D02*
X0258406Y0095795D01*
X0258406Y0096794D02*
X0222230Y0096794D01*
X0222228Y0097792D02*
X0258406Y0097792D01*
X0258406Y0098791D02*
X0221814Y0098791D01*
X0220972Y0099789D02*
X0258406Y0099789D01*
X0258406Y0100788D02*
X0245848Y0100788D01*
X0245537Y0100477D02*
X0246507Y0101447D01*
X0247033Y0102715D01*
X0247033Y0104088D01*
X0246507Y0105356D01*
X0245537Y0106326D01*
X0244269Y0106852D01*
X0242896Y0106852D01*
X0241628Y0106326D01*
X0240658Y0105356D01*
X0240133Y0104088D01*
X0240133Y0102715D01*
X0240658Y0101447D01*
X0241628Y0100477D01*
X0242896Y0099952D01*
X0244269Y0099952D01*
X0245537Y0100477D01*
X0246648Y0101786D02*
X0258406Y0101786D01*
X0258406Y0102785D02*
X0247033Y0102785D01*
X0247033Y0103783D02*
X0258406Y0103783D01*
X0258406Y0104782D02*
X0246745Y0104782D01*
X0246083Y0105780D02*
X0258406Y0105780D01*
X0258406Y0106779D02*
X0244444Y0106779D01*
X0242721Y0106779D02*
X0230437Y0106779D01*
X0231662Y0107777D02*
X0258406Y0107777D01*
X0258406Y0108776D02*
X0232420Y0108776D01*
X0232833Y0109775D02*
X0258406Y0109775D01*
X0258406Y0110773D02*
X0233021Y0110773D01*
X0233021Y0111772D02*
X0253956Y0111772D01*
X0253132Y0112770D02*
X0232804Y0112770D01*
X0232390Y0113769D02*
X0252731Y0113769D01*
X0252731Y0114767D02*
X0231590Y0114767D01*
X0230263Y0115766D02*
X0253002Y0115766D01*
X0253641Y0116764D02*
X0230401Y0116764D01*
X0231647Y0117763D02*
X0255223Y0117763D01*
X0257139Y0117763D02*
X0258406Y0117763D01*
X0258406Y0118761D02*
X0249758Y0118761D01*
X0248700Y0118323D02*
X0251609Y0119528D01*
X0253835Y0121754D01*
X0255039Y0124662D01*
X0255039Y0127810D01*
X0253835Y0130719D01*
X0251609Y0132945D01*
X0248700Y0134150D01*
X0245552Y0134150D01*
X0242643Y0132945D01*
X0240417Y0130719D01*
X0239213Y0127810D01*
X0239213Y0124662D01*
X0240417Y0121754D01*
X0242643Y0119528D01*
X0245552Y0118323D01*
X0248700Y0118323D01*
X0244494Y0118761D02*
X0232414Y0118761D01*
X0232827Y0119760D02*
X0242411Y0119760D01*
X0241413Y0120758D02*
X0233021Y0120758D01*
X0233021Y0121757D02*
X0240416Y0121757D01*
X0240002Y0122755D02*
X0232810Y0122755D01*
X0232396Y0123754D02*
X0239589Y0123754D01*
X0239213Y0124752D02*
X0231605Y0124752D01*
X0230298Y0125751D02*
X0239213Y0125751D01*
X0239213Y0126749D02*
X0230365Y0126749D01*
X0231632Y0127748D02*
X0239213Y0127748D01*
X0239600Y0128746D02*
X0232407Y0128746D01*
X0232821Y0129745D02*
X0240014Y0129745D01*
X0240442Y0130743D02*
X0233021Y0130743D01*
X0233021Y0131742D02*
X0241440Y0131742D01*
X0242439Y0132740D02*
X0237643Y0132740D01*
X0238406Y0133739D02*
X0244560Y0133739D01*
X0249692Y0133739D02*
X0251558Y0133739D01*
X0251813Y0132740D02*
X0252488Y0132740D01*
X0252812Y0131742D02*
X0253417Y0131742D01*
X0253810Y0130743D02*
X0254347Y0130743D01*
X0254238Y0129745D02*
X0255277Y0129745D01*
X0254652Y0128746D02*
X0256206Y0128746D01*
X0257136Y0127748D02*
X0255039Y0127748D01*
X0255039Y0126749D02*
X0258066Y0126749D01*
X0258406Y0125751D02*
X0255039Y0125751D01*
X0255039Y0124752D02*
X0258406Y0124752D01*
X0258406Y0123754D02*
X0254663Y0123754D01*
X0254249Y0122755D02*
X0258406Y0122755D01*
X0258406Y0121757D02*
X0253836Y0121757D01*
X0252839Y0120758D02*
X0258406Y0120758D01*
X0258406Y0119760D02*
X0251841Y0119760D01*
X0241083Y0105780D02*
X0200546Y0105780D01*
X0201049Y0105989D02*
X0202019Y0106959D01*
X0202544Y0108227D01*
X0202544Y0109600D01*
X0202019Y0110868D01*
X0201049Y0111838D01*
X0199781Y0112363D01*
X0198408Y0112363D01*
X0197140Y0111838D01*
X0196170Y0110868D01*
X0195644Y0109600D01*
X0195644Y0108227D01*
X0196170Y0106959D01*
X0197140Y0105989D01*
X0198408Y0105463D01*
X0199781Y0105463D01*
X0201049Y0105989D01*
X0201839Y0106779D02*
X0215469Y0106779D01*
X0214244Y0107777D02*
X0202358Y0107777D01*
X0202544Y0108776D02*
X0213486Y0108776D01*
X0213072Y0109775D02*
X0202472Y0109775D01*
X0202058Y0110773D02*
X0212884Y0110773D01*
X0212884Y0111772D02*
X0201115Y0111772D01*
X0197074Y0111772D02*
X0132431Y0111772D01*
X0132726Y0111059D02*
X0131927Y0112987D01*
X0130452Y0114463D01*
X0128524Y0115261D01*
X0126437Y0115261D01*
X0124509Y0114463D01*
X0123033Y0112987D01*
X0122480Y0111652D01*
X0121927Y0112987D01*
X0120452Y0114463D01*
X0118524Y0115261D01*
X0116437Y0115261D01*
X0114509Y0114463D01*
X0113033Y0112987D01*
X0112480Y0111652D01*
X0111927Y0112987D01*
X0110452Y0114463D01*
X0108524Y0115261D01*
X0106437Y0115261D01*
X0104509Y0114463D01*
X0103033Y0112987D01*
X0102480Y0111652D01*
X0101927Y0112987D01*
X0100452Y0114463D01*
X0098524Y0115261D01*
X0096437Y0115261D01*
X0094509Y0114463D01*
X0093033Y0112987D01*
X0092235Y0111059D01*
X0092235Y0108972D01*
X0093033Y0107044D01*
X0094509Y0105569D01*
X0096437Y0104770D01*
X0098524Y0104770D01*
X0100452Y0105569D01*
X0101927Y0107044D01*
X0102480Y0108379D01*
X0103033Y0107044D01*
X0104509Y0105569D01*
X0106437Y0104770D01*
X0108524Y0104770D01*
X0110452Y0105569D01*
X0111927Y0107044D01*
X0112480Y0108379D01*
X0113033Y0107044D01*
X0114509Y0105569D01*
X0116437Y0104770D01*
X0118524Y0104770D01*
X0120452Y0105569D01*
X0121927Y0107044D01*
X0122480Y0108379D01*
X0123033Y0107044D01*
X0124509Y0105569D01*
X0126437Y0104770D01*
X0128524Y0104770D01*
X0130452Y0105569D01*
X0131927Y0107044D01*
X0132726Y0108972D01*
X0132726Y0111059D01*
X0132726Y0110773D02*
X0196131Y0110773D01*
X0195717Y0109775D02*
X0145997Y0109775D01*
X0145450Y0110001D02*
X0144078Y0110001D01*
X0142810Y0109476D01*
X0141839Y0108505D01*
X0141314Y0107237D01*
X0141314Y0105865D01*
X0141839Y0104597D01*
X0142810Y0103626D01*
X0144078Y0103101D01*
X0145450Y0103101D01*
X0146718Y0103626D01*
X0147689Y0104597D01*
X0148214Y0105865D01*
X0148214Y0107237D01*
X0147689Y0108505D01*
X0146718Y0109476D01*
X0145450Y0110001D01*
X0143530Y0109775D02*
X0132726Y0109775D01*
X0132645Y0108776D02*
X0142110Y0108776D01*
X0141537Y0107777D02*
X0132231Y0107777D01*
X0131662Y0106779D02*
X0141314Y0106779D01*
X0141349Y0105780D02*
X0130664Y0105780D01*
X0128552Y0104782D02*
X0136934Y0104782D01*
X0137298Y0105145D02*
X0136327Y0104175D01*
X0135802Y0102907D01*
X0135802Y0101534D01*
X0136327Y0100266D01*
X0137298Y0099296D01*
X0138566Y0098770D01*
X0139938Y0098770D01*
X0140920Y0099177D01*
X0140920Y0097991D01*
X0141445Y0096723D01*
X0142416Y0095752D01*
X0143684Y0095227D01*
X0145056Y0095227D01*
X0146324Y0095752D01*
X0147295Y0096723D01*
X0147820Y0097991D01*
X0147820Y0099363D01*
X0147295Y0100631D01*
X0146324Y0101602D01*
X0145056Y0102127D01*
X0143684Y0102127D01*
X0142702Y0101720D01*
X0142702Y0102907D01*
X0142177Y0104175D01*
X0141206Y0105145D01*
X0139938Y0105670D01*
X0138566Y0105670D01*
X0137298Y0105145D01*
X0136165Y0103783D02*
X0023253Y0103783D01*
X0023673Y0104203D02*
X0022702Y0103233D01*
X0021434Y0102707D01*
X0020062Y0102707D01*
X0018794Y0103233D01*
X0017823Y0104203D01*
X0017298Y0105471D01*
X0017298Y0106844D01*
X0017823Y0108112D01*
X0018794Y0109082D01*
X0020062Y0109607D01*
X0021434Y0109607D01*
X0022702Y0109082D01*
X0023673Y0108112D01*
X0024198Y0106844D01*
X0024198Y0105471D01*
X0023673Y0104203D01*
X0023912Y0104782D02*
X0096408Y0104782D01*
X0098552Y0104782D02*
X0106408Y0104782D01*
X0108552Y0104782D02*
X0116408Y0104782D01*
X0118552Y0104782D02*
X0126408Y0104782D01*
X0124297Y0105780D02*
X0120664Y0105780D01*
X0121662Y0106779D02*
X0123299Y0106779D01*
X0122730Y0107777D02*
X0122231Y0107777D01*
X0122431Y0111772D02*
X0122530Y0111772D01*
X0122943Y0112770D02*
X0122017Y0112770D01*
X0121146Y0113769D02*
X0123815Y0113769D01*
X0125243Y0114767D02*
X0119717Y0114767D01*
X0115243Y0114767D02*
X0109717Y0114767D01*
X0111146Y0113769D02*
X0113815Y0113769D01*
X0112943Y0112770D02*
X0112017Y0112770D01*
X0112431Y0111772D02*
X0112530Y0111772D01*
X0105243Y0114767D02*
X0099717Y0114767D01*
X0101146Y0113769D02*
X0103815Y0113769D01*
X0102943Y0112770D02*
X0102017Y0112770D01*
X0102431Y0111772D02*
X0102530Y0111772D01*
X0102730Y0107777D02*
X0102231Y0107777D01*
X0101662Y0106779D02*
X0103299Y0106779D01*
X0104297Y0105780D02*
X0100664Y0105780D01*
X0094297Y0105780D02*
X0024198Y0105780D01*
X0024198Y0106779D02*
X0093299Y0106779D01*
X0092730Y0107777D02*
X0023811Y0107777D01*
X0023009Y0108776D02*
X0092316Y0108776D01*
X0092235Y0109775D02*
X0007500Y0109775D01*
X0007500Y0110773D02*
X0092235Y0110773D01*
X0092530Y0111772D02*
X0075336Y0111772D01*
X0075064Y0111500D02*
X0075789Y0112225D01*
X0085045Y0112225D01*
X0086334Y0113514D01*
X0088302Y0115482D01*
X0088302Y0118238D01*
X0094888Y0124824D01*
X0137160Y0124824D01*
X0145034Y0116950D01*
X0153108Y0116950D01*
X0153833Y0116225D01*
X0155101Y0115700D01*
X0156474Y0115700D01*
X0157742Y0116225D01*
X0158712Y0117195D01*
X0159237Y0118463D01*
X0159237Y0119836D01*
X0158712Y0121104D01*
X0157742Y0122074D01*
X0156474Y0122600D01*
X0155101Y0122600D01*
X0153833Y0122074D01*
X0153108Y0121350D01*
X0146856Y0121350D01*
X0138982Y0129224D01*
X0137160Y0129224D01*
X0094888Y0129224D01*
X0093065Y0129224D01*
X0085191Y0121350D01*
X0083902Y0120061D01*
X0083902Y0117305D01*
X0083223Y0116625D01*
X0080065Y0116625D01*
X0080824Y0116939D01*
X0082250Y0118365D01*
X0083021Y0120228D01*
X0083021Y0122244D01*
X0082250Y0124107D01*
X0080824Y0125533D01*
X0079126Y0126236D01*
X0080824Y0126939D01*
X0082250Y0128365D01*
X0083021Y0130228D01*
X0083021Y0132244D01*
X0082250Y0134107D01*
X0080824Y0135533D01*
X0078961Y0136305D01*
X0076945Y0136305D01*
X0075082Y0135533D01*
X0073656Y0134107D01*
X0072953Y0132410D01*
X0072250Y0134107D01*
X0070824Y0135533D01*
X0068961Y0136305D01*
X0066945Y0136305D01*
X0065082Y0135533D01*
X0063656Y0134107D01*
X0062953Y0132410D01*
X0062250Y0134107D01*
X0060824Y0135533D01*
X0058961Y0136305D01*
X0056945Y0136305D01*
X0055082Y0135533D01*
X0053656Y0134107D01*
X0052953Y0132410D01*
X0052250Y0134107D01*
X0050824Y0135533D01*
X0048961Y0136305D01*
X0046945Y0136305D01*
X0045082Y0135533D01*
X0043656Y0134107D01*
X0042953Y0132410D01*
X0042250Y0134107D01*
X0040824Y0135533D01*
X0038961Y0136305D01*
X0036945Y0136305D01*
X0035082Y0135533D01*
X0033656Y0134107D01*
X0032884Y0132244D01*
X0032884Y0130228D01*
X0033656Y0128365D01*
X0035082Y0126939D01*
X0036779Y0126236D01*
X0035082Y0125533D01*
X0033656Y0124107D01*
X0032884Y0122244D01*
X0032884Y0120228D01*
X0033656Y0118365D01*
X0035082Y0116939D01*
X0036945Y0116168D01*
X0038961Y0116168D01*
X0040824Y0116939D01*
X0042250Y0118365D01*
X0042953Y0120063D01*
X0043656Y0118365D01*
X0045082Y0116939D01*
X0046945Y0116168D01*
X0048961Y0116168D01*
X0050824Y0116939D01*
X0052250Y0118365D01*
X0052953Y0120063D01*
X0053656Y0118365D01*
X0055082Y0116939D01*
X0056945Y0116168D01*
X0058961Y0116168D01*
X0060824Y0116939D01*
X0062250Y0118365D01*
X0062953Y0120063D01*
X0063656Y0118365D01*
X0065082Y0116939D01*
X0066945Y0116168D01*
X0068961Y0116168D01*
X0070690Y0116884D01*
X0070185Y0116379D01*
X0069660Y0115111D01*
X0069660Y0113739D01*
X0070185Y0112471D01*
X0071156Y0111500D01*
X0072424Y0110975D01*
X0073796Y0110975D01*
X0075064Y0111500D01*
X0070885Y0111772D02*
X0021986Y0111772D01*
X0021764Y0111680D02*
X0019732Y0111680D01*
X0017855Y0112457D01*
X0016418Y0113894D01*
X0015640Y0115771D01*
X0015640Y0117803D01*
X0016418Y0119681D01*
X0017855Y0121118D01*
X0019732Y0121895D01*
X0021764Y0121895D01*
X0023641Y0121118D01*
X0025078Y0119681D01*
X0025856Y0117803D01*
X0025856Y0115771D01*
X0025078Y0113894D01*
X0023641Y0112457D01*
X0021764Y0111680D01*
X0019510Y0111772D02*
X0007500Y0111772D01*
X0007500Y0112770D02*
X0017542Y0112770D01*
X0016543Y0113769D02*
X0007500Y0113769D01*
X0007500Y0114767D02*
X0016056Y0114767D01*
X0015643Y0115766D02*
X0007500Y0115766D01*
X0007500Y0116764D02*
X0015640Y0116764D01*
X0015640Y0117763D02*
X0007500Y0117763D01*
X0007500Y0118761D02*
X0016037Y0118761D01*
X0016497Y0119760D02*
X0007500Y0119760D01*
X0007500Y0120758D02*
X0017495Y0120758D01*
X0019397Y0121757D02*
X0007500Y0121757D01*
X0007500Y0122755D02*
X0033096Y0122755D01*
X0032884Y0121757D02*
X0022099Y0121757D01*
X0024001Y0120758D02*
X0032884Y0120758D01*
X0033078Y0119760D02*
X0024999Y0119760D01*
X0025459Y0118761D02*
X0033492Y0118761D01*
X0034258Y0117763D02*
X0025856Y0117763D01*
X0025856Y0116764D02*
X0035505Y0116764D01*
X0040401Y0116764D02*
X0045505Y0116764D01*
X0044258Y0117763D02*
X0041647Y0117763D01*
X0042414Y0118761D02*
X0043492Y0118761D01*
X0043078Y0119760D02*
X0042827Y0119760D01*
X0050401Y0116764D02*
X0055505Y0116764D01*
X0054258Y0117763D02*
X0051647Y0117763D01*
X0052414Y0118761D02*
X0053492Y0118761D01*
X0053078Y0119760D02*
X0052827Y0119760D01*
X0060401Y0116764D02*
X0065505Y0116764D01*
X0064258Y0117763D02*
X0061647Y0117763D01*
X0062414Y0118761D02*
X0063492Y0118761D01*
X0063078Y0119760D02*
X0062827Y0119760D01*
X0070401Y0116764D02*
X0070570Y0116764D01*
X0069931Y0115766D02*
X0025853Y0115766D01*
X0025440Y0114767D02*
X0069660Y0114767D01*
X0069660Y0113769D02*
X0024953Y0113769D01*
X0023954Y0112770D02*
X0070062Y0112770D01*
X0073110Y0114425D02*
X0084134Y0114425D01*
X0086102Y0116394D01*
X0086102Y0119150D01*
X0093976Y0127024D01*
X0138071Y0127024D01*
X0145945Y0119150D01*
X0155787Y0119150D01*
X0153294Y0116764D02*
X0088302Y0116764D01*
X0088302Y0115766D02*
X0154942Y0115766D01*
X0156633Y0115766D02*
X0182259Y0115766D01*
X0182259Y0115314D02*
X0182784Y0114046D01*
X0183754Y0113075D01*
X0185022Y0112550D01*
X0186395Y0112550D01*
X0187663Y0113075D01*
X0188633Y0114046D01*
X0189159Y0115314D01*
X0189159Y0116686D01*
X0188633Y0117954D01*
X0187663Y0118925D01*
X0186395Y0119450D01*
X0185022Y0119450D01*
X0183754Y0118925D01*
X0182784Y0117954D01*
X0182259Y0116686D01*
X0182259Y0115314D01*
X0182485Y0114767D02*
X0129717Y0114767D01*
X0131146Y0113769D02*
X0183061Y0113769D01*
X0184491Y0112770D02*
X0132017Y0112770D01*
X0142224Y0119760D02*
X0089824Y0119760D01*
X0090822Y0120758D02*
X0141225Y0120758D01*
X0140227Y0121757D02*
X0091821Y0121757D01*
X0092819Y0122755D02*
X0139228Y0122755D01*
X0138230Y0123754D02*
X0093818Y0123754D01*
X0094816Y0124752D02*
X0137231Y0124752D01*
X0140458Y0127748D02*
X0145906Y0127748D01*
X0145660Y0128342D02*
X0146458Y0126414D01*
X0147934Y0124939D01*
X0149862Y0124140D01*
X0151949Y0124140D01*
X0153877Y0124939D01*
X0155353Y0126414D01*
X0155905Y0127749D01*
X0156458Y0126414D01*
X0157934Y0124939D01*
X0159862Y0124140D01*
X0161949Y0124140D01*
X0163877Y0124939D01*
X0165353Y0126414D01*
X0165905Y0127749D01*
X0166458Y0126414D01*
X0167934Y0124939D01*
X0169862Y0124140D01*
X0171949Y0124140D01*
X0173877Y0124939D01*
X0175353Y0126414D01*
X0176151Y0128342D01*
X0176151Y0130429D01*
X0175353Y0132357D01*
X0173877Y0133833D01*
X0171949Y0134631D01*
X0169862Y0134631D01*
X0167934Y0133833D01*
X0166458Y0132357D01*
X0165905Y0131022D01*
X0165353Y0132357D01*
X0163877Y0133833D01*
X0161949Y0134631D01*
X0159862Y0134631D01*
X0157934Y0133833D01*
X0156458Y0132357D01*
X0155905Y0131022D01*
X0155353Y0132357D01*
X0153877Y0133833D01*
X0151949Y0134631D01*
X0149862Y0134631D01*
X0147934Y0133833D01*
X0146458Y0132357D01*
X0145660Y0130429D01*
X0145660Y0128342D01*
X0145660Y0128746D02*
X0139460Y0128746D01*
X0141457Y0126749D02*
X0146320Y0126749D01*
X0147122Y0125751D02*
X0142455Y0125751D01*
X0143454Y0124752D02*
X0148385Y0124752D01*
X0144452Y0123754D02*
X0213509Y0123754D01*
X0213096Y0122755D02*
X0177521Y0122755D01*
X0176946Y0122993D02*
X0175574Y0122993D01*
X0174306Y0122468D01*
X0173335Y0121498D01*
X0172810Y0120230D01*
X0172810Y0118857D01*
X0173335Y0117589D01*
X0174306Y0116619D01*
X0175574Y0116093D01*
X0176946Y0116093D01*
X0178214Y0116619D01*
X0179185Y0117589D01*
X0179710Y0118857D01*
X0179710Y0120230D01*
X0179185Y0121498D01*
X0178214Y0122468D01*
X0176946Y0122993D01*
X0174999Y0122755D02*
X0145451Y0122755D01*
X0146449Y0121757D02*
X0153515Y0121757D01*
X0153426Y0124752D02*
X0158385Y0124752D01*
X0157122Y0125751D02*
X0154689Y0125751D01*
X0155491Y0126749D02*
X0156320Y0126749D01*
X0155905Y0127748D02*
X0155906Y0127748D01*
X0155608Y0131742D02*
X0156204Y0131742D01*
X0156841Y0132740D02*
X0154970Y0132740D01*
X0153971Y0133739D02*
X0157840Y0133739D01*
X0163971Y0133739D02*
X0167840Y0133739D01*
X0166841Y0132740D02*
X0164970Y0132740D01*
X0165608Y0131742D02*
X0166204Y0131742D01*
X0165905Y0127748D02*
X0165906Y0127748D01*
X0165491Y0126749D02*
X0166320Y0126749D01*
X0167122Y0125751D02*
X0164689Y0125751D01*
X0163426Y0124752D02*
X0168385Y0124752D01*
X0173426Y0124752D02*
X0214301Y0124752D01*
X0215607Y0125751D02*
X0174689Y0125751D01*
X0175491Y0126749D02*
X0215541Y0126749D01*
X0214273Y0127748D02*
X0175905Y0127748D01*
X0176151Y0128746D02*
X0213498Y0128746D01*
X0213084Y0129745D02*
X0176151Y0129745D01*
X0176021Y0130743D02*
X0212884Y0130743D01*
X0212884Y0131742D02*
X0175608Y0131742D01*
X0174970Y0132740D02*
X0213090Y0132740D01*
X0213503Y0133739D02*
X0173971Y0133739D01*
X0173594Y0121757D02*
X0158059Y0121757D01*
X0158855Y0120758D02*
X0173029Y0120758D01*
X0172810Y0119760D02*
X0159237Y0119760D01*
X0159237Y0118761D02*
X0172850Y0118761D01*
X0173263Y0117763D02*
X0158947Y0117763D01*
X0158281Y0116764D02*
X0174160Y0116764D01*
X0178360Y0116764D02*
X0182291Y0116764D01*
X0182705Y0117763D02*
X0179256Y0117763D01*
X0179670Y0118761D02*
X0183591Y0118761D01*
X0187827Y0118761D02*
X0213492Y0118761D01*
X0213078Y0119760D02*
X0179710Y0119760D01*
X0179491Y0120758D02*
X0212884Y0120758D01*
X0212884Y0121757D02*
X0178926Y0121757D01*
X0188713Y0117763D02*
X0214258Y0117763D01*
X0215505Y0116764D02*
X0189126Y0116764D01*
X0189159Y0115766D02*
X0215643Y0115766D01*
X0214316Y0114767D02*
X0188932Y0114767D01*
X0188356Y0113769D02*
X0213516Y0113769D01*
X0213102Y0112770D02*
X0186926Y0112770D01*
X0195644Y0108776D02*
X0147418Y0108776D01*
X0147990Y0107777D02*
X0195831Y0107777D01*
X0196350Y0106779D02*
X0148214Y0106779D01*
X0148179Y0105780D02*
X0197643Y0105780D01*
X0215745Y0098791D02*
X0169777Y0098791D01*
X0170191Y0099789D02*
X0216588Y0099789D01*
X0215331Y0097792D02*
X0168837Y0097792D01*
X0168686Y0096794D02*
X0215330Y0096794D01*
X0215587Y0095795D02*
X0168686Y0095795D01*
X0168342Y0094797D02*
X0216206Y0094797D01*
X0220437Y0106779D02*
X0225469Y0106779D01*
X0224244Y0107777D02*
X0221662Y0107777D01*
X0222420Y0108776D02*
X0223486Y0108776D01*
X0223072Y0109775D02*
X0222833Y0109775D01*
X0240420Y0104782D02*
X0163223Y0104782D01*
X0163992Y0103783D02*
X0165371Y0103783D01*
X0168251Y0103783D02*
X0240133Y0103783D01*
X0240133Y0102785D02*
X0169551Y0102785D01*
X0170073Y0101786D02*
X0240517Y0101786D01*
X0241317Y0100788D02*
X0170261Y0100788D01*
X0163431Y0099789D02*
X0163353Y0099789D01*
X0162833Y0098791D02*
X0161641Y0098791D01*
X0162114Y0097792D02*
X0154270Y0097792D01*
X0154381Y0097904D02*
X0154907Y0099172D01*
X0154907Y0100545D01*
X0154381Y0101813D01*
X0153411Y0102783D01*
X0152143Y0103308D01*
X0150770Y0103308D01*
X0149502Y0102783D01*
X0148532Y0101813D01*
X0148007Y0100545D01*
X0148007Y0099172D01*
X0148532Y0097904D01*
X0149502Y0096934D01*
X0150770Y0096408D01*
X0152143Y0096408D01*
X0153411Y0096934D01*
X0154381Y0097904D01*
X0154749Y0098791D02*
X0160170Y0098791D01*
X0158458Y0099789D02*
X0154907Y0099789D01*
X0154806Y0100788D02*
X0157765Y0100788D01*
X0157456Y0101786D02*
X0154392Y0101786D01*
X0153406Y0102785D02*
X0157456Y0102785D01*
X0157819Y0103783D02*
X0146875Y0103783D01*
X0147765Y0104782D02*
X0158588Y0104782D01*
X0149507Y0102785D02*
X0142702Y0102785D01*
X0142702Y0101786D02*
X0142861Y0101786D01*
X0145879Y0101786D02*
X0148521Y0101786D01*
X0148108Y0100788D02*
X0147138Y0100788D01*
X0147644Y0099789D02*
X0148007Y0099789D01*
X0148165Y0098791D02*
X0147820Y0098791D01*
X0147738Y0097792D02*
X0148644Y0097792D01*
X0149840Y0096794D02*
X0147324Y0096794D01*
X0146367Y0095795D02*
X0161786Y0095795D01*
X0161786Y0096794D02*
X0153074Y0096794D01*
X0142373Y0095795D02*
X0007500Y0095795D01*
X0007500Y0096794D02*
X0141416Y0096794D01*
X0141002Y0097792D02*
X0007500Y0097792D01*
X0007500Y0098791D02*
X0009383Y0098791D01*
X0010854Y0098791D02*
X0138516Y0098791D01*
X0139987Y0098791D02*
X0140920Y0098791D01*
X0136804Y0099789D02*
X0012566Y0099789D01*
X0013259Y0100788D02*
X0136111Y0100788D01*
X0135802Y0101786D02*
X0013568Y0101786D01*
X0013568Y0102785D02*
X0019875Y0102785D01*
X0021621Y0102785D02*
X0135802Y0102785D01*
X0141570Y0104782D02*
X0141762Y0104782D01*
X0142339Y0103783D02*
X0142652Y0103783D01*
X0144221Y0117763D02*
X0088302Y0117763D01*
X0088825Y0118761D02*
X0143222Y0118761D01*
X0145660Y0129745D02*
X0082821Y0129745D01*
X0083021Y0130743D02*
X0145790Y0130743D01*
X0146204Y0131742D02*
X0083021Y0131742D01*
X0082816Y0132740D02*
X0087740Y0132740D01*
X0086718Y0133739D02*
X0082402Y0133739D01*
X0081620Y0134737D02*
X0086304Y0134737D01*
X0086196Y0135736D02*
X0080334Y0135736D01*
X0075571Y0135736D02*
X0070334Y0135736D01*
X0071620Y0134737D02*
X0074286Y0134737D01*
X0073503Y0133739D02*
X0072402Y0133739D01*
X0072816Y0132740D02*
X0073090Y0132740D01*
X0065571Y0135736D02*
X0060334Y0135736D01*
X0061620Y0134737D02*
X0064286Y0134737D01*
X0063503Y0133739D02*
X0062402Y0133739D01*
X0062816Y0132740D02*
X0063090Y0132740D01*
X0055571Y0135736D02*
X0050334Y0135736D01*
X0051620Y0134737D02*
X0054286Y0134737D01*
X0053503Y0133739D02*
X0052402Y0133739D01*
X0052816Y0132740D02*
X0053090Y0132740D01*
X0045571Y0135736D02*
X0040334Y0135736D01*
X0041620Y0134737D02*
X0044286Y0134737D01*
X0043503Y0133739D02*
X0042402Y0133739D01*
X0042816Y0132740D02*
X0043090Y0132740D01*
X0035571Y0135736D02*
X0016468Y0135736D01*
X0017467Y0136734D02*
X0086346Y0136734D01*
X0091552Y0132740D02*
X0096795Y0132740D01*
X0095773Y0133739D02*
X0092574Y0133739D01*
X0092987Y0134737D02*
X0095359Y0134737D01*
X0095251Y0135736D02*
X0093096Y0135736D01*
X0092945Y0136734D02*
X0095401Y0136734D01*
X0100607Y0132740D02*
X0105850Y0132740D01*
X0104828Y0133739D02*
X0101629Y0133739D01*
X0102042Y0134737D02*
X0104414Y0134737D01*
X0104306Y0135736D02*
X0102151Y0135736D01*
X0102000Y0136734D02*
X0104456Y0136734D01*
X0109662Y0132740D02*
X0114905Y0132740D01*
X0113883Y0133739D02*
X0110684Y0133739D01*
X0111098Y0134737D02*
X0113469Y0134737D01*
X0113361Y0135736D02*
X0111206Y0135736D01*
X0111056Y0136734D02*
X0113511Y0136734D01*
X0118717Y0132740D02*
X0129866Y0132740D01*
X0128844Y0133739D02*
X0119739Y0133739D01*
X0120153Y0134737D02*
X0128430Y0134737D01*
X0128322Y0135736D02*
X0120261Y0135736D01*
X0120111Y0136734D02*
X0128472Y0136734D01*
X0133678Y0132740D02*
X0146841Y0132740D01*
X0147840Y0133739D02*
X0134700Y0133739D01*
X0135113Y0134737D02*
X0214286Y0134737D01*
X0215571Y0135736D02*
X0135222Y0135736D01*
X0135071Y0136734D02*
X0232178Y0136734D01*
X0231865Y0135736D02*
X0230334Y0135736D01*
X0231620Y0134737D02*
X0231865Y0134737D01*
X0232816Y0132740D02*
X0232987Y0132740D01*
X0225571Y0135736D02*
X0220334Y0135736D01*
X0221620Y0134737D02*
X0224286Y0134737D01*
X0223503Y0133739D02*
X0222402Y0133739D01*
X0222816Y0132740D02*
X0223090Y0132740D01*
X0238765Y0134737D02*
X0250628Y0134737D01*
X0249699Y0135736D02*
X0238765Y0135736D01*
X0238452Y0136734D02*
X0248769Y0136734D01*
X0196879Y0088806D02*
X0187467Y0088806D01*
X0188103Y0087807D02*
X0197293Y0087807D01*
X0120508Y0054856D02*
X0112487Y0054856D01*
X0111501Y0055855D02*
X0119339Y0055855D01*
X0118598Y0056853D02*
X0109794Y0056853D01*
X0106269Y0056853D02*
X0103557Y0056853D01*
X0103557Y0055855D02*
X0104562Y0055855D01*
X0103576Y0054856D02*
X0103557Y0054856D01*
X0103557Y0057852D02*
X0118184Y0057852D01*
X0118002Y0058850D02*
X0103557Y0058850D01*
X0103557Y0059849D02*
X0118002Y0059849D01*
X0118220Y0060847D02*
X0103280Y0060847D01*
X0102327Y0061801D02*
X0102327Y0061801D01*
X0102281Y0061846D02*
X0118633Y0061846D01*
X0103653Y0048865D02*
X0103557Y0048865D01*
X0103557Y0047867D02*
X0104652Y0047867D01*
X0103557Y0046868D02*
X0106485Y0046868D01*
X0087189Y0057852D02*
X0083253Y0057852D01*
X0083253Y0056853D02*
X0086191Y0056853D01*
X0088188Y0058850D02*
X0082911Y0058850D01*
X0082172Y0059849D02*
X0087374Y0059849D01*
X0087939Y0064841D02*
X0086781Y0064841D01*
X0083849Y0064841D02*
X0082057Y0064841D01*
X0079125Y0064841D02*
X0075650Y0064841D01*
X0076520Y0065840D02*
X0077840Y0065840D01*
X0077324Y0066839D02*
X0076933Y0066839D01*
X0076954Y0067837D02*
X0077141Y0067837D01*
X0077215Y0068836D02*
X0076716Y0068836D01*
X0076124Y0069834D02*
X0077629Y0069834D01*
X0077782Y0073828D02*
X0083400Y0073828D01*
X0081944Y0074827D02*
X0079237Y0074827D01*
X0080120Y0075825D02*
X0081061Y0075825D01*
X0080648Y0076824D02*
X0080533Y0076824D01*
X0080349Y0080818D02*
X0080832Y0080818D01*
X0081390Y0081816D02*
X0079791Y0081816D01*
X0078793Y0082815D02*
X0082388Y0082815D01*
X0050684Y0069834D02*
X0017684Y0069834D01*
X0017978Y0069712D02*
X0016710Y0070237D01*
X0015337Y0070237D01*
X0014069Y0069712D01*
X0013099Y0068742D01*
X0012574Y0067474D01*
X0012574Y0066101D01*
X0013099Y0064833D01*
X0014069Y0063863D01*
X0015337Y0063337D01*
X0016710Y0063337D01*
X0017978Y0063863D01*
X0018948Y0064833D01*
X0019474Y0066101D01*
X0019474Y0067474D01*
X0018948Y0068742D01*
X0017978Y0069712D01*
X0018854Y0068836D02*
X0050620Y0068836D01*
X0050620Y0067837D02*
X0019323Y0067837D01*
X0019474Y0066839D02*
X0050934Y0066839D01*
X0051347Y0065840D02*
X0019365Y0065840D01*
X0018952Y0064841D02*
X0052244Y0064841D01*
X0053734Y0063843D02*
X0017930Y0063843D01*
X0017700Y0063544D02*
X0016432Y0063019D01*
X0015461Y0062049D01*
X0014936Y0060781D01*
X0014936Y0059408D01*
X0015461Y0058140D01*
X0016432Y0057170D01*
X0017700Y0056644D01*
X0019072Y0056644D01*
X0020340Y0057170D01*
X0021311Y0058140D01*
X0021836Y0059408D01*
X0021836Y0060781D01*
X0021311Y0062049D01*
X0020340Y0063019D01*
X0019072Y0063544D01*
X0017700Y0063544D01*
X0016257Y0062844D02*
X0007500Y0062844D01*
X0007500Y0061846D02*
X0015377Y0061846D01*
X0014963Y0060847D02*
X0007500Y0060847D01*
X0007500Y0059849D02*
X0014936Y0059849D01*
X0015167Y0058850D02*
X0007500Y0058850D01*
X0007500Y0057852D02*
X0015749Y0057852D01*
X0017195Y0056853D02*
X0007500Y0056853D01*
X0007500Y0055855D02*
X0020291Y0055855D01*
X0019576Y0056853D02*
X0050927Y0056853D01*
X0050620Y0057852D02*
X0021022Y0057852D01*
X0021605Y0058850D02*
X0050620Y0058850D01*
X0050690Y0059849D02*
X0021836Y0059849D01*
X0021808Y0060847D02*
X0051104Y0060847D01*
X0051656Y0061846D02*
X0021395Y0061846D01*
X0020515Y0062844D02*
X0052654Y0062844D01*
X0051341Y0055855D02*
X0024355Y0055855D01*
X0025291Y0054856D02*
X0052229Y0054856D01*
X0053698Y0053858D02*
X0025705Y0053858D01*
X0019354Y0054856D02*
X0007500Y0054856D01*
X0007500Y0053858D02*
X0018941Y0053858D01*
X0018873Y0052859D02*
X0007500Y0052859D01*
X0007500Y0051861D02*
X0019064Y0051861D01*
X0019589Y0050862D02*
X0007500Y0050862D01*
X0007500Y0049864D02*
X0020898Y0049864D01*
X0015457Y0042874D02*
X0007500Y0042874D01*
X0007500Y0041876D02*
X0013779Y0041876D01*
X0012780Y0040877D02*
X0007500Y0040877D01*
X0007500Y0039879D02*
X0011951Y0039879D01*
X0011538Y0038880D02*
X0007500Y0038880D01*
X0007500Y0037882D02*
X0011124Y0037882D01*
X0010866Y0036883D02*
X0007500Y0036883D01*
X0007500Y0035885D02*
X0010866Y0035885D01*
X0010866Y0034886D02*
X0007782Y0034886D01*
X0008816Y0033888D02*
X0010959Y0033888D01*
X0011372Y0032889D02*
X0009850Y0032889D01*
X0010884Y0031891D02*
X0011786Y0031891D01*
X0011919Y0030892D02*
X0012381Y0030892D01*
X0012953Y0029894D02*
X0013380Y0029894D01*
X0013987Y0028895D02*
X0014493Y0028895D01*
X0015021Y0027897D02*
X0016904Y0027897D01*
X0014117Y0063843D02*
X0007500Y0063843D01*
X0007500Y0064841D02*
X0013095Y0064841D01*
X0012682Y0065840D02*
X0007500Y0065840D01*
X0007500Y0066839D02*
X0012574Y0066839D01*
X0012724Y0067837D02*
X0007500Y0067837D01*
X0007500Y0068836D02*
X0013193Y0068836D01*
X0014364Y0069834D02*
X0007500Y0069834D01*
X0007500Y0099789D02*
X0007670Y0099789D01*
X0007801Y0104782D02*
X0007500Y0104782D01*
X0007500Y0105780D02*
X0017298Y0105780D01*
X0017298Y0106779D02*
X0007500Y0106779D01*
X0007500Y0107777D02*
X0017685Y0107777D01*
X0018488Y0108776D02*
X0007500Y0108776D01*
X0012436Y0104782D02*
X0017584Y0104782D01*
X0018243Y0103783D02*
X0013205Y0103783D01*
X0007500Y0123754D02*
X0033509Y0123754D01*
X0034301Y0124752D02*
X0007500Y0124752D01*
X0007500Y0125751D02*
X0035607Y0125751D01*
X0035541Y0126749D02*
X0007534Y0126749D01*
X0008480Y0127748D02*
X0034273Y0127748D01*
X0033498Y0128746D02*
X0009479Y0128746D01*
X0010477Y0129745D02*
X0033084Y0129745D01*
X0032884Y0130743D02*
X0011476Y0130743D01*
X0012474Y0131742D02*
X0032884Y0131742D01*
X0033090Y0132740D02*
X0013473Y0132740D01*
X0014471Y0133739D02*
X0033503Y0133739D01*
X0034286Y0134737D02*
X0015470Y0134737D01*
X0080365Y0126749D02*
X0090591Y0126749D01*
X0091589Y0127748D02*
X0081632Y0127748D01*
X0082407Y0128746D02*
X0092588Y0128746D01*
X0089592Y0125751D02*
X0080298Y0125751D01*
X0081605Y0124752D02*
X0088594Y0124752D01*
X0087595Y0123754D02*
X0082396Y0123754D01*
X0082810Y0122755D02*
X0086597Y0122755D01*
X0085598Y0121757D02*
X0083021Y0121757D01*
X0083021Y0120758D02*
X0084600Y0120758D01*
X0083902Y0119760D02*
X0082827Y0119760D01*
X0082414Y0118761D02*
X0083902Y0118761D01*
X0083902Y0117763D02*
X0081647Y0117763D01*
X0080401Y0116764D02*
X0083361Y0116764D01*
X0086588Y0113769D02*
X0093815Y0113769D01*
X0092943Y0112770D02*
X0085590Y0112770D01*
X0087587Y0114767D02*
X0095243Y0114767D01*
X0110664Y0105780D02*
X0114297Y0105780D01*
X0113299Y0106779D02*
X0111662Y0106779D01*
X0112231Y0107777D02*
X0112730Y0107777D01*
M02*
