G75*
%MOIN*%
%OFA0B0*%
%FSLAX25Y25*%
%IPPOS*%
%LPD*%
%AMOC8*
5,1,8,0,0,1.08239X$1,22.5*
%
%ADD10C,0.00000*%
D10*
X0017548Y0001800D02*
X0241957Y0001800D01*
X0242338Y0001805D01*
X0242718Y0001818D01*
X0243098Y0001841D01*
X0243477Y0001874D01*
X0243855Y0001915D01*
X0244232Y0001965D01*
X0244608Y0002025D01*
X0244983Y0002093D01*
X0245355Y0002171D01*
X0245726Y0002258D01*
X0246094Y0002353D01*
X0246460Y0002458D01*
X0246823Y0002571D01*
X0247184Y0002693D01*
X0247541Y0002823D01*
X0247895Y0002963D01*
X0248246Y0003110D01*
X0248593Y0003267D01*
X0248936Y0003431D01*
X0249275Y0003604D01*
X0249610Y0003785D01*
X0249941Y0003974D01*
X0250266Y0004171D01*
X0250587Y0004375D01*
X0250903Y0004588D01*
X0251213Y0004808D01*
X0251519Y0005035D01*
X0251818Y0005270D01*
X0252112Y0005512D01*
X0252400Y0005760D01*
X0252682Y0006016D01*
X0252957Y0006279D01*
X0253226Y0006548D01*
X0253489Y0006823D01*
X0253745Y0007105D01*
X0253993Y0007393D01*
X0254235Y0007687D01*
X0254470Y0007986D01*
X0254697Y0008292D01*
X0254917Y0008602D01*
X0255130Y0008918D01*
X0255334Y0009239D01*
X0255531Y0009564D01*
X0255720Y0009895D01*
X0255901Y0010230D01*
X0256074Y0010569D01*
X0256238Y0010912D01*
X0256395Y0011259D01*
X0256542Y0011610D01*
X0256682Y0011964D01*
X0256812Y0012321D01*
X0256934Y0012682D01*
X0257047Y0013045D01*
X0257152Y0013411D01*
X0257247Y0013779D01*
X0257334Y0014150D01*
X0257412Y0014522D01*
X0257480Y0014897D01*
X0257540Y0015273D01*
X0257590Y0015650D01*
X0257631Y0016028D01*
X0257664Y0016407D01*
X0257687Y0016787D01*
X0257700Y0017167D01*
X0257705Y0017548D01*
X0257706Y0017548D02*
X0257706Y0230146D01*
X0257705Y0230146D02*
X0257700Y0230527D01*
X0257687Y0230907D01*
X0257664Y0231287D01*
X0257631Y0231666D01*
X0257590Y0232044D01*
X0257540Y0232421D01*
X0257480Y0232797D01*
X0257412Y0233172D01*
X0257334Y0233544D01*
X0257247Y0233915D01*
X0257152Y0234283D01*
X0257047Y0234649D01*
X0256934Y0235012D01*
X0256812Y0235373D01*
X0256682Y0235730D01*
X0256542Y0236084D01*
X0256395Y0236435D01*
X0256238Y0236782D01*
X0256074Y0237125D01*
X0255901Y0237464D01*
X0255720Y0237799D01*
X0255531Y0238130D01*
X0255334Y0238455D01*
X0255130Y0238776D01*
X0254917Y0239092D01*
X0254697Y0239402D01*
X0254470Y0239708D01*
X0254235Y0240007D01*
X0253993Y0240301D01*
X0253745Y0240589D01*
X0253489Y0240871D01*
X0253226Y0241146D01*
X0252957Y0241415D01*
X0252682Y0241678D01*
X0252400Y0241934D01*
X0252112Y0242182D01*
X0251818Y0242424D01*
X0251519Y0242659D01*
X0251213Y0242886D01*
X0250903Y0243106D01*
X0250587Y0243319D01*
X0250266Y0243523D01*
X0249941Y0243720D01*
X0249610Y0243909D01*
X0249275Y0244090D01*
X0248936Y0244263D01*
X0248593Y0244427D01*
X0248246Y0244584D01*
X0247895Y0244731D01*
X0247541Y0244871D01*
X0247184Y0245001D01*
X0246823Y0245123D01*
X0246460Y0245236D01*
X0246094Y0245341D01*
X0245726Y0245436D01*
X0245355Y0245523D01*
X0244983Y0245601D01*
X0244608Y0245669D01*
X0244232Y0245729D01*
X0243855Y0245779D01*
X0243477Y0245820D01*
X0243098Y0245853D01*
X0242718Y0245876D01*
X0242338Y0245889D01*
X0241957Y0245894D01*
X0017548Y0245894D01*
X0017167Y0245889D01*
X0016787Y0245876D01*
X0016407Y0245853D01*
X0016028Y0245820D01*
X0015650Y0245779D01*
X0015273Y0245729D01*
X0014897Y0245669D01*
X0014522Y0245601D01*
X0014150Y0245523D01*
X0013779Y0245436D01*
X0013411Y0245341D01*
X0013045Y0245236D01*
X0012682Y0245123D01*
X0012321Y0245001D01*
X0011964Y0244871D01*
X0011610Y0244731D01*
X0011259Y0244584D01*
X0010912Y0244427D01*
X0010569Y0244263D01*
X0010230Y0244090D01*
X0009895Y0243909D01*
X0009564Y0243720D01*
X0009239Y0243523D01*
X0008918Y0243319D01*
X0008602Y0243106D01*
X0008292Y0242886D01*
X0007986Y0242659D01*
X0007687Y0242424D01*
X0007393Y0242182D01*
X0007105Y0241934D01*
X0006823Y0241678D01*
X0006548Y0241415D01*
X0006279Y0241146D01*
X0006016Y0240871D01*
X0005760Y0240589D01*
X0005512Y0240301D01*
X0005270Y0240007D01*
X0005035Y0239708D01*
X0004808Y0239402D01*
X0004588Y0239092D01*
X0004375Y0238776D01*
X0004171Y0238455D01*
X0003974Y0238130D01*
X0003785Y0237799D01*
X0003604Y0237464D01*
X0003431Y0237125D01*
X0003267Y0236782D01*
X0003110Y0236435D01*
X0002963Y0236084D01*
X0002823Y0235730D01*
X0002693Y0235373D01*
X0002571Y0235012D01*
X0002458Y0234649D01*
X0002353Y0234283D01*
X0002258Y0233915D01*
X0002171Y0233544D01*
X0002093Y0233172D01*
X0002025Y0232797D01*
X0001965Y0232421D01*
X0001915Y0232044D01*
X0001874Y0231666D01*
X0001841Y0231287D01*
X0001818Y0230907D01*
X0001805Y0230527D01*
X0001800Y0230146D01*
X0001800Y0017548D01*
X0001805Y0017167D01*
X0001818Y0016787D01*
X0001841Y0016407D01*
X0001874Y0016028D01*
X0001915Y0015650D01*
X0001965Y0015273D01*
X0002025Y0014897D01*
X0002093Y0014522D01*
X0002171Y0014150D01*
X0002258Y0013779D01*
X0002353Y0013411D01*
X0002458Y0013045D01*
X0002571Y0012682D01*
X0002693Y0012321D01*
X0002823Y0011964D01*
X0002963Y0011610D01*
X0003110Y0011259D01*
X0003267Y0010912D01*
X0003431Y0010569D01*
X0003604Y0010230D01*
X0003785Y0009895D01*
X0003974Y0009564D01*
X0004171Y0009239D01*
X0004375Y0008918D01*
X0004588Y0008602D01*
X0004808Y0008292D01*
X0005035Y0007986D01*
X0005270Y0007687D01*
X0005512Y0007393D01*
X0005760Y0007105D01*
X0006016Y0006823D01*
X0006279Y0006548D01*
X0006548Y0006279D01*
X0006823Y0006016D01*
X0007105Y0005760D01*
X0007393Y0005512D01*
X0007687Y0005270D01*
X0007986Y0005035D01*
X0008292Y0004808D01*
X0008602Y0004588D01*
X0008918Y0004375D01*
X0009239Y0004171D01*
X0009564Y0003974D01*
X0009895Y0003785D01*
X0010230Y0003604D01*
X0010569Y0003431D01*
X0010912Y0003267D01*
X0011259Y0003110D01*
X0011610Y0002963D01*
X0011964Y0002823D01*
X0012321Y0002693D01*
X0012682Y0002571D01*
X0013045Y0002458D01*
X0013411Y0002353D01*
X0013779Y0002258D01*
X0014150Y0002171D01*
X0014522Y0002093D01*
X0014897Y0002025D01*
X0015273Y0001965D01*
X0015650Y0001915D01*
X0016028Y0001874D01*
X0016407Y0001841D01*
X0016787Y0001818D01*
X0017167Y0001805D01*
X0017548Y0001800D01*
M02*
