G75*
G70*
%OFA0B0*%
%FSLAX25Y25*%
%IPPOS*%
%LPD*%
%AMOC8*
5,1,8,0,0,1.08239X$1,22.5*
%
%ADD831C,0.00100*%
D831*
X0100630Y0010085D02*
X0108630Y0018085D01*
X0108630Y0010085D02*
X0100630Y0018085D01*
X0100630Y0014085D02*
X0108630Y0014085D01*
X0100630Y0238435D02*
X0108630Y0246435D01*
X0108630Y0238435D02*
X0100630Y0246435D01*
X0100630Y0242435D02*
X0108630Y0242435D01*
X0010080Y0238435D02*
X0018080Y0246435D01*
X0018080Y0238435D02*
X0010080Y0246435D01*
X0010080Y0242435D02*
X0018080Y0242435D01*
X0226541Y0010085D02*
X0234541Y0018085D01*
X0234541Y0010085D02*
X0226541Y0018085D01*
X0226541Y0014085D02*
X0234541Y0014085D01*
X0226541Y0238435D02*
X0234541Y0246435D01*
X0234541Y0238435D02*
X0226541Y0246435D01*
X0226541Y0242435D02*
X0234541Y0242435D01*
X0135991Y0238435D02*
X0143991Y0246435D01*
X0143991Y0238435D02*
X0135991Y0246435D01*
X0135991Y0242435D02*
X0143991Y0242435D01*
X0352452Y0010085D02*
X0360452Y0018085D01*
X0360452Y0010085D02*
X0352452Y0018085D01*
X0352452Y0014085D02*
X0360452Y0014085D01*
X0352452Y0238435D02*
X0360452Y0246435D01*
X0360452Y0238435D02*
X0352452Y0246435D01*
X0352452Y0242435D02*
X0360452Y0242435D01*
X0261902Y0238435D02*
X0269902Y0246435D01*
X0269902Y0238435D02*
X0261902Y0246435D01*
X0261902Y0242435D02*
X0269902Y0242435D01*
X0031730Y0272216D02*
X0039730Y0280216D01*
X0039730Y0272216D02*
X0031730Y0280216D01*
X0031730Y0276216D02*
X0039730Y0276216D01*
X0043540Y0361976D02*
X0051540Y0369976D01*
X0051540Y0361976D02*
X0043540Y0369976D01*
X0043540Y0365976D02*
X0051540Y0365976D01*
X0122207Y0272216D02*
X0130207Y0280216D01*
X0130207Y0272216D02*
X0122207Y0280216D01*
X0122207Y0276216D02*
X0130207Y0276216D01*
X0134017Y0361976D02*
X0142017Y0369976D01*
X0142017Y0361976D02*
X0134017Y0369976D01*
X0134017Y0365976D02*
X0142017Y0365976D01*
X0112650Y0031405D02*
X0108650Y0031405D01*
X0112650Y0031405D02*
X0116650Y0035405D01*
X0116650Y0027405D01*
X0112650Y0031405D01*
X0112650Y0057395D02*
X0108650Y0057395D01*
X0112650Y0057395D02*
X0116650Y0061395D01*
X0116650Y0053395D01*
X0112650Y0057395D01*
X0238561Y0031405D02*
X0234561Y0031405D01*
X0238561Y0031405D02*
X0242561Y0035405D01*
X0242561Y0027405D01*
X0238561Y0031405D01*
X0238561Y0057395D02*
X0234561Y0057395D01*
X0238561Y0057395D02*
X0242561Y0061395D01*
X0242561Y0053395D01*
X0238561Y0057395D01*
X0364472Y0031405D02*
X0360472Y0031405D01*
X0364472Y0031405D02*
X0368472Y0035405D01*
X0368472Y0027405D01*
X0364472Y0031405D01*
X0364472Y0057395D02*
X0360472Y0057395D01*
X0364472Y0057395D02*
X0368472Y0061395D01*
X0368472Y0053395D01*
X0364472Y0057395D01*
X0061720Y0070895D02*
X0065720Y0070895D01*
X0061720Y0070895D02*
X0057720Y0074895D01*
X0057720Y0066895D01*
X0061720Y0070895D01*
X0061720Y0080895D02*
X0065720Y0080895D01*
X0061720Y0080895D02*
X0057720Y0084895D01*
X0057720Y0076895D01*
X0061720Y0080895D01*
X0071680Y0051175D02*
X0075680Y0051175D01*
X0071680Y0051175D02*
X0067680Y0055175D01*
X0067680Y0047175D01*
X0071680Y0051175D01*
X0081680Y0051175D02*
X0085680Y0051175D01*
X0081680Y0051175D02*
X0077680Y0055175D01*
X0077680Y0047175D01*
X0081680Y0051175D01*
X0088410Y0093335D02*
X0092410Y0093335D01*
X0088410Y0093335D02*
X0084410Y0097335D01*
X0084410Y0089335D01*
X0088410Y0093335D01*
X0088410Y0103335D02*
X0092410Y0103335D01*
X0088410Y0103335D02*
X0084410Y0107335D01*
X0084410Y0099335D01*
X0088410Y0103335D01*
X0030300Y0102785D02*
X0034300Y0102785D01*
X0030300Y0102785D02*
X0026300Y0106785D01*
X0026300Y0098785D01*
X0030300Y0102785D01*
X0030300Y0112785D02*
X0034300Y0112785D01*
X0030300Y0112785D02*
X0026300Y0116785D01*
X0026300Y0108785D01*
X0030300Y0112785D01*
X0030300Y0122785D02*
X0034300Y0122785D01*
X0030300Y0122785D02*
X0026300Y0126785D01*
X0026300Y0118785D01*
X0030300Y0122785D01*
X0030300Y0092785D02*
X0034300Y0092785D01*
X0030300Y0092785D02*
X0026300Y0096785D01*
X0026300Y0088785D01*
X0030300Y0092785D01*
X0010930Y0146215D02*
X0014930Y0146215D01*
X0010930Y0146215D02*
X0006930Y0150215D01*
X0006930Y0142215D01*
X0010930Y0146215D01*
X0010930Y0156215D02*
X0014930Y0156215D01*
X0010930Y0156215D02*
X0006930Y0160215D01*
X0006930Y0152215D01*
X0010930Y0156215D01*
X0010930Y0166215D02*
X0014930Y0166215D01*
X0010930Y0166215D02*
X0006930Y0170215D01*
X0006930Y0162215D01*
X0010930Y0166215D01*
X0187631Y0070895D02*
X0191631Y0070895D01*
X0187631Y0070895D02*
X0183631Y0074895D01*
X0183631Y0066895D01*
X0187631Y0070895D01*
X0187631Y0080895D02*
X0191631Y0080895D01*
X0187631Y0080895D02*
X0183631Y0084895D01*
X0183631Y0076895D01*
X0187631Y0080895D01*
X0197591Y0051175D02*
X0201591Y0051175D01*
X0197591Y0051175D02*
X0193591Y0055175D01*
X0193591Y0047175D01*
X0197591Y0051175D01*
X0207591Y0051175D02*
X0211591Y0051175D01*
X0207591Y0051175D02*
X0203591Y0055175D01*
X0203591Y0047175D01*
X0207591Y0051175D01*
X0214321Y0093335D02*
X0218321Y0093335D01*
X0214321Y0093335D02*
X0210321Y0097335D01*
X0210321Y0089335D01*
X0214321Y0093335D01*
X0214321Y0103335D02*
X0218321Y0103335D01*
X0214321Y0103335D02*
X0210321Y0107335D01*
X0210321Y0099335D01*
X0214321Y0103335D01*
X0156211Y0102785D02*
X0160211Y0102785D01*
X0156211Y0102785D02*
X0152211Y0106785D01*
X0152211Y0098785D01*
X0156211Y0102785D01*
X0156211Y0112785D02*
X0160211Y0112785D01*
X0156211Y0112785D02*
X0152211Y0116785D01*
X0152211Y0108785D01*
X0156211Y0112785D01*
X0156211Y0122785D02*
X0160211Y0122785D01*
X0156211Y0122785D02*
X0152211Y0126785D01*
X0152211Y0118785D01*
X0156211Y0122785D01*
X0156211Y0092785D02*
X0160211Y0092785D01*
X0156211Y0092785D02*
X0152211Y0096785D01*
X0152211Y0088785D01*
X0156211Y0092785D01*
X0136841Y0146215D02*
X0140841Y0146215D01*
X0136841Y0146215D02*
X0132841Y0150215D01*
X0132841Y0142215D01*
X0136841Y0146215D01*
X0136841Y0156215D02*
X0140841Y0156215D01*
X0136841Y0156215D02*
X0132841Y0160215D01*
X0132841Y0152215D01*
X0136841Y0156215D01*
X0136841Y0166215D02*
X0140841Y0166215D01*
X0136841Y0166215D02*
X0132841Y0170215D01*
X0132841Y0162215D01*
X0136841Y0166215D01*
X0313542Y0070895D02*
X0317542Y0070895D01*
X0313542Y0070895D02*
X0309542Y0074895D01*
X0309542Y0066895D01*
X0313542Y0070895D01*
X0313542Y0080895D02*
X0317542Y0080895D01*
X0313542Y0080895D02*
X0309542Y0084895D01*
X0309542Y0076895D01*
X0313542Y0080895D01*
X0323502Y0051175D02*
X0327502Y0051175D01*
X0323502Y0051175D02*
X0319502Y0055175D01*
X0319502Y0047175D01*
X0323502Y0051175D01*
X0333502Y0051175D02*
X0337502Y0051175D01*
X0333502Y0051175D02*
X0329502Y0055175D01*
X0329502Y0047175D01*
X0333502Y0051175D01*
X0340232Y0093335D02*
X0344232Y0093335D01*
X0340232Y0093335D02*
X0336232Y0097335D01*
X0336232Y0089335D01*
X0340232Y0093335D01*
X0340232Y0103335D02*
X0344232Y0103335D01*
X0340232Y0103335D02*
X0336232Y0107335D01*
X0336232Y0099335D01*
X0340232Y0103335D01*
X0282122Y0102785D02*
X0286122Y0102785D01*
X0282122Y0102785D02*
X0278122Y0106785D01*
X0278122Y0098785D01*
X0282122Y0102785D01*
X0282122Y0112785D02*
X0286122Y0112785D01*
X0282122Y0112785D02*
X0278122Y0116785D01*
X0278122Y0108785D01*
X0282122Y0112785D01*
X0282122Y0122785D02*
X0286122Y0122785D01*
X0282122Y0122785D02*
X0278122Y0126785D01*
X0278122Y0118785D01*
X0282122Y0122785D01*
X0282122Y0092785D02*
X0286122Y0092785D01*
X0282122Y0092785D02*
X0278122Y0096785D01*
X0278122Y0088785D01*
X0282122Y0092785D01*
X0262752Y0146215D02*
X0266752Y0146215D01*
X0262752Y0146215D02*
X0258752Y0150215D01*
X0258752Y0142215D01*
X0262752Y0146215D01*
X0262752Y0156215D02*
X0266752Y0156215D01*
X0262752Y0156215D02*
X0258752Y0160215D01*
X0258752Y0152215D01*
X0262752Y0156215D01*
X0262752Y0166215D02*
X0266752Y0166215D01*
X0262752Y0166215D02*
X0258752Y0170215D01*
X0258752Y0162215D01*
X0262752Y0166215D01*
X0232124Y0306562D02*
X0236124Y0306562D01*
X0232124Y0306562D02*
X0228124Y0310562D01*
X0228124Y0302562D01*
X0232124Y0306562D01*
X0232124Y0296562D02*
X0236124Y0296562D01*
X0232124Y0296562D02*
X0228124Y0300562D01*
X0228124Y0292562D01*
X0232124Y0296562D01*
X0232124Y0286562D02*
X0236124Y0286562D01*
X0232124Y0286562D02*
X0228124Y0290562D01*
X0228124Y0282562D01*
X0232124Y0286562D01*
X0232124Y0276562D02*
X0236124Y0276562D01*
X0232124Y0276562D02*
X0228124Y0280562D01*
X0228124Y0272562D01*
X0232124Y0276562D01*
X0232124Y0369480D02*
X0236124Y0369480D01*
X0232124Y0369480D02*
X0228124Y0373480D01*
X0228124Y0365480D01*
X0232124Y0369480D01*
X0232124Y0359480D02*
X0236124Y0359480D01*
X0232124Y0359480D02*
X0228124Y0363480D01*
X0228124Y0355480D01*
X0232124Y0359480D01*
X0232124Y0349480D02*
X0236124Y0349480D01*
X0232124Y0349480D02*
X0228124Y0353480D01*
X0228124Y0345480D01*
X0232124Y0349480D01*
X0232124Y0339480D02*
X0236124Y0339480D01*
X0232124Y0339480D02*
X0228124Y0343480D01*
X0228124Y0335480D01*
X0232124Y0339480D01*
X0310790Y0306562D02*
X0314790Y0306562D01*
X0310790Y0306562D02*
X0306790Y0310562D01*
X0306790Y0302562D01*
X0310790Y0306562D01*
X0310790Y0296562D02*
X0314790Y0296562D01*
X0310790Y0296562D02*
X0306790Y0300562D01*
X0306790Y0292562D01*
X0310790Y0296562D01*
X0310790Y0286562D02*
X0314790Y0286562D01*
X0310790Y0286562D02*
X0306790Y0290562D01*
X0306790Y0282562D01*
X0310790Y0286562D01*
X0310790Y0276562D02*
X0314790Y0276562D01*
X0310790Y0276562D02*
X0306790Y0280562D01*
X0306790Y0272562D01*
X0310790Y0276562D01*
X0310790Y0369480D02*
X0314790Y0369480D01*
X0310790Y0369480D02*
X0306790Y0373480D01*
X0306790Y0365480D01*
X0310790Y0369480D01*
X0310790Y0359480D02*
X0314790Y0359480D01*
X0310790Y0359480D02*
X0306790Y0363480D01*
X0306790Y0355480D01*
X0310790Y0359480D01*
X0310790Y0349480D02*
X0314790Y0349480D01*
X0310790Y0349480D02*
X0306790Y0353480D01*
X0306790Y0345480D01*
X0310790Y0349480D01*
X0310790Y0339480D02*
X0314790Y0339480D01*
X0310790Y0339480D02*
X0306790Y0343480D01*
X0306790Y0335480D01*
X0310790Y0339480D01*
X0097330Y0174875D02*
X0105330Y0174875D01*
X0101330Y0170875D02*
X0101330Y0178875D01*
X0097430Y0174875D02*
X0097450Y0175265D01*
X0097510Y0175665D01*
X0097610Y0176045D01*
X0097750Y0176415D01*
X0097920Y0176765D01*
X0098130Y0177105D01*
X0098370Y0177415D01*
X0098640Y0177705D01*
X0098940Y0177955D01*
X0099270Y0178185D01*
X0099610Y0178375D01*
X0099980Y0178535D01*
X0100350Y0178655D01*
X0100740Y0178735D01*
X0101130Y0178765D01*
X0101530Y0178765D01*
X0101920Y0178735D01*
X0102310Y0178655D01*
X0102680Y0178535D01*
X0103050Y0178375D01*
X0103390Y0178185D01*
X0103720Y0177955D01*
X0104020Y0177705D01*
X0104290Y0177415D01*
X0104530Y0177105D01*
X0104740Y0176765D01*
X0104910Y0176415D01*
X0105050Y0176045D01*
X0105150Y0175665D01*
X0105210Y0175265D01*
X0105230Y0174875D01*
X0105210Y0174485D01*
X0105150Y0174085D01*
X0105050Y0173705D01*
X0104910Y0173335D01*
X0104740Y0172985D01*
X0104530Y0172645D01*
X0104290Y0172335D01*
X0104020Y0172045D01*
X0103720Y0171795D01*
X0103390Y0171565D01*
X0103050Y0171375D01*
X0102680Y0171215D01*
X0102310Y0171095D01*
X0101920Y0171015D01*
X0101530Y0170985D01*
X0101130Y0170985D01*
X0100740Y0171015D01*
X0100350Y0171095D01*
X0099980Y0171215D01*
X0099610Y0171375D01*
X0099270Y0171565D01*
X0098940Y0171795D01*
X0098640Y0172045D01*
X0098370Y0172335D01*
X0098130Y0172645D01*
X0097920Y0172985D01*
X0097750Y0173335D01*
X0097610Y0173705D01*
X0097510Y0174085D01*
X0097450Y0174485D01*
X0097430Y0174875D01*
X0097330Y0164875D02*
X0105330Y0164875D01*
X0101330Y0160875D02*
X0101330Y0168875D01*
X0097430Y0164875D02*
X0097450Y0165265D01*
X0097510Y0165665D01*
X0097610Y0166045D01*
X0097750Y0166415D01*
X0097920Y0166765D01*
X0098130Y0167105D01*
X0098370Y0167415D01*
X0098640Y0167705D01*
X0098940Y0167955D01*
X0099270Y0168185D01*
X0099610Y0168375D01*
X0099980Y0168535D01*
X0100350Y0168655D01*
X0100740Y0168735D01*
X0101130Y0168765D01*
X0101530Y0168765D01*
X0101920Y0168735D01*
X0102310Y0168655D01*
X0102680Y0168535D01*
X0103050Y0168375D01*
X0103390Y0168185D01*
X0103720Y0167955D01*
X0104020Y0167705D01*
X0104290Y0167415D01*
X0104530Y0167105D01*
X0104740Y0166765D01*
X0104910Y0166415D01*
X0105050Y0166045D01*
X0105150Y0165665D01*
X0105210Y0165265D01*
X0105230Y0164875D01*
X0105210Y0164485D01*
X0105150Y0164085D01*
X0105050Y0163705D01*
X0104910Y0163335D01*
X0104740Y0162985D01*
X0104530Y0162645D01*
X0104290Y0162335D01*
X0104020Y0162045D01*
X0103720Y0161795D01*
X0103390Y0161565D01*
X0103050Y0161375D01*
X0102680Y0161215D01*
X0102310Y0161095D01*
X0101920Y0161015D01*
X0101530Y0160985D01*
X0101130Y0160985D01*
X0100740Y0161015D01*
X0100350Y0161095D01*
X0099980Y0161215D01*
X0099610Y0161375D01*
X0099270Y0161565D01*
X0098940Y0161795D01*
X0098640Y0162045D01*
X0098370Y0162335D01*
X0098130Y0162645D01*
X0097920Y0162985D01*
X0097750Y0163335D01*
X0097610Y0163705D01*
X0097510Y0164085D01*
X0097450Y0164485D01*
X0097430Y0164875D01*
X0107330Y0164875D02*
X0115330Y0164875D01*
X0111330Y0160875D02*
X0111330Y0168875D01*
X0107430Y0164875D02*
X0107450Y0165265D01*
X0107510Y0165665D01*
X0107610Y0166045D01*
X0107750Y0166415D01*
X0107920Y0166765D01*
X0108130Y0167105D01*
X0108370Y0167415D01*
X0108640Y0167705D01*
X0108940Y0167955D01*
X0109270Y0168185D01*
X0109610Y0168375D01*
X0109980Y0168535D01*
X0110350Y0168655D01*
X0110740Y0168735D01*
X0111130Y0168765D01*
X0111530Y0168765D01*
X0111920Y0168735D01*
X0112310Y0168655D01*
X0112680Y0168535D01*
X0113050Y0168375D01*
X0113390Y0168185D01*
X0113720Y0167955D01*
X0114020Y0167705D01*
X0114290Y0167415D01*
X0114530Y0167105D01*
X0114740Y0166765D01*
X0114910Y0166415D01*
X0115050Y0166045D01*
X0115150Y0165665D01*
X0115210Y0165265D01*
X0115230Y0164875D01*
X0115210Y0164485D01*
X0115150Y0164085D01*
X0115050Y0163705D01*
X0114910Y0163335D01*
X0114740Y0162985D01*
X0114530Y0162645D01*
X0114290Y0162335D01*
X0114020Y0162045D01*
X0113720Y0161795D01*
X0113390Y0161565D01*
X0113050Y0161375D01*
X0112680Y0161215D01*
X0112310Y0161095D01*
X0111920Y0161015D01*
X0111530Y0160985D01*
X0111130Y0160985D01*
X0110740Y0161015D01*
X0110350Y0161095D01*
X0109980Y0161215D01*
X0109610Y0161375D01*
X0109270Y0161565D01*
X0108940Y0161795D01*
X0108640Y0162045D01*
X0108370Y0162335D01*
X0108130Y0162645D01*
X0107920Y0162985D01*
X0107750Y0163335D01*
X0107610Y0163705D01*
X0107510Y0164085D01*
X0107450Y0164485D01*
X0107430Y0164875D01*
X0107330Y0174875D02*
X0115330Y0174875D01*
X0111330Y0170875D02*
X0111330Y0178875D01*
X0107430Y0174875D02*
X0107450Y0175265D01*
X0107510Y0175665D01*
X0107610Y0176045D01*
X0107750Y0176415D01*
X0107920Y0176765D01*
X0108130Y0177105D01*
X0108370Y0177415D01*
X0108640Y0177705D01*
X0108940Y0177955D01*
X0109270Y0178185D01*
X0109610Y0178375D01*
X0109980Y0178535D01*
X0110350Y0178655D01*
X0110740Y0178735D01*
X0111130Y0178765D01*
X0111530Y0178765D01*
X0111920Y0178735D01*
X0112310Y0178655D01*
X0112680Y0178535D01*
X0113050Y0178375D01*
X0113390Y0178185D01*
X0113720Y0177955D01*
X0114020Y0177705D01*
X0114290Y0177415D01*
X0114530Y0177105D01*
X0114740Y0176765D01*
X0114910Y0176415D01*
X0115050Y0176045D01*
X0115150Y0175665D01*
X0115210Y0175265D01*
X0115230Y0174875D01*
X0115210Y0174485D01*
X0115150Y0174085D01*
X0115050Y0173705D01*
X0114910Y0173335D01*
X0114740Y0172985D01*
X0114530Y0172645D01*
X0114290Y0172335D01*
X0114020Y0172045D01*
X0113720Y0171795D01*
X0113390Y0171565D01*
X0113050Y0171375D01*
X0112680Y0171215D01*
X0112310Y0171095D01*
X0111920Y0171015D01*
X0111530Y0170985D01*
X0111130Y0170985D01*
X0110740Y0171015D01*
X0110350Y0171095D01*
X0109980Y0171215D01*
X0109610Y0171375D01*
X0109270Y0171565D01*
X0108940Y0171795D01*
X0108640Y0172045D01*
X0108370Y0172335D01*
X0108130Y0172645D01*
X0107920Y0172985D01*
X0107750Y0173335D01*
X0107610Y0173705D01*
X0107510Y0174085D01*
X0107450Y0174485D01*
X0107430Y0174875D01*
X0081340Y0125895D02*
X0089340Y0125895D01*
X0085340Y0121895D02*
X0085340Y0129895D01*
X0081440Y0125895D02*
X0081460Y0126285D01*
X0081520Y0126685D01*
X0081620Y0127065D01*
X0081760Y0127435D01*
X0081930Y0127785D01*
X0082140Y0128125D01*
X0082380Y0128435D01*
X0082650Y0128725D01*
X0082950Y0128975D01*
X0083280Y0129205D01*
X0083620Y0129395D01*
X0083990Y0129555D01*
X0084360Y0129675D01*
X0084750Y0129755D01*
X0085140Y0129785D01*
X0085540Y0129785D01*
X0085930Y0129755D01*
X0086320Y0129675D01*
X0086690Y0129555D01*
X0087060Y0129395D01*
X0087400Y0129205D01*
X0087730Y0128975D01*
X0088030Y0128725D01*
X0088300Y0128435D01*
X0088540Y0128125D01*
X0088750Y0127785D01*
X0088920Y0127435D01*
X0089060Y0127065D01*
X0089160Y0126685D01*
X0089220Y0126285D01*
X0089240Y0125895D01*
X0089220Y0125505D01*
X0089160Y0125105D01*
X0089060Y0124725D01*
X0088920Y0124355D01*
X0088750Y0124005D01*
X0088540Y0123665D01*
X0088300Y0123355D01*
X0088030Y0123065D01*
X0087730Y0122815D01*
X0087400Y0122585D01*
X0087060Y0122395D01*
X0086690Y0122235D01*
X0086320Y0122115D01*
X0085930Y0122035D01*
X0085540Y0122005D01*
X0085140Y0122005D01*
X0084750Y0122035D01*
X0084360Y0122115D01*
X0083990Y0122235D01*
X0083620Y0122395D01*
X0083280Y0122585D01*
X0082950Y0122815D01*
X0082650Y0123065D01*
X0082380Y0123355D01*
X0082140Y0123665D01*
X0081930Y0124005D01*
X0081760Y0124355D01*
X0081620Y0124725D01*
X0081520Y0125105D01*
X0081460Y0125505D01*
X0081440Y0125895D01*
X0077010Y0118415D02*
X0085010Y0118415D01*
X0081010Y0114415D02*
X0081010Y0122415D01*
X0077110Y0118415D02*
X0077130Y0118805D01*
X0077190Y0119205D01*
X0077290Y0119585D01*
X0077430Y0119955D01*
X0077600Y0120305D01*
X0077810Y0120645D01*
X0078050Y0120955D01*
X0078320Y0121245D01*
X0078620Y0121495D01*
X0078950Y0121725D01*
X0079290Y0121915D01*
X0079660Y0122075D01*
X0080030Y0122195D01*
X0080420Y0122275D01*
X0080810Y0122305D01*
X0081210Y0122305D01*
X0081600Y0122275D01*
X0081990Y0122195D01*
X0082360Y0122075D01*
X0082730Y0121915D01*
X0083070Y0121725D01*
X0083400Y0121495D01*
X0083700Y0121245D01*
X0083970Y0120955D01*
X0084210Y0120645D01*
X0084420Y0120305D01*
X0084590Y0119955D01*
X0084730Y0119585D01*
X0084830Y0119205D01*
X0084890Y0118805D01*
X0084910Y0118415D01*
X0084890Y0118025D01*
X0084830Y0117625D01*
X0084730Y0117245D01*
X0084590Y0116875D01*
X0084420Y0116525D01*
X0084210Y0116185D01*
X0083970Y0115875D01*
X0083700Y0115585D01*
X0083400Y0115335D01*
X0083070Y0115105D01*
X0082730Y0114915D01*
X0082360Y0114755D01*
X0081990Y0114635D01*
X0081600Y0114555D01*
X0081210Y0114525D01*
X0080810Y0114525D01*
X0080420Y0114555D01*
X0080030Y0114635D01*
X0079660Y0114755D01*
X0079290Y0114915D01*
X0078950Y0115105D01*
X0078620Y0115335D01*
X0078320Y0115585D01*
X0078050Y0115875D01*
X0077810Y0116185D01*
X0077600Y0116525D01*
X0077430Y0116875D01*
X0077290Y0117245D01*
X0077190Y0117625D01*
X0077130Y0118025D01*
X0077110Y0118415D01*
X0067560Y0098735D02*
X0075560Y0098735D01*
X0071560Y0094735D02*
X0071560Y0102735D01*
X0067660Y0098735D02*
X0067680Y0099125D01*
X0067740Y0099525D01*
X0067840Y0099905D01*
X0067980Y0100275D01*
X0068150Y0100625D01*
X0068360Y0100965D01*
X0068600Y0101275D01*
X0068870Y0101565D01*
X0069170Y0101815D01*
X0069500Y0102045D01*
X0069840Y0102235D01*
X0070210Y0102395D01*
X0070580Y0102515D01*
X0070970Y0102595D01*
X0071360Y0102625D01*
X0071760Y0102625D01*
X0072150Y0102595D01*
X0072540Y0102515D01*
X0072910Y0102395D01*
X0073280Y0102235D01*
X0073620Y0102045D01*
X0073950Y0101815D01*
X0074250Y0101565D01*
X0074520Y0101275D01*
X0074760Y0100965D01*
X0074970Y0100625D01*
X0075140Y0100275D01*
X0075280Y0099905D01*
X0075380Y0099525D01*
X0075440Y0099125D01*
X0075460Y0098735D01*
X0075440Y0098345D01*
X0075380Y0097945D01*
X0075280Y0097565D01*
X0075140Y0097195D01*
X0074970Y0096845D01*
X0074760Y0096505D01*
X0074520Y0096195D01*
X0074250Y0095905D01*
X0073950Y0095655D01*
X0073620Y0095425D01*
X0073280Y0095235D01*
X0072910Y0095075D01*
X0072540Y0094955D01*
X0072150Y0094875D01*
X0071760Y0094845D01*
X0071360Y0094845D01*
X0070970Y0094875D01*
X0070580Y0094955D01*
X0070210Y0095075D01*
X0069840Y0095235D01*
X0069500Y0095425D01*
X0069170Y0095655D01*
X0068870Y0095905D01*
X0068600Y0096195D01*
X0068360Y0096505D01*
X0068150Y0096845D01*
X0067980Y0097195D01*
X0067840Y0097565D01*
X0067740Y0097945D01*
X0067680Y0098345D01*
X0067660Y0098735D01*
X0088430Y0056995D02*
X0096430Y0056995D01*
X0092430Y0052995D02*
X0092430Y0060995D01*
X0088530Y0056995D02*
X0088550Y0057385D01*
X0088610Y0057785D01*
X0088710Y0058165D01*
X0088850Y0058535D01*
X0089020Y0058885D01*
X0089230Y0059225D01*
X0089470Y0059535D01*
X0089740Y0059825D01*
X0090040Y0060075D01*
X0090370Y0060305D01*
X0090710Y0060495D01*
X0091080Y0060655D01*
X0091450Y0060775D01*
X0091840Y0060855D01*
X0092230Y0060885D01*
X0092630Y0060885D01*
X0093020Y0060855D01*
X0093410Y0060775D01*
X0093780Y0060655D01*
X0094150Y0060495D01*
X0094490Y0060305D01*
X0094820Y0060075D01*
X0095120Y0059825D01*
X0095390Y0059535D01*
X0095630Y0059225D01*
X0095840Y0058885D01*
X0096010Y0058535D01*
X0096150Y0058165D01*
X0096250Y0057785D01*
X0096310Y0057385D01*
X0096330Y0056995D01*
X0096310Y0056605D01*
X0096250Y0056205D01*
X0096150Y0055825D01*
X0096010Y0055455D01*
X0095840Y0055105D01*
X0095630Y0054765D01*
X0095390Y0054455D01*
X0095120Y0054165D01*
X0094820Y0053915D01*
X0094490Y0053685D01*
X0094150Y0053495D01*
X0093780Y0053335D01*
X0093410Y0053215D01*
X0093020Y0053135D01*
X0092630Y0053105D01*
X0092230Y0053105D01*
X0091840Y0053135D01*
X0091450Y0053215D01*
X0091080Y0053335D01*
X0090710Y0053495D01*
X0090370Y0053685D01*
X0090040Y0053915D01*
X0089740Y0054165D01*
X0089470Y0054455D01*
X0089230Y0054765D01*
X0089020Y0055105D01*
X0088850Y0055455D01*
X0088710Y0055825D01*
X0088610Y0056205D01*
X0088550Y0056605D01*
X0088530Y0056995D01*
X0019530Y0016055D02*
X0027530Y0016055D01*
X0023530Y0012055D02*
X0023530Y0020055D01*
X0019630Y0016055D02*
X0019650Y0016445D01*
X0019710Y0016845D01*
X0019810Y0017225D01*
X0019950Y0017595D01*
X0020120Y0017945D01*
X0020330Y0018285D01*
X0020570Y0018595D01*
X0020840Y0018885D01*
X0021140Y0019135D01*
X0021470Y0019365D01*
X0021810Y0019555D01*
X0022180Y0019715D01*
X0022550Y0019835D01*
X0022940Y0019915D01*
X0023330Y0019945D01*
X0023730Y0019945D01*
X0024120Y0019915D01*
X0024510Y0019835D01*
X0024880Y0019715D01*
X0025250Y0019555D01*
X0025590Y0019365D01*
X0025920Y0019135D01*
X0026220Y0018885D01*
X0026490Y0018595D01*
X0026730Y0018285D01*
X0026940Y0017945D01*
X0027110Y0017595D01*
X0027250Y0017225D01*
X0027350Y0016845D01*
X0027410Y0016445D01*
X0027430Y0016055D01*
X0027410Y0015665D01*
X0027350Y0015265D01*
X0027250Y0014885D01*
X0027110Y0014515D01*
X0026940Y0014165D01*
X0026730Y0013825D01*
X0026490Y0013515D01*
X0026220Y0013225D01*
X0025920Y0012975D01*
X0025590Y0012745D01*
X0025250Y0012555D01*
X0024880Y0012395D01*
X0024510Y0012275D01*
X0024120Y0012195D01*
X0023730Y0012165D01*
X0023330Y0012165D01*
X0022940Y0012195D01*
X0022550Y0012275D01*
X0022180Y0012395D01*
X0021810Y0012555D01*
X0021470Y0012745D01*
X0021140Y0012975D01*
X0020840Y0013225D01*
X0020570Y0013515D01*
X0020330Y0013825D01*
X0020120Y0014165D01*
X0019950Y0014515D01*
X0019810Y0014885D01*
X0019710Y0015265D01*
X0019650Y0015665D01*
X0019630Y0016055D01*
X0223241Y0174875D02*
X0231241Y0174875D01*
X0227241Y0170875D02*
X0227241Y0178875D01*
X0223341Y0174875D02*
X0223361Y0175265D01*
X0223421Y0175665D01*
X0223521Y0176045D01*
X0223661Y0176415D01*
X0223831Y0176765D01*
X0224041Y0177105D01*
X0224281Y0177415D01*
X0224551Y0177705D01*
X0224851Y0177955D01*
X0225181Y0178185D01*
X0225521Y0178375D01*
X0225891Y0178535D01*
X0226261Y0178655D01*
X0226651Y0178735D01*
X0227041Y0178765D01*
X0227441Y0178765D01*
X0227831Y0178735D01*
X0228221Y0178655D01*
X0228591Y0178535D01*
X0228961Y0178375D01*
X0229301Y0178185D01*
X0229631Y0177955D01*
X0229931Y0177705D01*
X0230201Y0177415D01*
X0230441Y0177105D01*
X0230651Y0176765D01*
X0230821Y0176415D01*
X0230961Y0176045D01*
X0231061Y0175665D01*
X0231121Y0175265D01*
X0231141Y0174875D01*
X0231121Y0174485D01*
X0231061Y0174085D01*
X0230961Y0173705D01*
X0230821Y0173335D01*
X0230651Y0172985D01*
X0230441Y0172645D01*
X0230201Y0172335D01*
X0229931Y0172045D01*
X0229631Y0171795D01*
X0229301Y0171565D01*
X0228961Y0171375D01*
X0228591Y0171215D01*
X0228221Y0171095D01*
X0227831Y0171015D01*
X0227441Y0170985D01*
X0227041Y0170985D01*
X0226651Y0171015D01*
X0226261Y0171095D01*
X0225891Y0171215D01*
X0225521Y0171375D01*
X0225181Y0171565D01*
X0224851Y0171795D01*
X0224551Y0172045D01*
X0224281Y0172335D01*
X0224041Y0172645D01*
X0223831Y0172985D01*
X0223661Y0173335D01*
X0223521Y0173705D01*
X0223421Y0174085D01*
X0223361Y0174485D01*
X0223341Y0174875D01*
X0223241Y0164875D02*
X0231241Y0164875D01*
X0227241Y0160875D02*
X0227241Y0168875D01*
X0223341Y0164875D02*
X0223361Y0165265D01*
X0223421Y0165665D01*
X0223521Y0166045D01*
X0223661Y0166415D01*
X0223831Y0166765D01*
X0224041Y0167105D01*
X0224281Y0167415D01*
X0224551Y0167705D01*
X0224851Y0167955D01*
X0225181Y0168185D01*
X0225521Y0168375D01*
X0225891Y0168535D01*
X0226261Y0168655D01*
X0226651Y0168735D01*
X0227041Y0168765D01*
X0227441Y0168765D01*
X0227831Y0168735D01*
X0228221Y0168655D01*
X0228591Y0168535D01*
X0228961Y0168375D01*
X0229301Y0168185D01*
X0229631Y0167955D01*
X0229931Y0167705D01*
X0230201Y0167415D01*
X0230441Y0167105D01*
X0230651Y0166765D01*
X0230821Y0166415D01*
X0230961Y0166045D01*
X0231061Y0165665D01*
X0231121Y0165265D01*
X0231141Y0164875D01*
X0231121Y0164485D01*
X0231061Y0164085D01*
X0230961Y0163705D01*
X0230821Y0163335D01*
X0230651Y0162985D01*
X0230441Y0162645D01*
X0230201Y0162335D01*
X0229931Y0162045D01*
X0229631Y0161795D01*
X0229301Y0161565D01*
X0228961Y0161375D01*
X0228591Y0161215D01*
X0228221Y0161095D01*
X0227831Y0161015D01*
X0227441Y0160985D01*
X0227041Y0160985D01*
X0226651Y0161015D01*
X0226261Y0161095D01*
X0225891Y0161215D01*
X0225521Y0161375D01*
X0225181Y0161565D01*
X0224851Y0161795D01*
X0224551Y0162045D01*
X0224281Y0162335D01*
X0224041Y0162645D01*
X0223831Y0162985D01*
X0223661Y0163335D01*
X0223521Y0163705D01*
X0223421Y0164085D01*
X0223361Y0164485D01*
X0223341Y0164875D01*
X0233241Y0164875D02*
X0241241Y0164875D01*
X0237241Y0160875D02*
X0237241Y0168875D01*
X0233341Y0164875D02*
X0233361Y0165265D01*
X0233421Y0165665D01*
X0233521Y0166045D01*
X0233661Y0166415D01*
X0233831Y0166765D01*
X0234041Y0167105D01*
X0234281Y0167415D01*
X0234551Y0167705D01*
X0234851Y0167955D01*
X0235181Y0168185D01*
X0235521Y0168375D01*
X0235891Y0168535D01*
X0236261Y0168655D01*
X0236651Y0168735D01*
X0237041Y0168765D01*
X0237441Y0168765D01*
X0237831Y0168735D01*
X0238221Y0168655D01*
X0238591Y0168535D01*
X0238961Y0168375D01*
X0239301Y0168185D01*
X0239631Y0167955D01*
X0239931Y0167705D01*
X0240201Y0167415D01*
X0240441Y0167105D01*
X0240651Y0166765D01*
X0240821Y0166415D01*
X0240961Y0166045D01*
X0241061Y0165665D01*
X0241121Y0165265D01*
X0241141Y0164875D01*
X0241121Y0164485D01*
X0241061Y0164085D01*
X0240961Y0163705D01*
X0240821Y0163335D01*
X0240651Y0162985D01*
X0240441Y0162645D01*
X0240201Y0162335D01*
X0239931Y0162045D01*
X0239631Y0161795D01*
X0239301Y0161565D01*
X0238961Y0161375D01*
X0238591Y0161215D01*
X0238221Y0161095D01*
X0237831Y0161015D01*
X0237441Y0160985D01*
X0237041Y0160985D01*
X0236651Y0161015D01*
X0236261Y0161095D01*
X0235891Y0161215D01*
X0235521Y0161375D01*
X0235181Y0161565D01*
X0234851Y0161795D01*
X0234551Y0162045D01*
X0234281Y0162335D01*
X0234041Y0162645D01*
X0233831Y0162985D01*
X0233661Y0163335D01*
X0233521Y0163705D01*
X0233421Y0164085D01*
X0233361Y0164485D01*
X0233341Y0164875D01*
X0233241Y0174875D02*
X0241241Y0174875D01*
X0237241Y0170875D02*
X0237241Y0178875D01*
X0233341Y0174875D02*
X0233361Y0175265D01*
X0233421Y0175665D01*
X0233521Y0176045D01*
X0233661Y0176415D01*
X0233831Y0176765D01*
X0234041Y0177105D01*
X0234281Y0177415D01*
X0234551Y0177705D01*
X0234851Y0177955D01*
X0235181Y0178185D01*
X0235521Y0178375D01*
X0235891Y0178535D01*
X0236261Y0178655D01*
X0236651Y0178735D01*
X0237041Y0178765D01*
X0237441Y0178765D01*
X0237831Y0178735D01*
X0238221Y0178655D01*
X0238591Y0178535D01*
X0238961Y0178375D01*
X0239301Y0178185D01*
X0239631Y0177955D01*
X0239931Y0177705D01*
X0240201Y0177415D01*
X0240441Y0177105D01*
X0240651Y0176765D01*
X0240821Y0176415D01*
X0240961Y0176045D01*
X0241061Y0175665D01*
X0241121Y0175265D01*
X0241141Y0174875D01*
X0241121Y0174485D01*
X0241061Y0174085D01*
X0240961Y0173705D01*
X0240821Y0173335D01*
X0240651Y0172985D01*
X0240441Y0172645D01*
X0240201Y0172335D01*
X0239931Y0172045D01*
X0239631Y0171795D01*
X0239301Y0171565D01*
X0238961Y0171375D01*
X0238591Y0171215D01*
X0238221Y0171095D01*
X0237831Y0171015D01*
X0237441Y0170985D01*
X0237041Y0170985D01*
X0236651Y0171015D01*
X0236261Y0171095D01*
X0235891Y0171215D01*
X0235521Y0171375D01*
X0235181Y0171565D01*
X0234851Y0171795D01*
X0234551Y0172045D01*
X0234281Y0172335D01*
X0234041Y0172645D01*
X0233831Y0172985D01*
X0233661Y0173335D01*
X0233521Y0173705D01*
X0233421Y0174085D01*
X0233361Y0174485D01*
X0233341Y0174875D01*
X0207251Y0125895D02*
X0215251Y0125895D01*
X0211251Y0121895D02*
X0211251Y0129895D01*
X0207351Y0125895D02*
X0207371Y0126285D01*
X0207431Y0126685D01*
X0207531Y0127065D01*
X0207671Y0127435D01*
X0207841Y0127785D01*
X0208051Y0128125D01*
X0208291Y0128435D01*
X0208561Y0128725D01*
X0208861Y0128975D01*
X0209191Y0129205D01*
X0209531Y0129395D01*
X0209901Y0129555D01*
X0210271Y0129675D01*
X0210661Y0129755D01*
X0211051Y0129785D01*
X0211451Y0129785D01*
X0211841Y0129755D01*
X0212231Y0129675D01*
X0212601Y0129555D01*
X0212971Y0129395D01*
X0213311Y0129205D01*
X0213641Y0128975D01*
X0213941Y0128725D01*
X0214211Y0128435D01*
X0214451Y0128125D01*
X0214661Y0127785D01*
X0214831Y0127435D01*
X0214971Y0127065D01*
X0215071Y0126685D01*
X0215131Y0126285D01*
X0215151Y0125895D01*
X0215131Y0125505D01*
X0215071Y0125105D01*
X0214971Y0124725D01*
X0214831Y0124355D01*
X0214661Y0124005D01*
X0214451Y0123665D01*
X0214211Y0123355D01*
X0213941Y0123065D01*
X0213641Y0122815D01*
X0213311Y0122585D01*
X0212971Y0122395D01*
X0212601Y0122235D01*
X0212231Y0122115D01*
X0211841Y0122035D01*
X0211451Y0122005D01*
X0211051Y0122005D01*
X0210661Y0122035D01*
X0210271Y0122115D01*
X0209901Y0122235D01*
X0209531Y0122395D01*
X0209191Y0122585D01*
X0208861Y0122815D01*
X0208561Y0123065D01*
X0208291Y0123355D01*
X0208051Y0123665D01*
X0207841Y0124005D01*
X0207671Y0124355D01*
X0207531Y0124725D01*
X0207431Y0125105D01*
X0207371Y0125505D01*
X0207351Y0125895D01*
X0202921Y0118415D02*
X0210921Y0118415D01*
X0206921Y0114415D02*
X0206921Y0122415D01*
X0203021Y0118415D02*
X0203041Y0118805D01*
X0203101Y0119205D01*
X0203201Y0119585D01*
X0203341Y0119955D01*
X0203511Y0120305D01*
X0203721Y0120645D01*
X0203961Y0120955D01*
X0204231Y0121245D01*
X0204531Y0121495D01*
X0204861Y0121725D01*
X0205201Y0121915D01*
X0205571Y0122075D01*
X0205941Y0122195D01*
X0206331Y0122275D01*
X0206721Y0122305D01*
X0207121Y0122305D01*
X0207511Y0122275D01*
X0207901Y0122195D01*
X0208271Y0122075D01*
X0208641Y0121915D01*
X0208981Y0121725D01*
X0209311Y0121495D01*
X0209611Y0121245D01*
X0209881Y0120955D01*
X0210121Y0120645D01*
X0210331Y0120305D01*
X0210501Y0119955D01*
X0210641Y0119585D01*
X0210741Y0119205D01*
X0210801Y0118805D01*
X0210821Y0118415D01*
X0210801Y0118025D01*
X0210741Y0117625D01*
X0210641Y0117245D01*
X0210501Y0116875D01*
X0210331Y0116525D01*
X0210121Y0116185D01*
X0209881Y0115875D01*
X0209611Y0115585D01*
X0209311Y0115335D01*
X0208981Y0115105D01*
X0208641Y0114915D01*
X0208271Y0114755D01*
X0207901Y0114635D01*
X0207511Y0114555D01*
X0207121Y0114525D01*
X0206721Y0114525D01*
X0206331Y0114555D01*
X0205941Y0114635D01*
X0205571Y0114755D01*
X0205201Y0114915D01*
X0204861Y0115105D01*
X0204531Y0115335D01*
X0204231Y0115585D01*
X0203961Y0115875D01*
X0203721Y0116185D01*
X0203511Y0116525D01*
X0203341Y0116875D01*
X0203201Y0117245D01*
X0203101Y0117625D01*
X0203041Y0118025D01*
X0203021Y0118415D01*
X0193471Y0098735D02*
X0201471Y0098735D01*
X0197471Y0094735D02*
X0197471Y0102735D01*
X0193571Y0098735D02*
X0193591Y0099125D01*
X0193651Y0099525D01*
X0193751Y0099905D01*
X0193891Y0100275D01*
X0194061Y0100625D01*
X0194271Y0100965D01*
X0194511Y0101275D01*
X0194781Y0101565D01*
X0195081Y0101815D01*
X0195411Y0102045D01*
X0195751Y0102235D01*
X0196121Y0102395D01*
X0196491Y0102515D01*
X0196881Y0102595D01*
X0197271Y0102625D01*
X0197671Y0102625D01*
X0198061Y0102595D01*
X0198451Y0102515D01*
X0198821Y0102395D01*
X0199191Y0102235D01*
X0199531Y0102045D01*
X0199861Y0101815D01*
X0200161Y0101565D01*
X0200431Y0101275D01*
X0200671Y0100965D01*
X0200881Y0100625D01*
X0201051Y0100275D01*
X0201191Y0099905D01*
X0201291Y0099525D01*
X0201351Y0099125D01*
X0201371Y0098735D01*
X0201351Y0098345D01*
X0201291Y0097945D01*
X0201191Y0097565D01*
X0201051Y0097195D01*
X0200881Y0096845D01*
X0200671Y0096505D01*
X0200431Y0096195D01*
X0200161Y0095905D01*
X0199861Y0095655D01*
X0199531Y0095425D01*
X0199191Y0095235D01*
X0198821Y0095075D01*
X0198451Y0094955D01*
X0198061Y0094875D01*
X0197671Y0094845D01*
X0197271Y0094845D01*
X0196881Y0094875D01*
X0196491Y0094955D01*
X0196121Y0095075D01*
X0195751Y0095235D01*
X0195411Y0095425D01*
X0195081Y0095655D01*
X0194781Y0095905D01*
X0194511Y0096195D01*
X0194271Y0096505D01*
X0194061Y0096845D01*
X0193891Y0097195D01*
X0193751Y0097565D01*
X0193651Y0097945D01*
X0193591Y0098345D01*
X0193571Y0098735D01*
X0214341Y0056995D02*
X0222341Y0056995D01*
X0218341Y0052995D02*
X0218341Y0060995D01*
X0214441Y0056995D02*
X0214461Y0057385D01*
X0214521Y0057785D01*
X0214621Y0058165D01*
X0214761Y0058535D01*
X0214931Y0058885D01*
X0215141Y0059225D01*
X0215381Y0059535D01*
X0215651Y0059825D01*
X0215951Y0060075D01*
X0216281Y0060305D01*
X0216621Y0060495D01*
X0216991Y0060655D01*
X0217361Y0060775D01*
X0217751Y0060855D01*
X0218141Y0060885D01*
X0218541Y0060885D01*
X0218931Y0060855D01*
X0219321Y0060775D01*
X0219691Y0060655D01*
X0220061Y0060495D01*
X0220401Y0060305D01*
X0220731Y0060075D01*
X0221031Y0059825D01*
X0221301Y0059535D01*
X0221541Y0059225D01*
X0221751Y0058885D01*
X0221921Y0058535D01*
X0222061Y0058165D01*
X0222161Y0057785D01*
X0222221Y0057385D01*
X0222241Y0056995D01*
X0222221Y0056605D01*
X0222161Y0056205D01*
X0222061Y0055825D01*
X0221921Y0055455D01*
X0221751Y0055105D01*
X0221541Y0054765D01*
X0221301Y0054455D01*
X0221031Y0054165D01*
X0220731Y0053915D01*
X0220401Y0053685D01*
X0220061Y0053495D01*
X0219691Y0053335D01*
X0219321Y0053215D01*
X0218931Y0053135D01*
X0218541Y0053105D01*
X0218141Y0053105D01*
X0217751Y0053135D01*
X0217361Y0053215D01*
X0216991Y0053335D01*
X0216621Y0053495D01*
X0216281Y0053685D01*
X0215951Y0053915D01*
X0215651Y0054165D01*
X0215381Y0054455D01*
X0215141Y0054765D01*
X0214931Y0055105D01*
X0214761Y0055455D01*
X0214621Y0055825D01*
X0214521Y0056205D01*
X0214461Y0056605D01*
X0214441Y0056995D01*
X0145441Y0016055D02*
X0153441Y0016055D01*
X0149441Y0012055D02*
X0149441Y0020055D01*
X0145541Y0016055D02*
X0145561Y0016445D01*
X0145621Y0016845D01*
X0145721Y0017225D01*
X0145861Y0017595D01*
X0146031Y0017945D01*
X0146241Y0018285D01*
X0146481Y0018595D01*
X0146751Y0018885D01*
X0147051Y0019135D01*
X0147381Y0019365D01*
X0147721Y0019555D01*
X0148091Y0019715D01*
X0148461Y0019835D01*
X0148851Y0019915D01*
X0149241Y0019945D01*
X0149641Y0019945D01*
X0150031Y0019915D01*
X0150421Y0019835D01*
X0150791Y0019715D01*
X0151161Y0019555D01*
X0151501Y0019365D01*
X0151831Y0019135D01*
X0152131Y0018885D01*
X0152401Y0018595D01*
X0152641Y0018285D01*
X0152851Y0017945D01*
X0153021Y0017595D01*
X0153161Y0017225D01*
X0153261Y0016845D01*
X0153321Y0016445D01*
X0153341Y0016055D01*
X0153321Y0015665D01*
X0153261Y0015265D01*
X0153161Y0014885D01*
X0153021Y0014515D01*
X0152851Y0014165D01*
X0152641Y0013825D01*
X0152401Y0013515D01*
X0152131Y0013225D01*
X0151831Y0012975D01*
X0151501Y0012745D01*
X0151161Y0012555D01*
X0150791Y0012395D01*
X0150421Y0012275D01*
X0150031Y0012195D01*
X0149641Y0012165D01*
X0149241Y0012165D01*
X0148851Y0012195D01*
X0148461Y0012275D01*
X0148091Y0012395D01*
X0147721Y0012555D01*
X0147381Y0012745D01*
X0147051Y0012975D01*
X0146751Y0013225D01*
X0146481Y0013515D01*
X0146241Y0013825D01*
X0146031Y0014165D01*
X0145861Y0014515D01*
X0145721Y0014885D01*
X0145621Y0015265D01*
X0145561Y0015665D01*
X0145541Y0016055D01*
X0349152Y0174875D02*
X0357152Y0174875D01*
X0353152Y0170875D02*
X0353152Y0178875D01*
X0349252Y0174875D02*
X0349272Y0175265D01*
X0349332Y0175665D01*
X0349432Y0176045D01*
X0349572Y0176415D01*
X0349742Y0176765D01*
X0349952Y0177105D01*
X0350192Y0177415D01*
X0350462Y0177705D01*
X0350762Y0177955D01*
X0351092Y0178185D01*
X0351432Y0178375D01*
X0351802Y0178535D01*
X0352172Y0178655D01*
X0352562Y0178735D01*
X0352952Y0178765D01*
X0353352Y0178765D01*
X0353742Y0178735D01*
X0354132Y0178655D01*
X0354502Y0178535D01*
X0354872Y0178375D01*
X0355212Y0178185D01*
X0355542Y0177955D01*
X0355842Y0177705D01*
X0356112Y0177415D01*
X0356352Y0177105D01*
X0356562Y0176765D01*
X0356732Y0176415D01*
X0356872Y0176045D01*
X0356972Y0175665D01*
X0357032Y0175265D01*
X0357052Y0174875D01*
X0357032Y0174485D01*
X0356972Y0174085D01*
X0356872Y0173705D01*
X0356732Y0173335D01*
X0356562Y0172985D01*
X0356352Y0172645D01*
X0356112Y0172335D01*
X0355842Y0172045D01*
X0355542Y0171795D01*
X0355212Y0171565D01*
X0354872Y0171375D01*
X0354502Y0171215D01*
X0354132Y0171095D01*
X0353742Y0171015D01*
X0353352Y0170985D01*
X0352952Y0170985D01*
X0352562Y0171015D01*
X0352172Y0171095D01*
X0351802Y0171215D01*
X0351432Y0171375D01*
X0351092Y0171565D01*
X0350762Y0171795D01*
X0350462Y0172045D01*
X0350192Y0172335D01*
X0349952Y0172645D01*
X0349742Y0172985D01*
X0349572Y0173335D01*
X0349432Y0173705D01*
X0349332Y0174085D01*
X0349272Y0174485D01*
X0349252Y0174875D01*
X0349152Y0164875D02*
X0357152Y0164875D01*
X0353152Y0160875D02*
X0353152Y0168875D01*
X0349252Y0164875D02*
X0349272Y0165265D01*
X0349332Y0165665D01*
X0349432Y0166045D01*
X0349572Y0166415D01*
X0349742Y0166765D01*
X0349952Y0167105D01*
X0350192Y0167415D01*
X0350462Y0167705D01*
X0350762Y0167955D01*
X0351092Y0168185D01*
X0351432Y0168375D01*
X0351802Y0168535D01*
X0352172Y0168655D01*
X0352562Y0168735D01*
X0352952Y0168765D01*
X0353352Y0168765D01*
X0353742Y0168735D01*
X0354132Y0168655D01*
X0354502Y0168535D01*
X0354872Y0168375D01*
X0355212Y0168185D01*
X0355542Y0167955D01*
X0355842Y0167705D01*
X0356112Y0167415D01*
X0356352Y0167105D01*
X0356562Y0166765D01*
X0356732Y0166415D01*
X0356872Y0166045D01*
X0356972Y0165665D01*
X0357032Y0165265D01*
X0357052Y0164875D01*
X0357032Y0164485D01*
X0356972Y0164085D01*
X0356872Y0163705D01*
X0356732Y0163335D01*
X0356562Y0162985D01*
X0356352Y0162645D01*
X0356112Y0162335D01*
X0355842Y0162045D01*
X0355542Y0161795D01*
X0355212Y0161565D01*
X0354872Y0161375D01*
X0354502Y0161215D01*
X0354132Y0161095D01*
X0353742Y0161015D01*
X0353352Y0160985D01*
X0352952Y0160985D01*
X0352562Y0161015D01*
X0352172Y0161095D01*
X0351802Y0161215D01*
X0351432Y0161375D01*
X0351092Y0161565D01*
X0350762Y0161795D01*
X0350462Y0162045D01*
X0350192Y0162335D01*
X0349952Y0162645D01*
X0349742Y0162985D01*
X0349572Y0163335D01*
X0349432Y0163705D01*
X0349332Y0164085D01*
X0349272Y0164485D01*
X0349252Y0164875D01*
X0359152Y0164875D02*
X0367152Y0164875D01*
X0363152Y0160875D02*
X0363152Y0168875D01*
X0359252Y0164875D02*
X0359272Y0165265D01*
X0359332Y0165665D01*
X0359432Y0166045D01*
X0359572Y0166415D01*
X0359742Y0166765D01*
X0359952Y0167105D01*
X0360192Y0167415D01*
X0360462Y0167705D01*
X0360762Y0167955D01*
X0361092Y0168185D01*
X0361432Y0168375D01*
X0361802Y0168535D01*
X0362172Y0168655D01*
X0362562Y0168735D01*
X0362952Y0168765D01*
X0363352Y0168765D01*
X0363742Y0168735D01*
X0364132Y0168655D01*
X0364502Y0168535D01*
X0364872Y0168375D01*
X0365212Y0168185D01*
X0365542Y0167955D01*
X0365842Y0167705D01*
X0366112Y0167415D01*
X0366352Y0167105D01*
X0366562Y0166765D01*
X0366732Y0166415D01*
X0366872Y0166045D01*
X0366972Y0165665D01*
X0367032Y0165265D01*
X0367052Y0164875D01*
X0367032Y0164485D01*
X0366972Y0164085D01*
X0366872Y0163705D01*
X0366732Y0163335D01*
X0366562Y0162985D01*
X0366352Y0162645D01*
X0366112Y0162335D01*
X0365842Y0162045D01*
X0365542Y0161795D01*
X0365212Y0161565D01*
X0364872Y0161375D01*
X0364502Y0161215D01*
X0364132Y0161095D01*
X0363742Y0161015D01*
X0363352Y0160985D01*
X0362952Y0160985D01*
X0362562Y0161015D01*
X0362172Y0161095D01*
X0361802Y0161215D01*
X0361432Y0161375D01*
X0361092Y0161565D01*
X0360762Y0161795D01*
X0360462Y0162045D01*
X0360192Y0162335D01*
X0359952Y0162645D01*
X0359742Y0162985D01*
X0359572Y0163335D01*
X0359432Y0163705D01*
X0359332Y0164085D01*
X0359272Y0164485D01*
X0359252Y0164875D01*
X0359152Y0174875D02*
X0367152Y0174875D01*
X0363152Y0170875D02*
X0363152Y0178875D01*
X0359252Y0174875D02*
X0359272Y0175265D01*
X0359332Y0175665D01*
X0359432Y0176045D01*
X0359572Y0176415D01*
X0359742Y0176765D01*
X0359952Y0177105D01*
X0360192Y0177415D01*
X0360462Y0177705D01*
X0360762Y0177955D01*
X0361092Y0178185D01*
X0361432Y0178375D01*
X0361802Y0178535D01*
X0362172Y0178655D01*
X0362562Y0178735D01*
X0362952Y0178765D01*
X0363352Y0178765D01*
X0363742Y0178735D01*
X0364132Y0178655D01*
X0364502Y0178535D01*
X0364872Y0178375D01*
X0365212Y0178185D01*
X0365542Y0177955D01*
X0365842Y0177705D01*
X0366112Y0177415D01*
X0366352Y0177105D01*
X0366562Y0176765D01*
X0366732Y0176415D01*
X0366872Y0176045D01*
X0366972Y0175665D01*
X0367032Y0175265D01*
X0367052Y0174875D01*
X0367032Y0174485D01*
X0366972Y0174085D01*
X0366872Y0173705D01*
X0366732Y0173335D01*
X0366562Y0172985D01*
X0366352Y0172645D01*
X0366112Y0172335D01*
X0365842Y0172045D01*
X0365542Y0171795D01*
X0365212Y0171565D01*
X0364872Y0171375D01*
X0364502Y0171215D01*
X0364132Y0171095D01*
X0363742Y0171015D01*
X0363352Y0170985D01*
X0362952Y0170985D01*
X0362562Y0171015D01*
X0362172Y0171095D01*
X0361802Y0171215D01*
X0361432Y0171375D01*
X0361092Y0171565D01*
X0360762Y0171795D01*
X0360462Y0172045D01*
X0360192Y0172335D01*
X0359952Y0172645D01*
X0359742Y0172985D01*
X0359572Y0173335D01*
X0359432Y0173705D01*
X0359332Y0174085D01*
X0359272Y0174485D01*
X0359252Y0174875D01*
X0333162Y0125895D02*
X0341162Y0125895D01*
X0337162Y0121895D02*
X0337162Y0129895D01*
X0333262Y0125895D02*
X0333282Y0126285D01*
X0333342Y0126685D01*
X0333442Y0127065D01*
X0333582Y0127435D01*
X0333752Y0127785D01*
X0333962Y0128125D01*
X0334202Y0128435D01*
X0334472Y0128725D01*
X0334772Y0128975D01*
X0335102Y0129205D01*
X0335442Y0129395D01*
X0335812Y0129555D01*
X0336182Y0129675D01*
X0336572Y0129755D01*
X0336962Y0129785D01*
X0337362Y0129785D01*
X0337752Y0129755D01*
X0338142Y0129675D01*
X0338512Y0129555D01*
X0338882Y0129395D01*
X0339222Y0129205D01*
X0339552Y0128975D01*
X0339852Y0128725D01*
X0340122Y0128435D01*
X0340362Y0128125D01*
X0340572Y0127785D01*
X0340742Y0127435D01*
X0340882Y0127065D01*
X0340982Y0126685D01*
X0341042Y0126285D01*
X0341062Y0125895D01*
X0341042Y0125505D01*
X0340982Y0125105D01*
X0340882Y0124725D01*
X0340742Y0124355D01*
X0340572Y0124005D01*
X0340362Y0123665D01*
X0340122Y0123355D01*
X0339852Y0123065D01*
X0339552Y0122815D01*
X0339222Y0122585D01*
X0338882Y0122395D01*
X0338512Y0122235D01*
X0338142Y0122115D01*
X0337752Y0122035D01*
X0337362Y0122005D01*
X0336962Y0122005D01*
X0336572Y0122035D01*
X0336182Y0122115D01*
X0335812Y0122235D01*
X0335442Y0122395D01*
X0335102Y0122585D01*
X0334772Y0122815D01*
X0334472Y0123065D01*
X0334202Y0123355D01*
X0333962Y0123665D01*
X0333752Y0124005D01*
X0333582Y0124355D01*
X0333442Y0124725D01*
X0333342Y0125105D01*
X0333282Y0125505D01*
X0333262Y0125895D01*
X0328832Y0118415D02*
X0336832Y0118415D01*
X0332832Y0114415D02*
X0332832Y0122415D01*
X0328932Y0118415D02*
X0328952Y0118805D01*
X0329012Y0119205D01*
X0329112Y0119585D01*
X0329252Y0119955D01*
X0329422Y0120305D01*
X0329632Y0120645D01*
X0329872Y0120955D01*
X0330142Y0121245D01*
X0330442Y0121495D01*
X0330772Y0121725D01*
X0331112Y0121915D01*
X0331482Y0122075D01*
X0331852Y0122195D01*
X0332242Y0122275D01*
X0332632Y0122305D01*
X0333032Y0122305D01*
X0333422Y0122275D01*
X0333812Y0122195D01*
X0334182Y0122075D01*
X0334552Y0121915D01*
X0334892Y0121725D01*
X0335222Y0121495D01*
X0335522Y0121245D01*
X0335792Y0120955D01*
X0336032Y0120645D01*
X0336242Y0120305D01*
X0336412Y0119955D01*
X0336552Y0119585D01*
X0336652Y0119205D01*
X0336712Y0118805D01*
X0336732Y0118415D01*
X0336712Y0118025D01*
X0336652Y0117625D01*
X0336552Y0117245D01*
X0336412Y0116875D01*
X0336242Y0116525D01*
X0336032Y0116185D01*
X0335792Y0115875D01*
X0335522Y0115585D01*
X0335222Y0115335D01*
X0334892Y0115105D01*
X0334552Y0114915D01*
X0334182Y0114755D01*
X0333812Y0114635D01*
X0333422Y0114555D01*
X0333032Y0114525D01*
X0332632Y0114525D01*
X0332242Y0114555D01*
X0331852Y0114635D01*
X0331482Y0114755D01*
X0331112Y0114915D01*
X0330772Y0115105D01*
X0330442Y0115335D01*
X0330142Y0115585D01*
X0329872Y0115875D01*
X0329632Y0116185D01*
X0329422Y0116525D01*
X0329252Y0116875D01*
X0329112Y0117245D01*
X0329012Y0117625D01*
X0328952Y0118025D01*
X0328932Y0118415D01*
X0319382Y0098735D02*
X0327382Y0098735D01*
X0323382Y0094735D02*
X0323382Y0102735D01*
X0319482Y0098735D02*
X0319502Y0099125D01*
X0319562Y0099525D01*
X0319662Y0099905D01*
X0319802Y0100275D01*
X0319972Y0100625D01*
X0320182Y0100965D01*
X0320422Y0101275D01*
X0320692Y0101565D01*
X0320992Y0101815D01*
X0321322Y0102045D01*
X0321662Y0102235D01*
X0322032Y0102395D01*
X0322402Y0102515D01*
X0322792Y0102595D01*
X0323182Y0102625D01*
X0323582Y0102625D01*
X0323972Y0102595D01*
X0324362Y0102515D01*
X0324732Y0102395D01*
X0325102Y0102235D01*
X0325442Y0102045D01*
X0325772Y0101815D01*
X0326072Y0101565D01*
X0326342Y0101275D01*
X0326582Y0100965D01*
X0326792Y0100625D01*
X0326962Y0100275D01*
X0327102Y0099905D01*
X0327202Y0099525D01*
X0327262Y0099125D01*
X0327282Y0098735D01*
X0327262Y0098345D01*
X0327202Y0097945D01*
X0327102Y0097565D01*
X0326962Y0097195D01*
X0326792Y0096845D01*
X0326582Y0096505D01*
X0326342Y0096195D01*
X0326072Y0095905D01*
X0325772Y0095655D01*
X0325442Y0095425D01*
X0325102Y0095235D01*
X0324732Y0095075D01*
X0324362Y0094955D01*
X0323972Y0094875D01*
X0323582Y0094845D01*
X0323182Y0094845D01*
X0322792Y0094875D01*
X0322402Y0094955D01*
X0322032Y0095075D01*
X0321662Y0095235D01*
X0321322Y0095425D01*
X0320992Y0095655D01*
X0320692Y0095905D01*
X0320422Y0096195D01*
X0320182Y0096505D01*
X0319972Y0096845D01*
X0319802Y0097195D01*
X0319662Y0097565D01*
X0319562Y0097945D01*
X0319502Y0098345D01*
X0319482Y0098735D01*
X0340252Y0056995D02*
X0348252Y0056995D01*
X0344252Y0052995D02*
X0344252Y0060995D01*
X0340352Y0056995D02*
X0340372Y0057385D01*
X0340432Y0057785D01*
X0340532Y0058165D01*
X0340672Y0058535D01*
X0340842Y0058885D01*
X0341052Y0059225D01*
X0341292Y0059535D01*
X0341562Y0059825D01*
X0341862Y0060075D01*
X0342192Y0060305D01*
X0342532Y0060495D01*
X0342902Y0060655D01*
X0343272Y0060775D01*
X0343662Y0060855D01*
X0344052Y0060885D01*
X0344452Y0060885D01*
X0344842Y0060855D01*
X0345232Y0060775D01*
X0345602Y0060655D01*
X0345972Y0060495D01*
X0346312Y0060305D01*
X0346642Y0060075D01*
X0346942Y0059825D01*
X0347212Y0059535D01*
X0347452Y0059225D01*
X0347662Y0058885D01*
X0347832Y0058535D01*
X0347972Y0058165D01*
X0348072Y0057785D01*
X0348132Y0057385D01*
X0348152Y0056995D01*
X0348132Y0056605D01*
X0348072Y0056205D01*
X0347972Y0055825D01*
X0347832Y0055455D01*
X0347662Y0055105D01*
X0347452Y0054765D01*
X0347212Y0054455D01*
X0346942Y0054165D01*
X0346642Y0053915D01*
X0346312Y0053685D01*
X0345972Y0053495D01*
X0345602Y0053335D01*
X0345232Y0053215D01*
X0344842Y0053135D01*
X0344452Y0053105D01*
X0344052Y0053105D01*
X0343662Y0053135D01*
X0343272Y0053215D01*
X0342902Y0053335D01*
X0342532Y0053495D01*
X0342192Y0053685D01*
X0341862Y0053915D01*
X0341562Y0054165D01*
X0341292Y0054455D01*
X0341052Y0054765D01*
X0340842Y0055105D01*
X0340672Y0055455D01*
X0340532Y0055825D01*
X0340432Y0056205D01*
X0340372Y0056605D01*
X0340352Y0056995D01*
X0271352Y0016055D02*
X0279352Y0016055D01*
X0275352Y0012055D02*
X0275352Y0020055D01*
X0271452Y0016055D02*
X0271472Y0016445D01*
X0271532Y0016845D01*
X0271632Y0017225D01*
X0271772Y0017595D01*
X0271942Y0017945D01*
X0272152Y0018285D01*
X0272392Y0018595D01*
X0272662Y0018885D01*
X0272962Y0019135D01*
X0273292Y0019365D01*
X0273632Y0019555D01*
X0274002Y0019715D01*
X0274372Y0019835D01*
X0274762Y0019915D01*
X0275152Y0019945D01*
X0275552Y0019945D01*
X0275942Y0019915D01*
X0276332Y0019835D01*
X0276702Y0019715D01*
X0277072Y0019555D01*
X0277412Y0019365D01*
X0277742Y0019135D01*
X0278042Y0018885D01*
X0278312Y0018595D01*
X0278552Y0018285D01*
X0278762Y0017945D01*
X0278932Y0017595D01*
X0279072Y0017225D01*
X0279172Y0016845D01*
X0279232Y0016445D01*
X0279252Y0016055D01*
X0279232Y0015665D01*
X0279172Y0015265D01*
X0279072Y0014885D01*
X0278932Y0014515D01*
X0278762Y0014165D01*
X0278552Y0013825D01*
X0278312Y0013515D01*
X0278042Y0013225D01*
X0277742Y0012975D01*
X0277412Y0012745D01*
X0277072Y0012555D01*
X0276702Y0012395D01*
X0276332Y0012275D01*
X0275942Y0012195D01*
X0275552Y0012165D01*
X0275152Y0012165D01*
X0274762Y0012195D01*
X0274372Y0012275D01*
X0274002Y0012395D01*
X0273632Y0012555D01*
X0273292Y0012745D01*
X0272962Y0012975D01*
X0272662Y0013225D01*
X0272392Y0013515D01*
X0272152Y0013825D01*
X0271942Y0014165D01*
X0271772Y0014515D01*
X0271632Y0014885D01*
X0271532Y0015265D01*
X0271472Y0015665D01*
X0271452Y0016055D01*
X0059490Y0231995D02*
X0067490Y0231995D01*
X0063490Y0227995D02*
X0063490Y0235995D01*
X0059590Y0231995D02*
X0059610Y0232385D01*
X0059670Y0232785D01*
X0059770Y0233165D01*
X0059910Y0233535D01*
X0060080Y0233885D01*
X0060290Y0234225D01*
X0060530Y0234535D01*
X0060800Y0234825D01*
X0061100Y0235075D01*
X0061430Y0235305D01*
X0061770Y0235495D01*
X0062140Y0235655D01*
X0062510Y0235775D01*
X0062900Y0235855D01*
X0063290Y0235885D01*
X0063690Y0235885D01*
X0064080Y0235855D01*
X0064470Y0235775D01*
X0064840Y0235655D01*
X0065210Y0235495D01*
X0065550Y0235305D01*
X0065880Y0235075D01*
X0066180Y0234825D01*
X0066450Y0234535D01*
X0066690Y0234225D01*
X0066900Y0233885D01*
X0067070Y0233535D01*
X0067210Y0233165D01*
X0067310Y0232785D01*
X0067370Y0232385D01*
X0067390Y0231995D01*
X0067370Y0231605D01*
X0067310Y0231205D01*
X0067210Y0230825D01*
X0067070Y0230455D01*
X0066900Y0230105D01*
X0066690Y0229765D01*
X0066450Y0229455D01*
X0066180Y0229165D01*
X0065880Y0228915D01*
X0065550Y0228685D01*
X0065210Y0228495D01*
X0064840Y0228335D01*
X0064470Y0228215D01*
X0064080Y0228135D01*
X0063690Y0228105D01*
X0063290Y0228105D01*
X0062900Y0228135D01*
X0062510Y0228215D01*
X0062140Y0228335D01*
X0061770Y0228495D01*
X0061430Y0228685D01*
X0061100Y0228915D01*
X0060800Y0229165D01*
X0060530Y0229455D01*
X0060290Y0229765D01*
X0060080Y0230105D01*
X0059910Y0230455D01*
X0059770Y0230825D01*
X0059670Y0231205D01*
X0059610Y0231605D01*
X0059590Y0231995D01*
X0061540Y0231995D02*
X0061560Y0232275D01*
X0061620Y0232555D01*
X0061720Y0232825D01*
X0061860Y0233075D01*
X0062040Y0233295D01*
X0062240Y0233495D01*
X0062470Y0233655D01*
X0062730Y0233785D01*
X0063000Y0233885D01*
X0063280Y0233935D01*
X0063560Y0233945D01*
X0063840Y0233915D01*
X0064120Y0233845D01*
X0064380Y0233725D01*
X0064620Y0233585D01*
X0064840Y0233395D01*
X0065030Y0233185D01*
X0065190Y0232945D01*
X0065310Y0232695D01*
X0065390Y0232415D01*
X0065430Y0232135D01*
X0065430Y0231855D01*
X0065390Y0231575D01*
X0065310Y0231295D01*
X0065190Y0231045D01*
X0065030Y0230805D01*
X0064840Y0230595D01*
X0064620Y0230405D01*
X0064380Y0230265D01*
X0064120Y0230145D01*
X0063840Y0230075D01*
X0063560Y0230045D01*
X0063280Y0230055D01*
X0063000Y0230105D01*
X0062730Y0230205D01*
X0062470Y0230335D01*
X0062240Y0230495D01*
X0062040Y0230695D01*
X0061860Y0230915D01*
X0061720Y0231165D01*
X0061620Y0231435D01*
X0061560Y0231715D01*
X0061540Y0231995D01*
X0059490Y0249715D02*
X0067490Y0249715D01*
X0063490Y0245715D02*
X0063490Y0253715D01*
X0059590Y0249715D02*
X0059610Y0250105D01*
X0059670Y0250505D01*
X0059770Y0250885D01*
X0059910Y0251255D01*
X0060080Y0251605D01*
X0060290Y0251945D01*
X0060530Y0252255D01*
X0060800Y0252545D01*
X0061100Y0252795D01*
X0061430Y0253025D01*
X0061770Y0253215D01*
X0062140Y0253375D01*
X0062510Y0253495D01*
X0062900Y0253575D01*
X0063290Y0253605D01*
X0063690Y0253605D01*
X0064080Y0253575D01*
X0064470Y0253495D01*
X0064840Y0253375D01*
X0065210Y0253215D01*
X0065550Y0253025D01*
X0065880Y0252795D01*
X0066180Y0252545D01*
X0066450Y0252255D01*
X0066690Y0251945D01*
X0066900Y0251605D01*
X0067070Y0251255D01*
X0067210Y0250885D01*
X0067310Y0250505D01*
X0067370Y0250105D01*
X0067390Y0249715D01*
X0067370Y0249325D01*
X0067310Y0248925D01*
X0067210Y0248545D01*
X0067070Y0248175D01*
X0066900Y0247825D01*
X0066690Y0247485D01*
X0066450Y0247175D01*
X0066180Y0246885D01*
X0065880Y0246635D01*
X0065550Y0246405D01*
X0065210Y0246215D01*
X0064840Y0246055D01*
X0064470Y0245935D01*
X0064080Y0245855D01*
X0063690Y0245825D01*
X0063290Y0245825D01*
X0062900Y0245855D01*
X0062510Y0245935D01*
X0062140Y0246055D01*
X0061770Y0246215D01*
X0061430Y0246405D01*
X0061100Y0246635D01*
X0060800Y0246885D01*
X0060530Y0247175D01*
X0060290Y0247485D01*
X0060080Y0247825D01*
X0059910Y0248175D01*
X0059770Y0248545D01*
X0059670Y0248925D01*
X0059610Y0249325D01*
X0059590Y0249715D01*
X0061540Y0249715D02*
X0061560Y0249995D01*
X0061620Y0250275D01*
X0061720Y0250545D01*
X0061860Y0250795D01*
X0062040Y0251015D01*
X0062240Y0251215D01*
X0062470Y0251375D01*
X0062730Y0251505D01*
X0063000Y0251605D01*
X0063280Y0251655D01*
X0063560Y0251665D01*
X0063840Y0251635D01*
X0064120Y0251565D01*
X0064380Y0251445D01*
X0064620Y0251305D01*
X0064840Y0251115D01*
X0065030Y0250905D01*
X0065190Y0250665D01*
X0065310Y0250415D01*
X0065390Y0250135D01*
X0065430Y0249855D01*
X0065430Y0249575D01*
X0065390Y0249295D01*
X0065310Y0249015D01*
X0065190Y0248765D01*
X0065030Y0248525D01*
X0064840Y0248315D01*
X0064620Y0248125D01*
X0064380Y0247985D01*
X0064120Y0247865D01*
X0063840Y0247795D01*
X0063560Y0247765D01*
X0063280Y0247775D01*
X0063000Y0247825D01*
X0062730Y0247925D01*
X0062470Y0248055D01*
X0062240Y0248215D01*
X0062040Y0248415D01*
X0061860Y0248635D01*
X0061720Y0248885D01*
X0061620Y0249155D01*
X0061560Y0249435D01*
X0061540Y0249715D01*
X0085080Y0249715D02*
X0093080Y0249715D01*
X0089080Y0245715D02*
X0089080Y0253715D01*
X0085180Y0249715D02*
X0085200Y0250105D01*
X0085260Y0250505D01*
X0085360Y0250885D01*
X0085500Y0251255D01*
X0085670Y0251605D01*
X0085880Y0251945D01*
X0086120Y0252255D01*
X0086390Y0252545D01*
X0086690Y0252795D01*
X0087020Y0253025D01*
X0087360Y0253215D01*
X0087730Y0253375D01*
X0088100Y0253495D01*
X0088490Y0253575D01*
X0088880Y0253605D01*
X0089280Y0253605D01*
X0089670Y0253575D01*
X0090060Y0253495D01*
X0090430Y0253375D01*
X0090800Y0253215D01*
X0091140Y0253025D01*
X0091470Y0252795D01*
X0091770Y0252545D01*
X0092040Y0252255D01*
X0092280Y0251945D01*
X0092490Y0251605D01*
X0092660Y0251255D01*
X0092800Y0250885D01*
X0092900Y0250505D01*
X0092960Y0250105D01*
X0092980Y0249715D01*
X0092960Y0249325D01*
X0092900Y0248925D01*
X0092800Y0248545D01*
X0092660Y0248175D01*
X0092490Y0247825D01*
X0092280Y0247485D01*
X0092040Y0247175D01*
X0091770Y0246885D01*
X0091470Y0246635D01*
X0091140Y0246405D01*
X0090800Y0246215D01*
X0090430Y0246055D01*
X0090060Y0245935D01*
X0089670Y0245855D01*
X0089280Y0245825D01*
X0088880Y0245825D01*
X0088490Y0245855D01*
X0088100Y0245935D01*
X0087730Y0246055D01*
X0087360Y0246215D01*
X0087020Y0246405D01*
X0086690Y0246635D01*
X0086390Y0246885D01*
X0086120Y0247175D01*
X0085880Y0247485D01*
X0085670Y0247825D01*
X0085500Y0248175D01*
X0085360Y0248545D01*
X0085260Y0248925D01*
X0085200Y0249325D01*
X0085180Y0249715D01*
X0087130Y0249715D02*
X0087150Y0249995D01*
X0087210Y0250275D01*
X0087310Y0250545D01*
X0087450Y0250795D01*
X0087630Y0251015D01*
X0087830Y0251215D01*
X0088060Y0251375D01*
X0088320Y0251505D01*
X0088590Y0251605D01*
X0088870Y0251655D01*
X0089150Y0251665D01*
X0089430Y0251635D01*
X0089710Y0251565D01*
X0089970Y0251445D01*
X0090210Y0251305D01*
X0090430Y0251115D01*
X0090620Y0250905D01*
X0090780Y0250665D01*
X0090900Y0250415D01*
X0090980Y0250135D01*
X0091020Y0249855D01*
X0091020Y0249575D01*
X0090980Y0249295D01*
X0090900Y0249015D01*
X0090780Y0248765D01*
X0090620Y0248525D01*
X0090430Y0248315D01*
X0090210Y0248125D01*
X0089970Y0247985D01*
X0089710Y0247865D01*
X0089430Y0247795D01*
X0089150Y0247765D01*
X0088870Y0247775D01*
X0088590Y0247825D01*
X0088320Y0247925D01*
X0088060Y0248055D01*
X0087830Y0248215D01*
X0087630Y0248415D01*
X0087450Y0248635D01*
X0087310Y0248885D01*
X0087210Y0249155D01*
X0087150Y0249435D01*
X0087130Y0249715D01*
X0085080Y0231995D02*
X0093080Y0231995D01*
X0089080Y0227995D02*
X0089080Y0235995D01*
X0085180Y0231995D02*
X0085200Y0232385D01*
X0085260Y0232785D01*
X0085360Y0233165D01*
X0085500Y0233535D01*
X0085670Y0233885D01*
X0085880Y0234225D01*
X0086120Y0234535D01*
X0086390Y0234825D01*
X0086690Y0235075D01*
X0087020Y0235305D01*
X0087360Y0235495D01*
X0087730Y0235655D01*
X0088100Y0235775D01*
X0088490Y0235855D01*
X0088880Y0235885D01*
X0089280Y0235885D01*
X0089670Y0235855D01*
X0090060Y0235775D01*
X0090430Y0235655D01*
X0090800Y0235495D01*
X0091140Y0235305D01*
X0091470Y0235075D01*
X0091770Y0234825D01*
X0092040Y0234535D01*
X0092280Y0234225D01*
X0092490Y0233885D01*
X0092660Y0233535D01*
X0092800Y0233165D01*
X0092900Y0232785D01*
X0092960Y0232385D01*
X0092980Y0231995D01*
X0092960Y0231605D01*
X0092900Y0231205D01*
X0092800Y0230825D01*
X0092660Y0230455D01*
X0092490Y0230105D01*
X0092280Y0229765D01*
X0092040Y0229455D01*
X0091770Y0229165D01*
X0091470Y0228915D01*
X0091140Y0228685D01*
X0090800Y0228495D01*
X0090430Y0228335D01*
X0090060Y0228215D01*
X0089670Y0228135D01*
X0089280Y0228105D01*
X0088880Y0228105D01*
X0088490Y0228135D01*
X0088100Y0228215D01*
X0087730Y0228335D01*
X0087360Y0228495D01*
X0087020Y0228685D01*
X0086690Y0228915D01*
X0086390Y0229165D01*
X0086120Y0229455D01*
X0085880Y0229765D01*
X0085670Y0230105D01*
X0085500Y0230455D01*
X0085360Y0230825D01*
X0085260Y0231205D01*
X0085200Y0231605D01*
X0085180Y0231995D01*
X0087130Y0231995D02*
X0087150Y0232275D01*
X0087210Y0232555D01*
X0087310Y0232825D01*
X0087450Y0233075D01*
X0087630Y0233295D01*
X0087830Y0233495D01*
X0088060Y0233655D01*
X0088320Y0233785D01*
X0088590Y0233885D01*
X0088870Y0233935D01*
X0089150Y0233945D01*
X0089430Y0233915D01*
X0089710Y0233845D01*
X0089970Y0233725D01*
X0090210Y0233585D01*
X0090430Y0233395D01*
X0090620Y0233185D01*
X0090780Y0232945D01*
X0090900Y0232695D01*
X0090980Y0232415D01*
X0091020Y0232135D01*
X0091020Y0231855D01*
X0090980Y0231575D01*
X0090900Y0231295D01*
X0090780Y0231045D01*
X0090620Y0230805D01*
X0090430Y0230595D01*
X0090210Y0230405D01*
X0089970Y0230265D01*
X0089710Y0230145D01*
X0089430Y0230075D01*
X0089150Y0230045D01*
X0088870Y0230055D01*
X0088590Y0230105D01*
X0088320Y0230205D01*
X0088060Y0230335D01*
X0087830Y0230495D01*
X0087630Y0230695D01*
X0087450Y0230915D01*
X0087310Y0231165D01*
X0087210Y0231435D01*
X0087150Y0231715D01*
X0087130Y0231995D01*
X0185401Y0231995D02*
X0193401Y0231995D01*
X0189401Y0227995D02*
X0189401Y0235995D01*
X0185501Y0231995D02*
X0185521Y0232385D01*
X0185581Y0232785D01*
X0185681Y0233165D01*
X0185821Y0233535D01*
X0185991Y0233885D01*
X0186201Y0234225D01*
X0186441Y0234535D01*
X0186711Y0234825D01*
X0187011Y0235075D01*
X0187341Y0235305D01*
X0187681Y0235495D01*
X0188051Y0235655D01*
X0188421Y0235775D01*
X0188811Y0235855D01*
X0189201Y0235885D01*
X0189601Y0235885D01*
X0189991Y0235855D01*
X0190381Y0235775D01*
X0190751Y0235655D01*
X0191121Y0235495D01*
X0191461Y0235305D01*
X0191791Y0235075D01*
X0192091Y0234825D01*
X0192361Y0234535D01*
X0192601Y0234225D01*
X0192811Y0233885D01*
X0192981Y0233535D01*
X0193121Y0233165D01*
X0193221Y0232785D01*
X0193281Y0232385D01*
X0193301Y0231995D01*
X0193281Y0231605D01*
X0193221Y0231205D01*
X0193121Y0230825D01*
X0192981Y0230455D01*
X0192811Y0230105D01*
X0192601Y0229765D01*
X0192361Y0229455D01*
X0192091Y0229165D01*
X0191791Y0228915D01*
X0191461Y0228685D01*
X0191121Y0228495D01*
X0190751Y0228335D01*
X0190381Y0228215D01*
X0189991Y0228135D01*
X0189601Y0228105D01*
X0189201Y0228105D01*
X0188811Y0228135D01*
X0188421Y0228215D01*
X0188051Y0228335D01*
X0187681Y0228495D01*
X0187341Y0228685D01*
X0187011Y0228915D01*
X0186711Y0229165D01*
X0186441Y0229455D01*
X0186201Y0229765D01*
X0185991Y0230105D01*
X0185821Y0230455D01*
X0185681Y0230825D01*
X0185581Y0231205D01*
X0185521Y0231605D01*
X0185501Y0231995D01*
X0187451Y0231995D02*
X0187471Y0232275D01*
X0187531Y0232555D01*
X0187631Y0232825D01*
X0187771Y0233075D01*
X0187951Y0233295D01*
X0188151Y0233495D01*
X0188381Y0233655D01*
X0188641Y0233785D01*
X0188911Y0233885D01*
X0189191Y0233935D01*
X0189471Y0233945D01*
X0189751Y0233915D01*
X0190031Y0233845D01*
X0190291Y0233725D01*
X0190531Y0233585D01*
X0190751Y0233395D01*
X0190941Y0233185D01*
X0191101Y0232945D01*
X0191221Y0232695D01*
X0191301Y0232415D01*
X0191341Y0232135D01*
X0191341Y0231855D01*
X0191301Y0231575D01*
X0191221Y0231295D01*
X0191101Y0231045D01*
X0190941Y0230805D01*
X0190751Y0230595D01*
X0190531Y0230405D01*
X0190291Y0230265D01*
X0190031Y0230145D01*
X0189751Y0230075D01*
X0189471Y0230045D01*
X0189191Y0230055D01*
X0188911Y0230105D01*
X0188641Y0230205D01*
X0188381Y0230335D01*
X0188151Y0230495D01*
X0187951Y0230695D01*
X0187771Y0230915D01*
X0187631Y0231165D01*
X0187531Y0231435D01*
X0187471Y0231715D01*
X0187451Y0231995D01*
X0185401Y0249715D02*
X0193401Y0249715D01*
X0189401Y0245715D02*
X0189401Y0253715D01*
X0185501Y0249715D02*
X0185521Y0250105D01*
X0185581Y0250505D01*
X0185681Y0250885D01*
X0185821Y0251255D01*
X0185991Y0251605D01*
X0186201Y0251945D01*
X0186441Y0252255D01*
X0186711Y0252545D01*
X0187011Y0252795D01*
X0187341Y0253025D01*
X0187681Y0253215D01*
X0188051Y0253375D01*
X0188421Y0253495D01*
X0188811Y0253575D01*
X0189201Y0253605D01*
X0189601Y0253605D01*
X0189991Y0253575D01*
X0190381Y0253495D01*
X0190751Y0253375D01*
X0191121Y0253215D01*
X0191461Y0253025D01*
X0191791Y0252795D01*
X0192091Y0252545D01*
X0192361Y0252255D01*
X0192601Y0251945D01*
X0192811Y0251605D01*
X0192981Y0251255D01*
X0193121Y0250885D01*
X0193221Y0250505D01*
X0193281Y0250105D01*
X0193301Y0249715D01*
X0193281Y0249325D01*
X0193221Y0248925D01*
X0193121Y0248545D01*
X0192981Y0248175D01*
X0192811Y0247825D01*
X0192601Y0247485D01*
X0192361Y0247175D01*
X0192091Y0246885D01*
X0191791Y0246635D01*
X0191461Y0246405D01*
X0191121Y0246215D01*
X0190751Y0246055D01*
X0190381Y0245935D01*
X0189991Y0245855D01*
X0189601Y0245825D01*
X0189201Y0245825D01*
X0188811Y0245855D01*
X0188421Y0245935D01*
X0188051Y0246055D01*
X0187681Y0246215D01*
X0187341Y0246405D01*
X0187011Y0246635D01*
X0186711Y0246885D01*
X0186441Y0247175D01*
X0186201Y0247485D01*
X0185991Y0247825D01*
X0185821Y0248175D01*
X0185681Y0248545D01*
X0185581Y0248925D01*
X0185521Y0249325D01*
X0185501Y0249715D01*
X0187451Y0249715D02*
X0187471Y0249995D01*
X0187531Y0250275D01*
X0187631Y0250545D01*
X0187771Y0250795D01*
X0187951Y0251015D01*
X0188151Y0251215D01*
X0188381Y0251375D01*
X0188641Y0251505D01*
X0188911Y0251605D01*
X0189191Y0251655D01*
X0189471Y0251665D01*
X0189751Y0251635D01*
X0190031Y0251565D01*
X0190291Y0251445D01*
X0190531Y0251305D01*
X0190751Y0251115D01*
X0190941Y0250905D01*
X0191101Y0250665D01*
X0191221Y0250415D01*
X0191301Y0250135D01*
X0191341Y0249855D01*
X0191341Y0249575D01*
X0191301Y0249295D01*
X0191221Y0249015D01*
X0191101Y0248765D01*
X0190941Y0248525D01*
X0190751Y0248315D01*
X0190531Y0248125D01*
X0190291Y0247985D01*
X0190031Y0247865D01*
X0189751Y0247795D01*
X0189471Y0247765D01*
X0189191Y0247775D01*
X0188911Y0247825D01*
X0188641Y0247925D01*
X0188381Y0248055D01*
X0188151Y0248215D01*
X0187951Y0248415D01*
X0187771Y0248635D01*
X0187631Y0248885D01*
X0187531Y0249155D01*
X0187471Y0249435D01*
X0187451Y0249715D01*
X0210991Y0249715D02*
X0218991Y0249715D01*
X0214991Y0245715D02*
X0214991Y0253715D01*
X0211091Y0249715D02*
X0211111Y0250105D01*
X0211171Y0250505D01*
X0211271Y0250885D01*
X0211411Y0251255D01*
X0211581Y0251605D01*
X0211791Y0251945D01*
X0212031Y0252255D01*
X0212301Y0252545D01*
X0212601Y0252795D01*
X0212931Y0253025D01*
X0213271Y0253215D01*
X0213641Y0253375D01*
X0214011Y0253495D01*
X0214401Y0253575D01*
X0214791Y0253605D01*
X0215191Y0253605D01*
X0215581Y0253575D01*
X0215971Y0253495D01*
X0216341Y0253375D01*
X0216711Y0253215D01*
X0217051Y0253025D01*
X0217381Y0252795D01*
X0217681Y0252545D01*
X0217951Y0252255D01*
X0218191Y0251945D01*
X0218401Y0251605D01*
X0218571Y0251255D01*
X0218711Y0250885D01*
X0218811Y0250505D01*
X0218871Y0250105D01*
X0218891Y0249715D01*
X0218871Y0249325D01*
X0218811Y0248925D01*
X0218711Y0248545D01*
X0218571Y0248175D01*
X0218401Y0247825D01*
X0218191Y0247485D01*
X0217951Y0247175D01*
X0217681Y0246885D01*
X0217381Y0246635D01*
X0217051Y0246405D01*
X0216711Y0246215D01*
X0216341Y0246055D01*
X0215971Y0245935D01*
X0215581Y0245855D01*
X0215191Y0245825D01*
X0214791Y0245825D01*
X0214401Y0245855D01*
X0214011Y0245935D01*
X0213641Y0246055D01*
X0213271Y0246215D01*
X0212931Y0246405D01*
X0212601Y0246635D01*
X0212301Y0246885D01*
X0212031Y0247175D01*
X0211791Y0247485D01*
X0211581Y0247825D01*
X0211411Y0248175D01*
X0211271Y0248545D01*
X0211171Y0248925D01*
X0211111Y0249325D01*
X0211091Y0249715D01*
X0213041Y0249715D02*
X0213061Y0249995D01*
X0213121Y0250275D01*
X0213221Y0250545D01*
X0213361Y0250795D01*
X0213541Y0251015D01*
X0213741Y0251215D01*
X0213971Y0251375D01*
X0214231Y0251505D01*
X0214501Y0251605D01*
X0214781Y0251655D01*
X0215061Y0251665D01*
X0215341Y0251635D01*
X0215621Y0251565D01*
X0215881Y0251445D01*
X0216121Y0251305D01*
X0216341Y0251115D01*
X0216531Y0250905D01*
X0216691Y0250665D01*
X0216811Y0250415D01*
X0216891Y0250135D01*
X0216931Y0249855D01*
X0216931Y0249575D01*
X0216891Y0249295D01*
X0216811Y0249015D01*
X0216691Y0248765D01*
X0216531Y0248525D01*
X0216341Y0248315D01*
X0216121Y0248125D01*
X0215881Y0247985D01*
X0215621Y0247865D01*
X0215341Y0247795D01*
X0215061Y0247765D01*
X0214781Y0247775D01*
X0214501Y0247825D01*
X0214231Y0247925D01*
X0213971Y0248055D01*
X0213741Y0248215D01*
X0213541Y0248415D01*
X0213361Y0248635D01*
X0213221Y0248885D01*
X0213121Y0249155D01*
X0213061Y0249435D01*
X0213041Y0249715D01*
X0210991Y0231995D02*
X0218991Y0231995D01*
X0214991Y0227995D02*
X0214991Y0235995D01*
X0211091Y0231995D02*
X0211111Y0232385D01*
X0211171Y0232785D01*
X0211271Y0233165D01*
X0211411Y0233535D01*
X0211581Y0233885D01*
X0211791Y0234225D01*
X0212031Y0234535D01*
X0212301Y0234825D01*
X0212601Y0235075D01*
X0212931Y0235305D01*
X0213271Y0235495D01*
X0213641Y0235655D01*
X0214011Y0235775D01*
X0214401Y0235855D01*
X0214791Y0235885D01*
X0215191Y0235885D01*
X0215581Y0235855D01*
X0215971Y0235775D01*
X0216341Y0235655D01*
X0216711Y0235495D01*
X0217051Y0235305D01*
X0217381Y0235075D01*
X0217681Y0234825D01*
X0217951Y0234535D01*
X0218191Y0234225D01*
X0218401Y0233885D01*
X0218571Y0233535D01*
X0218711Y0233165D01*
X0218811Y0232785D01*
X0218871Y0232385D01*
X0218891Y0231995D01*
X0218871Y0231605D01*
X0218811Y0231205D01*
X0218711Y0230825D01*
X0218571Y0230455D01*
X0218401Y0230105D01*
X0218191Y0229765D01*
X0217951Y0229455D01*
X0217681Y0229165D01*
X0217381Y0228915D01*
X0217051Y0228685D01*
X0216711Y0228495D01*
X0216341Y0228335D01*
X0215971Y0228215D01*
X0215581Y0228135D01*
X0215191Y0228105D01*
X0214791Y0228105D01*
X0214401Y0228135D01*
X0214011Y0228215D01*
X0213641Y0228335D01*
X0213271Y0228495D01*
X0212931Y0228685D01*
X0212601Y0228915D01*
X0212301Y0229165D01*
X0212031Y0229455D01*
X0211791Y0229765D01*
X0211581Y0230105D01*
X0211411Y0230455D01*
X0211271Y0230825D01*
X0211171Y0231205D01*
X0211111Y0231605D01*
X0211091Y0231995D01*
X0213041Y0231995D02*
X0213061Y0232275D01*
X0213121Y0232555D01*
X0213221Y0232825D01*
X0213361Y0233075D01*
X0213541Y0233295D01*
X0213741Y0233495D01*
X0213971Y0233655D01*
X0214231Y0233785D01*
X0214501Y0233885D01*
X0214781Y0233935D01*
X0215061Y0233945D01*
X0215341Y0233915D01*
X0215621Y0233845D01*
X0215881Y0233725D01*
X0216121Y0233585D01*
X0216341Y0233395D01*
X0216531Y0233185D01*
X0216691Y0232945D01*
X0216811Y0232695D01*
X0216891Y0232415D01*
X0216931Y0232135D01*
X0216931Y0231855D01*
X0216891Y0231575D01*
X0216811Y0231295D01*
X0216691Y0231045D01*
X0216531Y0230805D01*
X0216341Y0230595D01*
X0216121Y0230405D01*
X0215881Y0230265D01*
X0215621Y0230145D01*
X0215341Y0230075D01*
X0215061Y0230045D01*
X0214781Y0230055D01*
X0214501Y0230105D01*
X0214231Y0230205D01*
X0213971Y0230335D01*
X0213741Y0230495D01*
X0213541Y0230695D01*
X0213361Y0230915D01*
X0213221Y0231165D01*
X0213121Y0231435D01*
X0213061Y0231715D01*
X0213041Y0231995D01*
X0311312Y0231995D02*
X0319312Y0231995D01*
X0315312Y0227995D02*
X0315312Y0235995D01*
X0311412Y0231995D02*
X0311432Y0232385D01*
X0311492Y0232785D01*
X0311592Y0233165D01*
X0311732Y0233535D01*
X0311902Y0233885D01*
X0312112Y0234225D01*
X0312352Y0234535D01*
X0312622Y0234825D01*
X0312922Y0235075D01*
X0313252Y0235305D01*
X0313592Y0235495D01*
X0313962Y0235655D01*
X0314332Y0235775D01*
X0314722Y0235855D01*
X0315112Y0235885D01*
X0315512Y0235885D01*
X0315902Y0235855D01*
X0316292Y0235775D01*
X0316662Y0235655D01*
X0317032Y0235495D01*
X0317372Y0235305D01*
X0317702Y0235075D01*
X0318002Y0234825D01*
X0318272Y0234535D01*
X0318512Y0234225D01*
X0318722Y0233885D01*
X0318892Y0233535D01*
X0319032Y0233165D01*
X0319132Y0232785D01*
X0319192Y0232385D01*
X0319212Y0231995D01*
X0319192Y0231605D01*
X0319132Y0231205D01*
X0319032Y0230825D01*
X0318892Y0230455D01*
X0318722Y0230105D01*
X0318512Y0229765D01*
X0318272Y0229455D01*
X0318002Y0229165D01*
X0317702Y0228915D01*
X0317372Y0228685D01*
X0317032Y0228495D01*
X0316662Y0228335D01*
X0316292Y0228215D01*
X0315902Y0228135D01*
X0315512Y0228105D01*
X0315112Y0228105D01*
X0314722Y0228135D01*
X0314332Y0228215D01*
X0313962Y0228335D01*
X0313592Y0228495D01*
X0313252Y0228685D01*
X0312922Y0228915D01*
X0312622Y0229165D01*
X0312352Y0229455D01*
X0312112Y0229765D01*
X0311902Y0230105D01*
X0311732Y0230455D01*
X0311592Y0230825D01*
X0311492Y0231205D01*
X0311432Y0231605D01*
X0311412Y0231995D01*
X0313362Y0231995D02*
X0313382Y0232275D01*
X0313442Y0232555D01*
X0313542Y0232825D01*
X0313682Y0233075D01*
X0313862Y0233295D01*
X0314062Y0233495D01*
X0314292Y0233655D01*
X0314552Y0233785D01*
X0314822Y0233885D01*
X0315102Y0233935D01*
X0315382Y0233945D01*
X0315662Y0233915D01*
X0315942Y0233845D01*
X0316202Y0233725D01*
X0316442Y0233585D01*
X0316662Y0233395D01*
X0316852Y0233185D01*
X0317012Y0232945D01*
X0317132Y0232695D01*
X0317212Y0232415D01*
X0317252Y0232135D01*
X0317252Y0231855D01*
X0317212Y0231575D01*
X0317132Y0231295D01*
X0317012Y0231045D01*
X0316852Y0230805D01*
X0316662Y0230595D01*
X0316442Y0230405D01*
X0316202Y0230265D01*
X0315942Y0230145D01*
X0315662Y0230075D01*
X0315382Y0230045D01*
X0315102Y0230055D01*
X0314822Y0230105D01*
X0314552Y0230205D01*
X0314292Y0230335D01*
X0314062Y0230495D01*
X0313862Y0230695D01*
X0313682Y0230915D01*
X0313542Y0231165D01*
X0313442Y0231435D01*
X0313382Y0231715D01*
X0313362Y0231995D01*
X0311312Y0249715D02*
X0319312Y0249715D01*
X0315312Y0245715D02*
X0315312Y0253715D01*
X0311412Y0249715D02*
X0311432Y0250105D01*
X0311492Y0250505D01*
X0311592Y0250885D01*
X0311732Y0251255D01*
X0311902Y0251605D01*
X0312112Y0251945D01*
X0312352Y0252255D01*
X0312622Y0252545D01*
X0312922Y0252795D01*
X0313252Y0253025D01*
X0313592Y0253215D01*
X0313962Y0253375D01*
X0314332Y0253495D01*
X0314722Y0253575D01*
X0315112Y0253605D01*
X0315512Y0253605D01*
X0315902Y0253575D01*
X0316292Y0253495D01*
X0316662Y0253375D01*
X0317032Y0253215D01*
X0317372Y0253025D01*
X0317702Y0252795D01*
X0318002Y0252545D01*
X0318272Y0252255D01*
X0318512Y0251945D01*
X0318722Y0251605D01*
X0318892Y0251255D01*
X0319032Y0250885D01*
X0319132Y0250505D01*
X0319192Y0250105D01*
X0319212Y0249715D01*
X0319192Y0249325D01*
X0319132Y0248925D01*
X0319032Y0248545D01*
X0318892Y0248175D01*
X0318722Y0247825D01*
X0318512Y0247485D01*
X0318272Y0247175D01*
X0318002Y0246885D01*
X0317702Y0246635D01*
X0317372Y0246405D01*
X0317032Y0246215D01*
X0316662Y0246055D01*
X0316292Y0245935D01*
X0315902Y0245855D01*
X0315512Y0245825D01*
X0315112Y0245825D01*
X0314722Y0245855D01*
X0314332Y0245935D01*
X0313962Y0246055D01*
X0313592Y0246215D01*
X0313252Y0246405D01*
X0312922Y0246635D01*
X0312622Y0246885D01*
X0312352Y0247175D01*
X0312112Y0247485D01*
X0311902Y0247825D01*
X0311732Y0248175D01*
X0311592Y0248545D01*
X0311492Y0248925D01*
X0311432Y0249325D01*
X0311412Y0249715D01*
X0313362Y0249715D02*
X0313382Y0249995D01*
X0313442Y0250275D01*
X0313542Y0250545D01*
X0313682Y0250795D01*
X0313862Y0251015D01*
X0314062Y0251215D01*
X0314292Y0251375D01*
X0314552Y0251505D01*
X0314822Y0251605D01*
X0315102Y0251655D01*
X0315382Y0251665D01*
X0315662Y0251635D01*
X0315942Y0251565D01*
X0316202Y0251445D01*
X0316442Y0251305D01*
X0316662Y0251115D01*
X0316852Y0250905D01*
X0317012Y0250665D01*
X0317132Y0250415D01*
X0317212Y0250135D01*
X0317252Y0249855D01*
X0317252Y0249575D01*
X0317212Y0249295D01*
X0317132Y0249015D01*
X0317012Y0248765D01*
X0316852Y0248525D01*
X0316662Y0248315D01*
X0316442Y0248125D01*
X0316202Y0247985D01*
X0315942Y0247865D01*
X0315662Y0247795D01*
X0315382Y0247765D01*
X0315102Y0247775D01*
X0314822Y0247825D01*
X0314552Y0247925D01*
X0314292Y0248055D01*
X0314062Y0248215D01*
X0313862Y0248415D01*
X0313682Y0248635D01*
X0313542Y0248885D01*
X0313442Y0249155D01*
X0313382Y0249435D01*
X0313362Y0249715D01*
X0336902Y0249715D02*
X0344902Y0249715D01*
X0340902Y0245715D02*
X0340902Y0253715D01*
X0337002Y0249715D02*
X0337022Y0250105D01*
X0337082Y0250505D01*
X0337182Y0250885D01*
X0337322Y0251255D01*
X0337492Y0251605D01*
X0337702Y0251945D01*
X0337942Y0252255D01*
X0338212Y0252545D01*
X0338512Y0252795D01*
X0338842Y0253025D01*
X0339182Y0253215D01*
X0339552Y0253375D01*
X0339922Y0253495D01*
X0340312Y0253575D01*
X0340702Y0253605D01*
X0341102Y0253605D01*
X0341492Y0253575D01*
X0341882Y0253495D01*
X0342252Y0253375D01*
X0342622Y0253215D01*
X0342962Y0253025D01*
X0343292Y0252795D01*
X0343592Y0252545D01*
X0343862Y0252255D01*
X0344102Y0251945D01*
X0344312Y0251605D01*
X0344482Y0251255D01*
X0344622Y0250885D01*
X0344722Y0250505D01*
X0344782Y0250105D01*
X0344802Y0249715D01*
X0344782Y0249325D01*
X0344722Y0248925D01*
X0344622Y0248545D01*
X0344482Y0248175D01*
X0344312Y0247825D01*
X0344102Y0247485D01*
X0343862Y0247175D01*
X0343592Y0246885D01*
X0343292Y0246635D01*
X0342962Y0246405D01*
X0342622Y0246215D01*
X0342252Y0246055D01*
X0341882Y0245935D01*
X0341492Y0245855D01*
X0341102Y0245825D01*
X0340702Y0245825D01*
X0340312Y0245855D01*
X0339922Y0245935D01*
X0339552Y0246055D01*
X0339182Y0246215D01*
X0338842Y0246405D01*
X0338512Y0246635D01*
X0338212Y0246885D01*
X0337942Y0247175D01*
X0337702Y0247485D01*
X0337492Y0247825D01*
X0337322Y0248175D01*
X0337182Y0248545D01*
X0337082Y0248925D01*
X0337022Y0249325D01*
X0337002Y0249715D01*
X0338952Y0249715D02*
X0338972Y0249995D01*
X0339032Y0250275D01*
X0339132Y0250545D01*
X0339272Y0250795D01*
X0339452Y0251015D01*
X0339652Y0251215D01*
X0339882Y0251375D01*
X0340142Y0251505D01*
X0340412Y0251605D01*
X0340692Y0251655D01*
X0340972Y0251665D01*
X0341252Y0251635D01*
X0341532Y0251565D01*
X0341792Y0251445D01*
X0342032Y0251305D01*
X0342252Y0251115D01*
X0342442Y0250905D01*
X0342602Y0250665D01*
X0342722Y0250415D01*
X0342802Y0250135D01*
X0342842Y0249855D01*
X0342842Y0249575D01*
X0342802Y0249295D01*
X0342722Y0249015D01*
X0342602Y0248765D01*
X0342442Y0248525D01*
X0342252Y0248315D01*
X0342032Y0248125D01*
X0341792Y0247985D01*
X0341532Y0247865D01*
X0341252Y0247795D01*
X0340972Y0247765D01*
X0340692Y0247775D01*
X0340412Y0247825D01*
X0340142Y0247925D01*
X0339882Y0248055D01*
X0339652Y0248215D01*
X0339452Y0248415D01*
X0339272Y0248635D01*
X0339132Y0248885D01*
X0339032Y0249155D01*
X0338972Y0249435D01*
X0338952Y0249715D01*
X0336902Y0231995D02*
X0344902Y0231995D01*
X0340902Y0227995D02*
X0340902Y0235995D01*
X0337002Y0231995D02*
X0337022Y0232385D01*
X0337082Y0232785D01*
X0337182Y0233165D01*
X0337322Y0233535D01*
X0337492Y0233885D01*
X0337702Y0234225D01*
X0337942Y0234535D01*
X0338212Y0234825D01*
X0338512Y0235075D01*
X0338842Y0235305D01*
X0339182Y0235495D01*
X0339552Y0235655D01*
X0339922Y0235775D01*
X0340312Y0235855D01*
X0340702Y0235885D01*
X0341102Y0235885D01*
X0341492Y0235855D01*
X0341882Y0235775D01*
X0342252Y0235655D01*
X0342622Y0235495D01*
X0342962Y0235305D01*
X0343292Y0235075D01*
X0343592Y0234825D01*
X0343862Y0234535D01*
X0344102Y0234225D01*
X0344312Y0233885D01*
X0344482Y0233535D01*
X0344622Y0233165D01*
X0344722Y0232785D01*
X0344782Y0232385D01*
X0344802Y0231995D01*
X0344782Y0231605D01*
X0344722Y0231205D01*
X0344622Y0230825D01*
X0344482Y0230455D01*
X0344312Y0230105D01*
X0344102Y0229765D01*
X0343862Y0229455D01*
X0343592Y0229165D01*
X0343292Y0228915D01*
X0342962Y0228685D01*
X0342622Y0228495D01*
X0342252Y0228335D01*
X0341882Y0228215D01*
X0341492Y0228135D01*
X0341102Y0228105D01*
X0340702Y0228105D01*
X0340312Y0228135D01*
X0339922Y0228215D01*
X0339552Y0228335D01*
X0339182Y0228495D01*
X0338842Y0228685D01*
X0338512Y0228915D01*
X0338212Y0229165D01*
X0337942Y0229455D01*
X0337702Y0229765D01*
X0337492Y0230105D01*
X0337322Y0230455D01*
X0337182Y0230825D01*
X0337082Y0231205D01*
X0337022Y0231605D01*
X0337002Y0231995D01*
X0338952Y0231995D02*
X0338972Y0232275D01*
X0339032Y0232555D01*
X0339132Y0232825D01*
X0339272Y0233075D01*
X0339452Y0233295D01*
X0339652Y0233495D01*
X0339882Y0233655D01*
X0340142Y0233785D01*
X0340412Y0233885D01*
X0340692Y0233935D01*
X0340972Y0233945D01*
X0341252Y0233915D01*
X0341532Y0233845D01*
X0341792Y0233725D01*
X0342032Y0233585D01*
X0342252Y0233395D01*
X0342442Y0233185D01*
X0342602Y0232945D01*
X0342722Y0232695D01*
X0342802Y0232415D01*
X0342842Y0232135D01*
X0342842Y0231855D01*
X0342802Y0231575D01*
X0342722Y0231295D01*
X0342602Y0231045D01*
X0342442Y0230805D01*
X0342252Y0230595D01*
X0342032Y0230405D01*
X0341792Y0230265D01*
X0341532Y0230145D01*
X0341252Y0230075D01*
X0340972Y0230045D01*
X0340692Y0230055D01*
X0340412Y0230105D01*
X0340142Y0230205D01*
X0339882Y0230335D01*
X0339652Y0230495D01*
X0339452Y0230695D01*
X0339272Y0230915D01*
X0339132Y0231165D01*
X0339032Y0231435D01*
X0338972Y0231715D01*
X0338952Y0231995D01*
X0015080Y0033255D02*
X0023080Y0033255D01*
X0019080Y0037255D01*
X0019080Y0029255D01*
X0015080Y0033255D01*
X0015080Y0043255D02*
X0023080Y0043255D01*
X0019080Y0047255D01*
X0019080Y0039255D01*
X0015080Y0043255D01*
X0015080Y0053255D02*
X0023080Y0053255D01*
X0019080Y0057255D01*
X0019080Y0049255D01*
X0015080Y0053255D01*
X0015080Y0063255D02*
X0023080Y0063255D01*
X0019080Y0067255D01*
X0019080Y0059255D01*
X0015080Y0063255D01*
X0015080Y0073255D02*
X0023080Y0073255D01*
X0019080Y0077255D01*
X0019080Y0069255D01*
X0015080Y0073255D01*
X0005080Y0073255D02*
X0013080Y0073255D01*
X0009080Y0077255D01*
X0009080Y0069255D01*
X0005080Y0073255D01*
X0005080Y0063255D02*
X0013080Y0063255D01*
X0009080Y0067255D01*
X0009080Y0059255D01*
X0005080Y0063255D01*
X0005080Y0053255D02*
X0013080Y0053255D01*
X0009080Y0057255D01*
X0009080Y0049255D01*
X0005080Y0053255D01*
X0005080Y0043255D02*
X0013080Y0043255D01*
X0009080Y0047255D01*
X0009080Y0039255D01*
X0005080Y0043255D01*
X0005080Y0033255D02*
X0013080Y0033255D01*
X0009080Y0037255D01*
X0009080Y0029255D01*
X0005080Y0033255D01*
X0005080Y0213255D02*
X0013080Y0213255D01*
X0009080Y0217255D01*
X0009080Y0209255D01*
X0005080Y0213255D01*
X0005080Y0223255D02*
X0013080Y0223255D01*
X0009080Y0227255D01*
X0009080Y0219255D01*
X0005080Y0223255D01*
X0015080Y0223255D02*
X0023080Y0223255D01*
X0019080Y0227255D01*
X0019080Y0219255D01*
X0015080Y0223255D01*
X0015080Y0213255D02*
X0023080Y0213255D01*
X0019080Y0217255D01*
X0019080Y0209255D01*
X0015080Y0213255D01*
X0025080Y0213255D02*
X0033080Y0213255D01*
X0029080Y0217255D01*
X0029080Y0209255D01*
X0025080Y0213255D01*
X0025080Y0223255D02*
X0033080Y0223255D01*
X0029080Y0227255D01*
X0029080Y0219255D01*
X0025080Y0223255D01*
X0140991Y0033255D02*
X0148991Y0033255D01*
X0144991Y0037255D01*
X0144991Y0029255D01*
X0140991Y0033255D01*
X0140991Y0043255D02*
X0148991Y0043255D01*
X0144991Y0047255D01*
X0144991Y0039255D01*
X0140991Y0043255D01*
X0140991Y0053255D02*
X0148991Y0053255D01*
X0144991Y0057255D01*
X0144991Y0049255D01*
X0140991Y0053255D01*
X0140991Y0063255D02*
X0148991Y0063255D01*
X0144991Y0067255D01*
X0144991Y0059255D01*
X0140991Y0063255D01*
X0140991Y0073255D02*
X0148991Y0073255D01*
X0144991Y0077255D01*
X0144991Y0069255D01*
X0140991Y0073255D01*
X0130991Y0073255D02*
X0138991Y0073255D01*
X0134991Y0077255D01*
X0134991Y0069255D01*
X0130991Y0073255D01*
X0130991Y0063255D02*
X0138991Y0063255D01*
X0134991Y0067255D01*
X0134991Y0059255D01*
X0130991Y0063255D01*
X0130991Y0053255D02*
X0138991Y0053255D01*
X0134991Y0057255D01*
X0134991Y0049255D01*
X0130991Y0053255D01*
X0130991Y0043255D02*
X0138991Y0043255D01*
X0134991Y0047255D01*
X0134991Y0039255D01*
X0130991Y0043255D01*
X0130991Y0033255D02*
X0138991Y0033255D01*
X0134991Y0037255D01*
X0134991Y0029255D01*
X0130991Y0033255D01*
X0130991Y0213255D02*
X0138991Y0213255D01*
X0134991Y0217255D01*
X0134991Y0209255D01*
X0130991Y0213255D01*
X0130991Y0223255D02*
X0138991Y0223255D01*
X0134991Y0227255D01*
X0134991Y0219255D01*
X0130991Y0223255D01*
X0140991Y0223255D02*
X0148991Y0223255D01*
X0144991Y0227255D01*
X0144991Y0219255D01*
X0140991Y0223255D01*
X0140991Y0213255D02*
X0148991Y0213255D01*
X0144991Y0217255D01*
X0144991Y0209255D01*
X0140991Y0213255D01*
X0150991Y0213255D02*
X0158991Y0213255D01*
X0154991Y0217255D01*
X0154991Y0209255D01*
X0150991Y0213255D01*
X0150991Y0223255D02*
X0158991Y0223255D01*
X0154991Y0227255D01*
X0154991Y0219255D01*
X0150991Y0223255D01*
X0266902Y0033255D02*
X0274902Y0033255D01*
X0270902Y0037255D01*
X0270902Y0029255D01*
X0266902Y0033255D01*
X0266902Y0043255D02*
X0274902Y0043255D01*
X0270902Y0047255D01*
X0270902Y0039255D01*
X0266902Y0043255D01*
X0266902Y0053255D02*
X0274902Y0053255D01*
X0270902Y0057255D01*
X0270902Y0049255D01*
X0266902Y0053255D01*
X0266902Y0063255D02*
X0274902Y0063255D01*
X0270902Y0067255D01*
X0270902Y0059255D01*
X0266902Y0063255D01*
X0266902Y0073255D02*
X0274902Y0073255D01*
X0270902Y0077255D01*
X0270902Y0069255D01*
X0266902Y0073255D01*
X0256902Y0073255D02*
X0264902Y0073255D01*
X0260902Y0077255D01*
X0260902Y0069255D01*
X0256902Y0073255D01*
X0256902Y0063255D02*
X0264902Y0063255D01*
X0260902Y0067255D01*
X0260902Y0059255D01*
X0256902Y0063255D01*
X0256902Y0053255D02*
X0264902Y0053255D01*
X0260902Y0057255D01*
X0260902Y0049255D01*
X0256902Y0053255D01*
X0256902Y0043255D02*
X0264902Y0043255D01*
X0260902Y0047255D01*
X0260902Y0039255D01*
X0256902Y0043255D01*
X0256902Y0033255D02*
X0264902Y0033255D01*
X0260902Y0037255D01*
X0260902Y0029255D01*
X0256902Y0033255D01*
X0256902Y0213255D02*
X0264902Y0213255D01*
X0260902Y0217255D01*
X0260902Y0209255D01*
X0256902Y0213255D01*
X0256902Y0223255D02*
X0264902Y0223255D01*
X0260902Y0227255D01*
X0260902Y0219255D01*
X0256902Y0223255D01*
X0266902Y0223255D02*
X0274902Y0223255D01*
X0270902Y0227255D01*
X0270902Y0219255D01*
X0266902Y0223255D01*
X0266902Y0213255D02*
X0274902Y0213255D01*
X0270902Y0217255D01*
X0270902Y0209255D01*
X0266902Y0213255D01*
X0276902Y0213255D02*
X0284902Y0213255D01*
X0280902Y0217255D01*
X0280902Y0209255D01*
X0276902Y0213255D01*
X0276902Y0223255D02*
X0284902Y0223255D01*
X0280902Y0227255D01*
X0280902Y0219255D01*
X0276902Y0223255D01*
X0101420Y0065655D02*
X0109420Y0065655D01*
X0105420Y0061655D02*
X0105420Y0069655D01*
X0101520Y0069555D02*
X0109320Y0069555D01*
X0109320Y0061755D01*
X0101520Y0061755D01*
X0101520Y0069555D01*
X0108510Y0078655D02*
X0116510Y0078655D01*
X0112510Y0074655D02*
X0112510Y0082655D01*
X0108610Y0082555D02*
X0116410Y0082555D01*
X0116410Y0074755D01*
X0108610Y0074755D01*
X0108610Y0082555D01*
X0091580Y0067235D02*
X0099580Y0067235D01*
X0095580Y0063235D02*
X0095580Y0071235D01*
X0091680Y0071135D02*
X0099480Y0071135D01*
X0099480Y0063335D01*
X0091680Y0063335D01*
X0091680Y0071135D01*
X0089220Y0064475D02*
X0097220Y0064475D01*
X0093220Y0060475D02*
X0093220Y0068475D01*
X0089320Y0068375D02*
X0097120Y0068375D01*
X0097120Y0060575D01*
X0089320Y0060575D01*
X0089320Y0068375D01*
X0087640Y0067625D02*
X0095640Y0067625D01*
X0091640Y0063625D02*
X0091640Y0071625D01*
X0087740Y0071525D02*
X0095540Y0071525D01*
X0095540Y0063725D01*
X0087740Y0063725D01*
X0087740Y0071525D01*
X0088430Y0074715D02*
X0096430Y0074715D01*
X0092430Y0070715D02*
X0092430Y0078715D01*
X0088530Y0078615D02*
X0096330Y0078615D01*
X0096330Y0070815D01*
X0088530Y0070815D01*
X0088530Y0078615D01*
X0078980Y0075105D02*
X0086980Y0075105D01*
X0082980Y0071105D02*
X0082980Y0079105D01*
X0079080Y0079005D02*
X0086880Y0079005D01*
X0086880Y0071205D01*
X0079080Y0071205D01*
X0079080Y0079005D01*
X0074260Y0085345D02*
X0082260Y0085345D01*
X0078260Y0081345D02*
X0078260Y0089345D01*
X0074360Y0089245D02*
X0082160Y0089245D01*
X0082160Y0081445D01*
X0074360Y0081445D01*
X0074360Y0089245D01*
X0071500Y0089675D02*
X0079500Y0089675D01*
X0075500Y0085675D02*
X0075500Y0093675D01*
X0071600Y0093575D02*
X0079400Y0093575D01*
X0079400Y0085775D01*
X0071600Y0085775D01*
X0071600Y0093575D01*
X0068350Y0085345D02*
X0076350Y0085345D01*
X0072350Y0081345D02*
X0072350Y0089345D01*
X0068450Y0089245D02*
X0076250Y0089245D01*
X0076250Y0081445D01*
X0068450Y0081445D01*
X0068450Y0089245D01*
X0068350Y0080625D02*
X0076350Y0080625D01*
X0072350Y0076625D02*
X0072350Y0084625D01*
X0068450Y0084525D02*
X0076250Y0084525D01*
X0076250Y0076725D01*
X0068450Y0076725D01*
X0068450Y0084525D01*
X0068350Y0075895D02*
X0076350Y0075895D01*
X0072350Y0071895D02*
X0072350Y0079895D01*
X0068450Y0079795D02*
X0076250Y0079795D01*
X0076250Y0071995D01*
X0068450Y0071995D01*
X0068450Y0079795D01*
X0068740Y0068805D02*
X0076740Y0068805D01*
X0072740Y0064805D02*
X0072740Y0072805D01*
X0068840Y0072705D02*
X0076640Y0072705D01*
X0076640Y0064905D01*
X0068840Y0064905D01*
X0068840Y0072705D01*
X0068740Y0065265D02*
X0076740Y0065265D01*
X0072740Y0061265D02*
X0072740Y0069265D01*
X0068840Y0069165D02*
X0076640Y0069165D01*
X0076640Y0061365D01*
X0068840Y0061365D01*
X0068840Y0069165D01*
X0065600Y0066845D02*
X0073600Y0066845D01*
X0069600Y0062845D02*
X0069600Y0070845D01*
X0065700Y0070745D02*
X0073500Y0070745D01*
X0073500Y0062945D01*
X0065700Y0062945D01*
X0065700Y0070745D01*
X0054570Y0045975D02*
X0062570Y0045975D01*
X0058570Y0041975D02*
X0058570Y0049975D01*
X0054670Y0049875D02*
X0062470Y0049875D01*
X0062470Y0042075D01*
X0054670Y0042075D01*
X0054670Y0049875D01*
X0051030Y0045975D02*
X0059030Y0045975D01*
X0055030Y0041975D02*
X0055030Y0049975D01*
X0051130Y0049875D02*
X0058930Y0049875D01*
X0058930Y0042075D01*
X0051130Y0042075D01*
X0051130Y0049875D01*
X0051030Y0029835D02*
X0059030Y0029835D01*
X0055030Y0025835D02*
X0055030Y0033835D01*
X0051130Y0033735D02*
X0058930Y0033735D01*
X0058930Y0025935D01*
X0051130Y0025935D01*
X0051130Y0033735D01*
X0054570Y0029835D02*
X0062570Y0029835D01*
X0058570Y0025835D02*
X0058570Y0033835D01*
X0054670Y0033735D02*
X0062470Y0033735D01*
X0062470Y0025935D01*
X0054670Y0025935D01*
X0054670Y0033735D01*
X0054570Y0022745D02*
X0062570Y0022745D01*
X0058570Y0018745D02*
X0058570Y0026745D01*
X0054670Y0026645D02*
X0062470Y0026645D01*
X0062470Y0018845D01*
X0054670Y0018845D01*
X0054670Y0026645D01*
X0054570Y0014475D02*
X0062570Y0014475D01*
X0058570Y0010475D02*
X0058570Y0018475D01*
X0054670Y0018375D02*
X0062470Y0018375D01*
X0062470Y0010575D01*
X0054670Y0010575D01*
X0054670Y0018375D01*
X0062840Y0032585D02*
X0070840Y0032585D01*
X0066840Y0028585D02*
X0066840Y0036585D01*
X0062940Y0036485D02*
X0070740Y0036485D01*
X0070740Y0028685D01*
X0062940Y0028685D01*
X0062940Y0036485D01*
X0069530Y0011325D02*
X0077530Y0011325D01*
X0073530Y0007325D02*
X0073530Y0015325D01*
X0069630Y0015225D02*
X0077430Y0015225D01*
X0077430Y0007425D01*
X0069630Y0007425D01*
X0069630Y0015225D01*
X0076230Y0013695D02*
X0084230Y0013695D01*
X0080230Y0009695D02*
X0080230Y0017695D01*
X0076330Y0017595D02*
X0084130Y0017595D01*
X0084130Y0009795D01*
X0076330Y0009795D01*
X0076330Y0017595D01*
X0083310Y0017625D02*
X0091310Y0017625D01*
X0087310Y0013625D02*
X0087310Y0021625D01*
X0083410Y0021525D02*
X0091210Y0021525D01*
X0091210Y0013725D01*
X0083410Y0013725D01*
X0083410Y0021525D01*
X0091970Y0035735D02*
X0099970Y0035735D01*
X0095970Y0031735D02*
X0095970Y0039735D01*
X0092070Y0039635D02*
X0099870Y0039635D01*
X0099870Y0031835D01*
X0092070Y0031835D01*
X0092070Y0039635D01*
X0091970Y0039285D02*
X0099970Y0039285D01*
X0095970Y0035285D02*
X0095970Y0043285D01*
X0092070Y0043185D02*
X0099870Y0043185D01*
X0099870Y0035385D01*
X0092070Y0035385D01*
X0092070Y0043185D01*
X0091970Y0042825D02*
X0099970Y0042825D01*
X0095970Y0038825D02*
X0095970Y0046825D01*
X0092070Y0046725D02*
X0099870Y0046725D01*
X0099870Y0038925D01*
X0092070Y0038925D01*
X0092070Y0046725D01*
X0056930Y0099915D02*
X0064930Y0099915D01*
X0060930Y0095915D02*
X0060930Y0103915D01*
X0057030Y0103815D02*
X0064830Y0103815D01*
X0064830Y0096015D01*
X0057030Y0096015D01*
X0057030Y0103815D01*
X0064020Y0112515D02*
X0072020Y0112515D01*
X0068020Y0108515D02*
X0068020Y0116515D01*
X0064120Y0116415D02*
X0071920Y0116415D01*
X0071920Y0108615D01*
X0064120Y0108615D01*
X0064120Y0116415D01*
X0064810Y0125105D02*
X0072810Y0125105D01*
X0068810Y0121105D02*
X0068810Y0129105D01*
X0064910Y0129005D02*
X0072710Y0129005D01*
X0072710Y0121205D01*
X0064910Y0121205D01*
X0064910Y0129005D01*
X0064810Y0128655D02*
X0072810Y0128655D01*
X0068810Y0124655D02*
X0068810Y0132655D01*
X0064910Y0132555D02*
X0072710Y0132555D01*
X0072710Y0124755D01*
X0064910Y0124755D01*
X0064910Y0132555D01*
X0055360Y0128255D02*
X0063360Y0128255D01*
X0059360Y0124255D02*
X0059360Y0132255D01*
X0055460Y0132155D02*
X0063260Y0132155D01*
X0063260Y0124355D01*
X0055460Y0124355D01*
X0055460Y0132155D01*
X0051420Y0139675D02*
X0059420Y0139675D01*
X0055420Y0135675D02*
X0055420Y0143675D01*
X0051520Y0143575D02*
X0059320Y0143575D01*
X0059320Y0135775D01*
X0051520Y0135775D01*
X0051520Y0143575D01*
X0040000Y0129045D02*
X0048000Y0129045D01*
X0044000Y0125045D02*
X0044000Y0133045D01*
X0040100Y0132945D02*
X0047900Y0132945D01*
X0047900Y0125145D01*
X0040100Y0125145D01*
X0040100Y0132945D01*
X0034100Y0134555D02*
X0042100Y0134555D01*
X0038100Y0130555D02*
X0038100Y0138555D01*
X0034200Y0138455D02*
X0042000Y0138455D01*
X0042000Y0130655D01*
X0034200Y0130655D01*
X0034200Y0138455D01*
X0029770Y0140065D02*
X0037770Y0140065D01*
X0033770Y0136065D02*
X0033770Y0144065D01*
X0029870Y0143965D02*
X0037670Y0143965D01*
X0037670Y0136165D01*
X0029870Y0136165D01*
X0029870Y0143965D01*
X0027800Y0149515D02*
X0035800Y0149515D01*
X0031800Y0145515D02*
X0031800Y0153515D01*
X0027900Y0153415D02*
X0035700Y0153415D01*
X0035700Y0145615D01*
X0027900Y0145615D01*
X0027900Y0153415D01*
X0034100Y0156215D02*
X0042100Y0156215D01*
X0038100Y0152215D02*
X0038100Y0160215D01*
X0034200Y0160115D02*
X0042000Y0160115D01*
X0042000Y0152315D01*
X0034200Y0152315D01*
X0034200Y0160115D01*
X0035670Y0162115D02*
X0043670Y0162115D01*
X0039670Y0158115D02*
X0039670Y0166115D01*
X0035770Y0166015D02*
X0043570Y0166015D01*
X0043570Y0158215D01*
X0035770Y0158215D01*
X0035770Y0166015D01*
X0040000Y0160545D02*
X0048000Y0160545D01*
X0044000Y0156545D02*
X0044000Y0164545D01*
X0040100Y0164445D02*
X0047900Y0164445D01*
X0047900Y0156645D01*
X0040100Y0156645D01*
X0040100Y0164445D01*
X0047480Y0157785D02*
X0055480Y0157785D01*
X0051480Y0153785D02*
X0051480Y0161785D01*
X0047580Y0161685D02*
X0055380Y0161685D01*
X0055380Y0153885D01*
X0047580Y0153885D01*
X0047580Y0161685D01*
X0055360Y0159365D02*
X0063360Y0159365D01*
X0059360Y0155365D02*
X0059360Y0163365D01*
X0055460Y0163265D02*
X0063260Y0163265D01*
X0063260Y0155465D01*
X0055460Y0155465D01*
X0055460Y0163265D01*
X0061260Y0158965D02*
X0069260Y0158965D01*
X0065260Y0154965D02*
X0065260Y0162965D01*
X0061360Y0162865D02*
X0069160Y0162865D01*
X0069160Y0155065D01*
X0061360Y0155065D01*
X0061360Y0162865D01*
X0049850Y0180225D02*
X0057850Y0180225D01*
X0053850Y0176225D02*
X0053850Y0184225D01*
X0049950Y0184125D02*
X0057750Y0184125D01*
X0057750Y0176325D01*
X0049950Y0176325D01*
X0049950Y0184125D01*
X0053780Y0195185D02*
X0061780Y0195185D01*
X0057780Y0191185D02*
X0057780Y0199185D01*
X0053880Y0199085D02*
X0061680Y0199085D01*
X0061680Y0191285D01*
X0053880Y0191285D01*
X0053880Y0199085D01*
X0061260Y0200695D02*
X0069260Y0200695D01*
X0065260Y0196695D02*
X0065260Y0204695D01*
X0061360Y0204595D02*
X0069160Y0204595D01*
X0069160Y0196795D01*
X0061360Y0196795D01*
X0061360Y0204595D01*
X0058110Y0211725D02*
X0066110Y0211725D01*
X0062110Y0207725D02*
X0062110Y0215725D01*
X0058210Y0215625D02*
X0066010Y0215625D01*
X0066010Y0207825D01*
X0058210Y0207825D01*
X0058210Y0215625D01*
X0069530Y0222355D02*
X0077530Y0222355D01*
X0073530Y0218355D02*
X0073530Y0226355D01*
X0069630Y0226255D02*
X0077430Y0226255D01*
X0077430Y0218455D01*
X0069630Y0218455D01*
X0069630Y0226255D01*
X0075440Y0221565D02*
X0083440Y0221565D01*
X0079440Y0217565D02*
X0079440Y0225565D01*
X0075540Y0225465D02*
X0083340Y0225465D01*
X0083340Y0217665D01*
X0075540Y0217665D01*
X0075540Y0225465D01*
X0073080Y0251485D02*
X0081080Y0251485D01*
X0077080Y0247485D02*
X0077080Y0255485D01*
X0073180Y0255385D02*
X0080980Y0255385D01*
X0080980Y0247585D01*
X0073180Y0247585D01*
X0073180Y0255385D01*
X0056540Y0239285D02*
X0064540Y0239285D01*
X0060540Y0235285D02*
X0060540Y0243285D01*
X0056640Y0243185D02*
X0064440Y0243185D01*
X0064440Y0235385D01*
X0056640Y0235385D01*
X0056640Y0243185D01*
X0053000Y0246365D02*
X0061000Y0246365D01*
X0057000Y0242365D02*
X0057000Y0250365D01*
X0053100Y0250265D02*
X0060900Y0250265D01*
X0060900Y0242465D01*
X0053100Y0242465D01*
X0053100Y0250265D01*
X0046700Y0229435D02*
X0054700Y0229435D01*
X0050700Y0225435D02*
X0050700Y0233435D01*
X0046800Y0233335D02*
X0054600Y0233335D01*
X0054600Y0225535D01*
X0046800Y0225535D01*
X0046800Y0233335D01*
X0039220Y0214085D02*
X0047220Y0214085D01*
X0043220Y0210085D02*
X0043220Y0218085D01*
X0039320Y0217985D02*
X0047120Y0217985D01*
X0047120Y0210185D01*
X0039320Y0210185D01*
X0039320Y0217985D01*
X0046700Y0195585D02*
X0054700Y0195585D01*
X0050700Y0191585D02*
X0050700Y0199585D01*
X0046800Y0199485D02*
X0054600Y0199485D01*
X0054600Y0191685D01*
X0046800Y0191685D01*
X0046800Y0199485D01*
X0027410Y0194395D02*
X0035410Y0194395D01*
X0031410Y0190395D02*
X0031410Y0198395D01*
X0027510Y0198295D02*
X0035310Y0198295D01*
X0035310Y0190495D01*
X0027510Y0190495D01*
X0027510Y0198295D01*
X0020320Y0181015D02*
X0028320Y0181015D01*
X0024320Y0177015D02*
X0024320Y0185015D01*
X0020420Y0184915D02*
X0028220Y0184915D01*
X0028220Y0177115D01*
X0020420Y0177115D01*
X0020420Y0184915D01*
X0016780Y0171565D02*
X0024780Y0171565D01*
X0020780Y0167565D02*
X0020780Y0175565D01*
X0016880Y0175465D02*
X0024680Y0175465D01*
X0024680Y0167665D01*
X0016880Y0167665D01*
X0016880Y0175465D01*
X0027410Y0176285D02*
X0035410Y0176285D01*
X0031410Y0172285D02*
X0031410Y0180285D01*
X0027510Y0180185D02*
X0035310Y0180185D01*
X0035310Y0172385D01*
X0027510Y0172385D01*
X0027510Y0180185D01*
X0017170Y0151095D02*
X0025170Y0151095D01*
X0021170Y0147095D02*
X0021170Y0155095D01*
X0017270Y0154995D02*
X0025070Y0154995D01*
X0025070Y0147195D01*
X0017270Y0147195D01*
X0017270Y0154995D01*
X0000630Y0127075D02*
X0008630Y0127075D01*
X0004630Y0123075D02*
X0004630Y0131075D01*
X0000730Y0130975D02*
X0008530Y0130975D01*
X0008530Y0123175D01*
X0000730Y0123175D01*
X0000730Y0130975D01*
X0000630Y0112115D02*
X0008630Y0112115D01*
X0004630Y0108115D02*
X0004630Y0116115D01*
X0000730Y0116015D02*
X0008530Y0116015D01*
X0008530Y0108215D01*
X0000730Y0108215D01*
X0000730Y0116015D01*
X0000630Y0103065D02*
X0008630Y0103065D01*
X0004630Y0099065D02*
X0004630Y0107065D01*
X0000730Y0106965D02*
X0008530Y0106965D01*
X0008530Y0099165D01*
X0000730Y0099165D01*
X0000730Y0106965D01*
X0000630Y0094005D02*
X0008630Y0094005D01*
X0004630Y0090005D02*
X0004630Y0098005D01*
X0000730Y0097905D02*
X0008530Y0097905D01*
X0008530Y0090105D01*
X0000730Y0090105D01*
X0000730Y0097905D01*
X0000630Y0084955D02*
X0008630Y0084955D01*
X0004630Y0080955D02*
X0004630Y0088955D01*
X0000730Y0088855D02*
X0008530Y0088855D01*
X0008530Y0081055D01*
X0000730Y0081055D01*
X0000730Y0088855D01*
X0021890Y0068415D02*
X0029890Y0068415D01*
X0025890Y0064415D02*
X0025890Y0072415D01*
X0021990Y0072315D02*
X0029790Y0072315D01*
X0029790Y0064515D01*
X0021990Y0064515D01*
X0021990Y0072315D01*
X0037250Y0097545D02*
X0045250Y0097545D01*
X0041250Y0093545D02*
X0041250Y0101545D01*
X0037350Y0101445D02*
X0045150Y0101445D01*
X0045150Y0093645D01*
X0037350Y0093645D01*
X0037350Y0101445D01*
X0043150Y0116445D02*
X0051150Y0116445D01*
X0047150Y0112445D02*
X0047150Y0120445D01*
X0043250Y0120345D02*
X0051050Y0120345D01*
X0051050Y0112545D01*
X0043250Y0112545D01*
X0043250Y0120345D01*
X0037640Y0139675D02*
X0045640Y0139675D01*
X0041640Y0135675D02*
X0041640Y0143675D01*
X0037740Y0143575D02*
X0045540Y0143575D01*
X0045540Y0135775D01*
X0037740Y0135775D01*
X0037740Y0143575D01*
X0036460Y0146765D02*
X0044460Y0146765D01*
X0040460Y0142765D02*
X0040460Y0150765D01*
X0036560Y0150665D02*
X0044360Y0150665D01*
X0044360Y0142865D01*
X0036560Y0142865D01*
X0036560Y0150665D01*
X0070320Y0191055D02*
X0078320Y0191055D01*
X0074320Y0187055D02*
X0074320Y0195055D01*
X0070420Y0194955D02*
X0078220Y0194955D01*
X0078220Y0187155D01*
X0070420Y0187155D01*
X0070420Y0194955D01*
X0077800Y0181015D02*
X0085800Y0181015D01*
X0081800Y0177015D02*
X0081800Y0185015D01*
X0077900Y0184915D02*
X0085700Y0184915D01*
X0085700Y0177115D01*
X0077900Y0177115D01*
X0077900Y0184915D01*
X0077800Y0173145D02*
X0085800Y0173145D01*
X0081800Y0169145D02*
X0081800Y0177145D01*
X0077900Y0177045D02*
X0085700Y0177045D01*
X0085700Y0169245D01*
X0077900Y0169245D01*
X0077900Y0177045D01*
X0084490Y0179835D02*
X0092490Y0179835D01*
X0088490Y0175835D02*
X0088490Y0183835D01*
X0084590Y0183735D02*
X0092390Y0183735D01*
X0092390Y0175935D01*
X0084590Y0175935D01*
X0084590Y0183735D01*
X0084490Y0187705D02*
X0092490Y0187705D01*
X0088490Y0183705D02*
X0088490Y0191705D01*
X0084590Y0191605D02*
X0092390Y0191605D01*
X0092390Y0183805D01*
X0084590Y0183805D01*
X0084590Y0191605D01*
X0077410Y0154245D02*
X0085410Y0154245D01*
X0081410Y0150245D02*
X0081410Y0158245D01*
X0077510Y0158145D02*
X0085310Y0158145D01*
X0085310Y0150345D01*
X0077510Y0150345D01*
X0077510Y0158145D01*
X0077800Y0146765D02*
X0085800Y0146765D01*
X0081800Y0142765D02*
X0081800Y0150765D01*
X0077900Y0150665D02*
X0085700Y0150665D01*
X0085700Y0142865D01*
X0077900Y0142865D01*
X0077900Y0150665D01*
X0085280Y0131805D02*
X0093280Y0131805D01*
X0089280Y0127805D02*
X0089280Y0135805D01*
X0085380Y0135705D02*
X0093180Y0135705D01*
X0093180Y0127905D01*
X0085380Y0127905D01*
X0085380Y0135705D01*
X0097090Y0138885D02*
X0105090Y0138885D01*
X0101090Y0134885D02*
X0101090Y0142885D01*
X0097190Y0142785D02*
X0104990Y0142785D01*
X0104990Y0134985D01*
X0097190Y0134985D01*
X0097190Y0142785D01*
X0099850Y0129835D02*
X0107850Y0129835D01*
X0103850Y0125835D02*
X0103850Y0133835D01*
X0099950Y0133735D02*
X0107750Y0133735D01*
X0107750Y0125935D01*
X0099950Y0125935D01*
X0099950Y0133735D01*
X0110080Y0136525D02*
X0118080Y0136525D01*
X0114080Y0132525D02*
X0114080Y0140525D01*
X0110180Y0140425D02*
X0117980Y0140425D01*
X0117980Y0132625D01*
X0110180Y0132625D01*
X0110180Y0140425D01*
X0110080Y0121565D02*
X0118080Y0121565D01*
X0114080Y0117565D02*
X0114080Y0125565D01*
X0110180Y0125465D02*
X0117980Y0125465D01*
X0117980Y0117665D01*
X0110180Y0117665D01*
X0110180Y0125465D01*
X0110080Y0152275D02*
X0118080Y0152275D01*
X0114080Y0148275D02*
X0114080Y0156275D01*
X0110180Y0156175D02*
X0117980Y0156175D01*
X0117980Y0148375D01*
X0110180Y0148375D01*
X0110180Y0156175D01*
X0110080Y0187315D02*
X0118080Y0187315D01*
X0114080Y0183315D02*
X0114080Y0191315D01*
X0110180Y0191215D02*
X0117980Y0191215D01*
X0117980Y0183415D01*
X0110180Y0183415D01*
X0110180Y0191215D01*
X0108900Y0201885D02*
X0116900Y0201885D01*
X0112900Y0197885D02*
X0112900Y0205885D01*
X0109000Y0205785D02*
X0116800Y0205785D01*
X0116800Y0197985D01*
X0109000Y0197985D01*
X0109000Y0205785D01*
X0102600Y0225505D02*
X0110600Y0225505D01*
X0106600Y0221505D02*
X0106600Y0229505D01*
X0102700Y0229405D02*
X0110500Y0229405D01*
X0110500Y0221605D01*
X0102700Y0221605D01*
X0102700Y0229405D01*
X0094340Y0221565D02*
X0102340Y0221565D01*
X0098340Y0217565D02*
X0098340Y0225565D01*
X0094440Y0225465D02*
X0102240Y0225465D01*
X0102240Y0217665D01*
X0094440Y0217665D01*
X0094440Y0225465D01*
X0032920Y0238885D02*
X0040920Y0238885D01*
X0036920Y0234885D02*
X0036920Y0242885D01*
X0033020Y0242785D02*
X0040820Y0242785D01*
X0040820Y0234985D01*
X0033020Y0234985D01*
X0033020Y0242785D01*
X0034100Y0246765D02*
X0042100Y0246765D01*
X0038100Y0242765D02*
X0038100Y0250765D01*
X0034200Y0250665D02*
X0042000Y0250665D01*
X0042000Y0242865D01*
X0034200Y0242865D01*
X0034200Y0250665D01*
X0021890Y0251485D02*
X0029890Y0251485D01*
X0025890Y0247485D02*
X0025890Y0255485D01*
X0021990Y0255385D02*
X0029790Y0255385D01*
X0029790Y0247585D01*
X0021990Y0247585D01*
X0021990Y0255385D01*
X0001030Y0230625D02*
X0009030Y0230625D01*
X0005030Y0226625D02*
X0005030Y0234625D01*
X0001130Y0234525D02*
X0008930Y0234525D01*
X0008930Y0226725D01*
X0001130Y0226725D01*
X0001130Y0234525D01*
X0023860Y0030425D02*
X0031860Y0030425D01*
X0027860Y0026425D02*
X0027860Y0034425D01*
X0023960Y0034325D02*
X0031760Y0034325D01*
X0031760Y0026525D01*
X0023960Y0026525D01*
X0023960Y0034325D01*
X0025830Y0027275D02*
X0033830Y0027275D01*
X0029830Y0023275D02*
X0029830Y0031275D01*
X0025930Y0031175D02*
X0033730Y0031175D01*
X0033730Y0023375D01*
X0025930Y0023375D01*
X0025930Y0031175D01*
X0027800Y0030425D02*
X0035800Y0030425D01*
X0031800Y0026425D02*
X0031800Y0034425D01*
X0027900Y0034325D02*
X0035700Y0034325D01*
X0035700Y0026525D01*
X0027900Y0026525D01*
X0027900Y0034325D01*
X0030160Y0016055D02*
X0038160Y0016055D01*
X0034160Y0012055D02*
X0034160Y0020055D01*
X0030260Y0019955D02*
X0038060Y0019955D01*
X0038060Y0012155D01*
X0030260Y0012155D01*
X0030260Y0019955D01*
X0034100Y0005425D02*
X0042100Y0005425D01*
X0038100Y0001425D02*
X0038100Y0009425D01*
X0034200Y0009325D02*
X0042000Y0009325D01*
X0042000Y0001525D01*
X0034200Y0001525D01*
X0034200Y0009325D01*
X0227331Y0065655D02*
X0235331Y0065655D01*
X0231331Y0061655D02*
X0231331Y0069655D01*
X0227431Y0069555D02*
X0235231Y0069555D01*
X0235231Y0061755D01*
X0227431Y0061755D01*
X0227431Y0069555D01*
X0234421Y0078655D02*
X0242421Y0078655D01*
X0238421Y0074655D02*
X0238421Y0082655D01*
X0234521Y0082555D02*
X0242321Y0082555D01*
X0242321Y0074755D01*
X0234521Y0074755D01*
X0234521Y0082555D01*
X0217491Y0067235D02*
X0225491Y0067235D01*
X0221491Y0063235D02*
X0221491Y0071235D01*
X0217591Y0071135D02*
X0225391Y0071135D01*
X0225391Y0063335D01*
X0217591Y0063335D01*
X0217591Y0071135D01*
X0215131Y0064475D02*
X0223131Y0064475D01*
X0219131Y0060475D02*
X0219131Y0068475D01*
X0215231Y0068375D02*
X0223031Y0068375D01*
X0223031Y0060575D01*
X0215231Y0060575D01*
X0215231Y0068375D01*
X0213551Y0067625D02*
X0221551Y0067625D01*
X0217551Y0063625D02*
X0217551Y0071625D01*
X0213651Y0071525D02*
X0221451Y0071525D01*
X0221451Y0063725D01*
X0213651Y0063725D01*
X0213651Y0071525D01*
X0214341Y0074715D02*
X0222341Y0074715D01*
X0218341Y0070715D02*
X0218341Y0078715D01*
X0214441Y0078615D02*
X0222241Y0078615D01*
X0222241Y0070815D01*
X0214441Y0070815D01*
X0214441Y0078615D01*
X0204891Y0075105D02*
X0212891Y0075105D01*
X0208891Y0071105D02*
X0208891Y0079105D01*
X0204991Y0079005D02*
X0212791Y0079005D01*
X0212791Y0071205D01*
X0204991Y0071205D01*
X0204991Y0079005D01*
X0200171Y0085345D02*
X0208171Y0085345D01*
X0204171Y0081345D02*
X0204171Y0089345D01*
X0200271Y0089245D02*
X0208071Y0089245D01*
X0208071Y0081445D01*
X0200271Y0081445D01*
X0200271Y0089245D01*
X0197411Y0089675D02*
X0205411Y0089675D01*
X0201411Y0085675D02*
X0201411Y0093675D01*
X0197511Y0093575D02*
X0205311Y0093575D01*
X0205311Y0085775D01*
X0197511Y0085775D01*
X0197511Y0093575D01*
X0194261Y0085345D02*
X0202261Y0085345D01*
X0198261Y0081345D02*
X0198261Y0089345D01*
X0194361Y0089245D02*
X0202161Y0089245D01*
X0202161Y0081445D01*
X0194361Y0081445D01*
X0194361Y0089245D01*
X0194261Y0080625D02*
X0202261Y0080625D01*
X0198261Y0076625D02*
X0198261Y0084625D01*
X0194361Y0084525D02*
X0202161Y0084525D01*
X0202161Y0076725D01*
X0194361Y0076725D01*
X0194361Y0084525D01*
X0194261Y0075895D02*
X0202261Y0075895D01*
X0198261Y0071895D02*
X0198261Y0079895D01*
X0194361Y0079795D02*
X0202161Y0079795D01*
X0202161Y0071995D01*
X0194361Y0071995D01*
X0194361Y0079795D01*
X0194651Y0068805D02*
X0202651Y0068805D01*
X0198651Y0064805D02*
X0198651Y0072805D01*
X0194751Y0072705D02*
X0202551Y0072705D01*
X0202551Y0064905D01*
X0194751Y0064905D01*
X0194751Y0072705D01*
X0194651Y0065265D02*
X0202651Y0065265D01*
X0198651Y0061265D02*
X0198651Y0069265D01*
X0194751Y0069165D02*
X0202551Y0069165D01*
X0202551Y0061365D01*
X0194751Y0061365D01*
X0194751Y0069165D01*
X0191511Y0066845D02*
X0199511Y0066845D01*
X0195511Y0062845D02*
X0195511Y0070845D01*
X0191611Y0070745D02*
X0199411Y0070745D01*
X0199411Y0062945D01*
X0191611Y0062945D01*
X0191611Y0070745D01*
X0180481Y0045975D02*
X0188481Y0045975D01*
X0184481Y0041975D02*
X0184481Y0049975D01*
X0180581Y0049875D02*
X0188381Y0049875D01*
X0188381Y0042075D01*
X0180581Y0042075D01*
X0180581Y0049875D01*
X0176941Y0045975D02*
X0184941Y0045975D01*
X0180941Y0041975D02*
X0180941Y0049975D01*
X0177041Y0049875D02*
X0184841Y0049875D01*
X0184841Y0042075D01*
X0177041Y0042075D01*
X0177041Y0049875D01*
X0176941Y0029835D02*
X0184941Y0029835D01*
X0180941Y0025835D02*
X0180941Y0033835D01*
X0177041Y0033735D02*
X0184841Y0033735D01*
X0184841Y0025935D01*
X0177041Y0025935D01*
X0177041Y0033735D01*
X0180481Y0029835D02*
X0188481Y0029835D01*
X0184481Y0025835D02*
X0184481Y0033835D01*
X0180581Y0033735D02*
X0188381Y0033735D01*
X0188381Y0025935D01*
X0180581Y0025935D01*
X0180581Y0033735D01*
X0180481Y0022745D02*
X0188481Y0022745D01*
X0184481Y0018745D02*
X0184481Y0026745D01*
X0180581Y0026645D02*
X0188381Y0026645D01*
X0188381Y0018845D01*
X0180581Y0018845D01*
X0180581Y0026645D01*
X0180481Y0014475D02*
X0188481Y0014475D01*
X0184481Y0010475D02*
X0184481Y0018475D01*
X0180581Y0018375D02*
X0188381Y0018375D01*
X0188381Y0010575D01*
X0180581Y0010575D01*
X0180581Y0018375D01*
X0188751Y0032585D02*
X0196751Y0032585D01*
X0192751Y0028585D02*
X0192751Y0036585D01*
X0188851Y0036485D02*
X0196651Y0036485D01*
X0196651Y0028685D01*
X0188851Y0028685D01*
X0188851Y0036485D01*
X0195441Y0011325D02*
X0203441Y0011325D01*
X0199441Y0007325D02*
X0199441Y0015325D01*
X0195541Y0015225D02*
X0203341Y0015225D01*
X0203341Y0007425D01*
X0195541Y0007425D01*
X0195541Y0015225D01*
X0202141Y0013695D02*
X0210141Y0013695D01*
X0206141Y0009695D02*
X0206141Y0017695D01*
X0202241Y0017595D02*
X0210041Y0017595D01*
X0210041Y0009795D01*
X0202241Y0009795D01*
X0202241Y0017595D01*
X0209221Y0017625D02*
X0217221Y0017625D01*
X0213221Y0013625D02*
X0213221Y0021625D01*
X0209321Y0021525D02*
X0217121Y0021525D01*
X0217121Y0013725D01*
X0209321Y0013725D01*
X0209321Y0021525D01*
X0217881Y0035735D02*
X0225881Y0035735D01*
X0221881Y0031735D02*
X0221881Y0039735D01*
X0217981Y0039635D02*
X0225781Y0039635D01*
X0225781Y0031835D01*
X0217981Y0031835D01*
X0217981Y0039635D01*
X0217881Y0039285D02*
X0225881Y0039285D01*
X0221881Y0035285D02*
X0221881Y0043285D01*
X0217981Y0043185D02*
X0225781Y0043185D01*
X0225781Y0035385D01*
X0217981Y0035385D01*
X0217981Y0043185D01*
X0217881Y0042825D02*
X0225881Y0042825D01*
X0221881Y0038825D02*
X0221881Y0046825D01*
X0217981Y0046725D02*
X0225781Y0046725D01*
X0225781Y0038925D01*
X0217981Y0038925D01*
X0217981Y0046725D01*
X0182841Y0099915D02*
X0190841Y0099915D01*
X0186841Y0095915D02*
X0186841Y0103915D01*
X0182941Y0103815D02*
X0190741Y0103815D01*
X0190741Y0096015D01*
X0182941Y0096015D01*
X0182941Y0103815D01*
X0189931Y0112515D02*
X0197931Y0112515D01*
X0193931Y0108515D02*
X0193931Y0116515D01*
X0190031Y0116415D02*
X0197831Y0116415D01*
X0197831Y0108615D01*
X0190031Y0108615D01*
X0190031Y0116415D01*
X0190721Y0125105D02*
X0198721Y0125105D01*
X0194721Y0121105D02*
X0194721Y0129105D01*
X0190821Y0129005D02*
X0198621Y0129005D01*
X0198621Y0121205D01*
X0190821Y0121205D01*
X0190821Y0129005D01*
X0190721Y0128655D02*
X0198721Y0128655D01*
X0194721Y0124655D02*
X0194721Y0132655D01*
X0190821Y0132555D02*
X0198621Y0132555D01*
X0198621Y0124755D01*
X0190821Y0124755D01*
X0190821Y0132555D01*
X0181271Y0128255D02*
X0189271Y0128255D01*
X0185271Y0124255D02*
X0185271Y0132255D01*
X0181371Y0132155D02*
X0189171Y0132155D01*
X0189171Y0124355D01*
X0181371Y0124355D01*
X0181371Y0132155D01*
X0177331Y0139675D02*
X0185331Y0139675D01*
X0181331Y0135675D02*
X0181331Y0143675D01*
X0177431Y0143575D02*
X0185231Y0143575D01*
X0185231Y0135775D01*
X0177431Y0135775D01*
X0177431Y0143575D01*
X0165911Y0129045D02*
X0173911Y0129045D01*
X0169911Y0125045D02*
X0169911Y0133045D01*
X0166011Y0132945D02*
X0173811Y0132945D01*
X0173811Y0125145D01*
X0166011Y0125145D01*
X0166011Y0132945D01*
X0160011Y0134555D02*
X0168011Y0134555D01*
X0164011Y0130555D02*
X0164011Y0138555D01*
X0160111Y0138455D02*
X0167911Y0138455D01*
X0167911Y0130655D01*
X0160111Y0130655D01*
X0160111Y0138455D01*
X0155681Y0140065D02*
X0163681Y0140065D01*
X0159681Y0136065D02*
X0159681Y0144065D01*
X0155781Y0143965D02*
X0163581Y0143965D01*
X0163581Y0136165D01*
X0155781Y0136165D01*
X0155781Y0143965D01*
X0153711Y0149515D02*
X0161711Y0149515D01*
X0157711Y0145515D02*
X0157711Y0153515D01*
X0153811Y0153415D02*
X0161611Y0153415D01*
X0161611Y0145615D01*
X0153811Y0145615D01*
X0153811Y0153415D01*
X0160011Y0156215D02*
X0168011Y0156215D01*
X0164011Y0152215D02*
X0164011Y0160215D01*
X0160111Y0160115D02*
X0167911Y0160115D01*
X0167911Y0152315D01*
X0160111Y0152315D01*
X0160111Y0160115D01*
X0161581Y0162115D02*
X0169581Y0162115D01*
X0165581Y0158115D02*
X0165581Y0166115D01*
X0161681Y0166015D02*
X0169481Y0166015D01*
X0169481Y0158215D01*
X0161681Y0158215D01*
X0161681Y0166015D01*
X0165911Y0160545D02*
X0173911Y0160545D01*
X0169911Y0156545D02*
X0169911Y0164545D01*
X0166011Y0164445D02*
X0173811Y0164445D01*
X0173811Y0156645D01*
X0166011Y0156645D01*
X0166011Y0164445D01*
X0173391Y0157785D02*
X0181391Y0157785D01*
X0177391Y0153785D02*
X0177391Y0161785D01*
X0173491Y0161685D02*
X0181291Y0161685D01*
X0181291Y0153885D01*
X0173491Y0153885D01*
X0173491Y0161685D01*
X0181271Y0159365D02*
X0189271Y0159365D01*
X0185271Y0155365D02*
X0185271Y0163365D01*
X0181371Y0163265D02*
X0189171Y0163265D01*
X0189171Y0155465D01*
X0181371Y0155465D01*
X0181371Y0163265D01*
X0187171Y0158965D02*
X0195171Y0158965D01*
X0191171Y0154965D02*
X0191171Y0162965D01*
X0187271Y0162865D02*
X0195071Y0162865D01*
X0195071Y0155065D01*
X0187271Y0155065D01*
X0187271Y0162865D01*
X0175761Y0180225D02*
X0183761Y0180225D01*
X0179761Y0176225D02*
X0179761Y0184225D01*
X0175861Y0184125D02*
X0183661Y0184125D01*
X0183661Y0176325D01*
X0175861Y0176325D01*
X0175861Y0184125D01*
X0179691Y0195185D02*
X0187691Y0195185D01*
X0183691Y0191185D02*
X0183691Y0199185D01*
X0179791Y0199085D02*
X0187591Y0199085D01*
X0187591Y0191285D01*
X0179791Y0191285D01*
X0179791Y0199085D01*
X0187171Y0200695D02*
X0195171Y0200695D01*
X0191171Y0196695D02*
X0191171Y0204695D01*
X0187271Y0204595D02*
X0195071Y0204595D01*
X0195071Y0196795D01*
X0187271Y0196795D01*
X0187271Y0204595D01*
X0184021Y0211725D02*
X0192021Y0211725D01*
X0188021Y0207725D02*
X0188021Y0215725D01*
X0184121Y0215625D02*
X0191921Y0215625D01*
X0191921Y0207825D01*
X0184121Y0207825D01*
X0184121Y0215625D01*
X0195441Y0222355D02*
X0203441Y0222355D01*
X0199441Y0218355D02*
X0199441Y0226355D01*
X0195541Y0226255D02*
X0203341Y0226255D01*
X0203341Y0218455D01*
X0195541Y0218455D01*
X0195541Y0226255D01*
X0201351Y0221565D02*
X0209351Y0221565D01*
X0205351Y0217565D02*
X0205351Y0225565D01*
X0201451Y0225465D02*
X0209251Y0225465D01*
X0209251Y0217665D01*
X0201451Y0217665D01*
X0201451Y0225465D01*
X0198991Y0251485D02*
X0206991Y0251485D01*
X0202991Y0247485D02*
X0202991Y0255485D01*
X0199091Y0255385D02*
X0206891Y0255385D01*
X0206891Y0247585D01*
X0199091Y0247585D01*
X0199091Y0255385D01*
X0182451Y0239285D02*
X0190451Y0239285D01*
X0186451Y0235285D02*
X0186451Y0243285D01*
X0182551Y0243185D02*
X0190351Y0243185D01*
X0190351Y0235385D01*
X0182551Y0235385D01*
X0182551Y0243185D01*
X0178911Y0246365D02*
X0186911Y0246365D01*
X0182911Y0242365D02*
X0182911Y0250365D01*
X0179011Y0250265D02*
X0186811Y0250265D01*
X0186811Y0242465D01*
X0179011Y0242465D01*
X0179011Y0250265D01*
X0172611Y0229435D02*
X0180611Y0229435D01*
X0176611Y0225435D02*
X0176611Y0233435D01*
X0172711Y0233335D02*
X0180511Y0233335D01*
X0180511Y0225535D01*
X0172711Y0225535D01*
X0172711Y0233335D01*
X0165131Y0214085D02*
X0173131Y0214085D01*
X0169131Y0210085D02*
X0169131Y0218085D01*
X0165231Y0217985D02*
X0173031Y0217985D01*
X0173031Y0210185D01*
X0165231Y0210185D01*
X0165231Y0217985D01*
X0172611Y0195585D02*
X0180611Y0195585D01*
X0176611Y0191585D02*
X0176611Y0199585D01*
X0172711Y0199485D02*
X0180511Y0199485D01*
X0180511Y0191685D01*
X0172711Y0191685D01*
X0172711Y0199485D01*
X0153321Y0194395D02*
X0161321Y0194395D01*
X0157321Y0190395D02*
X0157321Y0198395D01*
X0153421Y0198295D02*
X0161221Y0198295D01*
X0161221Y0190495D01*
X0153421Y0190495D01*
X0153421Y0198295D01*
X0146231Y0181015D02*
X0154231Y0181015D01*
X0150231Y0177015D02*
X0150231Y0185015D01*
X0146331Y0184915D02*
X0154131Y0184915D01*
X0154131Y0177115D01*
X0146331Y0177115D01*
X0146331Y0184915D01*
X0142691Y0171565D02*
X0150691Y0171565D01*
X0146691Y0167565D02*
X0146691Y0175565D01*
X0142791Y0175465D02*
X0150591Y0175465D01*
X0150591Y0167665D01*
X0142791Y0167665D01*
X0142791Y0175465D01*
X0153321Y0176285D02*
X0161321Y0176285D01*
X0157321Y0172285D02*
X0157321Y0180285D01*
X0153421Y0180185D02*
X0161221Y0180185D01*
X0161221Y0172385D01*
X0153421Y0172385D01*
X0153421Y0180185D01*
X0143081Y0151095D02*
X0151081Y0151095D01*
X0147081Y0147095D02*
X0147081Y0155095D01*
X0143181Y0154995D02*
X0150981Y0154995D01*
X0150981Y0147195D01*
X0143181Y0147195D01*
X0143181Y0154995D01*
X0126541Y0127075D02*
X0134541Y0127075D01*
X0130541Y0123075D02*
X0130541Y0131075D01*
X0126641Y0130975D02*
X0134441Y0130975D01*
X0134441Y0123175D01*
X0126641Y0123175D01*
X0126641Y0130975D01*
X0126541Y0112115D02*
X0134541Y0112115D01*
X0130541Y0108115D02*
X0130541Y0116115D01*
X0126641Y0116015D02*
X0134441Y0116015D01*
X0134441Y0108215D01*
X0126641Y0108215D01*
X0126641Y0116015D01*
X0126541Y0103065D02*
X0134541Y0103065D01*
X0130541Y0099065D02*
X0130541Y0107065D01*
X0126641Y0106965D02*
X0134441Y0106965D01*
X0134441Y0099165D01*
X0126641Y0099165D01*
X0126641Y0106965D01*
X0126541Y0094005D02*
X0134541Y0094005D01*
X0130541Y0090005D02*
X0130541Y0098005D01*
X0126641Y0097905D02*
X0134441Y0097905D01*
X0134441Y0090105D01*
X0126641Y0090105D01*
X0126641Y0097905D01*
X0126541Y0084955D02*
X0134541Y0084955D01*
X0130541Y0080955D02*
X0130541Y0088955D01*
X0126641Y0088855D02*
X0134441Y0088855D01*
X0134441Y0081055D01*
X0126641Y0081055D01*
X0126641Y0088855D01*
X0147801Y0068415D02*
X0155801Y0068415D01*
X0151801Y0064415D02*
X0151801Y0072415D01*
X0147901Y0072315D02*
X0155701Y0072315D01*
X0155701Y0064515D01*
X0147901Y0064515D01*
X0147901Y0072315D01*
X0163161Y0097545D02*
X0171161Y0097545D01*
X0167161Y0093545D02*
X0167161Y0101545D01*
X0163261Y0101445D02*
X0171061Y0101445D01*
X0171061Y0093645D01*
X0163261Y0093645D01*
X0163261Y0101445D01*
X0169061Y0116445D02*
X0177061Y0116445D01*
X0173061Y0112445D02*
X0173061Y0120445D01*
X0169161Y0120345D02*
X0176961Y0120345D01*
X0176961Y0112545D01*
X0169161Y0112545D01*
X0169161Y0120345D01*
X0163551Y0139675D02*
X0171551Y0139675D01*
X0167551Y0135675D02*
X0167551Y0143675D01*
X0163651Y0143575D02*
X0171451Y0143575D01*
X0171451Y0135775D01*
X0163651Y0135775D01*
X0163651Y0143575D01*
X0162371Y0146765D02*
X0170371Y0146765D01*
X0166371Y0142765D02*
X0166371Y0150765D01*
X0162471Y0150665D02*
X0170271Y0150665D01*
X0170271Y0142865D01*
X0162471Y0142865D01*
X0162471Y0150665D01*
X0196231Y0191055D02*
X0204231Y0191055D01*
X0200231Y0187055D02*
X0200231Y0195055D01*
X0196331Y0194955D02*
X0204131Y0194955D01*
X0204131Y0187155D01*
X0196331Y0187155D01*
X0196331Y0194955D01*
X0203711Y0181015D02*
X0211711Y0181015D01*
X0207711Y0177015D02*
X0207711Y0185015D01*
X0203811Y0184915D02*
X0211611Y0184915D01*
X0211611Y0177115D01*
X0203811Y0177115D01*
X0203811Y0184915D01*
X0203711Y0173145D02*
X0211711Y0173145D01*
X0207711Y0169145D02*
X0207711Y0177145D01*
X0203811Y0177045D02*
X0211611Y0177045D01*
X0211611Y0169245D01*
X0203811Y0169245D01*
X0203811Y0177045D01*
X0210401Y0179835D02*
X0218401Y0179835D01*
X0214401Y0175835D02*
X0214401Y0183835D01*
X0210501Y0183735D02*
X0218301Y0183735D01*
X0218301Y0175935D01*
X0210501Y0175935D01*
X0210501Y0183735D01*
X0210401Y0187705D02*
X0218401Y0187705D01*
X0214401Y0183705D02*
X0214401Y0191705D01*
X0210501Y0191605D02*
X0218301Y0191605D01*
X0218301Y0183805D01*
X0210501Y0183805D01*
X0210501Y0191605D01*
X0203321Y0154245D02*
X0211321Y0154245D01*
X0207321Y0150245D02*
X0207321Y0158245D01*
X0203421Y0158145D02*
X0211221Y0158145D01*
X0211221Y0150345D01*
X0203421Y0150345D01*
X0203421Y0158145D01*
X0203711Y0146765D02*
X0211711Y0146765D01*
X0207711Y0142765D02*
X0207711Y0150765D01*
X0203811Y0150665D02*
X0211611Y0150665D01*
X0211611Y0142865D01*
X0203811Y0142865D01*
X0203811Y0150665D01*
X0211191Y0131805D02*
X0219191Y0131805D01*
X0215191Y0127805D02*
X0215191Y0135805D01*
X0211291Y0135705D02*
X0219091Y0135705D01*
X0219091Y0127905D01*
X0211291Y0127905D01*
X0211291Y0135705D01*
X0223001Y0138885D02*
X0231001Y0138885D01*
X0227001Y0134885D02*
X0227001Y0142885D01*
X0223101Y0142785D02*
X0230901Y0142785D01*
X0230901Y0134985D01*
X0223101Y0134985D01*
X0223101Y0142785D01*
X0225761Y0129835D02*
X0233761Y0129835D01*
X0229761Y0125835D02*
X0229761Y0133835D01*
X0225861Y0133735D02*
X0233661Y0133735D01*
X0233661Y0125935D01*
X0225861Y0125935D01*
X0225861Y0133735D01*
X0235991Y0136525D02*
X0243991Y0136525D01*
X0239991Y0132525D02*
X0239991Y0140525D01*
X0236091Y0140425D02*
X0243891Y0140425D01*
X0243891Y0132625D01*
X0236091Y0132625D01*
X0236091Y0140425D01*
X0235991Y0121565D02*
X0243991Y0121565D01*
X0239991Y0117565D02*
X0239991Y0125565D01*
X0236091Y0125465D02*
X0243891Y0125465D01*
X0243891Y0117665D01*
X0236091Y0117665D01*
X0236091Y0125465D01*
X0235991Y0152275D02*
X0243991Y0152275D01*
X0239991Y0148275D02*
X0239991Y0156275D01*
X0236091Y0156175D02*
X0243891Y0156175D01*
X0243891Y0148375D01*
X0236091Y0148375D01*
X0236091Y0156175D01*
X0235991Y0187315D02*
X0243991Y0187315D01*
X0239991Y0183315D02*
X0239991Y0191315D01*
X0236091Y0191215D02*
X0243891Y0191215D01*
X0243891Y0183415D01*
X0236091Y0183415D01*
X0236091Y0191215D01*
X0234811Y0201885D02*
X0242811Y0201885D01*
X0238811Y0197885D02*
X0238811Y0205885D01*
X0234911Y0205785D02*
X0242711Y0205785D01*
X0242711Y0197985D01*
X0234911Y0197985D01*
X0234911Y0205785D01*
X0228511Y0225505D02*
X0236511Y0225505D01*
X0232511Y0221505D02*
X0232511Y0229505D01*
X0228611Y0229405D02*
X0236411Y0229405D01*
X0236411Y0221605D01*
X0228611Y0221605D01*
X0228611Y0229405D01*
X0220251Y0221565D02*
X0228251Y0221565D01*
X0224251Y0217565D02*
X0224251Y0225565D01*
X0220351Y0225465D02*
X0228151Y0225465D01*
X0228151Y0217665D01*
X0220351Y0217665D01*
X0220351Y0225465D01*
X0158831Y0238885D02*
X0166831Y0238885D01*
X0162831Y0234885D02*
X0162831Y0242885D01*
X0158931Y0242785D02*
X0166731Y0242785D01*
X0166731Y0234985D01*
X0158931Y0234985D01*
X0158931Y0242785D01*
X0160011Y0246765D02*
X0168011Y0246765D01*
X0164011Y0242765D02*
X0164011Y0250765D01*
X0160111Y0250665D02*
X0167911Y0250665D01*
X0167911Y0242865D01*
X0160111Y0242865D01*
X0160111Y0250665D01*
X0147801Y0251485D02*
X0155801Y0251485D01*
X0151801Y0247485D02*
X0151801Y0255485D01*
X0147901Y0255385D02*
X0155701Y0255385D01*
X0155701Y0247585D01*
X0147901Y0247585D01*
X0147901Y0255385D01*
X0126941Y0230625D02*
X0134941Y0230625D01*
X0130941Y0226625D02*
X0130941Y0234625D01*
X0127041Y0234525D02*
X0134841Y0234525D01*
X0134841Y0226725D01*
X0127041Y0226725D01*
X0127041Y0234525D01*
X0149771Y0030425D02*
X0157771Y0030425D01*
X0153771Y0026425D02*
X0153771Y0034425D01*
X0149871Y0034325D02*
X0157671Y0034325D01*
X0157671Y0026525D01*
X0149871Y0026525D01*
X0149871Y0034325D01*
X0151741Y0027275D02*
X0159741Y0027275D01*
X0155741Y0023275D02*
X0155741Y0031275D01*
X0151841Y0031175D02*
X0159641Y0031175D01*
X0159641Y0023375D01*
X0151841Y0023375D01*
X0151841Y0031175D01*
X0153711Y0030425D02*
X0161711Y0030425D01*
X0157711Y0026425D02*
X0157711Y0034425D01*
X0153811Y0034325D02*
X0161611Y0034325D01*
X0161611Y0026525D01*
X0153811Y0026525D01*
X0153811Y0034325D01*
X0156071Y0016055D02*
X0164071Y0016055D01*
X0160071Y0012055D02*
X0160071Y0020055D01*
X0156171Y0019955D02*
X0163971Y0019955D01*
X0163971Y0012155D01*
X0156171Y0012155D01*
X0156171Y0019955D01*
X0160011Y0005425D02*
X0168011Y0005425D01*
X0164011Y0001425D02*
X0164011Y0009425D01*
X0160111Y0009325D02*
X0167911Y0009325D01*
X0167911Y0001525D01*
X0160111Y0001525D01*
X0160111Y0009325D01*
X0353242Y0065655D02*
X0361242Y0065655D01*
X0357242Y0061655D02*
X0357242Y0069655D01*
X0353342Y0069555D02*
X0361142Y0069555D01*
X0361142Y0061755D01*
X0353342Y0061755D01*
X0353342Y0069555D01*
X0360332Y0078655D02*
X0368332Y0078655D01*
X0364332Y0074655D02*
X0364332Y0082655D01*
X0360432Y0082555D02*
X0368232Y0082555D01*
X0368232Y0074755D01*
X0360432Y0074755D01*
X0360432Y0082555D01*
X0343402Y0067235D02*
X0351402Y0067235D01*
X0347402Y0063235D02*
X0347402Y0071235D01*
X0343502Y0071135D02*
X0351302Y0071135D01*
X0351302Y0063335D01*
X0343502Y0063335D01*
X0343502Y0071135D01*
X0341042Y0064475D02*
X0349042Y0064475D01*
X0345042Y0060475D02*
X0345042Y0068475D01*
X0341142Y0068375D02*
X0348942Y0068375D01*
X0348942Y0060575D01*
X0341142Y0060575D01*
X0341142Y0068375D01*
X0339462Y0067625D02*
X0347462Y0067625D01*
X0343462Y0063625D02*
X0343462Y0071625D01*
X0339562Y0071525D02*
X0347362Y0071525D01*
X0347362Y0063725D01*
X0339562Y0063725D01*
X0339562Y0071525D01*
X0340252Y0074715D02*
X0348252Y0074715D01*
X0344252Y0070715D02*
X0344252Y0078715D01*
X0340352Y0078615D02*
X0348152Y0078615D01*
X0348152Y0070815D01*
X0340352Y0070815D01*
X0340352Y0078615D01*
X0330802Y0075105D02*
X0338802Y0075105D01*
X0334802Y0071105D02*
X0334802Y0079105D01*
X0330902Y0079005D02*
X0338702Y0079005D01*
X0338702Y0071205D01*
X0330902Y0071205D01*
X0330902Y0079005D01*
X0326082Y0085345D02*
X0334082Y0085345D01*
X0330082Y0081345D02*
X0330082Y0089345D01*
X0326182Y0089245D02*
X0333982Y0089245D01*
X0333982Y0081445D01*
X0326182Y0081445D01*
X0326182Y0089245D01*
X0323322Y0089675D02*
X0331322Y0089675D01*
X0327322Y0085675D02*
X0327322Y0093675D01*
X0323422Y0093575D02*
X0331222Y0093575D01*
X0331222Y0085775D01*
X0323422Y0085775D01*
X0323422Y0093575D01*
X0320172Y0085345D02*
X0328172Y0085345D01*
X0324172Y0081345D02*
X0324172Y0089345D01*
X0320272Y0089245D02*
X0328072Y0089245D01*
X0328072Y0081445D01*
X0320272Y0081445D01*
X0320272Y0089245D01*
X0320172Y0080625D02*
X0328172Y0080625D01*
X0324172Y0076625D02*
X0324172Y0084625D01*
X0320272Y0084525D02*
X0328072Y0084525D01*
X0328072Y0076725D01*
X0320272Y0076725D01*
X0320272Y0084525D01*
X0320172Y0075895D02*
X0328172Y0075895D01*
X0324172Y0071895D02*
X0324172Y0079895D01*
X0320272Y0079795D02*
X0328072Y0079795D01*
X0328072Y0071995D01*
X0320272Y0071995D01*
X0320272Y0079795D01*
X0320562Y0068805D02*
X0328562Y0068805D01*
X0324562Y0064805D02*
X0324562Y0072805D01*
X0320662Y0072705D02*
X0328462Y0072705D01*
X0328462Y0064905D01*
X0320662Y0064905D01*
X0320662Y0072705D01*
X0320562Y0065265D02*
X0328562Y0065265D01*
X0324562Y0061265D02*
X0324562Y0069265D01*
X0320662Y0069165D02*
X0328462Y0069165D01*
X0328462Y0061365D01*
X0320662Y0061365D01*
X0320662Y0069165D01*
X0317422Y0066845D02*
X0325422Y0066845D01*
X0321422Y0062845D02*
X0321422Y0070845D01*
X0317522Y0070745D02*
X0325322Y0070745D01*
X0325322Y0062945D01*
X0317522Y0062945D01*
X0317522Y0070745D01*
X0306392Y0045975D02*
X0314392Y0045975D01*
X0310392Y0041975D02*
X0310392Y0049975D01*
X0306492Y0049875D02*
X0314292Y0049875D01*
X0314292Y0042075D01*
X0306492Y0042075D01*
X0306492Y0049875D01*
X0302852Y0045975D02*
X0310852Y0045975D01*
X0306852Y0041975D02*
X0306852Y0049975D01*
X0302952Y0049875D02*
X0310752Y0049875D01*
X0310752Y0042075D01*
X0302952Y0042075D01*
X0302952Y0049875D01*
X0302852Y0029835D02*
X0310852Y0029835D01*
X0306852Y0025835D02*
X0306852Y0033835D01*
X0302952Y0033735D02*
X0310752Y0033735D01*
X0310752Y0025935D01*
X0302952Y0025935D01*
X0302952Y0033735D01*
X0306392Y0029835D02*
X0314392Y0029835D01*
X0310392Y0025835D02*
X0310392Y0033835D01*
X0306492Y0033735D02*
X0314292Y0033735D01*
X0314292Y0025935D01*
X0306492Y0025935D01*
X0306492Y0033735D01*
X0306392Y0022745D02*
X0314392Y0022745D01*
X0310392Y0018745D02*
X0310392Y0026745D01*
X0306492Y0026645D02*
X0314292Y0026645D01*
X0314292Y0018845D01*
X0306492Y0018845D01*
X0306492Y0026645D01*
X0306392Y0014475D02*
X0314392Y0014475D01*
X0310392Y0010475D02*
X0310392Y0018475D01*
X0306492Y0018375D02*
X0314292Y0018375D01*
X0314292Y0010575D01*
X0306492Y0010575D01*
X0306492Y0018375D01*
X0314662Y0032585D02*
X0322662Y0032585D01*
X0318662Y0028585D02*
X0318662Y0036585D01*
X0314762Y0036485D02*
X0322562Y0036485D01*
X0322562Y0028685D01*
X0314762Y0028685D01*
X0314762Y0036485D01*
X0321352Y0011325D02*
X0329352Y0011325D01*
X0325352Y0007325D02*
X0325352Y0015325D01*
X0321452Y0015225D02*
X0329252Y0015225D01*
X0329252Y0007425D01*
X0321452Y0007425D01*
X0321452Y0015225D01*
X0328052Y0013695D02*
X0336052Y0013695D01*
X0332052Y0009695D02*
X0332052Y0017695D01*
X0328152Y0017595D02*
X0335952Y0017595D01*
X0335952Y0009795D01*
X0328152Y0009795D01*
X0328152Y0017595D01*
X0335132Y0017625D02*
X0343132Y0017625D01*
X0339132Y0013625D02*
X0339132Y0021625D01*
X0335232Y0021525D02*
X0343032Y0021525D01*
X0343032Y0013725D01*
X0335232Y0013725D01*
X0335232Y0021525D01*
X0343792Y0035735D02*
X0351792Y0035735D01*
X0347792Y0031735D02*
X0347792Y0039735D01*
X0343892Y0039635D02*
X0351692Y0039635D01*
X0351692Y0031835D01*
X0343892Y0031835D01*
X0343892Y0039635D01*
X0343792Y0039285D02*
X0351792Y0039285D01*
X0347792Y0035285D02*
X0347792Y0043285D01*
X0343892Y0043185D02*
X0351692Y0043185D01*
X0351692Y0035385D01*
X0343892Y0035385D01*
X0343892Y0043185D01*
X0343792Y0042825D02*
X0351792Y0042825D01*
X0347792Y0038825D02*
X0347792Y0046825D01*
X0343892Y0046725D02*
X0351692Y0046725D01*
X0351692Y0038925D01*
X0343892Y0038925D01*
X0343892Y0046725D01*
X0308752Y0099915D02*
X0316752Y0099915D01*
X0312752Y0095915D02*
X0312752Y0103915D01*
X0308852Y0103815D02*
X0316652Y0103815D01*
X0316652Y0096015D01*
X0308852Y0096015D01*
X0308852Y0103815D01*
X0315842Y0112515D02*
X0323842Y0112515D01*
X0319842Y0108515D02*
X0319842Y0116515D01*
X0315942Y0116415D02*
X0323742Y0116415D01*
X0323742Y0108615D01*
X0315942Y0108615D01*
X0315942Y0116415D01*
X0316632Y0125105D02*
X0324632Y0125105D01*
X0320632Y0121105D02*
X0320632Y0129105D01*
X0316732Y0129005D02*
X0324532Y0129005D01*
X0324532Y0121205D01*
X0316732Y0121205D01*
X0316732Y0129005D01*
X0316632Y0128655D02*
X0324632Y0128655D01*
X0320632Y0124655D02*
X0320632Y0132655D01*
X0316732Y0132555D02*
X0324532Y0132555D01*
X0324532Y0124755D01*
X0316732Y0124755D01*
X0316732Y0132555D01*
X0307182Y0128255D02*
X0315182Y0128255D01*
X0311182Y0124255D02*
X0311182Y0132255D01*
X0307282Y0132155D02*
X0315082Y0132155D01*
X0315082Y0124355D01*
X0307282Y0124355D01*
X0307282Y0132155D01*
X0303242Y0139675D02*
X0311242Y0139675D01*
X0307242Y0135675D02*
X0307242Y0143675D01*
X0303342Y0143575D02*
X0311142Y0143575D01*
X0311142Y0135775D01*
X0303342Y0135775D01*
X0303342Y0143575D01*
X0291822Y0129045D02*
X0299822Y0129045D01*
X0295822Y0125045D02*
X0295822Y0133045D01*
X0291922Y0132945D02*
X0299722Y0132945D01*
X0299722Y0125145D01*
X0291922Y0125145D01*
X0291922Y0132945D01*
X0285922Y0134555D02*
X0293922Y0134555D01*
X0289922Y0130555D02*
X0289922Y0138555D01*
X0286022Y0138455D02*
X0293822Y0138455D01*
X0293822Y0130655D01*
X0286022Y0130655D01*
X0286022Y0138455D01*
X0281592Y0140065D02*
X0289592Y0140065D01*
X0285592Y0136065D02*
X0285592Y0144065D01*
X0281692Y0143965D02*
X0289492Y0143965D01*
X0289492Y0136165D01*
X0281692Y0136165D01*
X0281692Y0143965D01*
X0279622Y0149515D02*
X0287622Y0149515D01*
X0283622Y0145515D02*
X0283622Y0153515D01*
X0279722Y0153415D02*
X0287522Y0153415D01*
X0287522Y0145615D01*
X0279722Y0145615D01*
X0279722Y0153415D01*
X0285922Y0156215D02*
X0293922Y0156215D01*
X0289922Y0152215D02*
X0289922Y0160215D01*
X0286022Y0160115D02*
X0293822Y0160115D01*
X0293822Y0152315D01*
X0286022Y0152315D01*
X0286022Y0160115D01*
X0287492Y0162115D02*
X0295492Y0162115D01*
X0291492Y0158115D02*
X0291492Y0166115D01*
X0287592Y0166015D02*
X0295392Y0166015D01*
X0295392Y0158215D01*
X0287592Y0158215D01*
X0287592Y0166015D01*
X0291822Y0160545D02*
X0299822Y0160545D01*
X0295822Y0156545D02*
X0295822Y0164545D01*
X0291922Y0164445D02*
X0299722Y0164445D01*
X0299722Y0156645D01*
X0291922Y0156645D01*
X0291922Y0164445D01*
X0299302Y0157785D02*
X0307302Y0157785D01*
X0303302Y0153785D02*
X0303302Y0161785D01*
X0299402Y0161685D02*
X0307202Y0161685D01*
X0307202Y0153885D01*
X0299402Y0153885D01*
X0299402Y0161685D01*
X0307182Y0159365D02*
X0315182Y0159365D01*
X0311182Y0155365D02*
X0311182Y0163365D01*
X0307282Y0163265D02*
X0315082Y0163265D01*
X0315082Y0155465D01*
X0307282Y0155465D01*
X0307282Y0163265D01*
X0313082Y0158965D02*
X0321082Y0158965D01*
X0317082Y0154965D02*
X0317082Y0162965D01*
X0313182Y0162865D02*
X0320982Y0162865D01*
X0320982Y0155065D01*
X0313182Y0155065D01*
X0313182Y0162865D01*
X0301672Y0180225D02*
X0309672Y0180225D01*
X0305672Y0176225D02*
X0305672Y0184225D01*
X0301772Y0184125D02*
X0309572Y0184125D01*
X0309572Y0176325D01*
X0301772Y0176325D01*
X0301772Y0184125D01*
X0305602Y0195185D02*
X0313602Y0195185D01*
X0309602Y0191185D02*
X0309602Y0199185D01*
X0305702Y0199085D02*
X0313502Y0199085D01*
X0313502Y0191285D01*
X0305702Y0191285D01*
X0305702Y0199085D01*
X0313082Y0200695D02*
X0321082Y0200695D01*
X0317082Y0196695D02*
X0317082Y0204695D01*
X0313182Y0204595D02*
X0320982Y0204595D01*
X0320982Y0196795D01*
X0313182Y0196795D01*
X0313182Y0204595D01*
X0309932Y0211725D02*
X0317932Y0211725D01*
X0313932Y0207725D02*
X0313932Y0215725D01*
X0310032Y0215625D02*
X0317832Y0215625D01*
X0317832Y0207825D01*
X0310032Y0207825D01*
X0310032Y0215625D01*
X0321352Y0222355D02*
X0329352Y0222355D01*
X0325352Y0218355D02*
X0325352Y0226355D01*
X0321452Y0226255D02*
X0329252Y0226255D01*
X0329252Y0218455D01*
X0321452Y0218455D01*
X0321452Y0226255D01*
X0327262Y0221565D02*
X0335262Y0221565D01*
X0331262Y0217565D02*
X0331262Y0225565D01*
X0327362Y0225465D02*
X0335162Y0225465D01*
X0335162Y0217665D01*
X0327362Y0217665D01*
X0327362Y0225465D01*
X0324902Y0251485D02*
X0332902Y0251485D01*
X0328902Y0247485D02*
X0328902Y0255485D01*
X0325002Y0255385D02*
X0332802Y0255385D01*
X0332802Y0247585D01*
X0325002Y0247585D01*
X0325002Y0255385D01*
X0308362Y0239285D02*
X0316362Y0239285D01*
X0312362Y0235285D02*
X0312362Y0243285D01*
X0308462Y0243185D02*
X0316262Y0243185D01*
X0316262Y0235385D01*
X0308462Y0235385D01*
X0308462Y0243185D01*
X0304822Y0246365D02*
X0312822Y0246365D01*
X0308822Y0242365D02*
X0308822Y0250365D01*
X0304922Y0250265D02*
X0312722Y0250265D01*
X0312722Y0242465D01*
X0304922Y0242465D01*
X0304922Y0250265D01*
X0298522Y0229435D02*
X0306522Y0229435D01*
X0302522Y0225435D02*
X0302522Y0233435D01*
X0298622Y0233335D02*
X0306422Y0233335D01*
X0306422Y0225535D01*
X0298622Y0225535D01*
X0298622Y0233335D01*
X0291042Y0214085D02*
X0299042Y0214085D01*
X0295042Y0210085D02*
X0295042Y0218085D01*
X0291142Y0217985D02*
X0298942Y0217985D01*
X0298942Y0210185D01*
X0291142Y0210185D01*
X0291142Y0217985D01*
X0298522Y0195585D02*
X0306522Y0195585D01*
X0302522Y0191585D02*
X0302522Y0199585D01*
X0298622Y0199485D02*
X0306422Y0199485D01*
X0306422Y0191685D01*
X0298622Y0191685D01*
X0298622Y0199485D01*
X0279232Y0194395D02*
X0287232Y0194395D01*
X0283232Y0190395D02*
X0283232Y0198395D01*
X0279332Y0198295D02*
X0287132Y0198295D01*
X0287132Y0190495D01*
X0279332Y0190495D01*
X0279332Y0198295D01*
X0272142Y0181015D02*
X0280142Y0181015D01*
X0276142Y0177015D02*
X0276142Y0185015D01*
X0272242Y0184915D02*
X0280042Y0184915D01*
X0280042Y0177115D01*
X0272242Y0177115D01*
X0272242Y0184915D01*
X0268602Y0171565D02*
X0276602Y0171565D01*
X0272602Y0167565D02*
X0272602Y0175565D01*
X0268702Y0175465D02*
X0276502Y0175465D01*
X0276502Y0167665D01*
X0268702Y0167665D01*
X0268702Y0175465D01*
X0279232Y0176285D02*
X0287232Y0176285D01*
X0283232Y0172285D02*
X0283232Y0180285D01*
X0279332Y0180185D02*
X0287132Y0180185D01*
X0287132Y0172385D01*
X0279332Y0172385D01*
X0279332Y0180185D01*
X0268992Y0151095D02*
X0276992Y0151095D01*
X0272992Y0147095D02*
X0272992Y0155095D01*
X0269092Y0154995D02*
X0276892Y0154995D01*
X0276892Y0147195D01*
X0269092Y0147195D01*
X0269092Y0154995D01*
X0252452Y0127075D02*
X0260452Y0127075D01*
X0256452Y0123075D02*
X0256452Y0131075D01*
X0252552Y0130975D02*
X0260352Y0130975D01*
X0260352Y0123175D01*
X0252552Y0123175D01*
X0252552Y0130975D01*
X0252452Y0112115D02*
X0260452Y0112115D01*
X0256452Y0108115D02*
X0256452Y0116115D01*
X0252552Y0116015D02*
X0260352Y0116015D01*
X0260352Y0108215D01*
X0252552Y0108215D01*
X0252552Y0116015D01*
X0252452Y0103065D02*
X0260452Y0103065D01*
X0256452Y0099065D02*
X0256452Y0107065D01*
X0252552Y0106965D02*
X0260352Y0106965D01*
X0260352Y0099165D01*
X0252552Y0099165D01*
X0252552Y0106965D01*
X0252452Y0094005D02*
X0260452Y0094005D01*
X0256452Y0090005D02*
X0256452Y0098005D01*
X0252552Y0097905D02*
X0260352Y0097905D01*
X0260352Y0090105D01*
X0252552Y0090105D01*
X0252552Y0097905D01*
X0252452Y0084955D02*
X0260452Y0084955D01*
X0256452Y0080955D02*
X0256452Y0088955D01*
X0252552Y0088855D02*
X0260352Y0088855D01*
X0260352Y0081055D01*
X0252552Y0081055D01*
X0252552Y0088855D01*
X0273712Y0068415D02*
X0281712Y0068415D01*
X0277712Y0064415D02*
X0277712Y0072415D01*
X0273812Y0072315D02*
X0281612Y0072315D01*
X0281612Y0064515D01*
X0273812Y0064515D01*
X0273812Y0072315D01*
X0289072Y0097545D02*
X0297072Y0097545D01*
X0293072Y0093545D02*
X0293072Y0101545D01*
X0289172Y0101445D02*
X0296972Y0101445D01*
X0296972Y0093645D01*
X0289172Y0093645D01*
X0289172Y0101445D01*
X0294972Y0116445D02*
X0302972Y0116445D01*
X0298972Y0112445D02*
X0298972Y0120445D01*
X0295072Y0120345D02*
X0302872Y0120345D01*
X0302872Y0112545D01*
X0295072Y0112545D01*
X0295072Y0120345D01*
X0289462Y0139675D02*
X0297462Y0139675D01*
X0293462Y0135675D02*
X0293462Y0143675D01*
X0289562Y0143575D02*
X0297362Y0143575D01*
X0297362Y0135775D01*
X0289562Y0135775D01*
X0289562Y0143575D01*
X0288282Y0146765D02*
X0296282Y0146765D01*
X0292282Y0142765D02*
X0292282Y0150765D01*
X0288382Y0150665D02*
X0296182Y0150665D01*
X0296182Y0142865D01*
X0288382Y0142865D01*
X0288382Y0150665D01*
X0322142Y0191055D02*
X0330142Y0191055D01*
X0326142Y0187055D02*
X0326142Y0195055D01*
X0322242Y0194955D02*
X0330042Y0194955D01*
X0330042Y0187155D01*
X0322242Y0187155D01*
X0322242Y0194955D01*
X0329622Y0181015D02*
X0337622Y0181015D01*
X0333622Y0177015D02*
X0333622Y0185015D01*
X0329722Y0184915D02*
X0337522Y0184915D01*
X0337522Y0177115D01*
X0329722Y0177115D01*
X0329722Y0184915D01*
X0329622Y0173145D02*
X0337622Y0173145D01*
X0333622Y0169145D02*
X0333622Y0177145D01*
X0329722Y0177045D02*
X0337522Y0177045D01*
X0337522Y0169245D01*
X0329722Y0169245D01*
X0329722Y0177045D01*
X0336312Y0179835D02*
X0344312Y0179835D01*
X0340312Y0175835D02*
X0340312Y0183835D01*
X0336412Y0183735D02*
X0344212Y0183735D01*
X0344212Y0175935D01*
X0336412Y0175935D01*
X0336412Y0183735D01*
X0336312Y0187705D02*
X0344312Y0187705D01*
X0340312Y0183705D02*
X0340312Y0191705D01*
X0336412Y0191605D02*
X0344212Y0191605D01*
X0344212Y0183805D01*
X0336412Y0183805D01*
X0336412Y0191605D01*
X0329232Y0154245D02*
X0337232Y0154245D01*
X0333232Y0150245D02*
X0333232Y0158245D01*
X0329332Y0158145D02*
X0337132Y0158145D01*
X0337132Y0150345D01*
X0329332Y0150345D01*
X0329332Y0158145D01*
X0329622Y0146765D02*
X0337622Y0146765D01*
X0333622Y0142765D02*
X0333622Y0150765D01*
X0329722Y0150665D02*
X0337522Y0150665D01*
X0337522Y0142865D01*
X0329722Y0142865D01*
X0329722Y0150665D01*
X0337102Y0131805D02*
X0345102Y0131805D01*
X0341102Y0127805D02*
X0341102Y0135805D01*
X0337202Y0135705D02*
X0345002Y0135705D01*
X0345002Y0127905D01*
X0337202Y0127905D01*
X0337202Y0135705D01*
X0348912Y0138885D02*
X0356912Y0138885D01*
X0352912Y0134885D02*
X0352912Y0142885D01*
X0349012Y0142785D02*
X0356812Y0142785D01*
X0356812Y0134985D01*
X0349012Y0134985D01*
X0349012Y0142785D01*
X0351672Y0129835D02*
X0359672Y0129835D01*
X0355672Y0125835D02*
X0355672Y0133835D01*
X0351772Y0133735D02*
X0359572Y0133735D01*
X0359572Y0125935D01*
X0351772Y0125935D01*
X0351772Y0133735D01*
X0361902Y0136525D02*
X0369902Y0136525D01*
X0365902Y0132525D02*
X0365902Y0140525D01*
X0362002Y0140425D02*
X0369802Y0140425D01*
X0369802Y0132625D01*
X0362002Y0132625D01*
X0362002Y0140425D01*
X0361902Y0121565D02*
X0369902Y0121565D01*
X0365902Y0117565D02*
X0365902Y0125565D01*
X0362002Y0125465D02*
X0369802Y0125465D01*
X0369802Y0117665D01*
X0362002Y0117665D01*
X0362002Y0125465D01*
X0361902Y0152275D02*
X0369902Y0152275D01*
X0365902Y0148275D02*
X0365902Y0156275D01*
X0362002Y0156175D02*
X0369802Y0156175D01*
X0369802Y0148375D01*
X0362002Y0148375D01*
X0362002Y0156175D01*
X0361902Y0187315D02*
X0369902Y0187315D01*
X0365902Y0183315D02*
X0365902Y0191315D01*
X0362002Y0191215D02*
X0369802Y0191215D01*
X0369802Y0183415D01*
X0362002Y0183415D01*
X0362002Y0191215D01*
X0360722Y0201885D02*
X0368722Y0201885D01*
X0364722Y0197885D02*
X0364722Y0205885D01*
X0360822Y0205785D02*
X0368622Y0205785D01*
X0368622Y0197985D01*
X0360822Y0197985D01*
X0360822Y0205785D01*
X0354422Y0225505D02*
X0362422Y0225505D01*
X0358422Y0221505D02*
X0358422Y0229505D01*
X0354522Y0229405D02*
X0362322Y0229405D01*
X0362322Y0221605D01*
X0354522Y0221605D01*
X0354522Y0229405D01*
X0346162Y0221565D02*
X0354162Y0221565D01*
X0350162Y0217565D02*
X0350162Y0225565D01*
X0346262Y0225465D02*
X0354062Y0225465D01*
X0354062Y0217665D01*
X0346262Y0217665D01*
X0346262Y0225465D01*
X0284742Y0238885D02*
X0292742Y0238885D01*
X0288742Y0234885D02*
X0288742Y0242885D01*
X0284842Y0242785D02*
X0292642Y0242785D01*
X0292642Y0234985D01*
X0284842Y0234985D01*
X0284842Y0242785D01*
X0285922Y0246765D02*
X0293922Y0246765D01*
X0289922Y0242765D02*
X0289922Y0250765D01*
X0286022Y0250665D02*
X0293822Y0250665D01*
X0293822Y0242865D01*
X0286022Y0242865D01*
X0286022Y0250665D01*
X0273712Y0251485D02*
X0281712Y0251485D01*
X0277712Y0247485D02*
X0277712Y0255485D01*
X0273812Y0255385D02*
X0281612Y0255385D01*
X0281612Y0247585D01*
X0273812Y0247585D01*
X0273812Y0255385D01*
X0252852Y0230625D02*
X0260852Y0230625D01*
X0256852Y0226625D02*
X0256852Y0234625D01*
X0252952Y0234525D02*
X0260752Y0234525D01*
X0260752Y0226725D01*
X0252952Y0226725D01*
X0252952Y0234525D01*
X0275682Y0030425D02*
X0283682Y0030425D01*
X0279682Y0026425D02*
X0279682Y0034425D01*
X0275782Y0034325D02*
X0283582Y0034325D01*
X0283582Y0026525D01*
X0275782Y0026525D01*
X0275782Y0034325D01*
X0277652Y0027275D02*
X0285652Y0027275D01*
X0281652Y0023275D02*
X0281652Y0031275D01*
X0277752Y0031175D02*
X0285552Y0031175D01*
X0285552Y0023375D01*
X0277752Y0023375D01*
X0277752Y0031175D01*
X0279622Y0030425D02*
X0287622Y0030425D01*
X0283622Y0026425D02*
X0283622Y0034425D01*
X0279722Y0034325D02*
X0287522Y0034325D01*
X0287522Y0026525D01*
X0279722Y0026525D01*
X0279722Y0034325D01*
X0281982Y0016055D02*
X0289982Y0016055D01*
X0285982Y0012055D02*
X0285982Y0020055D01*
X0282082Y0019955D02*
X0289882Y0019955D01*
X0289882Y0012155D01*
X0282082Y0012155D01*
X0282082Y0019955D01*
X0285922Y0005425D02*
X0293922Y0005425D01*
X0289922Y0001425D02*
X0289922Y0009425D01*
X0286022Y0009325D02*
X0293822Y0009325D01*
X0293822Y0001525D01*
X0286022Y0001525D01*
X0286022Y0009325D01*
X0181584Y0274242D02*
X0189584Y0274242D01*
X0185584Y0270242D02*
X0185584Y0278242D01*
X0181684Y0278142D02*
X0189484Y0278142D01*
X0189484Y0270342D01*
X0181684Y0270342D01*
X0181684Y0278142D01*
X0198124Y0272272D02*
X0206124Y0272272D01*
X0202124Y0268272D02*
X0202124Y0276272D01*
X0198224Y0276172D02*
X0206024Y0276172D01*
X0206024Y0268372D01*
X0198224Y0268372D01*
X0198224Y0276172D01*
X0209144Y0281722D02*
X0217144Y0281722D01*
X0213144Y0277722D02*
X0213144Y0285722D01*
X0209244Y0285622D02*
X0217044Y0285622D01*
X0217044Y0277822D01*
X0209244Y0277822D01*
X0209244Y0285622D01*
X0221344Y0269122D02*
X0229344Y0269122D01*
X0225344Y0265122D02*
X0225344Y0273122D01*
X0221444Y0273022D02*
X0229244Y0273022D01*
X0229244Y0265222D01*
X0221444Y0265222D01*
X0221444Y0273022D01*
X0218984Y0301012D02*
X0226984Y0301012D01*
X0222984Y0297012D02*
X0222984Y0305012D01*
X0219084Y0304912D02*
X0226884Y0304912D01*
X0226884Y0297112D01*
X0219084Y0297112D01*
X0219084Y0304912D01*
X0202844Y0302982D02*
X0210844Y0302982D01*
X0206844Y0298982D02*
X0206844Y0306982D01*
X0202944Y0306882D02*
X0210744Y0306882D01*
X0210744Y0299082D01*
X0202944Y0299082D01*
X0202944Y0306882D01*
X0202054Y0314402D02*
X0210054Y0314402D01*
X0206054Y0310402D02*
X0206054Y0318402D01*
X0202154Y0318302D02*
X0209954Y0318302D01*
X0209954Y0310502D01*
X0202154Y0310502D01*
X0202154Y0318302D01*
X0183944Y0310852D02*
X0191944Y0310852D01*
X0187944Y0306852D02*
X0187944Y0314852D01*
X0184044Y0314752D02*
X0191844Y0314752D01*
X0191844Y0306952D01*
X0184044Y0306952D01*
X0184044Y0314752D01*
X0221744Y0314402D02*
X0229744Y0314402D01*
X0225744Y0310402D02*
X0225744Y0318402D01*
X0221844Y0318302D02*
X0229644Y0318302D01*
X0229644Y0310502D01*
X0221844Y0310502D01*
X0221844Y0318302D01*
X0240644Y0308102D02*
X0248644Y0308102D01*
X0244644Y0304102D02*
X0244644Y0312102D01*
X0240744Y0312002D02*
X0248544Y0312002D01*
X0248544Y0304202D01*
X0240744Y0304202D01*
X0240744Y0312002D01*
X0181584Y0337160D02*
X0189584Y0337160D01*
X0185584Y0333160D02*
X0185584Y0341160D01*
X0181684Y0341060D02*
X0189484Y0341060D01*
X0189484Y0333260D01*
X0181684Y0333260D01*
X0181684Y0341060D01*
X0198124Y0335190D02*
X0206124Y0335190D01*
X0202124Y0331190D02*
X0202124Y0339190D01*
X0198224Y0339090D02*
X0206024Y0339090D01*
X0206024Y0331290D01*
X0198224Y0331290D01*
X0198224Y0339090D01*
X0209144Y0344640D02*
X0217144Y0344640D01*
X0213144Y0340640D02*
X0213144Y0348640D01*
X0209244Y0348540D02*
X0217044Y0348540D01*
X0217044Y0340740D01*
X0209244Y0340740D01*
X0209244Y0348540D01*
X0221344Y0332040D02*
X0229344Y0332040D01*
X0225344Y0328040D02*
X0225344Y0336040D01*
X0221444Y0335940D02*
X0229244Y0335940D01*
X0229244Y0328140D01*
X0221444Y0328140D01*
X0221444Y0335940D01*
X0218984Y0363930D02*
X0226984Y0363930D01*
X0222984Y0359930D02*
X0222984Y0367930D01*
X0219084Y0367830D02*
X0226884Y0367830D01*
X0226884Y0360030D01*
X0219084Y0360030D01*
X0219084Y0367830D01*
X0202844Y0365900D02*
X0210844Y0365900D01*
X0206844Y0361900D02*
X0206844Y0369900D01*
X0202944Y0369800D02*
X0210744Y0369800D01*
X0210744Y0362000D01*
X0202944Y0362000D01*
X0202944Y0369800D01*
X0202054Y0377320D02*
X0210054Y0377320D01*
X0206054Y0373320D02*
X0206054Y0381320D01*
X0202154Y0381220D02*
X0209954Y0381220D01*
X0209954Y0373420D01*
X0202154Y0373420D01*
X0202154Y0381220D01*
X0183944Y0373770D02*
X0191944Y0373770D01*
X0187944Y0369770D02*
X0187944Y0377770D01*
X0184044Y0377670D02*
X0191844Y0377670D01*
X0191844Y0369870D01*
X0184044Y0369870D01*
X0184044Y0377670D01*
X0221744Y0377320D02*
X0229744Y0377320D01*
X0225744Y0373320D02*
X0225744Y0381320D01*
X0221844Y0381220D02*
X0229644Y0381220D01*
X0229644Y0373420D01*
X0221844Y0373420D01*
X0221844Y0381220D01*
X0240644Y0371020D02*
X0248644Y0371020D01*
X0244644Y0367020D02*
X0244644Y0375020D01*
X0240744Y0374920D02*
X0248544Y0374920D01*
X0248544Y0367120D01*
X0240744Y0367120D01*
X0240744Y0374920D01*
X0260250Y0274242D02*
X0268250Y0274242D01*
X0264250Y0270242D02*
X0264250Y0278242D01*
X0260350Y0278142D02*
X0268150Y0278142D01*
X0268150Y0270342D01*
X0260350Y0270342D01*
X0260350Y0278142D01*
X0276790Y0272272D02*
X0284790Y0272272D01*
X0280790Y0268272D02*
X0280790Y0276272D01*
X0276890Y0276172D02*
X0284690Y0276172D01*
X0284690Y0268372D01*
X0276890Y0268372D01*
X0276890Y0276172D01*
X0287810Y0281722D02*
X0295810Y0281722D01*
X0291810Y0277722D02*
X0291810Y0285722D01*
X0287910Y0285622D02*
X0295710Y0285622D01*
X0295710Y0277822D01*
X0287910Y0277822D01*
X0287910Y0285622D01*
X0300010Y0269122D02*
X0308010Y0269122D01*
X0304010Y0265122D02*
X0304010Y0273122D01*
X0300110Y0273022D02*
X0307910Y0273022D01*
X0307910Y0265222D01*
X0300110Y0265222D01*
X0300110Y0273022D01*
X0297650Y0301012D02*
X0305650Y0301012D01*
X0301650Y0297012D02*
X0301650Y0305012D01*
X0297750Y0304912D02*
X0305550Y0304912D01*
X0305550Y0297112D01*
X0297750Y0297112D01*
X0297750Y0304912D01*
X0281510Y0302982D02*
X0289510Y0302982D01*
X0285510Y0298982D02*
X0285510Y0306982D01*
X0281610Y0306882D02*
X0289410Y0306882D01*
X0289410Y0299082D01*
X0281610Y0299082D01*
X0281610Y0306882D01*
X0280720Y0314402D02*
X0288720Y0314402D01*
X0284720Y0310402D02*
X0284720Y0318402D01*
X0280820Y0318302D02*
X0288620Y0318302D01*
X0288620Y0310502D01*
X0280820Y0310502D01*
X0280820Y0318302D01*
X0262610Y0310852D02*
X0270610Y0310852D01*
X0266610Y0306852D02*
X0266610Y0314852D01*
X0262710Y0314752D02*
X0270510Y0314752D01*
X0270510Y0306952D01*
X0262710Y0306952D01*
X0262710Y0314752D01*
X0300410Y0314402D02*
X0308410Y0314402D01*
X0304410Y0310402D02*
X0304410Y0318402D01*
X0300510Y0318302D02*
X0308310Y0318302D01*
X0308310Y0310502D01*
X0300510Y0310502D01*
X0300510Y0318302D01*
X0319310Y0308102D02*
X0327310Y0308102D01*
X0323310Y0304102D02*
X0323310Y0312102D01*
X0319410Y0312002D02*
X0327210Y0312002D01*
X0327210Y0304202D01*
X0319410Y0304202D01*
X0319410Y0312002D01*
X0260250Y0337160D02*
X0268250Y0337160D01*
X0264250Y0333160D02*
X0264250Y0341160D01*
X0260350Y0341060D02*
X0268150Y0341060D01*
X0268150Y0333260D01*
X0260350Y0333260D01*
X0260350Y0341060D01*
X0276790Y0335190D02*
X0284790Y0335190D01*
X0280790Y0331190D02*
X0280790Y0339190D01*
X0276890Y0339090D02*
X0284690Y0339090D01*
X0284690Y0331290D01*
X0276890Y0331290D01*
X0276890Y0339090D01*
X0287810Y0344640D02*
X0295810Y0344640D01*
X0291810Y0340640D02*
X0291810Y0348640D01*
X0287910Y0348540D02*
X0295710Y0348540D01*
X0295710Y0340740D01*
X0287910Y0340740D01*
X0287910Y0348540D01*
X0300010Y0332040D02*
X0308010Y0332040D01*
X0304010Y0328040D02*
X0304010Y0336040D01*
X0300110Y0335940D02*
X0307910Y0335940D01*
X0307910Y0328140D01*
X0300110Y0328140D01*
X0300110Y0335940D01*
X0297650Y0363930D02*
X0305650Y0363930D01*
X0301650Y0359930D02*
X0301650Y0367930D01*
X0297750Y0367830D02*
X0305550Y0367830D01*
X0305550Y0360030D01*
X0297750Y0360030D01*
X0297750Y0367830D01*
X0281510Y0365900D02*
X0289510Y0365900D01*
X0285510Y0361900D02*
X0285510Y0369900D01*
X0281610Y0369800D02*
X0289410Y0369800D01*
X0289410Y0362000D01*
X0281610Y0362000D01*
X0281610Y0369800D01*
X0280720Y0377320D02*
X0288720Y0377320D01*
X0284720Y0373320D02*
X0284720Y0381320D01*
X0280820Y0381220D02*
X0288620Y0381220D01*
X0288620Y0373420D01*
X0280820Y0373420D01*
X0280820Y0381220D01*
X0262610Y0373770D02*
X0270610Y0373770D01*
X0266610Y0369770D02*
X0266610Y0377770D01*
X0262710Y0377670D02*
X0270510Y0377670D01*
X0270510Y0369870D01*
X0262710Y0369870D01*
X0262710Y0377670D01*
X0300410Y0377320D02*
X0308410Y0377320D01*
X0304410Y0373320D02*
X0304410Y0381320D01*
X0300510Y0381220D02*
X0308310Y0381220D01*
X0308310Y0373420D01*
X0300510Y0373420D01*
X0300510Y0381220D01*
X0319310Y0371020D02*
X0327310Y0371020D01*
X0323310Y0367020D02*
X0323310Y0375020D01*
X0319410Y0374920D02*
X0327210Y0374920D01*
X0327210Y0367120D01*
X0319410Y0367120D01*
X0319410Y0374920D01*
X0000000Y0000000D02*
X0370533Y0000000D01*
X0370533Y0382342D01*
X0000000Y0382342D01*
X0000000Y0000000D01*
X0416533Y-000500D02*
X0424533Y0007500D01*
X0424533Y-000500D02*
X0416533Y0007500D01*
X0416533Y0003500D02*
X0424533Y0003500D01*
X0432033Y0000000D02*
X0431033Y0001000D01*
X0435033Y0005000D01*
X0435033Y0001000D01*
X0434033Y0000000D01*
X0432033Y0000000D01*
X0431033Y0001000D02*
X0431033Y0005000D01*
X0432033Y0006000D01*
X0434033Y0006000D01*
X0435033Y0005000D01*
X0438533Y0001000D02*
X0439533Y0001000D01*
X0439533Y0000000D01*
X0438533Y0000000D01*
X0438533Y0001000D01*
X0444033Y0005000D02*
X0445033Y0006000D01*
X0445033Y0000000D01*
X0444033Y0000000D02*
X0446033Y0000000D01*
X0450033Y0000000D02*
X0449033Y0001000D01*
X0453033Y0005000D01*
X0453033Y0001000D01*
X0452033Y0000000D01*
X0450033Y0000000D01*
X0449033Y0001000D02*
X0449033Y0005000D01*
X0450033Y0006000D01*
X0452033Y0006000D01*
X0453033Y0005000D01*
X0455033Y0001000D02*
X0455033Y0002000D01*
X0456033Y0003000D01*
X0458033Y0003000D01*
X0459033Y0002000D01*
X0459033Y0001000D01*
X0458033Y0000000D01*
X0456033Y0000000D01*
X0455033Y0001000D01*
X0456033Y0003000D02*
X0455033Y0004000D01*
X0455033Y0005000D01*
X0456033Y0006000D01*
X0458033Y0006000D01*
X0459033Y0005000D01*
X0459033Y0004000D01*
X0458033Y0003000D01*
X0464533Y0005000D02*
X0463533Y0004000D01*
X0464533Y0005000D02*
X0464533Y0007000D01*
X0462533Y0007000D02*
X0462533Y0005000D01*
X0461533Y0004000D01*
X0420533Y0014000D02*
X0416533Y0014000D01*
X0420533Y0014000D02*
X0424533Y0018000D01*
X0424533Y0010000D01*
X0420533Y0014000D01*
X0432033Y0010500D02*
X0431033Y0011500D01*
X0435033Y0015500D01*
X0435033Y0011500D01*
X0434033Y0010500D01*
X0432033Y0010500D01*
X0431033Y0011500D02*
X0431033Y0015500D01*
X0432033Y0016500D01*
X0434033Y0016500D01*
X0435033Y0015500D01*
X0438533Y0011500D02*
X0439533Y0011500D01*
X0439533Y0010500D01*
X0438533Y0010500D01*
X0438533Y0011500D01*
X0444033Y0010500D02*
X0443033Y0011500D01*
X0447033Y0015500D01*
X0447033Y0011500D01*
X0446033Y0010500D01*
X0444033Y0010500D01*
X0443033Y0011500D02*
X0443033Y0015500D01*
X0444033Y0016500D01*
X0446033Y0016500D01*
X0447033Y0015500D01*
X0449033Y0013500D02*
X0453033Y0013500D01*
X0452033Y0010500D02*
X0452033Y0016500D01*
X0449033Y0013500D01*
X0455033Y0016500D02*
X0459033Y0016500D01*
X0459033Y0015500D01*
X0455033Y0011500D01*
X0455033Y0010500D01*
X0464533Y0015500D02*
X0463533Y0014500D01*
X0464533Y0015500D02*
X0464533Y0017500D01*
X0462533Y0017500D02*
X0462533Y0015500D01*
X0461533Y0014500D01*
X0420533Y0024500D02*
X0424533Y0024500D01*
X0420533Y0024500D02*
X0416533Y0028500D01*
X0416533Y0020500D01*
X0420533Y0024500D01*
X0432033Y0021000D02*
X0431033Y0022000D01*
X0435033Y0026000D01*
X0435033Y0022000D01*
X0434033Y0021000D01*
X0432033Y0021000D01*
X0431033Y0022000D02*
X0431033Y0026000D01*
X0432033Y0027000D01*
X0434033Y0027000D01*
X0435033Y0026000D01*
X0438533Y0022000D02*
X0439533Y0022000D01*
X0439533Y0021000D01*
X0438533Y0021000D01*
X0438533Y0022000D01*
X0444033Y0021000D02*
X0443033Y0022000D01*
X0447033Y0026000D01*
X0447033Y0022000D01*
X0446033Y0021000D01*
X0444033Y0021000D01*
X0443033Y0022000D02*
X0443033Y0026000D01*
X0444033Y0027000D01*
X0446033Y0027000D01*
X0447033Y0026000D01*
X0449033Y0024000D02*
X0453033Y0024000D01*
X0452033Y0021000D02*
X0452033Y0027000D01*
X0449033Y0024000D01*
X0455033Y0022000D02*
X0456033Y0021000D01*
X0458033Y0021000D01*
X0459033Y0022000D01*
X0459033Y0023000D01*
X0458033Y0024000D01*
X0457033Y0024000D01*
X0458033Y0024000D02*
X0459033Y0025000D01*
X0459033Y0026000D01*
X0458033Y0027000D01*
X0456033Y0027000D01*
X0455033Y0026000D01*
X0464533Y0026000D02*
X0463533Y0025000D01*
X0464533Y0026000D02*
X0464533Y0028000D01*
X0462533Y0028000D02*
X0462533Y0026000D01*
X0461533Y0025000D01*
X0416533Y0035000D02*
X0424533Y0035000D01*
X0420533Y0031000D02*
X0420533Y0039000D01*
X0416633Y0035000D02*
X0416653Y0035390D01*
X0416713Y0035790D01*
X0416813Y0036170D01*
X0416953Y0036540D01*
X0417123Y0036890D01*
X0417333Y0037230D01*
X0417573Y0037540D01*
X0417843Y0037830D01*
X0418143Y0038080D01*
X0418473Y0038310D01*
X0418813Y0038500D01*
X0419183Y0038660D01*
X0419553Y0038780D01*
X0419943Y0038860D01*
X0420333Y0038890D01*
X0420733Y0038890D01*
X0421123Y0038860D01*
X0421513Y0038780D01*
X0421883Y0038660D01*
X0422253Y0038500D01*
X0422593Y0038310D01*
X0422923Y0038080D01*
X0423223Y0037830D01*
X0423493Y0037540D01*
X0423733Y0037230D01*
X0423943Y0036890D01*
X0424113Y0036540D01*
X0424253Y0036170D01*
X0424353Y0035790D01*
X0424413Y0035390D01*
X0424433Y0035000D01*
X0424413Y0034610D01*
X0424353Y0034210D01*
X0424253Y0033830D01*
X0424113Y0033460D01*
X0423943Y0033110D01*
X0423733Y0032770D01*
X0423493Y0032460D01*
X0423223Y0032170D01*
X0422923Y0031920D01*
X0422593Y0031690D01*
X0422253Y0031500D01*
X0421883Y0031340D01*
X0421513Y0031220D01*
X0421123Y0031140D01*
X0420733Y0031110D01*
X0420333Y0031110D01*
X0419943Y0031140D01*
X0419553Y0031220D01*
X0419183Y0031340D01*
X0418813Y0031500D01*
X0418473Y0031690D01*
X0418143Y0031920D01*
X0417843Y0032170D01*
X0417573Y0032460D01*
X0417333Y0032770D01*
X0417123Y0033110D01*
X0416953Y0033460D01*
X0416813Y0033830D01*
X0416713Y0034210D01*
X0416653Y0034610D01*
X0416633Y0035000D01*
X0432033Y0031500D02*
X0431033Y0032500D01*
X0435033Y0036500D01*
X0435033Y0032500D01*
X0434033Y0031500D01*
X0432033Y0031500D01*
X0431033Y0032500D02*
X0431033Y0036500D01*
X0432033Y0037500D01*
X0434033Y0037500D01*
X0435033Y0036500D01*
X0438533Y0032500D02*
X0439533Y0032500D01*
X0439533Y0031500D01*
X0438533Y0031500D01*
X0438533Y0032500D01*
X0444033Y0031500D02*
X0443033Y0032500D01*
X0447033Y0036500D01*
X0447033Y0032500D01*
X0446033Y0031500D01*
X0444033Y0031500D01*
X0443033Y0032500D02*
X0443033Y0036500D01*
X0444033Y0037500D01*
X0446033Y0037500D01*
X0447033Y0036500D01*
X0449033Y0034500D02*
X0453033Y0034500D01*
X0452033Y0031500D02*
X0452033Y0037500D01*
X0449033Y0034500D01*
X0456033Y0031500D02*
X0455033Y0032500D01*
X0459033Y0036500D01*
X0459033Y0032500D01*
X0458033Y0031500D01*
X0456033Y0031500D01*
X0455033Y0032500D02*
X0455033Y0036500D01*
X0456033Y0037500D01*
X0458033Y0037500D01*
X0459033Y0036500D01*
X0464533Y0036500D02*
X0463533Y0035500D01*
X0464533Y0036500D02*
X0464533Y0038500D01*
X0462533Y0038500D02*
X0462533Y0036500D01*
X0461533Y0035500D01*
X0416533Y0045500D02*
X0424533Y0045500D01*
X0420533Y0041500D02*
X0420533Y0049500D01*
X0416633Y0045500D02*
X0416653Y0045890D01*
X0416713Y0046290D01*
X0416813Y0046670D01*
X0416953Y0047040D01*
X0417123Y0047390D01*
X0417333Y0047730D01*
X0417573Y0048040D01*
X0417843Y0048330D01*
X0418143Y0048580D01*
X0418473Y0048810D01*
X0418813Y0049000D01*
X0419183Y0049160D01*
X0419553Y0049280D01*
X0419943Y0049360D01*
X0420333Y0049390D01*
X0420733Y0049390D01*
X0421123Y0049360D01*
X0421513Y0049280D01*
X0421883Y0049160D01*
X0422253Y0049000D01*
X0422593Y0048810D01*
X0422923Y0048580D01*
X0423223Y0048330D01*
X0423493Y0048040D01*
X0423733Y0047730D01*
X0423943Y0047390D01*
X0424113Y0047040D01*
X0424253Y0046670D01*
X0424353Y0046290D01*
X0424413Y0045890D01*
X0424433Y0045500D01*
X0424413Y0045110D01*
X0424353Y0044710D01*
X0424253Y0044330D01*
X0424113Y0043960D01*
X0423943Y0043610D01*
X0423733Y0043270D01*
X0423493Y0042960D01*
X0423223Y0042670D01*
X0422923Y0042420D01*
X0422593Y0042190D01*
X0422253Y0042000D01*
X0421883Y0041840D01*
X0421513Y0041720D01*
X0421123Y0041640D01*
X0420733Y0041610D01*
X0420333Y0041610D01*
X0419943Y0041640D01*
X0419553Y0041720D01*
X0419183Y0041840D01*
X0418813Y0042000D01*
X0418473Y0042190D01*
X0418143Y0042420D01*
X0417843Y0042670D01*
X0417573Y0042960D01*
X0417333Y0043270D01*
X0417123Y0043610D01*
X0416953Y0043960D01*
X0416813Y0044330D01*
X0416713Y0044710D01*
X0416653Y0045110D01*
X0416633Y0045500D01*
X0418583Y0045500D02*
X0418603Y0045780D01*
X0418663Y0046060D01*
X0418763Y0046330D01*
X0418903Y0046580D01*
X0419083Y0046800D01*
X0419283Y0047000D01*
X0419513Y0047160D01*
X0419773Y0047290D01*
X0420043Y0047390D01*
X0420323Y0047440D01*
X0420603Y0047450D01*
X0420883Y0047420D01*
X0421163Y0047350D01*
X0421423Y0047230D01*
X0421663Y0047090D01*
X0421883Y0046900D01*
X0422073Y0046690D01*
X0422233Y0046450D01*
X0422353Y0046200D01*
X0422433Y0045920D01*
X0422473Y0045640D01*
X0422473Y0045360D01*
X0422433Y0045080D01*
X0422353Y0044800D01*
X0422233Y0044550D01*
X0422073Y0044310D01*
X0421883Y0044100D01*
X0421663Y0043910D01*
X0421423Y0043770D01*
X0421163Y0043650D01*
X0420883Y0043580D01*
X0420603Y0043550D01*
X0420323Y0043560D01*
X0420043Y0043610D01*
X0419773Y0043710D01*
X0419513Y0043840D01*
X0419283Y0044000D01*
X0419083Y0044200D01*
X0418903Y0044420D01*
X0418763Y0044670D01*
X0418663Y0044940D01*
X0418603Y0045220D01*
X0418583Y0045500D01*
X0432033Y0042000D02*
X0431033Y0043000D01*
X0435033Y0047000D01*
X0435033Y0043000D01*
X0434033Y0042000D01*
X0432033Y0042000D01*
X0431033Y0043000D02*
X0431033Y0047000D01*
X0432033Y0048000D01*
X0434033Y0048000D01*
X0435033Y0047000D01*
X0438533Y0043000D02*
X0439533Y0043000D01*
X0439533Y0042000D01*
X0438533Y0042000D01*
X0438533Y0043000D01*
X0444033Y0042000D02*
X0443033Y0043000D01*
X0447033Y0047000D01*
X0447033Y0043000D01*
X0446033Y0042000D01*
X0444033Y0042000D01*
X0443033Y0043000D02*
X0443033Y0047000D01*
X0444033Y0048000D01*
X0446033Y0048000D01*
X0447033Y0047000D01*
X0449033Y0045000D02*
X0453033Y0045000D01*
X0452033Y0042000D02*
X0452033Y0048000D01*
X0449033Y0045000D01*
X0456033Y0042000D02*
X0455033Y0043000D01*
X0459033Y0047000D01*
X0459033Y0043000D01*
X0458033Y0042000D01*
X0456033Y0042000D01*
X0455033Y0043000D02*
X0455033Y0047000D01*
X0456033Y0048000D01*
X0458033Y0048000D01*
X0459033Y0047000D01*
X0464533Y0047000D02*
X0463533Y0046000D01*
X0464533Y0047000D02*
X0464533Y0049000D01*
X0462533Y0049000D02*
X0462533Y0047000D01*
X0461533Y0046000D01*
X0416533Y0056000D02*
X0424533Y0056000D01*
X0420533Y0060000D01*
X0420533Y0052000D01*
X0416533Y0056000D01*
X0432033Y0052500D02*
X0431033Y0053500D01*
X0435033Y0057500D01*
X0435033Y0053500D01*
X0434033Y0052500D01*
X0432033Y0052500D01*
X0431033Y0053500D02*
X0431033Y0057500D01*
X0432033Y0058500D01*
X0434033Y0058500D01*
X0435033Y0057500D01*
X0438533Y0053500D02*
X0439533Y0053500D01*
X0439533Y0052500D01*
X0438533Y0052500D01*
X0438533Y0053500D01*
X0444033Y0052500D02*
X0443033Y0053500D01*
X0447033Y0057500D01*
X0447033Y0053500D01*
X0446033Y0052500D01*
X0444033Y0052500D01*
X0443033Y0053500D02*
X0443033Y0057500D01*
X0444033Y0058500D01*
X0446033Y0058500D01*
X0447033Y0057500D01*
X0449033Y0053500D02*
X0450033Y0052500D01*
X0452033Y0052500D01*
X0453033Y0053500D01*
X0453033Y0054500D01*
X0452033Y0055500D01*
X0451033Y0055500D01*
X0452033Y0055500D02*
X0453033Y0056500D01*
X0453033Y0057500D01*
X0452033Y0058500D01*
X0450033Y0058500D01*
X0449033Y0057500D01*
X0455033Y0056500D02*
X0456033Y0055500D01*
X0459033Y0055500D01*
X0459033Y0053500D02*
X0459033Y0057500D01*
X0458033Y0058500D01*
X0456033Y0058500D01*
X0455033Y0057500D01*
X0455033Y0056500D01*
X0455033Y0053500D02*
X0456033Y0052500D01*
X0458033Y0052500D01*
X0459033Y0053500D01*
X0464533Y0057500D02*
X0463533Y0056500D01*
X0464533Y0057500D02*
X0464533Y0059500D01*
X0462533Y0059500D02*
X0462533Y0057500D01*
X0461533Y0056500D01*
X0416533Y0066500D02*
X0424533Y0066500D01*
X0420533Y0062500D02*
X0420533Y0070500D01*
X0416633Y0070400D02*
X0424433Y0070400D01*
X0424433Y0062600D01*
X0416633Y0062600D01*
X0416633Y0070400D01*
X0432033Y0063000D02*
X0431033Y0064000D01*
X0435033Y0068000D01*
X0435033Y0064000D01*
X0434033Y0063000D01*
X0432033Y0063000D01*
X0431033Y0064000D02*
X0431033Y0068000D01*
X0432033Y0069000D01*
X0434033Y0069000D01*
X0435033Y0068000D01*
X0438533Y0064000D02*
X0439533Y0064000D01*
X0439533Y0063000D01*
X0438533Y0063000D01*
X0438533Y0064000D01*
X0444033Y0063000D02*
X0443033Y0064000D01*
X0447033Y0068000D01*
X0447033Y0064000D01*
X0446033Y0063000D01*
X0444033Y0063000D01*
X0443033Y0064000D02*
X0443033Y0068000D01*
X0444033Y0069000D01*
X0446033Y0069000D01*
X0447033Y0068000D01*
X0450033Y0068000D02*
X0451033Y0069000D01*
X0451033Y0063000D01*
X0450033Y0063000D02*
X0452033Y0063000D01*
X0455033Y0066000D02*
X0457033Y0067000D01*
X0458033Y0067000D01*
X0459033Y0066000D01*
X0459033Y0064000D01*
X0458033Y0063000D01*
X0456033Y0063000D01*
X0455033Y0064000D01*
X0455033Y0066000D02*
X0455033Y0069000D01*
X0459033Y0069000D01*
X0464533Y0068000D02*
X0463533Y0067000D01*
X0464533Y0068000D02*
X0464533Y0070000D01*
X0462533Y0070000D02*
X0462533Y0068000D01*
X0461533Y0067000D01*
X0000000Y0394842D02*
X0000000Y0409842D01*
X0007500Y0406092D02*
X0000000Y0402342D01*
X0007500Y0398592D01*
X0000000Y0402342D02*
X0012500Y0402342D01*
X0370533Y0409842D02*
X0370533Y0394842D01*
X0363033Y0398592D02*
X0370533Y0402342D01*
X0363033Y0406092D01*
X0370533Y0402342D02*
X0358033Y0402342D01*
X0383033Y0382342D02*
X0398033Y0382342D01*
X0394283Y0374842D02*
X0390533Y0382342D01*
X0386783Y0374842D01*
X0390533Y0382342D02*
X0390533Y0369842D01*
X0398033Y0000000D02*
X0383033Y0000000D01*
X0386783Y0007500D02*
X0390533Y0000000D01*
X0394283Y0007500D01*
X0390533Y0000000D02*
X0390533Y0012500D01*
X0168266Y0399842D02*
X0169266Y0398842D01*
X0171266Y0398842D01*
X0172266Y0399842D01*
X0172266Y0400842D01*
X0171266Y0401842D01*
X0170266Y0401842D01*
X0171266Y0401842D02*
X0172266Y0402842D01*
X0172266Y0403842D01*
X0171266Y0404842D01*
X0169266Y0404842D01*
X0168266Y0403842D01*
X0175766Y0399842D02*
X0176766Y0399842D01*
X0176766Y0398842D01*
X0175766Y0398842D01*
X0175766Y0399842D01*
X0180266Y0404842D02*
X0184266Y0404842D01*
X0184266Y0403842D01*
X0180266Y0399842D01*
X0180266Y0398842D01*
X0187266Y0398842D02*
X0186266Y0399842D01*
X0190266Y0403842D01*
X0190266Y0399842D01*
X0189266Y0398842D01*
X0187266Y0398842D01*
X0186266Y0399842D02*
X0186266Y0403842D01*
X0187266Y0404842D01*
X0189266Y0404842D01*
X0190266Y0403842D01*
X0192266Y0401842D02*
X0194266Y0402842D01*
X0195266Y0402842D01*
X0196266Y0401842D01*
X0196266Y0399842D01*
X0195266Y0398842D01*
X0193266Y0398842D01*
X0192266Y0399842D01*
X0192266Y0401842D02*
X0192266Y0404842D01*
X0196266Y0404842D01*
X0201766Y0403842D02*
X0200766Y0402842D01*
X0201766Y0403842D02*
X0201766Y0405842D01*
X0199766Y0405842D02*
X0199766Y0403842D01*
X0198766Y0402842D01*
X0000000Y0402342D02*
X0157766Y0402342D01*
X0212766Y0402342D02*
X0370533Y0402342D01*
X0388033Y0208171D02*
X0387033Y0207171D01*
X0387033Y0205171D01*
X0388033Y0204171D01*
X0389033Y0204171D01*
X0390033Y0205171D01*
X0390033Y0206171D01*
X0390033Y0205171D02*
X0391033Y0204171D01*
X0392033Y0204171D01*
X0393033Y0205171D01*
X0393033Y0207171D01*
X0392033Y0208171D01*
X0388033Y0200671D02*
X0388033Y0199671D01*
X0387033Y0199671D01*
X0387033Y0200671D01*
X0388033Y0200671D01*
X0388033Y0196171D02*
X0389033Y0196171D01*
X0390033Y0195171D01*
X0390033Y0193171D01*
X0389033Y0192171D01*
X0388033Y0192171D01*
X0387033Y0193171D01*
X0387033Y0195171D01*
X0388033Y0196171D01*
X0390033Y0195171D02*
X0391033Y0196171D01*
X0392033Y0196171D01*
X0393033Y0195171D01*
X0393033Y0193171D01*
X0392033Y0192171D01*
X0391033Y0192171D01*
X0390033Y0193171D01*
X0387033Y0190171D02*
X0391033Y0186171D01*
X0392033Y0186171D01*
X0393033Y0187171D01*
X0393033Y0189171D01*
X0392033Y0190171D01*
X0387033Y0190171D02*
X0387033Y0186171D01*
X0388033Y0184171D02*
X0387033Y0183171D01*
X0387033Y0181171D01*
X0388033Y0180171D01*
X0389033Y0180171D01*
X0390033Y0181171D01*
X0390033Y0182171D01*
X0390033Y0181171D02*
X0391033Y0180171D01*
X0392033Y0180171D01*
X0393033Y0181171D01*
X0393033Y0183171D01*
X0392033Y0184171D01*
X0392033Y0174671D02*
X0391033Y0175671D01*
X0392033Y0174671D02*
X0394033Y0174671D01*
X0394033Y0176671D02*
X0392033Y0176671D01*
X0391033Y0177671D01*
X0390533Y0382342D02*
X0390533Y0218671D01*
X0390533Y0163671D02*
X0390533Y0000000D01*
M02*
