%
T01C0.108270
X10463Y1408
X10463Y24243
X1408Y24243
X23054Y1408
X23054Y24243
X13999Y24243
X35645Y1408
X35645Y24243
X26590Y24243
X3573Y27622
X4754Y36598
X12621Y27622
X13802Y36598
T02C0.047240
X11265Y3140
X11265Y5739
X23856Y3140
X23856Y5739
X36447Y3140
X36447Y5739
T03C0.042910
X6172Y7089
X6172Y8089
X7168Y5117
X8168Y5117
X8841Y9333
X8841Y10333
X3030Y10278
X3030Y11278
X3030Y12278
X3030Y9278
X1093Y14621
X1093Y15621
X1093Y16621
X18763Y7089
X18763Y8089
X19759Y5117
X20759Y5117
X21432Y9333
X21432Y10333
X15621Y10278
X15621Y11278
X15621Y12278
X15621Y9278
X13684Y14621
X13684Y15621
X13684Y16621
X31354Y7089
X31354Y8089
X32350Y5117
X33350Y5117
X34023Y9333
X34023Y10333
X28212Y10278
X28212Y11278
X28212Y12278
X28212Y9278
X26275Y14621
X26275Y15621
X26275Y16621
X23212Y30656
X23212Y29656
X23212Y28656
X23212Y27656
X23212Y36948
X23212Y35948
X23212Y34948
X23212Y33948
X31079Y30656
X31079Y29656
X31079Y28656
X31079Y27656
X31079Y36948
X31079Y35948
X31079Y34948
X31079Y33948
T04C0.040160
X10133Y17487
X10133Y16487
X11133Y16487
X11133Y17487
X8534Y12589
X8101Y11841
X7156Y9873
X9243Y5699
X2353Y1605
X22724Y17487
X22724Y16487
X23724Y16487
X23724Y17487
X21125Y12589
X20692Y11841
X19747Y9873
X21834Y5699
X14944Y1605
X35315Y17487
X35315Y16487
X36315Y16487
X36315Y17487
X33716Y12589
X33283Y11841
X32338Y9873
X34425Y5699
X27535Y1605
T05C0.040000
X6349Y23199
X6349Y24971
X8908Y24971
X8908Y23199
X18940Y23199
X18940Y24971
X21499Y24971
X21499Y23199
X31531Y23199
X31531Y24971
X34090Y24971
X34090Y23199
T06C0.039370
X1908Y3325
X1908Y4325
X1908Y5325
X1908Y6325
X1908Y7325
X908Y7325
X908Y6325
X908Y5325
X908Y4325
X908Y3325
X908Y21325
X908Y22325
X1908Y22325
X1908Y21325
X2908Y21325
X2908Y22325
X14499Y3325
X14499Y4325
X14499Y5325
X14499Y6325
X14499Y7325
X13499Y7325
X13499Y6325
X13499Y5325
X13499Y4325
X13499Y3325
X13499Y21325
X13499Y22325
X14499Y22325
X14499Y21325
X15499Y21325
X15499Y22325
X27090Y3325
X27090Y4325
X27090Y5325
X27090Y6325
X27090Y7325
X26090Y7325
X26090Y6325
X26090Y5325
X26090Y4325
X26090Y3325
X26090Y21325
X26090Y22325
X27090Y22325
X27090Y21325
X28090Y21325
X28090Y22325
T07C0.015000
X10542Y6565
X11251Y7865
X9558Y6723
X9322Y6447
X9164Y6762
X9243Y7471
X8298Y7510
X7826Y8534
X7550Y8967
X7235Y8534
X7235Y8062
X7235Y7589
X7274Y6880
X7274Y6526
X6960Y6684
X5857Y4597
X5503Y4597
X5503Y2983
X5857Y2983
X5857Y2274
X5857Y1447
X6684Y3258
X7353Y1132
X8023Y1369
X8731Y1762
X9597Y3573
X9597Y3928
X9597Y4282
X6093Y9991
X6802Y11251
X6881Y12510
X6881Y12865
X5936Y12825
X5542Y13967
X4400Y12904
X3810Y13455
X3377Y14006
X3180Y14951
X3810Y15621
X3967Y16211
X4400Y16054
X5148Y15778
X5936Y15936
X6526Y15896
X5385Y18022
X5778Y19518
X6526Y20069
X6211Y21172
X7353Y22235
X7944Y22156
X7708Y25148
X6054Y23928
X5700Y24636
X5070Y22943
X4322Y21408
X5070Y19558
X3141Y19439
X2432Y18101
X2078Y17156
X3141Y17628
X2117Y15109
X463Y12707
X463Y11211
X463Y10306
X463Y9400
X463Y8495
X2589Y6841
X4125Y9754
X4715Y11644
X4164Y13967
X4046Y14676
X7432Y19105
X8180Y18101
X8180Y17314
X8849Y17983
X8849Y18770
X8141Y15424
X8180Y14676
X8928Y13180
X10109Y13888
X10385Y12983
X11408Y13652
X11408Y12156
X11408Y15227
X11408Y18731
X11290Y20188
X10660Y22550
X9834Y22156
X3692Y23888
X3810Y24676
X2589Y25148
X503Y23062
X2786Y3042
X2983Y2727
X3180Y3042
X3416Y1605
X3810Y542
X23133Y6565
X23842Y7865
X22149Y6723
X21913Y6447
X21755Y6762
X21834Y7471
X20889Y7510
X20417Y8534
X20141Y8967
X19826Y8534
X19826Y8062
X19826Y7589
X19865Y6880
X19865Y6526
X19551Y6684
X18448Y4597
X18094Y4597
X18094Y2983
X18448Y2983
X18448Y2274
X18448Y1447
X19275Y3258
X19944Y1132
X20614Y1369
X21322Y1762
X22188Y3573
X22188Y3928
X22188Y4282
X18684Y9991
X19393Y11251
X19472Y12510
X19472Y12865
X18527Y12825
X18133Y13967
X16991Y12904
X16401Y13455
X15968Y14006
X15771Y14951
X16401Y15621
X16558Y16211
X16991Y16054
X17739Y15778
X18527Y15936
X19117Y15896
X17976Y18022
X18369Y19518
X19117Y20069
X18802Y21172
X19944Y22235
X20535Y22156
X20299Y25148
X18645Y23928
X18291Y24636
X17661Y22943
X16913Y21408
X17661Y19558
X15732Y19439
X15023Y18101
X14669Y17156
X15732Y17628
X14708Y15109
X13054Y12707
X13054Y11211
X13054Y10306
X13054Y9400
X13054Y8495
X15180Y6841
X16716Y9754
X17306Y11644
X16755Y13967
X16637Y14676
X20023Y19105
X20771Y18101
X20771Y17314
X21440Y17983
X21440Y18770
X20732Y15424
X20771Y14676
X21519Y13180
X22700Y13888
X22976Y12983
X23999Y13652
X23999Y12156
X23999Y15227
X23999Y18731
X23881Y20188
X23251Y22550
X22425Y22156
X16283Y23888
X16401Y24676
X15180Y25148
X13094Y23062
X15377Y3042
X15574Y2727
X15771Y3042
X16007Y1605
X16401Y542
X35724Y6565
X36433Y7865
X34740Y6723
X34504Y6447
X34346Y6762
X34425Y7471
X33480Y7510
X33008Y8534
X32732Y8967
X32417Y8534
X32417Y8062
X32417Y7589
X32456Y6880
X32456Y6526
X32142Y6684
X31039Y4597
X30685Y4597
X30685Y2983
X31039Y2983
X31039Y2274
X31039Y1447
X31866Y3258
X32535Y1132
X33205Y1369
X33913Y1762
X34779Y3573
X34779Y3928
X34779Y4282
X31275Y9991
X31984Y11251
X32063Y12510
X32063Y12865
X31118Y12825
X30724Y13967
X29582Y12904
X28992Y13455
X28559Y14006
X28362Y14951
X28992Y15621
X29149Y16211
X29582Y16054
X30330Y15778
X31118Y15936
X31708Y15896
X30567Y18022
X30960Y19518
X31708Y20069
X31393Y21172
X32535Y22235
X33126Y22156
X32890Y25148
X31236Y23928
X30882Y24636
X30252Y22943
X29504Y21408
X30252Y19558
X28323Y19439
X27614Y18101
X27260Y17156
X28323Y17628
X27299Y15109
X25645Y12707
X25645Y11211
X25645Y10306
X25645Y9400
X25645Y8495
X27771Y6841
X29307Y9754
X29897Y11644
X29346Y13967
X29228Y14676
X32614Y19105
X33362Y18101
X33362Y17314
X34031Y17983
X34031Y18770
X33323Y15424
X33362Y14676
X34110Y13180
X35291Y13888
X35567Y12983
X36590Y13652
X36590Y12156
X36590Y15227
X36590Y18731
X36472Y20188
X35842Y22550
X35016Y22156
X28874Y23888
X28992Y24676
X27771Y25148
X25685Y23062
X27968Y3042
X28165Y2727
X28362Y3042
X28598Y1605
X28992Y542
X18558Y27424
X20212Y27227
X21314Y28172
X22534Y26912
X22298Y30101
X20684Y30298
X20605Y31440
X18794Y31085
X22574Y31440
X24464Y30810
X18558Y33716
X20212Y33519
X21314Y34464
X22534Y33204
X22298Y36393
X20684Y36590
X20605Y37732
X18794Y37377
X22574Y37732
X24464Y37102
X26425Y27424
X28079Y27227
X29181Y28172
X30401Y26912
X30165Y30101
X28551Y30298
X28472Y31440
X26661Y31085
X30441Y31440
X32331Y30810
X26425Y33716
X28079Y33519
X29181Y34464
X30401Y33204
X30165Y36393
X28551Y36590
X28472Y37732
X26661Y37377
X30441Y37732
X32331Y37102
M30
