%
T01C0.196850
X68926Y10768
X56682Y10768
T02C0.108270
X1575Y1575
X1575Y37795
X48425Y37795
X48425Y1575
X73434Y1575
X52174Y1575
X52174Y24016
X73434Y24016
X54143Y27412
X55324Y36388
X63011Y27412
X64192Y36388
T03C0.090000
X41359Y27150
X32559Y21850
X41359Y16550
X58410Y9197
X67210Y14497
X58410Y19797
T04C0.080000
X34359Y32050
X39459Y32050
X60310Y4297
X65410Y4297
T05C0.042910
X4846Y33910
X5846Y33910
X6846Y33910
X7846Y33910
X11071Y33949
X12071Y33949
X13071Y33949
X14071Y33949
X17256Y33949
X18256Y33949
X19256Y33949
X20256Y33949
X24268Y33992
X25268Y33992
X26268Y33992
X30417Y33988
X31417Y33988
X32417Y33988
X33417Y33988
X34417Y33988
X38445Y33988
X39445Y33988
X40445Y33988
X41445Y33988
X44622Y34039
X44622Y33039
X44519Y24532
X44519Y23532
X44519Y22532
X44519Y21532
X44519Y20532
X44519Y19532
X44519Y18532
X48338Y15496
X48338Y14496
X48338Y13496
X48338Y12496
X48338Y11496
X44500Y8291
X44500Y7291
X44500Y6291
X44500Y5291
X38110Y4520
X37110Y4520
X36110Y4520
X32441Y4559
X31441Y4559
X30441Y4559
X5362Y12099
X5362Y13099
X2047Y17571
X2047Y18571
X69647Y21406
X69647Y20406
X69647Y17350
X69647Y16350
X69647Y13295
X69647Y12295
X69647Y9240
X69647Y8240
X69647Y5264
X69647Y4264
X63344Y1732
X62344Y1732
X55962Y4264
X55962Y5264
X55962Y8240
X55962Y9240
X55962Y12295
X55962Y13295
X55962Y16350
X55962Y17350
X55962Y20406
X55962Y21406
X73422Y30446
X73422Y29446
X73422Y28446
X73422Y27446
X73422Y36558
X73422Y35558
X73422Y34558
X73422Y33558
T06C0.023620
X3110Y13504
X2008Y13504
X19409Y8543
X24842Y9843
X32953Y19370
X34173Y6299
X40827Y6260
X68434Y5669
X65285Y12717
X66111Y15591
X65383Y17598
X63611Y19571
X62411Y15591
X57332Y17284
X58887Y24118
X60068Y24118
X68336Y24118
X69911Y24118
T07C0.078740
X16739Y6021
T08C0.047240
X665Y23095
X665Y25693
T09C0.040000
X40539Y2469
X41539Y2469
X42539Y2469
X42539Y1469
X41539Y1469
X40539Y1469
X39539Y1469
X38539Y1469
X38539Y2469
X39539Y2469
X37539Y2469
X36539Y2469
X35539Y2469
X34539Y2469
X33539Y2469
X33539Y1469
X34539Y1469
X35539Y1469
X36539Y1469
X37539Y1469
X13803Y1469
X12803Y1469
X12803Y2469
X13803Y2469
X11803Y2469
X10803Y2469
X9803Y2469
X8803Y2469
X7803Y2469
X6803Y2469
X5803Y2469
X4803Y2469
X4803Y1469
X5803Y1469
X6803Y1469
X7803Y1469
X8803Y1469
X9803Y1469
X10803Y1469
X11803Y1469
X3748Y26992
X3748Y28772
X3713Y30094
X3713Y31874
X1153Y31874
X1153Y30094
X1188Y28772
X1188Y26992
T10C0.015000
X19252Y3268
X20079Y4410
X21023Y4843
X21220Y3071
X19252Y6063
X20275Y6851
X21102Y8465
X21575Y8150
X21142Y9055
X20354Y8898
X17362Y11772
X18189Y12795
X17519Y14764
X17126Y15158
X15472Y15669
X15393Y16378
X14567Y14764
X15275Y14370
X14960Y13937
X14606Y13110
X13228Y13386
X12086Y13622
X11653Y13032
X11771Y14567
X12441Y14488
X12086Y15197
X8897Y17126
X8425Y19055
X7519Y20512
X7441Y21654
X8937Y21654
X10039Y22835
X11023Y22480
X12913Y22599
X13346Y22362
X14449Y22677
X14803Y22008
X14330Y21142
X13149Y20866
X13622Y19961
X15393Y19095
X15787Y18780
X16142Y19725
X16614Y20276
X16417Y22008
X16732Y22559
X17126Y22087
X16968Y23465
X17205Y23858
X17638Y23504
X17716Y25158
X17165Y25473
X17008Y26339
X16417Y26181
X15748Y26339
X15748Y27717
X17323Y27126
X18504Y26181
X19330Y25630
X20039Y26457
X21693Y26299
X22047Y25394
X22913Y25394
X22480Y24567
X22913Y24095
X22874Y23622
X23228Y23268
X22716Y22284
X21771Y21851
X20787Y23071
X20945Y23977
X20354Y24331
X19409Y22756
X19409Y21851
X19882Y21811
X20748Y19331
X20000Y19095
X20590Y18543
X21653Y19016
X22519Y18701
X24055Y19410
X24960Y19488
X25000Y20118
X25039Y20591
X24330Y21181
X25197Y22599
X26181Y22402
X26732Y21102
X26299Y20158
X28189Y18071
X28110Y17638
X29291Y18032
X30039Y18032
X30079Y18701
X30827Y18583
X30315Y17244
X31102Y16024
X31417Y16536
X30748Y15512
X29803Y14725
X29252Y15236
X29409Y15945
X28425Y15512
X28110Y14331
X29567Y13032
X29764Y12362
X30197Y11929
X29685Y11575
X30472Y10748
X31142Y10118
X31653Y9646
X32205Y9055
X33622Y9921
X34370Y10158
X34252Y9410
X35630Y9685
X36299Y9685
X38189Y7244
X39330Y7599
X40551Y7914
X40984Y8898
X41890Y8898
X41771Y9882
X41063Y9882
X40472Y10551
X39606Y10984
X39291Y9843
X38307Y13150
X37519Y12835
X36653Y15669
X36142Y15709
X36142Y16693
X37008Y17914
X37205Y19921
X36614Y22795
X35827Y25039
X36338Y25748
X35157Y25866
X34449Y25000
X33464Y25748
X31890Y24488
X31929Y23307
X30039Y23937
X29685Y22402
X29685Y21536
X27795Y23622
X27519Y25354
X28110Y25354
X28110Y26181
X30039Y25866
X32362Y27992
X32598Y29803
X30551Y29803
X29449Y31063
X27795Y30354
X27638Y31181
X26142Y31575
X24921Y30669
X24134Y31417
X21575Y30236
X21378Y29567
X19606Y31693
X18819Y30433
X18110Y30591
X17598Y30748
X17519Y30315
X18622Y28780
X19016Y28189
X17401Y32677
X14488Y31339
X13307Y30591
X13622Y29921
X10827Y28898
X9764Y27756
X9212Y27205
X9527Y26693
X10472Y27205
X10630Y26693
X10984Y26181
X10354Y25354
X11023Y24725
X11378Y24488
X12126Y25473
X13582Y25788
X14724Y24803
X15512Y24921
X15512Y24134
X18268Y17677
X21653Y16024
X22874Y15197
X23189Y16299
X24055Y17835
X24921Y16063
X25630Y14213
X25275Y12047
X25079Y11575
X24764Y12165
X25472Y10945
X25157Y10591
X26220Y9685
X26890Y10000
X27283Y8386
X28504Y8032
X28976Y7441
X29449Y6851
X29527Y6221
X27519Y5906
X27283Y6536
X26653Y5906
X23661Y6772
X27913Y10197
X31142Y14331
X32362Y14331
X34330Y12323
X32519Y11063
X33071Y10512
X26732Y17205
X25551Y24764
X26299Y27008
X23582Y27008
X33464Y20945
X40393Y21536
X40393Y22559
X40393Y23504
X41023Y25473
X40433Y20512
X41102Y18898
X42519Y14449
X42480Y13504
X42519Y12520
X42519Y11536
X15630Y10709
X14606Y11378
X12598Y11024
X10984Y9528
X10393Y10315
X10079Y7165
X10748Y5984
X11102Y5394
X10748Y5039
X9055Y4331
X7834Y4843
X7913Y6260
X5945Y7599
X5118Y6851
X5551Y5945
X3937Y8465
X3858Y9331
X4645Y10591
X4488Y14055
X1771Y15512
X1496Y11654
X1142Y10788
X1220Y10315
X1142Y8701
X827Y8189
X7756Y14528
X13228Y6693
X14606Y7559
X15079Y7914
X15393Y5827
X15079Y5197
X14370Y4488
X2795Y22835
X5118Y27244
X6142Y27638
X6535Y29291
X5708Y30158
X6063Y30473
X6456Y30748
X9449Y29961
X7323Y25669
X68768Y27214
X70422Y27017
X71524Y27962
X72744Y26702
X72508Y29891
X70894Y30088
X70815Y31230
X69004Y30875
X72784Y31230
X74674Y30600
X68768Y33326
X70422Y33129
X71524Y34074
X72744Y32814
X72508Y36003
X70894Y36200
X70815Y37342
X69004Y36987
X72784Y37342
X74674Y36712
T11C0.094490
X27741Y2872
M30
