G75*
G70*
%OFA0B0*%
%FSLAX25Y25*%
%IPPOS*%
%LPD*%
%AMOC8*
5,1,8,0,0,1.08239X$1,22.5*
%
%ADD302C,0.00000*%
X0000000Y0000000D02*
G75*
%LPD*%
D94*
X0118110Y0013780D02*
X0118110Y0242126D01*
X0118111Y0242126D02*
X0118107Y0242459D01*
X0118095Y0242792D01*
X0118075Y0243124D01*
X0118047Y0243456D01*
X0118011Y0243787D01*
X0117966Y0244117D01*
X0117914Y0244446D01*
X0117854Y0244774D01*
X0117786Y0245100D01*
X0117711Y0245424D01*
X0117627Y0245746D01*
X0117536Y0246066D01*
X0117437Y0246384D01*
X0117330Y0246700D01*
X0117216Y0247012D01*
X0117094Y0247322D01*
X0116964Y0247629D01*
X0116828Y0247933D01*
X0116684Y0248233D01*
X0116533Y0248530D01*
X0116374Y0248823D01*
X0116209Y0249112D01*
X0116037Y0249397D01*
X0115858Y0249678D01*
X0115672Y0249954D01*
X0115479Y0250226D01*
X0115280Y0250493D01*
X0115075Y0250755D01*
X0114863Y0251012D01*
X0114645Y0251264D01*
X0114422Y0251510D01*
X0114192Y0251751D01*
X0113956Y0251987D01*
X0113715Y0252217D01*
X0113469Y0252440D01*
X0113217Y0252658D01*
X0112960Y0252870D01*
X0112698Y0253075D01*
X0112431Y0253274D01*
X0112159Y0253467D01*
X0111883Y0253653D01*
X0111602Y0253832D01*
X0111317Y0254004D01*
X0111028Y0254169D01*
X0110735Y0254328D01*
X0110438Y0254479D01*
X0110138Y0254623D01*
X0109834Y0254759D01*
X0109527Y0254889D01*
X0109217Y0255011D01*
X0108905Y0255125D01*
X0108589Y0255232D01*
X0108271Y0255331D01*
X0107951Y0255422D01*
X0107629Y0255506D01*
X0107305Y0255581D01*
X0106979Y0255649D01*
X0106651Y0255709D01*
X0106322Y0255761D01*
X0105992Y0255806D01*
X0105661Y0255842D01*
X0105329Y0255870D01*
X0104997Y0255890D01*
X0104664Y0255902D01*
X0104331Y0255906D01*
X0013780Y0255906D01*
X0013447Y0255902D01*
X0013114Y0255890D01*
X0012782Y0255870D01*
X0012450Y0255842D01*
X0012119Y0255806D01*
X0011789Y0255761D01*
X0011460Y0255709D01*
X0011132Y0255649D01*
X0010806Y0255581D01*
X0010482Y0255506D01*
X0010160Y0255422D01*
X0009840Y0255331D01*
X0009522Y0255232D01*
X0009206Y0255125D01*
X0008894Y0255011D01*
X0008584Y0254889D01*
X0008277Y0254759D01*
X0007973Y0254623D01*
X0007673Y0254479D01*
X0007376Y0254328D01*
X0007083Y0254169D01*
X0006794Y0254004D01*
X0006509Y0253832D01*
X0006228Y0253653D01*
X0005952Y0253467D01*
X0005680Y0253274D01*
X0005413Y0253075D01*
X0005151Y0252870D01*
X0004894Y0252658D01*
X0004642Y0252440D01*
X0004396Y0252217D01*
X0004155Y0251987D01*
X0003919Y0251751D01*
X0003689Y0251510D01*
X0003466Y0251264D01*
X0003248Y0251012D01*
X0003036Y0250755D01*
X0002831Y0250493D01*
X0002632Y0250226D01*
X0002439Y0249954D01*
X0002253Y0249678D01*
X0002074Y0249397D01*
X0001902Y0249112D01*
X0001737Y0248823D01*
X0001578Y0248530D01*
X0001427Y0248233D01*
X0001283Y0247933D01*
X0001147Y0247629D01*
X0001017Y0247322D01*
X0000895Y0247012D01*
X0000781Y0246700D01*
X0000674Y0246384D01*
X0000575Y0246066D01*
X0000484Y0245746D01*
X0000400Y0245424D01*
X0000325Y0245100D01*
X0000257Y0244774D01*
X0000197Y0244446D01*
X0000145Y0244117D01*
X0000100Y0243787D01*
X0000064Y0243456D01*
X0000036Y0243124D01*
X0000016Y0242792D01*
X0000004Y0242459D01*
X0000000Y0242126D01*
X0000000Y0013780D01*
X0000004Y0013447D01*
X0000016Y0013114D01*
X0000036Y0012782D01*
X0000064Y0012450D01*
X0000100Y0012119D01*
X0000145Y0011789D01*
X0000197Y0011460D01*
X0000257Y0011132D01*
X0000325Y0010806D01*
X0000400Y0010482D01*
X0000484Y0010160D01*
X0000575Y0009840D01*
X0000674Y0009522D01*
X0000781Y0009206D01*
X0000895Y0008894D01*
X0001017Y0008584D01*
X0001147Y0008277D01*
X0001283Y0007973D01*
X0001427Y0007673D01*
X0001578Y0007376D01*
X0001737Y0007083D01*
X0001902Y0006794D01*
X0002074Y0006509D01*
X0002253Y0006228D01*
X0002439Y0005952D01*
X0002632Y0005680D01*
X0002831Y0005413D01*
X0003036Y0005151D01*
X0003248Y0004894D01*
X0003466Y0004642D01*
X0003689Y0004396D01*
X0003919Y0004155D01*
X0004155Y0003919D01*
X0004396Y0003689D01*
X0004642Y0003466D01*
X0004894Y0003248D01*
X0005151Y0003036D01*
X0005413Y0002831D01*
X0005680Y0002632D01*
X0005952Y0002439D01*
X0006228Y0002253D01*
X0006509Y0002074D01*
X0006794Y0001902D01*
X0007083Y0001737D01*
X0007376Y0001578D01*
X0007673Y0001427D01*
X0007973Y0001283D01*
X0008277Y0001147D01*
X0008584Y0001017D01*
X0008894Y0000895D01*
X0009206Y0000781D01*
X0009522Y0000674D01*
X0009840Y0000575D01*
X0010160Y0000484D01*
X0010482Y0000400D01*
X0010806Y0000325D01*
X0011132Y0000257D01*
X0011460Y0000197D01*
X0011789Y0000145D01*
X0012119Y0000100D01*
X0012450Y0000064D01*
X0012782Y0000036D01*
X0013114Y0000016D01*
X0013447Y0000004D01*
X0013780Y0000000D01*
X0104331Y0000000D01*
X0104664Y0000004D01*
X0104997Y0000016D01*
X0105329Y0000036D01*
X0105661Y0000064D01*
X0105992Y0000100D01*
X0106322Y0000145D01*
X0106651Y0000197D01*
X0106979Y0000257D01*
X0107305Y0000325D01*
X0107629Y0000400D01*
X0107951Y0000484D01*
X0108271Y0000575D01*
X0108589Y0000674D01*
X0108905Y0000781D01*
X0109217Y0000895D01*
X0109527Y0001017D01*
X0109834Y0001147D01*
X0110138Y0001283D01*
X0110438Y0001427D01*
X0110735Y0001578D01*
X0111028Y0001737D01*
X0111317Y0001902D01*
X0111602Y0002074D01*
X0111883Y0002253D01*
X0112159Y0002439D01*
X0112431Y0002632D01*
X0112698Y0002831D01*
X0112960Y0003036D01*
X0113217Y0003248D01*
X0113469Y0003466D01*
X0113715Y0003689D01*
X0113956Y0003919D01*
X0114192Y0004155D01*
X0114422Y0004396D01*
X0114645Y0004642D01*
X0114863Y0004894D01*
X0115075Y0005151D01*
X0115280Y0005413D01*
X0115479Y0005680D01*
X0115672Y0005952D01*
X0115858Y0006228D01*
X0116037Y0006509D01*
X0116209Y0006794D01*
X0116374Y0007083D01*
X0116533Y0007376D01*
X0116684Y0007673D01*
X0116828Y0007973D01*
X0116964Y0008277D01*
X0117094Y0008584D01*
X0117216Y0008894D01*
X0117330Y0009206D01*
X0117437Y0009522D01*
X0117536Y0009840D01*
X0117627Y0010160D01*
X0117711Y0010482D01*
X0117786Y0010806D01*
X0117854Y0011132D01*
X0117914Y0011460D01*
X0117966Y0011789D01*
X0118011Y0012119D01*
X0118047Y0012450D01*
X0118075Y0012782D01*
X0118095Y0013114D01*
X0118107Y0013447D01*
X0118111Y0013780D01*
X0000000Y0261906D02*
G75*
%LPD*%
D94*
X0118110Y0275686D02*
X0118110Y0504032D01*
X0118111Y0504032D02*
X0118107Y0504365D01*
X0118095Y0504698D01*
X0118075Y0505030D01*
X0118047Y0505362D01*
X0118011Y0505693D01*
X0117966Y0506023D01*
X0117914Y0506352D01*
X0117854Y0506680D01*
X0117786Y0507006D01*
X0117711Y0507330D01*
X0117627Y0507652D01*
X0117536Y0507972D01*
X0117437Y0508290D01*
X0117330Y0508606D01*
X0117216Y0508918D01*
X0117094Y0509228D01*
X0116964Y0509535D01*
X0116828Y0509839D01*
X0116684Y0510139D01*
X0116533Y0510436D01*
X0116374Y0510729D01*
X0116209Y0511018D01*
X0116037Y0511303D01*
X0115858Y0511584D01*
X0115672Y0511860D01*
X0115479Y0512132D01*
X0115280Y0512399D01*
X0115075Y0512661D01*
X0114863Y0512918D01*
X0114645Y0513170D01*
X0114422Y0513416D01*
X0114192Y0513657D01*
X0113956Y0513893D01*
X0113715Y0514123D01*
X0113469Y0514346D01*
X0113217Y0514564D01*
X0112960Y0514776D01*
X0112698Y0514981D01*
X0112431Y0515180D01*
X0112159Y0515373D01*
X0111883Y0515559D01*
X0111602Y0515738D01*
X0111317Y0515910D01*
X0111028Y0516075D01*
X0110735Y0516234D01*
X0110438Y0516385D01*
X0110138Y0516529D01*
X0109834Y0516665D01*
X0109527Y0516795D01*
X0109217Y0516917D01*
X0108905Y0517031D01*
X0108589Y0517138D01*
X0108271Y0517237D01*
X0107951Y0517328D01*
X0107629Y0517412D01*
X0107305Y0517487D01*
X0106979Y0517555D01*
X0106651Y0517615D01*
X0106322Y0517667D01*
X0105992Y0517712D01*
X0105661Y0517748D01*
X0105329Y0517776D01*
X0104997Y0517796D01*
X0104664Y0517808D01*
X0104331Y0517812D01*
X0013780Y0517812D01*
X0013447Y0517808D01*
X0013114Y0517796D01*
X0012782Y0517776D01*
X0012450Y0517748D01*
X0012119Y0517712D01*
X0011789Y0517667D01*
X0011460Y0517615D01*
X0011132Y0517555D01*
X0010806Y0517487D01*
X0010482Y0517412D01*
X0010160Y0517328D01*
X0009840Y0517237D01*
X0009522Y0517138D01*
X0009206Y0517031D01*
X0008894Y0516917D01*
X0008584Y0516795D01*
X0008277Y0516665D01*
X0007973Y0516529D01*
X0007673Y0516385D01*
X0007376Y0516234D01*
X0007083Y0516075D01*
X0006794Y0515910D01*
X0006509Y0515738D01*
X0006228Y0515559D01*
X0005952Y0515373D01*
X0005680Y0515180D01*
X0005413Y0514981D01*
X0005151Y0514776D01*
X0004894Y0514564D01*
X0004642Y0514346D01*
X0004396Y0514123D01*
X0004155Y0513893D01*
X0003919Y0513657D01*
X0003689Y0513416D01*
X0003466Y0513170D01*
X0003248Y0512918D01*
X0003036Y0512661D01*
X0002831Y0512399D01*
X0002632Y0512132D01*
X0002439Y0511860D01*
X0002253Y0511584D01*
X0002074Y0511303D01*
X0001902Y0511018D01*
X0001737Y0510729D01*
X0001578Y0510436D01*
X0001427Y0510139D01*
X0001283Y0509839D01*
X0001147Y0509535D01*
X0001017Y0509228D01*
X0000895Y0508918D01*
X0000781Y0508606D01*
X0000674Y0508290D01*
X0000575Y0507972D01*
X0000484Y0507652D01*
X0000400Y0507330D01*
X0000325Y0507006D01*
X0000257Y0506680D01*
X0000197Y0506352D01*
X0000145Y0506023D01*
X0000100Y0505693D01*
X0000064Y0505362D01*
X0000036Y0505030D01*
X0000016Y0504698D01*
X0000004Y0504365D01*
X0000000Y0504032D01*
X0000000Y0275686D01*
X0000004Y0275353D01*
X0000016Y0275020D01*
X0000036Y0274688D01*
X0000064Y0274356D01*
X0000100Y0274025D01*
X0000145Y0273695D01*
X0000197Y0273366D01*
X0000257Y0273038D01*
X0000325Y0272712D01*
X0000400Y0272388D01*
X0000484Y0272066D01*
X0000575Y0271746D01*
X0000674Y0271428D01*
X0000781Y0271112D01*
X0000895Y0270800D01*
X0001017Y0270490D01*
X0001147Y0270183D01*
X0001283Y0269879D01*
X0001427Y0269579D01*
X0001578Y0269282D01*
X0001737Y0268989D01*
X0001902Y0268700D01*
X0002074Y0268415D01*
X0002253Y0268134D01*
X0002439Y0267858D01*
X0002632Y0267586D01*
X0002831Y0267319D01*
X0003036Y0267057D01*
X0003248Y0266800D01*
X0003466Y0266548D01*
X0003689Y0266302D01*
X0003919Y0266061D01*
X0004155Y0265825D01*
X0004396Y0265595D01*
X0004642Y0265372D01*
X0004894Y0265154D01*
X0005151Y0264942D01*
X0005413Y0264737D01*
X0005680Y0264538D01*
X0005952Y0264345D01*
X0006228Y0264159D01*
X0006509Y0263980D01*
X0006794Y0263808D01*
X0007083Y0263643D01*
X0007376Y0263484D01*
X0007673Y0263333D01*
X0007973Y0263189D01*
X0008277Y0263053D01*
X0008584Y0262923D01*
X0008894Y0262801D01*
X0009206Y0262687D01*
X0009522Y0262580D01*
X0009840Y0262481D01*
X0010160Y0262390D01*
X0010482Y0262306D01*
X0010806Y0262231D01*
X0011132Y0262163D01*
X0011460Y0262103D01*
X0011789Y0262051D01*
X0012119Y0262006D01*
X0012450Y0261970D01*
X0012782Y0261942D01*
X0013114Y0261922D01*
X0013447Y0261910D01*
X0013780Y0261906D01*
X0104331Y0261906D01*
X0104664Y0261910D01*
X0104997Y0261922D01*
X0105329Y0261942D01*
X0105661Y0261970D01*
X0105992Y0262006D01*
X0106322Y0262051D01*
X0106651Y0262103D01*
X0106979Y0262163D01*
X0107305Y0262231D01*
X0107629Y0262306D01*
X0107951Y0262390D01*
X0108271Y0262481D01*
X0108589Y0262580D01*
X0108905Y0262687D01*
X0109217Y0262801D01*
X0109527Y0262923D01*
X0109834Y0263053D01*
X0110138Y0263189D01*
X0110438Y0263333D01*
X0110735Y0263484D01*
X0111028Y0263643D01*
X0111317Y0263808D01*
X0111602Y0263980D01*
X0111883Y0264159D01*
X0112159Y0264345D01*
X0112431Y0264538D01*
X0112698Y0264737D01*
X0112960Y0264942D01*
X0113217Y0265154D01*
X0113469Y0265372D01*
X0113715Y0265595D01*
X0113956Y0265825D01*
X0114192Y0266061D01*
X0114422Y0266302D01*
X0114645Y0266548D01*
X0114863Y0266800D01*
X0115075Y0267057D01*
X0115280Y0267319D01*
X0115479Y0267586D01*
X0115672Y0267858D01*
X0115858Y0268134D01*
X0116037Y0268415D01*
X0116209Y0268700D01*
X0116374Y0268989D01*
X0116533Y0269282D01*
X0116684Y0269579D01*
X0116828Y0269879D01*
X0116964Y0270183D01*
X0117094Y0270490D01*
X0117216Y0270800D01*
X0117330Y0271112D01*
X0117437Y0271428D01*
X0117536Y0271746D01*
X0117627Y0272066D01*
X0117711Y0272388D01*
X0117786Y0272712D01*
X0117854Y0273038D01*
X0117914Y0273366D01*
X0117966Y0273695D01*
X0118011Y0274025D01*
X0118047Y0274356D01*
X0118075Y0274688D01*
X0118095Y0275020D01*
X0118107Y0275353D01*
X0118111Y0275686D01*
X0124111Y0000000D02*
G75*
%LPD*%
D94*
X0242221Y0013780D02*
X0242221Y0242126D01*
X0242222Y0242126D02*
X0242218Y0242459D01*
X0242206Y0242792D01*
X0242186Y0243124D01*
X0242158Y0243456D01*
X0242122Y0243787D01*
X0242077Y0244117D01*
X0242025Y0244446D01*
X0241965Y0244774D01*
X0241897Y0245100D01*
X0241822Y0245424D01*
X0241738Y0245746D01*
X0241647Y0246066D01*
X0241548Y0246384D01*
X0241441Y0246700D01*
X0241327Y0247012D01*
X0241205Y0247322D01*
X0241075Y0247629D01*
X0240939Y0247933D01*
X0240795Y0248233D01*
X0240644Y0248530D01*
X0240485Y0248823D01*
X0240320Y0249112D01*
X0240148Y0249397D01*
X0239969Y0249678D01*
X0239783Y0249954D01*
X0239590Y0250226D01*
X0239391Y0250493D01*
X0239186Y0250755D01*
X0238974Y0251012D01*
X0238756Y0251264D01*
X0238533Y0251510D01*
X0238303Y0251751D01*
X0238067Y0251987D01*
X0237826Y0252217D01*
X0237580Y0252440D01*
X0237328Y0252658D01*
X0237071Y0252870D01*
X0236809Y0253075D01*
X0236542Y0253274D01*
X0236270Y0253467D01*
X0235994Y0253653D01*
X0235713Y0253832D01*
X0235428Y0254004D01*
X0235139Y0254169D01*
X0234846Y0254328D01*
X0234549Y0254479D01*
X0234249Y0254623D01*
X0233945Y0254759D01*
X0233638Y0254889D01*
X0233328Y0255011D01*
X0233016Y0255125D01*
X0232700Y0255232D01*
X0232382Y0255331D01*
X0232062Y0255422D01*
X0231740Y0255506D01*
X0231416Y0255581D01*
X0231090Y0255649D01*
X0230762Y0255709D01*
X0230433Y0255761D01*
X0230103Y0255806D01*
X0229772Y0255842D01*
X0229440Y0255870D01*
X0229108Y0255890D01*
X0228775Y0255902D01*
X0228442Y0255906D01*
X0137891Y0255906D01*
X0137558Y0255902D01*
X0137225Y0255890D01*
X0136893Y0255870D01*
X0136561Y0255842D01*
X0136230Y0255806D01*
X0135900Y0255761D01*
X0135571Y0255709D01*
X0135243Y0255649D01*
X0134917Y0255581D01*
X0134593Y0255506D01*
X0134271Y0255422D01*
X0133951Y0255331D01*
X0133633Y0255232D01*
X0133317Y0255125D01*
X0133005Y0255011D01*
X0132695Y0254889D01*
X0132388Y0254759D01*
X0132084Y0254623D01*
X0131784Y0254479D01*
X0131487Y0254328D01*
X0131194Y0254169D01*
X0130905Y0254004D01*
X0130620Y0253832D01*
X0130339Y0253653D01*
X0130063Y0253467D01*
X0129791Y0253274D01*
X0129524Y0253075D01*
X0129262Y0252870D01*
X0129005Y0252658D01*
X0128753Y0252440D01*
X0128507Y0252217D01*
X0128266Y0251987D01*
X0128030Y0251751D01*
X0127800Y0251510D01*
X0127577Y0251264D01*
X0127359Y0251012D01*
X0127147Y0250755D01*
X0126942Y0250493D01*
X0126743Y0250226D01*
X0126550Y0249954D01*
X0126364Y0249678D01*
X0126185Y0249397D01*
X0126013Y0249112D01*
X0125848Y0248823D01*
X0125689Y0248530D01*
X0125538Y0248233D01*
X0125394Y0247933D01*
X0125258Y0247629D01*
X0125128Y0247322D01*
X0125006Y0247012D01*
X0124892Y0246700D01*
X0124785Y0246384D01*
X0124686Y0246066D01*
X0124595Y0245746D01*
X0124511Y0245424D01*
X0124436Y0245100D01*
X0124368Y0244774D01*
X0124308Y0244446D01*
X0124256Y0244117D01*
X0124211Y0243787D01*
X0124175Y0243456D01*
X0124147Y0243124D01*
X0124127Y0242792D01*
X0124115Y0242459D01*
X0124111Y0242126D01*
X0124111Y0013780D01*
X0124115Y0013447D01*
X0124127Y0013114D01*
X0124147Y0012782D01*
X0124175Y0012450D01*
X0124211Y0012119D01*
X0124256Y0011789D01*
X0124308Y0011460D01*
X0124368Y0011132D01*
X0124436Y0010806D01*
X0124511Y0010482D01*
X0124595Y0010160D01*
X0124686Y0009840D01*
X0124785Y0009522D01*
X0124892Y0009206D01*
X0125006Y0008894D01*
X0125128Y0008584D01*
X0125258Y0008277D01*
X0125394Y0007973D01*
X0125538Y0007673D01*
X0125689Y0007376D01*
X0125848Y0007083D01*
X0126013Y0006794D01*
X0126185Y0006509D01*
X0126364Y0006228D01*
X0126550Y0005952D01*
X0126743Y0005680D01*
X0126942Y0005413D01*
X0127147Y0005151D01*
X0127359Y0004894D01*
X0127577Y0004642D01*
X0127800Y0004396D01*
X0128030Y0004155D01*
X0128266Y0003919D01*
X0128507Y0003689D01*
X0128753Y0003466D01*
X0129005Y0003248D01*
X0129262Y0003036D01*
X0129524Y0002831D01*
X0129791Y0002632D01*
X0130063Y0002439D01*
X0130339Y0002253D01*
X0130620Y0002074D01*
X0130905Y0001902D01*
X0131194Y0001737D01*
X0131487Y0001578D01*
X0131784Y0001427D01*
X0132084Y0001283D01*
X0132388Y0001147D01*
X0132695Y0001017D01*
X0133005Y0000895D01*
X0133317Y0000781D01*
X0133633Y0000674D01*
X0133951Y0000575D01*
X0134271Y0000484D01*
X0134593Y0000400D01*
X0134917Y0000325D01*
X0135243Y0000257D01*
X0135571Y0000197D01*
X0135900Y0000145D01*
X0136230Y0000100D01*
X0136561Y0000064D01*
X0136893Y0000036D01*
X0137225Y0000016D01*
X0137558Y0000004D01*
X0137891Y0000000D01*
X0228442Y0000000D01*
X0228775Y0000004D01*
X0229108Y0000016D01*
X0229440Y0000036D01*
X0229772Y0000064D01*
X0230103Y0000100D01*
X0230433Y0000145D01*
X0230762Y0000197D01*
X0231090Y0000257D01*
X0231416Y0000325D01*
X0231740Y0000400D01*
X0232062Y0000484D01*
X0232382Y0000575D01*
X0232700Y0000674D01*
X0233016Y0000781D01*
X0233328Y0000895D01*
X0233638Y0001017D01*
X0233945Y0001147D01*
X0234249Y0001283D01*
X0234549Y0001427D01*
X0234846Y0001578D01*
X0235139Y0001737D01*
X0235428Y0001902D01*
X0235713Y0002074D01*
X0235994Y0002253D01*
X0236270Y0002439D01*
X0236542Y0002632D01*
X0236809Y0002831D01*
X0237071Y0003036D01*
X0237328Y0003248D01*
X0237580Y0003466D01*
X0237826Y0003689D01*
X0238067Y0003919D01*
X0238303Y0004155D01*
X0238533Y0004396D01*
X0238756Y0004642D01*
X0238974Y0004894D01*
X0239186Y0005151D01*
X0239391Y0005413D01*
X0239590Y0005680D01*
X0239783Y0005952D01*
X0239969Y0006228D01*
X0240148Y0006509D01*
X0240320Y0006794D01*
X0240485Y0007083D01*
X0240644Y0007376D01*
X0240795Y0007673D01*
X0240939Y0007973D01*
X0241075Y0008277D01*
X0241205Y0008584D01*
X0241327Y0008894D01*
X0241441Y0009206D01*
X0241548Y0009522D01*
X0241647Y0009840D01*
X0241738Y0010160D01*
X0241822Y0010482D01*
X0241897Y0010806D01*
X0241965Y0011132D01*
X0242025Y0011460D01*
X0242077Y0011789D01*
X0242122Y0012119D01*
X0242158Y0012450D01*
X0242186Y0012782D01*
X0242206Y0013114D01*
X0242218Y0013447D01*
X0242222Y0013780D01*
X0124111Y0261906D02*
G75*
%LPD*%
D94*
X0242221Y0275686D02*
X0242221Y0504032D01*
X0242222Y0504032D02*
X0242218Y0504365D01*
X0242206Y0504698D01*
X0242186Y0505030D01*
X0242158Y0505362D01*
X0242122Y0505693D01*
X0242077Y0506023D01*
X0242025Y0506352D01*
X0241965Y0506680D01*
X0241897Y0507006D01*
X0241822Y0507330D01*
X0241738Y0507652D01*
X0241647Y0507972D01*
X0241548Y0508290D01*
X0241441Y0508606D01*
X0241327Y0508918D01*
X0241205Y0509228D01*
X0241075Y0509535D01*
X0240939Y0509839D01*
X0240795Y0510139D01*
X0240644Y0510436D01*
X0240485Y0510729D01*
X0240320Y0511018D01*
X0240148Y0511303D01*
X0239969Y0511584D01*
X0239783Y0511860D01*
X0239590Y0512132D01*
X0239391Y0512399D01*
X0239186Y0512661D01*
X0238974Y0512918D01*
X0238756Y0513170D01*
X0238533Y0513416D01*
X0238303Y0513657D01*
X0238067Y0513893D01*
X0237826Y0514123D01*
X0237580Y0514346D01*
X0237328Y0514564D01*
X0237071Y0514776D01*
X0236809Y0514981D01*
X0236542Y0515180D01*
X0236270Y0515373D01*
X0235994Y0515559D01*
X0235713Y0515738D01*
X0235428Y0515910D01*
X0235139Y0516075D01*
X0234846Y0516234D01*
X0234549Y0516385D01*
X0234249Y0516529D01*
X0233945Y0516665D01*
X0233638Y0516795D01*
X0233328Y0516917D01*
X0233016Y0517031D01*
X0232700Y0517138D01*
X0232382Y0517237D01*
X0232062Y0517328D01*
X0231740Y0517412D01*
X0231416Y0517487D01*
X0231090Y0517555D01*
X0230762Y0517615D01*
X0230433Y0517667D01*
X0230103Y0517712D01*
X0229772Y0517748D01*
X0229440Y0517776D01*
X0229108Y0517796D01*
X0228775Y0517808D01*
X0228442Y0517812D01*
X0137891Y0517812D01*
X0137558Y0517808D01*
X0137225Y0517796D01*
X0136893Y0517776D01*
X0136561Y0517748D01*
X0136230Y0517712D01*
X0135900Y0517667D01*
X0135571Y0517615D01*
X0135243Y0517555D01*
X0134917Y0517487D01*
X0134593Y0517412D01*
X0134271Y0517328D01*
X0133951Y0517237D01*
X0133633Y0517138D01*
X0133317Y0517031D01*
X0133005Y0516917D01*
X0132695Y0516795D01*
X0132388Y0516665D01*
X0132084Y0516529D01*
X0131784Y0516385D01*
X0131487Y0516234D01*
X0131194Y0516075D01*
X0130905Y0515910D01*
X0130620Y0515738D01*
X0130339Y0515559D01*
X0130063Y0515373D01*
X0129791Y0515180D01*
X0129524Y0514981D01*
X0129262Y0514776D01*
X0129005Y0514564D01*
X0128753Y0514346D01*
X0128507Y0514123D01*
X0128266Y0513893D01*
X0128030Y0513657D01*
X0127800Y0513416D01*
X0127577Y0513170D01*
X0127359Y0512918D01*
X0127147Y0512661D01*
X0126942Y0512399D01*
X0126743Y0512132D01*
X0126550Y0511860D01*
X0126364Y0511584D01*
X0126185Y0511303D01*
X0126013Y0511018D01*
X0125848Y0510729D01*
X0125689Y0510436D01*
X0125538Y0510139D01*
X0125394Y0509839D01*
X0125258Y0509535D01*
X0125128Y0509228D01*
X0125006Y0508918D01*
X0124892Y0508606D01*
X0124785Y0508290D01*
X0124686Y0507972D01*
X0124595Y0507652D01*
X0124511Y0507330D01*
X0124436Y0507006D01*
X0124368Y0506680D01*
X0124308Y0506352D01*
X0124256Y0506023D01*
X0124211Y0505693D01*
X0124175Y0505362D01*
X0124147Y0505030D01*
X0124127Y0504698D01*
X0124115Y0504365D01*
X0124111Y0504032D01*
X0124111Y0275686D01*
X0124115Y0275353D01*
X0124127Y0275020D01*
X0124147Y0274688D01*
X0124175Y0274356D01*
X0124211Y0274025D01*
X0124256Y0273695D01*
X0124308Y0273366D01*
X0124368Y0273038D01*
X0124436Y0272712D01*
X0124511Y0272388D01*
X0124595Y0272066D01*
X0124686Y0271746D01*
X0124785Y0271428D01*
X0124892Y0271112D01*
X0125006Y0270800D01*
X0125128Y0270490D01*
X0125258Y0270183D01*
X0125394Y0269879D01*
X0125538Y0269579D01*
X0125689Y0269282D01*
X0125848Y0268989D01*
X0126013Y0268700D01*
X0126185Y0268415D01*
X0126364Y0268134D01*
X0126550Y0267858D01*
X0126743Y0267586D01*
X0126942Y0267319D01*
X0127147Y0267057D01*
X0127359Y0266800D01*
X0127577Y0266548D01*
X0127800Y0266302D01*
X0128030Y0266061D01*
X0128266Y0265825D01*
X0128507Y0265595D01*
X0128753Y0265372D01*
X0129005Y0265154D01*
X0129262Y0264942D01*
X0129524Y0264737D01*
X0129791Y0264538D01*
X0130063Y0264345D01*
X0130339Y0264159D01*
X0130620Y0263980D01*
X0130905Y0263808D01*
X0131194Y0263643D01*
X0131487Y0263484D01*
X0131784Y0263333D01*
X0132084Y0263189D01*
X0132388Y0263053D01*
X0132695Y0262923D01*
X0133005Y0262801D01*
X0133317Y0262687D01*
X0133633Y0262580D01*
X0133951Y0262481D01*
X0134271Y0262390D01*
X0134593Y0262306D01*
X0134917Y0262231D01*
X0135243Y0262163D01*
X0135571Y0262103D01*
X0135900Y0262051D01*
X0136230Y0262006D01*
X0136561Y0261970D01*
X0136893Y0261942D01*
X0137225Y0261922D01*
X0137558Y0261910D01*
X0137891Y0261906D01*
X0228442Y0261906D01*
X0228775Y0261910D01*
X0229108Y0261922D01*
X0229440Y0261942D01*
X0229772Y0261970D01*
X0230103Y0262006D01*
X0230433Y0262051D01*
X0230762Y0262103D01*
X0231090Y0262163D01*
X0231416Y0262231D01*
X0231740Y0262306D01*
X0232062Y0262390D01*
X0232382Y0262481D01*
X0232700Y0262580D01*
X0233016Y0262687D01*
X0233328Y0262801D01*
X0233638Y0262923D01*
X0233945Y0263053D01*
X0234249Y0263189D01*
X0234549Y0263333D01*
X0234846Y0263484D01*
X0235139Y0263643D01*
X0235428Y0263808D01*
X0235713Y0263980D01*
X0235994Y0264159D01*
X0236270Y0264345D01*
X0236542Y0264538D01*
X0236809Y0264737D01*
X0237071Y0264942D01*
X0237328Y0265154D01*
X0237580Y0265372D01*
X0237826Y0265595D01*
X0238067Y0265825D01*
X0238303Y0266061D01*
X0238533Y0266302D01*
X0238756Y0266548D01*
X0238974Y0266800D01*
X0239186Y0267057D01*
X0239391Y0267319D01*
X0239590Y0267586D01*
X0239783Y0267858D01*
X0239969Y0268134D01*
X0240148Y0268415D01*
X0240320Y0268700D01*
X0240485Y0268989D01*
X0240644Y0269282D01*
X0240795Y0269579D01*
X0240939Y0269879D01*
X0241075Y0270183D01*
X0241205Y0270490D01*
X0241327Y0270800D01*
X0241441Y0271112D01*
X0241548Y0271428D01*
X0241647Y0271746D01*
X0241738Y0272066D01*
X0241822Y0272388D01*
X0241897Y0272712D01*
X0241965Y0273038D01*
X0242025Y0273366D01*
X0242077Y0273695D01*
X0242122Y0274025D01*
X0242158Y0274356D01*
X0242186Y0274688D01*
X0242206Y0275020D01*
X0242218Y0275353D01*
X0242222Y0275686D01*
X0248222Y0000000D02*
G75*
%LPD*%
D94*
X0366332Y0013780D02*
X0366332Y0242126D01*
X0366333Y0242126D02*
X0366329Y0242459D01*
X0366317Y0242792D01*
X0366297Y0243124D01*
X0366269Y0243456D01*
X0366233Y0243787D01*
X0366188Y0244117D01*
X0366136Y0244446D01*
X0366076Y0244774D01*
X0366008Y0245100D01*
X0365933Y0245424D01*
X0365849Y0245746D01*
X0365758Y0246066D01*
X0365659Y0246384D01*
X0365552Y0246700D01*
X0365438Y0247012D01*
X0365316Y0247322D01*
X0365186Y0247629D01*
X0365050Y0247933D01*
X0364906Y0248233D01*
X0364755Y0248530D01*
X0364596Y0248823D01*
X0364431Y0249112D01*
X0364259Y0249397D01*
X0364080Y0249678D01*
X0363894Y0249954D01*
X0363701Y0250226D01*
X0363502Y0250493D01*
X0363297Y0250755D01*
X0363085Y0251012D01*
X0362867Y0251264D01*
X0362644Y0251510D01*
X0362414Y0251751D01*
X0362178Y0251987D01*
X0361937Y0252217D01*
X0361691Y0252440D01*
X0361439Y0252658D01*
X0361182Y0252870D01*
X0360920Y0253075D01*
X0360653Y0253274D01*
X0360381Y0253467D01*
X0360105Y0253653D01*
X0359824Y0253832D01*
X0359539Y0254004D01*
X0359250Y0254169D01*
X0358957Y0254328D01*
X0358660Y0254479D01*
X0358360Y0254623D01*
X0358056Y0254759D01*
X0357749Y0254889D01*
X0357439Y0255011D01*
X0357127Y0255125D01*
X0356811Y0255232D01*
X0356493Y0255331D01*
X0356173Y0255422D01*
X0355851Y0255506D01*
X0355527Y0255581D01*
X0355201Y0255649D01*
X0354873Y0255709D01*
X0354544Y0255761D01*
X0354214Y0255806D01*
X0353883Y0255842D01*
X0353551Y0255870D01*
X0353219Y0255890D01*
X0352886Y0255902D01*
X0352553Y0255906D01*
X0262002Y0255906D01*
X0261669Y0255902D01*
X0261336Y0255890D01*
X0261004Y0255870D01*
X0260672Y0255842D01*
X0260341Y0255806D01*
X0260011Y0255761D01*
X0259682Y0255709D01*
X0259354Y0255649D01*
X0259028Y0255581D01*
X0258704Y0255506D01*
X0258382Y0255422D01*
X0258062Y0255331D01*
X0257744Y0255232D01*
X0257428Y0255125D01*
X0257116Y0255011D01*
X0256806Y0254889D01*
X0256499Y0254759D01*
X0256195Y0254623D01*
X0255895Y0254479D01*
X0255598Y0254328D01*
X0255305Y0254169D01*
X0255016Y0254004D01*
X0254731Y0253832D01*
X0254450Y0253653D01*
X0254174Y0253467D01*
X0253902Y0253274D01*
X0253635Y0253075D01*
X0253373Y0252870D01*
X0253116Y0252658D01*
X0252864Y0252440D01*
X0252618Y0252217D01*
X0252377Y0251987D01*
X0252141Y0251751D01*
X0251911Y0251510D01*
X0251688Y0251264D01*
X0251470Y0251012D01*
X0251258Y0250755D01*
X0251053Y0250493D01*
X0250854Y0250226D01*
X0250661Y0249954D01*
X0250475Y0249678D01*
X0250296Y0249397D01*
X0250124Y0249112D01*
X0249959Y0248823D01*
X0249800Y0248530D01*
X0249649Y0248233D01*
X0249505Y0247933D01*
X0249369Y0247629D01*
X0249239Y0247322D01*
X0249117Y0247012D01*
X0249003Y0246700D01*
X0248896Y0246384D01*
X0248797Y0246066D01*
X0248706Y0245746D01*
X0248622Y0245424D01*
X0248547Y0245100D01*
X0248479Y0244774D01*
X0248419Y0244446D01*
X0248367Y0244117D01*
X0248322Y0243787D01*
X0248286Y0243456D01*
X0248258Y0243124D01*
X0248238Y0242792D01*
X0248226Y0242459D01*
X0248222Y0242126D01*
X0248222Y0013780D01*
X0248226Y0013447D01*
X0248238Y0013114D01*
X0248258Y0012782D01*
X0248286Y0012450D01*
X0248322Y0012119D01*
X0248367Y0011789D01*
X0248419Y0011460D01*
X0248479Y0011132D01*
X0248547Y0010806D01*
X0248622Y0010482D01*
X0248706Y0010160D01*
X0248797Y0009840D01*
X0248896Y0009522D01*
X0249003Y0009206D01*
X0249117Y0008894D01*
X0249239Y0008584D01*
X0249369Y0008277D01*
X0249505Y0007973D01*
X0249649Y0007673D01*
X0249800Y0007376D01*
X0249959Y0007083D01*
X0250124Y0006794D01*
X0250296Y0006509D01*
X0250475Y0006228D01*
X0250661Y0005952D01*
X0250854Y0005680D01*
X0251053Y0005413D01*
X0251258Y0005151D01*
X0251470Y0004894D01*
X0251688Y0004642D01*
X0251911Y0004396D01*
X0252141Y0004155D01*
X0252377Y0003919D01*
X0252618Y0003689D01*
X0252864Y0003466D01*
X0253116Y0003248D01*
X0253373Y0003036D01*
X0253635Y0002831D01*
X0253902Y0002632D01*
X0254174Y0002439D01*
X0254450Y0002253D01*
X0254731Y0002074D01*
X0255016Y0001902D01*
X0255305Y0001737D01*
X0255598Y0001578D01*
X0255895Y0001427D01*
X0256195Y0001283D01*
X0256499Y0001147D01*
X0256806Y0001017D01*
X0257116Y0000895D01*
X0257428Y0000781D01*
X0257744Y0000674D01*
X0258062Y0000575D01*
X0258382Y0000484D01*
X0258704Y0000400D01*
X0259028Y0000325D01*
X0259354Y0000257D01*
X0259682Y0000197D01*
X0260011Y0000145D01*
X0260341Y0000100D01*
X0260672Y0000064D01*
X0261004Y0000036D01*
X0261336Y0000016D01*
X0261669Y0000004D01*
X0262002Y0000000D01*
X0352553Y0000000D01*
X0352886Y0000004D01*
X0353219Y0000016D01*
X0353551Y0000036D01*
X0353883Y0000064D01*
X0354214Y0000100D01*
X0354544Y0000145D01*
X0354873Y0000197D01*
X0355201Y0000257D01*
X0355527Y0000325D01*
X0355851Y0000400D01*
X0356173Y0000484D01*
X0356493Y0000575D01*
X0356811Y0000674D01*
X0357127Y0000781D01*
X0357439Y0000895D01*
X0357749Y0001017D01*
X0358056Y0001147D01*
X0358360Y0001283D01*
X0358660Y0001427D01*
X0358957Y0001578D01*
X0359250Y0001737D01*
X0359539Y0001902D01*
X0359824Y0002074D01*
X0360105Y0002253D01*
X0360381Y0002439D01*
X0360653Y0002632D01*
X0360920Y0002831D01*
X0361182Y0003036D01*
X0361439Y0003248D01*
X0361691Y0003466D01*
X0361937Y0003689D01*
X0362178Y0003919D01*
X0362414Y0004155D01*
X0362644Y0004396D01*
X0362867Y0004642D01*
X0363085Y0004894D01*
X0363297Y0005151D01*
X0363502Y0005413D01*
X0363701Y0005680D01*
X0363894Y0005952D01*
X0364080Y0006228D01*
X0364259Y0006509D01*
X0364431Y0006794D01*
X0364596Y0007083D01*
X0364755Y0007376D01*
X0364906Y0007673D01*
X0365050Y0007973D01*
X0365186Y0008277D01*
X0365316Y0008584D01*
X0365438Y0008894D01*
X0365552Y0009206D01*
X0365659Y0009522D01*
X0365758Y0009840D01*
X0365849Y0010160D01*
X0365933Y0010482D01*
X0366008Y0010806D01*
X0366076Y0011132D01*
X0366136Y0011460D01*
X0366188Y0011789D01*
X0366233Y0012119D01*
X0366269Y0012450D01*
X0366297Y0012782D01*
X0366317Y0013114D01*
X0366329Y0013447D01*
X0366333Y0013780D01*
X0248222Y0261906D02*
G75*
%LPD*%
D94*
X0366332Y0275686D02*
X0366332Y0504032D01*
X0366333Y0504032D02*
X0366329Y0504365D01*
X0366317Y0504698D01*
X0366297Y0505030D01*
X0366269Y0505362D01*
X0366233Y0505693D01*
X0366188Y0506023D01*
X0366136Y0506352D01*
X0366076Y0506680D01*
X0366008Y0507006D01*
X0365933Y0507330D01*
X0365849Y0507652D01*
X0365758Y0507972D01*
X0365659Y0508290D01*
X0365552Y0508606D01*
X0365438Y0508918D01*
X0365316Y0509228D01*
X0365186Y0509535D01*
X0365050Y0509839D01*
X0364906Y0510139D01*
X0364755Y0510436D01*
X0364596Y0510729D01*
X0364431Y0511018D01*
X0364259Y0511303D01*
X0364080Y0511584D01*
X0363894Y0511860D01*
X0363701Y0512132D01*
X0363502Y0512399D01*
X0363297Y0512661D01*
X0363085Y0512918D01*
X0362867Y0513170D01*
X0362644Y0513416D01*
X0362414Y0513657D01*
X0362178Y0513893D01*
X0361937Y0514123D01*
X0361691Y0514346D01*
X0361439Y0514564D01*
X0361182Y0514776D01*
X0360920Y0514981D01*
X0360653Y0515180D01*
X0360381Y0515373D01*
X0360105Y0515559D01*
X0359824Y0515738D01*
X0359539Y0515910D01*
X0359250Y0516075D01*
X0358957Y0516234D01*
X0358660Y0516385D01*
X0358360Y0516529D01*
X0358056Y0516665D01*
X0357749Y0516795D01*
X0357439Y0516917D01*
X0357127Y0517031D01*
X0356811Y0517138D01*
X0356493Y0517237D01*
X0356173Y0517328D01*
X0355851Y0517412D01*
X0355527Y0517487D01*
X0355201Y0517555D01*
X0354873Y0517615D01*
X0354544Y0517667D01*
X0354214Y0517712D01*
X0353883Y0517748D01*
X0353551Y0517776D01*
X0353219Y0517796D01*
X0352886Y0517808D01*
X0352553Y0517812D01*
X0262002Y0517812D01*
X0261669Y0517808D01*
X0261336Y0517796D01*
X0261004Y0517776D01*
X0260672Y0517748D01*
X0260341Y0517712D01*
X0260011Y0517667D01*
X0259682Y0517615D01*
X0259354Y0517555D01*
X0259028Y0517487D01*
X0258704Y0517412D01*
X0258382Y0517328D01*
X0258062Y0517237D01*
X0257744Y0517138D01*
X0257428Y0517031D01*
X0257116Y0516917D01*
X0256806Y0516795D01*
X0256499Y0516665D01*
X0256195Y0516529D01*
X0255895Y0516385D01*
X0255598Y0516234D01*
X0255305Y0516075D01*
X0255016Y0515910D01*
X0254731Y0515738D01*
X0254450Y0515559D01*
X0254174Y0515373D01*
X0253902Y0515180D01*
X0253635Y0514981D01*
X0253373Y0514776D01*
X0253116Y0514564D01*
X0252864Y0514346D01*
X0252618Y0514123D01*
X0252377Y0513893D01*
X0252141Y0513657D01*
X0251911Y0513416D01*
X0251688Y0513170D01*
X0251470Y0512918D01*
X0251258Y0512661D01*
X0251053Y0512399D01*
X0250854Y0512132D01*
X0250661Y0511860D01*
X0250475Y0511584D01*
X0250296Y0511303D01*
X0250124Y0511018D01*
X0249959Y0510729D01*
X0249800Y0510436D01*
X0249649Y0510139D01*
X0249505Y0509839D01*
X0249369Y0509535D01*
X0249239Y0509228D01*
X0249117Y0508918D01*
X0249003Y0508606D01*
X0248896Y0508290D01*
X0248797Y0507972D01*
X0248706Y0507652D01*
X0248622Y0507330D01*
X0248547Y0507006D01*
X0248479Y0506680D01*
X0248419Y0506352D01*
X0248367Y0506023D01*
X0248322Y0505693D01*
X0248286Y0505362D01*
X0248258Y0505030D01*
X0248238Y0504698D01*
X0248226Y0504365D01*
X0248222Y0504032D01*
X0248222Y0275686D01*
X0248226Y0275353D01*
X0248238Y0275020D01*
X0248258Y0274688D01*
X0248286Y0274356D01*
X0248322Y0274025D01*
X0248367Y0273695D01*
X0248419Y0273366D01*
X0248479Y0273038D01*
X0248547Y0272712D01*
X0248622Y0272388D01*
X0248706Y0272066D01*
X0248797Y0271746D01*
X0248896Y0271428D01*
X0249003Y0271112D01*
X0249117Y0270800D01*
X0249239Y0270490D01*
X0249369Y0270183D01*
X0249505Y0269879D01*
X0249649Y0269579D01*
X0249800Y0269282D01*
X0249959Y0268989D01*
X0250124Y0268700D01*
X0250296Y0268415D01*
X0250475Y0268134D01*
X0250661Y0267858D01*
X0250854Y0267586D01*
X0251053Y0267319D01*
X0251258Y0267057D01*
X0251470Y0266800D01*
X0251688Y0266548D01*
X0251911Y0266302D01*
X0252141Y0266061D01*
X0252377Y0265825D01*
X0252618Y0265595D01*
X0252864Y0265372D01*
X0253116Y0265154D01*
X0253373Y0264942D01*
X0253635Y0264737D01*
X0253902Y0264538D01*
X0254174Y0264345D01*
X0254450Y0264159D01*
X0254731Y0263980D01*
X0255016Y0263808D01*
X0255305Y0263643D01*
X0255598Y0263484D01*
X0255895Y0263333D01*
X0256195Y0263189D01*
X0256499Y0263053D01*
X0256806Y0262923D01*
X0257116Y0262801D01*
X0257428Y0262687D01*
X0257744Y0262580D01*
X0258062Y0262481D01*
X0258382Y0262390D01*
X0258704Y0262306D01*
X0259028Y0262231D01*
X0259354Y0262163D01*
X0259682Y0262103D01*
X0260011Y0262051D01*
X0260341Y0262006D01*
X0260672Y0261970D01*
X0261004Y0261942D01*
X0261336Y0261922D01*
X0261669Y0261910D01*
X0262002Y0261906D01*
X0352553Y0261906D01*
X0352886Y0261910D01*
X0353219Y0261922D01*
X0353551Y0261942D01*
X0353883Y0261970D01*
X0354214Y0262006D01*
X0354544Y0262051D01*
X0354873Y0262103D01*
X0355201Y0262163D01*
X0355527Y0262231D01*
X0355851Y0262306D01*
X0356173Y0262390D01*
X0356493Y0262481D01*
X0356811Y0262580D01*
X0357127Y0262687D01*
X0357439Y0262801D01*
X0357749Y0262923D01*
X0358056Y0263053D01*
X0358360Y0263189D01*
X0358660Y0263333D01*
X0358957Y0263484D01*
X0359250Y0263643D01*
X0359539Y0263808D01*
X0359824Y0263980D01*
X0360105Y0264159D01*
X0360381Y0264345D01*
X0360653Y0264538D01*
X0360920Y0264737D01*
X0361182Y0264942D01*
X0361439Y0265154D01*
X0361691Y0265372D01*
X0361937Y0265595D01*
X0362178Y0265825D01*
X0362414Y0266061D01*
X0362644Y0266302D01*
X0362867Y0266548D01*
X0363085Y0266800D01*
X0363297Y0267057D01*
X0363502Y0267319D01*
X0363701Y0267586D01*
X0363894Y0267858D01*
X0364080Y0268134D01*
X0364259Y0268415D01*
X0364431Y0268700D01*
X0364596Y0268989D01*
X0364755Y0269282D01*
X0364906Y0269579D01*
X0365050Y0269879D01*
X0365186Y0270183D01*
X0365316Y0270490D01*
X0365438Y0270800D01*
X0365552Y0271112D01*
X0365659Y0271428D01*
X0365758Y0271746D01*
X0365849Y0272066D01*
X0365933Y0272388D01*
X0366008Y0272712D01*
X0366076Y0273038D01*
X0366136Y0273366D01*
X0366188Y0273695D01*
X0366233Y0274025D01*
X0366269Y0274356D01*
X0366297Y0274688D01*
X0366317Y0275020D01*
X0366329Y0275353D01*
X0366333Y0275686D01*
X0372333Y0000000D02*
G75*
%LPD*%
D94*
X0490443Y0013780D02*
X0490443Y0242126D01*
X0490444Y0242126D02*
X0490440Y0242459D01*
X0490428Y0242792D01*
X0490408Y0243124D01*
X0490380Y0243456D01*
X0490344Y0243787D01*
X0490299Y0244117D01*
X0490247Y0244446D01*
X0490187Y0244774D01*
X0490119Y0245100D01*
X0490044Y0245424D01*
X0489960Y0245746D01*
X0489869Y0246066D01*
X0489770Y0246384D01*
X0489663Y0246700D01*
X0489549Y0247012D01*
X0489427Y0247322D01*
X0489297Y0247629D01*
X0489161Y0247933D01*
X0489017Y0248233D01*
X0488866Y0248530D01*
X0488707Y0248823D01*
X0488542Y0249112D01*
X0488370Y0249397D01*
X0488191Y0249678D01*
X0488005Y0249954D01*
X0487812Y0250226D01*
X0487613Y0250493D01*
X0487408Y0250755D01*
X0487196Y0251012D01*
X0486978Y0251264D01*
X0486755Y0251510D01*
X0486525Y0251751D01*
X0486289Y0251987D01*
X0486048Y0252217D01*
X0485802Y0252440D01*
X0485550Y0252658D01*
X0485293Y0252870D01*
X0485031Y0253075D01*
X0484764Y0253274D01*
X0484492Y0253467D01*
X0484216Y0253653D01*
X0483935Y0253832D01*
X0483650Y0254004D01*
X0483361Y0254169D01*
X0483068Y0254328D01*
X0482771Y0254479D01*
X0482471Y0254623D01*
X0482167Y0254759D01*
X0481860Y0254889D01*
X0481550Y0255011D01*
X0481238Y0255125D01*
X0480922Y0255232D01*
X0480604Y0255331D01*
X0480284Y0255422D01*
X0479962Y0255506D01*
X0479638Y0255581D01*
X0479312Y0255649D01*
X0478984Y0255709D01*
X0478655Y0255761D01*
X0478325Y0255806D01*
X0477994Y0255842D01*
X0477662Y0255870D01*
X0477330Y0255890D01*
X0476997Y0255902D01*
X0476664Y0255906D01*
X0386113Y0255906D01*
X0385780Y0255902D01*
X0385447Y0255890D01*
X0385115Y0255870D01*
X0384783Y0255842D01*
X0384452Y0255806D01*
X0384122Y0255761D01*
X0383793Y0255709D01*
X0383465Y0255649D01*
X0383139Y0255581D01*
X0382815Y0255506D01*
X0382493Y0255422D01*
X0382173Y0255331D01*
X0381855Y0255232D01*
X0381539Y0255125D01*
X0381227Y0255011D01*
X0380917Y0254889D01*
X0380610Y0254759D01*
X0380306Y0254623D01*
X0380006Y0254479D01*
X0379709Y0254328D01*
X0379416Y0254169D01*
X0379127Y0254004D01*
X0378842Y0253832D01*
X0378561Y0253653D01*
X0378285Y0253467D01*
X0378013Y0253274D01*
X0377746Y0253075D01*
X0377484Y0252870D01*
X0377227Y0252658D01*
X0376975Y0252440D01*
X0376729Y0252217D01*
X0376488Y0251987D01*
X0376252Y0251751D01*
X0376022Y0251510D01*
X0375799Y0251264D01*
X0375581Y0251012D01*
X0375369Y0250755D01*
X0375164Y0250493D01*
X0374965Y0250226D01*
X0374772Y0249954D01*
X0374586Y0249678D01*
X0374407Y0249397D01*
X0374235Y0249112D01*
X0374070Y0248823D01*
X0373911Y0248530D01*
X0373760Y0248233D01*
X0373616Y0247933D01*
X0373480Y0247629D01*
X0373350Y0247322D01*
X0373228Y0247012D01*
X0373114Y0246700D01*
X0373007Y0246384D01*
X0372908Y0246066D01*
X0372817Y0245746D01*
X0372733Y0245424D01*
X0372658Y0245100D01*
X0372590Y0244774D01*
X0372530Y0244446D01*
X0372478Y0244117D01*
X0372433Y0243787D01*
X0372397Y0243456D01*
X0372369Y0243124D01*
X0372349Y0242792D01*
X0372337Y0242459D01*
X0372333Y0242126D01*
X0372333Y0013780D01*
X0372337Y0013447D01*
X0372349Y0013114D01*
X0372369Y0012782D01*
X0372397Y0012450D01*
X0372433Y0012119D01*
X0372478Y0011789D01*
X0372530Y0011460D01*
X0372590Y0011132D01*
X0372658Y0010806D01*
X0372733Y0010482D01*
X0372817Y0010160D01*
X0372908Y0009840D01*
X0373007Y0009522D01*
X0373114Y0009206D01*
X0373228Y0008894D01*
X0373350Y0008584D01*
X0373480Y0008277D01*
X0373616Y0007973D01*
X0373760Y0007673D01*
X0373911Y0007376D01*
X0374070Y0007083D01*
X0374235Y0006794D01*
X0374407Y0006509D01*
X0374586Y0006228D01*
X0374772Y0005952D01*
X0374965Y0005680D01*
X0375164Y0005413D01*
X0375369Y0005151D01*
X0375581Y0004894D01*
X0375799Y0004642D01*
X0376022Y0004396D01*
X0376252Y0004155D01*
X0376488Y0003919D01*
X0376729Y0003689D01*
X0376975Y0003466D01*
X0377227Y0003248D01*
X0377484Y0003036D01*
X0377746Y0002831D01*
X0378013Y0002632D01*
X0378285Y0002439D01*
X0378561Y0002253D01*
X0378842Y0002074D01*
X0379127Y0001902D01*
X0379416Y0001737D01*
X0379709Y0001578D01*
X0380006Y0001427D01*
X0380306Y0001283D01*
X0380610Y0001147D01*
X0380917Y0001017D01*
X0381227Y0000895D01*
X0381539Y0000781D01*
X0381855Y0000674D01*
X0382173Y0000575D01*
X0382493Y0000484D01*
X0382815Y0000400D01*
X0383139Y0000325D01*
X0383465Y0000257D01*
X0383793Y0000197D01*
X0384122Y0000145D01*
X0384452Y0000100D01*
X0384783Y0000064D01*
X0385115Y0000036D01*
X0385447Y0000016D01*
X0385780Y0000004D01*
X0386113Y0000000D01*
X0476664Y0000000D01*
X0476997Y0000004D01*
X0477330Y0000016D01*
X0477662Y0000036D01*
X0477994Y0000064D01*
X0478325Y0000100D01*
X0478655Y0000145D01*
X0478984Y0000197D01*
X0479312Y0000257D01*
X0479638Y0000325D01*
X0479962Y0000400D01*
X0480284Y0000484D01*
X0480604Y0000575D01*
X0480922Y0000674D01*
X0481238Y0000781D01*
X0481550Y0000895D01*
X0481860Y0001017D01*
X0482167Y0001147D01*
X0482471Y0001283D01*
X0482771Y0001427D01*
X0483068Y0001578D01*
X0483361Y0001737D01*
X0483650Y0001902D01*
X0483935Y0002074D01*
X0484216Y0002253D01*
X0484492Y0002439D01*
X0484764Y0002632D01*
X0485031Y0002831D01*
X0485293Y0003036D01*
X0485550Y0003248D01*
X0485802Y0003466D01*
X0486048Y0003689D01*
X0486289Y0003919D01*
X0486525Y0004155D01*
X0486755Y0004396D01*
X0486978Y0004642D01*
X0487196Y0004894D01*
X0487408Y0005151D01*
X0487613Y0005413D01*
X0487812Y0005680D01*
X0488005Y0005952D01*
X0488191Y0006228D01*
X0488370Y0006509D01*
X0488542Y0006794D01*
X0488707Y0007083D01*
X0488866Y0007376D01*
X0489017Y0007673D01*
X0489161Y0007973D01*
X0489297Y0008277D01*
X0489427Y0008584D01*
X0489549Y0008894D01*
X0489663Y0009206D01*
X0489770Y0009522D01*
X0489869Y0009840D01*
X0489960Y0010160D01*
X0490044Y0010482D01*
X0490119Y0010806D01*
X0490187Y0011132D01*
X0490247Y0011460D01*
X0490299Y0011789D01*
X0490344Y0012119D01*
X0490380Y0012450D01*
X0490408Y0012782D01*
X0490428Y0013114D01*
X0490440Y0013447D01*
X0490444Y0013780D01*
X0372333Y0261906D02*
G75*
%LPD*%
D94*
X0490443Y0275686D02*
X0490443Y0504032D01*
X0490444Y0504032D02*
X0490440Y0504365D01*
X0490428Y0504698D01*
X0490408Y0505030D01*
X0490380Y0505362D01*
X0490344Y0505693D01*
X0490299Y0506023D01*
X0490247Y0506352D01*
X0490187Y0506680D01*
X0490119Y0507006D01*
X0490044Y0507330D01*
X0489960Y0507652D01*
X0489869Y0507972D01*
X0489770Y0508290D01*
X0489663Y0508606D01*
X0489549Y0508918D01*
X0489427Y0509228D01*
X0489297Y0509535D01*
X0489161Y0509839D01*
X0489017Y0510139D01*
X0488866Y0510436D01*
X0488707Y0510729D01*
X0488542Y0511018D01*
X0488370Y0511303D01*
X0488191Y0511584D01*
X0488005Y0511860D01*
X0487812Y0512132D01*
X0487613Y0512399D01*
X0487408Y0512661D01*
X0487196Y0512918D01*
X0486978Y0513170D01*
X0486755Y0513416D01*
X0486525Y0513657D01*
X0486289Y0513893D01*
X0486048Y0514123D01*
X0485802Y0514346D01*
X0485550Y0514564D01*
X0485293Y0514776D01*
X0485031Y0514981D01*
X0484764Y0515180D01*
X0484492Y0515373D01*
X0484216Y0515559D01*
X0483935Y0515738D01*
X0483650Y0515910D01*
X0483361Y0516075D01*
X0483068Y0516234D01*
X0482771Y0516385D01*
X0482471Y0516529D01*
X0482167Y0516665D01*
X0481860Y0516795D01*
X0481550Y0516917D01*
X0481238Y0517031D01*
X0480922Y0517138D01*
X0480604Y0517237D01*
X0480284Y0517328D01*
X0479962Y0517412D01*
X0479638Y0517487D01*
X0479312Y0517555D01*
X0478984Y0517615D01*
X0478655Y0517667D01*
X0478325Y0517712D01*
X0477994Y0517748D01*
X0477662Y0517776D01*
X0477330Y0517796D01*
X0476997Y0517808D01*
X0476664Y0517812D01*
X0386113Y0517812D01*
X0385780Y0517808D01*
X0385447Y0517796D01*
X0385115Y0517776D01*
X0384783Y0517748D01*
X0384452Y0517712D01*
X0384122Y0517667D01*
X0383793Y0517615D01*
X0383465Y0517555D01*
X0383139Y0517487D01*
X0382815Y0517412D01*
X0382493Y0517328D01*
X0382173Y0517237D01*
X0381855Y0517138D01*
X0381539Y0517031D01*
X0381227Y0516917D01*
X0380917Y0516795D01*
X0380610Y0516665D01*
X0380306Y0516529D01*
X0380006Y0516385D01*
X0379709Y0516234D01*
X0379416Y0516075D01*
X0379127Y0515910D01*
X0378842Y0515738D01*
X0378561Y0515559D01*
X0378285Y0515373D01*
X0378013Y0515180D01*
X0377746Y0514981D01*
X0377484Y0514776D01*
X0377227Y0514564D01*
X0376975Y0514346D01*
X0376729Y0514123D01*
X0376488Y0513893D01*
X0376252Y0513657D01*
X0376022Y0513416D01*
X0375799Y0513170D01*
X0375581Y0512918D01*
X0375369Y0512661D01*
X0375164Y0512399D01*
X0374965Y0512132D01*
X0374772Y0511860D01*
X0374586Y0511584D01*
X0374407Y0511303D01*
X0374235Y0511018D01*
X0374070Y0510729D01*
X0373911Y0510436D01*
X0373760Y0510139D01*
X0373616Y0509839D01*
X0373480Y0509535D01*
X0373350Y0509228D01*
X0373228Y0508918D01*
X0373114Y0508606D01*
X0373007Y0508290D01*
X0372908Y0507972D01*
X0372817Y0507652D01*
X0372733Y0507330D01*
X0372658Y0507006D01*
X0372590Y0506680D01*
X0372530Y0506352D01*
X0372478Y0506023D01*
X0372433Y0505693D01*
X0372397Y0505362D01*
X0372369Y0505030D01*
X0372349Y0504698D01*
X0372337Y0504365D01*
X0372333Y0504032D01*
X0372333Y0275686D01*
X0372337Y0275353D01*
X0372349Y0275020D01*
X0372369Y0274688D01*
X0372397Y0274356D01*
X0372433Y0274025D01*
X0372478Y0273695D01*
X0372530Y0273366D01*
X0372590Y0273038D01*
X0372658Y0272712D01*
X0372733Y0272388D01*
X0372817Y0272066D01*
X0372908Y0271746D01*
X0373007Y0271428D01*
X0373114Y0271112D01*
X0373228Y0270800D01*
X0373350Y0270490D01*
X0373480Y0270183D01*
X0373616Y0269879D01*
X0373760Y0269579D01*
X0373911Y0269282D01*
X0374070Y0268989D01*
X0374235Y0268700D01*
X0374407Y0268415D01*
X0374586Y0268134D01*
X0374772Y0267858D01*
X0374965Y0267586D01*
X0375164Y0267319D01*
X0375369Y0267057D01*
X0375581Y0266800D01*
X0375799Y0266548D01*
X0376022Y0266302D01*
X0376252Y0266061D01*
X0376488Y0265825D01*
X0376729Y0265595D01*
X0376975Y0265372D01*
X0377227Y0265154D01*
X0377484Y0264942D01*
X0377746Y0264737D01*
X0378013Y0264538D01*
X0378285Y0264345D01*
X0378561Y0264159D01*
X0378842Y0263980D01*
X0379127Y0263808D01*
X0379416Y0263643D01*
X0379709Y0263484D01*
X0380006Y0263333D01*
X0380306Y0263189D01*
X0380610Y0263053D01*
X0380917Y0262923D01*
X0381227Y0262801D01*
X0381539Y0262687D01*
X0381855Y0262580D01*
X0382173Y0262481D01*
X0382493Y0262390D01*
X0382815Y0262306D01*
X0383139Y0262231D01*
X0383465Y0262163D01*
X0383793Y0262103D01*
X0384122Y0262051D01*
X0384452Y0262006D01*
X0384783Y0261970D01*
X0385115Y0261942D01*
X0385447Y0261922D01*
X0385780Y0261910D01*
X0386113Y0261906D01*
X0476664Y0261906D01*
X0476997Y0261910D01*
X0477330Y0261922D01*
X0477662Y0261942D01*
X0477994Y0261970D01*
X0478325Y0262006D01*
X0478655Y0262051D01*
X0478984Y0262103D01*
X0479312Y0262163D01*
X0479638Y0262231D01*
X0479962Y0262306D01*
X0480284Y0262390D01*
X0480604Y0262481D01*
X0480922Y0262580D01*
X0481238Y0262687D01*
X0481550Y0262801D01*
X0481860Y0262923D01*
X0482167Y0263053D01*
X0482471Y0263189D01*
X0482771Y0263333D01*
X0483068Y0263484D01*
X0483361Y0263643D01*
X0483650Y0263808D01*
X0483935Y0263980D01*
X0484216Y0264159D01*
X0484492Y0264345D01*
X0484764Y0264538D01*
X0485031Y0264737D01*
X0485293Y0264942D01*
X0485550Y0265154D01*
X0485802Y0265372D01*
X0486048Y0265595D01*
X0486289Y0265825D01*
X0486525Y0266061D01*
X0486755Y0266302D01*
X0486978Y0266548D01*
X0487196Y0266800D01*
X0487408Y0267057D01*
X0487613Y0267319D01*
X0487812Y0267586D01*
X0488005Y0267858D01*
X0488191Y0268134D01*
X0488370Y0268415D01*
X0488542Y0268700D01*
X0488707Y0268989D01*
X0488866Y0269282D01*
X0489017Y0269579D01*
X0489161Y0269879D01*
X0489297Y0270183D01*
X0489427Y0270490D01*
X0489549Y0270800D01*
X0489663Y0271112D01*
X0489770Y0271428D01*
X0489869Y0271746D01*
X0489960Y0272066D01*
X0490044Y0272388D01*
X0490119Y0272712D01*
X0490187Y0273038D01*
X0490247Y0273366D01*
X0490299Y0273695D01*
X0490344Y0274025D01*
X0490380Y0274356D01*
X0490408Y0274688D01*
X0490428Y0275020D01*
X0490440Y0275353D01*
X0490444Y0275686D01*
X0496444Y0000000D02*
G75*
%LPD*%
D94*
X0496444Y0000000D02*
X0496444Y0114173D01*
X0579121Y0114173D01*
X0579121Y0000000D01*
X0496444Y0000000D01*
X0496444Y0120173D02*
G75*
%LPD*%
D94*
X0496444Y0120173D02*
X0496444Y0234346D01*
X0579121Y0234346D01*
X0579121Y0120173D01*
X0496444Y0120173D01*
X0496444Y0240346D02*
G75*
%LPD*%
D94*
X0496444Y0240346D02*
X0496444Y0354519D01*
X0579121Y0354519D01*
X0579121Y0240346D01*
X0496444Y0240346D01*
X0496444Y0360519D02*
G75*
%LPD*%
D94*
X0496444Y0360519D02*
X0496444Y0474692D01*
X0579121Y0474692D01*
X0579121Y0360519D01*
X0496444Y0360519D01*
M02*
