G75*
G70*
%OFA0B0*%
%FSLAX25Y25*%
%IPPOS*%
%LPD*%
%AMOC8*
5,1,8,0,0,1.08239X$1,22.5*
%
%ADD103R,0.07874X0.02362*%
%ADD106C,0.07400*%
%ADD120R,0.16535X0.02756*%
%ADD135C,0.06816*%
%ADD136C,0.01600*%
%ADD148C,0.02362*%
%ADD182C,0.05906*%
%ADD224R,0.06737X0.06737*%
%ADD232C,0.07874*%
%ADD237C,0.07091*%
%ADD252R,0.03543X0.03937*%
%ADD268C,0.01500*%
%ADD274R,0.01772X0.01083*%
%ADD317C,0.01000*%
%ADD382R,0.01083X0.01772*%
%ADD388R,0.03937X0.03543*%
%ADD392C,0.00800*%
%ADD417C,0.06737*%
%ADD43C,0.03500*%
%ADD451C,0.07524*%
%ADD454R,0.01575X0.05315*%
%ADD801R,0.02362X0.04134*%
%ADD94C,0.00600*%
X0000000Y0000000D02*
G75*
%LPD*%
D454*
X0047146Y0168307D03*
X0044587Y0168307D03*
X0042028Y0168307D03*
X0039469Y0168307D03*
X0039469Y0185236D03*
X0042028Y0185236D03*
X0044587Y0185236D03*
X0047146Y0185236D03*
D237*
X0014176Y0165906D02*
X0007085Y0165906D01*
X0007085Y0155906D02*
X0014176Y0155906D01*
X0014176Y0145906D02*
X0007085Y0145906D01*
X0026455Y0122480D02*
X0033546Y0122480D01*
X0033546Y0112480D02*
X0026455Y0112480D01*
X0026455Y0102480D02*
X0033546Y0102480D01*
X0033546Y0092480D02*
X0026455Y0092480D01*
X0057872Y0080591D02*
X0064963Y0080591D01*
X0064963Y0070591D02*
X0057872Y0070591D01*
X0071378Y0054412D02*
X0071378Y0047320D01*
X0081378Y0047320D02*
X0081378Y0054412D01*
X0084565Y0093031D02*
X0091656Y0093031D01*
X0091656Y0103031D02*
X0084565Y0103031D01*
D388*
X0073819Y0118110D03*
X0067126Y0118110D03*
X0060433Y0092520D03*
X0053740Y0092520D03*
X0039961Y0081496D03*
X0033268Y0081496D03*
X0034449Y0055906D03*
X0034449Y0047638D03*
X0027756Y0047638D03*
X0027756Y0055906D03*
X0027756Y0035433D03*
X0034449Y0035433D03*
X0043701Y0021063D03*
X0050394Y0021063D03*
X0047441Y0120866D03*
X0040748Y0120866D03*
X0028544Y0139764D03*
X0021851Y0139764D03*
X0025788Y0163386D03*
X0025788Y0169291D03*
X0032481Y0169291D03*
X0032481Y0163386D03*
D801*
X0030118Y0021063D03*
X0037599Y0021063D03*
X0037599Y0010433D03*
X0033859Y0010433D03*
X0030118Y0010433D03*
D417*
X0018780Y0042953D03*
X0018780Y0052953D03*
X0018780Y0062953D03*
X0018780Y0072953D03*
X0008780Y0072953D03*
X0008780Y0062953D03*
X0008780Y0052953D03*
X0008780Y0042953D03*
X0008780Y0032953D03*
X0018780Y0212953D03*
X0018780Y0222953D03*
X0028780Y0222953D03*
X0028780Y0212953D03*
X0008780Y0222953D03*
D224*
X0008780Y0212953D03*
X0018780Y0032953D03*
D274*
X0053248Y0125413D03*
X0053248Y0127106D03*
X0053248Y0128799D03*
X0053248Y0130492D03*
X0064862Y0130492D03*
X0064862Y0128799D03*
X0064862Y0127106D03*
X0064862Y0125413D03*
D382*
X0064981Y0123130D03*
X0063288Y0123130D03*
X0061595Y0123130D03*
X0059902Y0123130D03*
X0058209Y0123130D03*
X0056516Y0123130D03*
X0054823Y0123130D03*
X0053130Y0123130D03*
X0053130Y0132776D03*
X0054823Y0132776D03*
X0056516Y0132776D03*
X0058209Y0132776D03*
X0059902Y0132776D03*
X0061595Y0132776D03*
X0063288Y0132776D03*
X0064981Y0132776D03*
D252*
X0055512Y0145472D03*
X0055512Y0152165D03*
X0048819Y0152165D03*
X0048819Y0145472D03*
X0051181Y0112795D03*
X0051181Y0106102D03*
X0056693Y0106102D03*
X0056693Y0112795D03*
X0062205Y0112795D03*
X0062205Y0106102D03*
X0031890Y0071850D03*
X0031890Y0065157D03*
X0043504Y0037992D03*
X0043504Y0031299D03*
D182*
X0075985Y0129528D03*
X0071260Y0137795D03*
X0075985Y0144488D03*
X0068898Y0148031D03*
X0062205Y0150787D03*
X0029961Y0246890D03*
D106*
X0063189Y0249409D03*
X0063189Y0231693D03*
X0088780Y0231693D03*
X0088780Y0249409D03*
D451*
X0112343Y0031102D03*
X0112343Y0057087D03*
D232*
X0025985Y0200394D03*
X0009843Y0201181D03*
X0009843Y0188976D03*
X0009646Y0176181D03*
X0052362Y0204331D03*
D135*
X0101024Y0174567D03*
X0101024Y0164567D03*
X0111024Y0164567D03*
X0111024Y0174567D03*
X0085040Y0125591D03*
X0080709Y0118110D03*
X0071260Y0098425D03*
X0092126Y0056693D03*
X0023229Y0015748D03*
D43*
X0029528Y0026969D03*
X0031496Y0030118D03*
X0027559Y0030118D03*
X0033859Y0015748D03*
X0037796Y0005118D03*
X0054725Y0029528D03*
X0058268Y0029528D03*
X0058268Y0022441D03*
X0058268Y0014173D03*
X0066536Y0032283D03*
X0058268Y0045669D03*
X0054725Y0045669D03*
X0069292Y0066535D03*
X0072441Y0064961D03*
X0072441Y0068504D03*
X0072047Y0075591D03*
X0072047Y0080315D03*
X0072047Y0085039D03*
X0075197Y0089370D03*
X0077953Y0085039D03*
X0082677Y0074803D03*
X0091339Y0067323D03*
X0092914Y0064173D03*
X0095276Y0066929D03*
X0092126Y0074409D03*
X0105118Y0065354D03*
X0112205Y0078346D03*
X0095670Y0042520D03*
X0095670Y0038976D03*
X0095670Y0035433D03*
X0087008Y0017323D03*
X0079922Y0013386D03*
X0073229Y0011024D03*
X0025591Y0068110D03*
X0040945Y0097244D03*
X0046851Y0116142D03*
X0043701Y0128740D03*
X0037796Y0134252D03*
X0033465Y0139764D03*
X0031496Y0149213D03*
X0037796Y0155906D03*
X0039370Y0161811D03*
X0043701Y0160236D03*
X0051181Y0157480D03*
X0059055Y0159055D03*
X0064961Y0158661D03*
X0055118Y0139370D03*
X0059055Y0127953D03*
X0068504Y0128346D03*
X0068504Y0124803D03*
X0067717Y0112205D03*
X0060630Y0099606D03*
X0041339Y0139370D03*
X0040158Y0146457D03*
X0020866Y0150787D03*
X0020473Y0171260D03*
X0024016Y0180709D03*
X0031103Y0175984D03*
X0031103Y0194094D03*
X0042914Y0213780D03*
X0050394Y0229134D03*
X0060236Y0238976D03*
X0056693Y0246063D03*
X0073229Y0222047D03*
X0079134Y0221260D03*
X0064961Y0200394D03*
X0057481Y0194882D03*
X0050394Y0195276D03*
X0053544Y0179921D03*
X0061811Y0211417D03*
X0074016Y0190748D03*
X0081496Y0180709D03*
X0081496Y0172835D03*
X0088189Y0179528D03*
X0088189Y0187402D03*
X0081103Y0153937D03*
X0081496Y0146457D03*
X0088977Y0131496D03*
X0100788Y0138583D03*
X0103544Y0129528D03*
X0113780Y0136220D03*
X0113780Y0121260D03*
X0113780Y0151969D03*
X0113780Y0187008D03*
X0112599Y0201575D03*
X0106299Y0225197D03*
X0098032Y0221260D03*
X0076772Y0251181D03*
X0037796Y0246457D03*
X0036614Y0238583D03*
X0025591Y0251181D03*
X0004725Y0230315D03*
X0004331Y0126772D03*
X0004331Y0111811D03*
X0004331Y0102756D03*
X0004331Y0093701D03*
X0004331Y0084646D03*
D392*
X0038189Y0133858D02*
X0037796Y0134252D01*
X0038189Y0133858D02*
X0038189Y0129921D01*
X0042697Y0125413D01*
X0053248Y0125413D01*
X0053248Y0127106D02*
X0045335Y0127106D01*
X0043701Y0128740D01*
X0046457Y0130709D02*
X0048366Y0128799D01*
X0053248Y0128799D01*
X0053248Y0130492D02*
X0051398Y0130492D01*
X0048819Y0133071D01*
X0048819Y0145472D01*
X0052362Y0144882D02*
X0052362Y0142323D01*
X0051181Y0141142D01*
X0051181Y0134646D01*
X0053051Y0132776D01*
X0053130Y0132776D01*
X0054823Y0132776D02*
X0054823Y0139075D01*
X0055118Y0139370D01*
X0056516Y0137972D01*
X0056516Y0132776D01*
X0058209Y0132776D02*
X0058209Y0142854D01*
X0062205Y0146850D01*
X0062205Y0150787D01*
X0063780Y0145669D02*
X0065355Y0145669D01*
X0067717Y0148031D01*
X0068898Y0148031D01*
X0073622Y0144488D02*
X0072047Y0142913D01*
X0064567Y0142913D01*
X0061595Y0139941D01*
X0061595Y0132776D01*
X0063288Y0132776D02*
X0063288Y0134154D01*
X0066929Y0137795D01*
X0071260Y0137795D01*
X0072736Y0132776D02*
X0064981Y0132776D01*
X0064862Y0130492D02*
X0066359Y0130492D01*
X0068504Y0128346D01*
X0067264Y0127106D01*
X0064862Y0127106D01*
X0064862Y0125413D02*
X0067894Y0125413D01*
X0068504Y0124803D01*
X0066831Y0123130D01*
X0064981Y0123130D01*
X0063288Y0123130D01*
X0061595Y0123130D01*
X0059922Y0123110D02*
X0059902Y0123130D01*
X0059922Y0123071D01*
X0059922Y0123110D02*
X0059922Y0120827D01*
X0062599Y0118110D01*
X0067126Y0118110D01*
X0068504Y0128346D02*
X0068051Y0128799D01*
X0064862Y0128799D01*
X0059902Y0132776D02*
X0059902Y0141791D01*
X0063780Y0145669D01*
X0055512Y0145472D02*
X0055315Y0145276D01*
X0052756Y0145276D01*
X0052362Y0144882D01*
X0046457Y0140157D02*
X0046457Y0130709D01*
X0047441Y0120866D02*
X0050866Y0120866D01*
X0053130Y0123130D01*
X0054823Y0123130D02*
X0054823Y0119193D01*
X0051181Y0115551D01*
X0051181Y0112795D01*
X0056516Y0112972D02*
X0056693Y0112795D01*
X0056516Y0112972D02*
X0056516Y0123130D01*
X0056516Y0120866D01*
X0057874Y0120866D01*
X0058268Y0121260D01*
X0058268Y0123071D01*
X0058209Y0123130D01*
X0058229Y0123110D01*
X0047441Y0120866D02*
X0047441Y0116732D01*
X0046851Y0116142D01*
X0046457Y0140157D02*
X0040158Y0146457D01*
X0073622Y0144488D02*
X0075985Y0144488D01*
X0075985Y0142913D01*
X0072736Y0132776D02*
X0075985Y0129528D01*
X0028780Y0245709D02*
X0029961Y0246890D01*
D94*
X0072835Y0092520D02*
X0076772Y0092520D01*
X0084252Y0085039D01*
X0084252Y0083858D01*
X0086614Y0081496D01*
X0086614Y0064173D01*
X0085040Y0062598D01*
X0079528Y0062598D01*
X0077559Y0064567D01*
X0077559Y0071260D01*
X0075591Y0073228D01*
X0071260Y0073228D01*
X0070079Y0074409D01*
X0070079Y0089764D01*
X0072835Y0092520D01*
X0072624Y0092308D02*
X0072624Y0073228D01*
X0073222Y0073228D02*
X0073222Y0092520D01*
X0073821Y0092520D02*
X0073821Y0073228D01*
X0074419Y0073228D02*
X0074419Y0092520D01*
X0075018Y0092520D02*
X0075018Y0073228D01*
X0075616Y0073203D02*
X0075616Y0092520D01*
X0076215Y0092520D02*
X0076215Y0072604D01*
X0076813Y0072006D02*
X0076813Y0092478D01*
X0077412Y0091880D02*
X0077412Y0071407D01*
X0075197Y0069291D02*
X0075197Y0064173D01*
X0074410Y0063386D01*
X0074410Y0054331D01*
X0070473Y0054331D01*
X0059843Y0064961D01*
X0059843Y0070472D01*
X0060236Y0070866D01*
X0073622Y0070866D01*
X0075197Y0069291D01*
X0075018Y0069471D02*
X0075018Y0063994D01*
X0074419Y0063395D02*
X0074419Y0070069D01*
X0073821Y0070668D02*
X0073821Y0054331D01*
X0073222Y0054331D02*
X0073222Y0070866D01*
X0072624Y0070866D02*
X0072624Y0054331D01*
X0072025Y0054331D02*
X0072025Y0070866D01*
X0071427Y0070866D02*
X0071427Y0054331D01*
X0070828Y0054331D02*
X0070828Y0070866D01*
X0070230Y0070866D02*
X0070230Y0054574D01*
X0069631Y0055172D02*
X0069631Y0070866D01*
X0069033Y0070866D02*
X0069033Y0055771D01*
X0068434Y0056369D02*
X0068434Y0070866D01*
X0067836Y0070866D02*
X0067836Y0056968D01*
X0067237Y0057566D02*
X0067237Y0070866D01*
X0066639Y0070866D02*
X0066639Y0058165D01*
X0066040Y0058763D02*
X0066040Y0070866D01*
X0065441Y0070866D02*
X0065441Y0059362D01*
X0064843Y0059960D02*
X0064843Y0070866D01*
X0064244Y0070866D02*
X0064244Y0060559D01*
X0063646Y0061157D02*
X0063646Y0070866D01*
X0063047Y0070866D02*
X0063047Y0061756D01*
X0062449Y0062354D02*
X0062449Y0070866D01*
X0061850Y0070866D02*
X0061850Y0062953D01*
X0061252Y0063551D02*
X0061252Y0070866D01*
X0060653Y0070866D02*
X0060653Y0064150D01*
X0060055Y0064749D02*
X0060055Y0070685D01*
X0055906Y0059843D02*
X0053937Y0059843D01*
X0047638Y0066142D01*
X0041339Y0066142D01*
X0038583Y0063386D01*
X0038583Y0060236D01*
X0044095Y0054724D01*
X0044095Y0046850D01*
X0048032Y0043307D01*
X0048032Y0024075D01*
X0048254Y0024135D01*
X0050094Y0024135D01*
X0050094Y0021363D01*
X0050694Y0021363D01*
X0053662Y0021363D01*
X0053662Y0023006D01*
X0053574Y0023336D01*
X0053403Y0023633D01*
X0053161Y0023875D01*
X0052864Y0024046D01*
X0052534Y0024135D01*
X0050694Y0024135D01*
X0050694Y0021363D01*
X0050694Y0020763D01*
X0053662Y0020763D01*
X0053662Y0019120D01*
X0053574Y0018790D01*
X0053403Y0018493D01*
X0053161Y0018251D01*
X0052864Y0018080D01*
X0052534Y0017991D01*
X0050694Y0017991D01*
X0050694Y0020763D01*
X0050094Y0020763D01*
X0050094Y0017991D01*
X0048254Y0017991D01*
X0048032Y0018051D01*
X0048032Y0011024D01*
X0050394Y0008661D01*
X0061418Y0008661D01*
X0064173Y0011417D01*
X0064173Y0029528D01*
X0062205Y0031496D01*
X0062205Y0036220D01*
X0061024Y0037402D01*
X0061024Y0054724D01*
X0055906Y0059843D01*
X0055865Y0059843D02*
X0055865Y0008661D01*
X0055267Y0008661D02*
X0055267Y0059843D01*
X0054668Y0059843D02*
X0054668Y0008661D01*
X0054070Y0008661D02*
X0054070Y0059843D01*
X0053471Y0060309D02*
X0053471Y0023514D01*
X0052873Y0024041D02*
X0052873Y0060907D01*
X0052274Y0061506D02*
X0052274Y0024135D01*
X0051676Y0024135D02*
X0051676Y0062104D01*
X0051077Y0062703D02*
X0051077Y0024135D01*
X0049880Y0024135D02*
X0049880Y0063900D01*
X0049282Y0064498D02*
X0049282Y0024135D01*
X0048683Y0024135D02*
X0048683Y0065097D01*
X0048085Y0065695D02*
X0048085Y0024089D01*
X0050479Y0021363D02*
X0050479Y0063301D01*
X0047486Y0066142D02*
X0047486Y0043798D01*
X0046888Y0044337D02*
X0046888Y0066142D01*
X0046289Y0066142D02*
X0046289Y0044875D01*
X0045691Y0045414D02*
X0045691Y0066142D01*
X0045092Y0066142D02*
X0045092Y0045953D01*
X0044494Y0046491D02*
X0044494Y0066142D01*
X0043895Y0066142D02*
X0043895Y0054924D01*
X0043297Y0055523D02*
X0043297Y0066142D01*
X0042698Y0066142D02*
X0042698Y0056121D01*
X0042100Y0056720D02*
X0042100Y0066142D01*
X0041501Y0066142D02*
X0041501Y0057318D01*
X0040903Y0057917D02*
X0040903Y0065705D01*
X0040304Y0065107D02*
X0040304Y0058515D01*
X0039706Y0059114D02*
X0039706Y0064508D01*
X0039107Y0063910D02*
X0039107Y0059712D01*
X0056464Y0059284D02*
X0056464Y0008661D01*
X0057062Y0008661D02*
X0057062Y0058686D01*
X0057661Y0058087D02*
X0057661Y0008661D01*
X0058259Y0008661D02*
X0058259Y0057489D01*
X0058858Y0056890D02*
X0058858Y0008661D01*
X0059456Y0008661D02*
X0059456Y0056292D01*
X0060055Y0055693D02*
X0060055Y0008661D01*
X0060653Y0008661D02*
X0060653Y0055095D01*
X0061252Y0037174D02*
X0061252Y0008661D01*
X0061850Y0009094D02*
X0061850Y0036575D01*
X0062449Y0031252D02*
X0062449Y0009693D01*
X0063047Y0010291D02*
X0063047Y0030654D01*
X0063646Y0030055D02*
X0063646Y0010890D01*
X0066536Y0006299D02*
X0066536Y0005906D01*
X0053471Y0008661D02*
X0053471Y0018612D01*
X0052873Y0018085D02*
X0052873Y0008661D01*
X0052274Y0008661D02*
X0052274Y0017991D01*
X0051676Y0017991D02*
X0051676Y0008661D01*
X0051077Y0008661D02*
X0051077Y0017991D01*
X0049880Y0017991D02*
X0049880Y0009175D01*
X0050479Y0008661D02*
X0050479Y0020763D01*
X0051077Y0020763D02*
X0051077Y0021363D01*
X0051676Y0021363D02*
X0051676Y0020763D01*
X0052274Y0020763D02*
X0052274Y0021363D01*
X0052873Y0021363D02*
X0052873Y0020763D01*
X0053471Y0020763D02*
X0053471Y0021363D01*
X0049282Y0017991D02*
X0049282Y0009774D01*
X0048683Y0010372D02*
X0048683Y0017991D01*
X0048085Y0018037D02*
X0048085Y0010971D01*
X0079207Y0062919D02*
X0079207Y0090084D01*
X0079806Y0089486D02*
X0079806Y0062598D01*
X0080404Y0062598D02*
X0080404Y0088887D01*
X0081003Y0088289D02*
X0081003Y0062598D01*
X0081601Y0062598D02*
X0081601Y0087690D01*
X0082200Y0087092D02*
X0082200Y0062598D01*
X0082798Y0062598D02*
X0082798Y0086493D01*
X0083397Y0085895D02*
X0083397Y0062598D01*
X0083995Y0062598D02*
X0083995Y0085296D01*
X0084594Y0083517D02*
X0084594Y0062598D01*
X0085192Y0062751D02*
X0085192Y0082918D01*
X0085791Y0082320D02*
X0085791Y0063350D01*
X0086389Y0063948D02*
X0086389Y0081721D01*
X0078609Y0090683D02*
X0078609Y0063517D01*
X0078010Y0064116D02*
X0078010Y0091281D01*
X0072025Y0091710D02*
X0072025Y0073228D01*
X0071427Y0073228D02*
X0071427Y0091111D01*
X0070828Y0090513D02*
X0070828Y0073660D01*
X0070230Y0074259D02*
X0070230Y0089914D01*
D317*
X0064961Y0094094D02*
X0064961Y0100000D01*
X0075985Y0111024D01*
X0085040Y0111024D01*
X0093701Y0119685D01*
X0093701Y0128346D01*
X0094095Y0157087D01*
X0094095Y0194488D01*
X0088189Y0200394D01*
X0064961Y0200394D01*
X0052362Y0197244D02*
X0050394Y0195276D01*
X0052362Y0197244D02*
X0052362Y0204331D01*
X0047244Y0195276D02*
X0042126Y0200394D01*
X0025985Y0200394D01*
X0020866Y0190157D02*
X0033071Y0190157D01*
X0038189Y0195276D01*
X0042914Y0195276D01*
X0044587Y0193602D01*
X0044587Y0185236D01*
X0047146Y0185236D02*
X0047244Y0185335D01*
X0047244Y0195276D01*
X0042126Y0190551D02*
X0042126Y0185335D01*
X0042028Y0185236D01*
X0039469Y0185236D02*
X0038878Y0184646D01*
X0018110Y0184646D01*
X0009646Y0176181D01*
X0011418Y0187402D02*
X0009843Y0188976D01*
X0011418Y0187402D02*
X0034252Y0187402D01*
X0037796Y0190945D01*
X0041733Y0190945D01*
X0042126Y0190551D01*
X0042028Y0168307D02*
X0042028Y0164469D01*
X0039370Y0161811D01*
X0037796Y0155906D02*
X0044882Y0155906D01*
X0047146Y0158169D01*
X0047146Y0168307D01*
X0044587Y0168307D02*
X0044587Y0161122D01*
X0043701Y0160236D01*
X0048819Y0155118D02*
X0048819Y0152165D01*
X0048819Y0155118D02*
X0051181Y0157480D01*
X0053937Y0157480D01*
X0055512Y0155906D01*
X0055512Y0152165D01*
X0059055Y0159055D02*
X0080709Y0180709D01*
X0081496Y0180709D01*
X0088189Y0187402D01*
X0088189Y0179528D02*
X0081496Y0172835D01*
X0067323Y0158661D01*
X0064961Y0158661D01*
X0068504Y0124803D02*
X0069685Y0124803D01*
X0073819Y0120669D01*
X0073819Y0118110D01*
X0067717Y0112205D02*
X0062205Y0112205D01*
X0062205Y0112795D01*
X0056693Y0112795D01*
X0056693Y0106102D02*
X0056693Y0103543D01*
X0060630Y0099606D01*
X0054331Y0099606D01*
X0051181Y0102756D01*
X0051181Y0106102D01*
X0060630Y0099606D02*
X0062205Y0101181D01*
X0062205Y0106102D01*
X0064961Y0094094D02*
X0063386Y0092520D01*
X0060433Y0092520D01*
X0053740Y0092520D02*
X0030040Y0092520D01*
X0030000Y0092480D01*
X0030000Y0087717D01*
X0033268Y0084449D01*
X0033268Y0081496D01*
X0031890Y0074803D02*
X0016142Y0090551D01*
X0016142Y0128740D01*
X0021654Y0134252D01*
X0037796Y0134252D01*
X0041339Y0137795D01*
X0041339Y0139370D01*
X0040158Y0146457D02*
X0033465Y0139764D01*
X0028544Y0139764D01*
X0031496Y0149213D02*
X0032481Y0150197D01*
X0032481Y0163386D01*
X0032481Y0169291D01*
X0033465Y0168307D01*
X0039469Y0168307D01*
X0025788Y0169291D02*
X0023819Y0171260D01*
X0020473Y0171260D01*
X0020473Y0166142D01*
X0023229Y0163386D01*
X0025788Y0163386D01*
X0021851Y0139764D02*
X0015748Y0139764D01*
X0009055Y0133071D01*
X0009055Y0084646D01*
X0013780Y0079921D01*
X0013780Y0047953D01*
X0018780Y0042953D01*
X0023465Y0047638D01*
X0027756Y0047638D01*
X0027756Y0055906D02*
X0027756Y0059252D01*
X0029134Y0060630D01*
X0030709Y0060630D01*
X0031890Y0061811D01*
X0031890Y0065157D01*
X0031890Y0071850D02*
X0031890Y0074803D01*
X0039961Y0078150D02*
X0039961Y0081496D01*
X0039961Y0078150D02*
X0055906Y0062205D01*
X0058268Y0062205D01*
X0063386Y0057087D01*
X0063386Y0047638D01*
X0069685Y0041339D01*
X0075591Y0041339D01*
X0079922Y0037008D01*
X0079922Y0013386D01*
X0073229Y0011024D02*
X0071260Y0011024D01*
X0066536Y0006299D01*
X0066536Y0032283D01*
X0066536Y0005906D02*
X0064961Y0004331D01*
X0038583Y0004331D01*
X0037796Y0005118D01*
X0030315Y0010236D02*
X0030118Y0010433D01*
X0030241Y0025197D02*
X0030241Y0031890D01*
X0029243Y0031890D02*
X0029243Y0025197D01*
X0028244Y0025197D02*
X0028244Y0031890D01*
X0027246Y0031890D02*
X0027246Y0025197D01*
X0027166Y0025197D02*
X0025591Y0026772D01*
X0025591Y0030709D01*
X0026772Y0031890D01*
X0031890Y0031890D01*
X0032388Y0032161D01*
X0034063Y0032161D01*
X0034063Y0035047D01*
X0034835Y0035047D01*
X0034835Y0032161D01*
X0036615Y0032161D01*
X0036997Y0032264D01*
X0037339Y0032461D01*
X0037618Y0032740D01*
X0037815Y0033082D01*
X0037918Y0033464D01*
X0037918Y0035047D01*
X0034835Y0035047D01*
X0034835Y0035819D01*
X0034063Y0035819D01*
X0034063Y0038705D01*
X0034055Y0038705D01*
X0034055Y0039370D01*
X0040233Y0039370D01*
X0040233Y0038378D01*
X0043118Y0038378D01*
X0043118Y0037606D01*
X0040233Y0037606D01*
X0040233Y0037008D01*
X0040197Y0037008D01*
X0040197Y0034136D01*
X0040033Y0033972D01*
X0040033Y0031712D01*
X0032284Y0025197D01*
X0027166Y0025197D01*
X0026247Y0026115D02*
X0026247Y0031365D01*
X0031240Y0031890D02*
X0031240Y0025197D01*
X0032239Y0025197D02*
X0032239Y0032080D01*
X0033237Y0032161D02*
X0033237Y0025998D01*
X0034236Y0026838D02*
X0034236Y0035047D01*
X0034449Y0035433D02*
X0034449Y0047638D01*
X0034449Y0055906D01*
X0027756Y0055906D02*
X0021733Y0055906D01*
X0018780Y0052953D01*
X0034236Y0039370D02*
X0034236Y0035819D01*
X0034835Y0035819D02*
X0034835Y0038705D01*
X0036615Y0038705D01*
X0036997Y0038602D01*
X0037339Y0038405D01*
X0037618Y0038126D01*
X0037815Y0037784D01*
X0037918Y0037402D01*
X0037918Y0035819D01*
X0034835Y0035819D01*
X0035234Y0035819D02*
X0035234Y0035047D01*
X0036233Y0035047D02*
X0036233Y0035819D01*
X0037231Y0035819D02*
X0037231Y0035047D01*
X0037231Y0032399D02*
X0037231Y0029357D01*
X0038230Y0030196D02*
X0038230Y0039370D01*
X0039228Y0039370D02*
X0039228Y0031036D01*
X0036233Y0032161D02*
X0036233Y0028517D01*
X0035234Y0027677D02*
X0035234Y0032161D01*
X0035234Y0038705D02*
X0035234Y0039370D01*
X0036233Y0039370D02*
X0036233Y0038705D01*
X0037231Y0038467D02*
X0037231Y0039370D01*
X0040227Y0039370D02*
X0040227Y0037008D01*
X0041225Y0037606D02*
X0041225Y0038378D01*
X0042224Y0038378D02*
X0042224Y0037606D01*
X0030000Y0112480D02*
X0032481Y0114961D01*
X0038583Y0114961D01*
X0040748Y0117126D01*
X0040748Y0120866D01*
X0020866Y0190157D02*
X0009843Y0201181D01*
X0028780Y0222953D02*
X0028780Y0239803D01*
X0029922Y0240945D01*
X0029922Y0246850D01*
X0029961Y0246890D01*
X0036614Y0238583D02*
X0050394Y0238583D01*
X0057284Y0231693D01*
X0063189Y0231693D01*
D268*
X0027756Y0035433D02*
X0024410Y0035433D01*
X0023229Y0034252D01*
X0020079Y0034252D01*
X0018780Y0032953D01*
X0033859Y0015748D02*
X0033859Y0010433D01*
X0030315Y0010236D02*
X0030315Y0006693D01*
X0031496Y0005512D01*
X0037402Y0005512D01*
X0037796Y0005118D01*
X0037796Y0010236D01*
X0037599Y0010433D01*
X0037599Y0021063D02*
X0043701Y0021063D01*
X0043701Y0028346D01*
X0043504Y0031299D01*
D136*
X0089764Y0082283D02*
X0087796Y0084252D01*
X0087796Y0087686D01*
X0087838Y0087686D01*
X0087838Y0091409D01*
X0088383Y0092318D01*
X0088383Y0087686D01*
X0092077Y0087686D01*
X0092908Y0087817D01*
X0093708Y0088077D01*
X0094458Y0088459D01*
X0095139Y0088954D01*
X0095734Y0089549D01*
X0096228Y0090230D01*
X0096610Y0090979D01*
X0096870Y0091780D01*
X0097002Y0092611D01*
X0097002Y0092759D01*
X0088648Y0092759D01*
X0088975Y0093304D01*
X0097002Y0093304D01*
X0097002Y0093307D01*
X0099213Y0093307D01*
X0099213Y0033465D01*
X0096851Y0031102D01*
X0093701Y0031102D01*
X0091733Y0033071D01*
X0091733Y0050787D01*
X0095670Y0052362D01*
X0096227Y0053477D01*
X0096580Y0053963D01*
X0096953Y0054694D01*
X0097206Y0055473D01*
X0097334Y0056283D01*
X0097334Y0056489D01*
X0092330Y0056489D01*
X0092330Y0056897D01*
X0097334Y0056897D01*
X0097334Y0057103D01*
X0097206Y0057912D01*
X0096953Y0058692D01*
X0096580Y0059422D01*
X0096457Y0059592D01*
X0096457Y0059843D01*
X0094488Y0061811D01*
X0093103Y0061811D01*
X0092536Y0061901D01*
X0092330Y0061901D01*
X0092330Y0061811D01*
X0092126Y0061811D01*
X0089764Y0064173D01*
X0089764Y0082283D01*
X0089337Y0082710D02*
X0089337Y0087686D01*
X0090936Y0087686D02*
X0090936Y0063001D01*
X0092534Y0061901D02*
X0092534Y0087758D01*
X0094133Y0088294D02*
X0094133Y0061811D01*
X0095731Y0060568D02*
X0095731Y0089547D01*
X0095731Y0092759D02*
X0095731Y0093304D01*
X0094133Y0093304D02*
X0094133Y0092759D01*
X0092534Y0092759D02*
X0092534Y0093304D01*
X0090936Y0093304D02*
X0090936Y0092759D01*
X0089337Y0092759D02*
X0089337Y0093304D01*
X0097330Y0093307D02*
X0097330Y0057130D01*
X0097330Y0056897D02*
X0097330Y0056489D01*
X0097330Y0056256D02*
X0097330Y0031582D01*
X0095731Y0031102D02*
X0095731Y0052486D01*
X0094133Y0051748D02*
X0094133Y0031102D01*
X0092534Y0032269D02*
X0092534Y0051108D01*
X0092534Y0056489D02*
X0092534Y0056897D01*
X0094133Y0056897D02*
X0094133Y0056489D01*
X0095731Y0056489D02*
X0095731Y0056897D01*
X0098928Y0033180D02*
X0098928Y0093307D01*
X0000000Y0261906D02*
G75*
%LPD*%
D454*
X0047146Y0430213D03*
X0044587Y0430213D03*
X0042028Y0430213D03*
X0039469Y0430213D03*
X0039469Y0447142D03*
X0042028Y0447142D03*
X0044587Y0447142D03*
X0047146Y0447142D03*
D237*
X0014176Y0427812D02*
X0007085Y0427812D01*
X0007085Y0417812D02*
X0014176Y0417812D01*
X0014176Y0407812D02*
X0007085Y0407812D01*
X0026455Y0384386D02*
X0033546Y0384386D01*
X0033546Y0374386D02*
X0026455Y0374386D01*
X0026455Y0364386D02*
X0033546Y0364386D01*
X0033546Y0354386D02*
X0026455Y0354386D01*
X0057872Y0342497D02*
X0064963Y0342497D01*
X0064963Y0332497D02*
X0057872Y0332497D01*
X0071378Y0316318D02*
X0071378Y0309226D01*
X0081378Y0309226D02*
X0081378Y0316318D01*
X0084565Y0354937D02*
X0091656Y0354937D01*
X0091656Y0364937D02*
X0084565Y0364937D01*
D388*
X0073819Y0380016D03*
X0067126Y0380016D03*
X0060433Y0354426D03*
X0053740Y0354426D03*
X0039961Y0343402D03*
X0033268Y0343402D03*
X0034449Y0317812D03*
X0034449Y0309544D03*
X0027756Y0309544D03*
X0027756Y0317812D03*
X0027756Y0297339D03*
X0034449Y0297339D03*
X0043701Y0282969D03*
X0050394Y0282969D03*
X0047441Y0382772D03*
X0040748Y0382772D03*
X0028544Y0401670D03*
X0021851Y0401670D03*
X0025788Y0425292D03*
X0025788Y0431197D03*
X0032481Y0431197D03*
X0032481Y0425292D03*
D801*
X0030118Y0282969D03*
X0037599Y0282969D03*
X0037599Y0272339D03*
X0033859Y0272339D03*
X0030118Y0272339D03*
D417*
X0018780Y0304859D03*
X0018780Y0314859D03*
X0018780Y0324859D03*
X0018780Y0334859D03*
X0008780Y0334859D03*
X0008780Y0324859D03*
X0008780Y0314859D03*
X0008780Y0304859D03*
X0008780Y0294859D03*
X0018780Y0474859D03*
X0018780Y0484859D03*
X0028780Y0484859D03*
X0028780Y0474859D03*
X0008780Y0484859D03*
D224*
X0008780Y0474859D03*
X0018780Y0294859D03*
D274*
X0053248Y0387319D03*
X0053248Y0389012D03*
X0053248Y0390705D03*
X0053248Y0392398D03*
X0064862Y0392398D03*
X0064862Y0390705D03*
X0064862Y0389012D03*
X0064862Y0387319D03*
D382*
X0064981Y0385036D03*
X0063288Y0385036D03*
X0061595Y0385036D03*
X0059902Y0385036D03*
X0058209Y0385036D03*
X0056516Y0385036D03*
X0054823Y0385036D03*
X0053130Y0385036D03*
X0053130Y0394682D03*
X0054823Y0394682D03*
X0056516Y0394682D03*
X0058209Y0394682D03*
X0059902Y0394682D03*
X0061595Y0394682D03*
X0063288Y0394682D03*
X0064981Y0394682D03*
D252*
X0055512Y0407378D03*
X0055512Y0414071D03*
X0048819Y0414071D03*
X0048819Y0407378D03*
X0051181Y0374701D03*
X0051181Y0368008D03*
X0056693Y0368008D03*
X0056693Y0374701D03*
X0062205Y0374701D03*
X0062205Y0368008D03*
X0031890Y0333756D03*
X0031890Y0327063D03*
X0043504Y0299898D03*
X0043504Y0293205D03*
D182*
X0075985Y0391434D03*
X0071260Y0399701D03*
X0075985Y0406394D03*
X0068898Y0409937D03*
X0062205Y0412693D03*
X0029961Y0508796D03*
D106*
X0063189Y0511315D03*
X0063189Y0493599D03*
X0088780Y0493599D03*
X0088780Y0511315D03*
D451*
X0112343Y0293008D03*
X0112343Y0318993D03*
D232*
X0025985Y0462300D03*
X0009843Y0463087D03*
X0009843Y0450882D03*
X0009646Y0438087D03*
X0052362Y0466237D03*
D135*
X0101024Y0436473D03*
X0101024Y0426473D03*
X0111024Y0426473D03*
X0111024Y0436473D03*
X0085040Y0387497D03*
X0080709Y0380016D03*
X0071260Y0360331D03*
X0092126Y0318599D03*
X0023229Y0277654D03*
D43*
X0029528Y0288875D03*
X0031496Y0292024D03*
X0027559Y0292024D03*
X0033859Y0277654D03*
X0037796Y0267024D03*
X0054725Y0291434D03*
X0058268Y0291434D03*
X0058268Y0284347D03*
X0058268Y0276079D03*
X0066536Y0294189D03*
X0058268Y0307575D03*
X0054725Y0307575D03*
X0069292Y0328441D03*
X0072441Y0326867D03*
X0072441Y0330410D03*
X0072047Y0337497D03*
X0072047Y0342221D03*
X0072047Y0346945D03*
X0075197Y0351276D03*
X0077953Y0346945D03*
X0082677Y0336709D03*
X0091339Y0329229D03*
X0092914Y0326079D03*
X0095276Y0328835D03*
X0092126Y0336315D03*
X0105118Y0327260D03*
X0112205Y0340252D03*
X0095670Y0304426D03*
X0095670Y0300882D03*
X0095670Y0297339D03*
X0087008Y0279229D03*
X0079922Y0275292D03*
X0073229Y0272930D03*
X0025591Y0330016D03*
X0040945Y0359150D03*
X0046851Y0378048D03*
X0043701Y0390646D03*
X0037796Y0396158D03*
X0033465Y0401670D03*
X0031496Y0411119D03*
X0037796Y0417812D03*
X0039370Y0423717D03*
X0043701Y0422142D03*
X0051181Y0419386D03*
X0059055Y0420961D03*
X0064961Y0420567D03*
X0055118Y0401276D03*
X0059055Y0389859D03*
X0068504Y0390252D03*
X0068504Y0386709D03*
X0067717Y0374111D03*
X0060630Y0361512D03*
X0041339Y0401276D03*
X0040158Y0408363D03*
X0020866Y0412693D03*
X0020473Y0433166D03*
X0024016Y0442615D03*
X0031103Y0437890D03*
X0031103Y0456000D03*
X0042914Y0475686D03*
X0050394Y0491040D03*
X0060236Y0500882D03*
X0056693Y0507969D03*
X0073229Y0483953D03*
X0079134Y0483166D03*
X0064961Y0462300D03*
X0057481Y0456788D03*
X0050394Y0457182D03*
X0053544Y0441827D03*
X0061811Y0473323D03*
X0074016Y0452654D03*
X0081496Y0442615D03*
X0081496Y0434741D03*
X0088189Y0441434D03*
X0088189Y0449308D03*
X0081103Y0415843D03*
X0081496Y0408363D03*
X0088977Y0393402D03*
X0100788Y0400489D03*
X0103544Y0391434D03*
X0113780Y0398126D03*
X0113780Y0383166D03*
X0113780Y0413875D03*
X0113780Y0448914D03*
X0112599Y0463481D03*
X0106299Y0487103D03*
X0098032Y0483166D03*
X0076772Y0513087D03*
X0037796Y0508363D03*
X0036614Y0500489D03*
X0025591Y0513087D03*
X0004725Y0492221D03*
X0004331Y0388678D03*
X0004331Y0373717D03*
X0004331Y0364662D03*
X0004331Y0355607D03*
X0004331Y0346552D03*
D392*
X0038189Y0395764D02*
X0037796Y0396158D01*
X0038189Y0395764D02*
X0038189Y0391827D01*
X0042697Y0387319D01*
X0053248Y0387319D01*
X0053248Y0389012D02*
X0045335Y0389012D01*
X0043701Y0390646D01*
X0046457Y0392615D02*
X0048366Y0390705D01*
X0053248Y0390705D01*
X0053248Y0392398D02*
X0051398Y0392398D01*
X0048819Y0394977D01*
X0048819Y0407378D01*
X0052362Y0406788D02*
X0052362Y0404229D01*
X0051181Y0403048D01*
X0051181Y0396552D01*
X0053051Y0394682D01*
X0053130Y0394682D01*
X0054823Y0394682D02*
X0054823Y0400981D01*
X0055118Y0401276D01*
X0056516Y0399878D01*
X0056516Y0394682D01*
X0058209Y0394682D02*
X0058209Y0404760D01*
X0062205Y0408756D01*
X0062205Y0412693D01*
X0063780Y0407575D02*
X0065355Y0407575D01*
X0067717Y0409937D01*
X0068898Y0409937D01*
X0073622Y0406394D02*
X0072047Y0404819D01*
X0064567Y0404819D01*
X0061595Y0401847D01*
X0061595Y0394682D01*
X0063288Y0394682D02*
X0063288Y0396060D01*
X0066929Y0399701D01*
X0071260Y0399701D01*
X0072736Y0394682D02*
X0064981Y0394682D01*
X0064862Y0392398D02*
X0066359Y0392398D01*
X0068504Y0390252D01*
X0067264Y0389012D01*
X0064862Y0389012D01*
X0064862Y0387319D02*
X0067894Y0387319D01*
X0068504Y0386709D01*
X0066831Y0385036D01*
X0064981Y0385036D01*
X0063288Y0385036D01*
X0061595Y0385036D01*
X0059922Y0385016D02*
X0059902Y0385036D01*
X0059922Y0384977D01*
X0059922Y0385016D02*
X0059922Y0382733D01*
X0062599Y0380016D01*
X0067126Y0380016D01*
X0068504Y0390252D02*
X0068051Y0390705D01*
X0064862Y0390705D01*
X0059902Y0394682D02*
X0059902Y0403697D01*
X0063780Y0407575D01*
X0055512Y0407378D02*
X0055315Y0407182D01*
X0052756Y0407182D01*
X0052362Y0406788D01*
X0046457Y0402063D02*
X0046457Y0392615D01*
X0047441Y0382772D02*
X0050866Y0382772D01*
X0053130Y0385036D01*
X0054823Y0385036D02*
X0054823Y0381099D01*
X0051181Y0377457D01*
X0051181Y0374701D01*
X0056516Y0374878D02*
X0056693Y0374701D01*
X0056516Y0374878D02*
X0056516Y0385036D01*
X0056516Y0382772D01*
X0057874Y0382772D01*
X0058268Y0383166D01*
X0058268Y0384977D01*
X0058209Y0385036D01*
X0058229Y0385016D01*
X0047441Y0382772D02*
X0047441Y0378638D01*
X0046851Y0378048D01*
X0046457Y0402063D02*
X0040158Y0408363D01*
X0073622Y0406394D02*
X0075985Y0406394D01*
X0075985Y0404819D01*
X0072736Y0394682D02*
X0075985Y0391434D01*
X0028780Y0507615D02*
X0029961Y0508796D01*
D94*
X0072835Y0354426D02*
X0076772Y0354426D01*
X0084252Y0346945D01*
X0084252Y0345764D01*
X0086614Y0343402D01*
X0086614Y0326079D01*
X0085040Y0324504D01*
X0079528Y0324504D01*
X0077559Y0326473D01*
X0077559Y0333166D01*
X0075591Y0335134D01*
X0071260Y0335134D01*
X0070079Y0336315D01*
X0070079Y0351670D01*
X0072835Y0354426D01*
X0072624Y0354214D02*
X0072624Y0335134D01*
X0073222Y0335134D02*
X0073222Y0354426D01*
X0073821Y0354426D02*
X0073821Y0335134D01*
X0074419Y0335134D02*
X0074419Y0354426D01*
X0075018Y0354426D02*
X0075018Y0335134D01*
X0075616Y0335109D02*
X0075616Y0354426D01*
X0076215Y0354426D02*
X0076215Y0334510D01*
X0076813Y0333912D02*
X0076813Y0354384D01*
X0077412Y0353786D02*
X0077412Y0333313D01*
X0075197Y0331197D02*
X0075197Y0326079D01*
X0074410Y0325292D01*
X0074410Y0316237D01*
X0070473Y0316237D01*
X0059843Y0326867D01*
X0059843Y0332378D01*
X0060236Y0332772D01*
X0073622Y0332772D01*
X0075197Y0331197D01*
X0075018Y0331377D02*
X0075018Y0325900D01*
X0074419Y0325301D02*
X0074419Y0331975D01*
X0073821Y0332574D02*
X0073821Y0316237D01*
X0073222Y0316237D02*
X0073222Y0332772D01*
X0072624Y0332772D02*
X0072624Y0316237D01*
X0072025Y0316237D02*
X0072025Y0332772D01*
X0071427Y0332772D02*
X0071427Y0316237D01*
X0070828Y0316237D02*
X0070828Y0332772D01*
X0070230Y0332772D02*
X0070230Y0316480D01*
X0069631Y0317078D02*
X0069631Y0332772D01*
X0069033Y0332772D02*
X0069033Y0317677D01*
X0068434Y0318275D02*
X0068434Y0332772D01*
X0067836Y0332772D02*
X0067836Y0318874D01*
X0067237Y0319472D02*
X0067237Y0332772D01*
X0066639Y0332772D02*
X0066639Y0320071D01*
X0066040Y0320669D02*
X0066040Y0332772D01*
X0065441Y0332772D02*
X0065441Y0321268D01*
X0064843Y0321866D02*
X0064843Y0332772D01*
X0064244Y0332772D02*
X0064244Y0322465D01*
X0063646Y0323063D02*
X0063646Y0332772D01*
X0063047Y0332772D02*
X0063047Y0323662D01*
X0062449Y0324260D02*
X0062449Y0332772D01*
X0061850Y0332772D02*
X0061850Y0324859D01*
X0061252Y0325457D02*
X0061252Y0332772D01*
X0060653Y0332772D02*
X0060653Y0326056D01*
X0060055Y0326655D02*
X0060055Y0332591D01*
X0055906Y0321749D02*
X0053937Y0321749D01*
X0047638Y0328048D01*
X0041339Y0328048D01*
X0038583Y0325292D01*
X0038583Y0322142D01*
X0044095Y0316630D01*
X0044095Y0308756D01*
X0048032Y0305213D01*
X0048032Y0285981D01*
X0048254Y0286041D01*
X0050094Y0286041D01*
X0050094Y0283269D01*
X0050694Y0283269D01*
X0053662Y0283269D01*
X0053662Y0284912D01*
X0053574Y0285242D01*
X0053403Y0285539D01*
X0053161Y0285781D01*
X0052864Y0285952D01*
X0052534Y0286041D01*
X0050694Y0286041D01*
X0050694Y0283269D01*
X0050694Y0282669D01*
X0053662Y0282669D01*
X0053662Y0281026D01*
X0053574Y0280696D01*
X0053403Y0280399D01*
X0053161Y0280157D01*
X0052864Y0279986D01*
X0052534Y0279897D01*
X0050694Y0279897D01*
X0050694Y0282669D01*
X0050094Y0282669D01*
X0050094Y0279897D01*
X0048254Y0279897D01*
X0048032Y0279957D01*
X0048032Y0272930D01*
X0050394Y0270567D01*
X0061418Y0270567D01*
X0064173Y0273323D01*
X0064173Y0291434D01*
X0062205Y0293402D01*
X0062205Y0298126D01*
X0061024Y0299308D01*
X0061024Y0316630D01*
X0055906Y0321749D01*
X0055865Y0321749D02*
X0055865Y0270567D01*
X0055267Y0270567D02*
X0055267Y0321749D01*
X0054668Y0321749D02*
X0054668Y0270567D01*
X0054070Y0270567D02*
X0054070Y0321749D01*
X0053471Y0322215D02*
X0053471Y0285420D01*
X0052873Y0285947D02*
X0052873Y0322813D01*
X0052274Y0323412D02*
X0052274Y0286041D01*
X0051676Y0286041D02*
X0051676Y0324010D01*
X0051077Y0324609D02*
X0051077Y0286041D01*
X0049880Y0286041D02*
X0049880Y0325806D01*
X0049282Y0326404D02*
X0049282Y0286041D01*
X0048683Y0286041D02*
X0048683Y0327003D01*
X0048085Y0327601D02*
X0048085Y0285995D01*
X0050479Y0283269D02*
X0050479Y0325207D01*
X0047486Y0328048D02*
X0047486Y0305704D01*
X0046888Y0306243D02*
X0046888Y0328048D01*
X0046289Y0328048D02*
X0046289Y0306781D01*
X0045691Y0307320D02*
X0045691Y0328048D01*
X0045092Y0328048D02*
X0045092Y0307859D01*
X0044494Y0308397D02*
X0044494Y0328048D01*
X0043895Y0328048D02*
X0043895Y0316830D01*
X0043297Y0317429D02*
X0043297Y0328048D01*
X0042698Y0328048D02*
X0042698Y0318027D01*
X0042100Y0318626D02*
X0042100Y0328048D01*
X0041501Y0328048D02*
X0041501Y0319224D01*
X0040903Y0319823D02*
X0040903Y0327611D01*
X0040304Y0327013D02*
X0040304Y0320421D01*
X0039706Y0321020D02*
X0039706Y0326414D01*
X0039107Y0325816D02*
X0039107Y0321618D01*
X0056464Y0321190D02*
X0056464Y0270567D01*
X0057062Y0270567D02*
X0057062Y0320592D01*
X0057661Y0319993D02*
X0057661Y0270567D01*
X0058259Y0270567D02*
X0058259Y0319395D01*
X0058858Y0318796D02*
X0058858Y0270567D01*
X0059456Y0270567D02*
X0059456Y0318198D01*
X0060055Y0317599D02*
X0060055Y0270567D01*
X0060653Y0270567D02*
X0060653Y0317001D01*
X0061252Y0299080D02*
X0061252Y0270567D01*
X0061850Y0271000D02*
X0061850Y0298481D01*
X0062449Y0293158D02*
X0062449Y0271599D01*
X0063047Y0272197D02*
X0063047Y0292560D01*
X0063646Y0291961D02*
X0063646Y0272796D01*
X0066536Y0268205D02*
X0066536Y0267812D01*
X0053471Y0270567D02*
X0053471Y0280518D01*
X0052873Y0279991D02*
X0052873Y0270567D01*
X0052274Y0270567D02*
X0052274Y0279897D01*
X0051676Y0279897D02*
X0051676Y0270567D01*
X0051077Y0270567D02*
X0051077Y0279897D01*
X0049880Y0279897D02*
X0049880Y0271081D01*
X0050479Y0270567D02*
X0050479Y0282669D01*
X0051077Y0282669D02*
X0051077Y0283269D01*
X0051676Y0283269D02*
X0051676Y0282669D01*
X0052274Y0282669D02*
X0052274Y0283269D01*
X0052873Y0283269D02*
X0052873Y0282669D01*
X0053471Y0282669D02*
X0053471Y0283269D01*
X0049282Y0279897D02*
X0049282Y0271680D01*
X0048683Y0272278D02*
X0048683Y0279897D01*
X0048085Y0279943D02*
X0048085Y0272877D01*
X0079207Y0324825D02*
X0079207Y0351990D01*
X0079806Y0351392D02*
X0079806Y0324504D01*
X0080404Y0324504D02*
X0080404Y0350793D01*
X0081003Y0350195D02*
X0081003Y0324504D01*
X0081601Y0324504D02*
X0081601Y0349596D01*
X0082200Y0348998D02*
X0082200Y0324504D01*
X0082798Y0324504D02*
X0082798Y0348399D01*
X0083397Y0347801D02*
X0083397Y0324504D01*
X0083995Y0324504D02*
X0083995Y0347202D01*
X0084594Y0345423D02*
X0084594Y0324504D01*
X0085192Y0324657D02*
X0085192Y0344824D01*
X0085791Y0344226D02*
X0085791Y0325256D01*
X0086389Y0325854D02*
X0086389Y0343627D01*
X0078609Y0352589D02*
X0078609Y0325423D01*
X0078010Y0326022D02*
X0078010Y0353187D01*
X0072025Y0353616D02*
X0072025Y0335134D01*
X0071427Y0335134D02*
X0071427Y0353017D01*
X0070828Y0352419D02*
X0070828Y0335566D01*
X0070230Y0336165D02*
X0070230Y0351820D01*
D317*
X0064961Y0356000D02*
X0064961Y0361906D01*
X0075985Y0372930D01*
X0085040Y0372930D01*
X0093701Y0381591D01*
X0093701Y0390252D01*
X0094095Y0418993D01*
X0094095Y0456394D01*
X0088189Y0462300D01*
X0064961Y0462300D01*
X0052362Y0459150D02*
X0050394Y0457182D01*
X0052362Y0459150D02*
X0052362Y0466237D01*
X0047244Y0457182D02*
X0042126Y0462300D01*
X0025985Y0462300D01*
X0020866Y0452063D02*
X0033071Y0452063D01*
X0038189Y0457182D01*
X0042914Y0457182D01*
X0044587Y0455508D01*
X0044587Y0447142D01*
X0047146Y0447142D02*
X0047244Y0447241D01*
X0047244Y0457182D01*
X0042126Y0452457D02*
X0042126Y0447241D01*
X0042028Y0447142D01*
X0039469Y0447142D02*
X0038878Y0446552D01*
X0018110Y0446552D01*
X0009646Y0438087D01*
X0011418Y0449308D02*
X0009843Y0450882D01*
X0011418Y0449308D02*
X0034252Y0449308D01*
X0037796Y0452851D01*
X0041733Y0452851D01*
X0042126Y0452457D01*
X0042028Y0430213D02*
X0042028Y0426375D01*
X0039370Y0423717D01*
X0037796Y0417812D02*
X0044882Y0417812D01*
X0047146Y0420075D01*
X0047146Y0430213D01*
X0044587Y0430213D02*
X0044587Y0423028D01*
X0043701Y0422142D01*
X0048819Y0417024D02*
X0048819Y0414071D01*
X0048819Y0417024D02*
X0051181Y0419386D01*
X0053937Y0419386D01*
X0055512Y0417812D01*
X0055512Y0414071D01*
X0059055Y0420961D02*
X0080709Y0442615D01*
X0081496Y0442615D01*
X0088189Y0449308D01*
X0088189Y0441434D02*
X0081496Y0434741D01*
X0067323Y0420567D01*
X0064961Y0420567D01*
X0068504Y0386709D02*
X0069685Y0386709D01*
X0073819Y0382575D01*
X0073819Y0380016D01*
X0067717Y0374111D02*
X0062205Y0374111D01*
X0062205Y0374701D01*
X0056693Y0374701D01*
X0056693Y0368008D02*
X0056693Y0365449D01*
X0060630Y0361512D01*
X0054331Y0361512D01*
X0051181Y0364662D01*
X0051181Y0368008D01*
X0060630Y0361512D02*
X0062205Y0363087D01*
X0062205Y0368008D01*
X0064961Y0356000D02*
X0063386Y0354426D01*
X0060433Y0354426D01*
X0053740Y0354426D02*
X0030040Y0354426D01*
X0030000Y0354386D01*
X0030000Y0349623D01*
X0033268Y0346355D01*
X0033268Y0343402D01*
X0031890Y0336709D02*
X0016142Y0352457D01*
X0016142Y0390646D01*
X0021654Y0396158D01*
X0037796Y0396158D01*
X0041339Y0399701D01*
X0041339Y0401276D01*
X0040158Y0408363D02*
X0033465Y0401670D01*
X0028544Y0401670D01*
X0031496Y0411119D02*
X0032481Y0412103D01*
X0032481Y0425292D01*
X0032481Y0431197D01*
X0033465Y0430213D01*
X0039469Y0430213D01*
X0025788Y0431197D02*
X0023819Y0433166D01*
X0020473Y0433166D01*
X0020473Y0428048D01*
X0023229Y0425292D01*
X0025788Y0425292D01*
X0021851Y0401670D02*
X0015748Y0401670D01*
X0009055Y0394977D01*
X0009055Y0346552D01*
X0013780Y0341827D01*
X0013780Y0309859D01*
X0018780Y0304859D01*
X0023465Y0309544D01*
X0027756Y0309544D01*
X0027756Y0317812D02*
X0027756Y0321158D01*
X0029134Y0322536D01*
X0030709Y0322536D01*
X0031890Y0323717D01*
X0031890Y0327063D01*
X0031890Y0333756D02*
X0031890Y0336709D01*
X0039961Y0340056D02*
X0039961Y0343402D01*
X0039961Y0340056D02*
X0055906Y0324111D01*
X0058268Y0324111D01*
X0063386Y0318993D01*
X0063386Y0309544D01*
X0069685Y0303245D01*
X0075591Y0303245D01*
X0079922Y0298914D01*
X0079922Y0275292D01*
X0073229Y0272930D02*
X0071260Y0272930D01*
X0066536Y0268205D01*
X0066536Y0294189D01*
X0066536Y0267812D02*
X0064961Y0266237D01*
X0038583Y0266237D01*
X0037796Y0267024D01*
X0030315Y0272142D02*
X0030118Y0272339D01*
X0030241Y0287103D02*
X0030241Y0293796D01*
X0029243Y0293796D02*
X0029243Y0287103D01*
X0028244Y0287103D02*
X0028244Y0293796D01*
X0027246Y0293796D02*
X0027246Y0287103D01*
X0027166Y0287103D02*
X0025591Y0288678D01*
X0025591Y0292615D01*
X0026772Y0293796D01*
X0031890Y0293796D01*
X0032388Y0294067D01*
X0034063Y0294067D01*
X0034063Y0296953D01*
X0034835Y0296953D01*
X0034835Y0294067D01*
X0036615Y0294067D01*
X0036997Y0294170D01*
X0037339Y0294367D01*
X0037618Y0294646D01*
X0037815Y0294988D01*
X0037918Y0295370D01*
X0037918Y0296953D01*
X0034835Y0296953D01*
X0034835Y0297725D01*
X0034063Y0297725D01*
X0034063Y0300611D01*
X0034055Y0300611D01*
X0034055Y0301276D01*
X0040233Y0301276D01*
X0040233Y0300284D01*
X0043118Y0300284D01*
X0043118Y0299512D01*
X0040233Y0299512D01*
X0040233Y0298914D01*
X0040197Y0298914D01*
X0040197Y0296042D01*
X0040033Y0295878D01*
X0040033Y0293618D01*
X0032284Y0287103D01*
X0027166Y0287103D01*
X0026247Y0288021D02*
X0026247Y0293271D01*
X0031240Y0293796D02*
X0031240Y0287103D01*
X0032239Y0287103D02*
X0032239Y0293986D01*
X0033237Y0294067D02*
X0033237Y0287904D01*
X0034236Y0288744D02*
X0034236Y0296953D01*
X0034449Y0297339D02*
X0034449Y0309544D01*
X0034449Y0317812D01*
X0027756Y0317812D02*
X0021733Y0317812D01*
X0018780Y0314859D01*
X0034236Y0301276D02*
X0034236Y0297725D01*
X0034835Y0297725D02*
X0034835Y0300611D01*
X0036615Y0300611D01*
X0036997Y0300508D01*
X0037339Y0300311D01*
X0037618Y0300032D01*
X0037815Y0299690D01*
X0037918Y0299308D01*
X0037918Y0297725D01*
X0034835Y0297725D01*
X0035234Y0297725D02*
X0035234Y0296953D01*
X0036233Y0296953D02*
X0036233Y0297725D01*
X0037231Y0297725D02*
X0037231Y0296953D01*
X0037231Y0294305D02*
X0037231Y0291263D01*
X0038230Y0292102D02*
X0038230Y0301276D01*
X0039228Y0301276D02*
X0039228Y0292942D01*
X0036233Y0294067D02*
X0036233Y0290423D01*
X0035234Y0289583D02*
X0035234Y0294067D01*
X0035234Y0300611D02*
X0035234Y0301276D01*
X0036233Y0301276D02*
X0036233Y0300611D01*
X0037231Y0300373D02*
X0037231Y0301276D01*
X0040227Y0301276D02*
X0040227Y0298914D01*
X0041225Y0299512D02*
X0041225Y0300284D01*
X0042224Y0300284D02*
X0042224Y0299512D01*
X0030000Y0374386D02*
X0032481Y0376867D01*
X0038583Y0376867D01*
X0040748Y0379032D01*
X0040748Y0382772D01*
X0020866Y0452063D02*
X0009843Y0463087D01*
X0028780Y0484859D02*
X0028780Y0501709D01*
X0029922Y0502851D01*
X0029922Y0508756D01*
X0029961Y0508796D01*
X0036614Y0500489D02*
X0050394Y0500489D01*
X0057284Y0493599D01*
X0063189Y0493599D01*
D268*
X0027756Y0297339D02*
X0024410Y0297339D01*
X0023229Y0296158D01*
X0020079Y0296158D01*
X0018780Y0294859D01*
X0033859Y0277654D02*
X0033859Y0272339D01*
X0030315Y0272142D02*
X0030315Y0268599D01*
X0031496Y0267418D01*
X0037402Y0267418D01*
X0037796Y0267024D01*
X0037796Y0272142D01*
X0037599Y0272339D01*
X0037599Y0282969D02*
X0043701Y0282969D01*
X0043701Y0290252D01*
X0043504Y0293205D01*
D136*
X0089764Y0344189D02*
X0087796Y0346158D01*
X0087796Y0349592D01*
X0087838Y0349592D01*
X0087838Y0353315D01*
X0088383Y0354224D01*
X0088383Y0349592D01*
X0092077Y0349592D01*
X0092908Y0349723D01*
X0093708Y0349983D01*
X0094458Y0350365D01*
X0095139Y0350860D01*
X0095734Y0351455D01*
X0096228Y0352136D01*
X0096610Y0352885D01*
X0096870Y0353686D01*
X0097002Y0354517D01*
X0097002Y0354665D01*
X0088648Y0354665D01*
X0088975Y0355210D01*
X0097002Y0355210D01*
X0097002Y0355213D01*
X0099213Y0355213D01*
X0099213Y0295371D01*
X0096851Y0293008D01*
X0093701Y0293008D01*
X0091733Y0294977D01*
X0091733Y0312693D01*
X0095670Y0314268D01*
X0096227Y0315383D01*
X0096580Y0315869D01*
X0096953Y0316600D01*
X0097206Y0317379D01*
X0097334Y0318189D01*
X0097334Y0318395D01*
X0092330Y0318395D01*
X0092330Y0318803D01*
X0097334Y0318803D01*
X0097334Y0319009D01*
X0097206Y0319818D01*
X0096953Y0320598D01*
X0096580Y0321328D01*
X0096457Y0321498D01*
X0096457Y0321749D01*
X0094488Y0323717D01*
X0093103Y0323717D01*
X0092536Y0323807D01*
X0092330Y0323807D01*
X0092330Y0323717D01*
X0092126Y0323717D01*
X0089764Y0326079D01*
X0089764Y0344189D01*
X0089337Y0344616D02*
X0089337Y0349592D01*
X0090936Y0349592D02*
X0090936Y0324907D01*
X0092534Y0323807D02*
X0092534Y0349664D01*
X0094133Y0350200D02*
X0094133Y0323717D01*
X0095731Y0322474D02*
X0095731Y0351453D01*
X0095731Y0354665D02*
X0095731Y0355210D01*
X0094133Y0355210D02*
X0094133Y0354665D01*
X0092534Y0354665D02*
X0092534Y0355210D01*
X0090936Y0355210D02*
X0090936Y0354665D01*
X0089337Y0354665D02*
X0089337Y0355210D01*
X0097330Y0355213D02*
X0097330Y0319036D01*
X0097330Y0318803D02*
X0097330Y0318395D01*
X0097330Y0318162D02*
X0097330Y0293488D01*
X0095731Y0293008D02*
X0095731Y0314392D01*
X0094133Y0313654D02*
X0094133Y0293008D01*
X0092534Y0294175D02*
X0092534Y0313014D01*
X0092534Y0318395D02*
X0092534Y0318803D01*
X0094133Y0318803D02*
X0094133Y0318395D01*
X0095731Y0318395D02*
X0095731Y0318803D01*
X0098928Y0295086D02*
X0098928Y0355213D01*
X0124111Y0000000D02*
G75*
%LPD*%
D454*
X0171257Y0168307D03*
X0168698Y0168307D03*
X0166139Y0168307D03*
X0163580Y0168307D03*
X0163580Y0185236D03*
X0166139Y0185236D03*
X0168698Y0185236D03*
X0171257Y0185236D03*
D237*
X0138287Y0165906D02*
X0131196Y0165906D01*
X0131196Y0155906D02*
X0138287Y0155906D01*
X0138287Y0145906D02*
X0131196Y0145906D01*
X0150566Y0122480D02*
X0157657Y0122480D01*
X0157657Y0112480D02*
X0150566Y0112480D01*
X0150566Y0102480D02*
X0157657Y0102480D01*
X0157657Y0092480D02*
X0150566Y0092480D01*
X0181983Y0080591D02*
X0189074Y0080591D01*
X0189074Y0070591D02*
X0181983Y0070591D01*
X0195489Y0054412D02*
X0195489Y0047320D01*
X0205489Y0047320D02*
X0205489Y0054412D01*
X0208676Y0093031D02*
X0215767Y0093031D01*
X0215767Y0103031D02*
X0208676Y0103031D01*
D388*
X0197930Y0118110D03*
X0191237Y0118110D03*
X0184544Y0092520D03*
X0177851Y0092520D03*
X0164072Y0081496D03*
X0157379Y0081496D03*
X0158560Y0055906D03*
X0158560Y0047638D03*
X0151867Y0047638D03*
X0151867Y0055906D03*
X0151867Y0035433D03*
X0158560Y0035433D03*
X0167812Y0021063D03*
X0174505Y0021063D03*
X0171552Y0120866D03*
X0164859Y0120866D03*
X0152655Y0139764D03*
X0145962Y0139764D03*
X0149899Y0163386D03*
X0149899Y0169291D03*
X0156592Y0169291D03*
X0156592Y0163386D03*
D801*
X0154229Y0021063D03*
X0161710Y0021063D03*
X0161710Y0010433D03*
X0157970Y0010433D03*
X0154229Y0010433D03*
D417*
X0142891Y0042953D03*
X0142891Y0052953D03*
X0142891Y0062953D03*
X0142891Y0072953D03*
X0132891Y0072953D03*
X0132891Y0062953D03*
X0132891Y0052953D03*
X0132891Y0042953D03*
X0132891Y0032953D03*
X0142891Y0212953D03*
X0142891Y0222953D03*
X0152891Y0222953D03*
X0152891Y0212953D03*
X0132891Y0222953D03*
D224*
X0132891Y0212953D03*
X0142891Y0032953D03*
D274*
X0177359Y0125413D03*
X0177359Y0127106D03*
X0177359Y0128799D03*
X0177359Y0130492D03*
X0188973Y0130492D03*
X0188973Y0128799D03*
X0188973Y0127106D03*
X0188973Y0125413D03*
D382*
X0189092Y0123130D03*
X0187399Y0123130D03*
X0185706Y0123130D03*
X0184013Y0123130D03*
X0182320Y0123130D03*
X0180627Y0123130D03*
X0178934Y0123130D03*
X0177241Y0123130D03*
X0177241Y0132776D03*
X0178934Y0132776D03*
X0180627Y0132776D03*
X0182320Y0132776D03*
X0184013Y0132776D03*
X0185706Y0132776D03*
X0187399Y0132776D03*
X0189092Y0132776D03*
D252*
X0179623Y0145472D03*
X0179623Y0152165D03*
X0172930Y0152165D03*
X0172930Y0145472D03*
X0175292Y0112795D03*
X0175292Y0106102D03*
X0180804Y0106102D03*
X0180804Y0112795D03*
X0186316Y0112795D03*
X0186316Y0106102D03*
X0156001Y0071850D03*
X0156001Y0065157D03*
X0167615Y0037992D03*
X0167615Y0031299D03*
D182*
X0200096Y0129528D03*
X0195371Y0137795D03*
X0200096Y0144488D03*
X0193009Y0148031D03*
X0186316Y0150787D03*
X0154072Y0246890D03*
D106*
X0187300Y0249409D03*
X0187300Y0231693D03*
X0212891Y0231693D03*
X0212891Y0249409D03*
D451*
X0236454Y0031102D03*
X0236454Y0057087D03*
D232*
X0150096Y0200394D03*
X0133954Y0201181D03*
X0133954Y0188976D03*
X0133757Y0176181D03*
X0176473Y0204331D03*
D135*
X0225135Y0174567D03*
X0225135Y0164567D03*
X0235135Y0164567D03*
X0235135Y0174567D03*
X0209151Y0125591D03*
X0204820Y0118110D03*
X0195371Y0098425D03*
X0216237Y0056693D03*
X0147340Y0015748D03*
D43*
X0153639Y0026969D03*
X0155607Y0030118D03*
X0151670Y0030118D03*
X0157970Y0015748D03*
X0161907Y0005118D03*
X0178836Y0029528D03*
X0182379Y0029528D03*
X0182379Y0022441D03*
X0182379Y0014173D03*
X0190647Y0032283D03*
X0182379Y0045669D03*
X0178836Y0045669D03*
X0193403Y0066535D03*
X0196552Y0064961D03*
X0196552Y0068504D03*
X0196158Y0075591D03*
X0196158Y0080315D03*
X0196158Y0085039D03*
X0199308Y0089370D03*
X0202064Y0085039D03*
X0206788Y0074803D03*
X0215450Y0067323D03*
X0217025Y0064173D03*
X0219387Y0066929D03*
X0216237Y0074409D03*
X0229229Y0065354D03*
X0236316Y0078346D03*
X0219781Y0042520D03*
X0219781Y0038976D03*
X0219781Y0035433D03*
X0211119Y0017323D03*
X0204033Y0013386D03*
X0197340Y0011024D03*
X0149702Y0068110D03*
X0165056Y0097244D03*
X0170962Y0116142D03*
X0167812Y0128740D03*
X0161907Y0134252D03*
X0157576Y0139764D03*
X0155607Y0149213D03*
X0161907Y0155906D03*
X0163481Y0161811D03*
X0167812Y0160236D03*
X0175292Y0157480D03*
X0183166Y0159055D03*
X0189072Y0158661D03*
X0179229Y0139370D03*
X0183166Y0127953D03*
X0192615Y0128346D03*
X0192615Y0124803D03*
X0191828Y0112205D03*
X0184741Y0099606D03*
X0165450Y0139370D03*
X0164269Y0146457D03*
X0144977Y0150787D03*
X0144584Y0171260D03*
X0148127Y0180709D03*
X0155214Y0175984D03*
X0155214Y0194094D03*
X0167025Y0213780D03*
X0174505Y0229134D03*
X0184347Y0238976D03*
X0180804Y0246063D03*
X0197340Y0222047D03*
X0203245Y0221260D03*
X0189072Y0200394D03*
X0181592Y0194882D03*
X0174505Y0195276D03*
X0177655Y0179921D03*
X0185922Y0211417D03*
X0198127Y0190748D03*
X0205607Y0180709D03*
X0205607Y0172835D03*
X0212300Y0179528D03*
X0212300Y0187402D03*
X0205214Y0153937D03*
X0205607Y0146457D03*
X0213088Y0131496D03*
X0224899Y0138583D03*
X0227655Y0129528D03*
X0237891Y0136220D03*
X0237891Y0121260D03*
X0237891Y0151969D03*
X0237891Y0187008D03*
X0236710Y0201575D03*
X0230410Y0225197D03*
X0222143Y0221260D03*
X0200883Y0251181D03*
X0161907Y0246457D03*
X0160725Y0238583D03*
X0149702Y0251181D03*
X0128836Y0230315D03*
X0128442Y0126772D03*
X0128442Y0111811D03*
X0128442Y0102756D03*
X0128442Y0093701D03*
X0128442Y0084646D03*
D392*
X0162300Y0133858D02*
X0161907Y0134252D01*
X0162300Y0133858D02*
X0162300Y0129921D01*
X0166808Y0125413D01*
X0177359Y0125413D01*
X0177359Y0127106D02*
X0169446Y0127106D01*
X0167812Y0128740D01*
X0170568Y0130709D02*
X0172477Y0128799D01*
X0177359Y0128799D01*
X0177359Y0130492D02*
X0175509Y0130492D01*
X0172930Y0133071D01*
X0172930Y0145472D01*
X0176473Y0144882D02*
X0176473Y0142323D01*
X0175292Y0141142D01*
X0175292Y0134646D01*
X0177162Y0132776D01*
X0177241Y0132776D01*
X0178934Y0132776D02*
X0178934Y0139075D01*
X0179229Y0139370D01*
X0180627Y0137972D01*
X0180627Y0132776D01*
X0182320Y0132776D02*
X0182320Y0142854D01*
X0186316Y0146850D01*
X0186316Y0150787D01*
X0187891Y0145669D02*
X0189466Y0145669D01*
X0191828Y0148031D01*
X0193009Y0148031D01*
X0197733Y0144488D02*
X0196158Y0142913D01*
X0188678Y0142913D01*
X0185706Y0139941D01*
X0185706Y0132776D01*
X0187399Y0132776D02*
X0187399Y0134154D01*
X0191040Y0137795D01*
X0195371Y0137795D01*
X0196847Y0132776D02*
X0189092Y0132776D01*
X0188973Y0130492D02*
X0190470Y0130492D01*
X0192615Y0128346D01*
X0191375Y0127106D01*
X0188973Y0127106D01*
X0188973Y0125413D02*
X0192005Y0125413D01*
X0192615Y0124803D01*
X0190942Y0123130D01*
X0189092Y0123130D01*
X0187399Y0123130D01*
X0185706Y0123130D01*
X0184033Y0123110D02*
X0184013Y0123130D01*
X0184033Y0123071D01*
X0184033Y0123110D02*
X0184033Y0120827D01*
X0186710Y0118110D01*
X0191237Y0118110D01*
X0192615Y0128346D02*
X0192162Y0128799D01*
X0188973Y0128799D01*
X0184013Y0132776D02*
X0184013Y0141791D01*
X0187891Y0145669D01*
X0179623Y0145472D02*
X0179426Y0145276D01*
X0176867Y0145276D01*
X0176473Y0144882D01*
X0170568Y0140157D02*
X0170568Y0130709D01*
X0171552Y0120866D02*
X0174977Y0120866D01*
X0177241Y0123130D01*
X0178934Y0123130D02*
X0178934Y0119193D01*
X0175292Y0115551D01*
X0175292Y0112795D01*
X0180627Y0112972D02*
X0180804Y0112795D01*
X0180627Y0112972D02*
X0180627Y0123130D01*
X0180627Y0120866D01*
X0181985Y0120866D01*
X0182379Y0121260D01*
X0182379Y0123071D01*
X0182320Y0123130D01*
X0182340Y0123110D01*
X0171552Y0120866D02*
X0171552Y0116732D01*
X0170962Y0116142D01*
X0170568Y0140157D02*
X0164269Y0146457D01*
X0197733Y0144488D02*
X0200096Y0144488D01*
X0200096Y0142913D01*
X0196847Y0132776D02*
X0200096Y0129528D01*
X0152891Y0245709D02*
X0154072Y0246890D01*
D94*
X0196946Y0092520D02*
X0200883Y0092520D01*
X0208363Y0085039D01*
X0208363Y0083858D01*
X0210725Y0081496D01*
X0210725Y0064173D01*
X0209151Y0062598D01*
X0203639Y0062598D01*
X0201670Y0064567D01*
X0201670Y0071260D01*
X0199702Y0073228D01*
X0195371Y0073228D01*
X0194190Y0074409D01*
X0194190Y0089764D01*
X0196946Y0092520D01*
X0196735Y0092308D02*
X0196735Y0073228D01*
X0197333Y0073228D02*
X0197333Y0092520D01*
X0197932Y0092520D02*
X0197932Y0073228D01*
X0198530Y0073228D02*
X0198530Y0092520D01*
X0199129Y0092520D02*
X0199129Y0073228D01*
X0199727Y0073203D02*
X0199727Y0092520D01*
X0200326Y0092520D02*
X0200326Y0072604D01*
X0200924Y0072006D02*
X0200924Y0092478D01*
X0201523Y0091880D02*
X0201523Y0071407D01*
X0199308Y0069291D02*
X0199308Y0064173D01*
X0198521Y0063386D01*
X0198521Y0054331D01*
X0194584Y0054331D01*
X0183954Y0064961D01*
X0183954Y0070472D01*
X0184347Y0070866D01*
X0197733Y0070866D01*
X0199308Y0069291D01*
X0199129Y0069471D02*
X0199129Y0063994D01*
X0198530Y0063395D02*
X0198530Y0070069D01*
X0197932Y0070668D02*
X0197932Y0054331D01*
X0197333Y0054331D02*
X0197333Y0070866D01*
X0196735Y0070866D02*
X0196735Y0054331D01*
X0196136Y0054331D02*
X0196136Y0070866D01*
X0195538Y0070866D02*
X0195538Y0054331D01*
X0194939Y0054331D02*
X0194939Y0070866D01*
X0194341Y0070866D02*
X0194341Y0054574D01*
X0193742Y0055172D02*
X0193742Y0070866D01*
X0193144Y0070866D02*
X0193144Y0055771D01*
X0192545Y0056369D02*
X0192545Y0070866D01*
X0191947Y0070866D02*
X0191947Y0056968D01*
X0191348Y0057566D02*
X0191348Y0070866D01*
X0190750Y0070866D02*
X0190750Y0058165D01*
X0190151Y0058763D02*
X0190151Y0070866D01*
X0189552Y0070866D02*
X0189552Y0059362D01*
X0188954Y0059960D02*
X0188954Y0070866D01*
X0188355Y0070866D02*
X0188355Y0060559D01*
X0187757Y0061157D02*
X0187757Y0070866D01*
X0187158Y0070866D02*
X0187158Y0061756D01*
X0186560Y0062354D02*
X0186560Y0070866D01*
X0185961Y0070866D02*
X0185961Y0062953D01*
X0185363Y0063551D02*
X0185363Y0070866D01*
X0184764Y0070866D02*
X0184764Y0064150D01*
X0184166Y0064749D02*
X0184166Y0070685D01*
X0180017Y0059843D02*
X0178048Y0059843D01*
X0171749Y0066142D01*
X0165450Y0066142D01*
X0162694Y0063386D01*
X0162694Y0060236D01*
X0168206Y0054724D01*
X0168206Y0046850D01*
X0172143Y0043307D01*
X0172143Y0024075D01*
X0172365Y0024135D01*
X0174205Y0024135D01*
X0174205Y0021363D01*
X0174805Y0021363D01*
X0177773Y0021363D01*
X0177773Y0023006D01*
X0177685Y0023336D01*
X0177514Y0023633D01*
X0177272Y0023875D01*
X0176975Y0024046D01*
X0176645Y0024135D01*
X0174805Y0024135D01*
X0174805Y0021363D01*
X0174805Y0020763D01*
X0177773Y0020763D01*
X0177773Y0019120D01*
X0177685Y0018790D01*
X0177514Y0018493D01*
X0177272Y0018251D01*
X0176975Y0018080D01*
X0176645Y0017991D01*
X0174805Y0017991D01*
X0174805Y0020763D01*
X0174205Y0020763D01*
X0174205Y0017991D01*
X0172365Y0017991D01*
X0172143Y0018051D01*
X0172143Y0011024D01*
X0174505Y0008661D01*
X0185529Y0008661D01*
X0188284Y0011417D01*
X0188284Y0029528D01*
X0186316Y0031496D01*
X0186316Y0036220D01*
X0185135Y0037402D01*
X0185135Y0054724D01*
X0180017Y0059843D01*
X0179976Y0059843D02*
X0179976Y0008661D01*
X0179378Y0008661D02*
X0179378Y0059843D01*
X0178779Y0059843D02*
X0178779Y0008661D01*
X0178181Y0008661D02*
X0178181Y0059843D01*
X0177582Y0060309D02*
X0177582Y0023514D01*
X0176984Y0024041D02*
X0176984Y0060907D01*
X0176385Y0061506D02*
X0176385Y0024135D01*
X0175787Y0024135D02*
X0175787Y0062104D01*
X0175188Y0062703D02*
X0175188Y0024135D01*
X0173991Y0024135D02*
X0173991Y0063900D01*
X0173393Y0064498D02*
X0173393Y0024135D01*
X0172794Y0024135D02*
X0172794Y0065097D01*
X0172196Y0065695D02*
X0172196Y0024089D01*
X0174590Y0021363D02*
X0174590Y0063301D01*
X0171597Y0066142D02*
X0171597Y0043798D01*
X0170999Y0044337D02*
X0170999Y0066142D01*
X0170400Y0066142D02*
X0170400Y0044875D01*
X0169802Y0045414D02*
X0169802Y0066142D01*
X0169203Y0066142D02*
X0169203Y0045953D01*
X0168605Y0046491D02*
X0168605Y0066142D01*
X0168006Y0066142D02*
X0168006Y0054924D01*
X0167408Y0055523D02*
X0167408Y0066142D01*
X0166809Y0066142D02*
X0166809Y0056121D01*
X0166211Y0056720D02*
X0166211Y0066142D01*
X0165612Y0066142D02*
X0165612Y0057318D01*
X0165014Y0057917D02*
X0165014Y0065705D01*
X0164415Y0065107D02*
X0164415Y0058515D01*
X0163817Y0059114D02*
X0163817Y0064508D01*
X0163218Y0063910D02*
X0163218Y0059712D01*
X0180575Y0059284D02*
X0180575Y0008661D01*
X0181173Y0008661D02*
X0181173Y0058686D01*
X0181772Y0058087D02*
X0181772Y0008661D01*
X0182370Y0008661D02*
X0182370Y0057489D01*
X0182969Y0056890D02*
X0182969Y0008661D01*
X0183567Y0008661D02*
X0183567Y0056292D01*
X0184166Y0055693D02*
X0184166Y0008661D01*
X0184764Y0008661D02*
X0184764Y0055095D01*
X0185363Y0037174D02*
X0185363Y0008661D01*
X0185961Y0009094D02*
X0185961Y0036575D01*
X0186560Y0031252D02*
X0186560Y0009693D01*
X0187158Y0010291D02*
X0187158Y0030654D01*
X0187757Y0030055D02*
X0187757Y0010890D01*
X0190647Y0006299D02*
X0190647Y0005906D01*
X0177582Y0008661D02*
X0177582Y0018612D01*
X0176984Y0018085D02*
X0176984Y0008661D01*
X0176385Y0008661D02*
X0176385Y0017991D01*
X0175787Y0017991D02*
X0175787Y0008661D01*
X0175188Y0008661D02*
X0175188Y0017991D01*
X0173991Y0017991D02*
X0173991Y0009175D01*
X0174590Y0008661D02*
X0174590Y0020763D01*
X0175188Y0020763D02*
X0175188Y0021363D01*
X0175787Y0021363D02*
X0175787Y0020763D01*
X0176385Y0020763D02*
X0176385Y0021363D01*
X0176984Y0021363D02*
X0176984Y0020763D01*
X0177582Y0020763D02*
X0177582Y0021363D01*
X0173393Y0017991D02*
X0173393Y0009774D01*
X0172794Y0010372D02*
X0172794Y0017991D01*
X0172196Y0018037D02*
X0172196Y0010971D01*
X0203318Y0062919D02*
X0203318Y0090084D01*
X0203917Y0089486D02*
X0203917Y0062598D01*
X0204515Y0062598D02*
X0204515Y0088887D01*
X0205114Y0088289D02*
X0205114Y0062598D01*
X0205712Y0062598D02*
X0205712Y0087690D01*
X0206311Y0087092D02*
X0206311Y0062598D01*
X0206909Y0062598D02*
X0206909Y0086493D01*
X0207508Y0085895D02*
X0207508Y0062598D01*
X0208106Y0062598D02*
X0208106Y0085296D01*
X0208705Y0083517D02*
X0208705Y0062598D01*
X0209303Y0062751D02*
X0209303Y0082918D01*
X0209902Y0082320D02*
X0209902Y0063350D01*
X0210500Y0063948D02*
X0210500Y0081721D01*
X0202720Y0090683D02*
X0202720Y0063517D01*
X0202121Y0064116D02*
X0202121Y0091281D01*
X0196136Y0091710D02*
X0196136Y0073228D01*
X0195538Y0073228D02*
X0195538Y0091111D01*
X0194939Y0090513D02*
X0194939Y0073660D01*
X0194341Y0074259D02*
X0194341Y0089914D01*
D317*
X0189072Y0094094D02*
X0189072Y0100000D01*
X0200096Y0111024D01*
X0209151Y0111024D01*
X0217812Y0119685D01*
X0217812Y0128346D01*
X0218206Y0157087D01*
X0218206Y0194488D01*
X0212300Y0200394D01*
X0189072Y0200394D01*
X0176473Y0197244D02*
X0174505Y0195276D01*
X0176473Y0197244D02*
X0176473Y0204331D01*
X0171355Y0195276D02*
X0166237Y0200394D01*
X0150096Y0200394D01*
X0144977Y0190157D02*
X0157182Y0190157D01*
X0162300Y0195276D01*
X0167025Y0195276D01*
X0168698Y0193602D01*
X0168698Y0185236D01*
X0171257Y0185236D02*
X0171355Y0185335D01*
X0171355Y0195276D01*
X0166237Y0190551D02*
X0166237Y0185335D01*
X0166139Y0185236D01*
X0163580Y0185236D02*
X0162989Y0184646D01*
X0142221Y0184646D01*
X0133757Y0176181D01*
X0135529Y0187402D02*
X0133954Y0188976D01*
X0135529Y0187402D02*
X0158363Y0187402D01*
X0161907Y0190945D01*
X0165844Y0190945D01*
X0166237Y0190551D01*
X0166139Y0168307D02*
X0166139Y0164469D01*
X0163481Y0161811D01*
X0161907Y0155906D02*
X0168993Y0155906D01*
X0171257Y0158169D01*
X0171257Y0168307D01*
X0168698Y0168307D02*
X0168698Y0161122D01*
X0167812Y0160236D01*
X0172930Y0155118D02*
X0172930Y0152165D01*
X0172930Y0155118D02*
X0175292Y0157480D01*
X0178048Y0157480D01*
X0179623Y0155906D01*
X0179623Y0152165D01*
X0183166Y0159055D02*
X0204820Y0180709D01*
X0205607Y0180709D01*
X0212300Y0187402D01*
X0212300Y0179528D02*
X0205607Y0172835D01*
X0191434Y0158661D01*
X0189072Y0158661D01*
X0192615Y0124803D02*
X0193796Y0124803D01*
X0197930Y0120669D01*
X0197930Y0118110D01*
X0191828Y0112205D02*
X0186316Y0112205D01*
X0186316Y0112795D01*
X0180804Y0112795D01*
X0180804Y0106102D02*
X0180804Y0103543D01*
X0184741Y0099606D01*
X0178442Y0099606D01*
X0175292Y0102756D01*
X0175292Y0106102D01*
X0184741Y0099606D02*
X0186316Y0101181D01*
X0186316Y0106102D01*
X0189072Y0094094D02*
X0187497Y0092520D01*
X0184544Y0092520D01*
X0177851Y0092520D02*
X0154151Y0092520D01*
X0154111Y0092480D01*
X0154111Y0087717D01*
X0157379Y0084449D01*
X0157379Y0081496D01*
X0156001Y0074803D02*
X0140253Y0090551D01*
X0140253Y0128740D01*
X0145765Y0134252D01*
X0161907Y0134252D01*
X0165450Y0137795D01*
X0165450Y0139370D01*
X0164269Y0146457D02*
X0157576Y0139764D01*
X0152655Y0139764D01*
X0155607Y0149213D02*
X0156592Y0150197D01*
X0156592Y0163386D01*
X0156592Y0169291D01*
X0157576Y0168307D01*
X0163580Y0168307D01*
X0149899Y0169291D02*
X0147930Y0171260D01*
X0144584Y0171260D01*
X0144584Y0166142D01*
X0147340Y0163386D01*
X0149899Y0163386D01*
X0145962Y0139764D02*
X0139859Y0139764D01*
X0133166Y0133071D01*
X0133166Y0084646D01*
X0137891Y0079921D01*
X0137891Y0047953D01*
X0142891Y0042953D01*
X0147576Y0047638D01*
X0151867Y0047638D01*
X0151867Y0055906D02*
X0151867Y0059252D01*
X0153245Y0060630D01*
X0154820Y0060630D01*
X0156001Y0061811D01*
X0156001Y0065157D01*
X0156001Y0071850D02*
X0156001Y0074803D01*
X0164072Y0078150D02*
X0164072Y0081496D01*
X0164072Y0078150D02*
X0180017Y0062205D01*
X0182379Y0062205D01*
X0187497Y0057087D01*
X0187497Y0047638D01*
X0193796Y0041339D01*
X0199702Y0041339D01*
X0204033Y0037008D01*
X0204033Y0013386D01*
X0197340Y0011024D02*
X0195371Y0011024D01*
X0190647Y0006299D01*
X0190647Y0032283D01*
X0190647Y0005906D02*
X0189072Y0004331D01*
X0162694Y0004331D01*
X0161907Y0005118D01*
X0154426Y0010236D02*
X0154229Y0010433D01*
X0154352Y0025197D02*
X0154352Y0031890D01*
X0153354Y0031890D02*
X0153354Y0025197D01*
X0152355Y0025197D02*
X0152355Y0031890D01*
X0151357Y0031890D02*
X0151357Y0025197D01*
X0151277Y0025197D02*
X0149702Y0026772D01*
X0149702Y0030709D01*
X0150883Y0031890D01*
X0156001Y0031890D01*
X0156499Y0032161D01*
X0158174Y0032161D01*
X0158174Y0035047D01*
X0158946Y0035047D01*
X0158946Y0032161D01*
X0160726Y0032161D01*
X0161108Y0032264D01*
X0161450Y0032461D01*
X0161729Y0032740D01*
X0161926Y0033082D01*
X0162029Y0033464D01*
X0162029Y0035047D01*
X0158946Y0035047D01*
X0158946Y0035819D01*
X0158174Y0035819D01*
X0158174Y0038705D01*
X0158166Y0038705D01*
X0158166Y0039370D01*
X0164344Y0039370D01*
X0164344Y0038378D01*
X0167229Y0038378D01*
X0167229Y0037606D01*
X0164344Y0037606D01*
X0164344Y0037008D01*
X0164308Y0037008D01*
X0164308Y0034136D01*
X0164144Y0033972D01*
X0164144Y0031712D01*
X0156395Y0025197D01*
X0151277Y0025197D01*
X0150358Y0026115D02*
X0150358Y0031365D01*
X0155351Y0031890D02*
X0155351Y0025197D01*
X0156350Y0025197D02*
X0156350Y0032080D01*
X0157348Y0032161D02*
X0157348Y0025998D01*
X0158347Y0026838D02*
X0158347Y0035047D01*
X0158560Y0035433D02*
X0158560Y0047638D01*
X0158560Y0055906D01*
X0151867Y0055906D02*
X0145844Y0055906D01*
X0142891Y0052953D01*
X0158347Y0039370D02*
X0158347Y0035819D01*
X0158946Y0035819D02*
X0158946Y0038705D01*
X0160726Y0038705D01*
X0161108Y0038602D01*
X0161450Y0038405D01*
X0161729Y0038126D01*
X0161926Y0037784D01*
X0162029Y0037402D01*
X0162029Y0035819D01*
X0158946Y0035819D01*
X0159345Y0035819D02*
X0159345Y0035047D01*
X0160344Y0035047D02*
X0160344Y0035819D01*
X0161342Y0035819D02*
X0161342Y0035047D01*
X0161342Y0032399D02*
X0161342Y0029357D01*
X0162341Y0030196D02*
X0162341Y0039370D01*
X0163339Y0039370D02*
X0163339Y0031036D01*
X0160344Y0032161D02*
X0160344Y0028517D01*
X0159345Y0027677D02*
X0159345Y0032161D01*
X0159345Y0038705D02*
X0159345Y0039370D01*
X0160344Y0039370D02*
X0160344Y0038705D01*
X0161342Y0038467D02*
X0161342Y0039370D01*
X0164338Y0039370D02*
X0164338Y0037008D01*
X0165336Y0037606D02*
X0165336Y0038378D01*
X0166335Y0038378D02*
X0166335Y0037606D01*
X0154111Y0112480D02*
X0156592Y0114961D01*
X0162694Y0114961D01*
X0164859Y0117126D01*
X0164859Y0120866D01*
X0144977Y0190157D02*
X0133954Y0201181D01*
X0152891Y0222953D02*
X0152891Y0239803D01*
X0154033Y0240945D01*
X0154033Y0246850D01*
X0154072Y0246890D01*
X0160725Y0238583D02*
X0174505Y0238583D01*
X0181395Y0231693D01*
X0187300Y0231693D01*
D268*
X0151867Y0035433D02*
X0148521Y0035433D01*
X0147340Y0034252D01*
X0144190Y0034252D01*
X0142891Y0032953D01*
X0157970Y0015748D02*
X0157970Y0010433D01*
X0154426Y0010236D02*
X0154426Y0006693D01*
X0155607Y0005512D01*
X0161513Y0005512D01*
X0161907Y0005118D01*
X0161907Y0010236D01*
X0161710Y0010433D01*
X0161710Y0021063D02*
X0167812Y0021063D01*
X0167812Y0028346D01*
X0167615Y0031299D01*
D136*
X0213875Y0082283D02*
X0211907Y0084252D01*
X0211907Y0087686D01*
X0211949Y0087686D01*
X0211949Y0091409D01*
X0212494Y0092318D01*
X0212494Y0087686D01*
X0216188Y0087686D01*
X0217019Y0087817D01*
X0217819Y0088077D01*
X0218569Y0088459D01*
X0219250Y0088954D01*
X0219845Y0089549D01*
X0220339Y0090230D01*
X0220721Y0090979D01*
X0220981Y0091780D01*
X0221113Y0092611D01*
X0221113Y0092759D01*
X0212759Y0092759D01*
X0213086Y0093304D01*
X0221113Y0093304D01*
X0221113Y0093307D01*
X0223324Y0093307D01*
X0223324Y0033465D01*
X0220962Y0031102D01*
X0217812Y0031102D01*
X0215844Y0033071D01*
X0215844Y0050787D01*
X0219781Y0052362D01*
X0220338Y0053477D01*
X0220691Y0053963D01*
X0221064Y0054694D01*
X0221317Y0055473D01*
X0221445Y0056283D01*
X0221445Y0056489D01*
X0216441Y0056489D01*
X0216441Y0056897D01*
X0221445Y0056897D01*
X0221445Y0057103D01*
X0221317Y0057912D01*
X0221064Y0058692D01*
X0220691Y0059422D01*
X0220568Y0059592D01*
X0220568Y0059843D01*
X0218599Y0061811D01*
X0217214Y0061811D01*
X0216647Y0061901D01*
X0216441Y0061901D01*
X0216441Y0061811D01*
X0216237Y0061811D01*
X0213875Y0064173D01*
X0213875Y0082283D01*
X0213448Y0082710D02*
X0213448Y0087686D01*
X0215047Y0087686D02*
X0215047Y0063001D01*
X0216645Y0061901D02*
X0216645Y0087758D01*
X0218244Y0088294D02*
X0218244Y0061811D01*
X0219842Y0060568D02*
X0219842Y0089547D01*
X0219842Y0092759D02*
X0219842Y0093304D01*
X0218244Y0093304D02*
X0218244Y0092759D01*
X0216645Y0092759D02*
X0216645Y0093304D01*
X0215047Y0093304D02*
X0215047Y0092759D01*
X0213448Y0092759D02*
X0213448Y0093304D01*
X0221441Y0093307D02*
X0221441Y0057130D01*
X0221441Y0056897D02*
X0221441Y0056489D01*
X0221441Y0056256D02*
X0221441Y0031582D01*
X0219842Y0031102D02*
X0219842Y0052486D01*
X0218244Y0051748D02*
X0218244Y0031102D01*
X0216645Y0032269D02*
X0216645Y0051108D01*
X0216645Y0056489D02*
X0216645Y0056897D01*
X0218244Y0056897D02*
X0218244Y0056489D01*
X0219842Y0056489D02*
X0219842Y0056897D01*
X0223039Y0033180D02*
X0223039Y0093307D01*
X0124111Y0261906D02*
G75*
%LPD*%
D454*
X0171257Y0430213D03*
X0168698Y0430213D03*
X0166139Y0430213D03*
X0163580Y0430213D03*
X0163580Y0447142D03*
X0166139Y0447142D03*
X0168698Y0447142D03*
X0171257Y0447142D03*
D237*
X0138287Y0427812D02*
X0131196Y0427812D01*
X0131196Y0417812D02*
X0138287Y0417812D01*
X0138287Y0407812D02*
X0131196Y0407812D01*
X0150566Y0384386D02*
X0157657Y0384386D01*
X0157657Y0374386D02*
X0150566Y0374386D01*
X0150566Y0364386D02*
X0157657Y0364386D01*
X0157657Y0354386D02*
X0150566Y0354386D01*
X0181983Y0342497D02*
X0189074Y0342497D01*
X0189074Y0332497D02*
X0181983Y0332497D01*
X0195489Y0316318D02*
X0195489Y0309226D01*
X0205489Y0309226D02*
X0205489Y0316318D01*
X0208676Y0354937D02*
X0215767Y0354937D01*
X0215767Y0364937D02*
X0208676Y0364937D01*
D388*
X0197930Y0380016D03*
X0191237Y0380016D03*
X0184544Y0354426D03*
X0177851Y0354426D03*
X0164072Y0343402D03*
X0157379Y0343402D03*
X0158560Y0317812D03*
X0158560Y0309544D03*
X0151867Y0309544D03*
X0151867Y0317812D03*
X0151867Y0297339D03*
X0158560Y0297339D03*
X0167812Y0282969D03*
X0174505Y0282969D03*
X0171552Y0382772D03*
X0164859Y0382772D03*
X0152655Y0401670D03*
X0145962Y0401670D03*
X0149899Y0425292D03*
X0149899Y0431197D03*
X0156592Y0431197D03*
X0156592Y0425292D03*
D801*
X0154229Y0282969D03*
X0161710Y0282969D03*
X0161710Y0272339D03*
X0157970Y0272339D03*
X0154229Y0272339D03*
D417*
X0142891Y0304859D03*
X0142891Y0314859D03*
X0142891Y0324859D03*
X0142891Y0334859D03*
X0132891Y0334859D03*
X0132891Y0324859D03*
X0132891Y0314859D03*
X0132891Y0304859D03*
X0132891Y0294859D03*
X0142891Y0474859D03*
X0142891Y0484859D03*
X0152891Y0484859D03*
X0152891Y0474859D03*
X0132891Y0484859D03*
D224*
X0132891Y0474859D03*
X0142891Y0294859D03*
D274*
X0177359Y0387319D03*
X0177359Y0389012D03*
X0177359Y0390705D03*
X0177359Y0392398D03*
X0188973Y0392398D03*
X0188973Y0390705D03*
X0188973Y0389012D03*
X0188973Y0387319D03*
D382*
X0189092Y0385036D03*
X0187399Y0385036D03*
X0185706Y0385036D03*
X0184013Y0385036D03*
X0182320Y0385036D03*
X0180627Y0385036D03*
X0178934Y0385036D03*
X0177241Y0385036D03*
X0177241Y0394682D03*
X0178934Y0394682D03*
X0180627Y0394682D03*
X0182320Y0394682D03*
X0184013Y0394682D03*
X0185706Y0394682D03*
X0187399Y0394682D03*
X0189092Y0394682D03*
D252*
X0179623Y0407378D03*
X0179623Y0414071D03*
X0172930Y0414071D03*
X0172930Y0407378D03*
X0175292Y0374701D03*
X0175292Y0368008D03*
X0180804Y0368008D03*
X0180804Y0374701D03*
X0186316Y0374701D03*
X0186316Y0368008D03*
X0156001Y0333756D03*
X0156001Y0327063D03*
X0167615Y0299898D03*
X0167615Y0293205D03*
D182*
X0200096Y0391434D03*
X0195371Y0399701D03*
X0200096Y0406394D03*
X0193009Y0409937D03*
X0186316Y0412693D03*
X0154072Y0508796D03*
D106*
X0187300Y0511315D03*
X0187300Y0493599D03*
X0212891Y0493599D03*
X0212891Y0511315D03*
D451*
X0236454Y0293008D03*
X0236454Y0318993D03*
D232*
X0150096Y0462300D03*
X0133954Y0463087D03*
X0133954Y0450882D03*
X0133757Y0438087D03*
X0176473Y0466237D03*
D135*
X0225135Y0436473D03*
X0225135Y0426473D03*
X0235135Y0426473D03*
X0235135Y0436473D03*
X0209151Y0387497D03*
X0204820Y0380016D03*
X0195371Y0360331D03*
X0216237Y0318599D03*
X0147340Y0277654D03*
D43*
X0153639Y0288875D03*
X0155607Y0292024D03*
X0151670Y0292024D03*
X0157970Y0277654D03*
X0161907Y0267024D03*
X0178836Y0291434D03*
X0182379Y0291434D03*
X0182379Y0284347D03*
X0182379Y0276079D03*
X0190647Y0294189D03*
X0182379Y0307575D03*
X0178836Y0307575D03*
X0193403Y0328441D03*
X0196552Y0326867D03*
X0196552Y0330410D03*
X0196158Y0337497D03*
X0196158Y0342221D03*
X0196158Y0346945D03*
X0199308Y0351276D03*
X0202064Y0346945D03*
X0206788Y0336709D03*
X0215450Y0329229D03*
X0217025Y0326079D03*
X0219387Y0328835D03*
X0216237Y0336315D03*
X0229229Y0327260D03*
X0236316Y0340252D03*
X0219781Y0304426D03*
X0219781Y0300882D03*
X0219781Y0297339D03*
X0211119Y0279229D03*
X0204033Y0275292D03*
X0197340Y0272930D03*
X0149702Y0330016D03*
X0165056Y0359150D03*
X0170962Y0378048D03*
X0167812Y0390646D03*
X0161907Y0396158D03*
X0157576Y0401670D03*
X0155607Y0411119D03*
X0161907Y0417812D03*
X0163481Y0423717D03*
X0167812Y0422142D03*
X0175292Y0419386D03*
X0183166Y0420961D03*
X0189072Y0420567D03*
X0179229Y0401276D03*
X0183166Y0389859D03*
X0192615Y0390252D03*
X0192615Y0386709D03*
X0191828Y0374111D03*
X0184741Y0361512D03*
X0165450Y0401276D03*
X0164269Y0408363D03*
X0144977Y0412693D03*
X0144584Y0433166D03*
X0148127Y0442615D03*
X0155214Y0437890D03*
X0155214Y0456000D03*
X0167025Y0475686D03*
X0174505Y0491040D03*
X0184347Y0500882D03*
X0180804Y0507969D03*
X0197340Y0483953D03*
X0203245Y0483166D03*
X0189072Y0462300D03*
X0181592Y0456788D03*
X0174505Y0457182D03*
X0177655Y0441827D03*
X0185922Y0473323D03*
X0198127Y0452654D03*
X0205607Y0442615D03*
X0205607Y0434741D03*
X0212300Y0441434D03*
X0212300Y0449308D03*
X0205214Y0415843D03*
X0205607Y0408363D03*
X0213088Y0393402D03*
X0224899Y0400489D03*
X0227655Y0391434D03*
X0237891Y0398126D03*
X0237891Y0383166D03*
X0237891Y0413875D03*
X0237891Y0448914D03*
X0236710Y0463481D03*
X0230410Y0487103D03*
X0222143Y0483166D03*
X0200883Y0513087D03*
X0161907Y0508363D03*
X0160725Y0500489D03*
X0149702Y0513087D03*
X0128836Y0492221D03*
X0128442Y0388678D03*
X0128442Y0373717D03*
X0128442Y0364662D03*
X0128442Y0355607D03*
X0128442Y0346552D03*
D392*
X0162300Y0395764D02*
X0161907Y0396158D01*
X0162300Y0395764D02*
X0162300Y0391827D01*
X0166808Y0387319D01*
X0177359Y0387319D01*
X0177359Y0389012D02*
X0169446Y0389012D01*
X0167812Y0390646D01*
X0170568Y0392615D02*
X0172477Y0390705D01*
X0177359Y0390705D01*
X0177359Y0392398D02*
X0175509Y0392398D01*
X0172930Y0394977D01*
X0172930Y0407378D01*
X0176473Y0406788D02*
X0176473Y0404229D01*
X0175292Y0403048D01*
X0175292Y0396552D01*
X0177162Y0394682D01*
X0177241Y0394682D01*
X0178934Y0394682D02*
X0178934Y0400981D01*
X0179229Y0401276D01*
X0180627Y0399878D01*
X0180627Y0394682D01*
X0182320Y0394682D02*
X0182320Y0404760D01*
X0186316Y0408756D01*
X0186316Y0412693D01*
X0187891Y0407575D02*
X0189466Y0407575D01*
X0191828Y0409937D01*
X0193009Y0409937D01*
X0197733Y0406394D02*
X0196158Y0404819D01*
X0188678Y0404819D01*
X0185706Y0401847D01*
X0185706Y0394682D01*
X0187399Y0394682D02*
X0187399Y0396060D01*
X0191040Y0399701D01*
X0195371Y0399701D01*
X0196847Y0394682D02*
X0189092Y0394682D01*
X0188973Y0392398D02*
X0190470Y0392398D01*
X0192615Y0390252D01*
X0191375Y0389012D01*
X0188973Y0389012D01*
X0188973Y0387319D02*
X0192005Y0387319D01*
X0192615Y0386709D01*
X0190942Y0385036D01*
X0189092Y0385036D01*
X0187399Y0385036D01*
X0185706Y0385036D01*
X0184033Y0385016D02*
X0184013Y0385036D01*
X0184033Y0384977D01*
X0184033Y0385016D02*
X0184033Y0382733D01*
X0186710Y0380016D01*
X0191237Y0380016D01*
X0192615Y0390252D02*
X0192162Y0390705D01*
X0188973Y0390705D01*
X0184013Y0394682D02*
X0184013Y0403697D01*
X0187891Y0407575D01*
X0179623Y0407378D02*
X0179426Y0407182D01*
X0176867Y0407182D01*
X0176473Y0406788D01*
X0170568Y0402063D02*
X0170568Y0392615D01*
X0171552Y0382772D02*
X0174977Y0382772D01*
X0177241Y0385036D01*
X0178934Y0385036D02*
X0178934Y0381099D01*
X0175292Y0377457D01*
X0175292Y0374701D01*
X0180627Y0374878D02*
X0180804Y0374701D01*
X0180627Y0374878D02*
X0180627Y0385036D01*
X0180627Y0382772D01*
X0181985Y0382772D01*
X0182379Y0383166D01*
X0182379Y0384977D01*
X0182320Y0385036D01*
X0182340Y0385016D01*
X0171552Y0382772D02*
X0171552Y0378638D01*
X0170962Y0378048D01*
X0170568Y0402063D02*
X0164269Y0408363D01*
X0197733Y0406394D02*
X0200096Y0406394D01*
X0200096Y0404819D01*
X0196847Y0394682D02*
X0200096Y0391434D01*
X0152891Y0507615D02*
X0154072Y0508796D01*
D94*
X0196946Y0354426D02*
X0200883Y0354426D01*
X0208363Y0346945D01*
X0208363Y0345764D01*
X0210725Y0343402D01*
X0210725Y0326079D01*
X0209151Y0324504D01*
X0203639Y0324504D01*
X0201670Y0326473D01*
X0201670Y0333166D01*
X0199702Y0335134D01*
X0195371Y0335134D01*
X0194190Y0336315D01*
X0194190Y0351670D01*
X0196946Y0354426D01*
X0196735Y0354214D02*
X0196735Y0335134D01*
X0197333Y0335134D02*
X0197333Y0354426D01*
X0197932Y0354426D02*
X0197932Y0335134D01*
X0198530Y0335134D02*
X0198530Y0354426D01*
X0199129Y0354426D02*
X0199129Y0335134D01*
X0199727Y0335109D02*
X0199727Y0354426D01*
X0200326Y0354426D02*
X0200326Y0334510D01*
X0200924Y0333912D02*
X0200924Y0354384D01*
X0201523Y0353786D02*
X0201523Y0333313D01*
X0199308Y0331197D02*
X0199308Y0326079D01*
X0198521Y0325292D01*
X0198521Y0316237D01*
X0194584Y0316237D01*
X0183954Y0326867D01*
X0183954Y0332378D01*
X0184347Y0332772D01*
X0197733Y0332772D01*
X0199308Y0331197D01*
X0199129Y0331377D02*
X0199129Y0325900D01*
X0198530Y0325301D02*
X0198530Y0331975D01*
X0197932Y0332574D02*
X0197932Y0316237D01*
X0197333Y0316237D02*
X0197333Y0332772D01*
X0196735Y0332772D02*
X0196735Y0316237D01*
X0196136Y0316237D02*
X0196136Y0332772D01*
X0195538Y0332772D02*
X0195538Y0316237D01*
X0194939Y0316237D02*
X0194939Y0332772D01*
X0194341Y0332772D02*
X0194341Y0316480D01*
X0193742Y0317078D02*
X0193742Y0332772D01*
X0193144Y0332772D02*
X0193144Y0317677D01*
X0192545Y0318275D02*
X0192545Y0332772D01*
X0191947Y0332772D02*
X0191947Y0318874D01*
X0191348Y0319472D02*
X0191348Y0332772D01*
X0190750Y0332772D02*
X0190750Y0320071D01*
X0190151Y0320669D02*
X0190151Y0332772D01*
X0189552Y0332772D02*
X0189552Y0321268D01*
X0188954Y0321866D02*
X0188954Y0332772D01*
X0188355Y0332772D02*
X0188355Y0322465D01*
X0187757Y0323063D02*
X0187757Y0332772D01*
X0187158Y0332772D02*
X0187158Y0323662D01*
X0186560Y0324260D02*
X0186560Y0332772D01*
X0185961Y0332772D02*
X0185961Y0324859D01*
X0185363Y0325457D02*
X0185363Y0332772D01*
X0184764Y0332772D02*
X0184764Y0326056D01*
X0184166Y0326655D02*
X0184166Y0332591D01*
X0180017Y0321749D02*
X0178048Y0321749D01*
X0171749Y0328048D01*
X0165450Y0328048D01*
X0162694Y0325292D01*
X0162694Y0322142D01*
X0168206Y0316630D01*
X0168206Y0308756D01*
X0172143Y0305213D01*
X0172143Y0285981D01*
X0172365Y0286041D01*
X0174205Y0286041D01*
X0174205Y0283269D01*
X0174805Y0283269D01*
X0177773Y0283269D01*
X0177773Y0284912D01*
X0177685Y0285242D01*
X0177514Y0285539D01*
X0177272Y0285781D01*
X0176975Y0285952D01*
X0176645Y0286041D01*
X0174805Y0286041D01*
X0174805Y0283269D01*
X0174805Y0282669D01*
X0177773Y0282669D01*
X0177773Y0281026D01*
X0177685Y0280696D01*
X0177514Y0280399D01*
X0177272Y0280157D01*
X0176975Y0279986D01*
X0176645Y0279897D01*
X0174805Y0279897D01*
X0174805Y0282669D01*
X0174205Y0282669D01*
X0174205Y0279897D01*
X0172365Y0279897D01*
X0172143Y0279957D01*
X0172143Y0272930D01*
X0174505Y0270567D01*
X0185529Y0270567D01*
X0188284Y0273323D01*
X0188284Y0291434D01*
X0186316Y0293402D01*
X0186316Y0298126D01*
X0185135Y0299308D01*
X0185135Y0316630D01*
X0180017Y0321749D01*
X0179976Y0321749D02*
X0179976Y0270567D01*
X0179378Y0270567D02*
X0179378Y0321749D01*
X0178779Y0321749D02*
X0178779Y0270567D01*
X0178181Y0270567D02*
X0178181Y0321749D01*
X0177582Y0322215D02*
X0177582Y0285420D01*
X0176984Y0285947D02*
X0176984Y0322813D01*
X0176385Y0323412D02*
X0176385Y0286041D01*
X0175787Y0286041D02*
X0175787Y0324010D01*
X0175188Y0324609D02*
X0175188Y0286041D01*
X0173991Y0286041D02*
X0173991Y0325806D01*
X0173393Y0326404D02*
X0173393Y0286041D01*
X0172794Y0286041D02*
X0172794Y0327003D01*
X0172196Y0327601D02*
X0172196Y0285995D01*
X0174590Y0283269D02*
X0174590Y0325207D01*
X0171597Y0328048D02*
X0171597Y0305704D01*
X0170999Y0306243D02*
X0170999Y0328048D01*
X0170400Y0328048D02*
X0170400Y0306781D01*
X0169802Y0307320D02*
X0169802Y0328048D01*
X0169203Y0328048D02*
X0169203Y0307859D01*
X0168605Y0308397D02*
X0168605Y0328048D01*
X0168006Y0328048D02*
X0168006Y0316830D01*
X0167408Y0317429D02*
X0167408Y0328048D01*
X0166809Y0328048D02*
X0166809Y0318027D01*
X0166211Y0318626D02*
X0166211Y0328048D01*
X0165612Y0328048D02*
X0165612Y0319224D01*
X0165014Y0319823D02*
X0165014Y0327611D01*
X0164415Y0327013D02*
X0164415Y0320421D01*
X0163817Y0321020D02*
X0163817Y0326414D01*
X0163218Y0325816D02*
X0163218Y0321618D01*
X0180575Y0321190D02*
X0180575Y0270567D01*
X0181173Y0270567D02*
X0181173Y0320592D01*
X0181772Y0319993D02*
X0181772Y0270567D01*
X0182370Y0270567D02*
X0182370Y0319395D01*
X0182969Y0318796D02*
X0182969Y0270567D01*
X0183567Y0270567D02*
X0183567Y0318198D01*
X0184166Y0317599D02*
X0184166Y0270567D01*
X0184764Y0270567D02*
X0184764Y0317001D01*
X0185363Y0299080D02*
X0185363Y0270567D01*
X0185961Y0271000D02*
X0185961Y0298481D01*
X0186560Y0293158D02*
X0186560Y0271599D01*
X0187158Y0272197D02*
X0187158Y0292560D01*
X0187757Y0291961D02*
X0187757Y0272796D01*
X0190647Y0268205D02*
X0190647Y0267812D01*
X0177582Y0270567D02*
X0177582Y0280518D01*
X0176984Y0279991D02*
X0176984Y0270567D01*
X0176385Y0270567D02*
X0176385Y0279897D01*
X0175787Y0279897D02*
X0175787Y0270567D01*
X0175188Y0270567D02*
X0175188Y0279897D01*
X0173991Y0279897D02*
X0173991Y0271081D01*
X0174590Y0270567D02*
X0174590Y0282669D01*
X0175188Y0282669D02*
X0175188Y0283269D01*
X0175787Y0283269D02*
X0175787Y0282669D01*
X0176385Y0282669D02*
X0176385Y0283269D01*
X0176984Y0283269D02*
X0176984Y0282669D01*
X0177582Y0282669D02*
X0177582Y0283269D01*
X0173393Y0279897D02*
X0173393Y0271680D01*
X0172794Y0272278D02*
X0172794Y0279897D01*
X0172196Y0279943D02*
X0172196Y0272877D01*
X0203318Y0324825D02*
X0203318Y0351990D01*
X0203917Y0351392D02*
X0203917Y0324504D01*
X0204515Y0324504D02*
X0204515Y0350793D01*
X0205114Y0350195D02*
X0205114Y0324504D01*
X0205712Y0324504D02*
X0205712Y0349596D01*
X0206311Y0348998D02*
X0206311Y0324504D01*
X0206909Y0324504D02*
X0206909Y0348399D01*
X0207508Y0347801D02*
X0207508Y0324504D01*
X0208106Y0324504D02*
X0208106Y0347202D01*
X0208705Y0345423D02*
X0208705Y0324504D01*
X0209303Y0324657D02*
X0209303Y0344824D01*
X0209902Y0344226D02*
X0209902Y0325256D01*
X0210500Y0325854D02*
X0210500Y0343627D01*
X0202720Y0352589D02*
X0202720Y0325423D01*
X0202121Y0326022D02*
X0202121Y0353187D01*
X0196136Y0353616D02*
X0196136Y0335134D01*
X0195538Y0335134D02*
X0195538Y0353017D01*
X0194939Y0352419D02*
X0194939Y0335566D01*
X0194341Y0336165D02*
X0194341Y0351820D01*
D317*
X0189072Y0356000D02*
X0189072Y0361906D01*
X0200096Y0372930D01*
X0209151Y0372930D01*
X0217812Y0381591D01*
X0217812Y0390252D01*
X0218206Y0418993D01*
X0218206Y0456394D01*
X0212300Y0462300D01*
X0189072Y0462300D01*
X0176473Y0459150D02*
X0174505Y0457182D01*
X0176473Y0459150D02*
X0176473Y0466237D01*
X0171355Y0457182D02*
X0166237Y0462300D01*
X0150096Y0462300D01*
X0144977Y0452063D02*
X0157182Y0452063D01*
X0162300Y0457182D01*
X0167025Y0457182D01*
X0168698Y0455508D01*
X0168698Y0447142D01*
X0171257Y0447142D02*
X0171355Y0447241D01*
X0171355Y0457182D01*
X0166237Y0452457D02*
X0166237Y0447241D01*
X0166139Y0447142D01*
X0163580Y0447142D02*
X0162989Y0446552D01*
X0142221Y0446552D01*
X0133757Y0438087D01*
X0135529Y0449308D02*
X0133954Y0450882D01*
X0135529Y0449308D02*
X0158363Y0449308D01*
X0161907Y0452851D01*
X0165844Y0452851D01*
X0166237Y0452457D01*
X0166139Y0430213D02*
X0166139Y0426375D01*
X0163481Y0423717D01*
X0161907Y0417812D02*
X0168993Y0417812D01*
X0171257Y0420075D01*
X0171257Y0430213D01*
X0168698Y0430213D02*
X0168698Y0423028D01*
X0167812Y0422142D01*
X0172930Y0417024D02*
X0172930Y0414071D01*
X0172930Y0417024D02*
X0175292Y0419386D01*
X0178048Y0419386D01*
X0179623Y0417812D01*
X0179623Y0414071D01*
X0183166Y0420961D02*
X0204820Y0442615D01*
X0205607Y0442615D01*
X0212300Y0449308D01*
X0212300Y0441434D02*
X0205607Y0434741D01*
X0191434Y0420567D01*
X0189072Y0420567D01*
X0192615Y0386709D02*
X0193796Y0386709D01*
X0197930Y0382575D01*
X0197930Y0380016D01*
X0191828Y0374111D02*
X0186316Y0374111D01*
X0186316Y0374701D01*
X0180804Y0374701D01*
X0180804Y0368008D02*
X0180804Y0365449D01*
X0184741Y0361512D01*
X0178442Y0361512D01*
X0175292Y0364662D01*
X0175292Y0368008D01*
X0184741Y0361512D02*
X0186316Y0363087D01*
X0186316Y0368008D01*
X0189072Y0356000D02*
X0187497Y0354426D01*
X0184544Y0354426D01*
X0177851Y0354426D02*
X0154151Y0354426D01*
X0154111Y0354386D01*
X0154111Y0349623D01*
X0157379Y0346355D01*
X0157379Y0343402D01*
X0156001Y0336709D02*
X0140253Y0352457D01*
X0140253Y0390646D01*
X0145765Y0396158D01*
X0161907Y0396158D01*
X0165450Y0399701D01*
X0165450Y0401276D01*
X0164269Y0408363D02*
X0157576Y0401670D01*
X0152655Y0401670D01*
X0155607Y0411119D02*
X0156592Y0412103D01*
X0156592Y0425292D01*
X0156592Y0431197D01*
X0157576Y0430213D01*
X0163580Y0430213D01*
X0149899Y0431197D02*
X0147930Y0433166D01*
X0144584Y0433166D01*
X0144584Y0428048D01*
X0147340Y0425292D01*
X0149899Y0425292D01*
X0145962Y0401670D02*
X0139859Y0401670D01*
X0133166Y0394977D01*
X0133166Y0346552D01*
X0137891Y0341827D01*
X0137891Y0309859D01*
X0142891Y0304859D01*
X0147576Y0309544D01*
X0151867Y0309544D01*
X0151867Y0317812D02*
X0151867Y0321158D01*
X0153245Y0322536D01*
X0154820Y0322536D01*
X0156001Y0323717D01*
X0156001Y0327063D01*
X0156001Y0333756D02*
X0156001Y0336709D01*
X0164072Y0340056D02*
X0164072Y0343402D01*
X0164072Y0340056D02*
X0180017Y0324111D01*
X0182379Y0324111D01*
X0187497Y0318993D01*
X0187497Y0309544D01*
X0193796Y0303245D01*
X0199702Y0303245D01*
X0204033Y0298914D01*
X0204033Y0275292D01*
X0197340Y0272930D02*
X0195371Y0272930D01*
X0190647Y0268205D01*
X0190647Y0294189D01*
X0190647Y0267812D02*
X0189072Y0266237D01*
X0162694Y0266237D01*
X0161907Y0267024D01*
X0154426Y0272142D02*
X0154229Y0272339D01*
X0154352Y0287103D02*
X0154352Y0293796D01*
X0153354Y0293796D02*
X0153354Y0287103D01*
X0152355Y0287103D02*
X0152355Y0293796D01*
X0151357Y0293796D02*
X0151357Y0287103D01*
X0151277Y0287103D02*
X0149702Y0288678D01*
X0149702Y0292615D01*
X0150883Y0293796D01*
X0156001Y0293796D01*
X0156499Y0294067D01*
X0158174Y0294067D01*
X0158174Y0296953D01*
X0158946Y0296953D01*
X0158946Y0294067D01*
X0160726Y0294067D01*
X0161108Y0294170D01*
X0161450Y0294367D01*
X0161729Y0294646D01*
X0161926Y0294988D01*
X0162029Y0295370D01*
X0162029Y0296953D01*
X0158946Y0296953D01*
X0158946Y0297725D01*
X0158174Y0297725D01*
X0158174Y0300611D01*
X0158166Y0300611D01*
X0158166Y0301276D01*
X0164344Y0301276D01*
X0164344Y0300284D01*
X0167229Y0300284D01*
X0167229Y0299512D01*
X0164344Y0299512D01*
X0164344Y0298914D01*
X0164308Y0298914D01*
X0164308Y0296042D01*
X0164144Y0295878D01*
X0164144Y0293618D01*
X0156395Y0287103D01*
X0151277Y0287103D01*
X0150358Y0288021D02*
X0150358Y0293271D01*
X0155351Y0293796D02*
X0155351Y0287103D01*
X0156350Y0287103D02*
X0156350Y0293986D01*
X0157348Y0294067D02*
X0157348Y0287904D01*
X0158347Y0288744D02*
X0158347Y0296953D01*
X0158560Y0297339D02*
X0158560Y0309544D01*
X0158560Y0317812D01*
X0151867Y0317812D02*
X0145844Y0317812D01*
X0142891Y0314859D01*
X0158347Y0301276D02*
X0158347Y0297725D01*
X0158946Y0297725D02*
X0158946Y0300611D01*
X0160726Y0300611D01*
X0161108Y0300508D01*
X0161450Y0300311D01*
X0161729Y0300032D01*
X0161926Y0299690D01*
X0162029Y0299308D01*
X0162029Y0297725D01*
X0158946Y0297725D01*
X0159345Y0297725D02*
X0159345Y0296953D01*
X0160344Y0296953D02*
X0160344Y0297725D01*
X0161342Y0297725D02*
X0161342Y0296953D01*
X0161342Y0294305D02*
X0161342Y0291263D01*
X0162341Y0292102D02*
X0162341Y0301276D01*
X0163339Y0301276D02*
X0163339Y0292942D01*
X0160344Y0294067D02*
X0160344Y0290423D01*
X0159345Y0289583D02*
X0159345Y0294067D01*
X0159345Y0300611D02*
X0159345Y0301276D01*
X0160344Y0301276D02*
X0160344Y0300611D01*
X0161342Y0300373D02*
X0161342Y0301276D01*
X0164338Y0301276D02*
X0164338Y0298914D01*
X0165336Y0299512D02*
X0165336Y0300284D01*
X0166335Y0300284D02*
X0166335Y0299512D01*
X0154111Y0374386D02*
X0156592Y0376867D01*
X0162694Y0376867D01*
X0164859Y0379032D01*
X0164859Y0382772D01*
X0144977Y0452063D02*
X0133954Y0463087D01*
X0152891Y0484859D02*
X0152891Y0501709D01*
X0154033Y0502851D01*
X0154033Y0508756D01*
X0154072Y0508796D01*
X0160725Y0500489D02*
X0174505Y0500489D01*
X0181395Y0493599D01*
X0187300Y0493599D01*
D268*
X0151867Y0297339D02*
X0148521Y0297339D01*
X0147340Y0296158D01*
X0144190Y0296158D01*
X0142891Y0294859D01*
X0157970Y0277654D02*
X0157970Y0272339D01*
X0154426Y0272142D02*
X0154426Y0268599D01*
X0155607Y0267418D01*
X0161513Y0267418D01*
X0161907Y0267024D01*
X0161907Y0272142D01*
X0161710Y0272339D01*
X0161710Y0282969D02*
X0167812Y0282969D01*
X0167812Y0290252D01*
X0167615Y0293205D01*
D136*
X0213875Y0344189D02*
X0211907Y0346158D01*
X0211907Y0349592D01*
X0211949Y0349592D01*
X0211949Y0353315D01*
X0212494Y0354224D01*
X0212494Y0349592D01*
X0216188Y0349592D01*
X0217019Y0349723D01*
X0217819Y0349983D01*
X0218569Y0350365D01*
X0219250Y0350860D01*
X0219845Y0351455D01*
X0220339Y0352136D01*
X0220721Y0352885D01*
X0220981Y0353686D01*
X0221113Y0354517D01*
X0221113Y0354665D01*
X0212759Y0354665D01*
X0213086Y0355210D01*
X0221113Y0355210D01*
X0221113Y0355213D01*
X0223324Y0355213D01*
X0223324Y0295371D01*
X0220962Y0293008D01*
X0217812Y0293008D01*
X0215844Y0294977D01*
X0215844Y0312693D01*
X0219781Y0314268D01*
X0220338Y0315383D01*
X0220691Y0315869D01*
X0221064Y0316600D01*
X0221317Y0317379D01*
X0221445Y0318189D01*
X0221445Y0318395D01*
X0216441Y0318395D01*
X0216441Y0318803D01*
X0221445Y0318803D01*
X0221445Y0319009D01*
X0221317Y0319818D01*
X0221064Y0320598D01*
X0220691Y0321328D01*
X0220568Y0321498D01*
X0220568Y0321749D01*
X0218599Y0323717D01*
X0217214Y0323717D01*
X0216647Y0323807D01*
X0216441Y0323807D01*
X0216441Y0323717D01*
X0216237Y0323717D01*
X0213875Y0326079D01*
X0213875Y0344189D01*
X0213448Y0344616D02*
X0213448Y0349592D01*
X0215047Y0349592D02*
X0215047Y0324907D01*
X0216645Y0323807D02*
X0216645Y0349664D01*
X0218244Y0350200D02*
X0218244Y0323717D01*
X0219842Y0322474D02*
X0219842Y0351453D01*
X0219842Y0354665D02*
X0219842Y0355210D01*
X0218244Y0355210D02*
X0218244Y0354665D01*
X0216645Y0354665D02*
X0216645Y0355210D01*
X0215047Y0355210D02*
X0215047Y0354665D01*
X0213448Y0354665D02*
X0213448Y0355210D01*
X0221441Y0355213D02*
X0221441Y0319036D01*
X0221441Y0318803D02*
X0221441Y0318395D01*
X0221441Y0318162D02*
X0221441Y0293488D01*
X0219842Y0293008D02*
X0219842Y0314392D01*
X0218244Y0313654D02*
X0218244Y0293008D01*
X0216645Y0294175D02*
X0216645Y0313014D01*
X0216645Y0318395D02*
X0216645Y0318803D01*
X0218244Y0318803D02*
X0218244Y0318395D01*
X0219842Y0318395D02*
X0219842Y0318803D01*
X0223039Y0295086D02*
X0223039Y0355213D01*
X0248222Y0000000D02*
G75*
%LPD*%
D454*
X0295368Y0168307D03*
X0292809Y0168307D03*
X0290250Y0168307D03*
X0287691Y0168307D03*
X0287691Y0185236D03*
X0290250Y0185236D03*
X0292809Y0185236D03*
X0295368Y0185236D03*
D237*
X0262398Y0165906D02*
X0255307Y0165906D01*
X0255307Y0155906D02*
X0262398Y0155906D01*
X0262398Y0145906D02*
X0255307Y0145906D01*
X0274677Y0122480D02*
X0281768Y0122480D01*
X0281768Y0112480D02*
X0274677Y0112480D01*
X0274677Y0102480D02*
X0281768Y0102480D01*
X0281768Y0092480D02*
X0274677Y0092480D01*
X0306094Y0080591D02*
X0313185Y0080591D01*
X0313185Y0070591D02*
X0306094Y0070591D01*
X0319600Y0054412D02*
X0319600Y0047320D01*
X0329600Y0047320D02*
X0329600Y0054412D01*
X0332787Y0093031D02*
X0339878Y0093031D01*
X0339878Y0103031D02*
X0332787Y0103031D01*
D388*
X0322041Y0118110D03*
X0315348Y0118110D03*
X0308655Y0092520D03*
X0301962Y0092520D03*
X0288183Y0081496D03*
X0281490Y0081496D03*
X0282671Y0055906D03*
X0282671Y0047638D03*
X0275978Y0047638D03*
X0275978Y0055906D03*
X0275978Y0035433D03*
X0282671Y0035433D03*
X0291923Y0021063D03*
X0298616Y0021063D03*
X0295663Y0120866D03*
X0288970Y0120866D03*
X0276766Y0139764D03*
X0270073Y0139764D03*
X0274010Y0163386D03*
X0274010Y0169291D03*
X0280703Y0169291D03*
X0280703Y0163386D03*
D801*
X0278340Y0021063D03*
X0285821Y0021063D03*
X0285821Y0010433D03*
X0282081Y0010433D03*
X0278340Y0010433D03*
D417*
X0267002Y0042953D03*
X0267002Y0052953D03*
X0267002Y0062953D03*
X0267002Y0072953D03*
X0257002Y0072953D03*
X0257002Y0062953D03*
X0257002Y0052953D03*
X0257002Y0042953D03*
X0257002Y0032953D03*
X0267002Y0212953D03*
X0267002Y0222953D03*
X0277002Y0222953D03*
X0277002Y0212953D03*
X0257002Y0222953D03*
D224*
X0257002Y0212953D03*
X0267002Y0032953D03*
D274*
X0301470Y0125413D03*
X0301470Y0127106D03*
X0301470Y0128799D03*
X0301470Y0130492D03*
X0313084Y0130492D03*
X0313084Y0128799D03*
X0313084Y0127106D03*
X0313084Y0125413D03*
D382*
X0313203Y0123130D03*
X0311510Y0123130D03*
X0309817Y0123130D03*
X0308124Y0123130D03*
X0306431Y0123130D03*
X0304738Y0123130D03*
X0303045Y0123130D03*
X0301352Y0123130D03*
X0301352Y0132776D03*
X0303045Y0132776D03*
X0304738Y0132776D03*
X0306431Y0132776D03*
X0308124Y0132776D03*
X0309817Y0132776D03*
X0311510Y0132776D03*
X0313203Y0132776D03*
D252*
X0303734Y0145472D03*
X0303734Y0152165D03*
X0297041Y0152165D03*
X0297041Y0145472D03*
X0299403Y0112795D03*
X0299403Y0106102D03*
X0304915Y0106102D03*
X0304915Y0112795D03*
X0310427Y0112795D03*
X0310427Y0106102D03*
X0280112Y0071850D03*
X0280112Y0065157D03*
X0291726Y0037992D03*
X0291726Y0031299D03*
D182*
X0324207Y0129528D03*
X0319482Y0137795D03*
X0324207Y0144488D03*
X0317120Y0148031D03*
X0310427Y0150787D03*
X0278183Y0246890D03*
D106*
X0311411Y0249409D03*
X0311411Y0231693D03*
X0337002Y0231693D03*
X0337002Y0249409D03*
D451*
X0360565Y0031102D03*
X0360565Y0057087D03*
D232*
X0274207Y0200394D03*
X0258065Y0201181D03*
X0258065Y0188976D03*
X0257868Y0176181D03*
X0300584Y0204331D03*
D135*
X0349246Y0174567D03*
X0349246Y0164567D03*
X0359246Y0164567D03*
X0359246Y0174567D03*
X0333262Y0125591D03*
X0328931Y0118110D03*
X0319482Y0098425D03*
X0340348Y0056693D03*
X0271451Y0015748D03*
D43*
X0277750Y0026969D03*
X0279718Y0030118D03*
X0275781Y0030118D03*
X0282081Y0015748D03*
X0286018Y0005118D03*
X0302947Y0029528D03*
X0306490Y0029528D03*
X0306490Y0022441D03*
X0306490Y0014173D03*
X0314758Y0032283D03*
X0306490Y0045669D03*
X0302947Y0045669D03*
X0317514Y0066535D03*
X0320663Y0064961D03*
X0320663Y0068504D03*
X0320269Y0075591D03*
X0320269Y0080315D03*
X0320269Y0085039D03*
X0323419Y0089370D03*
X0326175Y0085039D03*
X0330899Y0074803D03*
X0339561Y0067323D03*
X0341136Y0064173D03*
X0343498Y0066929D03*
X0340348Y0074409D03*
X0353340Y0065354D03*
X0360427Y0078346D03*
X0343892Y0042520D03*
X0343892Y0038976D03*
X0343892Y0035433D03*
X0335230Y0017323D03*
X0328144Y0013386D03*
X0321451Y0011024D03*
X0273813Y0068110D03*
X0289167Y0097244D03*
X0295073Y0116142D03*
X0291923Y0128740D03*
X0286018Y0134252D03*
X0281687Y0139764D03*
X0279718Y0149213D03*
X0286018Y0155906D03*
X0287592Y0161811D03*
X0291923Y0160236D03*
X0299403Y0157480D03*
X0307277Y0159055D03*
X0313183Y0158661D03*
X0303340Y0139370D03*
X0307277Y0127953D03*
X0316726Y0128346D03*
X0316726Y0124803D03*
X0315939Y0112205D03*
X0308852Y0099606D03*
X0289561Y0139370D03*
X0288380Y0146457D03*
X0269088Y0150787D03*
X0268695Y0171260D03*
X0272238Y0180709D03*
X0279325Y0175984D03*
X0279325Y0194094D03*
X0291136Y0213780D03*
X0298616Y0229134D03*
X0308458Y0238976D03*
X0304915Y0246063D03*
X0321451Y0222047D03*
X0327356Y0221260D03*
X0313183Y0200394D03*
X0305703Y0194882D03*
X0298616Y0195276D03*
X0301766Y0179921D03*
X0310033Y0211417D03*
X0322238Y0190748D03*
X0329718Y0180709D03*
X0329718Y0172835D03*
X0336411Y0179528D03*
X0336411Y0187402D03*
X0329325Y0153937D03*
X0329718Y0146457D03*
X0337199Y0131496D03*
X0349010Y0138583D03*
X0351766Y0129528D03*
X0362002Y0136220D03*
X0362002Y0121260D03*
X0362002Y0151969D03*
X0362002Y0187008D03*
X0360821Y0201575D03*
X0354521Y0225197D03*
X0346254Y0221260D03*
X0324994Y0251181D03*
X0286018Y0246457D03*
X0284836Y0238583D03*
X0273813Y0251181D03*
X0252947Y0230315D03*
X0252553Y0126772D03*
X0252553Y0111811D03*
X0252553Y0102756D03*
X0252553Y0093701D03*
X0252553Y0084646D03*
D392*
X0286411Y0133858D02*
X0286018Y0134252D01*
X0286411Y0133858D02*
X0286411Y0129921D01*
X0290919Y0125413D01*
X0301470Y0125413D01*
X0301470Y0127106D02*
X0293557Y0127106D01*
X0291923Y0128740D01*
X0294679Y0130709D02*
X0296588Y0128799D01*
X0301470Y0128799D01*
X0301470Y0130492D02*
X0299620Y0130492D01*
X0297041Y0133071D01*
X0297041Y0145472D01*
X0300584Y0144882D02*
X0300584Y0142323D01*
X0299403Y0141142D01*
X0299403Y0134646D01*
X0301273Y0132776D01*
X0301352Y0132776D01*
X0303045Y0132776D02*
X0303045Y0139075D01*
X0303340Y0139370D01*
X0304738Y0137972D01*
X0304738Y0132776D01*
X0306431Y0132776D02*
X0306431Y0142854D01*
X0310427Y0146850D01*
X0310427Y0150787D01*
X0312002Y0145669D02*
X0313577Y0145669D01*
X0315939Y0148031D01*
X0317120Y0148031D01*
X0321844Y0144488D02*
X0320269Y0142913D01*
X0312789Y0142913D01*
X0309817Y0139941D01*
X0309817Y0132776D01*
X0311510Y0132776D02*
X0311510Y0134154D01*
X0315151Y0137795D01*
X0319482Y0137795D01*
X0320958Y0132776D02*
X0313203Y0132776D01*
X0313084Y0130492D02*
X0314581Y0130492D01*
X0316726Y0128346D01*
X0315486Y0127106D01*
X0313084Y0127106D01*
X0313084Y0125413D02*
X0316116Y0125413D01*
X0316726Y0124803D01*
X0315053Y0123130D01*
X0313203Y0123130D01*
X0311510Y0123130D01*
X0309817Y0123130D01*
X0308144Y0123110D02*
X0308124Y0123130D01*
X0308144Y0123071D01*
X0308144Y0123110D02*
X0308144Y0120827D01*
X0310821Y0118110D01*
X0315348Y0118110D01*
X0316726Y0128346D02*
X0316273Y0128799D01*
X0313084Y0128799D01*
X0308124Y0132776D02*
X0308124Y0141791D01*
X0312002Y0145669D01*
X0303734Y0145472D02*
X0303537Y0145276D01*
X0300978Y0145276D01*
X0300584Y0144882D01*
X0294679Y0140157D02*
X0294679Y0130709D01*
X0295663Y0120866D02*
X0299088Y0120866D01*
X0301352Y0123130D01*
X0303045Y0123130D02*
X0303045Y0119193D01*
X0299403Y0115551D01*
X0299403Y0112795D01*
X0304738Y0112972D02*
X0304915Y0112795D01*
X0304738Y0112972D02*
X0304738Y0123130D01*
X0304738Y0120866D01*
X0306096Y0120866D01*
X0306490Y0121260D01*
X0306490Y0123071D01*
X0306431Y0123130D01*
X0306451Y0123110D01*
X0295663Y0120866D02*
X0295663Y0116732D01*
X0295073Y0116142D01*
X0294679Y0140157D02*
X0288380Y0146457D01*
X0321844Y0144488D02*
X0324207Y0144488D01*
X0324207Y0142913D01*
X0320958Y0132776D02*
X0324207Y0129528D01*
X0277002Y0245709D02*
X0278183Y0246890D01*
D94*
X0321057Y0092520D02*
X0324994Y0092520D01*
X0332474Y0085039D01*
X0332474Y0083858D01*
X0334836Y0081496D01*
X0334836Y0064173D01*
X0333262Y0062598D01*
X0327750Y0062598D01*
X0325781Y0064567D01*
X0325781Y0071260D01*
X0323813Y0073228D01*
X0319482Y0073228D01*
X0318301Y0074409D01*
X0318301Y0089764D01*
X0321057Y0092520D01*
X0320846Y0092308D02*
X0320846Y0073228D01*
X0321444Y0073228D02*
X0321444Y0092520D01*
X0322043Y0092520D02*
X0322043Y0073228D01*
X0322641Y0073228D02*
X0322641Y0092520D01*
X0323240Y0092520D02*
X0323240Y0073228D01*
X0323838Y0073203D02*
X0323838Y0092520D01*
X0324437Y0092520D02*
X0324437Y0072604D01*
X0325035Y0072006D02*
X0325035Y0092478D01*
X0325634Y0091880D02*
X0325634Y0071407D01*
X0323419Y0069291D02*
X0323419Y0064173D01*
X0322632Y0063386D01*
X0322632Y0054331D01*
X0318695Y0054331D01*
X0308065Y0064961D01*
X0308065Y0070472D01*
X0308458Y0070866D01*
X0321844Y0070866D01*
X0323419Y0069291D01*
X0323240Y0069471D02*
X0323240Y0063994D01*
X0322641Y0063395D02*
X0322641Y0070069D01*
X0322043Y0070668D02*
X0322043Y0054331D01*
X0321444Y0054331D02*
X0321444Y0070866D01*
X0320846Y0070866D02*
X0320846Y0054331D01*
X0320247Y0054331D02*
X0320247Y0070866D01*
X0319649Y0070866D02*
X0319649Y0054331D01*
X0319050Y0054331D02*
X0319050Y0070866D01*
X0318452Y0070866D02*
X0318452Y0054574D01*
X0317853Y0055172D02*
X0317853Y0070866D01*
X0317255Y0070866D02*
X0317255Y0055771D01*
X0316656Y0056369D02*
X0316656Y0070866D01*
X0316058Y0070866D02*
X0316058Y0056968D01*
X0315459Y0057566D02*
X0315459Y0070866D01*
X0314861Y0070866D02*
X0314861Y0058165D01*
X0314262Y0058763D02*
X0314262Y0070866D01*
X0313663Y0070866D02*
X0313663Y0059362D01*
X0313065Y0059960D02*
X0313065Y0070866D01*
X0312466Y0070866D02*
X0312466Y0060559D01*
X0311868Y0061157D02*
X0311868Y0070866D01*
X0311269Y0070866D02*
X0311269Y0061756D01*
X0310671Y0062354D02*
X0310671Y0070866D01*
X0310072Y0070866D02*
X0310072Y0062953D01*
X0309474Y0063551D02*
X0309474Y0070866D01*
X0308875Y0070866D02*
X0308875Y0064150D01*
X0308277Y0064749D02*
X0308277Y0070685D01*
X0304128Y0059843D02*
X0302159Y0059843D01*
X0295860Y0066142D01*
X0289561Y0066142D01*
X0286805Y0063386D01*
X0286805Y0060236D01*
X0292317Y0054724D01*
X0292317Y0046850D01*
X0296254Y0043307D01*
X0296254Y0024075D01*
X0296476Y0024135D01*
X0298316Y0024135D01*
X0298316Y0021363D01*
X0298916Y0021363D01*
X0301884Y0021363D01*
X0301884Y0023006D01*
X0301796Y0023336D01*
X0301625Y0023633D01*
X0301383Y0023875D01*
X0301086Y0024046D01*
X0300756Y0024135D01*
X0298916Y0024135D01*
X0298916Y0021363D01*
X0298916Y0020763D01*
X0301884Y0020763D01*
X0301884Y0019120D01*
X0301796Y0018790D01*
X0301625Y0018493D01*
X0301383Y0018251D01*
X0301086Y0018080D01*
X0300756Y0017991D01*
X0298916Y0017991D01*
X0298916Y0020763D01*
X0298316Y0020763D01*
X0298316Y0017991D01*
X0296476Y0017991D01*
X0296254Y0018051D01*
X0296254Y0011024D01*
X0298616Y0008661D01*
X0309640Y0008661D01*
X0312395Y0011417D01*
X0312395Y0029528D01*
X0310427Y0031496D01*
X0310427Y0036220D01*
X0309246Y0037402D01*
X0309246Y0054724D01*
X0304128Y0059843D01*
X0304087Y0059843D02*
X0304087Y0008661D01*
X0303489Y0008661D02*
X0303489Y0059843D01*
X0302890Y0059843D02*
X0302890Y0008661D01*
X0302292Y0008661D02*
X0302292Y0059843D01*
X0301693Y0060309D02*
X0301693Y0023514D01*
X0301095Y0024041D02*
X0301095Y0060907D01*
X0300496Y0061506D02*
X0300496Y0024135D01*
X0299898Y0024135D02*
X0299898Y0062104D01*
X0299299Y0062703D02*
X0299299Y0024135D01*
X0298102Y0024135D02*
X0298102Y0063900D01*
X0297504Y0064498D02*
X0297504Y0024135D01*
X0296905Y0024135D02*
X0296905Y0065097D01*
X0296307Y0065695D02*
X0296307Y0024089D01*
X0298701Y0021363D02*
X0298701Y0063301D01*
X0295708Y0066142D02*
X0295708Y0043798D01*
X0295110Y0044337D02*
X0295110Y0066142D01*
X0294511Y0066142D02*
X0294511Y0044875D01*
X0293913Y0045414D02*
X0293913Y0066142D01*
X0293314Y0066142D02*
X0293314Y0045953D01*
X0292716Y0046491D02*
X0292716Y0066142D01*
X0292117Y0066142D02*
X0292117Y0054924D01*
X0291519Y0055523D02*
X0291519Y0066142D01*
X0290920Y0066142D02*
X0290920Y0056121D01*
X0290322Y0056720D02*
X0290322Y0066142D01*
X0289723Y0066142D02*
X0289723Y0057318D01*
X0289125Y0057917D02*
X0289125Y0065705D01*
X0288526Y0065107D02*
X0288526Y0058515D01*
X0287928Y0059114D02*
X0287928Y0064508D01*
X0287329Y0063910D02*
X0287329Y0059712D01*
X0304686Y0059284D02*
X0304686Y0008661D01*
X0305284Y0008661D02*
X0305284Y0058686D01*
X0305883Y0058087D02*
X0305883Y0008661D01*
X0306481Y0008661D02*
X0306481Y0057489D01*
X0307080Y0056890D02*
X0307080Y0008661D01*
X0307678Y0008661D02*
X0307678Y0056292D01*
X0308277Y0055693D02*
X0308277Y0008661D01*
X0308875Y0008661D02*
X0308875Y0055095D01*
X0309474Y0037174D02*
X0309474Y0008661D01*
X0310072Y0009094D02*
X0310072Y0036575D01*
X0310671Y0031252D02*
X0310671Y0009693D01*
X0311269Y0010291D02*
X0311269Y0030654D01*
X0311868Y0030055D02*
X0311868Y0010890D01*
X0314758Y0006299D02*
X0314758Y0005906D01*
X0301693Y0008661D02*
X0301693Y0018612D01*
X0301095Y0018085D02*
X0301095Y0008661D01*
X0300496Y0008661D02*
X0300496Y0017991D01*
X0299898Y0017991D02*
X0299898Y0008661D01*
X0299299Y0008661D02*
X0299299Y0017991D01*
X0298102Y0017991D02*
X0298102Y0009175D01*
X0298701Y0008661D02*
X0298701Y0020763D01*
X0299299Y0020763D02*
X0299299Y0021363D01*
X0299898Y0021363D02*
X0299898Y0020763D01*
X0300496Y0020763D02*
X0300496Y0021363D01*
X0301095Y0021363D02*
X0301095Y0020763D01*
X0301693Y0020763D02*
X0301693Y0021363D01*
X0297504Y0017991D02*
X0297504Y0009774D01*
X0296905Y0010372D02*
X0296905Y0017991D01*
X0296307Y0018037D02*
X0296307Y0010971D01*
X0327429Y0062919D02*
X0327429Y0090084D01*
X0328028Y0089486D02*
X0328028Y0062598D01*
X0328626Y0062598D02*
X0328626Y0088887D01*
X0329225Y0088289D02*
X0329225Y0062598D01*
X0329823Y0062598D02*
X0329823Y0087690D01*
X0330422Y0087092D02*
X0330422Y0062598D01*
X0331020Y0062598D02*
X0331020Y0086493D01*
X0331619Y0085895D02*
X0331619Y0062598D01*
X0332217Y0062598D02*
X0332217Y0085296D01*
X0332816Y0083517D02*
X0332816Y0062598D01*
X0333414Y0062751D02*
X0333414Y0082918D01*
X0334013Y0082320D02*
X0334013Y0063350D01*
X0334611Y0063948D02*
X0334611Y0081721D01*
X0326831Y0090683D02*
X0326831Y0063517D01*
X0326232Y0064116D02*
X0326232Y0091281D01*
X0320247Y0091710D02*
X0320247Y0073228D01*
X0319649Y0073228D02*
X0319649Y0091111D01*
X0319050Y0090513D02*
X0319050Y0073660D01*
X0318452Y0074259D02*
X0318452Y0089914D01*
D317*
X0313183Y0094094D02*
X0313183Y0100000D01*
X0324207Y0111024D01*
X0333262Y0111024D01*
X0341923Y0119685D01*
X0341923Y0128346D01*
X0342317Y0157087D01*
X0342317Y0194488D01*
X0336411Y0200394D01*
X0313183Y0200394D01*
X0300584Y0197244D02*
X0298616Y0195276D01*
X0300584Y0197244D02*
X0300584Y0204331D01*
X0295466Y0195276D02*
X0290348Y0200394D01*
X0274207Y0200394D01*
X0269088Y0190157D02*
X0281293Y0190157D01*
X0286411Y0195276D01*
X0291136Y0195276D01*
X0292809Y0193602D01*
X0292809Y0185236D01*
X0295368Y0185236D02*
X0295466Y0185335D01*
X0295466Y0195276D01*
X0290348Y0190551D02*
X0290348Y0185335D01*
X0290250Y0185236D01*
X0287691Y0185236D02*
X0287100Y0184646D01*
X0266332Y0184646D01*
X0257868Y0176181D01*
X0259640Y0187402D02*
X0258065Y0188976D01*
X0259640Y0187402D02*
X0282474Y0187402D01*
X0286018Y0190945D01*
X0289955Y0190945D01*
X0290348Y0190551D01*
X0290250Y0168307D02*
X0290250Y0164469D01*
X0287592Y0161811D01*
X0286018Y0155906D02*
X0293104Y0155906D01*
X0295368Y0158169D01*
X0295368Y0168307D01*
X0292809Y0168307D02*
X0292809Y0161122D01*
X0291923Y0160236D01*
X0297041Y0155118D02*
X0297041Y0152165D01*
X0297041Y0155118D02*
X0299403Y0157480D01*
X0302159Y0157480D01*
X0303734Y0155906D01*
X0303734Y0152165D01*
X0307277Y0159055D02*
X0328931Y0180709D01*
X0329718Y0180709D01*
X0336411Y0187402D01*
X0336411Y0179528D02*
X0329718Y0172835D01*
X0315545Y0158661D01*
X0313183Y0158661D01*
X0316726Y0124803D02*
X0317907Y0124803D01*
X0322041Y0120669D01*
X0322041Y0118110D01*
X0315939Y0112205D02*
X0310427Y0112205D01*
X0310427Y0112795D01*
X0304915Y0112795D01*
X0304915Y0106102D02*
X0304915Y0103543D01*
X0308852Y0099606D01*
X0302553Y0099606D01*
X0299403Y0102756D01*
X0299403Y0106102D01*
X0308852Y0099606D02*
X0310427Y0101181D01*
X0310427Y0106102D01*
X0313183Y0094094D02*
X0311608Y0092520D01*
X0308655Y0092520D01*
X0301962Y0092520D02*
X0278262Y0092520D01*
X0278222Y0092480D01*
X0278222Y0087717D01*
X0281490Y0084449D01*
X0281490Y0081496D01*
X0280112Y0074803D02*
X0264364Y0090551D01*
X0264364Y0128740D01*
X0269876Y0134252D01*
X0286018Y0134252D01*
X0289561Y0137795D01*
X0289561Y0139370D01*
X0288380Y0146457D02*
X0281687Y0139764D01*
X0276766Y0139764D01*
X0279718Y0149213D02*
X0280703Y0150197D01*
X0280703Y0163386D01*
X0280703Y0169291D01*
X0281687Y0168307D01*
X0287691Y0168307D01*
X0274010Y0169291D02*
X0272041Y0171260D01*
X0268695Y0171260D01*
X0268695Y0166142D01*
X0271451Y0163386D01*
X0274010Y0163386D01*
X0270073Y0139764D02*
X0263970Y0139764D01*
X0257277Y0133071D01*
X0257277Y0084646D01*
X0262002Y0079921D01*
X0262002Y0047953D01*
X0267002Y0042953D01*
X0271687Y0047638D01*
X0275978Y0047638D01*
X0275978Y0055906D02*
X0275978Y0059252D01*
X0277356Y0060630D01*
X0278931Y0060630D01*
X0280112Y0061811D01*
X0280112Y0065157D01*
X0280112Y0071850D02*
X0280112Y0074803D01*
X0288183Y0078150D02*
X0288183Y0081496D01*
X0288183Y0078150D02*
X0304128Y0062205D01*
X0306490Y0062205D01*
X0311608Y0057087D01*
X0311608Y0047638D01*
X0317907Y0041339D01*
X0323813Y0041339D01*
X0328144Y0037008D01*
X0328144Y0013386D01*
X0321451Y0011024D02*
X0319482Y0011024D01*
X0314758Y0006299D01*
X0314758Y0032283D01*
X0314758Y0005906D02*
X0313183Y0004331D01*
X0286805Y0004331D01*
X0286018Y0005118D01*
X0278537Y0010236D02*
X0278340Y0010433D01*
X0278463Y0025197D02*
X0278463Y0031890D01*
X0277465Y0031890D02*
X0277465Y0025197D01*
X0276466Y0025197D02*
X0276466Y0031890D01*
X0275468Y0031890D02*
X0275468Y0025197D01*
X0275388Y0025197D02*
X0273813Y0026772D01*
X0273813Y0030709D01*
X0274994Y0031890D01*
X0280112Y0031890D01*
X0280610Y0032161D01*
X0282285Y0032161D01*
X0282285Y0035047D01*
X0283057Y0035047D01*
X0283057Y0032161D01*
X0284837Y0032161D01*
X0285219Y0032264D01*
X0285561Y0032461D01*
X0285840Y0032740D01*
X0286037Y0033082D01*
X0286140Y0033464D01*
X0286140Y0035047D01*
X0283057Y0035047D01*
X0283057Y0035819D01*
X0282285Y0035819D01*
X0282285Y0038705D01*
X0282277Y0038705D01*
X0282277Y0039370D01*
X0288455Y0039370D01*
X0288455Y0038378D01*
X0291340Y0038378D01*
X0291340Y0037606D01*
X0288455Y0037606D01*
X0288455Y0037008D01*
X0288419Y0037008D01*
X0288419Y0034136D01*
X0288255Y0033972D01*
X0288255Y0031712D01*
X0280506Y0025197D01*
X0275388Y0025197D01*
X0274469Y0026115D02*
X0274469Y0031365D01*
X0279462Y0031890D02*
X0279462Y0025197D01*
X0280461Y0025197D02*
X0280461Y0032080D01*
X0281459Y0032161D02*
X0281459Y0025998D01*
X0282458Y0026838D02*
X0282458Y0035047D01*
X0282671Y0035433D02*
X0282671Y0047638D01*
X0282671Y0055906D01*
X0275978Y0055906D02*
X0269955Y0055906D01*
X0267002Y0052953D01*
X0282458Y0039370D02*
X0282458Y0035819D01*
X0283057Y0035819D02*
X0283057Y0038705D01*
X0284837Y0038705D01*
X0285219Y0038602D01*
X0285561Y0038405D01*
X0285840Y0038126D01*
X0286037Y0037784D01*
X0286140Y0037402D01*
X0286140Y0035819D01*
X0283057Y0035819D01*
X0283456Y0035819D02*
X0283456Y0035047D01*
X0284455Y0035047D02*
X0284455Y0035819D01*
X0285453Y0035819D02*
X0285453Y0035047D01*
X0285453Y0032399D02*
X0285453Y0029357D01*
X0286452Y0030196D02*
X0286452Y0039370D01*
X0287450Y0039370D02*
X0287450Y0031036D01*
X0284455Y0032161D02*
X0284455Y0028517D01*
X0283456Y0027677D02*
X0283456Y0032161D01*
X0283456Y0038705D02*
X0283456Y0039370D01*
X0284455Y0039370D02*
X0284455Y0038705D01*
X0285453Y0038467D02*
X0285453Y0039370D01*
X0288449Y0039370D02*
X0288449Y0037008D01*
X0289447Y0037606D02*
X0289447Y0038378D01*
X0290446Y0038378D02*
X0290446Y0037606D01*
X0278222Y0112480D02*
X0280703Y0114961D01*
X0286805Y0114961D01*
X0288970Y0117126D01*
X0288970Y0120866D01*
X0269088Y0190157D02*
X0258065Y0201181D01*
X0277002Y0222953D02*
X0277002Y0239803D01*
X0278144Y0240945D01*
X0278144Y0246850D01*
X0278183Y0246890D01*
X0284836Y0238583D02*
X0298616Y0238583D01*
X0305506Y0231693D01*
X0311411Y0231693D01*
D268*
X0275978Y0035433D02*
X0272632Y0035433D01*
X0271451Y0034252D01*
X0268301Y0034252D01*
X0267002Y0032953D01*
X0282081Y0015748D02*
X0282081Y0010433D01*
X0278537Y0010236D02*
X0278537Y0006693D01*
X0279718Y0005512D01*
X0285624Y0005512D01*
X0286018Y0005118D01*
X0286018Y0010236D01*
X0285821Y0010433D01*
X0285821Y0021063D02*
X0291923Y0021063D01*
X0291923Y0028346D01*
X0291726Y0031299D01*
D136*
X0337986Y0082283D02*
X0336018Y0084252D01*
X0336018Y0087686D01*
X0336060Y0087686D01*
X0336060Y0091409D01*
X0336605Y0092318D01*
X0336605Y0087686D01*
X0340299Y0087686D01*
X0341130Y0087817D01*
X0341930Y0088077D01*
X0342680Y0088459D01*
X0343361Y0088954D01*
X0343956Y0089549D01*
X0344450Y0090230D01*
X0344832Y0090979D01*
X0345092Y0091780D01*
X0345224Y0092611D01*
X0345224Y0092759D01*
X0336870Y0092759D01*
X0337197Y0093304D01*
X0345224Y0093304D01*
X0345224Y0093307D01*
X0347435Y0093307D01*
X0347435Y0033465D01*
X0345073Y0031102D01*
X0341923Y0031102D01*
X0339955Y0033071D01*
X0339955Y0050787D01*
X0343892Y0052362D01*
X0344449Y0053477D01*
X0344802Y0053963D01*
X0345175Y0054694D01*
X0345428Y0055473D01*
X0345556Y0056283D01*
X0345556Y0056489D01*
X0340552Y0056489D01*
X0340552Y0056897D01*
X0345556Y0056897D01*
X0345556Y0057103D01*
X0345428Y0057912D01*
X0345175Y0058692D01*
X0344802Y0059422D01*
X0344679Y0059592D01*
X0344679Y0059843D01*
X0342710Y0061811D01*
X0341325Y0061811D01*
X0340758Y0061901D01*
X0340552Y0061901D01*
X0340552Y0061811D01*
X0340348Y0061811D01*
X0337986Y0064173D01*
X0337986Y0082283D01*
X0337559Y0082710D02*
X0337559Y0087686D01*
X0339158Y0087686D02*
X0339158Y0063001D01*
X0340756Y0061901D02*
X0340756Y0087758D01*
X0342355Y0088294D02*
X0342355Y0061811D01*
X0343953Y0060568D02*
X0343953Y0089547D01*
X0343953Y0092759D02*
X0343953Y0093304D01*
X0342355Y0093304D02*
X0342355Y0092759D01*
X0340756Y0092759D02*
X0340756Y0093304D01*
X0339158Y0093304D02*
X0339158Y0092759D01*
X0337559Y0092759D02*
X0337559Y0093304D01*
X0345552Y0093307D02*
X0345552Y0057130D01*
X0345552Y0056897D02*
X0345552Y0056489D01*
X0345552Y0056256D02*
X0345552Y0031582D01*
X0343953Y0031102D02*
X0343953Y0052486D01*
X0342355Y0051748D02*
X0342355Y0031102D01*
X0340756Y0032269D02*
X0340756Y0051108D01*
X0340756Y0056489D02*
X0340756Y0056897D01*
X0342355Y0056897D02*
X0342355Y0056489D01*
X0343953Y0056489D02*
X0343953Y0056897D01*
X0347150Y0033180D02*
X0347150Y0093307D01*
X0248222Y0261906D02*
G75*
%LPD*%
D454*
X0295368Y0430213D03*
X0292809Y0430213D03*
X0290250Y0430213D03*
X0287691Y0430213D03*
X0287691Y0447142D03*
X0290250Y0447142D03*
X0292809Y0447142D03*
X0295368Y0447142D03*
D237*
X0262398Y0427812D02*
X0255307Y0427812D01*
X0255307Y0417812D02*
X0262398Y0417812D01*
X0262398Y0407812D02*
X0255307Y0407812D01*
X0274677Y0384386D02*
X0281768Y0384386D01*
X0281768Y0374386D02*
X0274677Y0374386D01*
X0274677Y0364386D02*
X0281768Y0364386D01*
X0281768Y0354386D02*
X0274677Y0354386D01*
X0306094Y0342497D02*
X0313185Y0342497D01*
X0313185Y0332497D02*
X0306094Y0332497D01*
X0319600Y0316318D02*
X0319600Y0309226D01*
X0329600Y0309226D02*
X0329600Y0316318D01*
X0332787Y0354937D02*
X0339878Y0354937D01*
X0339878Y0364937D02*
X0332787Y0364937D01*
D388*
X0322041Y0380016D03*
X0315348Y0380016D03*
X0308655Y0354426D03*
X0301962Y0354426D03*
X0288183Y0343402D03*
X0281490Y0343402D03*
X0282671Y0317812D03*
X0282671Y0309544D03*
X0275978Y0309544D03*
X0275978Y0317812D03*
X0275978Y0297339D03*
X0282671Y0297339D03*
X0291923Y0282969D03*
X0298616Y0282969D03*
X0295663Y0382772D03*
X0288970Y0382772D03*
X0276766Y0401670D03*
X0270073Y0401670D03*
X0274010Y0425292D03*
X0274010Y0431197D03*
X0280703Y0431197D03*
X0280703Y0425292D03*
D801*
X0278340Y0282969D03*
X0285821Y0282969D03*
X0285821Y0272339D03*
X0282081Y0272339D03*
X0278340Y0272339D03*
D417*
X0267002Y0304859D03*
X0267002Y0314859D03*
X0267002Y0324859D03*
X0267002Y0334859D03*
X0257002Y0334859D03*
X0257002Y0324859D03*
X0257002Y0314859D03*
X0257002Y0304859D03*
X0257002Y0294859D03*
X0267002Y0474859D03*
X0267002Y0484859D03*
X0277002Y0484859D03*
X0277002Y0474859D03*
X0257002Y0484859D03*
D224*
X0257002Y0474859D03*
X0267002Y0294859D03*
D274*
X0301470Y0387319D03*
X0301470Y0389012D03*
X0301470Y0390705D03*
X0301470Y0392398D03*
X0313084Y0392398D03*
X0313084Y0390705D03*
X0313084Y0389012D03*
X0313084Y0387319D03*
D382*
X0313203Y0385036D03*
X0311510Y0385036D03*
X0309817Y0385036D03*
X0308124Y0385036D03*
X0306431Y0385036D03*
X0304738Y0385036D03*
X0303045Y0385036D03*
X0301352Y0385036D03*
X0301352Y0394682D03*
X0303045Y0394682D03*
X0304738Y0394682D03*
X0306431Y0394682D03*
X0308124Y0394682D03*
X0309817Y0394682D03*
X0311510Y0394682D03*
X0313203Y0394682D03*
D252*
X0303734Y0407378D03*
X0303734Y0414071D03*
X0297041Y0414071D03*
X0297041Y0407378D03*
X0299403Y0374701D03*
X0299403Y0368008D03*
X0304915Y0368008D03*
X0304915Y0374701D03*
X0310427Y0374701D03*
X0310427Y0368008D03*
X0280112Y0333756D03*
X0280112Y0327063D03*
X0291726Y0299898D03*
X0291726Y0293205D03*
D182*
X0324207Y0391434D03*
X0319482Y0399701D03*
X0324207Y0406394D03*
X0317120Y0409937D03*
X0310427Y0412693D03*
X0278183Y0508796D03*
D106*
X0311411Y0511315D03*
X0311411Y0493599D03*
X0337002Y0493599D03*
X0337002Y0511315D03*
D451*
X0360565Y0293008D03*
X0360565Y0318993D03*
D232*
X0274207Y0462300D03*
X0258065Y0463087D03*
X0258065Y0450882D03*
X0257868Y0438087D03*
X0300584Y0466237D03*
D135*
X0349246Y0436473D03*
X0349246Y0426473D03*
X0359246Y0426473D03*
X0359246Y0436473D03*
X0333262Y0387497D03*
X0328931Y0380016D03*
X0319482Y0360331D03*
X0340348Y0318599D03*
X0271451Y0277654D03*
D43*
X0277750Y0288875D03*
X0279718Y0292024D03*
X0275781Y0292024D03*
X0282081Y0277654D03*
X0286018Y0267024D03*
X0302947Y0291434D03*
X0306490Y0291434D03*
X0306490Y0284347D03*
X0306490Y0276079D03*
X0314758Y0294189D03*
X0306490Y0307575D03*
X0302947Y0307575D03*
X0317514Y0328441D03*
X0320663Y0326867D03*
X0320663Y0330410D03*
X0320269Y0337497D03*
X0320269Y0342221D03*
X0320269Y0346945D03*
X0323419Y0351276D03*
X0326175Y0346945D03*
X0330899Y0336709D03*
X0339561Y0329229D03*
X0341136Y0326079D03*
X0343498Y0328835D03*
X0340348Y0336315D03*
X0353340Y0327260D03*
X0360427Y0340252D03*
X0343892Y0304426D03*
X0343892Y0300882D03*
X0343892Y0297339D03*
X0335230Y0279229D03*
X0328144Y0275292D03*
X0321451Y0272930D03*
X0273813Y0330016D03*
X0289167Y0359150D03*
X0295073Y0378048D03*
X0291923Y0390646D03*
X0286018Y0396158D03*
X0281687Y0401670D03*
X0279718Y0411119D03*
X0286018Y0417812D03*
X0287592Y0423717D03*
X0291923Y0422142D03*
X0299403Y0419386D03*
X0307277Y0420961D03*
X0313183Y0420567D03*
X0303340Y0401276D03*
X0307277Y0389859D03*
X0316726Y0390252D03*
X0316726Y0386709D03*
X0315939Y0374111D03*
X0308852Y0361512D03*
X0289561Y0401276D03*
X0288380Y0408363D03*
X0269088Y0412693D03*
X0268695Y0433166D03*
X0272238Y0442615D03*
X0279325Y0437890D03*
X0279325Y0456000D03*
X0291136Y0475686D03*
X0298616Y0491040D03*
X0308458Y0500882D03*
X0304915Y0507969D03*
X0321451Y0483953D03*
X0327356Y0483166D03*
X0313183Y0462300D03*
X0305703Y0456788D03*
X0298616Y0457182D03*
X0301766Y0441827D03*
X0310033Y0473323D03*
X0322238Y0452654D03*
X0329718Y0442615D03*
X0329718Y0434741D03*
X0336411Y0441434D03*
X0336411Y0449308D03*
X0329325Y0415843D03*
X0329718Y0408363D03*
X0337199Y0393402D03*
X0349010Y0400489D03*
X0351766Y0391434D03*
X0362002Y0398126D03*
X0362002Y0383166D03*
X0362002Y0413875D03*
X0362002Y0448914D03*
X0360821Y0463481D03*
X0354521Y0487103D03*
X0346254Y0483166D03*
X0324994Y0513087D03*
X0286018Y0508363D03*
X0284836Y0500489D03*
X0273813Y0513087D03*
X0252947Y0492221D03*
X0252553Y0388678D03*
X0252553Y0373717D03*
X0252553Y0364662D03*
X0252553Y0355607D03*
X0252553Y0346552D03*
D392*
X0286411Y0395764D02*
X0286018Y0396158D01*
X0286411Y0395764D02*
X0286411Y0391827D01*
X0290919Y0387319D01*
X0301470Y0387319D01*
X0301470Y0389012D02*
X0293557Y0389012D01*
X0291923Y0390646D01*
X0294679Y0392615D02*
X0296588Y0390705D01*
X0301470Y0390705D01*
X0301470Y0392398D02*
X0299620Y0392398D01*
X0297041Y0394977D01*
X0297041Y0407378D01*
X0300584Y0406788D02*
X0300584Y0404229D01*
X0299403Y0403048D01*
X0299403Y0396552D01*
X0301273Y0394682D01*
X0301352Y0394682D01*
X0303045Y0394682D02*
X0303045Y0400981D01*
X0303340Y0401276D01*
X0304738Y0399878D01*
X0304738Y0394682D01*
X0306431Y0394682D02*
X0306431Y0404760D01*
X0310427Y0408756D01*
X0310427Y0412693D01*
X0312002Y0407575D02*
X0313577Y0407575D01*
X0315939Y0409937D01*
X0317120Y0409937D01*
X0321844Y0406394D02*
X0320269Y0404819D01*
X0312789Y0404819D01*
X0309817Y0401847D01*
X0309817Y0394682D01*
X0311510Y0394682D02*
X0311510Y0396060D01*
X0315151Y0399701D01*
X0319482Y0399701D01*
X0320958Y0394682D02*
X0313203Y0394682D01*
X0313084Y0392398D02*
X0314581Y0392398D01*
X0316726Y0390252D01*
X0315486Y0389012D01*
X0313084Y0389012D01*
X0313084Y0387319D02*
X0316116Y0387319D01*
X0316726Y0386709D01*
X0315053Y0385036D01*
X0313203Y0385036D01*
X0311510Y0385036D01*
X0309817Y0385036D01*
X0308144Y0385016D02*
X0308124Y0385036D01*
X0308144Y0384977D01*
X0308144Y0385016D02*
X0308144Y0382733D01*
X0310821Y0380016D01*
X0315348Y0380016D01*
X0316726Y0390252D02*
X0316273Y0390705D01*
X0313084Y0390705D01*
X0308124Y0394682D02*
X0308124Y0403697D01*
X0312002Y0407575D01*
X0303734Y0407378D02*
X0303537Y0407182D01*
X0300978Y0407182D01*
X0300584Y0406788D01*
X0294679Y0402063D02*
X0294679Y0392615D01*
X0295663Y0382772D02*
X0299088Y0382772D01*
X0301352Y0385036D01*
X0303045Y0385036D02*
X0303045Y0381099D01*
X0299403Y0377457D01*
X0299403Y0374701D01*
X0304738Y0374878D02*
X0304915Y0374701D01*
X0304738Y0374878D02*
X0304738Y0385036D01*
X0304738Y0382772D01*
X0306096Y0382772D01*
X0306490Y0383166D01*
X0306490Y0384977D01*
X0306431Y0385036D01*
X0306451Y0385016D01*
X0295663Y0382772D02*
X0295663Y0378638D01*
X0295073Y0378048D01*
X0294679Y0402063D02*
X0288380Y0408363D01*
X0321844Y0406394D02*
X0324207Y0406394D01*
X0324207Y0404819D01*
X0320958Y0394682D02*
X0324207Y0391434D01*
X0277002Y0507615D02*
X0278183Y0508796D01*
D94*
X0321057Y0354426D02*
X0324994Y0354426D01*
X0332474Y0346945D01*
X0332474Y0345764D01*
X0334836Y0343402D01*
X0334836Y0326079D01*
X0333262Y0324504D01*
X0327750Y0324504D01*
X0325781Y0326473D01*
X0325781Y0333166D01*
X0323813Y0335134D01*
X0319482Y0335134D01*
X0318301Y0336315D01*
X0318301Y0351670D01*
X0321057Y0354426D01*
X0320846Y0354214D02*
X0320846Y0335134D01*
X0321444Y0335134D02*
X0321444Y0354426D01*
X0322043Y0354426D02*
X0322043Y0335134D01*
X0322641Y0335134D02*
X0322641Y0354426D01*
X0323240Y0354426D02*
X0323240Y0335134D01*
X0323838Y0335109D02*
X0323838Y0354426D01*
X0324437Y0354426D02*
X0324437Y0334510D01*
X0325035Y0333912D02*
X0325035Y0354384D01*
X0325634Y0353786D02*
X0325634Y0333313D01*
X0323419Y0331197D02*
X0323419Y0326079D01*
X0322632Y0325292D01*
X0322632Y0316237D01*
X0318695Y0316237D01*
X0308065Y0326867D01*
X0308065Y0332378D01*
X0308458Y0332772D01*
X0321844Y0332772D01*
X0323419Y0331197D01*
X0323240Y0331377D02*
X0323240Y0325900D01*
X0322641Y0325301D02*
X0322641Y0331975D01*
X0322043Y0332574D02*
X0322043Y0316237D01*
X0321444Y0316237D02*
X0321444Y0332772D01*
X0320846Y0332772D02*
X0320846Y0316237D01*
X0320247Y0316237D02*
X0320247Y0332772D01*
X0319649Y0332772D02*
X0319649Y0316237D01*
X0319050Y0316237D02*
X0319050Y0332772D01*
X0318452Y0332772D02*
X0318452Y0316480D01*
X0317853Y0317078D02*
X0317853Y0332772D01*
X0317255Y0332772D02*
X0317255Y0317677D01*
X0316656Y0318275D02*
X0316656Y0332772D01*
X0316058Y0332772D02*
X0316058Y0318874D01*
X0315459Y0319472D02*
X0315459Y0332772D01*
X0314861Y0332772D02*
X0314861Y0320071D01*
X0314262Y0320669D02*
X0314262Y0332772D01*
X0313663Y0332772D02*
X0313663Y0321268D01*
X0313065Y0321866D02*
X0313065Y0332772D01*
X0312466Y0332772D02*
X0312466Y0322465D01*
X0311868Y0323063D02*
X0311868Y0332772D01*
X0311269Y0332772D02*
X0311269Y0323662D01*
X0310671Y0324260D02*
X0310671Y0332772D01*
X0310072Y0332772D02*
X0310072Y0324859D01*
X0309474Y0325457D02*
X0309474Y0332772D01*
X0308875Y0332772D02*
X0308875Y0326056D01*
X0308277Y0326655D02*
X0308277Y0332591D01*
X0304128Y0321749D02*
X0302159Y0321749D01*
X0295860Y0328048D01*
X0289561Y0328048D01*
X0286805Y0325292D01*
X0286805Y0322142D01*
X0292317Y0316630D01*
X0292317Y0308756D01*
X0296254Y0305213D01*
X0296254Y0285981D01*
X0296476Y0286041D01*
X0298316Y0286041D01*
X0298316Y0283269D01*
X0298916Y0283269D01*
X0301884Y0283269D01*
X0301884Y0284912D01*
X0301796Y0285242D01*
X0301625Y0285539D01*
X0301383Y0285781D01*
X0301086Y0285952D01*
X0300756Y0286041D01*
X0298916Y0286041D01*
X0298916Y0283269D01*
X0298916Y0282669D01*
X0301884Y0282669D01*
X0301884Y0281026D01*
X0301796Y0280696D01*
X0301625Y0280399D01*
X0301383Y0280157D01*
X0301086Y0279986D01*
X0300756Y0279897D01*
X0298916Y0279897D01*
X0298916Y0282669D01*
X0298316Y0282669D01*
X0298316Y0279897D01*
X0296476Y0279897D01*
X0296254Y0279957D01*
X0296254Y0272930D01*
X0298616Y0270567D01*
X0309640Y0270567D01*
X0312395Y0273323D01*
X0312395Y0291434D01*
X0310427Y0293402D01*
X0310427Y0298126D01*
X0309246Y0299308D01*
X0309246Y0316630D01*
X0304128Y0321749D01*
X0304087Y0321749D02*
X0304087Y0270567D01*
X0303489Y0270567D02*
X0303489Y0321749D01*
X0302890Y0321749D02*
X0302890Y0270567D01*
X0302292Y0270567D02*
X0302292Y0321749D01*
X0301693Y0322215D02*
X0301693Y0285420D01*
X0301095Y0285947D02*
X0301095Y0322813D01*
X0300496Y0323412D02*
X0300496Y0286041D01*
X0299898Y0286041D02*
X0299898Y0324010D01*
X0299299Y0324609D02*
X0299299Y0286041D01*
X0298102Y0286041D02*
X0298102Y0325806D01*
X0297504Y0326404D02*
X0297504Y0286041D01*
X0296905Y0286041D02*
X0296905Y0327003D01*
X0296307Y0327601D02*
X0296307Y0285995D01*
X0298701Y0283269D02*
X0298701Y0325207D01*
X0295708Y0328048D02*
X0295708Y0305704D01*
X0295110Y0306243D02*
X0295110Y0328048D01*
X0294511Y0328048D02*
X0294511Y0306781D01*
X0293913Y0307320D02*
X0293913Y0328048D01*
X0293314Y0328048D02*
X0293314Y0307859D01*
X0292716Y0308397D02*
X0292716Y0328048D01*
X0292117Y0328048D02*
X0292117Y0316830D01*
X0291519Y0317429D02*
X0291519Y0328048D01*
X0290920Y0328048D02*
X0290920Y0318027D01*
X0290322Y0318626D02*
X0290322Y0328048D01*
X0289723Y0328048D02*
X0289723Y0319224D01*
X0289125Y0319823D02*
X0289125Y0327611D01*
X0288526Y0327013D02*
X0288526Y0320421D01*
X0287928Y0321020D02*
X0287928Y0326414D01*
X0287329Y0325816D02*
X0287329Y0321618D01*
X0304686Y0321190D02*
X0304686Y0270567D01*
X0305284Y0270567D02*
X0305284Y0320592D01*
X0305883Y0319993D02*
X0305883Y0270567D01*
X0306481Y0270567D02*
X0306481Y0319395D01*
X0307080Y0318796D02*
X0307080Y0270567D01*
X0307678Y0270567D02*
X0307678Y0318198D01*
X0308277Y0317599D02*
X0308277Y0270567D01*
X0308875Y0270567D02*
X0308875Y0317001D01*
X0309474Y0299080D02*
X0309474Y0270567D01*
X0310072Y0271000D02*
X0310072Y0298481D01*
X0310671Y0293158D02*
X0310671Y0271599D01*
X0311269Y0272197D02*
X0311269Y0292560D01*
X0311868Y0291961D02*
X0311868Y0272796D01*
X0314758Y0268205D02*
X0314758Y0267812D01*
X0301693Y0270567D02*
X0301693Y0280518D01*
X0301095Y0279991D02*
X0301095Y0270567D01*
X0300496Y0270567D02*
X0300496Y0279897D01*
X0299898Y0279897D02*
X0299898Y0270567D01*
X0299299Y0270567D02*
X0299299Y0279897D01*
X0298102Y0279897D02*
X0298102Y0271081D01*
X0298701Y0270567D02*
X0298701Y0282669D01*
X0299299Y0282669D02*
X0299299Y0283269D01*
X0299898Y0283269D02*
X0299898Y0282669D01*
X0300496Y0282669D02*
X0300496Y0283269D01*
X0301095Y0283269D02*
X0301095Y0282669D01*
X0301693Y0282669D02*
X0301693Y0283269D01*
X0297504Y0279897D02*
X0297504Y0271680D01*
X0296905Y0272278D02*
X0296905Y0279897D01*
X0296307Y0279943D02*
X0296307Y0272877D01*
X0327429Y0324825D02*
X0327429Y0351990D01*
X0328028Y0351392D02*
X0328028Y0324504D01*
X0328626Y0324504D02*
X0328626Y0350793D01*
X0329225Y0350195D02*
X0329225Y0324504D01*
X0329823Y0324504D02*
X0329823Y0349596D01*
X0330422Y0348998D02*
X0330422Y0324504D01*
X0331020Y0324504D02*
X0331020Y0348399D01*
X0331619Y0347801D02*
X0331619Y0324504D01*
X0332217Y0324504D02*
X0332217Y0347202D01*
X0332816Y0345423D02*
X0332816Y0324504D01*
X0333414Y0324657D02*
X0333414Y0344824D01*
X0334013Y0344226D02*
X0334013Y0325256D01*
X0334611Y0325854D02*
X0334611Y0343627D01*
X0326831Y0352589D02*
X0326831Y0325423D01*
X0326232Y0326022D02*
X0326232Y0353187D01*
X0320247Y0353616D02*
X0320247Y0335134D01*
X0319649Y0335134D02*
X0319649Y0353017D01*
X0319050Y0352419D02*
X0319050Y0335566D01*
X0318452Y0336165D02*
X0318452Y0351820D01*
D317*
X0313183Y0356000D02*
X0313183Y0361906D01*
X0324207Y0372930D01*
X0333262Y0372930D01*
X0341923Y0381591D01*
X0341923Y0390252D01*
X0342317Y0418993D01*
X0342317Y0456394D01*
X0336411Y0462300D01*
X0313183Y0462300D01*
X0300584Y0459150D02*
X0298616Y0457182D01*
X0300584Y0459150D02*
X0300584Y0466237D01*
X0295466Y0457182D02*
X0290348Y0462300D01*
X0274207Y0462300D01*
X0269088Y0452063D02*
X0281293Y0452063D01*
X0286411Y0457182D01*
X0291136Y0457182D01*
X0292809Y0455508D01*
X0292809Y0447142D01*
X0295368Y0447142D02*
X0295466Y0447241D01*
X0295466Y0457182D01*
X0290348Y0452457D02*
X0290348Y0447241D01*
X0290250Y0447142D01*
X0287691Y0447142D02*
X0287100Y0446552D01*
X0266332Y0446552D01*
X0257868Y0438087D01*
X0259640Y0449308D02*
X0258065Y0450882D01*
X0259640Y0449308D02*
X0282474Y0449308D01*
X0286018Y0452851D01*
X0289955Y0452851D01*
X0290348Y0452457D01*
X0290250Y0430213D02*
X0290250Y0426375D01*
X0287592Y0423717D01*
X0286018Y0417812D02*
X0293104Y0417812D01*
X0295368Y0420075D01*
X0295368Y0430213D01*
X0292809Y0430213D02*
X0292809Y0423028D01*
X0291923Y0422142D01*
X0297041Y0417024D02*
X0297041Y0414071D01*
X0297041Y0417024D02*
X0299403Y0419386D01*
X0302159Y0419386D01*
X0303734Y0417812D01*
X0303734Y0414071D01*
X0307277Y0420961D02*
X0328931Y0442615D01*
X0329718Y0442615D01*
X0336411Y0449308D01*
X0336411Y0441434D02*
X0329718Y0434741D01*
X0315545Y0420567D01*
X0313183Y0420567D01*
X0316726Y0386709D02*
X0317907Y0386709D01*
X0322041Y0382575D01*
X0322041Y0380016D01*
X0315939Y0374111D02*
X0310427Y0374111D01*
X0310427Y0374701D01*
X0304915Y0374701D01*
X0304915Y0368008D02*
X0304915Y0365449D01*
X0308852Y0361512D01*
X0302553Y0361512D01*
X0299403Y0364662D01*
X0299403Y0368008D01*
X0308852Y0361512D02*
X0310427Y0363087D01*
X0310427Y0368008D01*
X0313183Y0356000D02*
X0311608Y0354426D01*
X0308655Y0354426D01*
X0301962Y0354426D02*
X0278262Y0354426D01*
X0278222Y0354386D01*
X0278222Y0349623D01*
X0281490Y0346355D01*
X0281490Y0343402D01*
X0280112Y0336709D02*
X0264364Y0352457D01*
X0264364Y0390646D01*
X0269876Y0396158D01*
X0286018Y0396158D01*
X0289561Y0399701D01*
X0289561Y0401276D01*
X0288380Y0408363D02*
X0281687Y0401670D01*
X0276766Y0401670D01*
X0279718Y0411119D02*
X0280703Y0412103D01*
X0280703Y0425292D01*
X0280703Y0431197D01*
X0281687Y0430213D01*
X0287691Y0430213D01*
X0274010Y0431197D02*
X0272041Y0433166D01*
X0268695Y0433166D01*
X0268695Y0428048D01*
X0271451Y0425292D01*
X0274010Y0425292D01*
X0270073Y0401670D02*
X0263970Y0401670D01*
X0257277Y0394977D01*
X0257277Y0346552D01*
X0262002Y0341827D01*
X0262002Y0309859D01*
X0267002Y0304859D01*
X0271687Y0309544D01*
X0275978Y0309544D01*
X0275978Y0317812D02*
X0275978Y0321158D01*
X0277356Y0322536D01*
X0278931Y0322536D01*
X0280112Y0323717D01*
X0280112Y0327063D01*
X0280112Y0333756D02*
X0280112Y0336709D01*
X0288183Y0340056D02*
X0288183Y0343402D01*
X0288183Y0340056D02*
X0304128Y0324111D01*
X0306490Y0324111D01*
X0311608Y0318993D01*
X0311608Y0309544D01*
X0317907Y0303245D01*
X0323813Y0303245D01*
X0328144Y0298914D01*
X0328144Y0275292D01*
X0321451Y0272930D02*
X0319482Y0272930D01*
X0314758Y0268205D01*
X0314758Y0294189D01*
X0314758Y0267812D02*
X0313183Y0266237D01*
X0286805Y0266237D01*
X0286018Y0267024D01*
X0278537Y0272142D02*
X0278340Y0272339D01*
X0278463Y0287103D02*
X0278463Y0293796D01*
X0277465Y0293796D02*
X0277465Y0287103D01*
X0276466Y0287103D02*
X0276466Y0293796D01*
X0275468Y0293796D02*
X0275468Y0287103D01*
X0275388Y0287103D02*
X0273813Y0288678D01*
X0273813Y0292615D01*
X0274994Y0293796D01*
X0280112Y0293796D01*
X0280610Y0294067D01*
X0282285Y0294067D01*
X0282285Y0296953D01*
X0283057Y0296953D01*
X0283057Y0294067D01*
X0284837Y0294067D01*
X0285219Y0294170D01*
X0285561Y0294367D01*
X0285840Y0294646D01*
X0286037Y0294988D01*
X0286140Y0295370D01*
X0286140Y0296953D01*
X0283057Y0296953D01*
X0283057Y0297725D01*
X0282285Y0297725D01*
X0282285Y0300611D01*
X0282277Y0300611D01*
X0282277Y0301276D01*
X0288455Y0301276D01*
X0288455Y0300284D01*
X0291340Y0300284D01*
X0291340Y0299512D01*
X0288455Y0299512D01*
X0288455Y0298914D01*
X0288419Y0298914D01*
X0288419Y0296042D01*
X0288255Y0295878D01*
X0288255Y0293618D01*
X0280506Y0287103D01*
X0275388Y0287103D01*
X0274469Y0288021D02*
X0274469Y0293271D01*
X0279462Y0293796D02*
X0279462Y0287103D01*
X0280461Y0287103D02*
X0280461Y0293986D01*
X0281459Y0294067D02*
X0281459Y0287904D01*
X0282458Y0288744D02*
X0282458Y0296953D01*
X0282671Y0297339D02*
X0282671Y0309544D01*
X0282671Y0317812D01*
X0275978Y0317812D02*
X0269955Y0317812D01*
X0267002Y0314859D01*
X0282458Y0301276D02*
X0282458Y0297725D01*
X0283057Y0297725D02*
X0283057Y0300611D01*
X0284837Y0300611D01*
X0285219Y0300508D01*
X0285561Y0300311D01*
X0285840Y0300032D01*
X0286037Y0299690D01*
X0286140Y0299308D01*
X0286140Y0297725D01*
X0283057Y0297725D01*
X0283456Y0297725D02*
X0283456Y0296953D01*
X0284455Y0296953D02*
X0284455Y0297725D01*
X0285453Y0297725D02*
X0285453Y0296953D01*
X0285453Y0294305D02*
X0285453Y0291263D01*
X0286452Y0292102D02*
X0286452Y0301276D01*
X0287450Y0301276D02*
X0287450Y0292942D01*
X0284455Y0294067D02*
X0284455Y0290423D01*
X0283456Y0289583D02*
X0283456Y0294067D01*
X0283456Y0300611D02*
X0283456Y0301276D01*
X0284455Y0301276D02*
X0284455Y0300611D01*
X0285453Y0300373D02*
X0285453Y0301276D01*
X0288449Y0301276D02*
X0288449Y0298914D01*
X0289447Y0299512D02*
X0289447Y0300284D01*
X0290446Y0300284D02*
X0290446Y0299512D01*
X0278222Y0374386D02*
X0280703Y0376867D01*
X0286805Y0376867D01*
X0288970Y0379032D01*
X0288970Y0382772D01*
X0269088Y0452063D02*
X0258065Y0463087D01*
X0277002Y0484859D02*
X0277002Y0501709D01*
X0278144Y0502851D01*
X0278144Y0508756D01*
X0278183Y0508796D01*
X0284836Y0500489D02*
X0298616Y0500489D01*
X0305506Y0493599D01*
X0311411Y0493599D01*
D268*
X0275978Y0297339D02*
X0272632Y0297339D01*
X0271451Y0296158D01*
X0268301Y0296158D01*
X0267002Y0294859D01*
X0282081Y0277654D02*
X0282081Y0272339D01*
X0278537Y0272142D02*
X0278537Y0268599D01*
X0279718Y0267418D01*
X0285624Y0267418D01*
X0286018Y0267024D01*
X0286018Y0272142D01*
X0285821Y0272339D01*
X0285821Y0282969D02*
X0291923Y0282969D01*
X0291923Y0290252D01*
X0291726Y0293205D01*
D136*
X0337986Y0344189D02*
X0336018Y0346158D01*
X0336018Y0349592D01*
X0336060Y0349592D01*
X0336060Y0353315D01*
X0336605Y0354224D01*
X0336605Y0349592D01*
X0340299Y0349592D01*
X0341130Y0349723D01*
X0341930Y0349983D01*
X0342680Y0350365D01*
X0343361Y0350860D01*
X0343956Y0351455D01*
X0344450Y0352136D01*
X0344832Y0352885D01*
X0345092Y0353686D01*
X0345224Y0354517D01*
X0345224Y0354665D01*
X0336870Y0354665D01*
X0337197Y0355210D01*
X0345224Y0355210D01*
X0345224Y0355213D01*
X0347435Y0355213D01*
X0347435Y0295371D01*
X0345073Y0293008D01*
X0341923Y0293008D01*
X0339955Y0294977D01*
X0339955Y0312693D01*
X0343892Y0314268D01*
X0344449Y0315383D01*
X0344802Y0315869D01*
X0345175Y0316600D01*
X0345428Y0317379D01*
X0345556Y0318189D01*
X0345556Y0318395D01*
X0340552Y0318395D01*
X0340552Y0318803D01*
X0345556Y0318803D01*
X0345556Y0319009D01*
X0345428Y0319818D01*
X0345175Y0320598D01*
X0344802Y0321328D01*
X0344679Y0321498D01*
X0344679Y0321749D01*
X0342710Y0323717D01*
X0341325Y0323717D01*
X0340758Y0323807D01*
X0340552Y0323807D01*
X0340552Y0323717D01*
X0340348Y0323717D01*
X0337986Y0326079D01*
X0337986Y0344189D01*
X0337559Y0344616D02*
X0337559Y0349592D01*
X0339158Y0349592D02*
X0339158Y0324907D01*
X0340756Y0323807D02*
X0340756Y0349664D01*
X0342355Y0350200D02*
X0342355Y0323717D01*
X0343953Y0322474D02*
X0343953Y0351453D01*
X0343953Y0354665D02*
X0343953Y0355210D01*
X0342355Y0355210D02*
X0342355Y0354665D01*
X0340756Y0354665D02*
X0340756Y0355210D01*
X0339158Y0355210D02*
X0339158Y0354665D01*
X0337559Y0354665D02*
X0337559Y0355210D01*
X0345552Y0355213D02*
X0345552Y0319036D01*
X0345552Y0318803D02*
X0345552Y0318395D01*
X0345552Y0318162D02*
X0345552Y0293488D01*
X0343953Y0293008D02*
X0343953Y0314392D01*
X0342355Y0313654D02*
X0342355Y0293008D01*
X0340756Y0294175D02*
X0340756Y0313014D01*
X0340756Y0318395D02*
X0340756Y0318803D01*
X0342355Y0318803D02*
X0342355Y0318395D01*
X0343953Y0318395D02*
X0343953Y0318803D01*
X0347150Y0295086D02*
X0347150Y0355213D01*
X0372333Y0000000D02*
G75*
%LPD*%
D454*
X0419479Y0168307D03*
X0416920Y0168307D03*
X0414361Y0168307D03*
X0411802Y0168307D03*
X0411802Y0185236D03*
X0414361Y0185236D03*
X0416920Y0185236D03*
X0419479Y0185236D03*
D237*
X0386509Y0165906D02*
X0379418Y0165906D01*
X0379418Y0155906D02*
X0386509Y0155906D01*
X0386509Y0145906D02*
X0379418Y0145906D01*
X0398788Y0122480D02*
X0405879Y0122480D01*
X0405879Y0112480D02*
X0398788Y0112480D01*
X0398788Y0102480D02*
X0405879Y0102480D01*
X0405879Y0092480D02*
X0398788Y0092480D01*
X0430205Y0080591D02*
X0437296Y0080591D01*
X0437296Y0070591D02*
X0430205Y0070591D01*
X0443711Y0054412D02*
X0443711Y0047320D01*
X0453711Y0047320D02*
X0453711Y0054412D01*
X0456898Y0093031D02*
X0463989Y0093031D01*
X0463989Y0103031D02*
X0456898Y0103031D01*
D388*
X0446152Y0118110D03*
X0439459Y0118110D03*
X0432766Y0092520D03*
X0426073Y0092520D03*
X0412294Y0081496D03*
X0405601Y0081496D03*
X0406782Y0055906D03*
X0406782Y0047638D03*
X0400089Y0047638D03*
X0400089Y0055906D03*
X0400089Y0035433D03*
X0406782Y0035433D03*
X0416034Y0021063D03*
X0422727Y0021063D03*
X0419774Y0120866D03*
X0413081Y0120866D03*
X0400877Y0139764D03*
X0394184Y0139764D03*
X0398121Y0163386D03*
X0398121Y0169291D03*
X0404814Y0169291D03*
X0404814Y0163386D03*
D801*
X0402451Y0021063D03*
X0409932Y0021063D03*
X0409932Y0010433D03*
X0406192Y0010433D03*
X0402451Y0010433D03*
D417*
X0391113Y0042953D03*
X0391113Y0052953D03*
X0391113Y0062953D03*
X0391113Y0072953D03*
X0381113Y0072953D03*
X0381113Y0062953D03*
X0381113Y0052953D03*
X0381113Y0042953D03*
X0381113Y0032953D03*
X0391113Y0212953D03*
X0391113Y0222953D03*
X0401113Y0222953D03*
X0401113Y0212953D03*
X0381113Y0222953D03*
D224*
X0381113Y0212953D03*
X0391113Y0032953D03*
D274*
X0425581Y0125413D03*
X0425581Y0127106D03*
X0425581Y0128799D03*
X0425581Y0130492D03*
X0437195Y0130492D03*
X0437195Y0128799D03*
X0437195Y0127106D03*
X0437195Y0125413D03*
D382*
X0437314Y0123130D03*
X0435621Y0123130D03*
X0433928Y0123130D03*
X0432235Y0123130D03*
X0430542Y0123130D03*
X0428849Y0123130D03*
X0427156Y0123130D03*
X0425463Y0123130D03*
X0425463Y0132776D03*
X0427156Y0132776D03*
X0428849Y0132776D03*
X0430542Y0132776D03*
X0432235Y0132776D03*
X0433928Y0132776D03*
X0435621Y0132776D03*
X0437314Y0132776D03*
D252*
X0427845Y0145472D03*
X0427845Y0152165D03*
X0421152Y0152165D03*
X0421152Y0145472D03*
X0423514Y0112795D03*
X0423514Y0106102D03*
X0429026Y0106102D03*
X0429026Y0112795D03*
X0434538Y0112795D03*
X0434538Y0106102D03*
X0404223Y0071850D03*
X0404223Y0065157D03*
X0415837Y0037992D03*
X0415837Y0031299D03*
D182*
X0448318Y0129528D03*
X0443593Y0137795D03*
X0448318Y0144488D03*
X0441231Y0148031D03*
X0434538Y0150787D03*
X0402294Y0246890D03*
D106*
X0435522Y0249409D03*
X0435522Y0231693D03*
X0461113Y0231693D03*
X0461113Y0249409D03*
D451*
X0484676Y0031102D03*
X0484676Y0057087D03*
D232*
X0398318Y0200394D03*
X0382176Y0201181D03*
X0382176Y0188976D03*
X0381979Y0176181D03*
X0424695Y0204331D03*
D135*
X0473357Y0174567D03*
X0473357Y0164567D03*
X0483357Y0164567D03*
X0483357Y0174567D03*
X0457373Y0125591D03*
X0453042Y0118110D03*
X0443593Y0098425D03*
X0464459Y0056693D03*
X0395562Y0015748D03*
D43*
X0401861Y0026969D03*
X0403829Y0030118D03*
X0399892Y0030118D03*
X0406192Y0015748D03*
X0410129Y0005118D03*
X0427058Y0029528D03*
X0430601Y0029528D03*
X0430601Y0022441D03*
X0430601Y0014173D03*
X0438869Y0032283D03*
X0430601Y0045669D03*
X0427058Y0045669D03*
X0441625Y0066535D03*
X0444774Y0064961D03*
X0444774Y0068504D03*
X0444380Y0075591D03*
X0444380Y0080315D03*
X0444380Y0085039D03*
X0447530Y0089370D03*
X0450286Y0085039D03*
X0455010Y0074803D03*
X0463672Y0067323D03*
X0465247Y0064173D03*
X0467609Y0066929D03*
X0464459Y0074409D03*
X0477451Y0065354D03*
X0484538Y0078346D03*
X0468003Y0042520D03*
X0468003Y0038976D03*
X0468003Y0035433D03*
X0459341Y0017323D03*
X0452255Y0013386D03*
X0445562Y0011024D03*
X0397924Y0068110D03*
X0413278Y0097244D03*
X0419184Y0116142D03*
X0416034Y0128740D03*
X0410129Y0134252D03*
X0405798Y0139764D03*
X0403829Y0149213D03*
X0410129Y0155906D03*
X0411703Y0161811D03*
X0416034Y0160236D03*
X0423514Y0157480D03*
X0431388Y0159055D03*
X0437294Y0158661D03*
X0427451Y0139370D03*
X0431388Y0127953D03*
X0440837Y0128346D03*
X0440837Y0124803D03*
X0440050Y0112205D03*
X0432963Y0099606D03*
X0413672Y0139370D03*
X0412491Y0146457D03*
X0393199Y0150787D03*
X0392806Y0171260D03*
X0396349Y0180709D03*
X0403436Y0175984D03*
X0403436Y0194094D03*
X0415247Y0213780D03*
X0422727Y0229134D03*
X0432569Y0238976D03*
X0429026Y0246063D03*
X0445562Y0222047D03*
X0451467Y0221260D03*
X0437294Y0200394D03*
X0429814Y0194882D03*
X0422727Y0195276D03*
X0425877Y0179921D03*
X0434144Y0211417D03*
X0446349Y0190748D03*
X0453829Y0180709D03*
X0453829Y0172835D03*
X0460522Y0179528D03*
X0460522Y0187402D03*
X0453436Y0153937D03*
X0453829Y0146457D03*
X0461310Y0131496D03*
X0473121Y0138583D03*
X0475877Y0129528D03*
X0486113Y0136220D03*
X0486113Y0121260D03*
X0486113Y0151969D03*
X0486113Y0187008D03*
X0484932Y0201575D03*
X0478632Y0225197D03*
X0470365Y0221260D03*
X0449105Y0251181D03*
X0410129Y0246457D03*
X0408947Y0238583D03*
X0397924Y0251181D03*
X0377058Y0230315D03*
X0376664Y0126772D03*
X0376664Y0111811D03*
X0376664Y0102756D03*
X0376664Y0093701D03*
X0376664Y0084646D03*
D392*
X0410522Y0133858D02*
X0410129Y0134252D01*
X0410522Y0133858D02*
X0410522Y0129921D01*
X0415030Y0125413D01*
X0425581Y0125413D01*
X0425581Y0127106D02*
X0417668Y0127106D01*
X0416034Y0128740D01*
X0418790Y0130709D02*
X0420699Y0128799D01*
X0425581Y0128799D01*
X0425581Y0130492D02*
X0423731Y0130492D01*
X0421152Y0133071D01*
X0421152Y0145472D01*
X0424695Y0144882D02*
X0424695Y0142323D01*
X0423514Y0141142D01*
X0423514Y0134646D01*
X0425384Y0132776D01*
X0425463Y0132776D01*
X0427156Y0132776D02*
X0427156Y0139075D01*
X0427451Y0139370D01*
X0428849Y0137972D01*
X0428849Y0132776D01*
X0430542Y0132776D02*
X0430542Y0142854D01*
X0434538Y0146850D01*
X0434538Y0150787D01*
X0436113Y0145669D02*
X0437688Y0145669D01*
X0440050Y0148031D01*
X0441231Y0148031D01*
X0445955Y0144488D02*
X0444380Y0142913D01*
X0436900Y0142913D01*
X0433928Y0139941D01*
X0433928Y0132776D01*
X0435621Y0132776D02*
X0435621Y0134154D01*
X0439262Y0137795D01*
X0443593Y0137795D01*
X0445069Y0132776D02*
X0437314Y0132776D01*
X0437195Y0130492D02*
X0438692Y0130492D01*
X0440837Y0128346D01*
X0439597Y0127106D01*
X0437195Y0127106D01*
X0437195Y0125413D02*
X0440227Y0125413D01*
X0440837Y0124803D01*
X0439164Y0123130D01*
X0437314Y0123130D01*
X0435621Y0123130D01*
X0433928Y0123130D01*
X0432255Y0123110D02*
X0432235Y0123130D01*
X0432255Y0123071D01*
X0432255Y0123110D02*
X0432255Y0120827D01*
X0434932Y0118110D01*
X0439459Y0118110D01*
X0440837Y0128346D02*
X0440384Y0128799D01*
X0437195Y0128799D01*
X0432235Y0132776D02*
X0432235Y0141791D01*
X0436113Y0145669D01*
X0427845Y0145472D02*
X0427648Y0145276D01*
X0425089Y0145276D01*
X0424695Y0144882D01*
X0418790Y0140157D02*
X0418790Y0130709D01*
X0419774Y0120866D02*
X0423199Y0120866D01*
X0425463Y0123130D01*
X0427156Y0123130D02*
X0427156Y0119193D01*
X0423514Y0115551D01*
X0423514Y0112795D01*
X0428849Y0112972D02*
X0429026Y0112795D01*
X0428849Y0112972D02*
X0428849Y0123130D01*
X0428849Y0120866D01*
X0430207Y0120866D01*
X0430601Y0121260D01*
X0430601Y0123071D01*
X0430542Y0123130D01*
X0430562Y0123110D01*
X0419774Y0120866D02*
X0419774Y0116732D01*
X0419184Y0116142D01*
X0418790Y0140157D02*
X0412491Y0146457D01*
X0445955Y0144488D02*
X0448318Y0144488D01*
X0448318Y0142913D01*
X0445069Y0132776D02*
X0448318Y0129528D01*
X0401113Y0245709D02*
X0402294Y0246890D01*
D94*
X0445168Y0092520D02*
X0449105Y0092520D01*
X0456585Y0085039D01*
X0456585Y0083858D01*
X0458947Y0081496D01*
X0458947Y0064173D01*
X0457373Y0062598D01*
X0451861Y0062598D01*
X0449892Y0064567D01*
X0449892Y0071260D01*
X0447924Y0073228D01*
X0443593Y0073228D01*
X0442412Y0074409D01*
X0442412Y0089764D01*
X0445168Y0092520D01*
X0444957Y0092308D02*
X0444957Y0073228D01*
X0445555Y0073228D02*
X0445555Y0092520D01*
X0446154Y0092520D02*
X0446154Y0073228D01*
X0446752Y0073228D02*
X0446752Y0092520D01*
X0447351Y0092520D02*
X0447351Y0073228D01*
X0447949Y0073203D02*
X0447949Y0092520D01*
X0448548Y0092520D02*
X0448548Y0072604D01*
X0449146Y0072006D02*
X0449146Y0092478D01*
X0449745Y0091880D02*
X0449745Y0071407D01*
X0447530Y0069291D02*
X0447530Y0064173D01*
X0446743Y0063386D01*
X0446743Y0054331D01*
X0442806Y0054331D01*
X0432176Y0064961D01*
X0432176Y0070472D01*
X0432569Y0070866D01*
X0445955Y0070866D01*
X0447530Y0069291D01*
X0447351Y0069471D02*
X0447351Y0063994D01*
X0446752Y0063395D02*
X0446752Y0070069D01*
X0446154Y0070668D02*
X0446154Y0054331D01*
X0445555Y0054331D02*
X0445555Y0070866D01*
X0444957Y0070866D02*
X0444957Y0054331D01*
X0444358Y0054331D02*
X0444358Y0070866D01*
X0443760Y0070866D02*
X0443760Y0054331D01*
X0443161Y0054331D02*
X0443161Y0070866D01*
X0442563Y0070866D02*
X0442563Y0054574D01*
X0441964Y0055172D02*
X0441964Y0070866D01*
X0441366Y0070866D02*
X0441366Y0055771D01*
X0440767Y0056369D02*
X0440767Y0070866D01*
X0440169Y0070866D02*
X0440169Y0056968D01*
X0439570Y0057566D02*
X0439570Y0070866D01*
X0438972Y0070866D02*
X0438972Y0058165D01*
X0438373Y0058763D02*
X0438373Y0070866D01*
X0437774Y0070866D02*
X0437774Y0059362D01*
X0437176Y0059960D02*
X0437176Y0070866D01*
X0436577Y0070866D02*
X0436577Y0060559D01*
X0435979Y0061157D02*
X0435979Y0070866D01*
X0435380Y0070866D02*
X0435380Y0061756D01*
X0434782Y0062354D02*
X0434782Y0070866D01*
X0434183Y0070866D02*
X0434183Y0062953D01*
X0433585Y0063551D02*
X0433585Y0070866D01*
X0432986Y0070866D02*
X0432986Y0064150D01*
X0432388Y0064749D02*
X0432388Y0070685D01*
X0428239Y0059843D02*
X0426270Y0059843D01*
X0419971Y0066142D01*
X0413672Y0066142D01*
X0410916Y0063386D01*
X0410916Y0060236D01*
X0416428Y0054724D01*
X0416428Y0046850D01*
X0420365Y0043307D01*
X0420365Y0024075D01*
X0420587Y0024135D01*
X0422427Y0024135D01*
X0422427Y0021363D01*
X0423027Y0021363D01*
X0425995Y0021363D01*
X0425995Y0023006D01*
X0425907Y0023336D01*
X0425736Y0023633D01*
X0425494Y0023875D01*
X0425197Y0024046D01*
X0424867Y0024135D01*
X0423027Y0024135D01*
X0423027Y0021363D01*
X0423027Y0020763D01*
X0425995Y0020763D01*
X0425995Y0019120D01*
X0425907Y0018790D01*
X0425736Y0018493D01*
X0425494Y0018251D01*
X0425197Y0018080D01*
X0424867Y0017991D01*
X0423027Y0017991D01*
X0423027Y0020763D01*
X0422427Y0020763D01*
X0422427Y0017991D01*
X0420587Y0017991D01*
X0420365Y0018051D01*
X0420365Y0011024D01*
X0422727Y0008661D01*
X0433751Y0008661D01*
X0436506Y0011417D01*
X0436506Y0029528D01*
X0434538Y0031496D01*
X0434538Y0036220D01*
X0433357Y0037402D01*
X0433357Y0054724D01*
X0428239Y0059843D01*
X0428198Y0059843D02*
X0428198Y0008661D01*
X0427600Y0008661D02*
X0427600Y0059843D01*
X0427001Y0059843D02*
X0427001Y0008661D01*
X0426403Y0008661D02*
X0426403Y0059843D01*
X0425804Y0060309D02*
X0425804Y0023514D01*
X0425206Y0024041D02*
X0425206Y0060907D01*
X0424607Y0061506D02*
X0424607Y0024135D01*
X0424009Y0024135D02*
X0424009Y0062104D01*
X0423410Y0062703D02*
X0423410Y0024135D01*
X0422213Y0024135D02*
X0422213Y0063900D01*
X0421615Y0064498D02*
X0421615Y0024135D01*
X0421016Y0024135D02*
X0421016Y0065097D01*
X0420418Y0065695D02*
X0420418Y0024089D01*
X0422812Y0021363D02*
X0422812Y0063301D01*
X0419819Y0066142D02*
X0419819Y0043798D01*
X0419221Y0044337D02*
X0419221Y0066142D01*
X0418622Y0066142D02*
X0418622Y0044875D01*
X0418024Y0045414D02*
X0418024Y0066142D01*
X0417425Y0066142D02*
X0417425Y0045953D01*
X0416827Y0046491D02*
X0416827Y0066142D01*
X0416228Y0066142D02*
X0416228Y0054924D01*
X0415630Y0055523D02*
X0415630Y0066142D01*
X0415031Y0066142D02*
X0415031Y0056121D01*
X0414433Y0056720D02*
X0414433Y0066142D01*
X0413834Y0066142D02*
X0413834Y0057318D01*
X0413236Y0057917D02*
X0413236Y0065705D01*
X0412637Y0065107D02*
X0412637Y0058515D01*
X0412039Y0059114D02*
X0412039Y0064508D01*
X0411440Y0063910D02*
X0411440Y0059712D01*
X0428797Y0059284D02*
X0428797Y0008661D01*
X0429395Y0008661D02*
X0429395Y0058686D01*
X0429994Y0058087D02*
X0429994Y0008661D01*
X0430592Y0008661D02*
X0430592Y0057489D01*
X0431191Y0056890D02*
X0431191Y0008661D01*
X0431789Y0008661D02*
X0431789Y0056292D01*
X0432388Y0055693D02*
X0432388Y0008661D01*
X0432986Y0008661D02*
X0432986Y0055095D01*
X0433585Y0037174D02*
X0433585Y0008661D01*
X0434183Y0009094D02*
X0434183Y0036575D01*
X0434782Y0031252D02*
X0434782Y0009693D01*
X0435380Y0010291D02*
X0435380Y0030654D01*
X0435979Y0030055D02*
X0435979Y0010890D01*
X0438869Y0006299D02*
X0438869Y0005906D01*
X0425804Y0008661D02*
X0425804Y0018612D01*
X0425206Y0018085D02*
X0425206Y0008661D01*
X0424607Y0008661D02*
X0424607Y0017991D01*
X0424009Y0017991D02*
X0424009Y0008661D01*
X0423410Y0008661D02*
X0423410Y0017991D01*
X0422213Y0017991D02*
X0422213Y0009175D01*
X0422812Y0008661D02*
X0422812Y0020763D01*
X0423410Y0020763D02*
X0423410Y0021363D01*
X0424009Y0021363D02*
X0424009Y0020763D01*
X0424607Y0020763D02*
X0424607Y0021363D01*
X0425206Y0021363D02*
X0425206Y0020763D01*
X0425804Y0020763D02*
X0425804Y0021363D01*
X0421615Y0017991D02*
X0421615Y0009774D01*
X0421016Y0010372D02*
X0421016Y0017991D01*
X0420418Y0018037D02*
X0420418Y0010971D01*
X0451540Y0062919D02*
X0451540Y0090084D01*
X0452139Y0089486D02*
X0452139Y0062598D01*
X0452737Y0062598D02*
X0452737Y0088887D01*
X0453336Y0088289D02*
X0453336Y0062598D01*
X0453934Y0062598D02*
X0453934Y0087690D01*
X0454533Y0087092D02*
X0454533Y0062598D01*
X0455131Y0062598D02*
X0455131Y0086493D01*
X0455730Y0085895D02*
X0455730Y0062598D01*
X0456328Y0062598D02*
X0456328Y0085296D01*
X0456927Y0083517D02*
X0456927Y0062598D01*
X0457525Y0062751D02*
X0457525Y0082918D01*
X0458124Y0082320D02*
X0458124Y0063350D01*
X0458722Y0063948D02*
X0458722Y0081721D01*
X0450942Y0090683D02*
X0450942Y0063517D01*
X0450343Y0064116D02*
X0450343Y0091281D01*
X0444358Y0091710D02*
X0444358Y0073228D01*
X0443760Y0073228D02*
X0443760Y0091111D01*
X0443161Y0090513D02*
X0443161Y0073660D01*
X0442563Y0074259D02*
X0442563Y0089914D01*
D317*
X0437294Y0094094D02*
X0437294Y0100000D01*
X0448318Y0111024D01*
X0457373Y0111024D01*
X0466034Y0119685D01*
X0466034Y0128346D01*
X0466428Y0157087D01*
X0466428Y0194488D01*
X0460522Y0200394D01*
X0437294Y0200394D01*
X0424695Y0197244D02*
X0422727Y0195276D01*
X0424695Y0197244D02*
X0424695Y0204331D01*
X0419577Y0195276D02*
X0414459Y0200394D01*
X0398318Y0200394D01*
X0393199Y0190157D02*
X0405404Y0190157D01*
X0410522Y0195276D01*
X0415247Y0195276D01*
X0416920Y0193602D01*
X0416920Y0185236D01*
X0419479Y0185236D02*
X0419577Y0185335D01*
X0419577Y0195276D01*
X0414459Y0190551D02*
X0414459Y0185335D01*
X0414361Y0185236D01*
X0411802Y0185236D02*
X0411211Y0184646D01*
X0390443Y0184646D01*
X0381979Y0176181D01*
X0383751Y0187402D02*
X0382176Y0188976D01*
X0383751Y0187402D02*
X0406585Y0187402D01*
X0410129Y0190945D01*
X0414066Y0190945D01*
X0414459Y0190551D01*
X0414361Y0168307D02*
X0414361Y0164469D01*
X0411703Y0161811D01*
X0410129Y0155906D02*
X0417215Y0155906D01*
X0419479Y0158169D01*
X0419479Y0168307D01*
X0416920Y0168307D02*
X0416920Y0161122D01*
X0416034Y0160236D01*
X0421152Y0155118D02*
X0421152Y0152165D01*
X0421152Y0155118D02*
X0423514Y0157480D01*
X0426270Y0157480D01*
X0427845Y0155906D01*
X0427845Y0152165D01*
X0431388Y0159055D02*
X0453042Y0180709D01*
X0453829Y0180709D01*
X0460522Y0187402D01*
X0460522Y0179528D02*
X0453829Y0172835D01*
X0439656Y0158661D01*
X0437294Y0158661D01*
X0440837Y0124803D02*
X0442018Y0124803D01*
X0446152Y0120669D01*
X0446152Y0118110D01*
X0440050Y0112205D02*
X0434538Y0112205D01*
X0434538Y0112795D01*
X0429026Y0112795D01*
X0429026Y0106102D02*
X0429026Y0103543D01*
X0432963Y0099606D01*
X0426664Y0099606D01*
X0423514Y0102756D01*
X0423514Y0106102D01*
X0432963Y0099606D02*
X0434538Y0101181D01*
X0434538Y0106102D01*
X0437294Y0094094D02*
X0435719Y0092520D01*
X0432766Y0092520D01*
X0426073Y0092520D02*
X0402373Y0092520D01*
X0402333Y0092480D01*
X0402333Y0087717D01*
X0405601Y0084449D01*
X0405601Y0081496D01*
X0404223Y0074803D02*
X0388475Y0090551D01*
X0388475Y0128740D01*
X0393987Y0134252D01*
X0410129Y0134252D01*
X0413672Y0137795D01*
X0413672Y0139370D01*
X0412491Y0146457D02*
X0405798Y0139764D01*
X0400877Y0139764D01*
X0403829Y0149213D02*
X0404814Y0150197D01*
X0404814Y0163386D01*
X0404814Y0169291D01*
X0405798Y0168307D01*
X0411802Y0168307D01*
X0398121Y0169291D02*
X0396152Y0171260D01*
X0392806Y0171260D01*
X0392806Y0166142D01*
X0395562Y0163386D01*
X0398121Y0163386D01*
X0394184Y0139764D02*
X0388081Y0139764D01*
X0381388Y0133071D01*
X0381388Y0084646D01*
X0386113Y0079921D01*
X0386113Y0047953D01*
X0391113Y0042953D01*
X0395798Y0047638D01*
X0400089Y0047638D01*
X0400089Y0055906D02*
X0400089Y0059252D01*
X0401467Y0060630D01*
X0403042Y0060630D01*
X0404223Y0061811D01*
X0404223Y0065157D01*
X0404223Y0071850D02*
X0404223Y0074803D01*
X0412294Y0078150D02*
X0412294Y0081496D01*
X0412294Y0078150D02*
X0428239Y0062205D01*
X0430601Y0062205D01*
X0435719Y0057087D01*
X0435719Y0047638D01*
X0442018Y0041339D01*
X0447924Y0041339D01*
X0452255Y0037008D01*
X0452255Y0013386D01*
X0445562Y0011024D02*
X0443593Y0011024D01*
X0438869Y0006299D01*
X0438869Y0032283D01*
X0438869Y0005906D02*
X0437294Y0004331D01*
X0410916Y0004331D01*
X0410129Y0005118D01*
X0402648Y0010236D02*
X0402451Y0010433D01*
X0402574Y0025197D02*
X0402574Y0031890D01*
X0401576Y0031890D02*
X0401576Y0025197D01*
X0400577Y0025197D02*
X0400577Y0031890D01*
X0399579Y0031890D02*
X0399579Y0025197D01*
X0399499Y0025197D02*
X0397924Y0026772D01*
X0397924Y0030709D01*
X0399105Y0031890D01*
X0404223Y0031890D01*
X0404721Y0032161D01*
X0406396Y0032161D01*
X0406396Y0035047D01*
X0407168Y0035047D01*
X0407168Y0032161D01*
X0408948Y0032161D01*
X0409330Y0032264D01*
X0409672Y0032461D01*
X0409951Y0032740D01*
X0410148Y0033082D01*
X0410251Y0033464D01*
X0410251Y0035047D01*
X0407168Y0035047D01*
X0407168Y0035819D01*
X0406396Y0035819D01*
X0406396Y0038705D01*
X0406388Y0038705D01*
X0406388Y0039370D01*
X0412566Y0039370D01*
X0412566Y0038378D01*
X0415451Y0038378D01*
X0415451Y0037606D01*
X0412566Y0037606D01*
X0412566Y0037008D01*
X0412530Y0037008D01*
X0412530Y0034136D01*
X0412366Y0033972D01*
X0412366Y0031712D01*
X0404617Y0025197D01*
X0399499Y0025197D01*
X0398580Y0026115D02*
X0398580Y0031365D01*
X0403573Y0031890D02*
X0403573Y0025197D01*
X0404572Y0025197D02*
X0404572Y0032080D01*
X0405570Y0032161D02*
X0405570Y0025998D01*
X0406569Y0026838D02*
X0406569Y0035047D01*
X0406782Y0035433D02*
X0406782Y0047638D01*
X0406782Y0055906D01*
X0400089Y0055906D02*
X0394066Y0055906D01*
X0391113Y0052953D01*
X0406569Y0039370D02*
X0406569Y0035819D01*
X0407168Y0035819D02*
X0407168Y0038705D01*
X0408948Y0038705D01*
X0409330Y0038602D01*
X0409672Y0038405D01*
X0409951Y0038126D01*
X0410148Y0037784D01*
X0410251Y0037402D01*
X0410251Y0035819D01*
X0407168Y0035819D01*
X0407567Y0035819D02*
X0407567Y0035047D01*
X0408566Y0035047D02*
X0408566Y0035819D01*
X0409564Y0035819D02*
X0409564Y0035047D01*
X0409564Y0032399D02*
X0409564Y0029357D01*
X0410563Y0030196D02*
X0410563Y0039370D01*
X0411561Y0039370D02*
X0411561Y0031036D01*
X0408566Y0032161D02*
X0408566Y0028517D01*
X0407567Y0027677D02*
X0407567Y0032161D01*
X0407567Y0038705D02*
X0407567Y0039370D01*
X0408566Y0039370D02*
X0408566Y0038705D01*
X0409564Y0038467D02*
X0409564Y0039370D01*
X0412560Y0039370D02*
X0412560Y0037008D01*
X0413558Y0037606D02*
X0413558Y0038378D01*
X0414557Y0038378D02*
X0414557Y0037606D01*
X0402333Y0112480D02*
X0404814Y0114961D01*
X0410916Y0114961D01*
X0413081Y0117126D01*
X0413081Y0120866D01*
X0393199Y0190157D02*
X0382176Y0201181D01*
X0401113Y0222953D02*
X0401113Y0239803D01*
X0402255Y0240945D01*
X0402255Y0246850D01*
X0402294Y0246890D01*
X0408947Y0238583D02*
X0422727Y0238583D01*
X0429617Y0231693D01*
X0435522Y0231693D01*
D268*
X0400089Y0035433D02*
X0396743Y0035433D01*
X0395562Y0034252D01*
X0392412Y0034252D01*
X0391113Y0032953D01*
X0406192Y0015748D02*
X0406192Y0010433D01*
X0402648Y0010236D02*
X0402648Y0006693D01*
X0403829Y0005512D01*
X0409735Y0005512D01*
X0410129Y0005118D01*
X0410129Y0010236D01*
X0409932Y0010433D01*
X0409932Y0021063D02*
X0416034Y0021063D01*
X0416034Y0028346D01*
X0415837Y0031299D01*
D136*
X0462097Y0082283D02*
X0460129Y0084252D01*
X0460129Y0087686D01*
X0460171Y0087686D01*
X0460171Y0091409D01*
X0460716Y0092318D01*
X0460716Y0087686D01*
X0464410Y0087686D01*
X0465241Y0087817D01*
X0466041Y0088077D01*
X0466791Y0088459D01*
X0467472Y0088954D01*
X0468067Y0089549D01*
X0468561Y0090230D01*
X0468943Y0090979D01*
X0469203Y0091780D01*
X0469335Y0092611D01*
X0469335Y0092759D01*
X0460981Y0092759D01*
X0461308Y0093304D01*
X0469335Y0093304D01*
X0469335Y0093307D01*
X0471546Y0093307D01*
X0471546Y0033465D01*
X0469184Y0031102D01*
X0466034Y0031102D01*
X0464066Y0033071D01*
X0464066Y0050787D01*
X0468003Y0052362D01*
X0468560Y0053477D01*
X0468913Y0053963D01*
X0469286Y0054694D01*
X0469539Y0055473D01*
X0469667Y0056283D01*
X0469667Y0056489D01*
X0464663Y0056489D01*
X0464663Y0056897D01*
X0469667Y0056897D01*
X0469667Y0057103D01*
X0469539Y0057912D01*
X0469286Y0058692D01*
X0468913Y0059422D01*
X0468790Y0059592D01*
X0468790Y0059843D01*
X0466821Y0061811D01*
X0465436Y0061811D01*
X0464869Y0061901D01*
X0464663Y0061901D01*
X0464663Y0061811D01*
X0464459Y0061811D01*
X0462097Y0064173D01*
X0462097Y0082283D01*
X0461670Y0082710D02*
X0461670Y0087686D01*
X0463269Y0087686D02*
X0463269Y0063001D01*
X0464867Y0061901D02*
X0464867Y0087758D01*
X0466466Y0088294D02*
X0466466Y0061811D01*
X0468064Y0060568D02*
X0468064Y0089547D01*
X0468064Y0092759D02*
X0468064Y0093304D01*
X0466466Y0093304D02*
X0466466Y0092759D01*
X0464867Y0092759D02*
X0464867Y0093304D01*
X0463269Y0093304D02*
X0463269Y0092759D01*
X0461670Y0092759D02*
X0461670Y0093304D01*
X0469663Y0093307D02*
X0469663Y0057130D01*
X0469663Y0056897D02*
X0469663Y0056489D01*
X0469663Y0056256D02*
X0469663Y0031582D01*
X0468064Y0031102D02*
X0468064Y0052486D01*
X0466466Y0051748D02*
X0466466Y0031102D01*
X0464867Y0032269D02*
X0464867Y0051108D01*
X0464867Y0056489D02*
X0464867Y0056897D01*
X0466466Y0056897D02*
X0466466Y0056489D01*
X0468064Y0056489D02*
X0468064Y0056897D01*
X0471261Y0033180D02*
X0471261Y0093307D01*
X0372333Y0261906D02*
G75*
%LPD*%
D454*
X0419479Y0430213D03*
X0416920Y0430213D03*
X0414361Y0430213D03*
X0411802Y0430213D03*
X0411802Y0447142D03*
X0414361Y0447142D03*
X0416920Y0447142D03*
X0419479Y0447142D03*
D237*
X0386509Y0427812D02*
X0379418Y0427812D01*
X0379418Y0417812D02*
X0386509Y0417812D01*
X0386509Y0407812D02*
X0379418Y0407812D01*
X0398788Y0384386D02*
X0405879Y0384386D01*
X0405879Y0374386D02*
X0398788Y0374386D01*
X0398788Y0364386D02*
X0405879Y0364386D01*
X0405879Y0354386D02*
X0398788Y0354386D01*
X0430205Y0342497D02*
X0437296Y0342497D01*
X0437296Y0332497D02*
X0430205Y0332497D01*
X0443711Y0316318D02*
X0443711Y0309226D01*
X0453711Y0309226D02*
X0453711Y0316318D01*
X0456898Y0354937D02*
X0463989Y0354937D01*
X0463989Y0364937D02*
X0456898Y0364937D01*
D388*
X0446152Y0380016D03*
X0439459Y0380016D03*
X0432766Y0354426D03*
X0426073Y0354426D03*
X0412294Y0343402D03*
X0405601Y0343402D03*
X0406782Y0317812D03*
X0406782Y0309544D03*
X0400089Y0309544D03*
X0400089Y0317812D03*
X0400089Y0297339D03*
X0406782Y0297339D03*
X0416034Y0282969D03*
X0422727Y0282969D03*
X0419774Y0382772D03*
X0413081Y0382772D03*
X0400877Y0401670D03*
X0394184Y0401670D03*
X0398121Y0425292D03*
X0398121Y0431197D03*
X0404814Y0431197D03*
X0404814Y0425292D03*
D801*
X0402451Y0282969D03*
X0409932Y0282969D03*
X0409932Y0272339D03*
X0406192Y0272339D03*
X0402451Y0272339D03*
D417*
X0391113Y0304859D03*
X0391113Y0314859D03*
X0391113Y0324859D03*
X0391113Y0334859D03*
X0381113Y0334859D03*
X0381113Y0324859D03*
X0381113Y0314859D03*
X0381113Y0304859D03*
X0381113Y0294859D03*
X0391113Y0474859D03*
X0391113Y0484859D03*
X0401113Y0484859D03*
X0401113Y0474859D03*
X0381113Y0484859D03*
D224*
X0381113Y0474859D03*
X0391113Y0294859D03*
D274*
X0425581Y0387319D03*
X0425581Y0389012D03*
X0425581Y0390705D03*
X0425581Y0392398D03*
X0437195Y0392398D03*
X0437195Y0390705D03*
X0437195Y0389012D03*
X0437195Y0387319D03*
D382*
X0437314Y0385036D03*
X0435621Y0385036D03*
X0433928Y0385036D03*
X0432235Y0385036D03*
X0430542Y0385036D03*
X0428849Y0385036D03*
X0427156Y0385036D03*
X0425463Y0385036D03*
X0425463Y0394682D03*
X0427156Y0394682D03*
X0428849Y0394682D03*
X0430542Y0394682D03*
X0432235Y0394682D03*
X0433928Y0394682D03*
X0435621Y0394682D03*
X0437314Y0394682D03*
D252*
X0427845Y0407378D03*
X0427845Y0414071D03*
X0421152Y0414071D03*
X0421152Y0407378D03*
X0423514Y0374701D03*
X0423514Y0368008D03*
X0429026Y0368008D03*
X0429026Y0374701D03*
X0434538Y0374701D03*
X0434538Y0368008D03*
X0404223Y0333756D03*
X0404223Y0327063D03*
X0415837Y0299898D03*
X0415837Y0293205D03*
D182*
X0448318Y0391434D03*
X0443593Y0399701D03*
X0448318Y0406394D03*
X0441231Y0409937D03*
X0434538Y0412693D03*
X0402294Y0508796D03*
D106*
X0435522Y0511315D03*
X0435522Y0493599D03*
X0461113Y0493599D03*
X0461113Y0511315D03*
D451*
X0484676Y0293008D03*
X0484676Y0318993D03*
D232*
X0398318Y0462300D03*
X0382176Y0463087D03*
X0382176Y0450882D03*
X0381979Y0438087D03*
X0424695Y0466237D03*
D135*
X0473357Y0436473D03*
X0473357Y0426473D03*
X0483357Y0426473D03*
X0483357Y0436473D03*
X0457373Y0387497D03*
X0453042Y0380016D03*
X0443593Y0360331D03*
X0464459Y0318599D03*
X0395562Y0277654D03*
D43*
X0401861Y0288875D03*
X0403829Y0292024D03*
X0399892Y0292024D03*
X0406192Y0277654D03*
X0410129Y0267024D03*
X0427058Y0291434D03*
X0430601Y0291434D03*
X0430601Y0284347D03*
X0430601Y0276079D03*
X0438869Y0294189D03*
X0430601Y0307575D03*
X0427058Y0307575D03*
X0441625Y0328441D03*
X0444774Y0326867D03*
X0444774Y0330410D03*
X0444380Y0337497D03*
X0444380Y0342221D03*
X0444380Y0346945D03*
X0447530Y0351276D03*
X0450286Y0346945D03*
X0455010Y0336709D03*
X0463672Y0329229D03*
X0465247Y0326079D03*
X0467609Y0328835D03*
X0464459Y0336315D03*
X0477451Y0327260D03*
X0484538Y0340252D03*
X0468003Y0304426D03*
X0468003Y0300882D03*
X0468003Y0297339D03*
X0459341Y0279229D03*
X0452255Y0275292D03*
X0445562Y0272930D03*
X0397924Y0330016D03*
X0413278Y0359150D03*
X0419184Y0378048D03*
X0416034Y0390646D03*
X0410129Y0396158D03*
X0405798Y0401670D03*
X0403829Y0411119D03*
X0410129Y0417812D03*
X0411703Y0423717D03*
X0416034Y0422142D03*
X0423514Y0419386D03*
X0431388Y0420961D03*
X0437294Y0420567D03*
X0427451Y0401276D03*
X0431388Y0389859D03*
X0440837Y0390252D03*
X0440837Y0386709D03*
X0440050Y0374111D03*
X0432963Y0361512D03*
X0413672Y0401276D03*
X0412491Y0408363D03*
X0393199Y0412693D03*
X0392806Y0433166D03*
X0396349Y0442615D03*
X0403436Y0437890D03*
X0403436Y0456000D03*
X0415247Y0475686D03*
X0422727Y0491040D03*
X0432569Y0500882D03*
X0429026Y0507969D03*
X0445562Y0483953D03*
X0451467Y0483166D03*
X0437294Y0462300D03*
X0429814Y0456788D03*
X0422727Y0457182D03*
X0425877Y0441827D03*
X0434144Y0473323D03*
X0446349Y0452654D03*
X0453829Y0442615D03*
X0453829Y0434741D03*
X0460522Y0441434D03*
X0460522Y0449308D03*
X0453436Y0415843D03*
X0453829Y0408363D03*
X0461310Y0393402D03*
X0473121Y0400489D03*
X0475877Y0391434D03*
X0486113Y0398126D03*
X0486113Y0383166D03*
X0486113Y0413875D03*
X0486113Y0448914D03*
X0484932Y0463481D03*
X0478632Y0487103D03*
X0470365Y0483166D03*
X0449105Y0513087D03*
X0410129Y0508363D03*
X0408947Y0500489D03*
X0397924Y0513087D03*
X0377058Y0492221D03*
X0376664Y0388678D03*
X0376664Y0373717D03*
X0376664Y0364662D03*
X0376664Y0355607D03*
X0376664Y0346552D03*
D392*
X0410522Y0395764D02*
X0410129Y0396158D01*
X0410522Y0395764D02*
X0410522Y0391827D01*
X0415030Y0387319D01*
X0425581Y0387319D01*
X0425581Y0389012D02*
X0417668Y0389012D01*
X0416034Y0390646D01*
X0418790Y0392615D02*
X0420699Y0390705D01*
X0425581Y0390705D01*
X0425581Y0392398D02*
X0423731Y0392398D01*
X0421152Y0394977D01*
X0421152Y0407378D01*
X0424695Y0406788D02*
X0424695Y0404229D01*
X0423514Y0403048D01*
X0423514Y0396552D01*
X0425384Y0394682D01*
X0425463Y0394682D01*
X0427156Y0394682D02*
X0427156Y0400981D01*
X0427451Y0401276D01*
X0428849Y0399878D01*
X0428849Y0394682D01*
X0430542Y0394682D02*
X0430542Y0404760D01*
X0434538Y0408756D01*
X0434538Y0412693D01*
X0436113Y0407575D02*
X0437688Y0407575D01*
X0440050Y0409937D01*
X0441231Y0409937D01*
X0445955Y0406394D02*
X0444380Y0404819D01*
X0436900Y0404819D01*
X0433928Y0401847D01*
X0433928Y0394682D01*
X0435621Y0394682D02*
X0435621Y0396060D01*
X0439262Y0399701D01*
X0443593Y0399701D01*
X0445069Y0394682D02*
X0437314Y0394682D01*
X0437195Y0392398D02*
X0438692Y0392398D01*
X0440837Y0390252D01*
X0439597Y0389012D01*
X0437195Y0389012D01*
X0437195Y0387319D02*
X0440227Y0387319D01*
X0440837Y0386709D01*
X0439164Y0385036D01*
X0437314Y0385036D01*
X0435621Y0385036D01*
X0433928Y0385036D01*
X0432255Y0385016D02*
X0432235Y0385036D01*
X0432255Y0384977D01*
X0432255Y0385016D02*
X0432255Y0382733D01*
X0434932Y0380016D01*
X0439459Y0380016D01*
X0440837Y0390252D02*
X0440384Y0390705D01*
X0437195Y0390705D01*
X0432235Y0394682D02*
X0432235Y0403697D01*
X0436113Y0407575D01*
X0427845Y0407378D02*
X0427648Y0407182D01*
X0425089Y0407182D01*
X0424695Y0406788D01*
X0418790Y0402063D02*
X0418790Y0392615D01*
X0419774Y0382772D02*
X0423199Y0382772D01*
X0425463Y0385036D01*
X0427156Y0385036D02*
X0427156Y0381099D01*
X0423514Y0377457D01*
X0423514Y0374701D01*
X0428849Y0374878D02*
X0429026Y0374701D01*
X0428849Y0374878D02*
X0428849Y0385036D01*
X0428849Y0382772D01*
X0430207Y0382772D01*
X0430601Y0383166D01*
X0430601Y0384977D01*
X0430542Y0385036D01*
X0430562Y0385016D01*
X0419774Y0382772D02*
X0419774Y0378638D01*
X0419184Y0378048D01*
X0418790Y0402063D02*
X0412491Y0408363D01*
X0445955Y0406394D02*
X0448318Y0406394D01*
X0448318Y0404819D01*
X0445069Y0394682D02*
X0448318Y0391434D01*
X0401113Y0507615D02*
X0402294Y0508796D01*
D94*
X0445168Y0354426D02*
X0449105Y0354426D01*
X0456585Y0346945D01*
X0456585Y0345764D01*
X0458947Y0343402D01*
X0458947Y0326079D01*
X0457373Y0324504D01*
X0451861Y0324504D01*
X0449892Y0326473D01*
X0449892Y0333166D01*
X0447924Y0335134D01*
X0443593Y0335134D01*
X0442412Y0336315D01*
X0442412Y0351670D01*
X0445168Y0354426D01*
X0444957Y0354214D02*
X0444957Y0335134D01*
X0445555Y0335134D02*
X0445555Y0354426D01*
X0446154Y0354426D02*
X0446154Y0335134D01*
X0446752Y0335134D02*
X0446752Y0354426D01*
X0447351Y0354426D02*
X0447351Y0335134D01*
X0447949Y0335109D02*
X0447949Y0354426D01*
X0448548Y0354426D02*
X0448548Y0334510D01*
X0449146Y0333912D02*
X0449146Y0354384D01*
X0449745Y0353786D02*
X0449745Y0333313D01*
X0447530Y0331197D02*
X0447530Y0326079D01*
X0446743Y0325292D01*
X0446743Y0316237D01*
X0442806Y0316237D01*
X0432176Y0326867D01*
X0432176Y0332378D01*
X0432569Y0332772D01*
X0445955Y0332772D01*
X0447530Y0331197D01*
X0447351Y0331377D02*
X0447351Y0325900D01*
X0446752Y0325301D02*
X0446752Y0331975D01*
X0446154Y0332574D02*
X0446154Y0316237D01*
X0445555Y0316237D02*
X0445555Y0332772D01*
X0444957Y0332772D02*
X0444957Y0316237D01*
X0444358Y0316237D02*
X0444358Y0332772D01*
X0443760Y0332772D02*
X0443760Y0316237D01*
X0443161Y0316237D02*
X0443161Y0332772D01*
X0442563Y0332772D02*
X0442563Y0316480D01*
X0441964Y0317078D02*
X0441964Y0332772D01*
X0441366Y0332772D02*
X0441366Y0317677D01*
X0440767Y0318275D02*
X0440767Y0332772D01*
X0440169Y0332772D02*
X0440169Y0318874D01*
X0439570Y0319472D02*
X0439570Y0332772D01*
X0438972Y0332772D02*
X0438972Y0320071D01*
X0438373Y0320669D02*
X0438373Y0332772D01*
X0437774Y0332772D02*
X0437774Y0321268D01*
X0437176Y0321866D02*
X0437176Y0332772D01*
X0436577Y0332772D02*
X0436577Y0322465D01*
X0435979Y0323063D02*
X0435979Y0332772D01*
X0435380Y0332772D02*
X0435380Y0323662D01*
X0434782Y0324260D02*
X0434782Y0332772D01*
X0434183Y0332772D02*
X0434183Y0324859D01*
X0433585Y0325457D02*
X0433585Y0332772D01*
X0432986Y0332772D02*
X0432986Y0326056D01*
X0432388Y0326655D02*
X0432388Y0332591D01*
X0428239Y0321749D02*
X0426270Y0321749D01*
X0419971Y0328048D01*
X0413672Y0328048D01*
X0410916Y0325292D01*
X0410916Y0322142D01*
X0416428Y0316630D01*
X0416428Y0308756D01*
X0420365Y0305213D01*
X0420365Y0285981D01*
X0420587Y0286041D01*
X0422427Y0286041D01*
X0422427Y0283269D01*
X0423027Y0283269D01*
X0425995Y0283269D01*
X0425995Y0284912D01*
X0425907Y0285242D01*
X0425736Y0285539D01*
X0425494Y0285781D01*
X0425197Y0285952D01*
X0424867Y0286041D01*
X0423027Y0286041D01*
X0423027Y0283269D01*
X0423027Y0282669D01*
X0425995Y0282669D01*
X0425995Y0281026D01*
X0425907Y0280696D01*
X0425736Y0280399D01*
X0425494Y0280157D01*
X0425197Y0279986D01*
X0424867Y0279897D01*
X0423027Y0279897D01*
X0423027Y0282669D01*
X0422427Y0282669D01*
X0422427Y0279897D01*
X0420587Y0279897D01*
X0420365Y0279957D01*
X0420365Y0272930D01*
X0422727Y0270567D01*
X0433751Y0270567D01*
X0436506Y0273323D01*
X0436506Y0291434D01*
X0434538Y0293402D01*
X0434538Y0298126D01*
X0433357Y0299308D01*
X0433357Y0316630D01*
X0428239Y0321749D01*
X0428198Y0321749D02*
X0428198Y0270567D01*
X0427600Y0270567D02*
X0427600Y0321749D01*
X0427001Y0321749D02*
X0427001Y0270567D01*
X0426403Y0270567D02*
X0426403Y0321749D01*
X0425804Y0322215D02*
X0425804Y0285420D01*
X0425206Y0285947D02*
X0425206Y0322813D01*
X0424607Y0323412D02*
X0424607Y0286041D01*
X0424009Y0286041D02*
X0424009Y0324010D01*
X0423410Y0324609D02*
X0423410Y0286041D01*
X0422213Y0286041D02*
X0422213Y0325806D01*
X0421615Y0326404D02*
X0421615Y0286041D01*
X0421016Y0286041D02*
X0421016Y0327003D01*
X0420418Y0327601D02*
X0420418Y0285995D01*
X0422812Y0283269D02*
X0422812Y0325207D01*
X0419819Y0328048D02*
X0419819Y0305704D01*
X0419221Y0306243D02*
X0419221Y0328048D01*
X0418622Y0328048D02*
X0418622Y0306781D01*
X0418024Y0307320D02*
X0418024Y0328048D01*
X0417425Y0328048D02*
X0417425Y0307859D01*
X0416827Y0308397D02*
X0416827Y0328048D01*
X0416228Y0328048D02*
X0416228Y0316830D01*
X0415630Y0317429D02*
X0415630Y0328048D01*
X0415031Y0328048D02*
X0415031Y0318027D01*
X0414433Y0318626D02*
X0414433Y0328048D01*
X0413834Y0328048D02*
X0413834Y0319224D01*
X0413236Y0319823D02*
X0413236Y0327611D01*
X0412637Y0327013D02*
X0412637Y0320421D01*
X0412039Y0321020D02*
X0412039Y0326414D01*
X0411440Y0325816D02*
X0411440Y0321618D01*
X0428797Y0321190D02*
X0428797Y0270567D01*
X0429395Y0270567D02*
X0429395Y0320592D01*
X0429994Y0319993D02*
X0429994Y0270567D01*
X0430592Y0270567D02*
X0430592Y0319395D01*
X0431191Y0318796D02*
X0431191Y0270567D01*
X0431789Y0270567D02*
X0431789Y0318198D01*
X0432388Y0317599D02*
X0432388Y0270567D01*
X0432986Y0270567D02*
X0432986Y0317001D01*
X0433585Y0299080D02*
X0433585Y0270567D01*
X0434183Y0271000D02*
X0434183Y0298481D01*
X0434782Y0293158D02*
X0434782Y0271599D01*
X0435380Y0272197D02*
X0435380Y0292560D01*
X0435979Y0291961D02*
X0435979Y0272796D01*
X0438869Y0268205D02*
X0438869Y0267812D01*
X0425804Y0270567D02*
X0425804Y0280518D01*
X0425206Y0279991D02*
X0425206Y0270567D01*
X0424607Y0270567D02*
X0424607Y0279897D01*
X0424009Y0279897D02*
X0424009Y0270567D01*
X0423410Y0270567D02*
X0423410Y0279897D01*
X0422213Y0279897D02*
X0422213Y0271081D01*
X0422812Y0270567D02*
X0422812Y0282669D01*
X0423410Y0282669D02*
X0423410Y0283269D01*
X0424009Y0283269D02*
X0424009Y0282669D01*
X0424607Y0282669D02*
X0424607Y0283269D01*
X0425206Y0283269D02*
X0425206Y0282669D01*
X0425804Y0282669D02*
X0425804Y0283269D01*
X0421615Y0279897D02*
X0421615Y0271680D01*
X0421016Y0272278D02*
X0421016Y0279897D01*
X0420418Y0279943D02*
X0420418Y0272877D01*
X0451540Y0324825D02*
X0451540Y0351990D01*
X0452139Y0351392D02*
X0452139Y0324504D01*
X0452737Y0324504D02*
X0452737Y0350793D01*
X0453336Y0350195D02*
X0453336Y0324504D01*
X0453934Y0324504D02*
X0453934Y0349596D01*
X0454533Y0348998D02*
X0454533Y0324504D01*
X0455131Y0324504D02*
X0455131Y0348399D01*
X0455730Y0347801D02*
X0455730Y0324504D01*
X0456328Y0324504D02*
X0456328Y0347202D01*
X0456927Y0345423D02*
X0456927Y0324504D01*
X0457525Y0324657D02*
X0457525Y0344824D01*
X0458124Y0344226D02*
X0458124Y0325256D01*
X0458722Y0325854D02*
X0458722Y0343627D01*
X0450942Y0352589D02*
X0450942Y0325423D01*
X0450343Y0326022D02*
X0450343Y0353187D01*
X0444358Y0353616D02*
X0444358Y0335134D01*
X0443760Y0335134D02*
X0443760Y0353017D01*
X0443161Y0352419D02*
X0443161Y0335566D01*
X0442563Y0336165D02*
X0442563Y0351820D01*
D317*
X0437294Y0356000D02*
X0437294Y0361906D01*
X0448318Y0372930D01*
X0457373Y0372930D01*
X0466034Y0381591D01*
X0466034Y0390252D01*
X0466428Y0418993D01*
X0466428Y0456394D01*
X0460522Y0462300D01*
X0437294Y0462300D01*
X0424695Y0459150D02*
X0422727Y0457182D01*
X0424695Y0459150D02*
X0424695Y0466237D01*
X0419577Y0457182D02*
X0414459Y0462300D01*
X0398318Y0462300D01*
X0393199Y0452063D02*
X0405404Y0452063D01*
X0410522Y0457182D01*
X0415247Y0457182D01*
X0416920Y0455508D01*
X0416920Y0447142D01*
X0419479Y0447142D02*
X0419577Y0447241D01*
X0419577Y0457182D01*
X0414459Y0452457D02*
X0414459Y0447241D01*
X0414361Y0447142D01*
X0411802Y0447142D02*
X0411211Y0446552D01*
X0390443Y0446552D01*
X0381979Y0438087D01*
X0383751Y0449308D02*
X0382176Y0450882D01*
X0383751Y0449308D02*
X0406585Y0449308D01*
X0410129Y0452851D01*
X0414066Y0452851D01*
X0414459Y0452457D01*
X0414361Y0430213D02*
X0414361Y0426375D01*
X0411703Y0423717D01*
X0410129Y0417812D02*
X0417215Y0417812D01*
X0419479Y0420075D01*
X0419479Y0430213D01*
X0416920Y0430213D02*
X0416920Y0423028D01*
X0416034Y0422142D01*
X0421152Y0417024D02*
X0421152Y0414071D01*
X0421152Y0417024D02*
X0423514Y0419386D01*
X0426270Y0419386D01*
X0427845Y0417812D01*
X0427845Y0414071D01*
X0431388Y0420961D02*
X0453042Y0442615D01*
X0453829Y0442615D01*
X0460522Y0449308D01*
X0460522Y0441434D02*
X0453829Y0434741D01*
X0439656Y0420567D01*
X0437294Y0420567D01*
X0440837Y0386709D02*
X0442018Y0386709D01*
X0446152Y0382575D01*
X0446152Y0380016D01*
X0440050Y0374111D02*
X0434538Y0374111D01*
X0434538Y0374701D01*
X0429026Y0374701D01*
X0429026Y0368008D02*
X0429026Y0365449D01*
X0432963Y0361512D01*
X0426664Y0361512D01*
X0423514Y0364662D01*
X0423514Y0368008D01*
X0432963Y0361512D02*
X0434538Y0363087D01*
X0434538Y0368008D01*
X0437294Y0356000D02*
X0435719Y0354426D01*
X0432766Y0354426D01*
X0426073Y0354426D02*
X0402373Y0354426D01*
X0402333Y0354386D01*
X0402333Y0349623D01*
X0405601Y0346355D01*
X0405601Y0343402D01*
X0404223Y0336709D02*
X0388475Y0352457D01*
X0388475Y0390646D01*
X0393987Y0396158D01*
X0410129Y0396158D01*
X0413672Y0399701D01*
X0413672Y0401276D01*
X0412491Y0408363D02*
X0405798Y0401670D01*
X0400877Y0401670D01*
X0403829Y0411119D02*
X0404814Y0412103D01*
X0404814Y0425292D01*
X0404814Y0431197D01*
X0405798Y0430213D01*
X0411802Y0430213D01*
X0398121Y0431197D02*
X0396152Y0433166D01*
X0392806Y0433166D01*
X0392806Y0428048D01*
X0395562Y0425292D01*
X0398121Y0425292D01*
X0394184Y0401670D02*
X0388081Y0401670D01*
X0381388Y0394977D01*
X0381388Y0346552D01*
X0386113Y0341827D01*
X0386113Y0309859D01*
X0391113Y0304859D01*
X0395798Y0309544D01*
X0400089Y0309544D01*
X0400089Y0317812D02*
X0400089Y0321158D01*
X0401467Y0322536D01*
X0403042Y0322536D01*
X0404223Y0323717D01*
X0404223Y0327063D01*
X0404223Y0333756D02*
X0404223Y0336709D01*
X0412294Y0340056D02*
X0412294Y0343402D01*
X0412294Y0340056D02*
X0428239Y0324111D01*
X0430601Y0324111D01*
X0435719Y0318993D01*
X0435719Y0309544D01*
X0442018Y0303245D01*
X0447924Y0303245D01*
X0452255Y0298914D01*
X0452255Y0275292D01*
X0445562Y0272930D02*
X0443593Y0272930D01*
X0438869Y0268205D01*
X0438869Y0294189D01*
X0438869Y0267812D02*
X0437294Y0266237D01*
X0410916Y0266237D01*
X0410129Y0267024D01*
X0402648Y0272142D02*
X0402451Y0272339D01*
X0402574Y0287103D02*
X0402574Y0293796D01*
X0401576Y0293796D02*
X0401576Y0287103D01*
X0400577Y0287103D02*
X0400577Y0293796D01*
X0399579Y0293796D02*
X0399579Y0287103D01*
X0399499Y0287103D02*
X0397924Y0288678D01*
X0397924Y0292615D01*
X0399105Y0293796D01*
X0404223Y0293796D01*
X0404721Y0294067D01*
X0406396Y0294067D01*
X0406396Y0296953D01*
X0407168Y0296953D01*
X0407168Y0294067D01*
X0408948Y0294067D01*
X0409330Y0294170D01*
X0409672Y0294367D01*
X0409951Y0294646D01*
X0410148Y0294988D01*
X0410251Y0295370D01*
X0410251Y0296953D01*
X0407168Y0296953D01*
X0407168Y0297725D01*
X0406396Y0297725D01*
X0406396Y0300611D01*
X0406388Y0300611D01*
X0406388Y0301276D01*
X0412566Y0301276D01*
X0412566Y0300284D01*
X0415451Y0300284D01*
X0415451Y0299512D01*
X0412566Y0299512D01*
X0412566Y0298914D01*
X0412530Y0298914D01*
X0412530Y0296042D01*
X0412366Y0295878D01*
X0412366Y0293618D01*
X0404617Y0287103D01*
X0399499Y0287103D01*
X0398580Y0288021D02*
X0398580Y0293271D01*
X0403573Y0293796D02*
X0403573Y0287103D01*
X0404572Y0287103D02*
X0404572Y0293986D01*
X0405570Y0294067D02*
X0405570Y0287904D01*
X0406569Y0288744D02*
X0406569Y0296953D01*
X0406782Y0297339D02*
X0406782Y0309544D01*
X0406782Y0317812D01*
X0400089Y0317812D02*
X0394066Y0317812D01*
X0391113Y0314859D01*
X0406569Y0301276D02*
X0406569Y0297725D01*
X0407168Y0297725D02*
X0407168Y0300611D01*
X0408948Y0300611D01*
X0409330Y0300508D01*
X0409672Y0300311D01*
X0409951Y0300032D01*
X0410148Y0299690D01*
X0410251Y0299308D01*
X0410251Y0297725D01*
X0407168Y0297725D01*
X0407567Y0297725D02*
X0407567Y0296953D01*
X0408566Y0296953D02*
X0408566Y0297725D01*
X0409564Y0297725D02*
X0409564Y0296953D01*
X0409564Y0294305D02*
X0409564Y0291263D01*
X0410563Y0292102D02*
X0410563Y0301276D01*
X0411561Y0301276D02*
X0411561Y0292942D01*
X0408566Y0294067D02*
X0408566Y0290423D01*
X0407567Y0289583D02*
X0407567Y0294067D01*
X0407567Y0300611D02*
X0407567Y0301276D01*
X0408566Y0301276D02*
X0408566Y0300611D01*
X0409564Y0300373D02*
X0409564Y0301276D01*
X0412560Y0301276D02*
X0412560Y0298914D01*
X0413558Y0299512D02*
X0413558Y0300284D01*
X0414557Y0300284D02*
X0414557Y0299512D01*
X0402333Y0374386D02*
X0404814Y0376867D01*
X0410916Y0376867D01*
X0413081Y0379032D01*
X0413081Y0382772D01*
X0393199Y0452063D02*
X0382176Y0463087D01*
X0401113Y0484859D02*
X0401113Y0501709D01*
X0402255Y0502851D01*
X0402255Y0508756D01*
X0402294Y0508796D01*
X0408947Y0500489D02*
X0422727Y0500489D01*
X0429617Y0493599D01*
X0435522Y0493599D01*
D268*
X0400089Y0297339D02*
X0396743Y0297339D01*
X0395562Y0296158D01*
X0392412Y0296158D01*
X0391113Y0294859D01*
X0406192Y0277654D02*
X0406192Y0272339D01*
X0402648Y0272142D02*
X0402648Y0268599D01*
X0403829Y0267418D01*
X0409735Y0267418D01*
X0410129Y0267024D01*
X0410129Y0272142D01*
X0409932Y0272339D01*
X0409932Y0282969D02*
X0416034Y0282969D01*
X0416034Y0290252D01*
X0415837Y0293205D01*
D136*
X0462097Y0344189D02*
X0460129Y0346158D01*
X0460129Y0349592D01*
X0460171Y0349592D01*
X0460171Y0353315D01*
X0460716Y0354224D01*
X0460716Y0349592D01*
X0464410Y0349592D01*
X0465241Y0349723D01*
X0466041Y0349983D01*
X0466791Y0350365D01*
X0467472Y0350860D01*
X0468067Y0351455D01*
X0468561Y0352136D01*
X0468943Y0352885D01*
X0469203Y0353686D01*
X0469335Y0354517D01*
X0469335Y0354665D01*
X0460981Y0354665D01*
X0461308Y0355210D01*
X0469335Y0355210D01*
X0469335Y0355213D01*
X0471546Y0355213D01*
X0471546Y0295371D01*
X0469184Y0293008D01*
X0466034Y0293008D01*
X0464066Y0294977D01*
X0464066Y0312693D01*
X0468003Y0314268D01*
X0468560Y0315383D01*
X0468913Y0315869D01*
X0469286Y0316600D01*
X0469539Y0317379D01*
X0469667Y0318189D01*
X0469667Y0318395D01*
X0464663Y0318395D01*
X0464663Y0318803D01*
X0469667Y0318803D01*
X0469667Y0319009D01*
X0469539Y0319818D01*
X0469286Y0320598D01*
X0468913Y0321328D01*
X0468790Y0321498D01*
X0468790Y0321749D01*
X0466821Y0323717D01*
X0465436Y0323717D01*
X0464869Y0323807D01*
X0464663Y0323807D01*
X0464663Y0323717D01*
X0464459Y0323717D01*
X0462097Y0326079D01*
X0462097Y0344189D01*
X0461670Y0344616D02*
X0461670Y0349592D01*
X0463269Y0349592D02*
X0463269Y0324907D01*
X0464867Y0323807D02*
X0464867Y0349664D01*
X0466466Y0350200D02*
X0466466Y0323717D01*
X0468064Y0322474D02*
X0468064Y0351453D01*
X0468064Y0354665D02*
X0468064Y0355210D01*
X0466466Y0355210D02*
X0466466Y0354665D01*
X0464867Y0354665D02*
X0464867Y0355210D01*
X0463269Y0355210D02*
X0463269Y0354665D01*
X0461670Y0354665D02*
X0461670Y0355210D01*
X0469663Y0355213D02*
X0469663Y0319036D01*
X0469663Y0318803D02*
X0469663Y0318395D01*
X0469663Y0318162D02*
X0469663Y0293488D01*
X0468064Y0293008D02*
X0468064Y0314392D01*
X0466466Y0313654D02*
X0466466Y0293008D01*
X0464867Y0294175D02*
X0464867Y0313014D01*
X0464867Y0318395D02*
X0464867Y0318803D01*
X0466466Y0318803D02*
X0466466Y0318395D01*
X0468064Y0318395D02*
X0468064Y0318803D01*
X0471261Y0295086D02*
X0471261Y0355213D01*
X0496444Y0000000D02*
G75*
%LPD*%
D103*
X0555499Y0029527D03*
X0555499Y0033464D03*
X0555499Y0037401D03*
X0555499Y0041338D03*
X0555499Y0045275D03*
X0555499Y0049212D03*
X0555499Y0053149D03*
X0555499Y0057086D03*
X0555499Y0061023D03*
X0555499Y0064960D03*
X0555499Y0068897D03*
X0555499Y0072834D03*
X0555499Y0076771D03*
X0555499Y0080708D03*
X0555499Y0084645D03*
D120*
X0563373Y0088582D03*
X0563767Y0025590D03*
D43*
X0535814Y0029527D03*
X0539751Y0033464D03*
X0535814Y0037401D03*
X0539751Y0041338D03*
X0535814Y0045275D03*
X0539751Y0049212D03*
X0535814Y0053149D03*
X0539751Y0057086D03*
X0535814Y0061023D03*
X0539751Y0064960D03*
X0535814Y0068897D03*
X0539751Y0072834D03*
X0535814Y0076771D03*
X0539751Y0080708D03*
X0535814Y0084645D03*
D148*
X0555499Y0084645D01*
X0555499Y0080708D02*
X0539751Y0080708D01*
X0535814Y0076771D02*
X0555499Y0076771D01*
X0555499Y0072834D02*
X0539751Y0072834D01*
X0535814Y0068897D02*
X0555499Y0068897D01*
X0555499Y0064960D02*
X0539751Y0064960D01*
X0535814Y0061023D02*
X0555499Y0061023D01*
X0555499Y0057086D02*
X0539751Y0057086D01*
X0535814Y0053149D02*
X0555499Y0053149D01*
X0555499Y0049212D02*
X0539751Y0049212D01*
X0535814Y0045275D02*
X0555499Y0045275D01*
X0555499Y0041338D02*
X0539751Y0041338D01*
X0535814Y0037401D02*
X0555499Y0037401D01*
X0555499Y0033464D02*
X0539751Y0033464D01*
X0535814Y0029527D02*
X0555499Y0029527D01*
X0496444Y0120173D02*
G75*
%LPD*%
D103*
X0555499Y0149700D03*
X0555499Y0153637D03*
X0555499Y0157574D03*
X0555499Y0161511D03*
X0555499Y0165448D03*
X0555499Y0169385D03*
X0555499Y0173322D03*
X0555499Y0177259D03*
X0555499Y0181196D03*
X0555499Y0185133D03*
X0555499Y0189070D03*
X0555499Y0193007D03*
X0555499Y0196944D03*
X0555499Y0200881D03*
X0555499Y0204818D03*
D120*
X0563373Y0208755D03*
X0563767Y0145763D03*
D43*
X0535814Y0149700D03*
X0539751Y0153637D03*
X0535814Y0157574D03*
X0539751Y0161511D03*
X0535814Y0165448D03*
X0539751Y0169385D03*
X0535814Y0173322D03*
X0539751Y0177259D03*
X0535814Y0181196D03*
X0539751Y0185133D03*
X0535814Y0189070D03*
X0539751Y0193007D03*
X0535814Y0196944D03*
X0539751Y0200881D03*
X0535814Y0204818D03*
D148*
X0555499Y0204818D01*
X0555499Y0200881D02*
X0539751Y0200881D01*
X0535814Y0196944D02*
X0555499Y0196944D01*
X0555499Y0193007D02*
X0539751Y0193007D01*
X0535814Y0189070D02*
X0555499Y0189070D01*
X0555499Y0185133D02*
X0539751Y0185133D01*
X0535814Y0181196D02*
X0555499Y0181196D01*
X0555499Y0177259D02*
X0539751Y0177259D01*
X0535814Y0173322D02*
X0555499Y0173322D01*
X0555499Y0169385D02*
X0539751Y0169385D01*
X0535814Y0165448D02*
X0555499Y0165448D01*
X0555499Y0161511D02*
X0539751Y0161511D01*
X0535814Y0157574D02*
X0555499Y0157574D01*
X0555499Y0153637D02*
X0539751Y0153637D01*
X0535814Y0149700D02*
X0555499Y0149700D01*
X0496444Y0240346D02*
G75*
%LPD*%
D103*
X0555499Y0269873D03*
X0555499Y0273810D03*
X0555499Y0277747D03*
X0555499Y0281684D03*
X0555499Y0285621D03*
X0555499Y0289558D03*
X0555499Y0293495D03*
X0555499Y0297432D03*
X0555499Y0301369D03*
X0555499Y0305306D03*
X0555499Y0309243D03*
X0555499Y0313180D03*
X0555499Y0317117D03*
X0555499Y0321054D03*
X0555499Y0324991D03*
D120*
X0563373Y0328928D03*
X0563767Y0265936D03*
D43*
X0535814Y0269873D03*
X0539751Y0273810D03*
X0535814Y0277747D03*
X0539751Y0281684D03*
X0535814Y0285621D03*
X0539751Y0289558D03*
X0535814Y0293495D03*
X0539751Y0297432D03*
X0535814Y0301369D03*
X0539751Y0305306D03*
X0535814Y0309243D03*
X0539751Y0313180D03*
X0535814Y0317117D03*
X0539751Y0321054D03*
X0535814Y0324991D03*
D148*
X0555499Y0324991D01*
X0555499Y0321054D02*
X0539751Y0321054D01*
X0535814Y0317117D02*
X0555499Y0317117D01*
X0555499Y0313180D02*
X0539751Y0313180D01*
X0535814Y0309243D02*
X0555499Y0309243D01*
X0555499Y0305306D02*
X0539751Y0305306D01*
X0535814Y0301369D02*
X0555499Y0301369D01*
X0555499Y0297432D02*
X0539751Y0297432D01*
X0535814Y0293495D02*
X0555499Y0293495D01*
X0555499Y0289558D02*
X0539751Y0289558D01*
X0535814Y0285621D02*
X0555499Y0285621D01*
X0555499Y0281684D02*
X0539751Y0281684D01*
X0535814Y0277747D02*
X0555499Y0277747D01*
X0555499Y0273810D02*
X0539751Y0273810D01*
X0535814Y0269873D02*
X0555499Y0269873D01*
X0496444Y0360519D02*
G75*
%LPD*%
D103*
X0555499Y0390046D03*
X0555499Y0393983D03*
X0555499Y0397920D03*
X0555499Y0401857D03*
X0555499Y0405794D03*
X0555499Y0409731D03*
X0555499Y0413668D03*
X0555499Y0417605D03*
X0555499Y0421542D03*
X0555499Y0425479D03*
X0555499Y0429416D03*
X0555499Y0433353D03*
X0555499Y0437290D03*
X0555499Y0441227D03*
X0555499Y0445164D03*
D120*
X0563373Y0449101D03*
X0563767Y0386109D03*
D43*
X0535814Y0390046D03*
X0539751Y0393983D03*
X0535814Y0397920D03*
X0539751Y0401857D03*
X0535814Y0405794D03*
X0539751Y0409731D03*
X0535814Y0413668D03*
X0539751Y0417605D03*
X0535814Y0421542D03*
X0539751Y0425479D03*
X0535814Y0429416D03*
X0539751Y0433353D03*
X0535814Y0437290D03*
X0539751Y0441227D03*
X0535814Y0445164D03*
D148*
X0555499Y0445164D01*
X0555499Y0441227D02*
X0539751Y0441227D01*
X0535814Y0437290D02*
X0555499Y0437290D01*
X0555499Y0433353D02*
X0539751Y0433353D01*
X0535814Y0429416D02*
X0555499Y0429416D01*
X0555499Y0425479D02*
X0539751Y0425479D01*
X0535814Y0421542D02*
X0555499Y0421542D01*
X0555499Y0417605D02*
X0539751Y0417605D01*
X0535814Y0413668D02*
X0555499Y0413668D01*
X0555499Y0409731D02*
X0539751Y0409731D01*
X0535814Y0405794D02*
X0555499Y0405794D01*
X0555499Y0401857D02*
X0539751Y0401857D01*
X0535814Y0397920D02*
X0555499Y0397920D01*
X0555499Y0393983D02*
X0539751Y0393983D01*
X0535814Y0390046D02*
X0555499Y0390046D01*
M02*
