%
T01C0.108270
X10433Y1378
X10433Y24213
X1378Y24213
X10433Y27569
X10433Y50404
X1378Y50404
X22844Y1378
X22844Y24213
X13789Y24213
X22844Y27569
X22844Y50404
X13789Y50404
X35255Y1378
X35255Y24213
X26200Y24213
X35255Y27569
X35255Y50404
X26200Y50404
X47666Y1378
X47666Y24213
X38611Y24213
X47666Y27569
X47666Y50404
X38611Y50404
X53187Y1221
X54368Y10197
X53187Y13238
X54368Y22214
X53187Y25256
X54368Y34232
X53187Y37273
X54368Y46249
T02C0.047240
X11235Y3110
X11235Y5709
X11235Y29301
X11235Y31900
X23646Y3110
X23646Y5709
X23646Y29301
X23646Y31900
X36057Y3110
X36057Y5709
X36057Y29301
X36057Y31900
X48468Y3110
X48468Y5709
X48468Y29301
X48468Y31900
T03C0.042910
X6142Y7059
X6142Y8059
X7138Y5087
X8138Y5087
X8811Y9303
X8811Y10303
X3000Y10248
X3000Y11248
X3000Y12248
X3000Y9248
X1063Y14591
X1063Y15591
X1063Y16591
X6142Y33250
X6142Y34250
X7138Y31278
X8138Y31278
X8811Y35494
X8811Y36494
X3000Y36439
X3000Y37439
X3000Y38439
X3000Y35439
X1063Y40782
X1063Y41782
X1063Y42782
X18553Y7059
X18553Y8059
X19549Y5087
X20549Y5087
X21222Y9303
X21222Y10303
X15411Y10248
X15411Y11248
X15411Y12248
X15411Y9248
X13474Y14591
X13474Y15591
X13474Y16591
X18553Y33250
X18553Y34250
X19549Y31278
X20549Y31278
X21222Y35494
X21222Y36494
X15411Y36439
X15411Y37439
X15411Y38439
X15411Y35439
X13474Y40782
X13474Y41782
X13474Y42782
X30964Y7059
X30964Y8059
X31960Y5087
X32960Y5087
X33633Y9303
X33633Y10303
X27822Y10248
X27822Y11248
X27822Y12248
X27822Y9248
X25885Y14591
X25885Y15591
X25885Y16591
X30964Y33250
X30964Y34250
X31960Y31278
X32960Y31278
X33633Y35494
X33633Y36494
X27822Y36439
X27822Y37439
X27822Y38439
X27822Y35439
X25885Y40782
X25885Y41782
X25885Y42782
X43375Y7059
X43375Y8059
X44371Y5087
X45371Y5087
X46044Y9303
X46044Y10303
X40233Y10248
X40233Y11248
X40233Y12248
X40233Y9248
X38296Y14591
X38296Y15591
X38296Y16591
X43375Y33250
X43375Y34250
X44371Y31278
X45371Y31278
X46044Y35494
X46044Y36494
X40233Y36439
X40233Y37439
X40233Y38439
X40233Y35439
X38296Y40782
X38296Y41782
X38296Y42782
T04C0.040160
X10103Y17457
X10103Y16457
X11103Y16457
X11103Y17457
X8504Y12559
X8071Y11811
X7126Y9843
X9213Y5669
X2323Y1575
X10103Y43648
X10103Y42648
X11103Y42648
X11103Y43648
X8504Y38750
X8071Y38002
X7126Y36034
X9213Y31860
X2323Y27766
X22514Y17457
X22514Y16457
X23514Y16457
X23514Y17457
X20915Y12559
X20482Y11811
X19537Y9843
X21624Y5669
X14734Y1575
X22514Y43648
X22514Y42648
X23514Y42648
X23514Y43648
X20915Y38750
X20482Y38002
X19537Y36034
X21624Y31860
X14734Y27766
X34925Y17457
X34925Y16457
X35925Y16457
X35925Y17457
X33326Y12559
X32893Y11811
X31948Y9843
X34035Y5669
X27145Y1575
X34925Y43648
X34925Y42648
X35925Y42648
X35925Y43648
X33326Y38750
X32893Y38002
X31948Y36034
X34035Y31860
X27145Y27766
X47336Y17457
X47336Y16457
X48336Y16457
X48336Y17457
X45737Y12559
X45304Y11811
X44359Y9843
X46446Y5669
X39556Y1575
X47336Y43648
X47336Y42648
X48336Y42648
X48336Y43648
X45737Y38750
X45304Y38002
X44359Y36034
X46446Y31860
X39556Y27766
T05C0.040000
X6319Y23169
X6319Y24941
X8878Y24941
X8878Y23169
X6319Y49360
X6319Y51132
X8878Y51132
X8878Y49360
X18730Y23169
X18730Y24941
X21289Y24941
X21289Y23169
X18730Y49360
X18730Y51132
X21289Y51132
X21289Y49360
X31141Y23169
X31141Y24941
X33700Y24941
X33700Y23169
X31141Y49360
X31141Y51132
X33700Y51132
X33700Y49360
X43552Y23169
X43552Y24941
X46111Y24941
X46111Y23169
X43552Y49360
X43552Y51132
X46111Y51132
X46111Y49360
T06C0.039370
X1878Y3295
X1878Y4295
X1878Y5295
X1878Y6295
X1878Y7295
X878Y7295
X878Y6295
X878Y5295
X878Y4295
X878Y3295
X878Y21295
X878Y22295
X1878Y22295
X1878Y21295
X2878Y21295
X2878Y22295
X1878Y29486
X1878Y30486
X1878Y31486
X1878Y32486
X1878Y33486
X878Y33486
X878Y32486
X878Y31486
X878Y30486
X878Y29486
X878Y47486
X878Y48486
X1878Y48486
X1878Y47486
X2878Y47486
X2878Y48486
X14289Y3295
X14289Y4295
X14289Y5295
X14289Y6295
X14289Y7295
X13289Y7295
X13289Y6295
X13289Y5295
X13289Y4295
X13289Y3295
X13289Y21295
X13289Y22295
X14289Y22295
X14289Y21295
X15289Y21295
X15289Y22295
X14289Y29486
X14289Y30486
X14289Y31486
X14289Y32486
X14289Y33486
X13289Y33486
X13289Y32486
X13289Y31486
X13289Y30486
X13289Y29486
X13289Y47486
X13289Y48486
X14289Y48486
X14289Y47486
X15289Y47486
X15289Y48486
X26700Y3295
X26700Y4295
X26700Y5295
X26700Y6295
X26700Y7295
X25700Y7295
X25700Y6295
X25700Y5295
X25700Y4295
X25700Y3295
X25700Y21295
X25700Y22295
X26700Y22295
X26700Y21295
X27700Y21295
X27700Y22295
X26700Y29486
X26700Y30486
X26700Y31486
X26700Y32486
X26700Y33486
X25700Y33486
X25700Y32486
X25700Y31486
X25700Y30486
X25700Y29486
X25700Y47486
X25700Y48486
X26700Y48486
X26700Y47486
X27700Y47486
X27700Y48486
X39111Y3295
X39111Y4295
X39111Y5295
X39111Y6295
X39111Y7295
X38111Y7295
X38111Y6295
X38111Y5295
X38111Y4295
X38111Y3295
X38111Y21295
X38111Y22295
X39111Y22295
X39111Y21295
X40111Y21295
X40111Y22295
X39111Y29486
X39111Y30486
X39111Y31486
X39111Y32486
X39111Y33486
X38111Y33486
X38111Y32486
X38111Y31486
X38111Y30486
X38111Y29486
X38111Y47486
X38111Y48486
X39111Y48486
X39111Y47486
X40111Y47486
X40111Y48486
T07C0.015000
X10512Y6535
X11221Y7835
X9528Y6693
X9292Y6417
X9134Y6732
X9213Y7441
X8268Y7480
X7796Y8504
X7520Y8937
X7205Y8504
X7205Y8032
X7205Y7559
X7244Y6850
X7244Y6496
X6930Y6654
X5827Y4567
X5473Y4567
X5473Y2953
X5827Y2953
X5827Y2244
X5827Y1417
X6654Y3228
X7323Y1102
X7993Y1339
X8701Y1732
X9567Y3543
X9567Y3898
X9567Y4252
X6063Y9961
X6772Y11221
X6851Y12480
X6851Y12835
X5906Y12795
X5512Y13937
X4370Y12874
X3780Y13425
X3347Y13976
X3150Y14921
X3780Y15591
X3937Y16181
X4370Y16024
X5118Y15748
X5906Y15906
X6496Y15866
X5355Y17992
X5748Y19488
X6496Y20039
X6181Y21142
X7323Y22205
X7914Y22126
X7678Y25118
X6024Y23898
X5670Y24606
X5040Y22913
X4292Y21378
X5040Y19528
X3111Y19409
X2402Y18071
X2048Y17126
X3111Y17598
X2087Y15079
X433Y12677
X433Y11181
X433Y10276
X433Y9370
X433Y8465
X2559Y6811
X4095Y9724
X4685Y11614
X4134Y13937
X4016Y14646
X7402Y19075
X8150Y18071
X8150Y17284
X8819Y17953
X8819Y18740
X8111Y15394
X8150Y14646
X8898Y13150
X10079Y13858
X10355Y12953
X11378Y13622
X11378Y12126
X11378Y15197
X11378Y18701
X11260Y20158
X10630Y22520
X9804Y22126
X3662Y23858
X3780Y24646
X2559Y25118
X473Y23032
X2756Y3012
X2953Y2697
X3150Y3012
X3386Y1575
X3780Y512
X10512Y32726
X11221Y34026
X9528Y32884
X9292Y32608
X9134Y32923
X9213Y33632
X8268Y33671
X7796Y34695
X7520Y35128
X7205Y34695
X7205Y34223
X7205Y33750
X7244Y33041
X7244Y32687
X6930Y32845
X5827Y30758
X5473Y30758
X5473Y29144
X5827Y29144
X5827Y28435
X5827Y27608
X6654Y29419
X7323Y27293
X7993Y27530
X8701Y27923
X9567Y29734
X9567Y30089
X9567Y30443
X6063Y36152
X6772Y37412
X6851Y38671
X6851Y39026
X5906Y38986
X5512Y40128
X4370Y39065
X3780Y39616
X3347Y40167
X3150Y41112
X3780Y41782
X3937Y42372
X4370Y42215
X5118Y41939
X5906Y42097
X6496Y42057
X5355Y44183
X5748Y45679
X6496Y46230
X6181Y47333
X7323Y48396
X7914Y48317
X7678Y51309
X6024Y50089
X5670Y50797
X5040Y49104
X4292Y47569
X5040Y45719
X3111Y45600
X2402Y44262
X2048Y43317
X3111Y43789
X2087Y41270
X433Y38868
X433Y37372
X433Y36467
X433Y35561
X433Y34656
X2559Y33002
X4095Y35915
X4685Y37805
X4134Y40128
X4016Y40837
X7402Y45266
X8150Y44262
X8150Y43475
X8819Y44144
X8819Y44931
X8111Y41585
X8150Y40837
X8898Y39341
X10079Y40049
X10355Y39144
X11378Y39813
X11378Y38317
X11378Y41388
X11378Y44892
X11260Y46349
X10630Y48711
X9804Y48317
X3662Y50049
X3780Y50837
X2559Y51309
X473Y49223
X2756Y29203
X2953Y28888
X3150Y29203
X3386Y27766
X3780Y26703
X22923Y6535
X23632Y7835
X21939Y6693
X21703Y6417
X21545Y6732
X21624Y7441
X20679Y7480
X20207Y8504
X19931Y8937
X19616Y8504
X19616Y8032
X19616Y7559
X19655Y6850
X19655Y6496
X19341Y6654
X18238Y4567
X17884Y4567
X17884Y2953
X18238Y2953
X18238Y2244
X18238Y1417
X19065Y3228
X19734Y1102
X20404Y1339
X21112Y1732
X21978Y3543
X21978Y3898
X21978Y4252
X18474Y9961
X19183Y11221
X19262Y12480
X19262Y12835
X18317Y12795
X17923Y13937
X16781Y12874
X16191Y13425
X15758Y13976
X15561Y14921
X16191Y15591
X16348Y16181
X16781Y16024
X17529Y15748
X18317Y15906
X18907Y15866
X17766Y17992
X18159Y19488
X18907Y20039
X18592Y21142
X19734Y22205
X20325Y22126
X20089Y25118
X18435Y23898
X18081Y24606
X17451Y22913
X16703Y21378
X17451Y19528
X15522Y19409
X14813Y18071
X14459Y17126
X15522Y17598
X14498Y15079
X12844Y12677
X12844Y11181
X12844Y10276
X12844Y9370
X12844Y8465
X14970Y6811
X16506Y9724
X17096Y11614
X16545Y13937
X16427Y14646
X19813Y19075
X20561Y18071
X20561Y17284
X21230Y17953
X21230Y18740
X20522Y15394
X20561Y14646
X21309Y13150
X22490Y13858
X22766Y12953
X23789Y13622
X23789Y12126
X23789Y15197
X23789Y18701
X23671Y20158
X23041Y22520
X22215Y22126
X16073Y23858
X16191Y24646
X14970Y25118
X12884Y23032
X15167Y3012
X15364Y2697
X15561Y3012
X15797Y1575
X16191Y512
X22923Y32726
X23632Y34026
X21939Y32884
X21703Y32608
X21545Y32923
X21624Y33632
X20679Y33671
X20207Y34695
X19931Y35128
X19616Y34695
X19616Y34223
X19616Y33750
X19655Y33041
X19655Y32687
X19341Y32845
X18238Y30758
X17884Y30758
X17884Y29144
X18238Y29144
X18238Y28435
X18238Y27608
X19065Y29419
X19734Y27293
X20404Y27530
X21112Y27923
X21978Y29734
X21978Y30089
X21978Y30443
X18474Y36152
X19183Y37412
X19262Y38671
X19262Y39026
X18317Y38986
X17923Y40128
X16781Y39065
X16191Y39616
X15758Y40167
X15561Y41112
X16191Y41782
X16348Y42372
X16781Y42215
X17529Y41939
X18317Y42097
X18907Y42057
X17766Y44183
X18159Y45679
X18907Y46230
X18592Y47333
X19734Y48396
X20325Y48317
X20089Y51309
X18435Y50089
X18081Y50797
X17451Y49104
X16703Y47569
X17451Y45719
X15522Y45600
X14813Y44262
X14459Y43317
X15522Y43789
X14498Y41270
X12844Y38868
X12844Y37372
X12844Y36467
X12844Y35561
X12844Y34656
X14970Y33002
X16506Y35915
X17096Y37805
X16545Y40128
X16427Y40837
X19813Y45266
X20561Y44262
X20561Y43475
X21230Y44144
X21230Y44931
X20522Y41585
X20561Y40837
X21309Y39341
X22490Y40049
X22766Y39144
X23789Y39813
X23789Y38317
X23789Y41388
X23789Y44892
X23671Y46349
X23041Y48711
X22215Y48317
X16073Y50049
X16191Y50837
X14970Y51309
X12884Y49223
X15167Y29203
X15364Y28888
X15561Y29203
X15797Y27766
X16191Y26703
X35334Y6535
X36043Y7835
X34350Y6693
X34114Y6417
X33956Y6732
X34035Y7441
X33090Y7480
X32618Y8504
X32342Y8937
X32027Y8504
X32027Y8032
X32027Y7559
X32066Y6850
X32066Y6496
X31752Y6654
X30649Y4567
X30295Y4567
X30295Y2953
X30649Y2953
X30649Y2244
X30649Y1417
X31476Y3228
X32145Y1102
X32815Y1339
X33523Y1732
X34389Y3543
X34389Y3898
X34389Y4252
X30885Y9961
X31594Y11221
X31673Y12480
X31673Y12835
X30728Y12795
X30334Y13937
X29192Y12874
X28602Y13425
X28169Y13976
X27972Y14921
X28602Y15591
X28759Y16181
X29192Y16024
X29940Y15748
X30728Y15906
X31318Y15866
X30177Y17992
X30570Y19488
X31318Y20039
X31003Y21142
X32145Y22205
X32736Y22126
X32500Y25118
X30846Y23898
X30492Y24606
X29862Y22913
X29114Y21378
X29862Y19528
X27933Y19409
X27224Y18071
X26870Y17126
X27933Y17598
X26909Y15079
X25255Y12677
X25255Y11181
X25255Y10276
X25255Y9370
X25255Y8465
X27381Y6811
X28917Y9724
X29507Y11614
X28956Y13937
X28838Y14646
X32224Y19075
X32972Y18071
X32972Y17284
X33641Y17953
X33641Y18740
X32933Y15394
X32972Y14646
X33720Y13150
X34901Y13858
X35177Y12953
X36200Y13622
X36200Y12126
X36200Y15197
X36200Y18701
X36082Y20158
X35452Y22520
X34626Y22126
X28484Y23858
X28602Y24646
X27381Y25118
X25295Y23032
X27578Y3012
X27775Y2697
X27972Y3012
X28208Y1575
X28602Y512
X35334Y32726
X36043Y34026
X34350Y32884
X34114Y32608
X33956Y32923
X34035Y33632
X33090Y33671
X32618Y34695
X32342Y35128
X32027Y34695
X32027Y34223
X32027Y33750
X32066Y33041
X32066Y32687
X31752Y32845
X30649Y30758
X30295Y30758
X30295Y29144
X30649Y29144
X30649Y28435
X30649Y27608
X31476Y29419
X32145Y27293
X32815Y27530
X33523Y27923
X34389Y29734
X34389Y30089
X34389Y30443
X30885Y36152
X31594Y37412
X31673Y38671
X31673Y39026
X30728Y38986
X30334Y40128
X29192Y39065
X28602Y39616
X28169Y40167
X27972Y41112
X28602Y41782
X28759Y42372
X29192Y42215
X29940Y41939
X30728Y42097
X31318Y42057
X30177Y44183
X30570Y45679
X31318Y46230
X31003Y47333
X32145Y48396
X32736Y48317
X32500Y51309
X30846Y50089
X30492Y50797
X29862Y49104
X29114Y47569
X29862Y45719
X27933Y45600
X27224Y44262
X26870Y43317
X27933Y43789
X26909Y41270
X25255Y38868
X25255Y37372
X25255Y36467
X25255Y35561
X25255Y34656
X27381Y33002
X28917Y35915
X29507Y37805
X28956Y40128
X28838Y40837
X32224Y45266
X32972Y44262
X32972Y43475
X33641Y44144
X33641Y44931
X32933Y41585
X32972Y40837
X33720Y39341
X34901Y40049
X35177Y39144
X36200Y39813
X36200Y38317
X36200Y41388
X36200Y44892
X36082Y46349
X35452Y48711
X34626Y48317
X28484Y50049
X28602Y50837
X27381Y51309
X25295Y49223
X27578Y29203
X27775Y28888
X27972Y29203
X28208Y27766
X28602Y26703
X47745Y6535
X48454Y7835
X46761Y6693
X46525Y6417
X46367Y6732
X46446Y7441
X45501Y7480
X45029Y8504
X44753Y8937
X44438Y8504
X44438Y8032
X44438Y7559
X44477Y6850
X44477Y6496
X44163Y6654
X43060Y4567
X42706Y4567
X42706Y2953
X43060Y2953
X43060Y2244
X43060Y1417
X43887Y3228
X44556Y1102
X45226Y1339
X45934Y1732
X46800Y3543
X46800Y3898
X46800Y4252
X43296Y9961
X44005Y11221
X44084Y12480
X44084Y12835
X43139Y12795
X42745Y13937
X41603Y12874
X41013Y13425
X40580Y13976
X40383Y14921
X41013Y15591
X41170Y16181
X41603Y16024
X42351Y15748
X43139Y15906
X43729Y15866
X42588Y17992
X42981Y19488
X43729Y20039
X43414Y21142
X44556Y22205
X45147Y22126
X44911Y25118
X43257Y23898
X42903Y24606
X42273Y22913
X41525Y21378
X42273Y19528
X40344Y19409
X39635Y18071
X39281Y17126
X40344Y17598
X39320Y15079
X37666Y12677
X37666Y11181
X37666Y10276
X37666Y9370
X37666Y8465
X39792Y6811
X41328Y9724
X41918Y11614
X41367Y13937
X41249Y14646
X44635Y19075
X45383Y18071
X45383Y17284
X46052Y17953
X46052Y18740
X45344Y15394
X45383Y14646
X46131Y13150
X47312Y13858
X47588Y12953
X48611Y13622
X48611Y12126
X48611Y15197
X48611Y18701
X48493Y20158
X47863Y22520
X47037Y22126
X40895Y23858
X41013Y24646
X39792Y25118
X37706Y23032
X39989Y3012
X40186Y2697
X40383Y3012
X40619Y1575
X41013Y512
X47745Y32726
X48454Y34026
X46761Y32884
X46525Y32608
X46367Y32923
X46446Y33632
X45501Y33671
X45029Y34695
X44753Y35128
X44438Y34695
X44438Y34223
X44438Y33750
X44477Y33041
X44477Y32687
X44163Y32845
X43060Y30758
X42706Y30758
X42706Y29144
X43060Y29144
X43060Y28435
X43060Y27608
X43887Y29419
X44556Y27293
X45226Y27530
X45934Y27923
X46800Y29734
X46800Y30089
X46800Y30443
X43296Y36152
X44005Y37412
X44084Y38671
X44084Y39026
X43139Y38986
X42745Y40128
X41603Y39065
X41013Y39616
X40580Y40167
X40383Y41112
X41013Y41782
X41170Y42372
X41603Y42215
X42351Y41939
X43139Y42097
X43729Y42057
X42588Y44183
X42981Y45679
X43729Y46230
X43414Y47333
X44556Y48396
X45147Y48317
X44911Y51309
X43257Y50089
X42903Y50797
X42273Y49104
X41525Y47569
X42273Y45719
X40344Y45600
X39635Y44262
X39281Y43317
X40344Y43789
X39320Y41270
X37666Y38868
X37666Y37372
X37666Y36467
X37666Y35561
X37666Y34656
X39792Y33002
X41328Y35915
X41918Y37805
X41367Y40128
X41249Y40837
X44635Y45266
X45383Y44262
X45383Y43475
X46052Y44144
X46052Y44931
X45344Y41585
X45383Y40837
X46131Y39341
X47312Y40049
X47588Y39144
X48611Y39813
X48611Y38317
X48611Y41388
X48611Y44892
X48493Y46349
X47863Y48711
X47037Y48317
X40895Y50049
X41013Y50837
X39792Y51309
X37706Y49223
X39989Y29203
X40186Y28888
X40383Y29203
X40619Y27766
X41013Y26703
M30
