G75*
G70*
%OFA0B0*%
%FSLAX25Y25*%
%IPPOS*%
%LPD*%
%AMOC8*
5,1,8,0,0,1.08239X$1,22.5*
%
%ADD300C,0.00000*%
X0000300Y0000300D02*
G75*
%LPD*%
D93*
X0118410Y0014080D02*
X0118410Y0242426D01*
X0118411Y0242426D02*
X0118407Y0242759D01*
X0118395Y0243092D01*
X0118375Y0243424D01*
X0118347Y0243756D01*
X0118311Y0244087D01*
X0118266Y0244417D01*
X0118214Y0244746D01*
X0118154Y0245074D01*
X0118086Y0245400D01*
X0118011Y0245724D01*
X0117927Y0246046D01*
X0117836Y0246366D01*
X0117737Y0246684D01*
X0117630Y0247000D01*
X0117516Y0247312D01*
X0117394Y0247622D01*
X0117264Y0247929D01*
X0117128Y0248233D01*
X0116984Y0248533D01*
X0116833Y0248830D01*
X0116674Y0249123D01*
X0116509Y0249412D01*
X0116337Y0249697D01*
X0116158Y0249978D01*
X0115972Y0250254D01*
X0115779Y0250526D01*
X0115580Y0250793D01*
X0115375Y0251055D01*
X0115163Y0251312D01*
X0114945Y0251564D01*
X0114722Y0251810D01*
X0114492Y0252051D01*
X0114256Y0252287D01*
X0114015Y0252517D01*
X0113769Y0252740D01*
X0113517Y0252958D01*
X0113260Y0253170D01*
X0112998Y0253375D01*
X0112731Y0253574D01*
X0112459Y0253767D01*
X0112183Y0253953D01*
X0111902Y0254132D01*
X0111617Y0254304D01*
X0111328Y0254469D01*
X0111035Y0254628D01*
X0110738Y0254779D01*
X0110438Y0254923D01*
X0110134Y0255059D01*
X0109827Y0255189D01*
X0109517Y0255311D01*
X0109205Y0255425D01*
X0108889Y0255532D01*
X0108571Y0255631D01*
X0108251Y0255722D01*
X0107929Y0255806D01*
X0107605Y0255881D01*
X0107279Y0255949D01*
X0106951Y0256009D01*
X0106622Y0256061D01*
X0106292Y0256106D01*
X0105961Y0256142D01*
X0105629Y0256170D01*
X0105297Y0256190D01*
X0104964Y0256202D01*
X0104631Y0256206D01*
X0014080Y0256206D01*
X0013747Y0256202D01*
X0013414Y0256190D01*
X0013082Y0256170D01*
X0012750Y0256142D01*
X0012419Y0256106D01*
X0012089Y0256061D01*
X0011760Y0256009D01*
X0011432Y0255949D01*
X0011106Y0255881D01*
X0010782Y0255806D01*
X0010460Y0255722D01*
X0010140Y0255631D01*
X0009822Y0255532D01*
X0009506Y0255425D01*
X0009194Y0255311D01*
X0008884Y0255189D01*
X0008577Y0255059D01*
X0008273Y0254923D01*
X0007973Y0254779D01*
X0007676Y0254628D01*
X0007383Y0254469D01*
X0007094Y0254304D01*
X0006809Y0254132D01*
X0006528Y0253953D01*
X0006252Y0253767D01*
X0005980Y0253574D01*
X0005713Y0253375D01*
X0005451Y0253170D01*
X0005194Y0252958D01*
X0004942Y0252740D01*
X0004696Y0252517D01*
X0004455Y0252287D01*
X0004219Y0252051D01*
X0003989Y0251810D01*
X0003766Y0251564D01*
X0003548Y0251312D01*
X0003336Y0251055D01*
X0003131Y0250793D01*
X0002932Y0250526D01*
X0002739Y0250254D01*
X0002553Y0249978D01*
X0002374Y0249697D01*
X0002202Y0249412D01*
X0002037Y0249123D01*
X0001878Y0248830D01*
X0001727Y0248533D01*
X0001583Y0248233D01*
X0001447Y0247929D01*
X0001317Y0247622D01*
X0001195Y0247312D01*
X0001081Y0247000D01*
X0000974Y0246684D01*
X0000875Y0246366D01*
X0000784Y0246046D01*
X0000700Y0245724D01*
X0000625Y0245400D01*
X0000557Y0245074D01*
X0000497Y0244746D01*
X0000445Y0244417D01*
X0000400Y0244087D01*
X0000364Y0243756D01*
X0000336Y0243424D01*
X0000316Y0243092D01*
X0000304Y0242759D01*
X0000300Y0242426D01*
X0000300Y0014080D01*
X0000304Y0013747D01*
X0000316Y0013414D01*
X0000336Y0013082D01*
X0000364Y0012750D01*
X0000400Y0012419D01*
X0000445Y0012089D01*
X0000497Y0011760D01*
X0000557Y0011432D01*
X0000625Y0011106D01*
X0000700Y0010782D01*
X0000784Y0010460D01*
X0000875Y0010140D01*
X0000974Y0009822D01*
X0001081Y0009506D01*
X0001195Y0009194D01*
X0001317Y0008884D01*
X0001447Y0008577D01*
X0001583Y0008273D01*
X0001727Y0007973D01*
X0001878Y0007676D01*
X0002037Y0007383D01*
X0002202Y0007094D01*
X0002374Y0006809D01*
X0002553Y0006528D01*
X0002739Y0006252D01*
X0002932Y0005980D01*
X0003131Y0005713D01*
X0003336Y0005451D01*
X0003548Y0005194D01*
X0003766Y0004942D01*
X0003989Y0004696D01*
X0004219Y0004455D01*
X0004455Y0004219D01*
X0004696Y0003989D01*
X0004942Y0003766D01*
X0005194Y0003548D01*
X0005451Y0003336D01*
X0005713Y0003131D01*
X0005980Y0002932D01*
X0006252Y0002739D01*
X0006528Y0002553D01*
X0006809Y0002374D01*
X0007094Y0002202D01*
X0007383Y0002037D01*
X0007676Y0001878D01*
X0007973Y0001727D01*
X0008273Y0001583D01*
X0008577Y0001447D01*
X0008884Y0001317D01*
X0009194Y0001195D01*
X0009506Y0001081D01*
X0009822Y0000974D01*
X0010140Y0000875D01*
X0010460Y0000784D01*
X0010782Y0000700D01*
X0011106Y0000625D01*
X0011432Y0000557D01*
X0011760Y0000497D01*
X0012089Y0000445D01*
X0012419Y0000400D01*
X0012750Y0000364D01*
X0013082Y0000336D01*
X0013414Y0000316D01*
X0013747Y0000304D01*
X0014080Y0000300D01*
X0104631Y0000300D01*
X0104964Y0000304D01*
X0105297Y0000316D01*
X0105629Y0000336D01*
X0105961Y0000364D01*
X0106292Y0000400D01*
X0106622Y0000445D01*
X0106951Y0000497D01*
X0107279Y0000557D01*
X0107605Y0000625D01*
X0107929Y0000700D01*
X0108251Y0000784D01*
X0108571Y0000875D01*
X0108889Y0000974D01*
X0109205Y0001081D01*
X0109517Y0001195D01*
X0109827Y0001317D01*
X0110134Y0001447D01*
X0110438Y0001583D01*
X0110738Y0001727D01*
X0111035Y0001878D01*
X0111328Y0002037D01*
X0111617Y0002202D01*
X0111902Y0002374D01*
X0112183Y0002553D01*
X0112459Y0002739D01*
X0112731Y0002932D01*
X0112998Y0003131D01*
X0113260Y0003336D01*
X0113517Y0003548D01*
X0113769Y0003766D01*
X0114015Y0003989D01*
X0114256Y0004219D01*
X0114492Y0004455D01*
X0114722Y0004696D01*
X0114945Y0004942D01*
X0115163Y0005194D01*
X0115375Y0005451D01*
X0115580Y0005713D01*
X0115779Y0005980D01*
X0115972Y0006252D01*
X0116158Y0006528D01*
X0116337Y0006809D01*
X0116509Y0007094D01*
X0116674Y0007383D01*
X0116833Y0007676D01*
X0116984Y0007973D01*
X0117128Y0008273D01*
X0117264Y0008577D01*
X0117394Y0008884D01*
X0117516Y0009194D01*
X0117630Y0009506D01*
X0117737Y0009822D01*
X0117836Y0010140D01*
X0117927Y0010460D01*
X0118011Y0010782D01*
X0118086Y0011106D01*
X0118154Y0011432D01*
X0118214Y0011760D01*
X0118266Y0012089D01*
X0118311Y0012419D01*
X0118347Y0012750D01*
X0118375Y0013082D01*
X0118395Y0013414D01*
X0118407Y0013747D01*
X0118411Y0014080D01*
X0000300Y0264006D02*
G75*
%LPD*%
D93*
X0118410Y0277786D02*
X0118410Y0506132D01*
X0118411Y0506132D02*
X0118407Y0506465D01*
X0118395Y0506798D01*
X0118375Y0507130D01*
X0118347Y0507462D01*
X0118311Y0507793D01*
X0118266Y0508123D01*
X0118214Y0508452D01*
X0118154Y0508780D01*
X0118086Y0509106D01*
X0118011Y0509430D01*
X0117927Y0509752D01*
X0117836Y0510072D01*
X0117737Y0510390D01*
X0117630Y0510706D01*
X0117516Y0511018D01*
X0117394Y0511328D01*
X0117264Y0511635D01*
X0117128Y0511939D01*
X0116984Y0512239D01*
X0116833Y0512536D01*
X0116674Y0512829D01*
X0116509Y0513118D01*
X0116337Y0513403D01*
X0116158Y0513684D01*
X0115972Y0513960D01*
X0115779Y0514232D01*
X0115580Y0514499D01*
X0115375Y0514761D01*
X0115163Y0515018D01*
X0114945Y0515270D01*
X0114722Y0515516D01*
X0114492Y0515757D01*
X0114256Y0515993D01*
X0114015Y0516223D01*
X0113769Y0516446D01*
X0113517Y0516664D01*
X0113260Y0516876D01*
X0112998Y0517081D01*
X0112731Y0517280D01*
X0112459Y0517473D01*
X0112183Y0517659D01*
X0111902Y0517838D01*
X0111617Y0518010D01*
X0111328Y0518175D01*
X0111035Y0518334D01*
X0110738Y0518485D01*
X0110438Y0518629D01*
X0110134Y0518765D01*
X0109827Y0518895D01*
X0109517Y0519017D01*
X0109205Y0519131D01*
X0108889Y0519238D01*
X0108571Y0519337D01*
X0108251Y0519428D01*
X0107929Y0519512D01*
X0107605Y0519587D01*
X0107279Y0519655D01*
X0106951Y0519715D01*
X0106622Y0519767D01*
X0106292Y0519812D01*
X0105961Y0519848D01*
X0105629Y0519876D01*
X0105297Y0519896D01*
X0104964Y0519908D01*
X0104631Y0519912D01*
X0014080Y0519912D01*
X0013747Y0519908D01*
X0013414Y0519896D01*
X0013082Y0519876D01*
X0012750Y0519848D01*
X0012419Y0519812D01*
X0012089Y0519767D01*
X0011760Y0519715D01*
X0011432Y0519655D01*
X0011106Y0519587D01*
X0010782Y0519512D01*
X0010460Y0519428D01*
X0010140Y0519337D01*
X0009822Y0519238D01*
X0009506Y0519131D01*
X0009194Y0519017D01*
X0008884Y0518895D01*
X0008577Y0518765D01*
X0008273Y0518629D01*
X0007973Y0518485D01*
X0007676Y0518334D01*
X0007383Y0518175D01*
X0007094Y0518010D01*
X0006809Y0517838D01*
X0006528Y0517659D01*
X0006252Y0517473D01*
X0005980Y0517280D01*
X0005713Y0517081D01*
X0005451Y0516876D01*
X0005194Y0516664D01*
X0004942Y0516446D01*
X0004696Y0516223D01*
X0004455Y0515993D01*
X0004219Y0515757D01*
X0003989Y0515516D01*
X0003766Y0515270D01*
X0003548Y0515018D01*
X0003336Y0514761D01*
X0003131Y0514499D01*
X0002932Y0514232D01*
X0002739Y0513960D01*
X0002553Y0513684D01*
X0002374Y0513403D01*
X0002202Y0513118D01*
X0002037Y0512829D01*
X0001878Y0512536D01*
X0001727Y0512239D01*
X0001583Y0511939D01*
X0001447Y0511635D01*
X0001317Y0511328D01*
X0001195Y0511018D01*
X0001081Y0510706D01*
X0000974Y0510390D01*
X0000875Y0510072D01*
X0000784Y0509752D01*
X0000700Y0509430D01*
X0000625Y0509106D01*
X0000557Y0508780D01*
X0000497Y0508452D01*
X0000445Y0508123D01*
X0000400Y0507793D01*
X0000364Y0507462D01*
X0000336Y0507130D01*
X0000316Y0506798D01*
X0000304Y0506465D01*
X0000300Y0506132D01*
X0000300Y0277786D01*
X0000304Y0277453D01*
X0000316Y0277120D01*
X0000336Y0276788D01*
X0000364Y0276456D01*
X0000400Y0276125D01*
X0000445Y0275795D01*
X0000497Y0275466D01*
X0000557Y0275138D01*
X0000625Y0274812D01*
X0000700Y0274488D01*
X0000784Y0274166D01*
X0000875Y0273846D01*
X0000974Y0273528D01*
X0001081Y0273212D01*
X0001195Y0272900D01*
X0001317Y0272590D01*
X0001447Y0272283D01*
X0001583Y0271979D01*
X0001727Y0271679D01*
X0001878Y0271382D01*
X0002037Y0271089D01*
X0002202Y0270800D01*
X0002374Y0270515D01*
X0002553Y0270234D01*
X0002739Y0269958D01*
X0002932Y0269686D01*
X0003131Y0269419D01*
X0003336Y0269157D01*
X0003548Y0268900D01*
X0003766Y0268648D01*
X0003989Y0268402D01*
X0004219Y0268161D01*
X0004455Y0267925D01*
X0004696Y0267695D01*
X0004942Y0267472D01*
X0005194Y0267254D01*
X0005451Y0267042D01*
X0005713Y0266837D01*
X0005980Y0266638D01*
X0006252Y0266445D01*
X0006528Y0266259D01*
X0006809Y0266080D01*
X0007094Y0265908D01*
X0007383Y0265743D01*
X0007676Y0265584D01*
X0007973Y0265433D01*
X0008273Y0265289D01*
X0008577Y0265153D01*
X0008884Y0265023D01*
X0009194Y0264901D01*
X0009506Y0264787D01*
X0009822Y0264680D01*
X0010140Y0264581D01*
X0010460Y0264490D01*
X0010782Y0264406D01*
X0011106Y0264331D01*
X0011432Y0264263D01*
X0011760Y0264203D01*
X0012089Y0264151D01*
X0012419Y0264106D01*
X0012750Y0264070D01*
X0013082Y0264042D01*
X0013414Y0264022D01*
X0013747Y0264010D01*
X0014080Y0264006D01*
X0104631Y0264006D01*
X0104964Y0264010D01*
X0105297Y0264022D01*
X0105629Y0264042D01*
X0105961Y0264070D01*
X0106292Y0264106D01*
X0106622Y0264151D01*
X0106951Y0264203D01*
X0107279Y0264263D01*
X0107605Y0264331D01*
X0107929Y0264406D01*
X0108251Y0264490D01*
X0108571Y0264581D01*
X0108889Y0264680D01*
X0109205Y0264787D01*
X0109517Y0264901D01*
X0109827Y0265023D01*
X0110134Y0265153D01*
X0110438Y0265289D01*
X0110738Y0265433D01*
X0111035Y0265584D01*
X0111328Y0265743D01*
X0111617Y0265908D01*
X0111902Y0266080D01*
X0112183Y0266259D01*
X0112459Y0266445D01*
X0112731Y0266638D01*
X0112998Y0266837D01*
X0113260Y0267042D01*
X0113517Y0267254D01*
X0113769Y0267472D01*
X0114015Y0267695D01*
X0114256Y0267925D01*
X0114492Y0268161D01*
X0114722Y0268402D01*
X0114945Y0268648D01*
X0115163Y0268900D01*
X0115375Y0269157D01*
X0115580Y0269419D01*
X0115779Y0269686D01*
X0115972Y0269958D01*
X0116158Y0270234D01*
X0116337Y0270515D01*
X0116509Y0270800D01*
X0116674Y0271089D01*
X0116833Y0271382D01*
X0116984Y0271679D01*
X0117128Y0271979D01*
X0117264Y0272283D01*
X0117394Y0272590D01*
X0117516Y0272900D01*
X0117630Y0273212D01*
X0117737Y0273528D01*
X0117836Y0273846D01*
X0117927Y0274166D01*
X0118011Y0274488D01*
X0118086Y0274812D01*
X0118154Y0275138D01*
X0118214Y0275466D01*
X0118266Y0275795D01*
X0118311Y0276125D01*
X0118347Y0276456D01*
X0118375Y0276788D01*
X0118395Y0277120D01*
X0118407Y0277453D01*
X0118411Y0277786D01*
X0126211Y0000300D02*
G75*
%LPD*%
D93*
X0244321Y0014080D02*
X0244321Y0242426D01*
X0244322Y0242426D02*
X0244318Y0242759D01*
X0244306Y0243092D01*
X0244286Y0243424D01*
X0244258Y0243756D01*
X0244222Y0244087D01*
X0244177Y0244417D01*
X0244125Y0244746D01*
X0244065Y0245074D01*
X0243997Y0245400D01*
X0243922Y0245724D01*
X0243838Y0246046D01*
X0243747Y0246366D01*
X0243648Y0246684D01*
X0243541Y0247000D01*
X0243427Y0247312D01*
X0243305Y0247622D01*
X0243175Y0247929D01*
X0243039Y0248233D01*
X0242895Y0248533D01*
X0242744Y0248830D01*
X0242585Y0249123D01*
X0242420Y0249412D01*
X0242248Y0249697D01*
X0242069Y0249978D01*
X0241883Y0250254D01*
X0241690Y0250526D01*
X0241491Y0250793D01*
X0241286Y0251055D01*
X0241074Y0251312D01*
X0240856Y0251564D01*
X0240633Y0251810D01*
X0240403Y0252051D01*
X0240167Y0252287D01*
X0239926Y0252517D01*
X0239680Y0252740D01*
X0239428Y0252958D01*
X0239171Y0253170D01*
X0238909Y0253375D01*
X0238642Y0253574D01*
X0238370Y0253767D01*
X0238094Y0253953D01*
X0237813Y0254132D01*
X0237528Y0254304D01*
X0237239Y0254469D01*
X0236946Y0254628D01*
X0236649Y0254779D01*
X0236349Y0254923D01*
X0236045Y0255059D01*
X0235738Y0255189D01*
X0235428Y0255311D01*
X0235116Y0255425D01*
X0234800Y0255532D01*
X0234482Y0255631D01*
X0234162Y0255722D01*
X0233840Y0255806D01*
X0233516Y0255881D01*
X0233190Y0255949D01*
X0232862Y0256009D01*
X0232533Y0256061D01*
X0232203Y0256106D01*
X0231872Y0256142D01*
X0231540Y0256170D01*
X0231208Y0256190D01*
X0230875Y0256202D01*
X0230542Y0256206D01*
X0139991Y0256206D01*
X0139658Y0256202D01*
X0139325Y0256190D01*
X0138993Y0256170D01*
X0138661Y0256142D01*
X0138330Y0256106D01*
X0138000Y0256061D01*
X0137671Y0256009D01*
X0137343Y0255949D01*
X0137017Y0255881D01*
X0136693Y0255806D01*
X0136371Y0255722D01*
X0136051Y0255631D01*
X0135733Y0255532D01*
X0135417Y0255425D01*
X0135105Y0255311D01*
X0134795Y0255189D01*
X0134488Y0255059D01*
X0134184Y0254923D01*
X0133884Y0254779D01*
X0133587Y0254628D01*
X0133294Y0254469D01*
X0133005Y0254304D01*
X0132720Y0254132D01*
X0132439Y0253953D01*
X0132163Y0253767D01*
X0131891Y0253574D01*
X0131624Y0253375D01*
X0131362Y0253170D01*
X0131105Y0252958D01*
X0130853Y0252740D01*
X0130607Y0252517D01*
X0130366Y0252287D01*
X0130130Y0252051D01*
X0129900Y0251810D01*
X0129677Y0251564D01*
X0129459Y0251312D01*
X0129247Y0251055D01*
X0129042Y0250793D01*
X0128843Y0250526D01*
X0128650Y0250254D01*
X0128464Y0249978D01*
X0128285Y0249697D01*
X0128113Y0249412D01*
X0127948Y0249123D01*
X0127789Y0248830D01*
X0127638Y0248533D01*
X0127494Y0248233D01*
X0127358Y0247929D01*
X0127228Y0247622D01*
X0127106Y0247312D01*
X0126992Y0247000D01*
X0126885Y0246684D01*
X0126786Y0246366D01*
X0126695Y0246046D01*
X0126611Y0245724D01*
X0126536Y0245400D01*
X0126468Y0245074D01*
X0126408Y0244746D01*
X0126356Y0244417D01*
X0126311Y0244087D01*
X0126275Y0243756D01*
X0126247Y0243424D01*
X0126227Y0243092D01*
X0126215Y0242759D01*
X0126211Y0242426D01*
X0126211Y0014080D01*
X0126215Y0013747D01*
X0126227Y0013414D01*
X0126247Y0013082D01*
X0126275Y0012750D01*
X0126311Y0012419D01*
X0126356Y0012089D01*
X0126408Y0011760D01*
X0126468Y0011432D01*
X0126536Y0011106D01*
X0126611Y0010782D01*
X0126695Y0010460D01*
X0126786Y0010140D01*
X0126885Y0009822D01*
X0126992Y0009506D01*
X0127106Y0009194D01*
X0127228Y0008884D01*
X0127358Y0008577D01*
X0127494Y0008273D01*
X0127638Y0007973D01*
X0127789Y0007676D01*
X0127948Y0007383D01*
X0128113Y0007094D01*
X0128285Y0006809D01*
X0128464Y0006528D01*
X0128650Y0006252D01*
X0128843Y0005980D01*
X0129042Y0005713D01*
X0129247Y0005451D01*
X0129459Y0005194D01*
X0129677Y0004942D01*
X0129900Y0004696D01*
X0130130Y0004455D01*
X0130366Y0004219D01*
X0130607Y0003989D01*
X0130853Y0003766D01*
X0131105Y0003548D01*
X0131362Y0003336D01*
X0131624Y0003131D01*
X0131891Y0002932D01*
X0132163Y0002739D01*
X0132439Y0002553D01*
X0132720Y0002374D01*
X0133005Y0002202D01*
X0133294Y0002037D01*
X0133587Y0001878D01*
X0133884Y0001727D01*
X0134184Y0001583D01*
X0134488Y0001447D01*
X0134795Y0001317D01*
X0135105Y0001195D01*
X0135417Y0001081D01*
X0135733Y0000974D01*
X0136051Y0000875D01*
X0136371Y0000784D01*
X0136693Y0000700D01*
X0137017Y0000625D01*
X0137343Y0000557D01*
X0137671Y0000497D01*
X0138000Y0000445D01*
X0138330Y0000400D01*
X0138661Y0000364D01*
X0138993Y0000336D01*
X0139325Y0000316D01*
X0139658Y0000304D01*
X0139991Y0000300D01*
X0230542Y0000300D01*
X0230875Y0000304D01*
X0231208Y0000316D01*
X0231540Y0000336D01*
X0231872Y0000364D01*
X0232203Y0000400D01*
X0232533Y0000445D01*
X0232862Y0000497D01*
X0233190Y0000557D01*
X0233516Y0000625D01*
X0233840Y0000700D01*
X0234162Y0000784D01*
X0234482Y0000875D01*
X0234800Y0000974D01*
X0235116Y0001081D01*
X0235428Y0001195D01*
X0235738Y0001317D01*
X0236045Y0001447D01*
X0236349Y0001583D01*
X0236649Y0001727D01*
X0236946Y0001878D01*
X0237239Y0002037D01*
X0237528Y0002202D01*
X0237813Y0002374D01*
X0238094Y0002553D01*
X0238370Y0002739D01*
X0238642Y0002932D01*
X0238909Y0003131D01*
X0239171Y0003336D01*
X0239428Y0003548D01*
X0239680Y0003766D01*
X0239926Y0003989D01*
X0240167Y0004219D01*
X0240403Y0004455D01*
X0240633Y0004696D01*
X0240856Y0004942D01*
X0241074Y0005194D01*
X0241286Y0005451D01*
X0241491Y0005713D01*
X0241690Y0005980D01*
X0241883Y0006252D01*
X0242069Y0006528D01*
X0242248Y0006809D01*
X0242420Y0007094D01*
X0242585Y0007383D01*
X0242744Y0007676D01*
X0242895Y0007973D01*
X0243039Y0008273D01*
X0243175Y0008577D01*
X0243305Y0008884D01*
X0243427Y0009194D01*
X0243541Y0009506D01*
X0243648Y0009822D01*
X0243747Y0010140D01*
X0243838Y0010460D01*
X0243922Y0010782D01*
X0243997Y0011106D01*
X0244065Y0011432D01*
X0244125Y0011760D01*
X0244177Y0012089D01*
X0244222Y0012419D01*
X0244258Y0012750D01*
X0244286Y0013082D01*
X0244306Y0013414D01*
X0244318Y0013747D01*
X0244322Y0014080D01*
X0126211Y0264006D02*
G75*
%LPD*%
D93*
X0244321Y0277786D02*
X0244321Y0506132D01*
X0244322Y0506132D02*
X0244318Y0506465D01*
X0244306Y0506798D01*
X0244286Y0507130D01*
X0244258Y0507462D01*
X0244222Y0507793D01*
X0244177Y0508123D01*
X0244125Y0508452D01*
X0244065Y0508780D01*
X0243997Y0509106D01*
X0243922Y0509430D01*
X0243838Y0509752D01*
X0243747Y0510072D01*
X0243648Y0510390D01*
X0243541Y0510706D01*
X0243427Y0511018D01*
X0243305Y0511328D01*
X0243175Y0511635D01*
X0243039Y0511939D01*
X0242895Y0512239D01*
X0242744Y0512536D01*
X0242585Y0512829D01*
X0242420Y0513118D01*
X0242248Y0513403D01*
X0242069Y0513684D01*
X0241883Y0513960D01*
X0241690Y0514232D01*
X0241491Y0514499D01*
X0241286Y0514761D01*
X0241074Y0515018D01*
X0240856Y0515270D01*
X0240633Y0515516D01*
X0240403Y0515757D01*
X0240167Y0515993D01*
X0239926Y0516223D01*
X0239680Y0516446D01*
X0239428Y0516664D01*
X0239171Y0516876D01*
X0238909Y0517081D01*
X0238642Y0517280D01*
X0238370Y0517473D01*
X0238094Y0517659D01*
X0237813Y0517838D01*
X0237528Y0518010D01*
X0237239Y0518175D01*
X0236946Y0518334D01*
X0236649Y0518485D01*
X0236349Y0518629D01*
X0236045Y0518765D01*
X0235738Y0518895D01*
X0235428Y0519017D01*
X0235116Y0519131D01*
X0234800Y0519238D01*
X0234482Y0519337D01*
X0234162Y0519428D01*
X0233840Y0519512D01*
X0233516Y0519587D01*
X0233190Y0519655D01*
X0232862Y0519715D01*
X0232533Y0519767D01*
X0232203Y0519812D01*
X0231872Y0519848D01*
X0231540Y0519876D01*
X0231208Y0519896D01*
X0230875Y0519908D01*
X0230542Y0519912D01*
X0139991Y0519912D01*
X0139658Y0519908D01*
X0139325Y0519896D01*
X0138993Y0519876D01*
X0138661Y0519848D01*
X0138330Y0519812D01*
X0138000Y0519767D01*
X0137671Y0519715D01*
X0137343Y0519655D01*
X0137017Y0519587D01*
X0136693Y0519512D01*
X0136371Y0519428D01*
X0136051Y0519337D01*
X0135733Y0519238D01*
X0135417Y0519131D01*
X0135105Y0519017D01*
X0134795Y0518895D01*
X0134488Y0518765D01*
X0134184Y0518629D01*
X0133884Y0518485D01*
X0133587Y0518334D01*
X0133294Y0518175D01*
X0133005Y0518010D01*
X0132720Y0517838D01*
X0132439Y0517659D01*
X0132163Y0517473D01*
X0131891Y0517280D01*
X0131624Y0517081D01*
X0131362Y0516876D01*
X0131105Y0516664D01*
X0130853Y0516446D01*
X0130607Y0516223D01*
X0130366Y0515993D01*
X0130130Y0515757D01*
X0129900Y0515516D01*
X0129677Y0515270D01*
X0129459Y0515018D01*
X0129247Y0514761D01*
X0129042Y0514499D01*
X0128843Y0514232D01*
X0128650Y0513960D01*
X0128464Y0513684D01*
X0128285Y0513403D01*
X0128113Y0513118D01*
X0127948Y0512829D01*
X0127789Y0512536D01*
X0127638Y0512239D01*
X0127494Y0511939D01*
X0127358Y0511635D01*
X0127228Y0511328D01*
X0127106Y0511018D01*
X0126992Y0510706D01*
X0126885Y0510390D01*
X0126786Y0510072D01*
X0126695Y0509752D01*
X0126611Y0509430D01*
X0126536Y0509106D01*
X0126468Y0508780D01*
X0126408Y0508452D01*
X0126356Y0508123D01*
X0126311Y0507793D01*
X0126275Y0507462D01*
X0126247Y0507130D01*
X0126227Y0506798D01*
X0126215Y0506465D01*
X0126211Y0506132D01*
X0126211Y0277786D01*
X0126215Y0277453D01*
X0126227Y0277120D01*
X0126247Y0276788D01*
X0126275Y0276456D01*
X0126311Y0276125D01*
X0126356Y0275795D01*
X0126408Y0275466D01*
X0126468Y0275138D01*
X0126536Y0274812D01*
X0126611Y0274488D01*
X0126695Y0274166D01*
X0126786Y0273846D01*
X0126885Y0273528D01*
X0126992Y0273212D01*
X0127106Y0272900D01*
X0127228Y0272590D01*
X0127358Y0272283D01*
X0127494Y0271979D01*
X0127638Y0271679D01*
X0127789Y0271382D01*
X0127948Y0271089D01*
X0128113Y0270800D01*
X0128285Y0270515D01*
X0128464Y0270234D01*
X0128650Y0269958D01*
X0128843Y0269686D01*
X0129042Y0269419D01*
X0129247Y0269157D01*
X0129459Y0268900D01*
X0129677Y0268648D01*
X0129900Y0268402D01*
X0130130Y0268161D01*
X0130366Y0267925D01*
X0130607Y0267695D01*
X0130853Y0267472D01*
X0131105Y0267254D01*
X0131362Y0267042D01*
X0131624Y0266837D01*
X0131891Y0266638D01*
X0132163Y0266445D01*
X0132439Y0266259D01*
X0132720Y0266080D01*
X0133005Y0265908D01*
X0133294Y0265743D01*
X0133587Y0265584D01*
X0133884Y0265433D01*
X0134184Y0265289D01*
X0134488Y0265153D01*
X0134795Y0265023D01*
X0135105Y0264901D01*
X0135417Y0264787D01*
X0135733Y0264680D01*
X0136051Y0264581D01*
X0136371Y0264490D01*
X0136693Y0264406D01*
X0137017Y0264331D01*
X0137343Y0264263D01*
X0137671Y0264203D01*
X0138000Y0264151D01*
X0138330Y0264106D01*
X0138661Y0264070D01*
X0138993Y0264042D01*
X0139325Y0264022D01*
X0139658Y0264010D01*
X0139991Y0264006D01*
X0230542Y0264006D01*
X0230875Y0264010D01*
X0231208Y0264022D01*
X0231540Y0264042D01*
X0231872Y0264070D01*
X0232203Y0264106D01*
X0232533Y0264151D01*
X0232862Y0264203D01*
X0233190Y0264263D01*
X0233516Y0264331D01*
X0233840Y0264406D01*
X0234162Y0264490D01*
X0234482Y0264581D01*
X0234800Y0264680D01*
X0235116Y0264787D01*
X0235428Y0264901D01*
X0235738Y0265023D01*
X0236045Y0265153D01*
X0236349Y0265289D01*
X0236649Y0265433D01*
X0236946Y0265584D01*
X0237239Y0265743D01*
X0237528Y0265908D01*
X0237813Y0266080D01*
X0238094Y0266259D01*
X0238370Y0266445D01*
X0238642Y0266638D01*
X0238909Y0266837D01*
X0239171Y0267042D01*
X0239428Y0267254D01*
X0239680Y0267472D01*
X0239926Y0267695D01*
X0240167Y0267925D01*
X0240403Y0268161D01*
X0240633Y0268402D01*
X0240856Y0268648D01*
X0241074Y0268900D01*
X0241286Y0269157D01*
X0241491Y0269419D01*
X0241690Y0269686D01*
X0241883Y0269958D01*
X0242069Y0270234D01*
X0242248Y0270515D01*
X0242420Y0270800D01*
X0242585Y0271089D01*
X0242744Y0271382D01*
X0242895Y0271679D01*
X0243039Y0271979D01*
X0243175Y0272283D01*
X0243305Y0272590D01*
X0243427Y0272900D01*
X0243541Y0273212D01*
X0243648Y0273528D01*
X0243747Y0273846D01*
X0243838Y0274166D01*
X0243922Y0274488D01*
X0243997Y0274812D01*
X0244065Y0275138D01*
X0244125Y0275466D01*
X0244177Y0275795D01*
X0244222Y0276125D01*
X0244258Y0276456D01*
X0244286Y0276788D01*
X0244306Y0277120D01*
X0244318Y0277453D01*
X0244322Y0277786D01*
X0252122Y0000300D02*
G75*
%LPD*%
D93*
X0370232Y0014080D02*
X0370232Y0242426D01*
X0370233Y0242426D02*
X0370229Y0242759D01*
X0370217Y0243092D01*
X0370197Y0243424D01*
X0370169Y0243756D01*
X0370133Y0244087D01*
X0370088Y0244417D01*
X0370036Y0244746D01*
X0369976Y0245074D01*
X0369908Y0245400D01*
X0369833Y0245724D01*
X0369749Y0246046D01*
X0369658Y0246366D01*
X0369559Y0246684D01*
X0369452Y0247000D01*
X0369338Y0247312D01*
X0369216Y0247622D01*
X0369086Y0247929D01*
X0368950Y0248233D01*
X0368806Y0248533D01*
X0368655Y0248830D01*
X0368496Y0249123D01*
X0368331Y0249412D01*
X0368159Y0249697D01*
X0367980Y0249978D01*
X0367794Y0250254D01*
X0367601Y0250526D01*
X0367402Y0250793D01*
X0367197Y0251055D01*
X0366985Y0251312D01*
X0366767Y0251564D01*
X0366544Y0251810D01*
X0366314Y0252051D01*
X0366078Y0252287D01*
X0365837Y0252517D01*
X0365591Y0252740D01*
X0365339Y0252958D01*
X0365082Y0253170D01*
X0364820Y0253375D01*
X0364553Y0253574D01*
X0364281Y0253767D01*
X0364005Y0253953D01*
X0363724Y0254132D01*
X0363439Y0254304D01*
X0363150Y0254469D01*
X0362857Y0254628D01*
X0362560Y0254779D01*
X0362260Y0254923D01*
X0361956Y0255059D01*
X0361649Y0255189D01*
X0361339Y0255311D01*
X0361027Y0255425D01*
X0360711Y0255532D01*
X0360393Y0255631D01*
X0360073Y0255722D01*
X0359751Y0255806D01*
X0359427Y0255881D01*
X0359101Y0255949D01*
X0358773Y0256009D01*
X0358444Y0256061D01*
X0358114Y0256106D01*
X0357783Y0256142D01*
X0357451Y0256170D01*
X0357119Y0256190D01*
X0356786Y0256202D01*
X0356453Y0256206D01*
X0265902Y0256206D01*
X0265569Y0256202D01*
X0265236Y0256190D01*
X0264904Y0256170D01*
X0264572Y0256142D01*
X0264241Y0256106D01*
X0263911Y0256061D01*
X0263582Y0256009D01*
X0263254Y0255949D01*
X0262928Y0255881D01*
X0262604Y0255806D01*
X0262282Y0255722D01*
X0261962Y0255631D01*
X0261644Y0255532D01*
X0261328Y0255425D01*
X0261016Y0255311D01*
X0260706Y0255189D01*
X0260399Y0255059D01*
X0260095Y0254923D01*
X0259795Y0254779D01*
X0259498Y0254628D01*
X0259205Y0254469D01*
X0258916Y0254304D01*
X0258631Y0254132D01*
X0258350Y0253953D01*
X0258074Y0253767D01*
X0257802Y0253574D01*
X0257535Y0253375D01*
X0257273Y0253170D01*
X0257016Y0252958D01*
X0256764Y0252740D01*
X0256518Y0252517D01*
X0256277Y0252287D01*
X0256041Y0252051D01*
X0255811Y0251810D01*
X0255588Y0251564D01*
X0255370Y0251312D01*
X0255158Y0251055D01*
X0254953Y0250793D01*
X0254754Y0250526D01*
X0254561Y0250254D01*
X0254375Y0249978D01*
X0254196Y0249697D01*
X0254024Y0249412D01*
X0253859Y0249123D01*
X0253700Y0248830D01*
X0253549Y0248533D01*
X0253405Y0248233D01*
X0253269Y0247929D01*
X0253139Y0247622D01*
X0253017Y0247312D01*
X0252903Y0247000D01*
X0252796Y0246684D01*
X0252697Y0246366D01*
X0252606Y0246046D01*
X0252522Y0245724D01*
X0252447Y0245400D01*
X0252379Y0245074D01*
X0252319Y0244746D01*
X0252267Y0244417D01*
X0252222Y0244087D01*
X0252186Y0243756D01*
X0252158Y0243424D01*
X0252138Y0243092D01*
X0252126Y0242759D01*
X0252122Y0242426D01*
X0252122Y0014080D01*
X0252126Y0013747D01*
X0252138Y0013414D01*
X0252158Y0013082D01*
X0252186Y0012750D01*
X0252222Y0012419D01*
X0252267Y0012089D01*
X0252319Y0011760D01*
X0252379Y0011432D01*
X0252447Y0011106D01*
X0252522Y0010782D01*
X0252606Y0010460D01*
X0252697Y0010140D01*
X0252796Y0009822D01*
X0252903Y0009506D01*
X0253017Y0009194D01*
X0253139Y0008884D01*
X0253269Y0008577D01*
X0253405Y0008273D01*
X0253549Y0007973D01*
X0253700Y0007676D01*
X0253859Y0007383D01*
X0254024Y0007094D01*
X0254196Y0006809D01*
X0254375Y0006528D01*
X0254561Y0006252D01*
X0254754Y0005980D01*
X0254953Y0005713D01*
X0255158Y0005451D01*
X0255370Y0005194D01*
X0255588Y0004942D01*
X0255811Y0004696D01*
X0256041Y0004455D01*
X0256277Y0004219D01*
X0256518Y0003989D01*
X0256764Y0003766D01*
X0257016Y0003548D01*
X0257273Y0003336D01*
X0257535Y0003131D01*
X0257802Y0002932D01*
X0258074Y0002739D01*
X0258350Y0002553D01*
X0258631Y0002374D01*
X0258916Y0002202D01*
X0259205Y0002037D01*
X0259498Y0001878D01*
X0259795Y0001727D01*
X0260095Y0001583D01*
X0260399Y0001447D01*
X0260706Y0001317D01*
X0261016Y0001195D01*
X0261328Y0001081D01*
X0261644Y0000974D01*
X0261962Y0000875D01*
X0262282Y0000784D01*
X0262604Y0000700D01*
X0262928Y0000625D01*
X0263254Y0000557D01*
X0263582Y0000497D01*
X0263911Y0000445D01*
X0264241Y0000400D01*
X0264572Y0000364D01*
X0264904Y0000336D01*
X0265236Y0000316D01*
X0265569Y0000304D01*
X0265902Y0000300D01*
X0356453Y0000300D01*
X0356786Y0000304D01*
X0357119Y0000316D01*
X0357451Y0000336D01*
X0357783Y0000364D01*
X0358114Y0000400D01*
X0358444Y0000445D01*
X0358773Y0000497D01*
X0359101Y0000557D01*
X0359427Y0000625D01*
X0359751Y0000700D01*
X0360073Y0000784D01*
X0360393Y0000875D01*
X0360711Y0000974D01*
X0361027Y0001081D01*
X0361339Y0001195D01*
X0361649Y0001317D01*
X0361956Y0001447D01*
X0362260Y0001583D01*
X0362560Y0001727D01*
X0362857Y0001878D01*
X0363150Y0002037D01*
X0363439Y0002202D01*
X0363724Y0002374D01*
X0364005Y0002553D01*
X0364281Y0002739D01*
X0364553Y0002932D01*
X0364820Y0003131D01*
X0365082Y0003336D01*
X0365339Y0003548D01*
X0365591Y0003766D01*
X0365837Y0003989D01*
X0366078Y0004219D01*
X0366314Y0004455D01*
X0366544Y0004696D01*
X0366767Y0004942D01*
X0366985Y0005194D01*
X0367197Y0005451D01*
X0367402Y0005713D01*
X0367601Y0005980D01*
X0367794Y0006252D01*
X0367980Y0006528D01*
X0368159Y0006809D01*
X0368331Y0007094D01*
X0368496Y0007383D01*
X0368655Y0007676D01*
X0368806Y0007973D01*
X0368950Y0008273D01*
X0369086Y0008577D01*
X0369216Y0008884D01*
X0369338Y0009194D01*
X0369452Y0009506D01*
X0369559Y0009822D01*
X0369658Y0010140D01*
X0369749Y0010460D01*
X0369833Y0010782D01*
X0369908Y0011106D01*
X0369976Y0011432D01*
X0370036Y0011760D01*
X0370088Y0012089D01*
X0370133Y0012419D01*
X0370169Y0012750D01*
X0370197Y0013082D01*
X0370217Y0013414D01*
X0370229Y0013747D01*
X0370233Y0014080D01*
X0252122Y0264006D02*
G75*
%LPD*%
D93*
X0370232Y0277786D02*
X0370232Y0506132D01*
X0370233Y0506132D02*
X0370229Y0506465D01*
X0370217Y0506798D01*
X0370197Y0507130D01*
X0370169Y0507462D01*
X0370133Y0507793D01*
X0370088Y0508123D01*
X0370036Y0508452D01*
X0369976Y0508780D01*
X0369908Y0509106D01*
X0369833Y0509430D01*
X0369749Y0509752D01*
X0369658Y0510072D01*
X0369559Y0510390D01*
X0369452Y0510706D01*
X0369338Y0511018D01*
X0369216Y0511328D01*
X0369086Y0511635D01*
X0368950Y0511939D01*
X0368806Y0512239D01*
X0368655Y0512536D01*
X0368496Y0512829D01*
X0368331Y0513118D01*
X0368159Y0513403D01*
X0367980Y0513684D01*
X0367794Y0513960D01*
X0367601Y0514232D01*
X0367402Y0514499D01*
X0367197Y0514761D01*
X0366985Y0515018D01*
X0366767Y0515270D01*
X0366544Y0515516D01*
X0366314Y0515757D01*
X0366078Y0515993D01*
X0365837Y0516223D01*
X0365591Y0516446D01*
X0365339Y0516664D01*
X0365082Y0516876D01*
X0364820Y0517081D01*
X0364553Y0517280D01*
X0364281Y0517473D01*
X0364005Y0517659D01*
X0363724Y0517838D01*
X0363439Y0518010D01*
X0363150Y0518175D01*
X0362857Y0518334D01*
X0362560Y0518485D01*
X0362260Y0518629D01*
X0361956Y0518765D01*
X0361649Y0518895D01*
X0361339Y0519017D01*
X0361027Y0519131D01*
X0360711Y0519238D01*
X0360393Y0519337D01*
X0360073Y0519428D01*
X0359751Y0519512D01*
X0359427Y0519587D01*
X0359101Y0519655D01*
X0358773Y0519715D01*
X0358444Y0519767D01*
X0358114Y0519812D01*
X0357783Y0519848D01*
X0357451Y0519876D01*
X0357119Y0519896D01*
X0356786Y0519908D01*
X0356453Y0519912D01*
X0265902Y0519912D01*
X0265569Y0519908D01*
X0265236Y0519896D01*
X0264904Y0519876D01*
X0264572Y0519848D01*
X0264241Y0519812D01*
X0263911Y0519767D01*
X0263582Y0519715D01*
X0263254Y0519655D01*
X0262928Y0519587D01*
X0262604Y0519512D01*
X0262282Y0519428D01*
X0261962Y0519337D01*
X0261644Y0519238D01*
X0261328Y0519131D01*
X0261016Y0519017D01*
X0260706Y0518895D01*
X0260399Y0518765D01*
X0260095Y0518629D01*
X0259795Y0518485D01*
X0259498Y0518334D01*
X0259205Y0518175D01*
X0258916Y0518010D01*
X0258631Y0517838D01*
X0258350Y0517659D01*
X0258074Y0517473D01*
X0257802Y0517280D01*
X0257535Y0517081D01*
X0257273Y0516876D01*
X0257016Y0516664D01*
X0256764Y0516446D01*
X0256518Y0516223D01*
X0256277Y0515993D01*
X0256041Y0515757D01*
X0255811Y0515516D01*
X0255588Y0515270D01*
X0255370Y0515018D01*
X0255158Y0514761D01*
X0254953Y0514499D01*
X0254754Y0514232D01*
X0254561Y0513960D01*
X0254375Y0513684D01*
X0254196Y0513403D01*
X0254024Y0513118D01*
X0253859Y0512829D01*
X0253700Y0512536D01*
X0253549Y0512239D01*
X0253405Y0511939D01*
X0253269Y0511635D01*
X0253139Y0511328D01*
X0253017Y0511018D01*
X0252903Y0510706D01*
X0252796Y0510390D01*
X0252697Y0510072D01*
X0252606Y0509752D01*
X0252522Y0509430D01*
X0252447Y0509106D01*
X0252379Y0508780D01*
X0252319Y0508452D01*
X0252267Y0508123D01*
X0252222Y0507793D01*
X0252186Y0507462D01*
X0252158Y0507130D01*
X0252138Y0506798D01*
X0252126Y0506465D01*
X0252122Y0506132D01*
X0252122Y0277786D01*
X0252126Y0277453D01*
X0252138Y0277120D01*
X0252158Y0276788D01*
X0252186Y0276456D01*
X0252222Y0276125D01*
X0252267Y0275795D01*
X0252319Y0275466D01*
X0252379Y0275138D01*
X0252447Y0274812D01*
X0252522Y0274488D01*
X0252606Y0274166D01*
X0252697Y0273846D01*
X0252796Y0273528D01*
X0252903Y0273212D01*
X0253017Y0272900D01*
X0253139Y0272590D01*
X0253269Y0272283D01*
X0253405Y0271979D01*
X0253549Y0271679D01*
X0253700Y0271382D01*
X0253859Y0271089D01*
X0254024Y0270800D01*
X0254196Y0270515D01*
X0254375Y0270234D01*
X0254561Y0269958D01*
X0254754Y0269686D01*
X0254953Y0269419D01*
X0255158Y0269157D01*
X0255370Y0268900D01*
X0255588Y0268648D01*
X0255811Y0268402D01*
X0256041Y0268161D01*
X0256277Y0267925D01*
X0256518Y0267695D01*
X0256764Y0267472D01*
X0257016Y0267254D01*
X0257273Y0267042D01*
X0257535Y0266837D01*
X0257802Y0266638D01*
X0258074Y0266445D01*
X0258350Y0266259D01*
X0258631Y0266080D01*
X0258916Y0265908D01*
X0259205Y0265743D01*
X0259498Y0265584D01*
X0259795Y0265433D01*
X0260095Y0265289D01*
X0260399Y0265153D01*
X0260706Y0265023D01*
X0261016Y0264901D01*
X0261328Y0264787D01*
X0261644Y0264680D01*
X0261962Y0264581D01*
X0262282Y0264490D01*
X0262604Y0264406D01*
X0262928Y0264331D01*
X0263254Y0264263D01*
X0263582Y0264203D01*
X0263911Y0264151D01*
X0264241Y0264106D01*
X0264572Y0264070D01*
X0264904Y0264042D01*
X0265236Y0264022D01*
X0265569Y0264010D01*
X0265902Y0264006D01*
X0356453Y0264006D01*
X0356786Y0264010D01*
X0357119Y0264022D01*
X0357451Y0264042D01*
X0357783Y0264070D01*
X0358114Y0264106D01*
X0358444Y0264151D01*
X0358773Y0264203D01*
X0359101Y0264263D01*
X0359427Y0264331D01*
X0359751Y0264406D01*
X0360073Y0264490D01*
X0360393Y0264581D01*
X0360711Y0264680D01*
X0361027Y0264787D01*
X0361339Y0264901D01*
X0361649Y0265023D01*
X0361956Y0265153D01*
X0362260Y0265289D01*
X0362560Y0265433D01*
X0362857Y0265584D01*
X0363150Y0265743D01*
X0363439Y0265908D01*
X0363724Y0266080D01*
X0364005Y0266259D01*
X0364281Y0266445D01*
X0364553Y0266638D01*
X0364820Y0266837D01*
X0365082Y0267042D01*
X0365339Y0267254D01*
X0365591Y0267472D01*
X0365837Y0267695D01*
X0366078Y0267925D01*
X0366314Y0268161D01*
X0366544Y0268402D01*
X0366767Y0268648D01*
X0366985Y0268900D01*
X0367197Y0269157D01*
X0367402Y0269419D01*
X0367601Y0269686D01*
X0367794Y0269958D01*
X0367980Y0270234D01*
X0368159Y0270515D01*
X0368331Y0270800D01*
X0368496Y0271089D01*
X0368655Y0271382D01*
X0368806Y0271679D01*
X0368950Y0271979D01*
X0369086Y0272283D01*
X0369216Y0272590D01*
X0369338Y0272900D01*
X0369452Y0273212D01*
X0369559Y0273528D01*
X0369658Y0273846D01*
X0369749Y0274166D01*
X0369833Y0274488D01*
X0369908Y0274812D01*
X0369976Y0275138D01*
X0370036Y0275466D01*
X0370088Y0275795D01*
X0370133Y0276125D01*
X0370169Y0276456D01*
X0370197Y0276788D01*
X0370217Y0277120D01*
X0370229Y0277453D01*
X0370233Y0277786D01*
X0378033Y0000300D02*
G75*
%LPD*%
D93*
X0496143Y0014080D02*
X0496143Y0242426D01*
X0496144Y0242426D02*
X0496140Y0242759D01*
X0496128Y0243092D01*
X0496108Y0243424D01*
X0496080Y0243756D01*
X0496044Y0244087D01*
X0495999Y0244417D01*
X0495947Y0244746D01*
X0495887Y0245074D01*
X0495819Y0245400D01*
X0495744Y0245724D01*
X0495660Y0246046D01*
X0495569Y0246366D01*
X0495470Y0246684D01*
X0495363Y0247000D01*
X0495249Y0247312D01*
X0495127Y0247622D01*
X0494997Y0247929D01*
X0494861Y0248233D01*
X0494717Y0248533D01*
X0494566Y0248830D01*
X0494407Y0249123D01*
X0494242Y0249412D01*
X0494070Y0249697D01*
X0493891Y0249978D01*
X0493705Y0250254D01*
X0493512Y0250526D01*
X0493313Y0250793D01*
X0493108Y0251055D01*
X0492896Y0251312D01*
X0492678Y0251564D01*
X0492455Y0251810D01*
X0492225Y0252051D01*
X0491989Y0252287D01*
X0491748Y0252517D01*
X0491502Y0252740D01*
X0491250Y0252958D01*
X0490993Y0253170D01*
X0490731Y0253375D01*
X0490464Y0253574D01*
X0490192Y0253767D01*
X0489916Y0253953D01*
X0489635Y0254132D01*
X0489350Y0254304D01*
X0489061Y0254469D01*
X0488768Y0254628D01*
X0488471Y0254779D01*
X0488171Y0254923D01*
X0487867Y0255059D01*
X0487560Y0255189D01*
X0487250Y0255311D01*
X0486938Y0255425D01*
X0486622Y0255532D01*
X0486304Y0255631D01*
X0485984Y0255722D01*
X0485662Y0255806D01*
X0485338Y0255881D01*
X0485012Y0255949D01*
X0484684Y0256009D01*
X0484355Y0256061D01*
X0484025Y0256106D01*
X0483694Y0256142D01*
X0483362Y0256170D01*
X0483030Y0256190D01*
X0482697Y0256202D01*
X0482364Y0256206D01*
X0391813Y0256206D01*
X0391480Y0256202D01*
X0391147Y0256190D01*
X0390815Y0256170D01*
X0390483Y0256142D01*
X0390152Y0256106D01*
X0389822Y0256061D01*
X0389493Y0256009D01*
X0389165Y0255949D01*
X0388839Y0255881D01*
X0388515Y0255806D01*
X0388193Y0255722D01*
X0387873Y0255631D01*
X0387555Y0255532D01*
X0387239Y0255425D01*
X0386927Y0255311D01*
X0386617Y0255189D01*
X0386310Y0255059D01*
X0386006Y0254923D01*
X0385706Y0254779D01*
X0385409Y0254628D01*
X0385116Y0254469D01*
X0384827Y0254304D01*
X0384542Y0254132D01*
X0384261Y0253953D01*
X0383985Y0253767D01*
X0383713Y0253574D01*
X0383446Y0253375D01*
X0383184Y0253170D01*
X0382927Y0252958D01*
X0382675Y0252740D01*
X0382429Y0252517D01*
X0382188Y0252287D01*
X0381952Y0252051D01*
X0381722Y0251810D01*
X0381499Y0251564D01*
X0381281Y0251312D01*
X0381069Y0251055D01*
X0380864Y0250793D01*
X0380665Y0250526D01*
X0380472Y0250254D01*
X0380286Y0249978D01*
X0380107Y0249697D01*
X0379935Y0249412D01*
X0379770Y0249123D01*
X0379611Y0248830D01*
X0379460Y0248533D01*
X0379316Y0248233D01*
X0379180Y0247929D01*
X0379050Y0247622D01*
X0378928Y0247312D01*
X0378814Y0247000D01*
X0378707Y0246684D01*
X0378608Y0246366D01*
X0378517Y0246046D01*
X0378433Y0245724D01*
X0378358Y0245400D01*
X0378290Y0245074D01*
X0378230Y0244746D01*
X0378178Y0244417D01*
X0378133Y0244087D01*
X0378097Y0243756D01*
X0378069Y0243424D01*
X0378049Y0243092D01*
X0378037Y0242759D01*
X0378033Y0242426D01*
X0378033Y0014080D01*
X0378037Y0013747D01*
X0378049Y0013414D01*
X0378069Y0013082D01*
X0378097Y0012750D01*
X0378133Y0012419D01*
X0378178Y0012089D01*
X0378230Y0011760D01*
X0378290Y0011432D01*
X0378358Y0011106D01*
X0378433Y0010782D01*
X0378517Y0010460D01*
X0378608Y0010140D01*
X0378707Y0009822D01*
X0378814Y0009506D01*
X0378928Y0009194D01*
X0379050Y0008884D01*
X0379180Y0008577D01*
X0379316Y0008273D01*
X0379460Y0007973D01*
X0379611Y0007676D01*
X0379770Y0007383D01*
X0379935Y0007094D01*
X0380107Y0006809D01*
X0380286Y0006528D01*
X0380472Y0006252D01*
X0380665Y0005980D01*
X0380864Y0005713D01*
X0381069Y0005451D01*
X0381281Y0005194D01*
X0381499Y0004942D01*
X0381722Y0004696D01*
X0381952Y0004455D01*
X0382188Y0004219D01*
X0382429Y0003989D01*
X0382675Y0003766D01*
X0382927Y0003548D01*
X0383184Y0003336D01*
X0383446Y0003131D01*
X0383713Y0002932D01*
X0383985Y0002739D01*
X0384261Y0002553D01*
X0384542Y0002374D01*
X0384827Y0002202D01*
X0385116Y0002037D01*
X0385409Y0001878D01*
X0385706Y0001727D01*
X0386006Y0001583D01*
X0386310Y0001447D01*
X0386617Y0001317D01*
X0386927Y0001195D01*
X0387239Y0001081D01*
X0387555Y0000974D01*
X0387873Y0000875D01*
X0388193Y0000784D01*
X0388515Y0000700D01*
X0388839Y0000625D01*
X0389165Y0000557D01*
X0389493Y0000497D01*
X0389822Y0000445D01*
X0390152Y0000400D01*
X0390483Y0000364D01*
X0390815Y0000336D01*
X0391147Y0000316D01*
X0391480Y0000304D01*
X0391813Y0000300D01*
X0482364Y0000300D01*
X0482697Y0000304D01*
X0483030Y0000316D01*
X0483362Y0000336D01*
X0483694Y0000364D01*
X0484025Y0000400D01*
X0484355Y0000445D01*
X0484684Y0000497D01*
X0485012Y0000557D01*
X0485338Y0000625D01*
X0485662Y0000700D01*
X0485984Y0000784D01*
X0486304Y0000875D01*
X0486622Y0000974D01*
X0486938Y0001081D01*
X0487250Y0001195D01*
X0487560Y0001317D01*
X0487867Y0001447D01*
X0488171Y0001583D01*
X0488471Y0001727D01*
X0488768Y0001878D01*
X0489061Y0002037D01*
X0489350Y0002202D01*
X0489635Y0002374D01*
X0489916Y0002553D01*
X0490192Y0002739D01*
X0490464Y0002932D01*
X0490731Y0003131D01*
X0490993Y0003336D01*
X0491250Y0003548D01*
X0491502Y0003766D01*
X0491748Y0003989D01*
X0491989Y0004219D01*
X0492225Y0004455D01*
X0492455Y0004696D01*
X0492678Y0004942D01*
X0492896Y0005194D01*
X0493108Y0005451D01*
X0493313Y0005713D01*
X0493512Y0005980D01*
X0493705Y0006252D01*
X0493891Y0006528D01*
X0494070Y0006809D01*
X0494242Y0007094D01*
X0494407Y0007383D01*
X0494566Y0007676D01*
X0494717Y0007973D01*
X0494861Y0008273D01*
X0494997Y0008577D01*
X0495127Y0008884D01*
X0495249Y0009194D01*
X0495363Y0009506D01*
X0495470Y0009822D01*
X0495569Y0010140D01*
X0495660Y0010460D01*
X0495744Y0010782D01*
X0495819Y0011106D01*
X0495887Y0011432D01*
X0495947Y0011760D01*
X0495999Y0012089D01*
X0496044Y0012419D01*
X0496080Y0012750D01*
X0496108Y0013082D01*
X0496128Y0013414D01*
X0496140Y0013747D01*
X0496144Y0014080D01*
X0378033Y0264006D02*
G75*
%LPD*%
D93*
X0496143Y0277786D02*
X0496143Y0506132D01*
X0496144Y0506132D02*
X0496140Y0506465D01*
X0496128Y0506798D01*
X0496108Y0507130D01*
X0496080Y0507462D01*
X0496044Y0507793D01*
X0495999Y0508123D01*
X0495947Y0508452D01*
X0495887Y0508780D01*
X0495819Y0509106D01*
X0495744Y0509430D01*
X0495660Y0509752D01*
X0495569Y0510072D01*
X0495470Y0510390D01*
X0495363Y0510706D01*
X0495249Y0511018D01*
X0495127Y0511328D01*
X0494997Y0511635D01*
X0494861Y0511939D01*
X0494717Y0512239D01*
X0494566Y0512536D01*
X0494407Y0512829D01*
X0494242Y0513118D01*
X0494070Y0513403D01*
X0493891Y0513684D01*
X0493705Y0513960D01*
X0493512Y0514232D01*
X0493313Y0514499D01*
X0493108Y0514761D01*
X0492896Y0515018D01*
X0492678Y0515270D01*
X0492455Y0515516D01*
X0492225Y0515757D01*
X0491989Y0515993D01*
X0491748Y0516223D01*
X0491502Y0516446D01*
X0491250Y0516664D01*
X0490993Y0516876D01*
X0490731Y0517081D01*
X0490464Y0517280D01*
X0490192Y0517473D01*
X0489916Y0517659D01*
X0489635Y0517838D01*
X0489350Y0518010D01*
X0489061Y0518175D01*
X0488768Y0518334D01*
X0488471Y0518485D01*
X0488171Y0518629D01*
X0487867Y0518765D01*
X0487560Y0518895D01*
X0487250Y0519017D01*
X0486938Y0519131D01*
X0486622Y0519238D01*
X0486304Y0519337D01*
X0485984Y0519428D01*
X0485662Y0519512D01*
X0485338Y0519587D01*
X0485012Y0519655D01*
X0484684Y0519715D01*
X0484355Y0519767D01*
X0484025Y0519812D01*
X0483694Y0519848D01*
X0483362Y0519876D01*
X0483030Y0519896D01*
X0482697Y0519908D01*
X0482364Y0519912D01*
X0391813Y0519912D01*
X0391480Y0519908D01*
X0391147Y0519896D01*
X0390815Y0519876D01*
X0390483Y0519848D01*
X0390152Y0519812D01*
X0389822Y0519767D01*
X0389493Y0519715D01*
X0389165Y0519655D01*
X0388839Y0519587D01*
X0388515Y0519512D01*
X0388193Y0519428D01*
X0387873Y0519337D01*
X0387555Y0519238D01*
X0387239Y0519131D01*
X0386927Y0519017D01*
X0386617Y0518895D01*
X0386310Y0518765D01*
X0386006Y0518629D01*
X0385706Y0518485D01*
X0385409Y0518334D01*
X0385116Y0518175D01*
X0384827Y0518010D01*
X0384542Y0517838D01*
X0384261Y0517659D01*
X0383985Y0517473D01*
X0383713Y0517280D01*
X0383446Y0517081D01*
X0383184Y0516876D01*
X0382927Y0516664D01*
X0382675Y0516446D01*
X0382429Y0516223D01*
X0382188Y0515993D01*
X0381952Y0515757D01*
X0381722Y0515516D01*
X0381499Y0515270D01*
X0381281Y0515018D01*
X0381069Y0514761D01*
X0380864Y0514499D01*
X0380665Y0514232D01*
X0380472Y0513960D01*
X0380286Y0513684D01*
X0380107Y0513403D01*
X0379935Y0513118D01*
X0379770Y0512829D01*
X0379611Y0512536D01*
X0379460Y0512239D01*
X0379316Y0511939D01*
X0379180Y0511635D01*
X0379050Y0511328D01*
X0378928Y0511018D01*
X0378814Y0510706D01*
X0378707Y0510390D01*
X0378608Y0510072D01*
X0378517Y0509752D01*
X0378433Y0509430D01*
X0378358Y0509106D01*
X0378290Y0508780D01*
X0378230Y0508452D01*
X0378178Y0508123D01*
X0378133Y0507793D01*
X0378097Y0507462D01*
X0378069Y0507130D01*
X0378049Y0506798D01*
X0378037Y0506465D01*
X0378033Y0506132D01*
X0378033Y0277786D01*
X0378037Y0277453D01*
X0378049Y0277120D01*
X0378069Y0276788D01*
X0378097Y0276456D01*
X0378133Y0276125D01*
X0378178Y0275795D01*
X0378230Y0275466D01*
X0378290Y0275138D01*
X0378358Y0274812D01*
X0378433Y0274488D01*
X0378517Y0274166D01*
X0378608Y0273846D01*
X0378707Y0273528D01*
X0378814Y0273212D01*
X0378928Y0272900D01*
X0379050Y0272590D01*
X0379180Y0272283D01*
X0379316Y0271979D01*
X0379460Y0271679D01*
X0379611Y0271382D01*
X0379770Y0271089D01*
X0379935Y0270800D01*
X0380107Y0270515D01*
X0380286Y0270234D01*
X0380472Y0269958D01*
X0380665Y0269686D01*
X0380864Y0269419D01*
X0381069Y0269157D01*
X0381281Y0268900D01*
X0381499Y0268648D01*
X0381722Y0268402D01*
X0381952Y0268161D01*
X0382188Y0267925D01*
X0382429Y0267695D01*
X0382675Y0267472D01*
X0382927Y0267254D01*
X0383184Y0267042D01*
X0383446Y0266837D01*
X0383713Y0266638D01*
X0383985Y0266445D01*
X0384261Y0266259D01*
X0384542Y0266080D01*
X0384827Y0265908D01*
X0385116Y0265743D01*
X0385409Y0265584D01*
X0385706Y0265433D01*
X0386006Y0265289D01*
X0386310Y0265153D01*
X0386617Y0265023D01*
X0386927Y0264901D01*
X0387239Y0264787D01*
X0387555Y0264680D01*
X0387873Y0264581D01*
X0388193Y0264490D01*
X0388515Y0264406D01*
X0388839Y0264331D01*
X0389165Y0264263D01*
X0389493Y0264203D01*
X0389822Y0264151D01*
X0390152Y0264106D01*
X0390483Y0264070D01*
X0390815Y0264042D01*
X0391147Y0264022D01*
X0391480Y0264010D01*
X0391813Y0264006D01*
X0482364Y0264006D01*
X0482697Y0264010D01*
X0483030Y0264022D01*
X0483362Y0264042D01*
X0483694Y0264070D01*
X0484025Y0264106D01*
X0484355Y0264151D01*
X0484684Y0264203D01*
X0485012Y0264263D01*
X0485338Y0264331D01*
X0485662Y0264406D01*
X0485984Y0264490D01*
X0486304Y0264581D01*
X0486622Y0264680D01*
X0486938Y0264787D01*
X0487250Y0264901D01*
X0487560Y0265023D01*
X0487867Y0265153D01*
X0488171Y0265289D01*
X0488471Y0265433D01*
X0488768Y0265584D01*
X0489061Y0265743D01*
X0489350Y0265908D01*
X0489635Y0266080D01*
X0489916Y0266259D01*
X0490192Y0266445D01*
X0490464Y0266638D01*
X0490731Y0266837D01*
X0490993Y0267042D01*
X0491250Y0267254D01*
X0491502Y0267472D01*
X0491748Y0267695D01*
X0491989Y0267925D01*
X0492225Y0268161D01*
X0492455Y0268402D01*
X0492678Y0268648D01*
X0492896Y0268900D01*
X0493108Y0269157D01*
X0493313Y0269419D01*
X0493512Y0269686D01*
X0493705Y0269958D01*
X0493891Y0270234D01*
X0494070Y0270515D01*
X0494242Y0270800D01*
X0494407Y0271089D01*
X0494566Y0271382D01*
X0494717Y0271679D01*
X0494861Y0271979D01*
X0494997Y0272283D01*
X0495127Y0272590D01*
X0495249Y0272900D01*
X0495363Y0273212D01*
X0495470Y0273528D01*
X0495569Y0273846D01*
X0495660Y0274166D01*
X0495744Y0274488D01*
X0495819Y0274812D01*
X0495887Y0275138D01*
X0495947Y0275466D01*
X0495999Y0275795D01*
X0496044Y0276125D01*
X0496080Y0276456D01*
X0496108Y0276788D01*
X0496128Y0277120D01*
X0496140Y0277453D01*
X0496144Y0277786D01*
X0503944Y0000300D02*
G75*
%LPD*%
D93*
X0503944Y0000300D02*
X0503944Y0055418D01*
X0574810Y0055418D01*
X0574810Y0000300D01*
X0503944Y0000300D01*
X0503944Y0063218D02*
G75*
%LPD*%
D93*
X0503944Y0063218D02*
X0503944Y0118336D01*
X0574810Y0118336D01*
X0574810Y0063218D01*
X0503944Y0063218D01*
X0503944Y0126136D02*
G75*
%LPD*%
D93*
X0503944Y0126136D02*
X0503944Y0181254D01*
X0574810Y0181254D01*
X0574810Y0126136D01*
X0503944Y0126136D01*
X0503944Y0189054D02*
G75*
%LPD*%
D93*
X0503944Y0189054D02*
X0503944Y0244172D01*
X0574810Y0244172D01*
X0574810Y0189054D01*
X0503944Y0189054D01*
X0503944Y0251972D02*
G75*
%LPD*%
D93*
X0503944Y0251972D02*
X0503944Y0307090D01*
X0574810Y0307090D01*
X0574810Y0251972D01*
X0503944Y0251972D01*
X0503944Y0314890D02*
G75*
%LPD*%
D93*
X0503944Y0314890D02*
X0503944Y0370008D01*
X0574810Y0370008D01*
X0574810Y0314890D01*
X0503944Y0314890D01*
X0503944Y0377808D02*
G75*
%LPD*%
D93*
X0503944Y0377808D02*
X0503944Y0432926D01*
X0574810Y0432926D01*
X0574810Y0377808D01*
X0503944Y0377808D01*
X0503944Y0440726D02*
G75*
%LPD*%
D93*
X0503944Y0440726D02*
X0503944Y0495844D01*
X0574810Y0495844D01*
X0574810Y0440726D01*
X0503944Y0440726D01*
M02*
