G75*
%MOIN*%
%OFA0B0*%
%FSLAX25Y25*%
%IPPOS*%
%LPD*%
%AMOC8*
5,1,8,0,0,1.08239X$1,22.5*
%
%ADD10C,0.07091*%
%ADD11C,0.03500*%
%ADD12C,0.01000*%
D10*
X0051866Y0014803D03*
X0051866Y0024803D03*
X0051866Y0034803D03*
X0051866Y0044803D03*
D11*
X0042732Y0039252D03*
X0026591Y0041220D03*
X0025803Y0052638D03*
X0007693Y0049094D03*
X0032890Y0019961D03*
X0021866Y0010512D03*
X0005331Y0012480D03*
X0045094Y0007362D03*
D12*
X0003500Y0009504D02*
X0003500Y0004744D01*
X0042834Y0004744D01*
X0042170Y0005408D01*
X0041644Y0006676D01*
X0041644Y0008048D01*
X0042170Y0009316D01*
X0043140Y0010287D01*
X0044408Y0010812D01*
X0045781Y0010812D01*
X0047049Y0010287D01*
X0048019Y0009316D01*
X0048544Y0008048D01*
X0048544Y0006676D01*
X0048019Y0005408D01*
X0047355Y0004744D01*
X0069366Y0004744D01*
X0069366Y0054862D01*
X0003500Y0054862D01*
X0003500Y0015456D01*
X0004644Y0015930D01*
X0006017Y0015930D01*
X0007285Y0015405D01*
X0008255Y0014435D01*
X0008781Y0013167D01*
X0008781Y0011794D01*
X0008255Y0010526D01*
X0007285Y0009556D01*
X0006017Y0009030D01*
X0004644Y0009030D01*
X0003500Y0009504D01*
X0003500Y0009234D02*
X0004154Y0009234D01*
X0003500Y0008235D02*
X0041722Y0008235D01*
X0042135Y0009234D02*
X0006508Y0009234D01*
X0007962Y0010232D02*
X0043085Y0010232D01*
X0041644Y0007237D02*
X0003500Y0007237D01*
X0003500Y0006238D02*
X0041826Y0006238D01*
X0042338Y0005240D02*
X0003500Y0005240D01*
X0008547Y0011231D02*
X0048303Y0011231D01*
X0048579Y0010955D02*
X0049222Y0010488D01*
X0049929Y0010127D01*
X0050685Y0009882D01*
X0051366Y0009774D01*
X0051366Y0014303D01*
X0046837Y0014303D01*
X0046945Y0013622D01*
X0047190Y0012866D01*
X0047551Y0012159D01*
X0048018Y0011516D01*
X0048579Y0010955D01*
X0049723Y0010232D02*
X0047104Y0010232D01*
X0048054Y0009234D02*
X0069366Y0009234D01*
X0069366Y0008235D02*
X0048467Y0008235D01*
X0048544Y0007237D02*
X0069366Y0007237D01*
X0069366Y0006238D02*
X0048363Y0006238D01*
X0047851Y0005240D02*
X0069366Y0005240D01*
X0069366Y0010232D02*
X0054009Y0010232D01*
X0053803Y0010127D02*
X0054511Y0010488D01*
X0055153Y0010955D01*
X0055715Y0011516D01*
X0056182Y0012159D01*
X0056542Y0012866D01*
X0056788Y0013622D01*
X0056895Y0014303D01*
X0052366Y0014303D01*
X0052366Y0009774D01*
X0053048Y0009882D01*
X0053803Y0010127D01*
X0052366Y0010232D02*
X0051366Y0010232D01*
X0051366Y0011231D02*
X0052366Y0011231D01*
X0052366Y0012229D02*
X0051366Y0012229D01*
X0051366Y0013228D02*
X0052366Y0013228D01*
X0052366Y0014226D02*
X0051366Y0014226D01*
X0051366Y0014303D02*
X0052366Y0014303D01*
X0052366Y0015303D01*
X0056895Y0015303D01*
X0056788Y0015985D01*
X0056542Y0016740D01*
X0056182Y0017448D01*
X0055715Y0018090D01*
X0055153Y0018652D01*
X0054511Y0019119D01*
X0053803Y0019479D01*
X0053196Y0019676D01*
X0054838Y0020356D01*
X0056313Y0021832D01*
X0057112Y0023760D01*
X0057112Y0025847D01*
X0056313Y0027775D01*
X0054838Y0029250D01*
X0053503Y0029803D01*
X0054838Y0030356D01*
X0056313Y0031832D01*
X0057112Y0033760D01*
X0057112Y0035847D01*
X0056313Y0037775D01*
X0054838Y0039250D01*
X0053503Y0039803D01*
X0054838Y0040356D01*
X0056313Y0041832D01*
X0057112Y0043760D01*
X0057112Y0045847D01*
X0056313Y0047775D01*
X0054838Y0049250D01*
X0052910Y0050049D01*
X0050823Y0050049D01*
X0048895Y0049250D01*
X0047419Y0047775D01*
X0046620Y0045847D01*
X0046620Y0043760D01*
X0047419Y0041832D01*
X0048895Y0040356D01*
X0050230Y0039803D01*
X0048895Y0039250D01*
X0047419Y0037775D01*
X0046620Y0035847D01*
X0046620Y0033760D01*
X0047419Y0031832D01*
X0048895Y0030356D01*
X0050230Y0029803D01*
X0048895Y0029250D01*
X0047419Y0027775D01*
X0046620Y0025847D01*
X0046620Y0023760D01*
X0047419Y0021832D01*
X0048895Y0020356D01*
X0050536Y0019676D01*
X0049929Y0019479D01*
X0049222Y0019119D01*
X0048579Y0018652D01*
X0048018Y0018090D01*
X0047551Y0017448D01*
X0047190Y0016740D01*
X0046945Y0015985D01*
X0046837Y0015303D01*
X0051366Y0015303D01*
X0051366Y0014303D01*
X0051366Y0015225D02*
X0007465Y0015225D01*
X0008342Y0014226D02*
X0046849Y0014226D01*
X0047073Y0013228D02*
X0008755Y0013228D01*
X0008781Y0012229D02*
X0047515Y0012229D01*
X0052366Y0015225D02*
X0069366Y0015225D01*
X0069366Y0016223D02*
X0056710Y0016223D01*
X0056297Y0017222D02*
X0069366Y0017222D01*
X0069366Y0018220D02*
X0055585Y0018220D01*
X0054314Y0019219D02*
X0069366Y0019219D01*
X0069366Y0020217D02*
X0054502Y0020217D01*
X0055697Y0021216D02*
X0069366Y0021216D01*
X0069366Y0022214D02*
X0056472Y0022214D01*
X0056885Y0023213D02*
X0069366Y0023213D01*
X0069366Y0024211D02*
X0057112Y0024211D01*
X0057112Y0025210D02*
X0069366Y0025210D01*
X0069366Y0026208D02*
X0056962Y0026208D01*
X0056548Y0027207D02*
X0069366Y0027207D01*
X0069366Y0028205D02*
X0055882Y0028205D01*
X0054884Y0029204D02*
X0069366Y0029204D01*
X0069366Y0030202D02*
X0054467Y0030202D01*
X0055682Y0031201D02*
X0069366Y0031201D01*
X0069366Y0032199D02*
X0056466Y0032199D01*
X0056879Y0033198D02*
X0069366Y0033198D01*
X0069366Y0034196D02*
X0057112Y0034196D01*
X0057112Y0035195D02*
X0069366Y0035195D01*
X0069366Y0036193D02*
X0056968Y0036193D01*
X0056555Y0037192D02*
X0069366Y0037192D01*
X0069366Y0038191D02*
X0055897Y0038191D01*
X0054899Y0039189D02*
X0069366Y0039189D01*
X0069366Y0040188D02*
X0054431Y0040188D01*
X0055668Y0041186D02*
X0069366Y0041186D01*
X0069366Y0042185D02*
X0056459Y0042185D01*
X0056873Y0043183D02*
X0069366Y0043183D01*
X0069366Y0044182D02*
X0057112Y0044182D01*
X0057112Y0045180D02*
X0069366Y0045180D01*
X0069366Y0046179D02*
X0056974Y0046179D01*
X0056561Y0047177D02*
X0069366Y0047177D01*
X0069366Y0048176D02*
X0055912Y0048176D01*
X0054914Y0049174D02*
X0069366Y0049174D01*
X0069366Y0050173D02*
X0010981Y0050173D01*
X0011143Y0049781D02*
X0010618Y0051049D01*
X0009647Y0052019D01*
X0008379Y0052544D01*
X0007007Y0052544D01*
X0005739Y0052019D01*
X0004768Y0051049D01*
X0004243Y0049781D01*
X0004243Y0048408D01*
X0004768Y0047140D01*
X0005739Y0046170D01*
X0007007Y0045644D01*
X0008379Y0045644D01*
X0009647Y0046170D01*
X0010618Y0047140D01*
X0011143Y0048408D01*
X0011143Y0049781D01*
X0011143Y0049174D02*
X0048819Y0049174D01*
X0047820Y0048176D02*
X0011047Y0048176D01*
X0010633Y0047177D02*
X0047172Y0047177D01*
X0046758Y0046179D02*
X0009656Y0046179D01*
X0005730Y0046179D02*
X0003500Y0046179D01*
X0003500Y0047177D02*
X0004753Y0047177D01*
X0004339Y0048176D02*
X0003500Y0048176D01*
X0003500Y0049174D02*
X0004243Y0049174D01*
X0004405Y0050173D02*
X0003500Y0050173D01*
X0003500Y0051171D02*
X0004891Y0051171D01*
X0006102Y0052170D02*
X0003500Y0052170D01*
X0003500Y0053168D02*
X0069366Y0053168D01*
X0069366Y0054167D02*
X0003500Y0054167D01*
X0009284Y0052170D02*
X0069366Y0052170D01*
X0069366Y0051171D02*
X0010495Y0051171D01*
X0003500Y0045180D02*
X0046620Y0045180D01*
X0046620Y0044182D02*
X0028457Y0044182D01*
X0028545Y0044145D02*
X0027277Y0044670D01*
X0025904Y0044670D01*
X0024636Y0044145D01*
X0023666Y0043175D01*
X0023141Y0041907D01*
X0023141Y0040534D01*
X0023666Y0039266D01*
X0024636Y0038296D01*
X0025904Y0037770D01*
X0027277Y0037770D01*
X0028545Y0038296D01*
X0029515Y0039266D01*
X0030041Y0040534D01*
X0030041Y0041907D01*
X0029515Y0043175D01*
X0028545Y0044145D01*
X0029507Y0043183D02*
X0046859Y0043183D01*
X0047273Y0042185D02*
X0029925Y0042185D01*
X0030041Y0041186D02*
X0048065Y0041186D01*
X0049302Y0040188D02*
X0029897Y0040188D01*
X0029438Y0039189D02*
X0048834Y0039189D01*
X0047835Y0038191D02*
X0028291Y0038191D01*
X0024890Y0038191D02*
X0003500Y0038191D01*
X0003500Y0039189D02*
X0023743Y0039189D01*
X0023284Y0040188D02*
X0003500Y0040188D01*
X0003500Y0041186D02*
X0023141Y0041186D01*
X0023256Y0042185D02*
X0003500Y0042185D01*
X0003500Y0043183D02*
X0023674Y0043183D01*
X0024724Y0044182D02*
X0003500Y0044182D01*
X0003500Y0037192D02*
X0047178Y0037192D01*
X0046764Y0036193D02*
X0003500Y0036193D01*
X0003500Y0035195D02*
X0046620Y0035195D01*
X0046620Y0034196D02*
X0003500Y0034196D01*
X0003500Y0033198D02*
X0046853Y0033198D01*
X0047267Y0032199D02*
X0003500Y0032199D01*
X0003500Y0031201D02*
X0048050Y0031201D01*
X0049266Y0030202D02*
X0003500Y0030202D01*
X0003500Y0029204D02*
X0048848Y0029204D01*
X0047850Y0028205D02*
X0003500Y0028205D01*
X0003500Y0027207D02*
X0047184Y0027207D01*
X0046770Y0026208D02*
X0003500Y0026208D01*
X0003500Y0025210D02*
X0046620Y0025210D01*
X0046620Y0024211D02*
X0003500Y0024211D01*
X0003500Y0023213D02*
X0031726Y0023213D01*
X0032204Y0023411D02*
X0030935Y0022885D01*
X0029965Y0021915D01*
X0029440Y0020647D01*
X0029440Y0019274D01*
X0029965Y0018006D01*
X0030935Y0017036D01*
X0032204Y0016511D01*
X0033576Y0016511D01*
X0034844Y0017036D01*
X0035815Y0018006D01*
X0036340Y0019274D01*
X0036340Y0020647D01*
X0035815Y0021915D01*
X0034844Y0022885D01*
X0033576Y0023411D01*
X0032204Y0023411D01*
X0034054Y0023213D02*
X0046847Y0023213D01*
X0047261Y0022214D02*
X0035515Y0022214D01*
X0036104Y0021216D02*
X0048035Y0021216D01*
X0049230Y0020217D02*
X0036340Y0020217D01*
X0036317Y0019219D02*
X0049418Y0019219D01*
X0048148Y0018220D02*
X0035903Y0018220D01*
X0035030Y0017222D02*
X0047436Y0017222D01*
X0047022Y0016223D02*
X0003500Y0016223D01*
X0003500Y0017222D02*
X0030750Y0017222D01*
X0029876Y0018220D02*
X0003500Y0018220D01*
X0003500Y0019219D02*
X0029463Y0019219D01*
X0029440Y0020217D02*
X0003500Y0020217D01*
X0003500Y0021216D02*
X0029675Y0021216D01*
X0030264Y0022214D02*
X0003500Y0022214D01*
X0055429Y0011231D02*
X0069366Y0011231D01*
X0069366Y0012229D02*
X0056218Y0012229D01*
X0056660Y0013228D02*
X0069366Y0013228D01*
X0069366Y0014226D02*
X0056883Y0014226D01*
M02*
