G75*
%MOIN*%
%OFA0B0*%
%FSLAX25Y25*%
%IPPOS*%
%LPD*%
%AMOC8*
5,1,8,0,0,1.08239X$1,22.5*
%
%ADD10C,0.07091*%
%ADD11C,0.03500*%
%ADD12C,0.01000*%
D10*
X0051866Y0014803D03*
X0051866Y0024803D03*
X0051866Y0034803D03*
X0051866Y0044803D03*
D11*
X0042732Y0039252D03*
X0026591Y0041220D03*
X0025803Y0052638D03*
X0007693Y0049094D03*
X0032890Y0019961D03*
X0021866Y0010512D03*
X0005331Y0012480D03*
X0045094Y0007362D03*
D12*
X0003500Y0004744D02*
X0003500Y0054862D01*
X0023149Y0054862D01*
X0022878Y0054592D01*
X0022353Y0053324D01*
X0022353Y0051952D01*
X0022878Y0050684D01*
X0023849Y0049713D01*
X0025117Y0049188D01*
X0026489Y0049188D01*
X0027757Y0049713D01*
X0028728Y0050684D01*
X0029253Y0051952D01*
X0029253Y0053324D01*
X0028728Y0054592D01*
X0028458Y0054862D01*
X0069366Y0054862D01*
X0069366Y0004744D01*
X0003500Y0004744D01*
X0003500Y0005240D02*
X0069366Y0005240D01*
X0069366Y0006238D02*
X0003500Y0006238D01*
X0003500Y0007237D02*
X0020758Y0007237D01*
X0021180Y0007062D02*
X0022552Y0007062D01*
X0023820Y0007587D01*
X0024791Y0008558D01*
X0025316Y0009826D01*
X0025316Y0011198D01*
X0024791Y0012466D01*
X0023820Y0013437D01*
X0022552Y0013962D01*
X0021180Y0013962D01*
X0019912Y0013437D01*
X0018941Y0012466D01*
X0018416Y0011198D01*
X0018416Y0009826D01*
X0018941Y0008558D01*
X0019912Y0007587D01*
X0021180Y0007062D01*
X0019264Y0008235D02*
X0003500Y0008235D01*
X0003500Y0009234D02*
X0018661Y0009234D01*
X0018416Y0010232D02*
X0003500Y0010232D01*
X0003500Y0011231D02*
X0018430Y0011231D01*
X0018843Y0012229D02*
X0003500Y0012229D01*
X0003500Y0013228D02*
X0019703Y0013228D01*
X0024029Y0013228D02*
X0046841Y0013228D01*
X0046620Y0013760D02*
X0047419Y0011832D01*
X0048895Y0010356D01*
X0050823Y0009557D01*
X0052910Y0009557D01*
X0054838Y0010356D01*
X0056313Y0011832D01*
X0057112Y0013760D01*
X0057112Y0015847D01*
X0056313Y0017775D01*
X0054838Y0019250D01*
X0053503Y0019803D01*
X0054838Y0020356D01*
X0056313Y0021832D01*
X0057112Y0023760D01*
X0057112Y0025847D01*
X0056313Y0027775D01*
X0054838Y0029250D01*
X0053503Y0029803D01*
X0054838Y0030356D01*
X0056313Y0031832D01*
X0057112Y0033760D01*
X0057112Y0035847D01*
X0056313Y0037775D01*
X0054838Y0039250D01*
X0053196Y0039930D01*
X0053803Y0040127D01*
X0054511Y0040488D01*
X0055153Y0040955D01*
X0055715Y0041516D01*
X0056182Y0042159D01*
X0056542Y0042866D01*
X0056788Y0043622D01*
X0056895Y0044303D01*
X0052366Y0044303D01*
X0052366Y0045303D01*
X0056895Y0045303D01*
X0056788Y0045985D01*
X0056542Y0046740D01*
X0056182Y0047448D01*
X0055715Y0048090D01*
X0055153Y0048652D01*
X0054511Y0049119D01*
X0053803Y0049479D01*
X0053048Y0049725D01*
X0052366Y0049833D01*
X0052366Y0045303D01*
X0051366Y0045303D01*
X0051366Y0044303D01*
X0046837Y0044303D01*
X0046945Y0043622D01*
X0047190Y0042866D01*
X0047551Y0042159D01*
X0048018Y0041516D01*
X0048579Y0040955D01*
X0049222Y0040488D01*
X0049929Y0040127D01*
X0050536Y0039930D01*
X0048895Y0039250D01*
X0047419Y0037775D01*
X0046620Y0035847D01*
X0046620Y0033760D01*
X0047419Y0031832D01*
X0048895Y0030356D01*
X0050230Y0029803D01*
X0048895Y0029250D01*
X0047419Y0027775D01*
X0046620Y0025847D01*
X0046620Y0023760D01*
X0047419Y0021832D01*
X0048895Y0020356D01*
X0050230Y0019803D01*
X0048895Y0019250D01*
X0047419Y0017775D01*
X0046620Y0015847D01*
X0046620Y0013760D01*
X0046620Y0014226D02*
X0003500Y0014226D01*
X0003500Y0015225D02*
X0046620Y0015225D01*
X0046777Y0016223D02*
X0003500Y0016223D01*
X0003500Y0017222D02*
X0030750Y0017222D01*
X0030935Y0017036D02*
X0032204Y0016511D01*
X0033576Y0016511D01*
X0034844Y0017036D01*
X0035815Y0018006D01*
X0036340Y0019274D01*
X0036340Y0020647D01*
X0035815Y0021915D01*
X0034844Y0022885D01*
X0033576Y0023411D01*
X0032204Y0023411D01*
X0030935Y0022885D01*
X0029965Y0021915D01*
X0029440Y0020647D01*
X0029440Y0019274D01*
X0029965Y0018006D01*
X0030935Y0017036D01*
X0029876Y0018220D02*
X0003500Y0018220D01*
X0003500Y0019219D02*
X0029463Y0019219D01*
X0029440Y0020217D02*
X0003500Y0020217D01*
X0003500Y0021216D02*
X0029675Y0021216D01*
X0030264Y0022214D02*
X0003500Y0022214D01*
X0003500Y0023213D02*
X0031726Y0023213D01*
X0034054Y0023213D02*
X0046847Y0023213D01*
X0047261Y0022214D02*
X0035515Y0022214D01*
X0036104Y0021216D02*
X0048035Y0021216D01*
X0049230Y0020217D02*
X0036340Y0020217D01*
X0036317Y0019219D02*
X0048863Y0019219D01*
X0047865Y0018220D02*
X0035903Y0018220D01*
X0035030Y0017222D02*
X0047190Y0017222D01*
X0047254Y0012229D02*
X0024889Y0012229D01*
X0025303Y0011231D02*
X0048020Y0011231D01*
X0049194Y0010232D02*
X0025316Y0010232D01*
X0025071Y0009234D02*
X0069366Y0009234D01*
X0069366Y0008235D02*
X0024469Y0008235D01*
X0022974Y0007237D02*
X0069366Y0007237D01*
X0069366Y0010232D02*
X0054538Y0010232D01*
X0055712Y0011231D02*
X0069366Y0011231D01*
X0069366Y0012229D02*
X0056478Y0012229D01*
X0056891Y0013228D02*
X0069366Y0013228D01*
X0069366Y0014226D02*
X0057112Y0014226D01*
X0057112Y0015225D02*
X0069366Y0015225D01*
X0069366Y0016223D02*
X0056956Y0016223D01*
X0056542Y0017222D02*
X0069366Y0017222D01*
X0069366Y0018220D02*
X0055867Y0018220D01*
X0054869Y0019219D02*
X0069366Y0019219D01*
X0069366Y0020217D02*
X0054502Y0020217D01*
X0055697Y0021216D02*
X0069366Y0021216D01*
X0069366Y0022214D02*
X0056472Y0022214D01*
X0056885Y0023213D02*
X0069366Y0023213D01*
X0069366Y0024211D02*
X0057112Y0024211D01*
X0057112Y0025210D02*
X0069366Y0025210D01*
X0069366Y0026208D02*
X0056962Y0026208D01*
X0056548Y0027207D02*
X0069366Y0027207D01*
X0069366Y0028205D02*
X0055882Y0028205D01*
X0054884Y0029204D02*
X0069366Y0029204D01*
X0069366Y0030202D02*
X0054467Y0030202D01*
X0055682Y0031201D02*
X0069366Y0031201D01*
X0069366Y0032199D02*
X0056466Y0032199D01*
X0056879Y0033198D02*
X0069366Y0033198D01*
X0069366Y0034196D02*
X0057112Y0034196D01*
X0057112Y0035195D02*
X0069366Y0035195D01*
X0069366Y0036193D02*
X0056968Y0036193D01*
X0056555Y0037192D02*
X0069366Y0037192D01*
X0069366Y0038191D02*
X0055897Y0038191D01*
X0054899Y0039189D02*
X0069366Y0039189D01*
X0069366Y0040188D02*
X0053922Y0040188D01*
X0055385Y0041186D02*
X0069366Y0041186D01*
X0069366Y0042185D02*
X0056195Y0042185D01*
X0056645Y0043183D02*
X0069366Y0043183D01*
X0069366Y0044182D02*
X0056876Y0044182D01*
X0056725Y0046179D02*
X0069366Y0046179D01*
X0069366Y0047177D02*
X0056319Y0047177D01*
X0055629Y0048176D02*
X0069366Y0048176D01*
X0069366Y0049174D02*
X0054402Y0049174D01*
X0052366Y0049174D02*
X0051366Y0049174D01*
X0051366Y0049833D02*
X0050685Y0049725D01*
X0049929Y0049479D01*
X0049222Y0049119D01*
X0048579Y0048652D01*
X0048018Y0048090D01*
X0047551Y0047448D01*
X0047190Y0046740D01*
X0046945Y0045985D01*
X0046837Y0045303D01*
X0051366Y0045303D01*
X0051366Y0049833D01*
X0051366Y0048176D02*
X0052366Y0048176D01*
X0052366Y0047177D02*
X0051366Y0047177D01*
X0051366Y0046179D02*
X0052366Y0046179D01*
X0052366Y0045180D02*
X0069366Y0045180D01*
X0069366Y0050173D02*
X0028217Y0050173D01*
X0028930Y0051171D02*
X0069366Y0051171D01*
X0069366Y0052170D02*
X0029253Y0052170D01*
X0029253Y0053168D02*
X0069366Y0053168D01*
X0069366Y0054167D02*
X0028904Y0054167D01*
X0022702Y0054167D02*
X0003500Y0054167D01*
X0003500Y0053168D02*
X0022353Y0053168D01*
X0022353Y0052170D02*
X0003500Y0052170D01*
X0003500Y0051171D02*
X0022676Y0051171D01*
X0023389Y0050173D02*
X0003500Y0050173D01*
X0003500Y0049174D02*
X0049331Y0049174D01*
X0048103Y0048176D02*
X0003500Y0048176D01*
X0003500Y0047177D02*
X0047413Y0047177D01*
X0047008Y0046179D02*
X0003500Y0046179D01*
X0003500Y0045180D02*
X0051366Y0045180D01*
X0047537Y0042185D02*
X0044668Y0042185D01*
X0044687Y0042177D02*
X0043419Y0042702D01*
X0042046Y0042702D01*
X0040778Y0042177D01*
X0039808Y0041206D01*
X0039282Y0039938D01*
X0039282Y0038566D01*
X0039808Y0037298D01*
X0040778Y0036327D01*
X0042046Y0035802D01*
X0043419Y0035802D01*
X0044687Y0036327D01*
X0045657Y0037298D01*
X0046182Y0038566D01*
X0046182Y0039938D01*
X0045657Y0041206D01*
X0044687Y0042177D01*
X0045665Y0041186D02*
X0048348Y0041186D01*
X0049811Y0040188D02*
X0046079Y0040188D01*
X0046182Y0039189D02*
X0048834Y0039189D01*
X0047835Y0038191D02*
X0046027Y0038191D01*
X0045551Y0037192D02*
X0047178Y0037192D01*
X0046764Y0036193D02*
X0044364Y0036193D01*
X0046620Y0035195D02*
X0003500Y0035195D01*
X0003500Y0036193D02*
X0041101Y0036193D01*
X0039913Y0037192D02*
X0003500Y0037192D01*
X0003500Y0038191D02*
X0024890Y0038191D01*
X0024636Y0038296D02*
X0025904Y0037770D01*
X0027277Y0037770D01*
X0028545Y0038296D01*
X0029515Y0039266D01*
X0030041Y0040534D01*
X0030041Y0041907D01*
X0029515Y0043175D01*
X0028545Y0044145D01*
X0027277Y0044670D01*
X0025904Y0044670D01*
X0024636Y0044145D01*
X0023666Y0043175D01*
X0023141Y0041907D01*
X0023141Y0040534D01*
X0023666Y0039266D01*
X0024636Y0038296D01*
X0023743Y0039189D02*
X0003500Y0039189D01*
X0003500Y0040188D02*
X0023284Y0040188D01*
X0023141Y0041186D02*
X0003500Y0041186D01*
X0003500Y0042185D02*
X0023256Y0042185D01*
X0023674Y0043183D02*
X0003500Y0043183D01*
X0003500Y0044182D02*
X0024724Y0044182D01*
X0028457Y0044182D02*
X0046856Y0044182D01*
X0047087Y0043183D02*
X0029507Y0043183D01*
X0029925Y0042185D02*
X0040797Y0042185D01*
X0039799Y0041186D02*
X0030041Y0041186D01*
X0029897Y0040188D02*
X0039386Y0040188D01*
X0039282Y0039189D02*
X0029438Y0039189D01*
X0028291Y0038191D02*
X0039438Y0038191D01*
X0046620Y0034196D02*
X0003500Y0034196D01*
X0003500Y0033198D02*
X0046853Y0033198D01*
X0047267Y0032199D02*
X0003500Y0032199D01*
X0003500Y0031201D02*
X0048050Y0031201D01*
X0049266Y0030202D02*
X0003500Y0030202D01*
X0003500Y0029204D02*
X0048848Y0029204D01*
X0047850Y0028205D02*
X0003500Y0028205D01*
X0003500Y0027207D02*
X0047184Y0027207D01*
X0046770Y0026208D02*
X0003500Y0026208D01*
X0003500Y0025210D02*
X0046620Y0025210D01*
X0046620Y0024211D02*
X0003500Y0024211D01*
M02*
