G75*
G70*
%OFA0B0*%
%FSLAX25Y25*%
%IPPOS*%
%LPD*%
%AMOC8*
5,1,8,0,0,1.08239X$1,22.5*
%
%ADD821C,0.00000*%
X0000000Y0000000D02*
G75*
%LPD*%
D258*
X0000000Y0000000D02*
X0000000Y0393701D01*
X0500000Y0393701D01*
X0500000Y0000000D01*
X0000000Y0000000D01*
X0506100Y0000000D02*
G75*
%LPD*%
D258*
X0521848Y0000000D02*
X0746257Y0000000D01*
X0746638Y0000005D01*
X0747018Y0000018D01*
X0747398Y0000041D01*
X0747777Y0000074D01*
X0748155Y0000115D01*
X0748532Y0000165D01*
X0748908Y0000225D01*
X0749283Y0000293D01*
X0749655Y0000371D01*
X0750026Y0000458D01*
X0750394Y0000553D01*
X0750760Y0000658D01*
X0751123Y0000771D01*
X0751484Y0000893D01*
X0751841Y0001023D01*
X0752195Y0001163D01*
X0752546Y0001310D01*
X0752893Y0001467D01*
X0753236Y0001631D01*
X0753575Y0001804D01*
X0753910Y0001985D01*
X0754241Y0002174D01*
X0754566Y0002371D01*
X0754887Y0002575D01*
X0755203Y0002788D01*
X0755513Y0003008D01*
X0755819Y0003235D01*
X0756118Y0003470D01*
X0756412Y0003712D01*
X0756700Y0003960D01*
X0756982Y0004216D01*
X0757257Y0004479D01*
X0757526Y0004748D01*
X0757789Y0005023D01*
X0758045Y0005305D01*
X0758293Y0005593D01*
X0758535Y0005887D01*
X0758770Y0006186D01*
X0758997Y0006492D01*
X0759217Y0006802D01*
X0759430Y0007118D01*
X0759634Y0007439D01*
X0759831Y0007764D01*
X0760020Y0008095D01*
X0760201Y0008430D01*
X0760374Y0008769D01*
X0760538Y0009112D01*
X0760695Y0009459D01*
X0760842Y0009810D01*
X0760982Y0010164D01*
X0761112Y0010521D01*
X0761234Y0010882D01*
X0761347Y0011245D01*
X0761452Y0011611D01*
X0761547Y0011979D01*
X0761634Y0012350D01*
X0761712Y0012722D01*
X0761780Y0013097D01*
X0761840Y0013473D01*
X0761890Y0013850D01*
X0761931Y0014228D01*
X0761964Y0014607D01*
X0761987Y0014987D01*
X0762000Y0015367D01*
X0762005Y0015748D01*
X0762006Y0015748D02*
X0762006Y0228346D01*
X0762005Y0228346D02*
X0762000Y0228727D01*
X0761987Y0229107D01*
X0761964Y0229487D01*
X0761931Y0229866D01*
X0761890Y0230244D01*
X0761840Y0230621D01*
X0761780Y0230997D01*
X0761712Y0231372D01*
X0761634Y0231744D01*
X0761547Y0232115D01*
X0761452Y0232483D01*
X0761347Y0232849D01*
X0761234Y0233212D01*
X0761112Y0233573D01*
X0760982Y0233930D01*
X0760842Y0234284D01*
X0760695Y0234635D01*
X0760538Y0234982D01*
X0760374Y0235325D01*
X0760201Y0235664D01*
X0760020Y0235999D01*
X0759831Y0236330D01*
X0759634Y0236655D01*
X0759430Y0236976D01*
X0759217Y0237292D01*
X0758997Y0237602D01*
X0758770Y0237908D01*
X0758535Y0238207D01*
X0758293Y0238501D01*
X0758045Y0238789D01*
X0757789Y0239071D01*
X0757526Y0239346D01*
X0757257Y0239615D01*
X0756982Y0239878D01*
X0756700Y0240134D01*
X0756412Y0240382D01*
X0756118Y0240624D01*
X0755819Y0240859D01*
X0755513Y0241086D01*
X0755203Y0241306D01*
X0754887Y0241519D01*
X0754566Y0241723D01*
X0754241Y0241920D01*
X0753910Y0242109D01*
X0753575Y0242290D01*
X0753236Y0242463D01*
X0752893Y0242627D01*
X0752546Y0242784D01*
X0752195Y0242931D01*
X0751841Y0243071D01*
X0751484Y0243201D01*
X0751123Y0243323D01*
X0750760Y0243436D01*
X0750394Y0243541D01*
X0750026Y0243636D01*
X0749655Y0243723D01*
X0749283Y0243801D01*
X0748908Y0243869D01*
X0748532Y0243929D01*
X0748155Y0243979D01*
X0747777Y0244020D01*
X0747398Y0244053D01*
X0747018Y0244076D01*
X0746638Y0244089D01*
X0746257Y0244094D01*
X0521848Y0244094D01*
X0521467Y0244089D01*
X0521087Y0244076D01*
X0520707Y0244053D01*
X0520328Y0244020D01*
X0519950Y0243979D01*
X0519573Y0243929D01*
X0519197Y0243869D01*
X0518822Y0243801D01*
X0518450Y0243723D01*
X0518079Y0243636D01*
X0517711Y0243541D01*
X0517345Y0243436D01*
X0516982Y0243323D01*
X0516621Y0243201D01*
X0516264Y0243071D01*
X0515910Y0242931D01*
X0515559Y0242784D01*
X0515212Y0242627D01*
X0514869Y0242463D01*
X0514530Y0242290D01*
X0514195Y0242109D01*
X0513864Y0241920D01*
X0513539Y0241723D01*
X0513218Y0241519D01*
X0512902Y0241306D01*
X0512592Y0241086D01*
X0512286Y0240859D01*
X0511987Y0240624D01*
X0511693Y0240382D01*
X0511405Y0240134D01*
X0511123Y0239878D01*
X0510848Y0239615D01*
X0510579Y0239346D01*
X0510316Y0239071D01*
X0510060Y0238789D01*
X0509812Y0238501D01*
X0509570Y0238207D01*
X0509335Y0237908D01*
X0509108Y0237602D01*
X0508888Y0237292D01*
X0508675Y0236976D01*
X0508471Y0236655D01*
X0508274Y0236330D01*
X0508085Y0235999D01*
X0507904Y0235664D01*
X0507731Y0235325D01*
X0507567Y0234982D01*
X0507410Y0234635D01*
X0507263Y0234284D01*
X0507123Y0233930D01*
X0506993Y0233573D01*
X0506871Y0233212D01*
X0506758Y0232849D01*
X0506653Y0232483D01*
X0506558Y0232115D01*
X0506471Y0231744D01*
X0506393Y0231372D01*
X0506325Y0230997D01*
X0506265Y0230621D01*
X0506215Y0230244D01*
X0506174Y0229866D01*
X0506141Y0229487D01*
X0506118Y0229107D01*
X0506105Y0228727D01*
X0506100Y0228346D01*
X0506100Y0015748D01*
X0506105Y0015367D01*
X0506118Y0014987D01*
X0506141Y0014607D01*
X0506174Y0014228D01*
X0506215Y0013850D01*
X0506265Y0013473D01*
X0506325Y0013097D01*
X0506393Y0012722D01*
X0506471Y0012350D01*
X0506558Y0011979D01*
X0506653Y0011611D01*
X0506758Y0011245D01*
X0506871Y0010882D01*
X0506993Y0010521D01*
X0507123Y0010164D01*
X0507263Y0009810D01*
X0507410Y0009459D01*
X0507567Y0009112D01*
X0507731Y0008769D01*
X0507904Y0008430D01*
X0508085Y0008095D01*
X0508274Y0007764D01*
X0508471Y0007439D01*
X0508675Y0007118D01*
X0508888Y0006802D01*
X0509108Y0006492D01*
X0509335Y0006186D01*
X0509570Y0005887D01*
X0509812Y0005593D01*
X0510060Y0005305D01*
X0510316Y0005023D01*
X0510579Y0004748D01*
X0510848Y0004479D01*
X0511123Y0004216D01*
X0511405Y0003960D01*
X0511693Y0003712D01*
X0511987Y0003470D01*
X0512286Y0003235D01*
X0512592Y0003008D01*
X0512902Y0002788D01*
X0513218Y0002575D01*
X0513539Y0002371D01*
X0513864Y0002174D01*
X0514195Y0001985D01*
X0514530Y0001804D01*
X0514869Y0001631D01*
X0515212Y0001467D01*
X0515559Y0001310D01*
X0515910Y0001163D01*
X0516264Y0001023D01*
X0516621Y0000893D01*
X0516982Y0000771D01*
X0517345Y0000658D01*
X0517711Y0000553D01*
X0518079Y0000458D01*
X0518450Y0000371D01*
X0518822Y0000293D01*
X0519197Y0000225D01*
X0519573Y0000165D01*
X0519950Y0000115D01*
X0520328Y0000074D01*
X0520707Y0000041D01*
X0521087Y0000018D01*
X0521467Y0000005D01*
X0521848Y0000000D01*
X0506100Y0251894D02*
G75*
%LPD*%
D258*
X0519880Y0251895D02*
X0748226Y0251895D01*
X0748226Y0251894D02*
X0748559Y0251898D01*
X0748892Y0251910D01*
X0749224Y0251930D01*
X0749556Y0251958D01*
X0749887Y0251994D01*
X0750217Y0252039D01*
X0750546Y0252091D01*
X0750874Y0252151D01*
X0751200Y0252219D01*
X0751524Y0252294D01*
X0751846Y0252378D01*
X0752166Y0252469D01*
X0752484Y0252568D01*
X0752800Y0252675D01*
X0753112Y0252789D01*
X0753422Y0252911D01*
X0753729Y0253041D01*
X0754033Y0253177D01*
X0754333Y0253321D01*
X0754630Y0253472D01*
X0754923Y0253631D01*
X0755212Y0253796D01*
X0755497Y0253968D01*
X0755778Y0254147D01*
X0756054Y0254333D01*
X0756326Y0254526D01*
X0756593Y0254725D01*
X0756855Y0254930D01*
X0757112Y0255142D01*
X0757364Y0255360D01*
X0757610Y0255583D01*
X0757851Y0255813D01*
X0758087Y0256049D01*
X0758317Y0256290D01*
X0758540Y0256536D01*
X0758758Y0256788D01*
X0758970Y0257045D01*
X0759175Y0257307D01*
X0759374Y0257574D01*
X0759567Y0257846D01*
X0759753Y0258122D01*
X0759932Y0258403D01*
X0760104Y0258688D01*
X0760269Y0258977D01*
X0760428Y0259270D01*
X0760579Y0259567D01*
X0760723Y0259867D01*
X0760859Y0260171D01*
X0760989Y0260478D01*
X0761111Y0260788D01*
X0761225Y0261100D01*
X0761332Y0261416D01*
X0761431Y0261734D01*
X0761522Y0262054D01*
X0761606Y0262376D01*
X0761681Y0262700D01*
X0761749Y0263026D01*
X0761809Y0263354D01*
X0761861Y0263683D01*
X0761906Y0264013D01*
X0761942Y0264344D01*
X0761970Y0264676D01*
X0761990Y0265008D01*
X0762002Y0265341D01*
X0762006Y0265674D01*
X0762006Y0356225D01*
X0762002Y0356558D01*
X0761990Y0356891D01*
X0761970Y0357223D01*
X0761942Y0357555D01*
X0761906Y0357886D01*
X0761861Y0358216D01*
X0761809Y0358545D01*
X0761749Y0358873D01*
X0761681Y0359199D01*
X0761606Y0359523D01*
X0761522Y0359845D01*
X0761431Y0360165D01*
X0761332Y0360483D01*
X0761225Y0360799D01*
X0761111Y0361111D01*
X0760989Y0361421D01*
X0760859Y0361728D01*
X0760723Y0362032D01*
X0760579Y0362332D01*
X0760428Y0362629D01*
X0760269Y0362922D01*
X0760104Y0363211D01*
X0759932Y0363496D01*
X0759753Y0363777D01*
X0759567Y0364053D01*
X0759374Y0364325D01*
X0759175Y0364592D01*
X0758970Y0364854D01*
X0758758Y0365111D01*
X0758540Y0365363D01*
X0758317Y0365609D01*
X0758087Y0365850D01*
X0757851Y0366086D01*
X0757610Y0366316D01*
X0757364Y0366539D01*
X0757112Y0366757D01*
X0756855Y0366969D01*
X0756593Y0367174D01*
X0756326Y0367373D01*
X0756054Y0367566D01*
X0755778Y0367752D01*
X0755497Y0367931D01*
X0755212Y0368103D01*
X0754923Y0368268D01*
X0754630Y0368427D01*
X0754333Y0368578D01*
X0754033Y0368722D01*
X0753729Y0368858D01*
X0753422Y0368988D01*
X0753112Y0369110D01*
X0752800Y0369224D01*
X0752484Y0369331D01*
X0752166Y0369430D01*
X0751846Y0369521D01*
X0751524Y0369605D01*
X0751200Y0369680D01*
X0750874Y0369748D01*
X0750546Y0369808D01*
X0750217Y0369860D01*
X0749887Y0369905D01*
X0749556Y0369941D01*
X0749224Y0369969D01*
X0748892Y0369989D01*
X0748559Y0370001D01*
X0748226Y0370005D01*
X0519880Y0370005D01*
X0519547Y0370001D01*
X0519214Y0369989D01*
X0518882Y0369969D01*
X0518550Y0369941D01*
X0518219Y0369905D01*
X0517889Y0369860D01*
X0517560Y0369808D01*
X0517232Y0369748D01*
X0516906Y0369680D01*
X0516582Y0369605D01*
X0516260Y0369521D01*
X0515940Y0369430D01*
X0515622Y0369331D01*
X0515306Y0369224D01*
X0514994Y0369110D01*
X0514684Y0368988D01*
X0514377Y0368858D01*
X0514073Y0368722D01*
X0513773Y0368578D01*
X0513476Y0368427D01*
X0513183Y0368268D01*
X0512894Y0368103D01*
X0512609Y0367931D01*
X0512328Y0367752D01*
X0512052Y0367566D01*
X0511780Y0367373D01*
X0511513Y0367174D01*
X0511251Y0366969D01*
X0510994Y0366757D01*
X0510742Y0366539D01*
X0510496Y0366316D01*
X0510255Y0366086D01*
X0510019Y0365850D01*
X0509789Y0365609D01*
X0509566Y0365363D01*
X0509348Y0365111D01*
X0509136Y0364854D01*
X0508931Y0364592D01*
X0508732Y0364325D01*
X0508539Y0364053D01*
X0508353Y0363777D01*
X0508174Y0363496D01*
X0508002Y0363211D01*
X0507837Y0362922D01*
X0507678Y0362629D01*
X0507527Y0362332D01*
X0507383Y0362032D01*
X0507247Y0361728D01*
X0507117Y0361421D01*
X0506995Y0361111D01*
X0506881Y0360799D01*
X0506774Y0360483D01*
X0506675Y0360165D01*
X0506584Y0359845D01*
X0506500Y0359523D01*
X0506425Y0359199D01*
X0506357Y0358873D01*
X0506297Y0358545D01*
X0506245Y0358216D01*
X0506200Y0357886D01*
X0506164Y0357555D01*
X0506136Y0357223D01*
X0506116Y0356891D01*
X0506104Y0356558D01*
X0506100Y0356225D01*
X0506100Y0265674D01*
X0506104Y0265341D01*
X0506116Y0265008D01*
X0506136Y0264676D01*
X0506164Y0264344D01*
X0506200Y0264013D01*
X0506245Y0263683D01*
X0506297Y0263354D01*
X0506357Y0263026D01*
X0506425Y0262700D01*
X0506500Y0262376D01*
X0506584Y0262054D01*
X0506675Y0261734D01*
X0506774Y0261416D01*
X0506881Y0261100D01*
X0506995Y0260788D01*
X0507117Y0260478D01*
X0507247Y0260171D01*
X0507383Y0259867D01*
X0507527Y0259567D01*
X0507678Y0259270D01*
X0507837Y0258977D01*
X0508002Y0258688D01*
X0508174Y0258403D01*
X0508353Y0258122D01*
X0508539Y0257846D01*
X0508732Y0257574D01*
X0508931Y0257307D01*
X0509136Y0257045D01*
X0509348Y0256788D01*
X0509566Y0256536D01*
X0509789Y0256290D01*
X0510019Y0256049D01*
X0510255Y0255813D01*
X0510496Y0255583D01*
X0510742Y0255360D01*
X0510994Y0255142D01*
X0511251Y0254930D01*
X0511513Y0254725D01*
X0511780Y0254526D01*
X0512052Y0254333D01*
X0512328Y0254147D01*
X0512609Y0253968D01*
X0512894Y0253796D01*
X0513183Y0253631D01*
X0513476Y0253472D01*
X0513773Y0253321D01*
X0514073Y0253177D01*
X0514377Y0253041D01*
X0514684Y0252911D01*
X0514994Y0252789D01*
X0515306Y0252675D01*
X0515622Y0252568D01*
X0515940Y0252469D01*
X0516260Y0252378D01*
X0516582Y0252294D01*
X0516906Y0252219D01*
X0517232Y0252151D01*
X0517560Y0252091D01*
X0517889Y0252039D01*
X0518219Y0251994D01*
X0518550Y0251958D01*
X0518882Y0251930D01*
X0519214Y0251910D01*
X0519547Y0251898D01*
X0519880Y0251894D01*
M02*
