%
T01C0.080000
X34359Y32050
X39459Y32050
X54907Y14699
X54907Y9599
T02C0.078740
X16739Y6021
T03C0.047240
X665Y23095
X665Y25693
X53720Y25766
X56319Y25766
T04C0.042910
X4846Y33910
X5846Y33910
X6846Y33910
X7846Y33910
X11071Y33949
X12071Y33949
X13071Y33949
X14071Y33949
X17256Y33949
X18256Y33949
X19256Y33949
X20256Y33949
X24268Y33992
X25268Y33992
X26268Y33992
X30417Y33988
X31417Y33988
X32417Y33988
X33417Y33988
X34417Y33988
X38445Y33988
X39445Y33988
X40445Y33988
X41445Y33988
X44622Y34039
X44622Y33039
X44519Y24532
X44519Y23532
X44519Y22532
X44519Y21532
X44519Y20532
X44519Y19532
X44519Y18532
X48338Y15496
X48338Y14496
X48338Y13496
X48338Y12496
X48338Y11496
X44500Y8291
X44500Y7291
X44500Y6291
X44500Y5291
X38110Y4520
X37110Y4520
X36110Y4520
X32441Y4559
X31441Y4559
X30441Y4559
X5362Y12099
X5362Y13099
X2047Y17571
X2047Y18571
X72016Y5362
X71016Y5362
X67960Y5362
X66960Y5362
X63905Y5362
X62905Y5362
X59850Y5362
X58850Y5362
X55874Y5362
X54874Y5362
X52342Y11665
X52342Y12665
X54874Y19047
X55874Y19047
X58850Y19047
X59850Y19047
X62905Y19047
X63905Y19047
X66960Y19047
X67960Y19047
X71016Y19047
X72016Y19047
X57669Y30859
X58669Y30859
X55697Y29863
X55697Y28863
X59913Y28190
X60913Y28190
X60858Y34001
X61858Y34001
X62858Y34001
X59858Y34001
X65201Y35938
X66201Y35938
X67201Y35938
T05C0.040000
X40539Y2469
X41539Y2469
X42539Y2469
X42539Y1469
X41539Y1469
X40539Y1469
X39539Y1469
X38539Y1469
X38539Y2469
X39539Y2469
X37539Y2469
X36539Y2469
X35539Y2469
X34539Y2469
X33539Y2469
X33539Y1469
X34539Y1469
X35539Y1469
X36539Y1469
X37539Y1469
X13803Y1469
X12803Y1469
X12803Y2469
X13803Y2469
X11803Y2469
X10803Y2469
X9803Y2469
X8803Y2469
X7803Y2469
X6803Y2469
X5803Y2469
X4803Y2469
X4803Y1469
X5803Y1469
X6803Y1469
X7803Y1469
X8803Y1469
X9803Y1469
X10803Y1469
X11803Y1469
X3748Y26992
X3748Y28772
X3713Y30094
X3713Y31874
X1153Y31874
X1153Y30094
X1188Y28772
X1188Y26992
X73779Y30682
X75551Y30682
X75551Y28123
X73779Y28123
T06C0.023620
X3110Y13504
X2008Y13504
X19409Y8543
X24842Y9843
X32953Y19370
X34173Y6299
X40827Y6260
X56279Y6575
X63327Y9724
X66201Y8898
X68208Y9626
X70181Y11398
X66201Y12598
X67894Y17677
X74728Y16122
X74728Y14941
X74728Y6673
X74728Y5098
T07C0.015000
X19252Y3268
X20079Y4410
X21023Y4843
X21220Y3071
X19252Y6063
X20275Y6851
X21102Y8465
X21575Y8150
X21142Y9055
X20354Y8898
X17362Y11772
X18189Y12795
X17519Y14764
X17126Y15158
X15472Y15669
X15393Y16378
X14567Y14764
X15275Y14370
X14960Y13937
X14606Y13110
X13228Y13386
X12086Y13622
X11653Y13032
X11771Y14567
X12441Y14488
X12086Y15197
X8897Y17126
X8425Y19055
X7519Y20512
X7441Y21654
X8937Y21654
X10039Y22835
X11023Y22480
X12913Y22599
X13346Y22362
X14449Y22677
X14803Y22008
X14330Y21142
X13149Y20866
X13622Y19961
X15393Y19095
X15787Y18780
X16142Y19725
X16614Y20276
X16417Y22008
X16732Y22559
X17126Y22087
X16968Y23465
X17205Y23858
X17638Y23504
X17716Y25158
X17165Y25473
X17008Y26339
X16417Y26181
X15748Y26339
X15748Y27717
X17323Y27126
X18504Y26181
X19330Y25630
X20039Y26457
X21693Y26299
X22047Y25394
X22913Y25394
X22480Y24567
X22913Y24095
X22874Y23622
X23228Y23268
X22716Y22284
X21771Y21851
X20787Y23071
X20945Y23977
X20354Y24331
X19409Y22756
X19409Y21851
X19882Y21811
X20748Y19331
X20000Y19095
X20590Y18543
X21653Y19016
X22519Y18701
X24055Y19410
X24960Y19488
X25000Y20118
X25039Y20591
X24330Y21181
X25197Y22599
X26181Y22402
X26732Y21102
X26299Y20158
X28189Y18071
X28110Y17638
X29291Y18032
X30039Y18032
X30079Y18701
X30827Y18583
X30315Y17244
X31102Y16024
X31417Y16536
X30748Y15512
X29803Y14725
X29252Y15236
X29409Y15945
X28425Y15512
X28110Y14331
X29567Y13032
X29764Y12362
X30197Y11929
X29685Y11575
X30472Y10748
X31142Y10118
X31653Y9646
X32205Y9055
X33622Y9921
X34370Y10158
X34252Y9410
X35630Y9685
X36299Y9685
X38189Y7244
X39330Y7599
X40551Y7914
X40984Y8898
X41890Y8898
X41771Y9882
X41063Y9882
X40472Y10551
X39606Y10984
X39291Y9843
X38307Y13150
X37519Y12835
X36653Y15669
X36142Y15709
X36142Y16693
X37008Y17914
X37205Y19921
X36614Y22795
X35827Y25039
X36338Y25748
X35157Y25866
X34449Y25000
X33464Y25748
X31890Y24488
X31929Y23307
X30039Y23937
X29685Y22402
X29685Y21536
X27795Y23622
X27519Y25354
X28110Y25354
X28110Y26181
X30039Y25866
X32362Y27992
X32598Y29803
X30551Y29803
X29449Y31063
X27795Y30354
X27638Y31181
X26142Y31575
X24921Y30669
X24134Y31417
X21575Y30236
X21378Y29567
X19606Y31693
X18819Y30433
X18110Y30591
X17598Y30748
X17519Y30315
X18622Y28780
X19016Y28189
X17401Y32677
X14488Y31339
X13307Y30591
X13622Y29921
X10827Y28898
X9764Y27756
X9212Y27205
X9527Y26693
X10472Y27205
X10630Y26693
X10984Y26181
X10354Y25354
X11023Y24725
X11378Y24488
X12126Y25473
X13582Y25788
X14724Y24803
X15512Y24921
X15512Y24134
X18268Y17677
X21653Y16024
X22874Y15197
X23189Y16299
X24055Y17835
X24921Y16063
X25630Y14213
X25275Y12047
X25079Y11575
X24764Y12165
X25472Y10945
X25157Y10591
X26220Y9685
X26890Y10000
X27283Y8386
X28504Y8032
X28976Y7441
X29449Y6851
X29527Y6221
X27519Y5906
X27283Y6536
X26653Y5906
X23661Y6772
X27913Y10197
X31142Y14331
X32362Y14331
X34330Y12323
X32519Y11063
X33071Y10512
X26732Y17205
X25551Y24764
X26299Y27008
X23582Y27008
X33464Y20945
X40393Y21536
X40393Y22559
X40393Y23504
X41023Y25473
X40433Y20512
X41102Y18898
X42519Y14449
X42480Y13504
X42519Y12520
X42519Y11536
X15630Y10709
X14606Y11378
X12598Y11024
X10984Y9528
X10393Y10315
X10079Y7165
X10748Y5984
X11102Y5394
X10748Y5039
X9055Y4331
X7834Y4843
X7913Y6260
X5945Y7599
X5118Y6851
X5551Y5945
X3937Y8465
X3858Y9331
X4645Y10591
X4488Y14055
X1771Y15512
X1496Y11654
X1142Y10788
X1220Y10315
X1142Y8701
X827Y8189
X7756Y14528
X13228Y6693
X14606Y7559
X15079Y7914
X15393Y5827
X15079Y5197
X14370Y4488
X2795Y22835
X5118Y27244
X6142Y27638
X6535Y29291
X5708Y30158
X6063Y30473
X6456Y30748
X9449Y29961
X7323Y25669
X57145Y26489
X58445Y25780
X57303Y27473
X57027Y27709
X57342Y27867
X58051Y27788
X58090Y28733
X59114Y29205
X59547Y29481
X59114Y29796
X58642Y29796
X58169Y29796
X57460Y29757
X57106Y29757
X57264Y30071
X55177Y31174
X55177Y31528
X53563Y31528
X53563Y31174
X52854Y31174
X52027Y31174
X53838Y30347
X51712Y29678
X51949Y29008
X52342Y28300
X54153Y27434
X54508Y27434
X54862Y27434
X60571Y30938
X61831Y30229
X63090Y30150
X63445Y30150
X63405Y31095
X64547Y31489
X63484Y32631
X64035Y33221
X64586Y33654
X65531Y33851
X66201Y33221
X66791Y33064
X66634Y32631
X66358Y31883
X66516Y31095
X66476Y30505
X68602Y31646
X70098Y31253
X70649Y30505
X71752Y30820
X72815Y29678
X72736Y29087
X75728Y29323
X74508Y30977
X75216Y31331
X73523Y31961
X71988Y32709
X70138Y31961
X70019Y33890
X68681Y34599
X67736Y34953
X68208Y33890
X65689Y34914
X63287Y36568
X61791Y36568
X60886Y36568
X59980Y36568
X59075Y36568
X57421Y34442
X60334Y32906
X62224Y32316
X64547Y32867
X65256Y32985
X69685Y29599
X68681Y28851
X67894Y28851
X68563Y28182
X69350Y28182
X66004Y28890
X65256Y28851
X63760Y28103
X64468Y26922
X63563Y26646
X64232Y25623
X62736Y25623
X65807Y25623
X69311Y25623
X70768Y25741
X73130Y26371
X72736Y27197
X74468Y33339
X75256Y33221
X75728Y34442
X73642Y36528
X53622Y34245
X53307Y34048
X53622Y33851
X52185Y33615
X51122Y33221
T08C0.108270
X1575Y1575
X1575Y37795
X48425Y37795
X48425Y1575
X52185Y1575
X52185Y22835
X74626Y22835
X74626Y1575
X51988Y26568
X74823Y26568
X74823Y35623
T09C0.094490
X27741Y2872
T10C0.090000
X41359Y27150
X32559Y21850
X41359Y16550
X59807Y16599
X65107Y7799
X70407Y16599
T11C0.196850
X61378Y6083
X61378Y18327
T12C0.040160
X68067Y26898
X67067Y26898
X67067Y25898
X68067Y25898
X63169Y28497
X62421Y28930
X60453Y29875
X56279Y27788
X52185Y34678
T13C0.039370
X53905Y35123
X54905Y35123
X55905Y35123
X56905Y35123
X57905Y35123
X57905Y36123
X56905Y36123
X55905Y36123
X54905Y36123
X53905Y36123
X71905Y36123
X72905Y36123
X72905Y35123
X71905Y35123
X71905Y34123
X72905Y34123
M30
