%
T01C0.108270
X10463Y1408
X10463Y24243
X1408Y24243
X10463Y27779
X10463Y50614
X1408Y50614
X23054Y1408
X23054Y24243
X13999Y24243
X23054Y27779
X23054Y50614
X13999Y50614
X35645Y1408
X35645Y24243
X26590Y24243
X35645Y27779
X35645Y50614
X26590Y50614
X48236Y1408
X48236Y24243
X39181Y24243
X48236Y27779
X48236Y50614
X39181Y50614
T02C0.047240
X11265Y3140
X11265Y5739
X11265Y29511
X11265Y32110
X23856Y3140
X23856Y5739
X23856Y29511
X23856Y32110
X36447Y3140
X36447Y5739
X36447Y29511
X36447Y32110
X49038Y3140
X49038Y5739
X49038Y29511
X49038Y32110
T03C0.042910
X6172Y7089
X6172Y8089
X7168Y5117
X8168Y5117
X8841Y9333
X8841Y10333
X3030Y10278
X3030Y11278
X3030Y12278
X3030Y9278
X1093Y14621
X1093Y15621
X1093Y16621
X6172Y33460
X6172Y34460
X7168Y31488
X8168Y31488
X8841Y35704
X8841Y36704
X3030Y36649
X3030Y37649
X3030Y38649
X3030Y35649
X1093Y40992
X1093Y41992
X1093Y42992
X18763Y7089
X18763Y8089
X19759Y5117
X20759Y5117
X21432Y9333
X21432Y10333
X15621Y10278
X15621Y11278
X15621Y12278
X15621Y9278
X13684Y14621
X13684Y15621
X13684Y16621
X18763Y33460
X18763Y34460
X19759Y31488
X20759Y31488
X21432Y35704
X21432Y36704
X15621Y36649
X15621Y37649
X15621Y38649
X15621Y35649
X13684Y40992
X13684Y41992
X13684Y42992
X31354Y7089
X31354Y8089
X32350Y5117
X33350Y5117
X34023Y9333
X34023Y10333
X28212Y10278
X28212Y11278
X28212Y12278
X28212Y9278
X26275Y14621
X26275Y15621
X26275Y16621
X31354Y33460
X31354Y34460
X32350Y31488
X33350Y31488
X34023Y35704
X34023Y36704
X28212Y36649
X28212Y37649
X28212Y38649
X28212Y35649
X26275Y40992
X26275Y41992
X26275Y42992
X43945Y7089
X43945Y8089
X44941Y5117
X45941Y5117
X46614Y9333
X46614Y10333
X40803Y10278
X40803Y11278
X40803Y12278
X40803Y9278
X38866Y14621
X38866Y15621
X38866Y16621
X43945Y33460
X43945Y34460
X44941Y31488
X45941Y31488
X46614Y35704
X46614Y36704
X40803Y36649
X40803Y37649
X40803Y38649
X40803Y35649
X38866Y40992
X38866Y41992
X38866Y42992
X55481Y4286
X55481Y3286
X55481Y2286
X55481Y1286
X55481Y10577
X55481Y9577
X55481Y8577
X55481Y7577
X55481Y16869
X55481Y15869
X55481Y14869
X55481Y13869
X55481Y23161
X55481Y22161
X55481Y21161
X55481Y20161
X55481Y29453
X55481Y28453
X55481Y27453
X55481Y26453
X55481Y35745
X55481Y34745
X55481Y33745
X55481Y32745
X55481Y42036
X55481Y41036
X55481Y40036
X55481Y39036
X55481Y48328
X55481Y47328
X55481Y46328
X55481Y45328
T04C0.040160
X10133Y17487
X10133Y16487
X11133Y16487
X11133Y17487
X8534Y12589
X8101Y11841
X7156Y9873
X9243Y5699
X2353Y1605
X10133Y43858
X10133Y42858
X11133Y42858
X11133Y43858
X8534Y38960
X8101Y38212
X7156Y36244
X9243Y32070
X2353Y27976
X22724Y17487
X22724Y16487
X23724Y16487
X23724Y17487
X21125Y12589
X20692Y11841
X19747Y9873
X21834Y5699
X14944Y1605
X22724Y43858
X22724Y42858
X23724Y42858
X23724Y43858
X21125Y38960
X20692Y38212
X19747Y36244
X21834Y32070
X14944Y27976
X35315Y17487
X35315Y16487
X36315Y16487
X36315Y17487
X33716Y12589
X33283Y11841
X32338Y9873
X34425Y5699
X27535Y1605
X35315Y43858
X35315Y42858
X36315Y42858
X36315Y43858
X33716Y38960
X33283Y38212
X32338Y36244
X34425Y32070
X27535Y27976
X47906Y17487
X47906Y16487
X48906Y16487
X48906Y17487
X46307Y12589
X45874Y11841
X44929Y9873
X47016Y5699
X40126Y1605
X47906Y43858
X47906Y42858
X48906Y42858
X48906Y43858
X46307Y38960
X45874Y38212
X44929Y36244
X47016Y32070
X40126Y27976
T05C0.040000
X6349Y23199
X6349Y24971
X8908Y24971
X8908Y23199
X6349Y49570
X6349Y51342
X8908Y51342
X8908Y49570
X18940Y23199
X18940Y24971
X21499Y24971
X21499Y23199
X18940Y49570
X18940Y51342
X21499Y51342
X21499Y49570
X31531Y23199
X31531Y24971
X34090Y24971
X34090Y23199
X31531Y49570
X31531Y51342
X34090Y51342
X34090Y49570
X44122Y23199
X44122Y24971
X46681Y24971
X46681Y23199
X44122Y49570
X44122Y51342
X46681Y51342
X46681Y49570
T06C0.039370
X1908Y3325
X1908Y4325
X1908Y5325
X1908Y6325
X1908Y7325
X908Y7325
X908Y6325
X908Y5325
X908Y4325
X908Y3325
X908Y21325
X908Y22325
X1908Y22325
X1908Y21325
X2908Y21325
X2908Y22325
X1908Y29696
X1908Y30696
X1908Y31696
X1908Y32696
X1908Y33696
X908Y33696
X908Y32696
X908Y31696
X908Y30696
X908Y29696
X908Y47696
X908Y48696
X1908Y48696
X1908Y47696
X2908Y47696
X2908Y48696
X14499Y3325
X14499Y4325
X14499Y5325
X14499Y6325
X14499Y7325
X13499Y7325
X13499Y6325
X13499Y5325
X13499Y4325
X13499Y3325
X13499Y21325
X13499Y22325
X14499Y22325
X14499Y21325
X15499Y21325
X15499Y22325
X14499Y29696
X14499Y30696
X14499Y31696
X14499Y32696
X14499Y33696
X13499Y33696
X13499Y32696
X13499Y31696
X13499Y30696
X13499Y29696
X13499Y47696
X13499Y48696
X14499Y48696
X14499Y47696
X15499Y47696
X15499Y48696
X27090Y3325
X27090Y4325
X27090Y5325
X27090Y6325
X27090Y7325
X26090Y7325
X26090Y6325
X26090Y5325
X26090Y4325
X26090Y3325
X26090Y21325
X26090Y22325
X27090Y22325
X27090Y21325
X28090Y21325
X28090Y22325
X27090Y29696
X27090Y30696
X27090Y31696
X27090Y32696
X27090Y33696
X26090Y33696
X26090Y32696
X26090Y31696
X26090Y30696
X26090Y29696
X26090Y47696
X26090Y48696
X27090Y48696
X27090Y47696
X28090Y47696
X28090Y48696
X39681Y3325
X39681Y4325
X39681Y5325
X39681Y6325
X39681Y7325
X38681Y7325
X38681Y6325
X38681Y5325
X38681Y4325
X38681Y3325
X38681Y21325
X38681Y22325
X39681Y22325
X39681Y21325
X40681Y21325
X40681Y22325
X39681Y29696
X39681Y30696
X39681Y31696
X39681Y32696
X39681Y33696
X38681Y33696
X38681Y32696
X38681Y31696
X38681Y30696
X38681Y29696
X38681Y47696
X38681Y48696
X39681Y48696
X39681Y47696
X40681Y47696
X40681Y48696
T07C0.015000
X10542Y6565
X11251Y7865
X9558Y6723
X9322Y6447
X9164Y6762
X9243Y7471
X8298Y7510
X7826Y8534
X7550Y8967
X7235Y8534
X7235Y8062
X7235Y7589
X7274Y6880
X7274Y6526
X6960Y6684
X5857Y4597
X5503Y4597
X5503Y2983
X5857Y2983
X5857Y2274
X5857Y1447
X6684Y3258
X7353Y1132
X8023Y1369
X8731Y1762
X9597Y3573
X9597Y3928
X9597Y4282
X6093Y9991
X6802Y11251
X6881Y12510
X6881Y12865
X5936Y12825
X5542Y13967
X4400Y12904
X3810Y13455
X3377Y14006
X3180Y14951
X3810Y15621
X3967Y16211
X4400Y16054
X5148Y15778
X5936Y15936
X6526Y15896
X5385Y18022
X5778Y19518
X6526Y20069
X6211Y21172
X7353Y22235
X7944Y22156
X7708Y25148
X6054Y23928
X5700Y24636
X5070Y22943
X4322Y21408
X5070Y19558
X3141Y19439
X2432Y18101
X2078Y17156
X3141Y17628
X2117Y15109
X463Y12707
X463Y11211
X463Y10306
X463Y9400
X463Y8495
X2589Y6841
X4125Y9754
X4715Y11644
X4164Y13967
X4046Y14676
X7432Y19105
X8180Y18101
X8180Y17314
X8849Y17983
X8849Y18770
X8141Y15424
X8180Y14676
X8928Y13180
X10109Y13888
X10385Y12983
X11408Y13652
X11408Y12156
X11408Y15227
X11408Y18731
X11290Y20188
X10660Y22550
X9834Y22156
X3692Y23888
X3810Y24676
X2589Y25148
X503Y23062
X2786Y3042
X2983Y2727
X3180Y3042
X3416Y1605
X3810Y542
X10542Y32936
X11251Y34236
X9558Y33094
X9322Y32818
X9164Y33133
X9243Y33842
X8298Y33881
X7826Y34905
X7550Y35338
X7235Y34905
X7235Y34433
X7235Y33960
X7274Y33251
X7274Y32897
X6960Y33055
X5857Y30968
X5503Y30968
X5503Y29354
X5857Y29354
X5857Y28645
X5857Y27818
X6684Y29629
X7353Y27503
X8023Y27740
X8731Y28133
X9597Y29944
X9597Y30299
X9597Y30653
X6093Y36362
X6802Y37622
X6881Y38881
X6881Y39236
X5936Y39196
X5542Y40338
X4400Y39275
X3810Y39826
X3377Y40377
X3180Y41322
X3810Y41992
X3967Y42582
X4400Y42425
X5148Y42149
X5936Y42307
X6526Y42267
X5385Y44393
X5778Y45889
X6526Y46440
X6211Y47543
X7353Y48606
X7944Y48527
X7708Y51519
X6054Y50299
X5700Y51007
X5070Y49314
X4322Y47779
X5070Y45929
X3141Y45810
X2432Y44472
X2078Y43527
X3141Y43999
X2117Y41480
X463Y39078
X463Y37582
X463Y36677
X463Y35771
X463Y34866
X2589Y33212
X4125Y36125
X4715Y38015
X4164Y40338
X4046Y41047
X7432Y45476
X8180Y44472
X8180Y43685
X8849Y44354
X8849Y45141
X8141Y41795
X8180Y41047
X8928Y39551
X10109Y40259
X10385Y39354
X11408Y40023
X11408Y38527
X11408Y41598
X11408Y45102
X11290Y46559
X10660Y48921
X9834Y48527
X3692Y50259
X3810Y51047
X2589Y51519
X503Y49433
X2786Y29413
X2983Y29098
X3180Y29413
X3416Y27976
X3810Y26913
X23133Y6565
X23842Y7865
X22149Y6723
X21913Y6447
X21755Y6762
X21834Y7471
X20889Y7510
X20417Y8534
X20141Y8967
X19826Y8534
X19826Y8062
X19826Y7589
X19865Y6880
X19865Y6526
X19551Y6684
X18448Y4597
X18094Y4597
X18094Y2983
X18448Y2983
X18448Y2274
X18448Y1447
X19275Y3258
X19944Y1132
X20614Y1369
X21322Y1762
X22188Y3573
X22188Y3928
X22188Y4282
X18684Y9991
X19393Y11251
X19472Y12510
X19472Y12865
X18527Y12825
X18133Y13967
X16991Y12904
X16401Y13455
X15968Y14006
X15771Y14951
X16401Y15621
X16558Y16211
X16991Y16054
X17739Y15778
X18527Y15936
X19117Y15896
X17976Y18022
X18369Y19518
X19117Y20069
X18802Y21172
X19944Y22235
X20535Y22156
X20299Y25148
X18645Y23928
X18291Y24636
X17661Y22943
X16913Y21408
X17661Y19558
X15732Y19439
X15023Y18101
X14669Y17156
X15732Y17628
X14708Y15109
X13054Y12707
X13054Y11211
X13054Y10306
X13054Y9400
X13054Y8495
X15180Y6841
X16716Y9754
X17306Y11644
X16755Y13967
X16637Y14676
X20023Y19105
X20771Y18101
X20771Y17314
X21440Y17983
X21440Y18770
X20732Y15424
X20771Y14676
X21519Y13180
X22700Y13888
X22976Y12983
X23999Y13652
X23999Y12156
X23999Y15227
X23999Y18731
X23881Y20188
X23251Y22550
X22425Y22156
X16283Y23888
X16401Y24676
X15180Y25148
X13094Y23062
X15377Y3042
X15574Y2727
X15771Y3042
X16007Y1605
X16401Y542
X23133Y32936
X23842Y34236
X22149Y33094
X21913Y32818
X21755Y33133
X21834Y33842
X20889Y33881
X20417Y34905
X20141Y35338
X19826Y34905
X19826Y34433
X19826Y33960
X19865Y33251
X19865Y32897
X19551Y33055
X18448Y30968
X18094Y30968
X18094Y29354
X18448Y29354
X18448Y28645
X18448Y27818
X19275Y29629
X19944Y27503
X20614Y27740
X21322Y28133
X22188Y29944
X22188Y30299
X22188Y30653
X18684Y36362
X19393Y37622
X19472Y38881
X19472Y39236
X18527Y39196
X18133Y40338
X16991Y39275
X16401Y39826
X15968Y40377
X15771Y41322
X16401Y41992
X16558Y42582
X16991Y42425
X17739Y42149
X18527Y42307
X19117Y42267
X17976Y44393
X18369Y45889
X19117Y46440
X18802Y47543
X19944Y48606
X20535Y48527
X20299Y51519
X18645Y50299
X18291Y51007
X17661Y49314
X16913Y47779
X17661Y45929
X15732Y45810
X15023Y44472
X14669Y43527
X15732Y43999
X14708Y41480
X13054Y39078
X13054Y37582
X13054Y36677
X13054Y35771
X13054Y34866
X15180Y33212
X16716Y36125
X17306Y38015
X16755Y40338
X16637Y41047
X20023Y45476
X20771Y44472
X20771Y43685
X21440Y44354
X21440Y45141
X20732Y41795
X20771Y41047
X21519Y39551
X22700Y40259
X22976Y39354
X23999Y40023
X23999Y38527
X23999Y41598
X23999Y45102
X23881Y46559
X23251Y48921
X22425Y48527
X16283Y50259
X16401Y51047
X15180Y51519
X13094Y49433
X15377Y29413
X15574Y29098
X15771Y29413
X16007Y27976
X16401Y26913
X35724Y6565
X36433Y7865
X34740Y6723
X34504Y6447
X34346Y6762
X34425Y7471
X33480Y7510
X33008Y8534
X32732Y8967
X32417Y8534
X32417Y8062
X32417Y7589
X32456Y6880
X32456Y6526
X32142Y6684
X31039Y4597
X30685Y4597
X30685Y2983
X31039Y2983
X31039Y2274
X31039Y1447
X31866Y3258
X32535Y1132
X33205Y1369
X33913Y1762
X34779Y3573
X34779Y3928
X34779Y4282
X31275Y9991
X31984Y11251
X32063Y12510
X32063Y12865
X31118Y12825
X30724Y13967
X29582Y12904
X28992Y13455
X28559Y14006
X28362Y14951
X28992Y15621
X29149Y16211
X29582Y16054
X30330Y15778
X31118Y15936
X31708Y15896
X30567Y18022
X30960Y19518
X31708Y20069
X31393Y21172
X32535Y22235
X33126Y22156
X32890Y25148
X31236Y23928
X30882Y24636
X30252Y22943
X29504Y21408
X30252Y19558
X28323Y19439
X27614Y18101
X27260Y17156
X28323Y17628
X27299Y15109
X25645Y12707
X25645Y11211
X25645Y10306
X25645Y9400
X25645Y8495
X27771Y6841
X29307Y9754
X29897Y11644
X29346Y13967
X29228Y14676
X32614Y19105
X33362Y18101
X33362Y17314
X34031Y17983
X34031Y18770
X33323Y15424
X33362Y14676
X34110Y13180
X35291Y13888
X35567Y12983
X36590Y13652
X36590Y12156
X36590Y15227
X36590Y18731
X36472Y20188
X35842Y22550
X35016Y22156
X28874Y23888
X28992Y24676
X27771Y25148
X25685Y23062
X27968Y3042
X28165Y2727
X28362Y3042
X28598Y1605
X28992Y542
X35724Y32936
X36433Y34236
X34740Y33094
X34504Y32818
X34346Y33133
X34425Y33842
X33480Y33881
X33008Y34905
X32732Y35338
X32417Y34905
X32417Y34433
X32417Y33960
X32456Y33251
X32456Y32897
X32142Y33055
X31039Y30968
X30685Y30968
X30685Y29354
X31039Y29354
X31039Y28645
X31039Y27818
X31866Y29629
X32535Y27503
X33205Y27740
X33913Y28133
X34779Y29944
X34779Y30299
X34779Y30653
X31275Y36362
X31984Y37622
X32063Y38881
X32063Y39236
X31118Y39196
X30724Y40338
X29582Y39275
X28992Y39826
X28559Y40377
X28362Y41322
X28992Y41992
X29149Y42582
X29582Y42425
X30330Y42149
X31118Y42307
X31708Y42267
X30567Y44393
X30960Y45889
X31708Y46440
X31393Y47543
X32535Y48606
X33126Y48527
X32890Y51519
X31236Y50299
X30882Y51007
X30252Y49314
X29504Y47779
X30252Y45929
X28323Y45810
X27614Y44472
X27260Y43527
X28323Y43999
X27299Y41480
X25645Y39078
X25645Y37582
X25645Y36677
X25645Y35771
X25645Y34866
X27771Y33212
X29307Y36125
X29897Y38015
X29346Y40338
X29228Y41047
X32614Y45476
X33362Y44472
X33362Y43685
X34031Y44354
X34031Y45141
X33323Y41795
X33362Y41047
X34110Y39551
X35291Y40259
X35567Y39354
X36590Y40023
X36590Y38527
X36590Y41598
X36590Y45102
X36472Y46559
X35842Y48921
X35016Y48527
X28874Y50259
X28992Y51047
X27771Y51519
X25685Y49433
X27968Y29413
X28165Y29098
X28362Y29413
X28598Y27976
X28992Y26913
X48315Y6565
X49024Y7865
X47331Y6723
X47095Y6447
X46937Y6762
X47016Y7471
X46071Y7510
X45599Y8534
X45323Y8967
X45008Y8534
X45008Y8062
X45008Y7589
X45047Y6880
X45047Y6526
X44733Y6684
X43630Y4597
X43276Y4597
X43276Y2983
X43630Y2983
X43630Y2274
X43630Y1447
X44457Y3258
X45126Y1132
X45796Y1369
X46504Y1762
X47370Y3573
X47370Y3928
X47370Y4282
X43866Y9991
X44575Y11251
X44654Y12510
X44654Y12865
X43709Y12825
X43315Y13967
X42173Y12904
X41583Y13455
X41150Y14006
X40953Y14951
X41583Y15621
X41740Y16211
X42173Y16054
X42921Y15778
X43709Y15936
X44299Y15896
X43158Y18022
X43551Y19518
X44299Y20069
X43984Y21172
X45126Y22235
X45717Y22156
X45481Y25148
X43827Y23928
X43473Y24636
X42843Y22943
X42095Y21408
X42843Y19558
X40914Y19439
X40205Y18101
X39851Y17156
X40914Y17628
X39890Y15109
X38236Y12707
X38236Y11211
X38236Y10306
X38236Y9400
X38236Y8495
X40362Y6841
X41898Y9754
X42488Y11644
X41937Y13967
X41819Y14676
X45205Y19105
X45953Y18101
X45953Y17314
X46622Y17983
X46622Y18770
X45914Y15424
X45953Y14676
X46701Y13180
X47882Y13888
X48158Y12983
X49181Y13652
X49181Y12156
X49181Y15227
X49181Y18731
X49063Y20188
X48433Y22550
X47607Y22156
X41465Y23888
X41583Y24676
X40362Y25148
X38276Y23062
X40559Y3042
X40756Y2727
X40953Y3042
X41189Y1605
X41583Y542
X48315Y32936
X49024Y34236
X47331Y33094
X47095Y32818
X46937Y33133
X47016Y33842
X46071Y33881
X45599Y34905
X45323Y35338
X45008Y34905
X45008Y34433
X45008Y33960
X45047Y33251
X45047Y32897
X44733Y33055
X43630Y30968
X43276Y30968
X43276Y29354
X43630Y29354
X43630Y28645
X43630Y27818
X44457Y29629
X45126Y27503
X45796Y27740
X46504Y28133
X47370Y29944
X47370Y30299
X47370Y30653
X43866Y36362
X44575Y37622
X44654Y38881
X44654Y39236
X43709Y39196
X43315Y40338
X42173Y39275
X41583Y39826
X41150Y40377
X40953Y41322
X41583Y41992
X41740Y42582
X42173Y42425
X42921Y42149
X43709Y42307
X44299Y42267
X43158Y44393
X43551Y45889
X44299Y46440
X43984Y47543
X45126Y48606
X45717Y48527
X45481Y51519
X43827Y50299
X43473Y51007
X42843Y49314
X42095Y47779
X42843Y45929
X40914Y45810
X40205Y44472
X39851Y43527
X40914Y43999
X39890Y41480
X38236Y39078
X38236Y37582
X38236Y36677
X38236Y35771
X38236Y34866
X40362Y33212
X41898Y36125
X42488Y38015
X41937Y40338
X41819Y41047
X45205Y45476
X45953Y44472
X45953Y43685
X46622Y44354
X46622Y45141
X45914Y41795
X45953Y41047
X46701Y39551
X47882Y40259
X48158Y39354
X49181Y40023
X49181Y38527
X49181Y41598
X49181Y45102
X49063Y46559
X48433Y48921
X47607Y48527
X41465Y50259
X41583Y51047
X40362Y51519
X38276Y49433
X40559Y29413
X40756Y29098
X40953Y29413
X41189Y27976
X41583Y26913
X50827Y1054
X52481Y857
X53583Y1802
X54803Y542
X54567Y3731
X52953Y3928
X52874Y5070
X51063Y4715
X50827Y7345
X52481Y7148
X53583Y8093
X54803Y6833
X54567Y10022
X52953Y10219
X52874Y11361
X51063Y11006
X50827Y13637
X52481Y13440
X53583Y14385
X54803Y13125
X54567Y16314
X52953Y16511
X52874Y17653
X51063Y17298
X50827Y19929
X52481Y19732
X53583Y20677
X54803Y19417
X54567Y22606
X52953Y22803
X52874Y23945
X51063Y23590
X50827Y26221
X52481Y26024
X53583Y26969
X54803Y25709
X54567Y28898
X52953Y29095
X52874Y30237
X51063Y29882
X50827Y32513
X52481Y32316
X53583Y33261
X54803Y32001
X54567Y35190
X52953Y35387
X52874Y36529
X51063Y36174
X50827Y38804
X52481Y38607
X53583Y39552
X54803Y38292
X54567Y41481
X52953Y41678
X52874Y42820
X51063Y42465
X50827Y45096
X52481Y44899
X53583Y45844
X54803Y44584
X54567Y47773
X52953Y47970
X52874Y49112
X51063Y48757
M30
