%
T01C0.108270
X1875Y1875
X5770Y26700
X5770Y35756
X1875Y35625
X28604Y35756
X32500Y35625
X28604Y26700
X38125Y1875
X42261Y1875
X46156Y26700
X46156Y35756
X42261Y35625
X68990Y35756
X72886Y35625
X68990Y26700
X78511Y1875
T02C0.070870
X28630Y7717
X28630Y5547
X25004Y5543
X25004Y7713
X21797Y7713
X21797Y5543
X18616Y5523
X18616Y7693
X69016Y7717
X69016Y5547
X65390Y5543
X65390Y7713
X62183Y7713
X62183Y5543
X59002Y5523
X59002Y7693
T03C0.047240
X35864Y23500
X35864Y19500
X35864Y15000
X35864Y10500
X38620Y10500
X38620Y15000
X38620Y19500
X38620Y23500
X76250Y23500
X76250Y19500
X76250Y15000
X76250Y10500
X79006Y10500
X79006Y15000
X79006Y19500
X79006Y23500
T04C0.042910
X35965Y27035
X35965Y28035
X35965Y29035
X35961Y31750
X35961Y32750
X35961Y33750
X35961Y34750
X35961Y35750
X35954Y6802
X35954Y5802
X33508Y4039
X32508Y4039
X31508Y4039
X15370Y4047
X14370Y4047
X11500Y4059
X10500Y4059
X4056Y6264
X4056Y7264
X4056Y8264
X4048Y11069
X4048Y12069
X4048Y13069
X4056Y16019
X4056Y17019
X4056Y18019
X4036Y20920
X4036Y21920
X4036Y22920
X3323Y25996
X3323Y26996
X76351Y27035
X76351Y28035
X76351Y29035
X76347Y31750
X76347Y32750
X76347Y33750
X76347Y34750
X76347Y35750
X76340Y6802
X76340Y5802
X73894Y4039
X72894Y4039
X71894Y4039
X55756Y4047
X54756Y4047
X51886Y4059
X50886Y4059
X44442Y6264
X44442Y7264
X44442Y8264
X44434Y11069
X44434Y12069
X44434Y13069
X44442Y16019
X44442Y17019
X44442Y18019
X44422Y20920
X44422Y21920
X44422Y22920
X43709Y25996
X43709Y26996
T05C0.040160
X7688Y26204
X7688Y27204
X7688Y28204
X7688Y29204
X8688Y29204
X8688Y28204
X8688Y27204
X8688Y26204
X9688Y26204
X9688Y27204
X10688Y27204
X10688Y26204
X11688Y26204
X11688Y27204
X12688Y27204
X12688Y26204
X13688Y26204
X13688Y27204
X14688Y27204
X14688Y26204
X15688Y26204
X15688Y27204
X16688Y27204
X16688Y26204
X17688Y26204
X17688Y27204
X18688Y27204
X18688Y26204
X19688Y26204
X19688Y27204
X20688Y27204
X20688Y26204
X21688Y26204
X21688Y27204
X22688Y27204
X22688Y26204
X23688Y26204
X23688Y27204
X24688Y27204
X24688Y26204
X25688Y26204
X25688Y27204
X26688Y27204
X26688Y26204
X48074Y26204
X48074Y27204
X48074Y28204
X48074Y29204
X49074Y29204
X49074Y28204
X49074Y27204
X49074Y26204
X50074Y26204
X50074Y27204
X51074Y27204
X51074Y26204
X52074Y26204
X52074Y27204
X53074Y27204
X53074Y26204
X54074Y26204
X54074Y27204
X55074Y27204
X55074Y26204
X56074Y26204
X56074Y27204
X57074Y27204
X57074Y26204
X58074Y26204
X58074Y27204
X59074Y27204
X59074Y26204
X60074Y26204
X60074Y27204
X61074Y27204
X61074Y26204
X62074Y26204
X62074Y27204
X63074Y27204
X63074Y26204
X64074Y26204
X64074Y27204
X65074Y27204
X65074Y26204
X66074Y26204
X66074Y27204
X67074Y27204
X67074Y26204
T06C0.016000
X1740Y4212
X445Y10011
X496Y15472
X559Y20708
X42126Y4212
X40831Y10011
X40882Y15472
X40945Y20708
T07C0.015000
X7642Y1724
X8508Y1523
X8528Y2283
X7043Y3822
X6366Y3027
X6079Y5437
X7417Y5921
X8004Y5937
X9477Y8618
X8945Y9110
X9646Y9689
X10917Y9137
X11110Y11106
X11546Y12574
X12421Y12464
X11839Y15531
X10957Y15531
X10957Y17448
X11839Y17448
X9528Y14854
X9854Y14153
X9870Y12511
X8851Y12566
X8449Y13992
X7272Y15137
X6606Y15685
X5874Y13504
X5823Y12964
X6410Y13248
X5949Y10826
X5744Y10141
X6280Y9673
X4772Y9043
X4110Y10291
X3606Y9437
X3583Y13988
X3547Y14629
X4248Y15200
X4402Y13988
X4984Y18799
X3866Y18944
X3390Y19618
X5055Y22570
X5536Y23177
X5646Y24555
X5370Y25043
X6126Y25015
X3784Y28043
X3543Y29409
X2795Y29752
X2484Y27948
X1740Y27070
X898Y27653
X961Y26389
X677Y24952
X914Y24425
X854Y22358
X484Y21925
X1386Y22027
X532Y19807
X937Y19437
X886Y17200
X1201Y16696
X477Y16696
X843Y14413
X1106Y13996
X910Y11736
X1303Y11315
X421Y11401
X685Y9118
X1008Y8685
X677Y6165
X1043Y5681
X3599Y4275
X4752Y2964
X3788Y2082
X10083Y6275
X12402Y6074
X13130Y5185
X13288Y6035
X14700Y6035
X15264Y5185
X16437Y2322
X15988Y9480
X14343Y9456
X12433Y2480
X19614Y10224
X20386Y12248
X21654Y11090
X22008Y12728
X21988Y14956
X22154Y16543
X22772Y18661
X23295Y20004
X23973Y20866
X24189Y20070
X25091Y18881
X24665Y18015
X25331Y16645
X26843Y17232
X27547Y17720
X27276Y18881
X26606Y19626
X26429Y19988
X26473Y20862
X24626Y22629
X24291Y22153
X23941Y22614
X23043Y22724
X22551Y22082
X22075Y22712
X21543Y20870
X19894Y22433
X19465Y22039
X19099Y22464
X18736Y22063
X18988Y19232
X18784Y18460
X20146Y17259
X20366Y15878
X20386Y14385
X23398Y9354
X24323Y9354
X25189Y9354
X26414Y13795
X27496Y12240
X27496Y11818
X28748Y11563
X28559Y13807
X28567Y14689
X29331Y14720
X30717Y14307
X30957Y15299
X30906Y13244
X30299Y13244
X30354Y9342
X31827Y8878
X32323Y7165
X32323Y6574
X32914Y6692
X33386Y6220
X33961Y11129
X33012Y12456
X34063Y13315
X34079Y15456
X32874Y16669
X33886Y18614
X35736Y16484
X37201Y15350
X36677Y12456
X36748Y11196
X38937Y11590
X38827Y13948
X38610Y16771
X37421Y19559
X37150Y20948
X35669Y21114
X37213Y24248
X37252Y25830
X37217Y27346
X37189Y28736
X38634Y28059
X37858Y31236
X37953Y32322
X35536Y30318
X34760Y31354
X33784Y29460
X34181Y27303
X34004Y25826
X33882Y23905
X32701Y23563
X33823Y22133
X35595Y25779
X33028Y27311
X31854Y26464
X31256Y24551
X30488Y27126
X31713Y29795
X31764Y32311
X31488Y33645
X30543Y34905
X30571Y36637
X28429Y30866
X28429Y30378
X27362Y33637
X26728Y33649
X26236Y34818
X26347Y36763
X23217Y31566
X22402Y31566
X21567Y31566
X20752Y30287
X19386Y30287
X18205Y31857
X18193Y33153
X18181Y34302
X16555Y35172
X16177Y34782
X15618Y31862
X15039Y30960
X13925Y29078
X12555Y29244
X11878Y31063
X10213Y29413
X10311Y24917
X10508Y24378
X10725Y23177
X9748Y22956
X8791Y23972
X11705Y21578
X12673Y21566
X14209Y24459
X14244Y24869
X14803Y22240
X15795Y21519
X15378Y18901
X14669Y18889
X17315Y24999
X18004Y24983
X19504Y25018
X20697Y24920
X24315Y24921
X25732Y29897
X27532Y25000
X29284Y24303
X30827Y20291
X30843Y19366
X30248Y18137
X29512Y18149
X29709Y6204
X30406Y6185
X31201Y700
X33398Y673
X35571Y4626
X36425Y4405
X37047Y3535
X37366Y5244
X38709Y4208
X38910Y8547
X36016Y1066
X26689Y2740
X23445Y2740
X20099Y2661
X8902Y18433
X6138Y20315
X6488Y30385
X6705Y31161
X6705Y31921
X6705Y32669
X5843Y32728
X5870Y31866
X5870Y31133
X5083Y33716
X3788Y35366
X3866Y36535
X2209Y33374
X1126Y34047
X7860Y35700
X7681Y36685
X9512Y34200
X13626Y36000
X14130Y35645
X14012Y32972
X16437Y31106
X21158Y36763
X22252Y34779
X22811Y36661
X34055Y36712
X35630Y36712
X48028Y1724
X48894Y1523
X48914Y2283
X47429Y3822
X46752Y3027
X46465Y5437
X47803Y5921
X48390Y5937
X49863Y8618
X49331Y9110
X50032Y9689
X51303Y9137
X51496Y11106
X51932Y12574
X52807Y12464
X52225Y15531
X51343Y15531
X51343Y17448
X52225Y17448
X49914Y14854
X50240Y14153
X50256Y12511
X49237Y12566
X48835Y13992
X47658Y15137
X46992Y15685
X46260Y13504
X46209Y12964
X46796Y13248
X46335Y10826
X46130Y10141
X46666Y9673
X45158Y9043
X44496Y10291
X43992Y9437
X43969Y13988
X43933Y14629
X44634Y15200
X44788Y13988
X45370Y18799
X44252Y18944
X43776Y19618
X45441Y22570
X45922Y23177
X46032Y24555
X45756Y25043
X46512Y25015
X44170Y28043
X43929Y29409
X43181Y29752
X42870Y27948
X42126Y27070
X41284Y27653
X41347Y26389
X41063Y24952
X41300Y24425
X41240Y22358
X40870Y21925
X41772Y22027
X40918Y19807
X41323Y19437
X41272Y17200
X41587Y16696
X40863Y16696
X41229Y14413
X41492Y13996
X41296Y11736
X41689Y11315
X40807Y11401
X41071Y9118
X41394Y8685
X41063Y6165
X41429Y5681
X43985Y4275
X45138Y2964
X44174Y2082
X50469Y6275
X52788Y6074
X53516Y5185
X53674Y6035
X55086Y6035
X55650Y5185
X56823Y2322
X56374Y9480
X54729Y9456
X52819Y2480
X60000Y10224
X60772Y12248
X62040Y11090
X62394Y12728
X62374Y14956
X62540Y16543
X63158Y18661
X63681Y20004
X64359Y20866
X64575Y20070
X65477Y18881
X65051Y18015
X65717Y16645
X67229Y17232
X67933Y17720
X67662Y18881
X66992Y19626
X66815Y19988
X66859Y20862
X65012Y22629
X64677Y22153
X64327Y22614
X63429Y22724
X62937Y22082
X62461Y22712
X61929Y20870
X60280Y22433
X59851Y22039
X59485Y22464
X59122Y22063
X59374Y19232
X59170Y18460
X60532Y17259
X60752Y15878
X60772Y14385
X63784Y9354
X64709Y9354
X65575Y9354
X66800Y13795
X67882Y12240
X67882Y11818
X69134Y11563
X68945Y13807
X68953Y14689
X69717Y14720
X71103Y14307
X71343Y15299
X71292Y13244
X70685Y13244
X70740Y9342
X72213Y8878
X72709Y7165
X72709Y6574
X73300Y6692
X73772Y6220
X74347Y11129
X73398Y12456
X74449Y13315
X74465Y15456
X73260Y16669
X74272Y18614
X76122Y16484
X77587Y15350
X77063Y12456
X77134Y11196
X79323Y11590
X79213Y13948
X78996Y16771
X77807Y19559
X77536Y20948
X76055Y21114
X77599Y24248
X77638Y25830
X77603Y27346
X77575Y28736
X79020Y28059
X78244Y31236
X78339Y32322
X75922Y30318
X75146Y31354
X74170Y29460
X74567Y27303
X74390Y25826
X74268Y23905
X73087Y23563
X74209Y22133
X75981Y25779
X73414Y27311
X72240Y26464
X71642Y24551
X70874Y27126
X72099Y29795
X72150Y32311
X71874Y33645
X70929Y34905
X70957Y36637
X68815Y30866
X68815Y30378
X67748Y33637
X67114Y33649
X66622Y34818
X66733Y36763
X63603Y31566
X62788Y31566
X61953Y31566
X61138Y30287
X59772Y30287
X58591Y31857
X58579Y33153
X58567Y34302
X56941Y35172
X56563Y34782
X56004Y31862
X55425Y30960
X54311Y29078
X52941Y29244
X52264Y31063
X50599Y29413
X50697Y24917
X50894Y24378
X51111Y23177
X50134Y22956
X49177Y23972
X52091Y21578
X53059Y21566
X54595Y24459
X54630Y24869
X55189Y22240
X56181Y21519
X55764Y18901
X55055Y18889
X57701Y24999
X58390Y24983
X59890Y25018
X61083Y24920
X64701Y24921
X66118Y29897
X67918Y25000
X69670Y24303
X71213Y20291
X71229Y19366
X70634Y18137
X69898Y18149
X70095Y6204
X70792Y6185
X71587Y700
X73784Y673
X75957Y4626
X76811Y4405
X77433Y3535
X77752Y5244
X79095Y4208
X79296Y8547
X76402Y1066
X67075Y2740
X63831Y2740
X60485Y2661
X49288Y18433
X46524Y20315
X46874Y30385
X47091Y31161
X47091Y31921
X47091Y32669
X46229Y32728
X46256Y31866
X46256Y31133
X45469Y33716
X44174Y35366
X44252Y36535
X42595Y33374
X41512Y34047
X48246Y35700
X48067Y36685
X49898Y34200
X54012Y36000
X54516Y35645
X54398Y32972
X56823Y31106
X61544Y36763
X62638Y34779
X63197Y36661
X74441Y36712
X76016Y36712
T08C0.118110
X28630Y2673
X25004Y2669
X21797Y2669
X18616Y2649
X69016Y2673
X65390Y2669
X62183Y2669
X59002Y2649
M30
