%
M48
M72
T01C0.02362
T02C0.04291
T03C0.08000
T04C0.09000
T05C0.10827
T06C0.19685
%
T01
X58493Y67548
X128965Y99044
X157706Y90776
X177784Y98060
X197509Y115776
X157706Y127784
X174635Y178572
X242981Y163020
X242981Y151209
X242981Y68532
X242981Y52784
T02
X215855Y55422
X205855Y55422
X175304Y55422
X165304Y55422
X134753Y55422
X124753Y55422
X94202Y55422
X84202Y55422
X54438Y55422
X44438Y55422
X19123Y118454
X19123Y128454
X44438Y192272
X54438Y192272
X84202Y192272
X94202Y192272
X124753Y192272
X134753Y192272
X165304Y192272
X175304Y192272
X205855Y192272
X215855Y192272
T03
X44769Y148792
X44769Y97792
T04
X93769Y167792
X146769Y79792
X199769Y167792
T05
X17548Y17548
X17548Y230146
X241957Y230146
X241957Y17548
T06
X109477Y62627
X109477Y185068
M30
