G75*
%MOIN*%
%OFA0B0*%
%FSLAX25Y25*%
%IPPOS*%
%LPD*%
%AMOC8*
5,1,8,0,0,1.08239X$1,22.5*
%
%ADD10R,0.12000X0.12000*%
%ADD11R,0.04331X0.05512*%
%ADD12R,0.05512X0.04331*%
%ADD13C,0.07091*%
%ADD14R,0.06700X0.03700*%
%ADD15R,0.30400X0.26200*%
%ADD16R,0.07800X0.02200*%
%ADD17R,0.05000X0.02200*%
%ADD18C,0.03937*%
%ADD19C,0.01600*%
%ADD20C,0.04362*%
%ADD21C,0.02500*%
D10*
X0044769Y0097792D03*
X0044769Y0148792D03*
D11*
X0043532Y0123454D03*
X0051406Y0123454D03*
X0133296Y0138020D03*
X0141170Y0138020D03*
X0141170Y0149831D03*
X0133296Y0149831D03*
X0189044Y0098060D03*
X0196918Y0098060D03*
D12*
X0178572Y0106524D03*
X0178572Y0114398D03*
X0178611Y0122272D03*
X0178611Y0130146D03*
X0166761Y0122272D03*
X0166761Y0114398D03*
X0166761Y0106524D03*
X0166761Y0098650D03*
X0171485Y0076997D03*
X0171485Y0069123D03*
X0159674Y0069123D03*
X0159674Y0076997D03*
X0113611Y0114005D03*
X0113611Y0121879D03*
X0093926Y0121879D03*
X0093926Y0114005D03*
X0082115Y0121879D03*
X0082115Y0129753D03*
D13*
X0022669Y0128454D02*
X0015577Y0128454D01*
X0015577Y0118454D02*
X0022669Y0118454D01*
X0044438Y0058968D02*
X0044438Y0051876D01*
X0054438Y0051876D02*
X0054438Y0058968D01*
X0084202Y0058968D02*
X0084202Y0051876D01*
X0094202Y0051876D02*
X0094202Y0058968D01*
X0124753Y0058968D02*
X0124753Y0051876D01*
X0134753Y0051876D02*
X0134753Y0058968D01*
X0165304Y0058968D02*
X0165304Y0051876D01*
X0175304Y0051876D02*
X0175304Y0058968D01*
X0205855Y0058968D02*
X0205855Y0051876D01*
X0215855Y0051876D02*
X0215855Y0058968D01*
X0215855Y0188727D02*
X0215855Y0195818D01*
X0205855Y0195818D02*
X0205855Y0188727D01*
X0175304Y0188727D02*
X0175304Y0195818D01*
X0165304Y0195818D02*
X0165304Y0188727D01*
X0134753Y0188727D02*
X0134753Y0195818D01*
X0124753Y0195818D02*
X0124753Y0188727D01*
X0094202Y0188727D02*
X0094202Y0195818D01*
X0084202Y0195818D02*
X0084202Y0188727D01*
X0054438Y0188727D02*
X0054438Y0195818D01*
X0044438Y0195818D02*
X0044438Y0188727D01*
D14*
X0208459Y0115776D03*
X0208459Y0098060D03*
D15*
X0232509Y0106918D03*
D16*
X0146933Y0108080D03*
X0146933Y0113080D03*
X0146933Y0118080D03*
X0146933Y0123080D03*
X0127533Y0123080D03*
X0127533Y0118080D03*
X0127533Y0113080D03*
X0127533Y0108080D03*
D17*
X0071167Y0119704D03*
X0071167Y0127204D03*
X0061567Y0127204D03*
X0061567Y0123454D03*
X0061567Y0119704D03*
D18*
X0029753Y0097863D03*
X0109280Y0129753D03*
X0113611Y0091170D03*
X0197076Y0071485D03*
D19*
X0009374Y0008194D02*
X0008747Y0008194D01*
X0009374Y0008194D01*
X0009666Y0007276D02*
X0007276Y0009666D01*
X0005586Y0012593D01*
X0004711Y0015858D01*
X0004600Y0017548D01*
X0004600Y0230146D01*
X0004711Y0231837D01*
X0005586Y0235101D01*
X0007276Y0238029D01*
X0009666Y0240419D01*
X0012593Y0242109D01*
X0015858Y0242984D01*
X0017548Y0243094D01*
X0241957Y0243094D01*
X0243648Y0242984D01*
X0246912Y0242109D01*
X0249840Y0240419D01*
X0252230Y0238029D01*
X0253920Y0235101D01*
X0254795Y0231837D01*
X0254906Y0230146D01*
X0254906Y0017548D01*
X0254795Y0015858D01*
X0253920Y0012593D01*
X0253920Y0012593D01*
X0253920Y0012593D01*
X0254795Y0015858D01*
X0254906Y0017548D01*
X0254906Y0230146D01*
X0254795Y0231837D01*
X0253920Y0235101D01*
X0252230Y0238029D01*
X0249840Y0240419D01*
X0246912Y0242109D01*
X0243648Y0242984D01*
X0241957Y0243094D01*
X0017548Y0243094D01*
X0015858Y0242984D01*
X0012593Y0242109D01*
X0009666Y0240419D01*
X0007276Y0238029D01*
X0005586Y0235101D01*
X0004711Y0231837D01*
X0004600Y0230146D01*
X0004600Y0017548D01*
X0004711Y0015858D01*
X0005586Y0012593D01*
X0007276Y0009666D01*
X0009666Y0007276D01*
X0012593Y0005586D01*
X0015858Y0004711D01*
X0017548Y0004600D01*
X0241957Y0004600D01*
X0243648Y0004711D01*
X0246912Y0005586D01*
X0249840Y0007276D01*
X0252230Y0009666D01*
X0253920Y0012593D01*
X0252230Y0009666D01*
X0249840Y0007276D01*
X0246912Y0005586D01*
X0243648Y0004711D01*
X0241957Y0004600D01*
X0017548Y0004600D01*
X0015858Y0004711D01*
X0012593Y0005586D01*
X0009666Y0007276D01*
X0010844Y0006596D02*
X0011328Y0006596D01*
X0010844Y0006596D01*
X0011243Y0006627D02*
X0011243Y0006627D01*
X0015358Y0005129D01*
X0019738Y0005129D01*
X0023854Y0006627D01*
X0027209Y0009442D01*
X0029399Y0013235D01*
X0030159Y0017548D01*
X0029399Y0021861D01*
X0029399Y0021861D01*
X0029399Y0021861D01*
X0030159Y0017548D01*
X0029399Y0013235D01*
X0029399Y0013235D01*
X0027209Y0009442D01*
X0027209Y0009442D01*
X0027209Y0009442D01*
X0023854Y0006627D01*
X0023854Y0006627D01*
X0023854Y0006627D01*
X0019738Y0005129D01*
X0015358Y0005129D01*
X0011243Y0006627D01*
X0007887Y0009442D01*
X0005698Y0013235D01*
X0005698Y0013235D01*
X0007887Y0009442D01*
X0011243Y0006627D01*
X0011243Y0006627D01*
X0014790Y0004997D02*
X0244716Y0004997D01*
X0014790Y0004997D01*
X0007685Y0009793D02*
X0007202Y0009793D01*
X0007685Y0009793D01*
X0006762Y0011391D02*
X0006280Y0011391D01*
X0006762Y0011391D01*
X0005839Y0012990D02*
X0005479Y0012990D01*
X0005839Y0012990D01*
X0005698Y0013235D02*
X0005698Y0013235D01*
X0004937Y0017548D01*
X0005698Y0021861D01*
X0005698Y0021861D01*
X0007887Y0025654D01*
X0007887Y0025654D01*
X0011243Y0028469D01*
X0011243Y0028469D01*
X0015358Y0029967D01*
X0019738Y0029967D01*
X0023854Y0028469D01*
X0023854Y0028469D01*
X0027209Y0025654D01*
X0027209Y0025654D01*
X0029399Y0021861D01*
X0027209Y0025654D01*
X0027209Y0025654D01*
X0027209Y0025654D01*
X0027209Y0025654D01*
X0023854Y0028469D01*
X0023854Y0028469D01*
X0019738Y0029967D01*
X0015358Y0029967D01*
X0011243Y0028469D01*
X0007887Y0025654D01*
X0005698Y0021861D01*
X0004937Y0017548D01*
X0005698Y0013235D01*
X0005459Y0014588D02*
X0005051Y0014588D01*
X0005459Y0014588D01*
X0005177Y0016187D02*
X0004689Y0016187D01*
X0005177Y0016187D01*
X0004979Y0017785D02*
X0004600Y0017785D01*
X0004979Y0017785D01*
X0005261Y0019384D02*
X0004600Y0019384D01*
X0005261Y0019384D01*
X0005543Y0020982D02*
X0004600Y0020982D01*
X0005543Y0020982D01*
X0005698Y0021861D02*
X0005698Y0021861D01*
X0006113Y0022581D02*
X0004600Y0022581D01*
X0006113Y0022581D01*
X0007036Y0024179D02*
X0004600Y0024179D01*
X0007036Y0024179D01*
X0007887Y0025654D02*
X0007887Y0025654D01*
X0008035Y0025778D02*
X0004600Y0025778D01*
X0008035Y0025778D01*
X0009940Y0027376D02*
X0004600Y0027376D01*
X0009940Y0027376D01*
X0011243Y0028469D02*
X0011243Y0028469D01*
X0012631Y0028975D02*
X0004600Y0028975D01*
X0012631Y0028975D01*
X0004600Y0030573D02*
X0254906Y0030573D01*
X0004600Y0030573D01*
X0004600Y0032172D02*
X0254906Y0032172D01*
X0004600Y0032172D01*
X0004600Y0033770D02*
X0254906Y0033770D01*
X0004600Y0033770D01*
X0004600Y0035369D02*
X0254906Y0035369D01*
X0004600Y0035369D01*
X0004600Y0036967D02*
X0254906Y0036967D01*
X0004600Y0036967D01*
X0004600Y0038566D02*
X0254906Y0038566D01*
X0004600Y0038566D01*
X0004600Y0040164D02*
X0254906Y0040164D01*
X0004600Y0040164D01*
X0004600Y0041763D02*
X0125412Y0041763D01*
X0004600Y0041763D01*
X0004600Y0043361D02*
X0123814Y0043361D01*
X0004600Y0043361D01*
X0004600Y0044960D02*
X0122386Y0044960D01*
X0004600Y0044960D01*
X0004600Y0046558D02*
X0093607Y0046558D01*
X0004600Y0046558D01*
X0004600Y0048157D02*
X0041163Y0048157D01*
X0004600Y0048157D01*
X0004600Y0049755D02*
X0039963Y0049755D01*
X0004600Y0049755D01*
X0004600Y0051354D02*
X0039492Y0051354D01*
X0004600Y0051354D01*
X0004600Y0052952D02*
X0039492Y0052952D01*
X0004600Y0052952D01*
X0004600Y0054551D02*
X0039492Y0054551D01*
X0004600Y0054551D01*
X0004600Y0056149D02*
X0039492Y0056149D01*
X0004600Y0056149D01*
X0004600Y0057748D02*
X0039492Y0057748D01*
X0004600Y0057748D01*
X0004600Y0059346D02*
X0039492Y0059346D01*
X0004600Y0059346D01*
X0004600Y0060945D02*
X0039904Y0060945D01*
X0004600Y0060945D01*
X0004600Y0062543D02*
X0041019Y0062543D01*
X0004600Y0062543D01*
X0004600Y0064142D02*
X0041788Y0064142D01*
X0004600Y0064142D01*
X0004600Y0065740D02*
X0041788Y0065740D01*
X0004600Y0065740D01*
X0004600Y0067339D02*
X0041788Y0067339D01*
X0004600Y0067339D01*
X0004600Y0068937D02*
X0041788Y0068937D01*
X0004600Y0068937D01*
X0004600Y0070536D02*
X0041788Y0070536D01*
X0004600Y0070536D01*
X0004600Y0072134D02*
X0041788Y0072134D01*
X0004600Y0072134D01*
X0004600Y0073733D02*
X0041788Y0073733D01*
X0004600Y0073733D01*
X0004600Y0075332D02*
X0041788Y0075332D01*
X0004600Y0075332D01*
X0004600Y0076930D02*
X0041769Y0076930D01*
X0004600Y0076930D01*
X0004600Y0078529D02*
X0042681Y0078529D01*
X0004600Y0078529D01*
X0004600Y0080127D02*
X0044155Y0080127D01*
X0004600Y0080127D01*
X0004600Y0081726D02*
X0045629Y0081726D01*
X0004600Y0081726D01*
X0004600Y0083324D02*
X0047104Y0083324D01*
X0004600Y0083324D01*
X0004600Y0084923D02*
X0048578Y0084923D01*
X0004600Y0084923D01*
X0004600Y0086521D02*
X0050052Y0086521D01*
X0004600Y0086521D01*
X0004600Y0088120D02*
X0051512Y0088120D01*
X0004600Y0088120D01*
X0004600Y0089718D02*
X0110566Y0089718D01*
X0004600Y0089718D01*
X0004600Y0091317D02*
X0037369Y0091317D01*
X0004600Y0091317D01*
X0004600Y0092915D02*
X0037369Y0092915D01*
X0004600Y0092915D01*
X0004600Y0094514D02*
X0029036Y0094514D01*
X0004600Y0094514D01*
X0004600Y0096112D02*
X0026832Y0096112D01*
X0004600Y0096112D01*
X0004600Y0097711D02*
X0026384Y0097711D01*
X0004600Y0097711D01*
X0004600Y0099309D02*
X0026706Y0099309D01*
X0004600Y0099309D01*
X0004600Y0100908D02*
X0028301Y0100908D01*
X0004600Y0100908D01*
X0004600Y0102506D02*
X0037369Y0102506D01*
X0004600Y0102506D01*
X0004600Y0104105D02*
X0037369Y0104105D01*
X0004600Y0104105D01*
X0004600Y0105703D02*
X0096686Y0105703D01*
X0004600Y0105703D01*
X0004600Y0107302D02*
X0098285Y0107302D01*
X0004600Y0107302D01*
X0004600Y0108900D02*
X0099883Y0108900D01*
X0004600Y0108900D01*
X0004600Y0110499D02*
X0090531Y0110499D01*
X0004600Y0110499D01*
X0004600Y0112097D02*
X0079218Y0112097D01*
X0004600Y0112097D01*
X0004600Y0113696D02*
X0013140Y0113696D01*
X0004600Y0113696D01*
X0004600Y0115294D02*
X0011265Y0115294D01*
X0004600Y0115294D01*
X0004600Y0116893D02*
X0010464Y0116893D01*
X0004600Y0116893D01*
X0004600Y0118491D02*
X0018850Y0118491D01*
X0004600Y0118491D01*
X0004600Y0120090D02*
X0010488Y0120090D01*
X0004600Y0120090D01*
X0004600Y0121688D02*
X0011320Y0121688D01*
X0004600Y0121688D01*
X0004600Y0123287D02*
X0013288Y0123287D01*
X0004600Y0123287D01*
X0004600Y0124885D02*
X0012151Y0124885D01*
X0004600Y0124885D01*
X0004600Y0126484D02*
X0011040Y0126484D01*
X0004600Y0126484D01*
X0004600Y0128082D02*
X0010631Y0128082D01*
X0004600Y0128082D01*
X0004600Y0129681D02*
X0010732Y0129681D01*
X0004600Y0129681D01*
X0004600Y0131279D02*
X0011409Y0131279D01*
X0004600Y0131279D01*
X0004600Y0132878D02*
X0013335Y0132878D01*
X0004600Y0132878D01*
X0004600Y0134476D02*
X0036483Y0134476D01*
X0004600Y0134476D01*
X0004600Y0136075D02*
X0038082Y0136075D01*
X0004600Y0136075D01*
X0004600Y0137673D02*
X0039680Y0137673D01*
X0004600Y0137673D01*
X0004600Y0139272D02*
X0041279Y0139272D01*
X0004600Y0139272D01*
X0004600Y0140870D02*
X0042513Y0140870D01*
X0004600Y0140870D01*
X0004600Y0142469D02*
X0037369Y0142469D01*
X0004600Y0142469D01*
X0004600Y0144068D02*
X0037369Y0144068D01*
X0004600Y0144068D01*
X0004600Y0145666D02*
X0037369Y0145666D01*
X0004600Y0145666D01*
X0004600Y0147265D02*
X0037369Y0147265D01*
X0004600Y0147265D01*
X0004600Y0148863D02*
X0037369Y0148863D01*
X0004600Y0148863D01*
X0004600Y0150462D02*
X0037369Y0150462D01*
X0004600Y0150462D01*
X0004600Y0152060D02*
X0037369Y0152060D01*
X0004600Y0152060D01*
X0004600Y0153659D02*
X0037369Y0153659D01*
X0004600Y0153659D01*
X0004600Y0155257D02*
X0037369Y0155257D01*
X0004600Y0155257D01*
X0004600Y0156856D02*
X0124217Y0156856D01*
X0004600Y0156856D01*
X0004600Y0158454D02*
X0125815Y0158454D01*
X0004600Y0158454D01*
X0004600Y0160053D02*
X0152162Y0160053D01*
X0004600Y0160053D01*
X0004600Y0161651D02*
X0089586Y0161651D01*
X0004600Y0161651D01*
X0004600Y0163250D02*
X0087987Y0163250D01*
X0004600Y0163250D01*
X0004600Y0164848D02*
X0087086Y0164848D01*
X0004600Y0164848D01*
X0004600Y0166447D02*
X0086469Y0166447D01*
X0004600Y0166447D01*
X0004600Y0168045D02*
X0086469Y0168045D01*
X0004600Y0168045D01*
X0004600Y0169644D02*
X0086634Y0169644D01*
X0004600Y0169644D01*
X0004600Y0171242D02*
X0087296Y0171242D01*
X0004600Y0171242D01*
X0004600Y0172841D02*
X0088493Y0172841D01*
X0004600Y0172841D01*
X0004600Y0174439D02*
X0090740Y0174439D01*
X0004600Y0174439D01*
X0004600Y0176038D02*
X0100628Y0176038D01*
X0004600Y0176038D01*
X0004600Y0177636D02*
X0099169Y0177636D01*
X0004600Y0177636D01*
X0004600Y0179235D02*
X0098246Y0179235D01*
X0004600Y0179235D01*
X0004600Y0180833D02*
X0097523Y0180833D01*
X0004600Y0180833D01*
X0004600Y0182432D02*
X0097095Y0182432D01*
X0004600Y0182432D01*
X0004600Y0184030D02*
X0041880Y0184030D01*
X0004600Y0184030D01*
X0004600Y0185629D02*
X0040081Y0185629D01*
X0004600Y0185629D01*
X0004600Y0187227D02*
X0039304Y0187227D01*
X0004600Y0187227D01*
X0004600Y0188826D02*
X0039092Y0188826D01*
X0004600Y0188826D01*
X0004600Y0190424D02*
X0039092Y0190424D01*
X0004600Y0190424D01*
X0004600Y0192023D02*
X0044165Y0192023D01*
X0004600Y0192023D01*
X0004600Y0193621D02*
X0039092Y0193621D01*
X0004600Y0193621D01*
X0004600Y0195220D02*
X0039092Y0195220D01*
X0004600Y0195220D01*
X0004600Y0196818D02*
X0039184Y0196818D01*
X0004600Y0196818D01*
X0004600Y0198417D02*
X0039762Y0198417D01*
X0004600Y0198417D01*
X0004600Y0200015D02*
X0041120Y0200015D01*
X0004600Y0200015D01*
X0004600Y0201614D02*
X0094913Y0201614D01*
X0004600Y0201614D01*
X0004600Y0203212D02*
X0096512Y0203212D01*
X0004600Y0203212D01*
X0004600Y0204811D02*
X0254906Y0204811D01*
X0004600Y0204811D01*
X0004600Y0206409D02*
X0254906Y0206409D01*
X0004600Y0206409D01*
X0004600Y0208008D02*
X0254906Y0208008D01*
X0004600Y0208008D01*
X0004600Y0209606D02*
X0254906Y0209606D01*
X0004600Y0209606D01*
X0004600Y0211205D02*
X0254906Y0211205D01*
X0004600Y0211205D01*
X0004600Y0212803D02*
X0254906Y0212803D01*
X0004600Y0212803D01*
X0004600Y0214402D02*
X0254906Y0214402D01*
X0004600Y0214402D01*
X0004600Y0216001D02*
X0254906Y0216001D01*
X0004600Y0216001D01*
X0004600Y0217599D02*
X0254906Y0217599D01*
X0004600Y0217599D01*
X0004600Y0219198D02*
X0011318Y0219198D01*
X0004600Y0219198D01*
X0004600Y0220796D02*
X0009370Y0220796D01*
X0004600Y0220796D01*
X0004600Y0222395D02*
X0007683Y0222395D01*
X0004600Y0222395D01*
X0004600Y0223993D02*
X0006760Y0223993D01*
X0004600Y0223993D01*
X0004600Y0225592D02*
X0005837Y0225592D01*
X0004600Y0225592D01*
X0005698Y0225833D02*
X0004937Y0230146D01*
X0004937Y0230146D01*
X0005698Y0225833D01*
X0007887Y0222040D01*
X0007887Y0222040D01*
X0007887Y0222040D01*
X0005698Y0225833D01*
X0005698Y0225833D01*
X0005698Y0225833D01*
X0005458Y0227190D02*
X0004600Y0227190D01*
X0005458Y0227190D01*
X0005176Y0228789D02*
X0004600Y0228789D01*
X0005176Y0228789D01*
X0004937Y0230146D02*
X0004937Y0230146D01*
X0005698Y0234460D01*
X0005698Y0234460D01*
X0007887Y0238253D01*
X0007887Y0238253D01*
X0011243Y0241068D01*
X0011243Y0241068D01*
X0015358Y0242566D01*
X0019738Y0242566D01*
X0023854Y0241068D01*
X0023854Y0241068D01*
X0027209Y0238253D01*
X0027209Y0238253D01*
X0027209Y0238253D01*
X0027209Y0238253D01*
X0027209Y0238253D01*
X0029399Y0234460D01*
X0029399Y0234460D01*
X0027209Y0238253D01*
X0023854Y0241068D01*
X0023854Y0241068D01*
X0019738Y0242566D01*
X0015358Y0242566D01*
X0011243Y0241068D01*
X0011243Y0241068D01*
X0007887Y0238253D01*
X0007887Y0238253D01*
X0005698Y0234460D01*
X0004937Y0230146D01*
X0004979Y0230387D02*
X0004616Y0230387D01*
X0004979Y0230387D01*
X0004751Y0231986D02*
X0005261Y0231986D01*
X0004751Y0231986D01*
X0005179Y0233584D02*
X0005543Y0233584D01*
X0005179Y0233584D01*
X0005698Y0234460D02*
X0005698Y0234460D01*
X0005632Y0235183D02*
X0006115Y0235183D01*
X0005632Y0235183D01*
X0006555Y0236781D02*
X0007038Y0236781D01*
X0006555Y0236781D01*
X0007627Y0238380D02*
X0008039Y0238380D01*
X0007627Y0238380D01*
X0009225Y0239978D02*
X0009944Y0239978D01*
X0009225Y0239978D01*
X0011671Y0241577D02*
X0012640Y0241577D01*
X0011671Y0241577D01*
X0022456Y0241577D02*
X0237050Y0241577D01*
X0022456Y0241577D01*
X0025152Y0239978D02*
X0234353Y0239978D01*
X0025152Y0239978D01*
X0027057Y0238380D02*
X0232448Y0238380D01*
X0027057Y0238380D01*
X0028058Y0236781D02*
X0231447Y0236781D01*
X0028058Y0236781D01*
X0028981Y0235183D02*
X0230524Y0235183D01*
X0028981Y0235183D01*
X0029399Y0234460D02*
X0029399Y0234460D01*
X0030159Y0230146D01*
X0029399Y0225833D01*
X0027209Y0222040D01*
X0027209Y0222040D01*
X0023854Y0219225D01*
X0023854Y0219225D01*
X0027209Y0222040D01*
X0027209Y0222040D01*
X0029399Y0225833D01*
X0029399Y0225833D01*
X0029399Y0225833D01*
X0030159Y0230146D01*
X0029399Y0234460D01*
X0029553Y0233584D02*
X0229953Y0233584D01*
X0029553Y0233584D01*
X0029835Y0231986D02*
X0229671Y0231986D01*
X0029835Y0231986D01*
X0030117Y0230387D02*
X0229389Y0230387D01*
X0030117Y0230387D01*
X0029920Y0228789D02*
X0229586Y0228789D01*
X0029920Y0228789D01*
X0029638Y0227190D02*
X0229868Y0227190D01*
X0029638Y0227190D01*
X0029259Y0225592D02*
X0230246Y0225592D01*
X0029259Y0225592D01*
X0028336Y0223993D02*
X0231169Y0223993D01*
X0028336Y0223993D01*
X0027413Y0222395D02*
X0232092Y0222395D01*
X0027413Y0222395D01*
X0025726Y0220796D02*
X0233780Y0220796D01*
X0025726Y0220796D01*
X0023854Y0219225D02*
X0019738Y0217727D01*
X0015358Y0217727D01*
X0015358Y0217727D01*
X0011243Y0219225D01*
X0007887Y0222040D01*
X0011243Y0219225D01*
X0015358Y0217727D01*
X0019738Y0217727D01*
X0023854Y0219225D01*
X0023854Y0219225D01*
X0023778Y0219198D02*
X0235727Y0219198D01*
X0023778Y0219198D01*
X0015358Y0217727D02*
X0015358Y0217727D01*
X0040360Y0199301D02*
X0039866Y0198620D01*
X0039484Y0197870D01*
X0039224Y0197070D01*
X0039092Y0196239D01*
X0039092Y0192545D01*
X0044165Y0192545D01*
X0044165Y0192000D01*
X0039092Y0192000D01*
X0039092Y0188306D01*
X0039224Y0187475D01*
X0039484Y0186675D01*
X0039866Y0185925D01*
X0040360Y0185244D01*
X0040955Y0184649D01*
X0041636Y0184155D01*
X0042386Y0183773D01*
X0043186Y0183513D01*
X0044017Y0183381D01*
X0044165Y0183381D01*
X0044165Y0192000D01*
X0039092Y0192000D01*
X0039092Y0188306D01*
X0039224Y0187475D01*
X0039484Y0186675D01*
X0039866Y0185925D01*
X0040360Y0185244D01*
X0040955Y0184649D01*
X0041636Y0184155D01*
X0042386Y0183773D01*
X0043186Y0183513D01*
X0044017Y0183381D01*
X0044165Y0183381D01*
X0044165Y0192000D01*
X0044165Y0192545D01*
X0039092Y0192545D01*
X0039092Y0196239D01*
X0039224Y0197070D01*
X0039484Y0197870D01*
X0039866Y0198620D01*
X0040360Y0199301D01*
X0040955Y0199896D01*
X0041636Y0200390D01*
X0042386Y0200772D01*
X0043186Y0201032D01*
X0044017Y0201164D01*
X0044165Y0201164D01*
X0044165Y0192545D01*
X0044711Y0192545D01*
X0044711Y0201164D01*
X0044859Y0201164D01*
X0045690Y0201032D01*
X0046490Y0200772D01*
X0047240Y0200390D01*
X0047920Y0199896D01*
X0048515Y0199301D01*
X0049010Y0198620D01*
X0049392Y0197870D01*
X0049630Y0197136D01*
X0050245Y0198620D01*
X0051636Y0200011D01*
X0053454Y0200764D01*
X0055422Y0200764D01*
X0057239Y0200011D01*
X0058631Y0198620D01*
X0059383Y0196802D01*
X0059383Y0194922D01*
X0079256Y0194922D01*
X0079256Y0196802D01*
X0080009Y0198620D01*
X0081400Y0200011D01*
X0083218Y0200764D01*
X0085185Y0200764D01*
X0087003Y0200011D01*
X0088394Y0198620D01*
X0089147Y0196802D01*
X0089147Y0187743D01*
X0088394Y0185925D01*
X0087003Y0184534D01*
X0085185Y0183781D01*
X0083218Y0183781D01*
X0081400Y0184534D01*
X0080009Y0185925D01*
X0079256Y0187743D01*
X0079256Y0189622D01*
X0059383Y0189622D01*
X0059383Y0187743D01*
X0058631Y0185925D01*
X0057239Y0184534D01*
X0055422Y0183781D01*
X0053454Y0183781D01*
X0051636Y0184534D01*
X0050245Y0185925D01*
X0049630Y0187409D01*
X0049392Y0186675D01*
X0049010Y0185925D01*
X0048515Y0185244D01*
X0047920Y0184649D01*
X0047240Y0184155D01*
X0046490Y0183773D01*
X0045690Y0183513D01*
X0044859Y0183381D01*
X0044711Y0183381D01*
X0044711Y0192000D01*
X0044165Y0192000D01*
X0044711Y0192000D01*
X0044711Y0183381D01*
X0044859Y0183381D01*
X0045690Y0183513D01*
X0046490Y0183773D01*
X0047240Y0184155D01*
X0047920Y0184649D01*
X0048515Y0185244D01*
X0049010Y0185925D01*
X0049392Y0186675D01*
X0049630Y0187409D01*
X0050245Y0185925D01*
X0051636Y0184534D01*
X0053454Y0183781D01*
X0055422Y0183781D01*
X0057239Y0184534D01*
X0058631Y0185925D01*
X0059383Y0187743D01*
X0059383Y0189622D01*
X0079256Y0189622D01*
X0079256Y0187743D01*
X0080009Y0185925D01*
X0081400Y0184534D01*
X0083218Y0183781D01*
X0085185Y0183781D01*
X0087003Y0184534D01*
X0088394Y0185925D01*
X0089147Y0187743D01*
X0089147Y0196802D01*
X0088394Y0198620D01*
X0087003Y0200011D01*
X0085185Y0200764D01*
X0083218Y0200764D01*
X0081400Y0200011D01*
X0080009Y0198620D01*
X0079256Y0196802D01*
X0079256Y0194922D01*
X0059383Y0194922D01*
X0059383Y0196802D01*
X0058631Y0198620D01*
X0057239Y0200011D01*
X0055422Y0200764D01*
X0053454Y0200764D01*
X0051636Y0200011D01*
X0050245Y0198620D01*
X0049630Y0197136D01*
X0049392Y0197870D01*
X0049010Y0198620D01*
X0048515Y0199301D01*
X0047920Y0199896D01*
X0047240Y0200390D01*
X0046490Y0200772D01*
X0045690Y0201032D01*
X0044859Y0201164D01*
X0044711Y0201164D01*
X0044711Y0192545D01*
X0044165Y0192545D01*
X0044165Y0201164D01*
X0044017Y0201164D01*
X0043186Y0201032D01*
X0042386Y0200772D01*
X0041636Y0200390D01*
X0040955Y0199896D01*
X0040360Y0199301D01*
X0044165Y0200015D02*
X0044711Y0200015D01*
X0044165Y0200015D01*
X0044165Y0198417D02*
X0044711Y0198417D01*
X0044165Y0198417D01*
X0044165Y0196818D02*
X0044711Y0196818D01*
X0044165Y0196818D01*
X0044165Y0195220D02*
X0044711Y0195220D01*
X0044165Y0195220D01*
X0044165Y0193621D02*
X0044711Y0193621D01*
X0044165Y0193621D01*
X0044320Y0192391D02*
X0044438Y0192272D01*
X0044320Y0192391D02*
X0044320Y0202981D01*
X0047863Y0206524D01*
X0161643Y0206524D01*
X0165304Y0202863D01*
X0165304Y0192272D01*
X0165031Y0192023D02*
X0139698Y0192023D01*
X0165031Y0192023D01*
X0165031Y0192000D02*
X0159958Y0192000D01*
X0159958Y0188306D01*
X0160090Y0187475D01*
X0160350Y0186675D01*
X0160732Y0185925D01*
X0161226Y0185244D01*
X0161821Y0184649D01*
X0162502Y0184155D01*
X0163252Y0183773D01*
X0164052Y0183513D01*
X0164883Y0183381D01*
X0165031Y0183381D01*
X0165031Y0192000D01*
X0165031Y0192545D01*
X0159958Y0192545D01*
X0159958Y0196239D01*
X0160090Y0197070D01*
X0160350Y0197870D01*
X0160732Y0198620D01*
X0161226Y0199301D01*
X0161821Y0199896D01*
X0162502Y0200390D01*
X0163252Y0200772D01*
X0164052Y0201032D01*
X0164883Y0201164D01*
X0165031Y0201164D01*
X0165031Y0192545D01*
X0165031Y0192000D01*
X0159958Y0192000D01*
X0159958Y0188306D01*
X0160090Y0187475D01*
X0160350Y0186675D01*
X0160732Y0185925D01*
X0161226Y0185244D01*
X0161821Y0184649D01*
X0162502Y0184155D01*
X0163252Y0183773D01*
X0164052Y0183513D01*
X0164883Y0183381D01*
X0165031Y0183381D01*
X0165031Y0192000D01*
X0165577Y0192000D01*
X0165577Y0183381D01*
X0165725Y0183381D01*
X0166556Y0183513D01*
X0167356Y0183773D01*
X0168106Y0184155D01*
X0168786Y0184649D01*
X0169381Y0185244D01*
X0169876Y0185925D01*
X0170258Y0186675D01*
X0170497Y0187409D01*
X0171111Y0185925D01*
X0172502Y0184534D01*
X0174320Y0183781D01*
X0176288Y0183781D01*
X0178105Y0184534D01*
X0179497Y0185925D01*
X0180250Y0187743D01*
X0180250Y0189622D01*
X0200909Y0189622D01*
X0200909Y0187743D01*
X0201662Y0185925D01*
X0203054Y0184534D01*
X0204871Y0183781D01*
X0206839Y0183781D01*
X0208657Y0184534D01*
X0210048Y0185925D01*
X0210801Y0187743D01*
X0210801Y0196802D01*
X0210048Y0198620D01*
X0208657Y0200011D01*
X0206839Y0200764D01*
X0204871Y0200764D01*
X0203054Y0200011D01*
X0201662Y0198620D01*
X0200909Y0196802D01*
X0200909Y0194922D01*
X0180250Y0194922D01*
X0180250Y0196802D01*
X0179497Y0198620D01*
X0178105Y0200011D01*
X0176288Y0200764D01*
X0174320Y0200764D01*
X0172502Y0200011D01*
X0171111Y0198620D01*
X0170497Y0197136D01*
X0170258Y0197870D01*
X0169876Y0198620D01*
X0169381Y0199301D01*
X0168786Y0199896D01*
X0168106Y0200390D01*
X0167356Y0200772D01*
X0166556Y0201032D01*
X0165725Y0201164D01*
X0165577Y0201164D01*
X0165577Y0192545D01*
X0165031Y0192545D01*
X0159958Y0192545D01*
X0159958Y0196239D01*
X0160090Y0197070D01*
X0160350Y0197870D01*
X0160732Y0198620D01*
X0161226Y0199301D01*
X0161821Y0199896D01*
X0162502Y0200390D01*
X0163252Y0200772D01*
X0164052Y0201032D01*
X0164883Y0201164D01*
X0165031Y0201164D01*
X0165031Y0192545D01*
X0165577Y0192545D01*
X0165577Y0201164D01*
X0165725Y0201164D01*
X0166556Y0201032D01*
X0167356Y0200772D01*
X0168106Y0200390D01*
X0168786Y0199896D01*
X0169381Y0199301D01*
X0169876Y0198620D01*
X0170258Y0197870D01*
X0170497Y0197136D01*
X0171111Y0198620D01*
X0172502Y0200011D01*
X0174320Y0200764D01*
X0176288Y0200764D01*
X0178105Y0200011D01*
X0179497Y0198620D01*
X0180250Y0196802D01*
X0180250Y0194922D01*
X0200909Y0194922D01*
X0200909Y0196802D01*
X0201662Y0198620D01*
X0203054Y0200011D01*
X0204871Y0200764D01*
X0206839Y0200764D01*
X0208657Y0200011D01*
X0210048Y0198620D01*
X0210801Y0196802D01*
X0210801Y0187743D01*
X0210048Y0185925D01*
X0208657Y0184534D01*
X0206839Y0183781D01*
X0204871Y0183781D01*
X0203054Y0184534D01*
X0201662Y0185925D01*
X0200909Y0187743D01*
X0200909Y0189622D01*
X0180250Y0189622D01*
X0180250Y0187743D01*
X0179497Y0185925D01*
X0178105Y0184534D01*
X0176288Y0183781D01*
X0174320Y0183781D01*
X0172502Y0184534D01*
X0171111Y0185925D01*
X0170497Y0187409D01*
X0170258Y0186675D01*
X0169876Y0185925D01*
X0169381Y0185244D01*
X0168786Y0184649D01*
X0168106Y0184155D01*
X0167356Y0183773D01*
X0166556Y0183513D01*
X0165725Y0183381D01*
X0165577Y0183381D01*
X0165577Y0192000D01*
X0165031Y0192000D01*
X0165031Y0190424D02*
X0165577Y0190424D01*
X0165031Y0190424D01*
X0165031Y0188826D02*
X0165577Y0188826D01*
X0165031Y0188826D01*
X0165031Y0187227D02*
X0165577Y0187227D01*
X0165031Y0187227D01*
X0165031Y0185629D02*
X0165577Y0185629D01*
X0165031Y0185629D01*
X0165031Y0184030D02*
X0165577Y0184030D01*
X0165031Y0184030D01*
X0162746Y0184030D02*
X0137442Y0184030D01*
X0162746Y0184030D01*
X0160947Y0185629D02*
X0138649Y0185629D01*
X0160947Y0185629D01*
X0160170Y0187227D02*
X0139485Y0187227D01*
X0160170Y0187227D01*
X0159958Y0188826D02*
X0139698Y0188826D01*
X0159958Y0188826D01*
X0159958Y0190424D02*
X0139698Y0190424D01*
X0159958Y0190424D01*
X0159958Y0193621D02*
X0139698Y0193621D01*
X0159958Y0193621D01*
X0159958Y0195220D02*
X0139698Y0195220D01*
X0159958Y0195220D01*
X0160050Y0196818D02*
X0139692Y0196818D01*
X0160050Y0196818D01*
X0160629Y0198417D02*
X0139029Y0198417D01*
X0160629Y0198417D01*
X0161986Y0200015D02*
X0137543Y0200015D01*
X0161986Y0200015D01*
X0165031Y0200015D02*
X0165577Y0200015D01*
X0165031Y0200015D01*
X0165031Y0198417D02*
X0165577Y0198417D01*
X0165031Y0198417D01*
X0165031Y0196818D02*
X0165577Y0196818D01*
X0165031Y0196818D01*
X0165031Y0195220D02*
X0165577Y0195220D01*
X0165031Y0195220D01*
X0165031Y0193621D02*
X0165577Y0193621D01*
X0165031Y0193621D01*
X0169979Y0198417D02*
X0171027Y0198417D01*
X0169979Y0198417D01*
X0168621Y0200015D02*
X0172513Y0200015D01*
X0168621Y0200015D01*
X0178094Y0200015D02*
X0203065Y0200015D01*
X0178094Y0200015D01*
X0179581Y0198417D02*
X0201578Y0198417D01*
X0179581Y0198417D01*
X0180243Y0196818D02*
X0200916Y0196818D01*
X0180243Y0196818D01*
X0180250Y0195220D02*
X0200909Y0195220D01*
X0180250Y0195220D01*
X0180250Y0188826D02*
X0200909Y0188826D01*
X0180250Y0188826D01*
X0180036Y0187227D02*
X0201123Y0187227D01*
X0180036Y0187227D01*
X0179200Y0185629D02*
X0201959Y0185629D01*
X0179200Y0185629D01*
X0176889Y0184030D02*
X0204270Y0184030D01*
X0176889Y0184030D01*
X0175347Y0182153D02*
X0173922Y0182153D01*
X0172606Y0181608D01*
X0171599Y0180600D01*
X0171054Y0179284D01*
X0171054Y0177859D01*
X0171599Y0176543D01*
X0172606Y0175536D01*
X0173922Y0174991D01*
X0175347Y0174991D01*
X0176663Y0175536D01*
X0177049Y0175922D01*
X0213429Y0175922D01*
X0214403Y0176325D01*
X0217356Y0179278D01*
X0218102Y0180023D01*
X0218505Y0180997D01*
X0218505Y0184471D01*
X0218657Y0184534D01*
X0220048Y0185925D01*
X0220801Y0187743D01*
X0220801Y0196802D01*
X0220048Y0198620D01*
X0218657Y0200011D01*
X0216839Y0200764D01*
X0214871Y0200764D01*
X0213054Y0200011D01*
X0211662Y0198620D01*
X0210909Y0196802D01*
X0210909Y0187743D01*
X0211662Y0185925D01*
X0213054Y0184534D01*
X0213205Y0184471D01*
X0213205Y0182622D01*
X0211805Y0181222D01*
X0177049Y0181222D01*
X0176663Y0181608D01*
X0175347Y0182153D01*
X0173922Y0182153D01*
X0172606Y0181608D01*
X0171599Y0180600D01*
X0171054Y0179284D01*
X0171054Y0177859D01*
X0171599Y0176543D01*
X0172606Y0175536D01*
X0173922Y0174991D01*
X0175347Y0174991D01*
X0176663Y0175536D01*
X0177049Y0175922D01*
X0213429Y0175922D01*
X0214403Y0176325D01*
X0217356Y0179278D01*
X0218102Y0180023D01*
X0218505Y0180997D01*
X0218505Y0184471D01*
X0218657Y0184534D01*
X0220048Y0185925D01*
X0220801Y0187743D01*
X0220801Y0196802D01*
X0220048Y0198620D01*
X0218657Y0200011D01*
X0216839Y0200764D01*
X0214871Y0200764D01*
X0213054Y0200011D01*
X0211662Y0198620D01*
X0210909Y0196802D01*
X0210909Y0187743D01*
X0211662Y0185925D01*
X0213054Y0184534D01*
X0213205Y0184471D01*
X0213205Y0182622D01*
X0211805Y0181222D01*
X0177049Y0181222D01*
X0176663Y0181608D01*
X0175347Y0182153D01*
X0173719Y0184030D02*
X0167861Y0184030D01*
X0173719Y0184030D01*
X0171408Y0185629D02*
X0169661Y0185629D01*
X0171408Y0185629D01*
X0170572Y0187227D02*
X0170437Y0187227D01*
X0170572Y0187227D01*
X0171832Y0180833D02*
X0138877Y0180833D01*
X0171832Y0180833D01*
X0171054Y0179235D02*
X0140475Y0179235D01*
X0171054Y0179235D01*
X0171146Y0177636D02*
X0142074Y0177636D01*
X0171146Y0177636D01*
X0172104Y0176038D02*
X0143672Y0176038D01*
X0172104Y0176038D01*
X0158059Y0161651D02*
X0195586Y0161651D01*
X0158059Y0161651D01*
X0159657Y0160053D02*
X0236844Y0160053D01*
X0159657Y0160053D01*
X0161256Y0158454D02*
X0236844Y0158454D01*
X0161256Y0158454D01*
X0162854Y0156856D02*
X0236844Y0156856D01*
X0162854Y0156856D01*
X0164453Y0155257D02*
X0236844Y0155257D01*
X0164453Y0155257D01*
X0166051Y0153659D02*
X0236844Y0153659D01*
X0166051Y0153659D01*
X0167650Y0152060D02*
X0236844Y0152060D01*
X0167650Y0152060D01*
X0169248Y0150462D02*
X0236844Y0150462D01*
X0169248Y0150462D01*
X0170847Y0148863D02*
X0236844Y0148863D01*
X0170847Y0148863D01*
X0172445Y0147265D02*
X0236844Y0147265D01*
X0172445Y0147265D01*
X0174044Y0145666D02*
X0236844Y0145666D01*
X0174044Y0145666D01*
X0175642Y0144068D02*
X0236844Y0144068D01*
X0175642Y0144068D01*
X0177241Y0142469D02*
X0236844Y0142469D01*
X0177241Y0142469D01*
X0178839Y0140870D02*
X0236844Y0140870D01*
X0178839Y0140870D01*
X0180438Y0139272D02*
X0236844Y0139272D01*
X0180438Y0139272D01*
X0180858Y0138852D02*
X0137442Y0182268D01*
X0137442Y0184488D01*
X0137554Y0184534D01*
X0138945Y0185925D01*
X0139698Y0187743D01*
X0139698Y0196802D01*
X0138945Y0198620D01*
X0137554Y0200011D01*
X0135737Y0200764D01*
X0133769Y0200764D01*
X0131951Y0200011D01*
X0130560Y0198620D01*
X0129807Y0196802D01*
X0129807Y0187743D01*
X0130560Y0185925D01*
X0131951Y0184534D01*
X0132142Y0184455D01*
X0132142Y0180643D01*
X0132546Y0179669D01*
X0133291Y0178924D01*
X0175961Y0136254D01*
X0175961Y0133712D01*
X0175275Y0133712D01*
X0174455Y0132892D01*
X0174455Y0127401D01*
X0175275Y0126581D01*
X0181947Y0126581D01*
X0182767Y0127401D01*
X0182767Y0132892D01*
X0181947Y0133712D01*
X0181261Y0133712D01*
X0181261Y0137878D01*
X0180858Y0138852D01*
X0137442Y0182268D01*
X0137442Y0184488D01*
X0137554Y0184534D01*
X0138945Y0185925D01*
X0139698Y0187743D01*
X0139698Y0196802D01*
X0138945Y0198620D01*
X0137554Y0200011D01*
X0135737Y0200764D01*
X0133769Y0200764D01*
X0131951Y0200011D01*
X0130560Y0198620D01*
X0129807Y0196802D01*
X0129807Y0187743D01*
X0130560Y0185925D01*
X0131951Y0184534D01*
X0132142Y0184455D01*
X0132142Y0180643D01*
X0132546Y0179669D01*
X0133291Y0178924D01*
X0175961Y0136254D01*
X0175961Y0133712D01*
X0175275Y0133712D01*
X0174455Y0132892D01*
X0174455Y0127401D01*
X0175275Y0126581D01*
X0181947Y0126581D01*
X0182767Y0127401D01*
X0182767Y0132892D01*
X0181947Y0133712D01*
X0181261Y0133712D01*
X0181261Y0137878D01*
X0180858Y0138852D01*
X0181261Y0137673D02*
X0236844Y0137673D01*
X0181261Y0137673D01*
X0181261Y0136075D02*
X0236844Y0136075D01*
X0181261Y0136075D01*
X0181261Y0134476D02*
X0236844Y0134476D01*
X0181261Y0134476D01*
X0182767Y0132878D02*
X0236844Y0132878D01*
X0182767Y0132878D01*
X0182767Y0131279D02*
X0236844Y0131279D01*
X0182767Y0131279D01*
X0182767Y0129681D02*
X0236844Y0129681D01*
X0182767Y0129681D01*
X0182767Y0128082D02*
X0236844Y0128082D01*
X0182767Y0128082D01*
X0181947Y0125838D02*
X0175275Y0125838D01*
X0174455Y0125018D01*
X0174455Y0119527D01*
X0175275Y0118707D01*
X0181947Y0118707D01*
X0182767Y0119527D01*
X0182767Y0119622D01*
X0215909Y0119622D01*
X0215909Y0094066D01*
X0204354Y0082511D01*
X0201490Y0079647D01*
X0175641Y0079647D01*
X0175641Y0079742D01*
X0174821Y0080562D01*
X0168149Y0080562D01*
X0167329Y0079742D01*
X0167329Y0079647D01*
X0163830Y0079647D01*
X0163830Y0079742D01*
X0163010Y0080562D01*
X0156338Y0080562D01*
X0155518Y0079742D01*
X0155518Y0074252D01*
X0156338Y0073431D01*
X0163010Y0073431D01*
X0163830Y0074252D01*
X0163830Y0074347D01*
X0167329Y0074347D01*
X0167329Y0074252D01*
X0168149Y0073431D01*
X0174821Y0073431D01*
X0175641Y0074252D01*
X0175641Y0074347D01*
X0195182Y0074347D01*
X0195167Y0074341D01*
X0194220Y0073393D01*
X0193707Y0072155D01*
X0193707Y0070815D01*
X0194220Y0069577D01*
X0195167Y0068629D01*
X0196406Y0068117D01*
X0197746Y0068117D01*
X0198984Y0068629D01*
X0199931Y0069577D01*
X0200444Y0070815D01*
X0200444Y0071106D01*
X0203205Y0073867D01*
X0203205Y0063223D01*
X0203054Y0063160D01*
X0201662Y0061769D01*
X0200909Y0059951D01*
X0200909Y0050893D01*
X0201662Y0049075D01*
X0203054Y0047684D01*
X0204871Y0046931D01*
X0206839Y0046931D01*
X0208657Y0047684D01*
X0210048Y0049075D01*
X0210662Y0050559D01*
X0210901Y0049824D01*
X0211283Y0049075D01*
X0211778Y0048394D01*
X0212373Y0047799D01*
X0213053Y0047304D01*
X0213803Y0046922D01*
X0214603Y0046662D01*
X0215434Y0046531D01*
X0215582Y0046531D01*
X0215582Y0055149D01*
X0216128Y0055149D01*
X0216128Y0046531D01*
X0216276Y0046531D01*
X0217107Y0046662D01*
X0217907Y0046922D01*
X0218657Y0047304D01*
X0219338Y0047799D01*
X0219933Y0048394D01*
X0220427Y0049075D01*
X0220809Y0049824D01*
X0221069Y0050625D01*
X0221201Y0051456D01*
X0221201Y0055149D01*
X0216128Y0055149D01*
X0216128Y0046531D01*
X0216276Y0046531D01*
X0217107Y0046662D01*
X0217907Y0046922D01*
X0218657Y0047304D01*
X0219338Y0047799D01*
X0219933Y0048394D01*
X0220427Y0049075D01*
X0220809Y0049824D01*
X0221069Y0050625D01*
X0221201Y0051456D01*
X0221201Y0055149D01*
X0216128Y0055149D01*
X0215582Y0055149D01*
X0215582Y0046531D01*
X0215434Y0046531D01*
X0214603Y0046662D01*
X0213803Y0046922D01*
X0213053Y0047304D01*
X0212373Y0047799D01*
X0211778Y0048394D01*
X0211283Y0049075D01*
X0210901Y0049824D01*
X0210662Y0050559D01*
X0210048Y0049075D01*
X0208657Y0047684D01*
X0206839Y0046931D01*
X0204871Y0046931D01*
X0203054Y0047684D01*
X0201662Y0049075D01*
X0200909Y0050893D01*
X0200909Y0059951D01*
X0201662Y0061769D01*
X0203054Y0063160D01*
X0203205Y0063223D01*
X0203205Y0073867D01*
X0200444Y0071106D01*
X0200444Y0070815D01*
X0199931Y0069577D01*
X0198984Y0068629D01*
X0197746Y0068117D01*
X0196406Y0068117D01*
X0195167Y0068629D01*
X0194220Y0069577D01*
X0193707Y0070815D01*
X0193707Y0072155D01*
X0194220Y0073393D01*
X0195167Y0074341D01*
X0195182Y0074347D01*
X0175641Y0074347D01*
X0175641Y0074252D01*
X0174821Y0073431D01*
X0168149Y0073431D01*
X0167329Y0074252D01*
X0167329Y0074347D01*
X0163830Y0074347D01*
X0163830Y0074252D01*
X0163010Y0073431D01*
X0156338Y0073431D01*
X0155518Y0074252D01*
X0155518Y0079742D01*
X0156338Y0080562D01*
X0163010Y0080562D01*
X0163830Y0079742D01*
X0163830Y0079647D01*
X0167329Y0079647D01*
X0167329Y0079742D01*
X0168149Y0080562D01*
X0174821Y0080562D01*
X0175641Y0079742D01*
X0175641Y0079647D01*
X0201490Y0079647D01*
X0204354Y0082511D01*
X0215909Y0094066D01*
X0215909Y0119622D01*
X0182767Y0119622D01*
X0182767Y0119527D01*
X0181947Y0118707D01*
X0175275Y0118707D01*
X0174455Y0119527D01*
X0174455Y0125018D01*
X0175275Y0125838D01*
X0181947Y0125838D01*
X0182767Y0125018D01*
X0182767Y0124922D01*
X0217681Y0124922D01*
X0218655Y0124519D01*
X0221756Y0121418D01*
X0236844Y0121418D01*
X0236844Y0167869D01*
X0238133Y0169157D01*
X0247829Y0169157D01*
X0249118Y0167869D01*
X0249118Y0045574D01*
X0247829Y0044285D01*
X0238133Y0044285D01*
X0236844Y0045574D01*
X0236844Y0092418D01*
X0221756Y0092418D01*
X0208505Y0079167D01*
X0208505Y0063223D01*
X0208657Y0063160D01*
X0210048Y0061769D01*
X0210662Y0060285D01*
X0210901Y0061020D01*
X0211283Y0061769D01*
X0211778Y0062450D01*
X0212373Y0063045D01*
X0213053Y0063540D01*
X0213803Y0063922D01*
X0214603Y0064182D01*
X0215434Y0064313D01*
X0215582Y0064313D01*
X0215582Y0055695D01*
X0216128Y0055695D01*
X0216128Y0064313D01*
X0216276Y0064313D01*
X0217107Y0064182D01*
X0217907Y0063922D01*
X0218657Y0063540D01*
X0219338Y0063045D01*
X0219933Y0062450D01*
X0220427Y0061769D01*
X0220809Y0061020D01*
X0221069Y0060219D01*
X0221201Y0059388D01*
X0221201Y0055695D01*
X0216128Y0055695D01*
X0215582Y0055695D01*
X0215582Y0064313D01*
X0215434Y0064313D01*
X0214603Y0064182D01*
X0213803Y0063922D01*
X0213053Y0063540D01*
X0212373Y0063045D01*
X0211778Y0062450D01*
X0211283Y0061769D01*
X0210901Y0061020D01*
X0210662Y0060285D01*
X0210048Y0061769D01*
X0208657Y0063160D01*
X0208505Y0063223D01*
X0208505Y0079167D01*
X0221756Y0092418D01*
X0236844Y0092418D01*
X0236844Y0045574D01*
X0238133Y0044285D01*
X0247829Y0044285D01*
X0249118Y0045574D01*
X0249118Y0167869D01*
X0247829Y0169157D01*
X0238133Y0169157D01*
X0236844Y0167869D01*
X0236844Y0121418D01*
X0221756Y0121418D01*
X0218655Y0124519D01*
X0217681Y0124922D01*
X0182767Y0124922D01*
X0182767Y0125018D01*
X0181947Y0125838D01*
X0174455Y0124885D02*
X0170917Y0124885D01*
X0174455Y0124885D01*
X0174455Y0123287D02*
X0170917Y0123287D01*
X0174455Y0123287D01*
X0174455Y0121688D02*
X0170917Y0121688D01*
X0174455Y0121688D01*
X0174455Y0120090D02*
X0170917Y0120090D01*
X0174455Y0120090D01*
X0175236Y0117964D02*
X0174416Y0117144D01*
X0174416Y0116598D01*
X0170917Y0116598D01*
X0170917Y0117144D01*
X0170096Y0117964D01*
X0163425Y0117964D01*
X0162605Y0117144D01*
X0162605Y0116598D01*
X0159798Y0116598D01*
X0157543Y0118853D01*
X0156255Y0120142D01*
X0151851Y0120142D01*
X0151413Y0120580D01*
X0151713Y0120880D01*
X0162605Y0120880D01*
X0162605Y0119527D01*
X0163425Y0118707D01*
X0170096Y0118707D01*
X0170917Y0119527D01*
X0170917Y0125018D01*
X0170096Y0125838D01*
X0163425Y0125838D01*
X0162867Y0125280D01*
X0160265Y0125280D01*
X0160741Y0125756D01*
X0161287Y0127072D01*
X0161287Y0128497D01*
X0160741Y0129813D01*
X0159734Y0130820D01*
X0158418Y0131365D01*
X0156993Y0131365D01*
X0155677Y0130820D01*
X0154670Y0129813D01*
X0154124Y0128497D01*
X0154124Y0127314D01*
X0152090Y0125280D01*
X0151713Y0125280D01*
X0151413Y0125580D01*
X0149276Y0125580D01*
X0149276Y0136963D01*
X0147987Y0138252D01*
X0146018Y0140220D01*
X0144735Y0140220D01*
X0144735Y0141356D01*
X0143915Y0142176D01*
X0143370Y0142176D01*
X0143370Y0145676D01*
X0143915Y0145676D01*
X0144735Y0146496D01*
X0144735Y0153167D01*
X0143915Y0153987D01*
X0143370Y0153987D01*
X0143370Y0155861D01*
X0142081Y0157150D01*
X0139719Y0159512D01*
X0126873Y0159512D01*
X0125584Y0158223D01*
X0099314Y0131953D01*
X0086271Y0131953D01*
X0086271Y0132498D01*
X0085451Y0133318D01*
X0078779Y0133318D01*
X0077959Y0132498D01*
X0077959Y0131953D01*
X0076440Y0131953D01*
X0074191Y0129704D01*
X0068087Y0129704D01*
X0067267Y0128883D01*
X0067267Y0125654D01*
X0065810Y0125654D01*
X0065867Y0125867D01*
X0065867Y0127203D01*
X0061567Y0127203D01*
X0061567Y0127204D01*
X0061567Y0127204D01*
X0061567Y0130104D01*
X0058830Y0130104D01*
X0058372Y0129981D01*
X0057962Y0129744D01*
X0057627Y0129409D01*
X0057390Y0128998D01*
X0057267Y0128541D01*
X0057267Y0127204D01*
X0061567Y0127204D01*
X0061567Y0127204D01*
X0061567Y0130104D01*
X0061567Y0127204D01*
X0061567Y0130104D01*
X0064304Y0130104D01*
X0064762Y0129981D01*
X0065172Y0129744D01*
X0065507Y0129409D01*
X0065744Y0128998D01*
X0065867Y0128541D01*
X0065867Y0127204D01*
X0061567Y0127204D01*
X0065867Y0127204D01*
X0065867Y0128541D01*
X0065744Y0128998D01*
X0065507Y0129409D01*
X0065172Y0129744D01*
X0064762Y0129981D01*
X0064304Y0130104D01*
X0061567Y0130104D01*
X0058830Y0130104D01*
X0058372Y0129981D01*
X0057962Y0129744D01*
X0057627Y0129409D01*
X0057390Y0128998D01*
X0057267Y0128541D01*
X0057267Y0127204D01*
X0061567Y0127204D01*
X0061567Y0127203D01*
X0065867Y0127203D01*
X0065867Y0125867D01*
X0065810Y0125654D01*
X0067267Y0125654D01*
X0067267Y0128883D01*
X0068087Y0129704D01*
X0074191Y0129704D01*
X0076440Y0131953D01*
X0077959Y0131953D01*
X0077959Y0132498D01*
X0078779Y0133318D01*
X0085451Y0133318D01*
X0086271Y0132498D01*
X0086271Y0131953D01*
X0099314Y0131953D01*
X0125584Y0158223D01*
X0126873Y0159512D01*
X0139719Y0159512D01*
X0142081Y0157150D01*
X0143370Y0155861D01*
X0143370Y0153987D01*
X0143915Y0153987D01*
X0144735Y0153167D01*
X0144735Y0146496D01*
X0143915Y0145676D01*
X0143370Y0145676D01*
X0143370Y0142176D01*
X0143915Y0142176D01*
X0144735Y0141356D01*
X0144735Y0140220D01*
X0146018Y0140220D01*
X0147987Y0138252D01*
X0149276Y0136963D01*
X0149276Y0125580D01*
X0151413Y0125580D01*
X0151713Y0125280D01*
X0152090Y0125280D01*
X0154124Y0127314D01*
X0154124Y0128497D01*
X0154670Y0129813D01*
X0155677Y0130820D01*
X0156993Y0131365D01*
X0158418Y0131365D01*
X0159734Y0130820D01*
X0160741Y0129813D01*
X0161287Y0128497D01*
X0161287Y0127072D01*
X0160741Y0125756D01*
X0160265Y0125280D01*
X0162867Y0125280D01*
X0163425Y0125838D01*
X0170096Y0125838D01*
X0170917Y0125018D01*
X0170917Y0119527D01*
X0170096Y0118707D01*
X0163425Y0118707D01*
X0162605Y0119527D01*
X0162605Y0120880D01*
X0151713Y0120880D01*
X0151413Y0120580D01*
X0142453Y0120580D01*
X0141633Y0121400D01*
X0141633Y0124759D01*
X0142453Y0125580D01*
X0144876Y0125580D01*
X0144876Y0135141D01*
X0144735Y0135281D01*
X0144735Y0134685D01*
X0143915Y0133865D01*
X0138425Y0133865D01*
X0137605Y0134685D01*
X0137605Y0141356D01*
X0138425Y0142176D01*
X0138970Y0142176D01*
X0138970Y0145676D01*
X0138425Y0145676D01*
X0137605Y0146496D01*
X0137605Y0153167D01*
X0138425Y0153987D01*
X0138970Y0153987D01*
X0138970Y0154038D01*
X0137897Y0155112D01*
X0128696Y0155112D01*
X0105536Y0131953D01*
X0106717Y0131953D01*
X0107372Y0132608D01*
X0108610Y0133121D01*
X0109950Y0133121D01*
X0111188Y0132608D01*
X0112136Y0131661D01*
X0112649Y0130423D01*
X0112649Y0129083D01*
X0112136Y0127845D01*
X0111188Y0126897D01*
X0109950Y0126384D01*
X0108610Y0126384D01*
X0107372Y0126897D01*
X0106717Y0127553D01*
X0086271Y0127553D01*
X0086271Y0127007D01*
X0085451Y0126187D01*
X0078779Y0126187D01*
X0077959Y0127007D01*
X0077959Y0127249D01*
X0076992Y0126282D01*
X0076363Y0125654D01*
X0077514Y0125654D01*
X0078252Y0124916D01*
X0078779Y0125444D01*
X0085451Y0125444D01*
X0086271Y0124624D01*
X0086271Y0124079D01*
X0089770Y0124079D01*
X0089770Y0124624D01*
X0090590Y0125444D01*
X0097262Y0125444D01*
X0098082Y0124624D01*
X0098082Y0124079D01*
X0109455Y0124079D01*
X0109455Y0124624D01*
X0110275Y0125444D01*
X0116947Y0125444D01*
X0117111Y0125280D01*
X0122753Y0125280D01*
X0123053Y0125580D01*
X0125191Y0125580D01*
X0125191Y0136963D01*
X0126479Y0138252D01*
X0128448Y0140220D01*
X0129731Y0140220D01*
X0129731Y0141356D01*
X0130551Y0142176D01*
X0131096Y0142176D01*
X0131096Y0145676D01*
X0130551Y0145676D01*
X0129731Y0146496D01*
X0129731Y0153167D01*
X0130551Y0153987D01*
X0136041Y0153987D01*
X0136861Y0153167D01*
X0136861Y0146496D01*
X0136041Y0145676D01*
X0135496Y0145676D01*
X0135496Y0142176D01*
X0136041Y0142176D01*
X0136861Y0141356D01*
X0136861Y0134685D01*
X0136041Y0133865D01*
X0130551Y0133865D01*
X0129731Y0134685D01*
X0129731Y0135281D01*
X0129591Y0135141D01*
X0129591Y0125580D01*
X0132013Y0125580D01*
X0132833Y0124759D01*
X0132833Y0121400D01*
X0132013Y0120580D01*
X0128127Y0120580D01*
X0128127Y0120580D01*
X0132013Y0120580D01*
X0132833Y0121400D01*
X0132833Y0124759D01*
X0132013Y0125580D01*
X0129591Y0125580D01*
X0129591Y0135141D01*
X0129731Y0135281D01*
X0129731Y0134685D01*
X0130551Y0133865D01*
X0136041Y0133865D01*
X0136861Y0134685D01*
X0136861Y0141356D01*
X0136041Y0142176D01*
X0135496Y0142176D01*
X0135496Y0145676D01*
X0136041Y0145676D01*
X0136861Y0146496D01*
X0136861Y0153167D01*
X0136041Y0153987D01*
X0130551Y0153987D01*
X0129731Y0153167D01*
X0129731Y0146496D01*
X0130551Y0145676D01*
X0131096Y0145676D01*
X0131096Y0142176D01*
X0130551Y0142176D01*
X0129731Y0141356D01*
X0129731Y0140220D01*
X0128448Y0140220D01*
X0126479Y0138252D01*
X0125191Y0136963D01*
X0125191Y0125580D01*
X0123053Y0125580D01*
X0122753Y0125280D01*
X0117111Y0125280D01*
X0116947Y0125444D01*
X0110275Y0125444D01*
X0109455Y0124624D01*
X0109455Y0124079D01*
X0098082Y0124079D01*
X0098082Y0124624D01*
X0097262Y0125444D01*
X0090590Y0125444D01*
X0089770Y0124624D01*
X0089770Y0124079D01*
X0086271Y0124079D01*
X0086271Y0124624D01*
X0085451Y0125444D01*
X0078779Y0125444D01*
X0078252Y0124916D01*
X0077514Y0125654D01*
X0076363Y0125654D01*
X0076992Y0126282D01*
X0077959Y0127249D01*
X0077959Y0127007D01*
X0078779Y0126187D01*
X0085451Y0126187D01*
X0086271Y0127007D01*
X0086271Y0127553D01*
X0106717Y0127553D01*
X0107372Y0126897D01*
X0108610Y0126384D01*
X0109950Y0126384D01*
X0111188Y0126897D01*
X0112136Y0127845D01*
X0112649Y0129083D01*
X0112649Y0130423D01*
X0112136Y0131661D01*
X0111188Y0132608D01*
X0109950Y0133121D01*
X0108610Y0133121D01*
X0107372Y0132608D01*
X0106717Y0131953D01*
X0105536Y0131953D01*
X0128696Y0155112D01*
X0137897Y0155112D01*
X0138970Y0154038D01*
X0138970Y0153987D01*
X0138425Y0153987D01*
X0137605Y0153167D01*
X0137605Y0146496D01*
X0138425Y0145676D01*
X0138970Y0145676D01*
X0138970Y0142176D01*
X0138425Y0142176D01*
X0137605Y0141356D01*
X0137605Y0134685D01*
X0138425Y0133865D01*
X0143915Y0133865D01*
X0144735Y0134685D01*
X0144735Y0135281D01*
X0144876Y0135141D01*
X0144876Y0125580D01*
X0142453Y0125580D01*
X0141633Y0124759D01*
X0141633Y0121400D01*
X0142453Y0120580D01*
X0151413Y0120580D01*
X0142453Y0120580D01*
X0141633Y0119759D01*
X0141633Y0116400D01*
X0142419Y0115614D01*
X0141018Y0115614D01*
X0136097Y0120535D01*
X0132057Y0120535D01*
X0132013Y0120580D01*
X0128127Y0120580D01*
X0128127Y0120580D01*
X0132013Y0120580D01*
X0132057Y0120535D01*
X0136097Y0120535D01*
X0141018Y0115614D01*
X0142419Y0115614D01*
X0141633Y0116400D01*
X0141633Y0119759D01*
X0142453Y0120580D01*
X0151413Y0120580D01*
X0151851Y0120142D01*
X0156255Y0120142D01*
X0157543Y0118853D01*
X0159798Y0116598D01*
X0162605Y0116598D01*
X0162605Y0117144D01*
X0163425Y0117964D01*
X0170096Y0117964D01*
X0170917Y0117144D01*
X0170917Y0116598D01*
X0174416Y0116598D01*
X0174416Y0117144D01*
X0175236Y0117964D01*
X0181907Y0117964D01*
X0182728Y0117144D01*
X0182728Y0111653D01*
X0181907Y0110833D01*
X0175236Y0110833D01*
X0174416Y0111653D01*
X0174416Y0112198D01*
X0170917Y0112198D01*
X0170917Y0111653D01*
X0170096Y0110833D01*
X0163425Y0110833D01*
X0162605Y0111653D01*
X0162605Y0112198D01*
X0158292Y0112198D01*
X0161766Y0108724D01*
X0162605Y0108724D01*
X0162605Y0109270D01*
X0163425Y0110090D01*
X0170096Y0110090D01*
X0170917Y0109270D01*
X0170917Y0108724D01*
X0174416Y0108724D01*
X0174416Y0109270D01*
X0175236Y0110090D01*
X0181907Y0110090D01*
X0182728Y0109270D01*
X0182728Y0103779D01*
X0181907Y0102959D01*
X0175236Y0102959D01*
X0174416Y0103779D01*
X0174416Y0104324D01*
X0170917Y0104324D01*
X0170917Y0103779D01*
X0170096Y0102959D01*
X0163425Y0102959D01*
X0162605Y0103779D01*
X0162605Y0104324D01*
X0159944Y0104324D01*
X0153251Y0111017D01*
X0151851Y0111017D01*
X0151413Y0110580D01*
X0142453Y0110580D01*
X0141819Y0111214D01*
X0139196Y0111214D01*
X0137907Y0112503D01*
X0134275Y0116135D01*
X0132569Y0116135D01*
X0132013Y0115580D01*
X0123053Y0115580D01*
X0122233Y0116400D01*
X0122233Y0119759D01*
X0123053Y0120580D01*
X0127485Y0120580D01*
X0127485Y0120580D01*
X0127485Y0120580D01*
X0123053Y0120580D01*
X0122753Y0120880D01*
X0117767Y0120880D01*
X0117767Y0119133D01*
X0116947Y0118313D01*
X0110275Y0118313D01*
X0109455Y0119133D01*
X0109455Y0119679D01*
X0105143Y0119679D01*
X0106362Y0118459D01*
X0106362Y0109156D01*
X0105073Y0107868D01*
X0092798Y0095592D01*
X0052168Y0095592D01*
X0052168Y0091212D01*
X0051348Y0090392D01*
X0038189Y0090392D01*
X0037369Y0091212D01*
X0037369Y0095663D01*
X0032317Y0095663D01*
X0031661Y0095007D01*
X0030423Y0094494D01*
X0029083Y0094494D01*
X0027845Y0095007D01*
X0026897Y0095955D01*
X0026384Y0097193D01*
X0026384Y0098533D01*
X0026897Y0099771D01*
X0027845Y0100719D01*
X0029083Y0101231D01*
X0030423Y0101231D01*
X0031661Y0100719D01*
X0032317Y0100063D01*
X0037369Y0100063D01*
X0037369Y0104372D01*
X0038189Y0105192D01*
X0051348Y0105192D01*
X0052168Y0104372D01*
X0052168Y0099992D01*
X0090975Y0099992D01*
X0101962Y0110979D01*
X0101962Y0116637D01*
X0098920Y0119679D01*
X0098082Y0119679D01*
X0098082Y0119133D01*
X0097262Y0118313D01*
X0090590Y0118313D01*
X0089770Y0119133D01*
X0089770Y0119679D01*
X0086271Y0119679D01*
X0086271Y0119133D01*
X0085451Y0118313D01*
X0079225Y0118313D01*
X0081333Y0116205D01*
X0089770Y0116205D01*
X0089770Y0116750D01*
X0090590Y0117570D01*
X0097262Y0117570D01*
X0098082Y0116750D01*
X0098082Y0111259D01*
X0097262Y0110439D01*
X0090590Y0110439D01*
X0089770Y0111259D01*
X0089770Y0111805D01*
X0079511Y0111805D01*
X0074112Y0117204D01*
X0068087Y0117204D01*
X0067267Y0118024D01*
X0067267Y0121254D01*
X0065810Y0121254D01*
X0065867Y0121041D01*
X0065867Y0119704D01*
X0061567Y0119704D01*
X0061567Y0119703D01*
X0061567Y0116804D01*
X0064304Y0116804D01*
X0064762Y0116926D01*
X0065172Y0117163D01*
X0065507Y0117498D01*
X0065744Y0117909D01*
X0065867Y0118367D01*
X0065867Y0119703D01*
X0061567Y0119703D01*
X0061567Y0119703D01*
X0061567Y0116804D01*
X0064304Y0116804D01*
X0064762Y0116926D01*
X0065172Y0117163D01*
X0065507Y0117498D01*
X0065744Y0117909D01*
X0065867Y0118367D01*
X0065867Y0119703D01*
X0061567Y0119703D01*
X0061567Y0119703D01*
X0061567Y0116804D01*
X0058830Y0116804D01*
X0058372Y0116926D01*
X0057962Y0117163D01*
X0057627Y0117498D01*
X0057390Y0117909D01*
X0057267Y0118367D01*
X0057267Y0119703D01*
X0061567Y0119703D01*
X0061567Y0116804D01*
X0058830Y0116804D01*
X0058372Y0116926D01*
X0057962Y0117163D01*
X0057627Y0117498D01*
X0057390Y0117909D01*
X0057267Y0118367D01*
X0057267Y0119703D01*
X0061567Y0119703D01*
X0061567Y0119704D01*
X0065867Y0119704D01*
X0065867Y0121041D01*
X0065810Y0121254D01*
X0067267Y0121254D01*
X0067267Y0118024D01*
X0068087Y0117204D01*
X0074112Y0117204D01*
X0079511Y0111805D01*
X0089770Y0111805D01*
X0089770Y0111259D01*
X0090590Y0110439D01*
X0097262Y0110439D01*
X0098082Y0111259D01*
X0098082Y0116750D01*
X0097262Y0117570D01*
X0090590Y0117570D01*
X0089770Y0116750D01*
X0089770Y0116205D01*
X0081333Y0116205D01*
X0079225Y0118313D01*
X0085451Y0118313D01*
X0086271Y0119133D01*
X0086271Y0119679D01*
X0089770Y0119679D01*
X0089770Y0119133D01*
X0090590Y0118313D01*
X0097262Y0118313D01*
X0098082Y0119133D01*
X0098082Y0119679D01*
X0098920Y0119679D01*
X0101962Y0116637D01*
X0101962Y0110979D01*
X0090975Y0099992D01*
X0052168Y0099992D01*
X0052168Y0104372D01*
X0051348Y0105192D01*
X0038189Y0105192D01*
X0037369Y0104372D01*
X0037369Y0100063D01*
X0032317Y0100063D01*
X0031661Y0100719D01*
X0030423Y0101231D01*
X0029083Y0101231D01*
X0027845Y0100719D01*
X0026897Y0099771D01*
X0026384Y0098533D01*
X0026384Y0097193D01*
X0026897Y0095955D01*
X0027845Y0095007D01*
X0029083Y0094494D01*
X0030423Y0094494D01*
X0031661Y0095007D01*
X0032317Y0095663D01*
X0037369Y0095663D01*
X0037369Y0091212D01*
X0038189Y0090392D01*
X0051348Y0090392D01*
X0052168Y0091212D01*
X0052168Y0095592D01*
X0092798Y0095592D01*
X0105073Y0107868D01*
X0106362Y0109156D01*
X0106362Y0118459D01*
X0105143Y0119679D01*
X0109455Y0119679D01*
X0109455Y0119133D01*
X0110275Y0118313D01*
X0116947Y0118313D01*
X0117767Y0119133D01*
X0117767Y0120880D01*
X0122753Y0120880D01*
X0123053Y0120580D01*
X0127485Y0120580D01*
X0123053Y0120580D01*
X0122233Y0119759D01*
X0122233Y0116400D01*
X0123053Y0115580D01*
X0132013Y0115580D01*
X0132569Y0116135D01*
X0134275Y0116135D01*
X0137907Y0112503D01*
X0139196Y0111214D01*
X0141819Y0111214D01*
X0142453Y0110580D01*
X0151413Y0110580D01*
X0151851Y0111017D01*
X0153251Y0111017D01*
X0159944Y0104324D01*
X0162605Y0104324D01*
X0162605Y0103779D01*
X0163425Y0102959D01*
X0170096Y0102959D01*
X0170917Y0103779D01*
X0170917Y0104324D01*
X0174416Y0104324D01*
X0174416Y0103779D01*
X0175236Y0102959D01*
X0181907Y0102959D01*
X0182728Y0103779D01*
X0182728Y0109270D01*
X0181907Y0110090D01*
X0175236Y0110090D01*
X0174416Y0109270D01*
X0174416Y0108724D01*
X0170917Y0108724D01*
X0170917Y0109270D01*
X0170096Y0110090D01*
X0163425Y0110090D01*
X0162605Y0109270D01*
X0162605Y0108724D01*
X0161766Y0108724D01*
X0158292Y0112198D01*
X0162605Y0112198D01*
X0162605Y0111653D01*
X0163425Y0110833D01*
X0170096Y0110833D01*
X0170917Y0111653D01*
X0170917Y0112198D01*
X0174416Y0112198D01*
X0174416Y0111653D01*
X0175236Y0110833D01*
X0181907Y0110833D01*
X0182728Y0111653D01*
X0182728Y0117144D01*
X0181907Y0117964D01*
X0175236Y0117964D01*
X0174416Y0116893D02*
X0170917Y0116893D01*
X0174416Y0116893D01*
X0178572Y0114398D02*
X0166761Y0114398D01*
X0158887Y0114398D01*
X0155343Y0117942D01*
X0147071Y0117942D01*
X0146933Y0118080D01*
X0147268Y0113414D02*
X0146933Y0113080D01*
X0147071Y0113217D01*
X0154162Y0113217D01*
X0160855Y0106524D01*
X0166761Y0106524D01*
X0178572Y0106524D01*
X0174416Y0108900D02*
X0170917Y0108900D01*
X0174416Y0108900D01*
X0174416Y0104105D02*
X0170917Y0104105D01*
X0174416Y0104105D01*
X0175756Y0101096D02*
X0177072Y0101641D01*
X0178497Y0101641D01*
X0179813Y0101096D01*
X0180199Y0100710D01*
X0185479Y0100710D01*
X0185479Y0101396D01*
X0186299Y0102216D01*
X0191789Y0102216D01*
X0192609Y0101396D01*
X0192609Y0094724D01*
X0191789Y0093904D01*
X0186299Y0093904D01*
X0185479Y0094724D01*
X0185479Y0095410D01*
X0180199Y0095410D01*
X0179813Y0095024D01*
X0178497Y0094479D01*
X0177072Y0094479D01*
X0175756Y0095024D01*
X0175370Y0095410D01*
X0170421Y0095410D01*
X0170096Y0095085D01*
X0163425Y0095085D01*
X0162605Y0095905D01*
X0162605Y0101396D01*
X0163425Y0102216D01*
X0170096Y0102216D01*
X0170917Y0101396D01*
X0170917Y0100710D01*
X0175370Y0100710D01*
X0175756Y0101096D01*
X0175370Y0100710D01*
X0170917Y0100710D01*
X0170917Y0101396D01*
X0170096Y0102216D01*
X0163425Y0102216D01*
X0162605Y0101396D01*
X0162605Y0095905D01*
X0163425Y0095085D01*
X0170096Y0095085D01*
X0170421Y0095410D01*
X0175370Y0095410D01*
X0175756Y0095024D01*
X0177072Y0094479D01*
X0178497Y0094479D01*
X0179813Y0095024D01*
X0180199Y0095410D01*
X0185479Y0095410D01*
X0185479Y0094724D01*
X0186299Y0093904D01*
X0191789Y0093904D01*
X0192609Y0094724D01*
X0192609Y0101396D01*
X0191789Y0102216D01*
X0186299Y0102216D01*
X0185479Y0101396D01*
X0185479Y0100710D01*
X0180199Y0100710D01*
X0179813Y0101096D01*
X0178497Y0101641D01*
X0177072Y0101641D01*
X0175756Y0101096D01*
X0175568Y0100908D02*
X0170917Y0100908D01*
X0175568Y0100908D01*
X0180001Y0100908D02*
X0185479Y0100908D01*
X0180001Y0100908D01*
X0182728Y0104105D02*
X0215909Y0104105D01*
X0182728Y0104105D01*
X0182728Y0105703D02*
X0215909Y0105703D01*
X0182728Y0105703D01*
X0182728Y0107302D02*
X0215909Y0107302D01*
X0182728Y0107302D01*
X0182728Y0108900D02*
X0215909Y0108900D01*
X0182728Y0108900D01*
X0182728Y0112097D02*
X0215909Y0112097D01*
X0182728Y0112097D01*
X0182728Y0113696D02*
X0194525Y0113696D01*
X0182728Y0113696D01*
X0182728Y0115294D02*
X0193928Y0115294D01*
X0182728Y0115294D01*
X0182728Y0116893D02*
X0194095Y0116893D01*
X0182728Y0116893D01*
X0174416Y0112097D02*
X0170917Y0112097D01*
X0174416Y0112097D01*
X0166761Y0122272D02*
X0166761Y0123080D01*
X0146933Y0123080D01*
X0147076Y0123222D01*
X0147076Y0136052D01*
X0145107Y0138020D01*
X0141170Y0138020D01*
X0141170Y0149831D01*
X0141170Y0154950D01*
X0138808Y0157312D01*
X0127784Y0157312D01*
X0100225Y0129753D01*
X0109280Y0129753D01*
X0108023Y0132878D02*
X0106462Y0132878D01*
X0108023Y0132878D01*
X0108060Y0134476D02*
X0125191Y0134476D01*
X0108060Y0134476D01*
X0109659Y0136075D02*
X0125191Y0136075D01*
X0109659Y0136075D01*
X0111257Y0137673D02*
X0125901Y0137673D01*
X0111257Y0137673D01*
X0112856Y0139272D02*
X0127499Y0139272D01*
X0112856Y0139272D01*
X0114454Y0140870D02*
X0129731Y0140870D01*
X0114454Y0140870D01*
X0116053Y0142469D02*
X0131096Y0142469D01*
X0116053Y0142469D01*
X0117651Y0144068D02*
X0131096Y0144068D01*
X0117651Y0144068D01*
X0119250Y0145666D02*
X0131096Y0145666D01*
X0119250Y0145666D01*
X0120848Y0147265D02*
X0129731Y0147265D01*
X0120848Y0147265D01*
X0122447Y0148863D02*
X0129731Y0148863D01*
X0122447Y0148863D01*
X0124045Y0150462D02*
X0129731Y0150462D01*
X0124045Y0150462D01*
X0125644Y0152060D02*
X0129731Y0152060D01*
X0125644Y0152060D01*
X0127242Y0153659D02*
X0130222Y0153659D01*
X0127242Y0153659D01*
X0122618Y0155257D02*
X0052168Y0155257D01*
X0122618Y0155257D01*
X0121020Y0153659D02*
X0052168Y0153659D01*
X0121020Y0153659D01*
X0119421Y0152060D02*
X0052168Y0152060D01*
X0119421Y0152060D01*
X0117823Y0150462D02*
X0052168Y0150462D01*
X0117823Y0150462D01*
X0116224Y0148863D02*
X0052168Y0148863D01*
X0116224Y0148863D01*
X0114626Y0147265D02*
X0052168Y0147265D01*
X0114626Y0147265D01*
X0113027Y0145666D02*
X0052168Y0145666D01*
X0113027Y0145666D01*
X0111429Y0144068D02*
X0052168Y0144068D01*
X0111429Y0144068D01*
X0109830Y0142469D02*
X0052168Y0142469D01*
X0109830Y0142469D01*
X0108232Y0140870D02*
X0046913Y0140870D01*
X0108232Y0140870D01*
X0106633Y0139272D02*
X0046913Y0139272D01*
X0106633Y0139272D01*
X0105035Y0137673D02*
X0045903Y0137673D01*
X0105035Y0137673D01*
X0103436Y0136075D02*
X0044304Y0136075D01*
X0103436Y0136075D01*
X0101838Y0134476D02*
X0042706Y0134476D01*
X0101838Y0134476D01*
X0100239Y0132878D02*
X0085891Y0132878D01*
X0100239Y0132878D01*
X0100225Y0129753D02*
X0082115Y0129753D01*
X0077351Y0129753D01*
X0074792Y0127194D01*
X0071177Y0127194D01*
X0071167Y0127204D01*
X0071133Y0127198D01*
X0068064Y0129681D02*
X0065235Y0129681D01*
X0068064Y0129681D01*
X0067267Y0128082D02*
X0065867Y0128082D01*
X0067267Y0128082D01*
X0067267Y0126484D02*
X0065867Y0126484D01*
X0067267Y0126484D01*
X0061567Y0127203D02*
X0057267Y0127203D01*
X0057267Y0125867D01*
X0057324Y0125654D01*
X0054972Y0125654D01*
X0054972Y0126789D01*
X0054152Y0127609D01*
X0048661Y0127609D01*
X0047841Y0126789D01*
X0047841Y0120118D01*
X0048661Y0119298D01*
X0054152Y0119298D01*
X0054972Y0120118D01*
X0054972Y0121254D01*
X0057324Y0121254D01*
X0057267Y0121041D01*
X0057267Y0119704D01*
X0061567Y0119704D01*
X0061567Y0119703D01*
X0061567Y0119704D01*
X0057267Y0119704D01*
X0057267Y0121041D01*
X0057324Y0121254D01*
X0054972Y0121254D01*
X0054972Y0120118D01*
X0054152Y0119298D01*
X0048661Y0119298D01*
X0047841Y0120118D01*
X0047841Y0126789D01*
X0048661Y0127609D01*
X0054152Y0127609D01*
X0054972Y0126789D01*
X0054972Y0125654D01*
X0057324Y0125654D01*
X0057267Y0125867D01*
X0057267Y0127203D01*
X0061567Y0127203D01*
X0061567Y0127204D01*
X0061567Y0127203D01*
X0061567Y0128082D02*
X0061567Y0128082D01*
X0061567Y0128082D01*
X0061567Y0129681D02*
X0061567Y0129681D01*
X0061567Y0129681D01*
X0057899Y0129681D02*
X0037910Y0129681D01*
X0057899Y0129681D01*
X0057267Y0128082D02*
X0036312Y0128082D01*
X0057267Y0128082D01*
X0057267Y0126484D02*
X0054972Y0126484D01*
X0057267Y0126484D01*
X0061567Y0123454D02*
X0076603Y0123454D01*
X0078178Y0121879D01*
X0082115Y0121879D01*
X0093926Y0121879D01*
X0113611Y0121879D01*
X0114812Y0123080D01*
X0127533Y0123080D01*
X0127391Y0123222D01*
X0127391Y0136052D01*
X0129359Y0138020D01*
X0133296Y0138020D01*
X0133296Y0149831D01*
X0136861Y0150462D02*
X0137605Y0150462D01*
X0136861Y0150462D01*
X0136861Y0152060D02*
X0137605Y0152060D01*
X0136861Y0152060D01*
X0136370Y0153659D02*
X0138096Y0153659D01*
X0136370Y0153659D01*
X0136861Y0148863D02*
X0137605Y0148863D01*
X0136861Y0148863D01*
X0136861Y0147265D02*
X0137605Y0147265D01*
X0136861Y0147265D01*
X0135496Y0145666D02*
X0138970Y0145666D01*
X0135496Y0145666D01*
X0135496Y0144068D02*
X0138970Y0144068D01*
X0135496Y0144068D01*
X0135496Y0142469D02*
X0138970Y0142469D01*
X0135496Y0142469D01*
X0136861Y0140870D02*
X0137605Y0140870D01*
X0136861Y0140870D01*
X0136861Y0139272D02*
X0137605Y0139272D01*
X0136861Y0139272D01*
X0136861Y0137673D02*
X0137605Y0137673D01*
X0136861Y0137673D01*
X0136861Y0136075D02*
X0137605Y0136075D01*
X0136861Y0136075D01*
X0136653Y0134476D02*
X0137813Y0134476D01*
X0136653Y0134476D01*
X0129939Y0134476D02*
X0129591Y0134476D01*
X0129939Y0134476D01*
X0129591Y0132878D02*
X0144876Y0132878D01*
X0129591Y0132878D01*
X0129591Y0131279D02*
X0144876Y0131279D01*
X0129591Y0131279D01*
X0129591Y0129681D02*
X0144876Y0129681D01*
X0129591Y0129681D01*
X0129591Y0128082D02*
X0144876Y0128082D01*
X0129591Y0128082D01*
X0129591Y0126484D02*
X0144876Y0126484D01*
X0129591Y0126484D01*
X0125191Y0126484D02*
X0110191Y0126484D01*
X0125191Y0126484D01*
X0125191Y0128082D02*
X0112234Y0128082D01*
X0125191Y0128082D01*
X0125191Y0129681D02*
X0112649Y0129681D01*
X0125191Y0129681D01*
X0125191Y0131279D02*
X0112294Y0131279D01*
X0125191Y0131279D01*
X0125191Y0132878D02*
X0110538Y0132878D01*
X0125191Y0132878D01*
X0132707Y0124885D02*
X0141759Y0124885D01*
X0132707Y0124885D01*
X0132833Y0123287D02*
X0141633Y0123287D01*
X0132833Y0123287D01*
X0132833Y0121688D02*
X0141633Y0121688D01*
X0132833Y0121688D01*
X0136543Y0120090D02*
X0141963Y0120090D01*
X0136543Y0120090D01*
X0135186Y0118335D02*
X0140107Y0113414D01*
X0147268Y0113414D01*
X0147142Y0113288D02*
X0146933Y0113080D01*
X0142453Y0110580D02*
X0141633Y0109759D01*
X0141633Y0106400D01*
X0142453Y0105580D01*
X0151413Y0105580D01*
X0152233Y0106400D01*
X0152233Y0109759D01*
X0151413Y0110580D01*
X0142453Y0110580D01*
X0141633Y0109759D01*
X0141633Y0106400D01*
X0142453Y0105580D01*
X0151413Y0105580D01*
X0152233Y0106400D01*
X0152233Y0109759D01*
X0151413Y0110580D01*
X0142453Y0110580D01*
X0142372Y0110499D02*
X0132094Y0110499D01*
X0142372Y0110499D01*
X0141633Y0108900D02*
X0132833Y0108900D01*
X0141633Y0108900D01*
X0141633Y0107302D02*
X0132833Y0107302D01*
X0141633Y0107302D01*
X0142329Y0105703D02*
X0132137Y0105703D01*
X0142329Y0105703D01*
X0138313Y0112097D02*
X0132833Y0112097D01*
X0138313Y0112097D01*
X0136714Y0113696D02*
X0132833Y0113696D01*
X0136714Y0113696D01*
X0135116Y0115294D02*
X0132298Y0115294D01*
X0135116Y0115294D01*
X0132833Y0114759D02*
X0132013Y0115580D01*
X0123053Y0115580D01*
X0122753Y0115280D01*
X0117767Y0115280D01*
X0117767Y0116750D01*
X0116947Y0117570D01*
X0110275Y0117570D01*
X0109455Y0116750D01*
X0109455Y0111259D01*
X0110275Y0110439D01*
X0111411Y0110439D01*
X0111411Y0093734D01*
X0110755Y0093078D01*
X0110243Y0091840D01*
X0110243Y0090500D01*
X0110743Y0089293D01*
X0054240Y0089293D01*
X0054188Y0089312D01*
X0053715Y0089293D01*
X0053241Y0089293D01*
X0053190Y0089271D01*
X0053135Y0089269D01*
X0052705Y0089070D01*
X0052267Y0088889D01*
X0052228Y0088850D01*
X0052178Y0088827D01*
X0051857Y0088478D01*
X0051522Y0088144D01*
X0051501Y0088092D01*
X0042526Y0078360D01*
X0042191Y0078026D01*
X0042170Y0077974D01*
X0042132Y0077933D01*
X0041969Y0077489D01*
X0041788Y0077052D01*
X0041788Y0076996D01*
X0041769Y0076944D01*
X0041788Y0076471D01*
X0041788Y0063223D01*
X0041636Y0063160D01*
X0040245Y0061769D01*
X0039492Y0059951D01*
X0039492Y0050893D01*
X0040245Y0049075D01*
X0041636Y0047684D01*
X0043454Y0046931D01*
X0045422Y0046931D01*
X0047239Y0047684D01*
X0048631Y0049075D01*
X0049383Y0050893D01*
X0049383Y0059951D01*
X0048631Y0061769D01*
X0047239Y0063160D01*
X0047088Y0063223D01*
X0047088Y0075489D01*
X0054930Y0083993D01*
X0090284Y0083993D01*
X0089711Y0083419D01*
X0081955Y0075663D01*
X0081552Y0074689D01*
X0081552Y0063223D01*
X0081400Y0063160D01*
X0080009Y0061769D01*
X0079256Y0059951D01*
X0079256Y0050893D01*
X0080009Y0049075D01*
X0081400Y0047684D01*
X0083218Y0046931D01*
X0085185Y0046931D01*
X0087003Y0047684D01*
X0088394Y0049075D01*
X0089009Y0050559D01*
X0089248Y0049824D01*
X0089630Y0049075D01*
X0090124Y0048394D01*
X0090719Y0047799D01*
X0091400Y0047304D01*
X0092150Y0046922D01*
X0092950Y0046662D01*
X0093781Y0046531D01*
X0093929Y0046531D01*
X0093929Y0055149D01*
X0094474Y0055149D01*
X0094474Y0046531D01*
X0094622Y0046531D01*
X0095453Y0046662D01*
X0096254Y0046922D01*
X0097003Y0047304D01*
X0097684Y0047799D01*
X0098279Y0048394D01*
X0098774Y0049075D01*
X0099156Y0049824D01*
X0099416Y0050625D01*
X0099547Y0051456D01*
X0099547Y0054677D01*
X0101714Y0052510D01*
X0104597Y0050846D01*
X0107813Y0049984D01*
X0111142Y0049984D01*
X0114357Y0050846D01*
X0117240Y0052510D01*
X0119594Y0054864D01*
X0119807Y0055234D01*
X0119807Y0050893D01*
X0120560Y0049075D01*
X0121951Y0047684D01*
X0122103Y0047621D01*
X0122103Y0045643D01*
X0122506Y0044669D01*
X0123252Y0043924D01*
X0125538Y0041637D01*
X0126283Y0040892D01*
X0127257Y0040489D01*
X0172563Y0040489D01*
X0173537Y0040892D01*
X0176766Y0044120D01*
X0177511Y0044866D01*
X0177915Y0045840D01*
X0177915Y0047605D01*
X0178105Y0047684D01*
X0179497Y0049075D01*
X0180250Y0050893D01*
X0180250Y0059951D01*
X0179497Y0061769D01*
X0178105Y0063160D01*
X0176288Y0063913D01*
X0174320Y0063913D01*
X0173763Y0063683D01*
X0174135Y0064580D01*
X0174135Y0065557D01*
X0174821Y0065557D01*
X0175641Y0066378D01*
X0175641Y0071868D01*
X0174821Y0072688D01*
X0168149Y0072688D01*
X0167329Y0071868D01*
X0167329Y0066378D01*
X0168149Y0065557D01*
X0168188Y0065557D01*
X0166469Y0063838D01*
X0166288Y0063913D01*
X0164320Y0063913D01*
X0162502Y0063160D01*
X0161111Y0061769D01*
X0160358Y0059951D01*
X0160358Y0050893D01*
X0161111Y0049075D01*
X0162502Y0047684D01*
X0164320Y0046931D01*
X0166288Y0046931D01*
X0168105Y0047684D01*
X0169497Y0049075D01*
X0170250Y0050893D01*
X0170250Y0059951D01*
X0170199Y0060073D01*
X0170557Y0060431D01*
X0170358Y0059951D01*
X0170358Y0050893D01*
X0171111Y0049075D01*
X0172502Y0047684D01*
X0172615Y0047637D01*
X0172615Y0047465D01*
X0170939Y0045789D01*
X0128882Y0045789D01*
X0127403Y0047268D01*
X0127403Y0047621D01*
X0127554Y0047684D01*
X0128945Y0049075D01*
X0129698Y0050893D01*
X0129698Y0059951D01*
X0128945Y0061769D01*
X0127554Y0063160D01*
X0125737Y0063913D01*
X0123769Y0063913D01*
X0122120Y0063230D01*
X0122120Y0064291D01*
X0121258Y0067507D01*
X0119594Y0070389D01*
X0117240Y0072743D01*
X0114357Y0074408D01*
X0111142Y0075269D01*
X0107813Y0075269D01*
X0104597Y0074408D01*
X0101714Y0072743D01*
X0099361Y0070389D01*
X0097696Y0067507D01*
X0096835Y0064291D01*
X0096835Y0063626D01*
X0096254Y0063922D01*
X0095453Y0064182D01*
X0094622Y0064313D01*
X0094474Y0064313D01*
X0094474Y0055695D01*
X0093929Y0055695D01*
X0093929Y0064313D01*
X0093781Y0064313D01*
X0092950Y0064182D01*
X0092150Y0063922D01*
X0091400Y0063540D01*
X0090719Y0063045D01*
X0090124Y0062450D01*
X0089630Y0061769D01*
X0089248Y0061020D01*
X0089009Y0060285D01*
X0088394Y0061769D01*
X0087003Y0063160D01*
X0086852Y0063223D01*
X0086852Y0073065D01*
X0093055Y0079268D01*
X0125112Y0079268D01*
X0131827Y0072553D01*
X0131827Y0063036D01*
X0130560Y0061769D01*
X0129807Y0059951D01*
X0129807Y0050893D01*
X0130560Y0049075D01*
X0131951Y0047684D01*
X0133769Y0046931D01*
X0135737Y0046931D01*
X0137554Y0047684D01*
X0138945Y0049075D01*
X0139698Y0050893D01*
X0139698Y0059951D01*
X0138945Y0061769D01*
X0137554Y0063160D01*
X0137127Y0063337D01*
X0137127Y0073946D01*
X0143254Y0067819D01*
X0144000Y0067073D01*
X0144974Y0066670D01*
X0155518Y0066670D01*
X0155518Y0066378D01*
X0156338Y0065557D01*
X0163010Y0065557D01*
X0163830Y0066378D01*
X0163830Y0071868D01*
X0163010Y0072688D01*
X0156338Y0072688D01*
X0155620Y0071970D01*
X0146598Y0071970D01*
X0146076Y0072492D01*
X0148221Y0072492D01*
X0150904Y0073603D01*
X0152957Y0075657D01*
X0154068Y0078340D01*
X0154068Y0081244D01*
X0152957Y0083927D01*
X0150904Y0085981D01*
X0148221Y0087092D01*
X0145316Y0087092D01*
X0142633Y0085981D01*
X0140580Y0083927D01*
X0139469Y0081244D01*
X0139469Y0079100D01*
X0129992Y0088576D01*
X0154841Y0088576D01*
X0155677Y0087740D01*
X0156993Y0087195D01*
X0158418Y0087195D01*
X0159734Y0087740D01*
X0160741Y0088748D01*
X0161287Y0090064D01*
X0161287Y0091489D01*
X0160741Y0092805D01*
X0159734Y0093812D01*
X0158418Y0094357D01*
X0156993Y0094357D01*
X0155677Y0093812D01*
X0154841Y0092976D01*
X0122790Y0092976D01*
X0115811Y0099955D01*
X0115811Y0110439D01*
X0116947Y0110439D01*
X0117387Y0110880D01*
X0122753Y0110880D01*
X0123053Y0110580D01*
X0132013Y0110580D01*
X0132833Y0111400D01*
X0132833Y0114759D01*
X0132013Y0115580D01*
X0123053Y0115580D01*
X0122753Y0115280D01*
X0117767Y0115280D01*
X0117767Y0116750D01*
X0116947Y0117570D01*
X0110275Y0117570D01*
X0109455Y0116750D01*
X0109455Y0111259D01*
X0110275Y0110439D01*
X0111411Y0110439D01*
X0111411Y0093734D01*
X0110755Y0093078D01*
X0110243Y0091840D01*
X0110243Y0090500D01*
X0110743Y0089293D01*
X0054240Y0089293D01*
X0054188Y0089312D01*
X0053715Y0089293D01*
X0053241Y0089293D01*
X0053190Y0089271D01*
X0053135Y0089269D01*
X0052705Y0089070D01*
X0052267Y0088889D01*
X0052228Y0088850D01*
X0052178Y0088827D01*
X0051857Y0088478D01*
X0051522Y0088144D01*
X0051501Y0088092D01*
X0042526Y0078360D01*
X0042191Y0078026D01*
X0042170Y0077974D01*
X0042132Y0077933D01*
X0041969Y0077489D01*
X0041788Y0077052D01*
X0041788Y0076996D01*
X0041769Y0076944D01*
X0041788Y0076471D01*
X0041788Y0063223D01*
X0041636Y0063160D01*
X0040245Y0061769D01*
X0039492Y0059951D01*
X0039492Y0050893D01*
X0040245Y0049075D01*
X0041636Y0047684D01*
X0043454Y0046931D01*
X0045422Y0046931D01*
X0047239Y0047684D01*
X0048631Y0049075D01*
X0049383Y0050893D01*
X0049383Y0059951D01*
X0048631Y0061769D01*
X0047239Y0063160D01*
X0047088Y0063223D01*
X0047088Y0075489D01*
X0054930Y0083993D01*
X0090284Y0083993D01*
X0089711Y0083419D01*
X0081955Y0075663D01*
X0081552Y0074689D01*
X0081552Y0063223D01*
X0081400Y0063160D01*
X0080009Y0061769D01*
X0079256Y0059951D01*
X0079256Y0050893D01*
X0080009Y0049075D01*
X0081400Y0047684D01*
X0083218Y0046931D01*
X0085185Y0046931D01*
X0087003Y0047684D01*
X0088394Y0049075D01*
X0089009Y0050559D01*
X0089248Y0049824D01*
X0089630Y0049075D01*
X0090124Y0048394D01*
X0090719Y0047799D01*
X0091400Y0047304D01*
X0092150Y0046922D01*
X0092950Y0046662D01*
X0093781Y0046531D01*
X0093929Y0046531D01*
X0093929Y0055149D01*
X0094474Y0055149D01*
X0094474Y0046531D01*
X0094622Y0046531D01*
X0095453Y0046662D01*
X0096254Y0046922D01*
X0097003Y0047304D01*
X0097684Y0047799D01*
X0098279Y0048394D01*
X0098774Y0049075D01*
X0099156Y0049824D01*
X0099416Y0050625D01*
X0099547Y0051456D01*
X0099547Y0054677D01*
X0101714Y0052510D01*
X0104597Y0050846D01*
X0107813Y0049984D01*
X0111142Y0049984D01*
X0114357Y0050846D01*
X0117240Y0052510D01*
X0119594Y0054864D01*
X0119807Y0055234D01*
X0119807Y0050893D01*
X0120560Y0049075D01*
X0121951Y0047684D01*
X0122103Y0047621D01*
X0122103Y0045643D01*
X0122506Y0044669D01*
X0123252Y0043924D01*
X0123252Y0043924D01*
X0125538Y0041637D01*
X0125538Y0041637D01*
X0126283Y0040892D01*
X0127257Y0040489D01*
X0172563Y0040489D01*
X0173537Y0040892D01*
X0176766Y0044120D01*
X0176766Y0044120D01*
X0177511Y0044866D01*
X0177915Y0045840D01*
X0177915Y0047605D01*
X0178105Y0047684D01*
X0179497Y0049075D01*
X0180250Y0050893D01*
X0180250Y0059951D01*
X0179497Y0061769D01*
X0178105Y0063160D01*
X0176288Y0063913D01*
X0174320Y0063913D01*
X0173763Y0063683D01*
X0174135Y0064580D01*
X0174135Y0065557D01*
X0174821Y0065557D01*
X0175641Y0066378D01*
X0175641Y0071868D01*
X0174821Y0072688D01*
X0168149Y0072688D01*
X0167329Y0071868D01*
X0167329Y0066378D01*
X0168149Y0065557D01*
X0168188Y0065557D01*
X0166469Y0063838D01*
X0166288Y0063913D01*
X0164320Y0063913D01*
X0162502Y0063160D01*
X0161111Y0061769D01*
X0160358Y0059951D01*
X0160358Y0050893D01*
X0161111Y0049075D01*
X0162502Y0047684D01*
X0164320Y0046931D01*
X0166288Y0046931D01*
X0168105Y0047684D01*
X0169497Y0049075D01*
X0170250Y0050893D01*
X0170250Y0059951D01*
X0170199Y0060073D01*
X0170557Y0060431D01*
X0170358Y0059951D01*
X0170358Y0050893D01*
X0171111Y0049075D01*
X0172502Y0047684D01*
X0172615Y0047637D01*
X0172615Y0047465D01*
X0170939Y0045789D01*
X0128882Y0045789D01*
X0127403Y0047268D01*
X0127403Y0047621D01*
X0127554Y0047684D01*
X0128945Y0049075D01*
X0129698Y0050893D01*
X0129698Y0059951D01*
X0128945Y0061769D01*
X0127554Y0063160D01*
X0125737Y0063913D01*
X0123769Y0063913D01*
X0122120Y0063230D01*
X0122120Y0064291D01*
X0121258Y0067507D01*
X0119594Y0070389D01*
X0117240Y0072743D01*
X0114357Y0074408D01*
X0111142Y0075269D01*
X0107813Y0075269D01*
X0104597Y0074408D01*
X0101714Y0072743D01*
X0099361Y0070389D01*
X0097696Y0067507D01*
X0096835Y0064291D01*
X0096835Y0063626D01*
X0096254Y0063922D01*
X0095453Y0064182D01*
X0094622Y0064313D01*
X0094474Y0064313D01*
X0094474Y0055695D01*
X0093929Y0055695D01*
X0093929Y0064313D01*
X0093781Y0064313D01*
X0092950Y0064182D01*
X0092150Y0063922D01*
X0091400Y0063540D01*
X0090719Y0063045D01*
X0090124Y0062450D01*
X0089630Y0061769D01*
X0089248Y0061020D01*
X0089009Y0060285D01*
X0088394Y0061769D01*
X0087003Y0063160D01*
X0086852Y0063223D01*
X0086852Y0073065D01*
X0093055Y0079268D01*
X0125112Y0079268D01*
X0131827Y0072553D01*
X0131827Y0063036D01*
X0130560Y0061769D01*
X0129807Y0059951D01*
X0129807Y0050893D01*
X0130560Y0049075D01*
X0131951Y0047684D01*
X0133769Y0046931D01*
X0135737Y0046931D01*
X0137554Y0047684D01*
X0138945Y0049075D01*
X0139698Y0050893D01*
X0139698Y0059951D01*
X0138945Y0061769D01*
X0137554Y0063160D01*
X0137127Y0063337D01*
X0137127Y0073946D01*
X0143254Y0067819D01*
X0144000Y0067073D01*
X0144974Y0066670D01*
X0155518Y0066670D01*
X0155518Y0066378D01*
X0156338Y0065557D01*
X0163010Y0065557D01*
X0163830Y0066378D01*
X0163830Y0071868D01*
X0163010Y0072688D01*
X0156338Y0072688D01*
X0155620Y0071970D01*
X0146598Y0071970D01*
X0146076Y0072492D01*
X0148221Y0072492D01*
X0150904Y0073603D01*
X0152957Y0075657D01*
X0154068Y0078340D01*
X0154068Y0081244D01*
X0152957Y0083927D01*
X0150904Y0085981D01*
X0148221Y0087092D01*
X0145316Y0087092D01*
X0142633Y0085981D01*
X0140580Y0083927D01*
X0139469Y0081244D01*
X0139469Y0079100D01*
X0129992Y0088576D01*
X0154841Y0088576D01*
X0155677Y0087740D01*
X0156993Y0087195D01*
X0158418Y0087195D01*
X0159734Y0087740D01*
X0160741Y0088748D01*
X0161287Y0090064D01*
X0161287Y0091489D01*
X0160741Y0092805D01*
X0159734Y0093812D01*
X0158418Y0094357D01*
X0156993Y0094357D01*
X0155677Y0093812D01*
X0154841Y0092976D01*
X0122790Y0092976D01*
X0115811Y0099955D01*
X0115811Y0110439D01*
X0116947Y0110439D01*
X0117387Y0110880D01*
X0122753Y0110880D01*
X0123053Y0110580D01*
X0132013Y0110580D01*
X0132833Y0111400D01*
X0132833Y0114759D01*
X0135186Y0118335D02*
X0127986Y0118335D01*
X0127533Y0118080D01*
X0127533Y0113080D02*
X0114536Y0113080D01*
X0113611Y0114005D01*
X0113611Y0099044D01*
X0113611Y0091170D01*
X0110243Y0091317D02*
X0052168Y0091317D01*
X0110243Y0091317D01*
X0110688Y0092915D02*
X0052168Y0092915D01*
X0110688Y0092915D01*
X0111411Y0094514D02*
X0052168Y0094514D01*
X0111411Y0094514D01*
X0111411Y0096112D02*
X0093318Y0096112D01*
X0111411Y0096112D01*
X0111411Y0097711D02*
X0094916Y0097711D01*
X0111411Y0097711D01*
X0111411Y0099309D02*
X0096515Y0099309D01*
X0111411Y0099309D01*
X0111411Y0100908D02*
X0098113Y0100908D01*
X0111411Y0100908D01*
X0111411Y0102506D02*
X0099712Y0102506D01*
X0111411Y0102506D01*
X0111411Y0104105D02*
X0101310Y0104105D01*
X0111411Y0104105D01*
X0111411Y0105703D02*
X0102909Y0105703D01*
X0111411Y0105703D01*
X0111411Y0107302D02*
X0104508Y0107302D01*
X0111411Y0107302D01*
X0111411Y0108900D02*
X0106106Y0108900D01*
X0111411Y0108900D01*
X0110216Y0110499D02*
X0106362Y0110499D01*
X0110216Y0110499D01*
X0109455Y0112097D02*
X0106362Y0112097D01*
X0109455Y0112097D01*
X0109455Y0113696D02*
X0106362Y0113696D01*
X0109455Y0113696D01*
X0109455Y0115294D02*
X0106362Y0115294D01*
X0109455Y0115294D01*
X0109598Y0116893D02*
X0106362Y0116893D01*
X0109598Y0116893D01*
X0110097Y0118491D02*
X0106330Y0118491D01*
X0110097Y0118491D01*
X0104162Y0117548D02*
X0099831Y0121879D01*
X0093926Y0121879D01*
X0097820Y0124885D02*
X0109716Y0124885D01*
X0097820Y0124885D01*
X0097440Y0118491D02*
X0100108Y0118491D01*
X0097440Y0118491D01*
X0097939Y0116893D02*
X0101706Y0116893D01*
X0097939Y0116893D01*
X0098082Y0115294D02*
X0101962Y0115294D01*
X0098082Y0115294D01*
X0098082Y0113696D02*
X0101962Y0113696D01*
X0098082Y0113696D01*
X0098082Y0112097D02*
X0101962Y0112097D01*
X0098082Y0112097D01*
X0097321Y0110499D02*
X0101482Y0110499D01*
X0097321Y0110499D01*
X0093926Y0114005D02*
X0080422Y0114005D01*
X0074713Y0119713D01*
X0071177Y0119713D01*
X0071167Y0119704D01*
X0074423Y0116893D02*
X0064637Y0116893D01*
X0074423Y0116893D01*
X0076021Y0115294D02*
X0026981Y0115294D01*
X0076021Y0115294D01*
X0077620Y0113696D02*
X0025106Y0113696D01*
X0077620Y0113696D01*
X0080645Y0116893D02*
X0089913Y0116893D01*
X0080645Y0116893D01*
X0085629Y0118491D02*
X0090412Y0118491D01*
X0085629Y0118491D01*
X0086009Y0124885D02*
X0090031Y0124885D01*
X0086009Y0124885D01*
X0085747Y0126484D02*
X0108370Y0126484D01*
X0085747Y0126484D01*
X0078483Y0126484D02*
X0077194Y0126484D01*
X0078483Y0126484D01*
X0075767Y0131279D02*
X0039509Y0131279D01*
X0075767Y0131279D01*
X0078339Y0132878D02*
X0041107Y0132878D01*
X0078339Y0132878D01*
X0067267Y0120090D02*
X0065867Y0120090D01*
X0067267Y0120090D01*
X0067267Y0118491D02*
X0065867Y0118491D01*
X0067267Y0118491D01*
X0061567Y0118491D02*
X0061567Y0118491D01*
X0061567Y0118491D01*
X0061567Y0119704D02*
X0058286Y0119704D01*
X0056131Y0117548D01*
X0045501Y0117548D01*
X0043532Y0119517D01*
X0042469Y0118454D01*
X0019123Y0118454D01*
X0019123Y0055343D01*
X0038808Y0036446D01*
X0097863Y0036446D01*
X0094202Y0040107D01*
X0094202Y0055422D01*
X0093929Y0056149D02*
X0094474Y0056149D01*
X0093929Y0056149D01*
X0093929Y0054551D02*
X0094474Y0054551D01*
X0093929Y0054551D01*
X0093929Y0052952D02*
X0094474Y0052952D01*
X0093929Y0052952D01*
X0093929Y0051354D02*
X0094474Y0051354D01*
X0093929Y0051354D01*
X0093929Y0049755D02*
X0094474Y0049755D01*
X0093929Y0049755D01*
X0093929Y0048157D02*
X0094474Y0048157D01*
X0093929Y0048157D01*
X0093929Y0046558D02*
X0094474Y0046558D01*
X0093929Y0046558D01*
X0094797Y0046558D02*
X0122103Y0046558D01*
X0094797Y0046558D01*
X0098042Y0048157D02*
X0121478Y0048157D01*
X0098042Y0048157D01*
X0099120Y0049755D02*
X0120278Y0049755D01*
X0099120Y0049755D01*
X0099531Y0051354D02*
X0103717Y0051354D01*
X0099531Y0051354D01*
X0099547Y0052952D02*
X0101272Y0052952D01*
X0099547Y0052952D01*
X0099547Y0054551D02*
X0099674Y0054551D01*
X0099547Y0054551D01*
X0094474Y0057748D02*
X0093929Y0057748D01*
X0094474Y0057748D01*
X0094474Y0059346D02*
X0093929Y0059346D01*
X0094474Y0059346D01*
X0094474Y0060945D02*
X0093929Y0060945D01*
X0094474Y0060945D01*
X0094474Y0062543D02*
X0093929Y0062543D01*
X0094474Y0062543D01*
X0094474Y0064142D02*
X0093929Y0064142D01*
X0094474Y0064142D01*
X0095576Y0064142D02*
X0096835Y0064142D01*
X0095576Y0064142D01*
X0097223Y0065740D02*
X0086852Y0065740D01*
X0097223Y0065740D01*
X0097651Y0067339D02*
X0086852Y0067339D01*
X0097651Y0067339D01*
X0098522Y0068937D02*
X0086852Y0068937D01*
X0098522Y0068937D01*
X0099507Y0070536D02*
X0086852Y0070536D01*
X0099507Y0070536D01*
X0101106Y0072134D02*
X0086852Y0072134D01*
X0101106Y0072134D01*
X0103429Y0073733D02*
X0087520Y0073733D01*
X0103429Y0073733D01*
X0092316Y0078529D02*
X0125851Y0078529D01*
X0092316Y0078529D01*
X0090717Y0076930D02*
X0127450Y0076930D01*
X0090717Y0076930D01*
X0089119Y0075332D02*
X0129048Y0075332D01*
X0089119Y0075332D01*
X0084820Y0078529D02*
X0049891Y0078529D01*
X0084820Y0078529D01*
X0086419Y0080127D02*
X0051365Y0080127D01*
X0086419Y0080127D01*
X0088017Y0081726D02*
X0052839Y0081726D01*
X0088017Y0081726D01*
X0089616Y0083324D02*
X0054313Y0083324D01*
X0089616Y0083324D01*
X0083222Y0076930D02*
X0048417Y0076930D01*
X0083222Y0076930D01*
X0081818Y0075332D02*
X0047088Y0075332D01*
X0081818Y0075332D01*
X0081552Y0073733D02*
X0047088Y0073733D01*
X0081552Y0073733D01*
X0081552Y0072134D02*
X0047088Y0072134D01*
X0081552Y0072134D01*
X0081552Y0070536D02*
X0060569Y0070536D01*
X0081552Y0070536D01*
X0081552Y0068937D02*
X0061794Y0068937D01*
X0081552Y0068937D01*
X0081552Y0067339D02*
X0062074Y0067339D01*
X0081552Y0067339D01*
X0081552Y0065740D02*
X0061620Y0065740D01*
X0081552Y0065740D01*
X0081552Y0064142D02*
X0059628Y0064142D01*
X0081552Y0064142D01*
X0080783Y0062543D02*
X0057856Y0062543D01*
X0080783Y0062543D01*
X0079667Y0060945D02*
X0058972Y0060945D01*
X0079667Y0060945D01*
X0079256Y0059346D02*
X0059383Y0059346D01*
X0079256Y0059346D01*
X0079256Y0057748D02*
X0059383Y0057748D01*
X0079256Y0057748D01*
X0079256Y0056149D02*
X0059383Y0056149D01*
X0079256Y0056149D01*
X0079256Y0054551D02*
X0059383Y0054551D01*
X0079256Y0054551D01*
X0079256Y0052952D02*
X0059383Y0052952D01*
X0079256Y0052952D01*
X0079256Y0051354D02*
X0059383Y0051354D01*
X0079256Y0051354D01*
X0079727Y0049755D02*
X0058912Y0049755D01*
X0079727Y0049755D01*
X0080927Y0048157D02*
X0057712Y0048157D01*
X0080927Y0048157D01*
X0087476Y0048157D02*
X0090361Y0048157D01*
X0087476Y0048157D01*
X0088676Y0049755D02*
X0089283Y0049755D01*
X0088676Y0049755D01*
X0088736Y0060945D02*
X0089223Y0060945D01*
X0088736Y0060945D01*
X0087620Y0062543D02*
X0090217Y0062543D01*
X0087620Y0062543D01*
X0086852Y0064142D02*
X0092827Y0064142D01*
X0086852Y0064142D01*
X0062074Y0066836D02*
X0062074Y0068260D01*
X0061529Y0069577D01*
X0060521Y0070584D01*
X0059205Y0071129D01*
X0057781Y0071129D01*
X0056464Y0070584D01*
X0055457Y0069577D01*
X0054912Y0068260D01*
X0054912Y0067399D01*
X0052481Y0064497D01*
X0052191Y0064207D01*
X0052145Y0064095D01*
X0052068Y0064003D01*
X0051945Y0063612D01*
X0051788Y0063233D01*
X0051788Y0063223D01*
X0051636Y0063160D01*
X0050245Y0061769D01*
X0049492Y0059951D01*
X0049492Y0050893D01*
X0050245Y0049075D01*
X0051636Y0047684D01*
X0053454Y0046931D01*
X0055422Y0046931D01*
X0057239Y0047684D01*
X0058631Y0049075D01*
X0059383Y0050893D01*
X0059383Y0059951D01*
X0058631Y0061769D01*
X0057803Y0062597D01*
X0058951Y0063967D01*
X0059205Y0063967D01*
X0060521Y0064512D01*
X0061529Y0065520D01*
X0062074Y0066836D01*
X0062074Y0068260D01*
X0061529Y0069577D01*
X0060521Y0070584D01*
X0059205Y0071129D01*
X0057781Y0071129D01*
X0056464Y0070584D01*
X0055457Y0069577D01*
X0054912Y0068260D01*
X0054912Y0067399D01*
X0052481Y0064497D01*
X0052191Y0064207D01*
X0052145Y0064095D01*
X0052068Y0064003D01*
X0051945Y0063612D01*
X0051788Y0063233D01*
X0051788Y0063223D01*
X0051636Y0063160D01*
X0050245Y0061769D01*
X0049492Y0059951D01*
X0049492Y0050893D01*
X0050245Y0049075D01*
X0051636Y0047684D01*
X0053454Y0046931D01*
X0055422Y0046931D01*
X0057239Y0047684D01*
X0058631Y0049075D01*
X0059383Y0050893D01*
X0059383Y0059951D01*
X0058631Y0061769D01*
X0057803Y0062597D01*
X0058951Y0063967D01*
X0059205Y0063967D01*
X0060521Y0064512D01*
X0061529Y0065520D01*
X0062074Y0066836D01*
X0056416Y0070536D02*
X0047088Y0070536D01*
X0056416Y0070536D01*
X0055192Y0068937D02*
X0047088Y0068937D01*
X0055192Y0068937D01*
X0054861Y0067339D02*
X0047088Y0067339D01*
X0054861Y0067339D01*
X0053523Y0065740D02*
X0047088Y0065740D01*
X0053523Y0065740D01*
X0052164Y0064142D02*
X0047088Y0064142D01*
X0052164Y0064142D01*
X0051019Y0062543D02*
X0047856Y0062543D01*
X0051019Y0062543D01*
X0049904Y0060945D02*
X0048972Y0060945D01*
X0049904Y0060945D01*
X0049492Y0059346D02*
X0049383Y0059346D01*
X0049492Y0059346D01*
X0049492Y0057748D02*
X0049383Y0057748D01*
X0049492Y0057748D01*
X0049492Y0056149D02*
X0049383Y0056149D01*
X0049492Y0056149D01*
X0049492Y0054551D02*
X0049383Y0054551D01*
X0049492Y0054551D01*
X0049492Y0052952D02*
X0049383Y0052952D01*
X0049492Y0052952D01*
X0049492Y0051354D02*
X0049383Y0051354D01*
X0049492Y0051354D01*
X0049963Y0049755D02*
X0048912Y0049755D01*
X0049963Y0049755D01*
X0051163Y0048157D02*
X0047712Y0048157D01*
X0051163Y0048157D01*
X0027062Y0025778D02*
X0232444Y0025778D01*
X0027062Y0025778D01*
X0028060Y0024179D02*
X0231445Y0024179D01*
X0028060Y0024179D01*
X0028983Y0022581D02*
X0230522Y0022581D01*
X0028983Y0022581D01*
X0029554Y0020982D02*
X0229952Y0020982D01*
X0029554Y0020982D01*
X0029835Y0019384D02*
X0229670Y0019384D01*
X0029835Y0019384D01*
X0030117Y0017785D02*
X0229388Y0017785D01*
X0030117Y0017785D01*
X0029919Y0016187D02*
X0229587Y0016187D01*
X0029919Y0016187D01*
X0029637Y0014588D02*
X0229868Y0014588D01*
X0029637Y0014588D01*
X0029399Y0013235D02*
X0029399Y0013235D01*
X0029257Y0012990D02*
X0230249Y0012990D01*
X0029257Y0012990D01*
X0028334Y0011391D02*
X0231171Y0011391D01*
X0028334Y0011391D01*
X0027411Y0009793D02*
X0232094Y0009793D01*
X0027411Y0009793D01*
X0025722Y0008194D02*
X0233784Y0008194D01*
X0025722Y0008194D01*
X0023768Y0006596D02*
X0235737Y0006596D01*
X0023768Y0006596D01*
X0025156Y0027376D02*
X0234349Y0027376D01*
X0025156Y0027376D01*
X0022466Y0028975D02*
X0237040Y0028975D01*
X0022466Y0028975D01*
X0030469Y0094514D02*
X0037369Y0094514D01*
X0030469Y0094514D01*
X0029753Y0097863D02*
X0044698Y0097863D01*
X0044769Y0097792D01*
X0091887Y0097792D01*
X0104162Y0110068D01*
X0104162Y0117548D01*
X0115811Y0108900D02*
X0120356Y0108900D01*
X0115811Y0108900D01*
X0115811Y0107302D02*
X0118757Y0107302D01*
X0115811Y0107302D01*
X0115811Y0105703D02*
X0117710Y0105703D01*
X0115811Y0105703D01*
X0115811Y0104105D02*
X0117710Y0104105D01*
X0115811Y0104105D01*
X0115811Y0102506D02*
X0117710Y0102506D01*
X0115811Y0102506D01*
X0115811Y0100908D02*
X0117710Y0100908D01*
X0115811Y0100908D01*
X0116457Y0099309D02*
X0118896Y0099309D01*
X0116457Y0099309D01*
X0117710Y0100495D02*
X0120072Y0098133D01*
X0121361Y0096844D01*
X0126101Y0096844D01*
X0126937Y0096008D01*
X0128253Y0095463D01*
X0129678Y0095463D01*
X0130994Y0096008D01*
X0132001Y0097016D01*
X0132546Y0098332D01*
X0132546Y0099756D01*
X0132001Y0101073D01*
X0130994Y0102080D01*
X0129678Y0102625D01*
X0128253Y0102625D01*
X0126937Y0102080D01*
X0126101Y0101244D01*
X0123184Y0101244D01*
X0122110Y0102318D01*
X0122110Y0104432D01*
X0123258Y0105580D01*
X0132013Y0105580D01*
X0132833Y0106400D01*
X0132833Y0109759D01*
X0132013Y0110580D01*
X0123053Y0110580D01*
X0122753Y0110280D01*
X0121735Y0110280D01*
X0118999Y0107543D01*
X0117710Y0106255D01*
X0117710Y0100495D01*
X0120072Y0098133D01*
X0121361Y0096844D01*
X0126101Y0096844D01*
X0126937Y0096008D01*
X0128253Y0095463D01*
X0129678Y0095463D01*
X0130994Y0096008D01*
X0132001Y0097016D01*
X0132546Y0098332D01*
X0132546Y0099756D01*
X0132001Y0101073D01*
X0130994Y0102080D01*
X0129678Y0102625D01*
X0128253Y0102625D01*
X0126937Y0102080D01*
X0126101Y0101244D01*
X0123184Y0101244D01*
X0122110Y0102318D01*
X0122110Y0104432D01*
X0123258Y0105580D01*
X0132013Y0105580D01*
X0132833Y0106400D01*
X0132833Y0109759D01*
X0132013Y0110580D01*
X0123053Y0110580D01*
X0122753Y0110280D01*
X0121735Y0110280D01*
X0118999Y0107543D01*
X0117710Y0106255D01*
X0117710Y0100495D01*
X0119910Y0101406D02*
X0122272Y0099044D01*
X0128965Y0099044D01*
X0132289Y0097711D02*
X0162605Y0097711D01*
X0132289Y0097711D01*
X0132546Y0099309D02*
X0162605Y0099309D01*
X0132546Y0099309D01*
X0132070Y0100908D02*
X0162605Y0100908D01*
X0132070Y0100908D01*
X0129965Y0102506D02*
X0215909Y0102506D01*
X0129965Y0102506D01*
X0127966Y0102506D02*
X0122110Y0102506D01*
X0127966Y0102506D01*
X0127533Y0108080D02*
X0122646Y0108080D01*
X0119910Y0105343D01*
X0119910Y0101406D01*
X0120495Y0097711D02*
X0118056Y0097711D01*
X0120495Y0097711D01*
X0119654Y0096112D02*
X0126833Y0096112D01*
X0119654Y0096112D01*
X0121253Y0094514D02*
X0176988Y0094514D01*
X0121253Y0094514D01*
X0121879Y0090776D02*
X0113611Y0099044D01*
X0121879Y0090776D02*
X0157706Y0090776D01*
X0160113Y0088120D02*
X0209963Y0088120D01*
X0160113Y0088120D01*
X0161143Y0089718D02*
X0211561Y0089718D01*
X0161143Y0089718D01*
X0161287Y0091317D02*
X0213160Y0091317D01*
X0161287Y0091317D01*
X0160631Y0092915D02*
X0214758Y0092915D01*
X0160631Y0092915D01*
X0162605Y0096112D02*
X0131098Y0096112D01*
X0162605Y0096112D01*
X0166761Y0098650D02*
X0167351Y0098060D01*
X0162605Y0104105D02*
X0122110Y0104105D01*
X0162605Y0104105D01*
X0158565Y0105703D02*
X0151537Y0105703D01*
X0158565Y0105703D01*
X0156966Y0107302D02*
X0152233Y0107302D01*
X0156966Y0107302D01*
X0155368Y0108900D02*
X0152233Y0108900D01*
X0155368Y0108900D01*
X0153769Y0110499D02*
X0151494Y0110499D01*
X0153769Y0110499D01*
X0158394Y0112097D02*
X0162605Y0112097D01*
X0158394Y0112097D01*
X0159992Y0110499D02*
X0215909Y0110499D01*
X0159992Y0110499D01*
X0161591Y0108900D02*
X0162605Y0108900D01*
X0161591Y0108900D01*
X0162605Y0116893D02*
X0159503Y0116893D01*
X0162605Y0116893D01*
X0162605Y0120090D02*
X0156306Y0120090D01*
X0162605Y0120090D01*
X0166761Y0122272D02*
X0167328Y0123434D01*
X0161043Y0126484D02*
X0236844Y0126484D01*
X0161043Y0126484D01*
X0161287Y0128082D02*
X0174455Y0128082D01*
X0161287Y0128082D01*
X0160796Y0129681D02*
X0174455Y0129681D01*
X0160796Y0129681D01*
X0158625Y0131279D02*
X0174455Y0131279D01*
X0158625Y0131279D01*
X0156786Y0131279D02*
X0149276Y0131279D01*
X0156786Y0131279D01*
X0154615Y0129681D02*
X0149276Y0129681D01*
X0154615Y0129681D01*
X0154124Y0128082D02*
X0149276Y0128082D01*
X0154124Y0128082D01*
X0153294Y0126484D02*
X0149276Y0126484D01*
X0153294Y0126484D01*
X0153001Y0123080D02*
X0157706Y0127784D01*
X0153001Y0123080D02*
X0146933Y0123080D01*
X0141633Y0118491D02*
X0138141Y0118491D01*
X0141633Y0118491D01*
X0141633Y0116893D02*
X0139740Y0116893D01*
X0141633Y0116893D01*
X0157905Y0118491D02*
X0195159Y0118491D01*
X0157905Y0118491D01*
X0149276Y0132878D02*
X0174455Y0132878D01*
X0149276Y0132878D01*
X0149276Y0134476D02*
X0175961Y0134476D01*
X0149276Y0134476D01*
X0149276Y0136075D02*
X0175961Y0136075D01*
X0149276Y0136075D01*
X0148565Y0137673D02*
X0174541Y0137673D01*
X0148565Y0137673D01*
X0146967Y0139272D02*
X0172943Y0139272D01*
X0146967Y0139272D01*
X0144735Y0140870D02*
X0171344Y0140870D01*
X0144735Y0140870D01*
X0143370Y0142469D02*
X0169746Y0142469D01*
X0143370Y0142469D01*
X0143370Y0144068D02*
X0168147Y0144068D01*
X0143370Y0144068D01*
X0143370Y0145666D02*
X0166549Y0145666D01*
X0143370Y0145666D01*
X0144735Y0147265D02*
X0164950Y0147265D01*
X0144735Y0147265D01*
X0144735Y0148863D02*
X0163351Y0148863D01*
X0144735Y0148863D01*
X0144735Y0150462D02*
X0161753Y0150462D01*
X0144735Y0150462D01*
X0144735Y0152060D02*
X0160154Y0152060D01*
X0144735Y0152060D01*
X0144244Y0153659D02*
X0158556Y0153659D01*
X0144244Y0153659D01*
X0143370Y0155257D02*
X0156957Y0155257D01*
X0143370Y0155257D01*
X0142375Y0156856D02*
X0155359Y0156856D01*
X0142375Y0156856D01*
X0140777Y0158454D02*
X0153760Y0158454D01*
X0140777Y0158454D01*
X0147366Y0164848D02*
X0100451Y0164848D01*
X0147366Y0164848D01*
X0145768Y0166447D02*
X0101068Y0166447D01*
X0145768Y0166447D01*
X0144169Y0168045D02*
X0101068Y0168045D01*
X0144169Y0168045D01*
X0142571Y0169644D02*
X0100903Y0169644D01*
X0142571Y0169644D01*
X0140972Y0171242D02*
X0100241Y0171242D01*
X0140972Y0171242D01*
X0139374Y0172841D02*
X0112692Y0172841D01*
X0139374Y0172841D01*
X0137775Y0174439D02*
X0116353Y0174439D01*
X0137775Y0174439D01*
X0136177Y0176038D02*
X0118326Y0176038D01*
X0136177Y0176038D01*
X0134578Y0177636D02*
X0119785Y0177636D01*
X0134578Y0177636D01*
X0132980Y0179235D02*
X0120708Y0179235D01*
X0132980Y0179235D01*
X0132142Y0180833D02*
X0121431Y0180833D01*
X0132142Y0180833D01*
X0132142Y0182432D02*
X0121859Y0182432D01*
X0132142Y0182432D01*
X0132142Y0184030D02*
X0126338Y0184030D01*
X0132142Y0184030D01*
X0130856Y0185629D02*
X0128649Y0185629D01*
X0130856Y0185629D01*
X0130021Y0187227D02*
X0129485Y0187227D01*
X0130021Y0187227D01*
X0129698Y0187743D02*
X0129698Y0196802D01*
X0128945Y0198620D01*
X0127554Y0200011D01*
X0125737Y0200764D01*
X0124891Y0200764D01*
X0121411Y0204243D01*
X0120437Y0204647D01*
X0098517Y0204647D01*
X0097543Y0204243D01*
X0096798Y0203498D01*
X0094063Y0200764D01*
X0093218Y0200764D01*
X0091400Y0200011D01*
X0090009Y0198620D01*
X0089256Y0196802D01*
X0089256Y0187743D01*
X0090009Y0185925D01*
X0091400Y0184534D01*
X0093218Y0183781D01*
X0095185Y0183781D01*
X0096835Y0184464D01*
X0096835Y0183403D01*
X0097696Y0180188D01*
X0099361Y0177305D01*
X0101714Y0174951D01*
X0104597Y0173287D01*
X0107813Y0172425D01*
X0111142Y0172425D01*
X0114357Y0173287D01*
X0117240Y0174951D01*
X0119594Y0177305D01*
X0121258Y0180188D01*
X0122120Y0183403D01*
X0122120Y0184464D01*
X0123769Y0183781D01*
X0125737Y0183781D01*
X0127554Y0184534D01*
X0128945Y0185925D01*
X0129698Y0187743D01*
X0129698Y0196802D01*
X0128945Y0198620D01*
X0127554Y0200011D01*
X0125737Y0200764D01*
X0124891Y0200764D01*
X0121411Y0204243D01*
X0120437Y0204647D01*
X0098517Y0204647D01*
X0097543Y0204243D01*
X0096798Y0203498D01*
X0094063Y0200764D01*
X0093218Y0200764D01*
X0091400Y0200011D01*
X0090009Y0198620D01*
X0089256Y0196802D01*
X0089256Y0187743D01*
X0090009Y0185925D01*
X0091400Y0184534D01*
X0093218Y0183781D01*
X0095185Y0183781D01*
X0096835Y0184464D01*
X0096835Y0183403D01*
X0097696Y0180188D01*
X0099361Y0177305D01*
X0101714Y0174951D01*
X0104597Y0173287D01*
X0107813Y0172425D01*
X0111142Y0172425D01*
X0114357Y0173287D01*
X0117240Y0174951D01*
X0119594Y0177305D01*
X0121258Y0180188D01*
X0122120Y0183403D01*
X0122120Y0184464D01*
X0123769Y0183781D01*
X0125737Y0183781D01*
X0127554Y0184534D01*
X0128945Y0185925D01*
X0129698Y0187743D01*
X0129698Y0188826D02*
X0129807Y0188826D01*
X0129698Y0188826D01*
X0129698Y0190424D02*
X0129807Y0190424D01*
X0129698Y0190424D01*
X0129698Y0192023D02*
X0129807Y0192023D01*
X0129698Y0192023D01*
X0129698Y0193621D02*
X0129807Y0193621D01*
X0129698Y0193621D01*
X0129698Y0195220D02*
X0129807Y0195220D01*
X0129698Y0195220D01*
X0129692Y0196818D02*
X0129814Y0196818D01*
X0129692Y0196818D01*
X0129029Y0198417D02*
X0130476Y0198417D01*
X0129029Y0198417D01*
X0127543Y0200015D02*
X0131962Y0200015D01*
X0127543Y0200015D01*
X0124041Y0201614D02*
X0254906Y0201614D01*
X0124041Y0201614D01*
X0122442Y0203212D02*
X0254906Y0203212D01*
X0122442Y0203212D01*
X0134753Y0192272D02*
X0134792Y0192233D01*
X0137442Y0182432D02*
X0213015Y0182432D01*
X0137442Y0182432D01*
X0145271Y0174439D02*
X0196740Y0174439D01*
X0145271Y0174439D01*
X0146869Y0172841D02*
X0194493Y0172841D01*
X0146869Y0172841D01*
X0148468Y0171242D02*
X0193296Y0171242D01*
X0148468Y0171242D01*
X0150066Y0169644D02*
X0192634Y0169644D01*
X0150066Y0169644D01*
X0151665Y0168045D02*
X0192469Y0168045D01*
X0151665Y0168045D01*
X0153263Y0166447D02*
X0192469Y0166447D01*
X0153263Y0166447D01*
X0154862Y0164848D02*
X0193086Y0164848D01*
X0154862Y0164848D01*
X0156460Y0163250D02*
X0193987Y0163250D01*
X0156460Y0163250D01*
X0150563Y0161651D02*
X0097951Y0161651D01*
X0150563Y0161651D01*
X0148965Y0163250D02*
X0099550Y0163250D01*
X0148965Y0163250D01*
X0123167Y0184030D02*
X0122120Y0184030D01*
X0123167Y0184030D01*
X0106262Y0172841D02*
X0099044Y0172841D01*
X0106262Y0172841D01*
X0102601Y0174439D02*
X0096797Y0174439D01*
X0102601Y0174439D01*
X0099957Y0171927D02*
X0097904Y0173981D01*
X0095221Y0175092D01*
X0092316Y0175092D01*
X0089633Y0173981D01*
X0087580Y0171927D01*
X0086469Y0169244D01*
X0086469Y0166340D01*
X0087580Y0163657D01*
X0089633Y0161603D01*
X0092316Y0160492D01*
X0095221Y0160492D01*
X0097904Y0161603D01*
X0099957Y0163657D01*
X0101068Y0166340D01*
X0101068Y0169244D01*
X0099957Y0171927D01*
X0097904Y0173981D01*
X0095221Y0175092D01*
X0092316Y0175092D01*
X0089633Y0173981D01*
X0087580Y0171927D01*
X0086469Y0169244D01*
X0086469Y0166340D01*
X0087580Y0163657D01*
X0089633Y0161603D01*
X0092316Y0160492D01*
X0095221Y0160492D01*
X0097904Y0161603D01*
X0099957Y0163657D01*
X0101068Y0166340D01*
X0101068Y0169244D01*
X0099957Y0171927D01*
X0096835Y0184030D02*
X0095787Y0184030D01*
X0096835Y0184030D01*
X0092616Y0184030D02*
X0085787Y0184030D01*
X0092616Y0184030D01*
X0090305Y0185629D02*
X0088098Y0185629D01*
X0090305Y0185629D01*
X0089470Y0187227D02*
X0088934Y0187227D01*
X0089470Y0187227D01*
X0089256Y0188826D02*
X0089147Y0188826D01*
X0089256Y0188826D01*
X0089256Y0190424D02*
X0089147Y0190424D01*
X0089256Y0190424D01*
X0089256Y0192023D02*
X0089147Y0192023D01*
X0089256Y0192023D01*
X0089256Y0193621D02*
X0089147Y0193621D01*
X0089256Y0193621D01*
X0089256Y0195220D02*
X0089147Y0195220D01*
X0089256Y0195220D01*
X0089263Y0196818D02*
X0089140Y0196818D01*
X0089263Y0196818D01*
X0089925Y0198417D02*
X0088478Y0198417D01*
X0089925Y0198417D01*
X0091411Y0200015D02*
X0086992Y0200015D01*
X0091411Y0200015D01*
X0081411Y0200015D02*
X0057228Y0200015D01*
X0081411Y0200015D01*
X0079925Y0198417D02*
X0058714Y0198417D01*
X0079925Y0198417D01*
X0079263Y0196818D02*
X0059377Y0196818D01*
X0079263Y0196818D01*
X0079256Y0195220D02*
X0059383Y0195220D01*
X0079256Y0195220D01*
X0079256Y0188826D02*
X0059383Y0188826D01*
X0079256Y0188826D01*
X0079470Y0187227D02*
X0059170Y0187227D01*
X0079470Y0187227D01*
X0080305Y0185629D02*
X0058334Y0185629D01*
X0080305Y0185629D01*
X0082616Y0184030D02*
X0056023Y0184030D01*
X0082616Y0184030D01*
X0052852Y0184030D02*
X0046995Y0184030D01*
X0052852Y0184030D01*
X0050542Y0185629D02*
X0048795Y0185629D01*
X0050542Y0185629D01*
X0049706Y0187227D02*
X0049571Y0187227D01*
X0049706Y0187227D01*
X0044711Y0187227D02*
X0044165Y0187227D01*
X0044711Y0187227D01*
X0044711Y0185629D02*
X0044165Y0185629D01*
X0044711Y0185629D01*
X0044711Y0184030D02*
X0044165Y0184030D01*
X0044711Y0184030D01*
X0044711Y0188826D02*
X0044165Y0188826D01*
X0044711Y0188826D01*
X0044711Y0190424D02*
X0044165Y0190424D01*
X0044711Y0190424D01*
X0049113Y0198417D02*
X0050161Y0198417D01*
X0049113Y0198417D01*
X0047755Y0200015D02*
X0051647Y0200015D01*
X0047755Y0200015D01*
X0051348Y0156192D02*
X0038189Y0156192D01*
X0037369Y0155372D01*
X0037369Y0142212D01*
X0038189Y0141392D01*
X0042513Y0141392D01*
X0042513Y0140507D01*
X0032660Y0130654D01*
X0027110Y0130654D01*
X0026861Y0131255D01*
X0025470Y0132646D01*
X0023652Y0133399D01*
X0014593Y0133399D01*
X0012776Y0132646D01*
X0011384Y0131255D01*
X0010631Y0129437D01*
X0010631Y0127470D01*
X0011384Y0125652D01*
X0012776Y0124261D01*
X0014260Y0123646D01*
X0013525Y0123408D01*
X0012775Y0123026D01*
X0012095Y0122531D01*
X0011500Y0121936D01*
X0011005Y0121255D01*
X0010623Y0120506D01*
X0010363Y0119705D01*
X0010231Y0118874D01*
X0010231Y0118726D01*
X0018850Y0118726D01*
X0018850Y0118181D01*
X0010231Y0118181D01*
X0010231Y0118033D01*
X0010363Y0117202D01*
X0010623Y0116402D01*
X0011005Y0115652D01*
X0011500Y0114971D01*
X0012095Y0114376D01*
X0012775Y0113882D01*
X0013525Y0113500D01*
X0014325Y0113240D01*
X0015156Y0113108D01*
X0018850Y0113108D01*
X0018850Y0118181D01*
X0010231Y0118181D01*
X0010231Y0118033D01*
X0010363Y0117202D01*
X0010623Y0116402D01*
X0011005Y0115652D01*
X0011500Y0114971D01*
X0012095Y0114376D01*
X0012775Y0113882D01*
X0013525Y0113500D01*
X0014325Y0113240D01*
X0015156Y0113108D01*
X0018850Y0113108D01*
X0018850Y0118181D01*
X0018850Y0118726D01*
X0010231Y0118726D01*
X0010231Y0118874D01*
X0010363Y0119705D01*
X0010623Y0120506D01*
X0011005Y0121255D01*
X0011500Y0121936D01*
X0012095Y0122531D01*
X0012775Y0123026D01*
X0013525Y0123408D01*
X0014260Y0123646D01*
X0012776Y0124261D01*
X0011384Y0125652D01*
X0010631Y0127470D01*
X0010631Y0129437D01*
X0011384Y0131255D01*
X0012776Y0132646D01*
X0014593Y0133399D01*
X0023652Y0133399D01*
X0025470Y0132646D01*
X0026861Y0131255D01*
X0027110Y0130654D01*
X0032660Y0130654D01*
X0042513Y0140507D01*
X0042513Y0141392D01*
X0038189Y0141392D01*
X0037369Y0142212D01*
X0037369Y0155372D01*
X0038189Y0156192D01*
X0051348Y0156192D01*
X0052168Y0155372D01*
X0052168Y0142212D01*
X0051348Y0141392D01*
X0046913Y0141392D01*
X0046913Y0138684D01*
X0045625Y0137395D01*
X0045625Y0137395D01*
X0046913Y0138684D01*
X0046913Y0141392D01*
X0051348Y0141392D01*
X0052168Y0142212D01*
X0052168Y0155372D01*
X0051348Y0156192D01*
X0044769Y0148792D02*
X0044713Y0148737D01*
X0044713Y0139595D01*
X0033572Y0128454D01*
X0019123Y0128454D01*
X0023986Y0123646D02*
X0025470Y0124261D01*
X0026861Y0125652D01*
X0027110Y0126254D01*
X0034483Y0126254D01*
X0045625Y0137395D01*
X0045625Y0137395D01*
X0034483Y0126254D01*
X0027110Y0126254D01*
X0026861Y0125652D01*
X0025470Y0124261D01*
X0023986Y0123646D01*
X0024721Y0123408D01*
X0025470Y0123026D01*
X0026151Y0122531D01*
X0026746Y0121936D01*
X0027241Y0121255D01*
X0027623Y0120506D01*
X0027883Y0119705D01*
X0028014Y0118874D01*
X0028014Y0118726D01*
X0019396Y0118726D01*
X0019396Y0118181D01*
X0028014Y0118181D01*
X0028014Y0118033D01*
X0027883Y0117202D01*
X0027623Y0116402D01*
X0027241Y0115652D01*
X0026746Y0114971D01*
X0026151Y0114376D01*
X0025470Y0113882D01*
X0024721Y0113500D01*
X0023920Y0113240D01*
X0023089Y0113108D01*
X0019396Y0113108D01*
X0019396Y0118181D01*
X0019396Y0118726D01*
X0028014Y0118726D01*
X0028014Y0118874D01*
X0027883Y0119705D01*
X0027623Y0120506D01*
X0027241Y0121255D01*
X0026746Y0121936D01*
X0026151Y0122531D01*
X0025470Y0123026D01*
X0024721Y0123408D01*
X0023986Y0123646D01*
X0024957Y0123287D02*
X0043250Y0123287D01*
X0024957Y0123287D01*
X0026095Y0124885D02*
X0039567Y0124885D01*
X0026095Y0124885D01*
X0026926Y0121688D02*
X0039567Y0121688D01*
X0026926Y0121688D01*
X0027758Y0120090D02*
X0039666Y0120090D01*
X0027758Y0120090D01*
X0028014Y0118181D02*
X0019396Y0118181D01*
X0018850Y0118181D01*
X0019396Y0118181D01*
X0019396Y0113108D01*
X0023089Y0113108D01*
X0023920Y0113240D01*
X0024721Y0113500D01*
X0025470Y0113882D01*
X0026151Y0114376D01*
X0026746Y0114971D01*
X0027241Y0115652D01*
X0027623Y0116402D01*
X0027883Y0117202D01*
X0028014Y0118033D01*
X0028014Y0118181D01*
X0027782Y0116893D02*
X0058497Y0116893D01*
X0027782Y0116893D01*
X0019396Y0116893D02*
X0018850Y0116893D01*
X0019396Y0116893D01*
X0019396Y0118491D02*
X0057267Y0118491D01*
X0019396Y0118491D01*
X0019396Y0115294D02*
X0018850Y0115294D01*
X0019396Y0115294D01*
X0019396Y0113696D02*
X0018850Y0113696D01*
X0019396Y0113696D01*
X0031204Y0100908D02*
X0037369Y0100908D01*
X0031204Y0100908D01*
X0040672Y0119020D02*
X0041130Y0118898D01*
X0043250Y0118898D01*
X0043250Y0123171D01*
X0043815Y0123171D01*
X0043815Y0123736D01*
X0047498Y0123736D01*
X0047498Y0126446D01*
X0047375Y0126904D01*
X0047138Y0127315D01*
X0046803Y0127650D01*
X0046392Y0127887D01*
X0045935Y0128009D01*
X0043815Y0128009D01*
X0043815Y0123736D01*
X0047498Y0123736D01*
X0047498Y0126446D01*
X0047375Y0126904D01*
X0047138Y0127315D01*
X0046803Y0127650D01*
X0046392Y0127887D01*
X0045935Y0128009D01*
X0043815Y0128009D01*
X0043815Y0123736D01*
X0043815Y0123171D01*
X0047498Y0123171D01*
X0047498Y0120461D01*
X0047375Y0120003D01*
X0047138Y0119592D01*
X0046803Y0119257D01*
X0046392Y0119020D01*
X0045935Y0118898D01*
X0043815Y0118898D01*
X0043815Y0123171D01*
X0047498Y0123171D01*
X0047498Y0120461D01*
X0047375Y0120003D01*
X0047138Y0119592D01*
X0046803Y0119257D01*
X0046392Y0119020D01*
X0045935Y0118898D01*
X0043815Y0118898D01*
X0043815Y0123171D01*
X0043250Y0123171D01*
X0043250Y0118898D01*
X0041130Y0118898D01*
X0040672Y0119020D01*
X0040262Y0119257D01*
X0039927Y0119592D01*
X0039690Y0120003D01*
X0039567Y0120461D01*
X0039567Y0123171D01*
X0043250Y0123171D01*
X0043250Y0123736D01*
X0043250Y0128009D01*
X0041130Y0128009D01*
X0040672Y0127887D01*
X0040262Y0127650D01*
X0039927Y0127315D01*
X0039690Y0126904D01*
X0039567Y0126446D01*
X0039567Y0123736D01*
X0043250Y0123736D01*
X0043815Y0123736D01*
X0043250Y0123736D01*
X0043250Y0128009D01*
X0041130Y0128009D01*
X0040672Y0127887D01*
X0040262Y0127650D01*
X0039927Y0127315D01*
X0039690Y0126904D01*
X0039567Y0126446D01*
X0039567Y0123736D01*
X0043250Y0123736D01*
X0043250Y0123171D01*
X0039567Y0123171D01*
X0039567Y0120461D01*
X0039690Y0120003D01*
X0039927Y0119592D01*
X0040262Y0119257D01*
X0040672Y0119020D01*
X0043250Y0120090D02*
X0043815Y0120090D01*
X0043250Y0120090D01*
X0043532Y0119517D02*
X0043532Y0123454D01*
X0043815Y0123287D02*
X0047841Y0123287D01*
X0043815Y0123287D01*
X0043815Y0124885D02*
X0043250Y0124885D01*
X0043815Y0124885D01*
X0043815Y0126484D02*
X0043250Y0126484D01*
X0043815Y0126484D01*
X0039577Y0126484D02*
X0034713Y0126484D01*
X0039577Y0126484D01*
X0043250Y0121688D02*
X0043815Y0121688D01*
X0043250Y0121688D01*
X0047498Y0121688D02*
X0047841Y0121688D01*
X0047498Y0121688D01*
X0047398Y0120090D02*
X0047869Y0120090D01*
X0047398Y0120090D01*
X0051406Y0123454D02*
X0061567Y0123454D01*
X0057267Y0120090D02*
X0054944Y0120090D01*
X0057267Y0120090D01*
X0061567Y0116893D02*
X0061567Y0116893D01*
X0061567Y0116893D01*
X0052168Y0104105D02*
X0095088Y0104105D01*
X0052168Y0104105D01*
X0052168Y0102506D02*
X0093489Y0102506D01*
X0052168Y0102506D01*
X0052168Y0100908D02*
X0091891Y0100908D01*
X0052168Y0100908D01*
X0047841Y0124885D02*
X0047498Y0124885D01*
X0047841Y0124885D01*
X0047841Y0126484D02*
X0047488Y0126484D01*
X0047841Y0126484D01*
X0034885Y0132878D02*
X0024911Y0132878D01*
X0034885Y0132878D01*
X0033286Y0131279D02*
X0026837Y0131279D01*
X0033286Y0131279D01*
X0115526Y0073733D02*
X0130647Y0073733D01*
X0115526Y0073733D01*
X0117849Y0072134D02*
X0131827Y0072134D01*
X0117849Y0072134D01*
X0119447Y0070536D02*
X0131827Y0070536D01*
X0119447Y0070536D01*
X0120432Y0068937D02*
X0131827Y0068937D01*
X0120432Y0068937D01*
X0121303Y0067339D02*
X0131827Y0067339D01*
X0121303Y0067339D01*
X0121731Y0065740D02*
X0131827Y0065740D01*
X0121731Y0065740D01*
X0122120Y0064142D02*
X0131827Y0064142D01*
X0122120Y0064142D01*
X0128171Y0062543D02*
X0131334Y0062543D01*
X0128171Y0062543D01*
X0129287Y0060945D02*
X0130219Y0060945D01*
X0129287Y0060945D01*
X0129698Y0059346D02*
X0129807Y0059346D01*
X0129698Y0059346D01*
X0129698Y0057748D02*
X0129807Y0057748D01*
X0129698Y0057748D01*
X0129698Y0056149D02*
X0129807Y0056149D01*
X0129698Y0056149D01*
X0129698Y0054551D02*
X0129807Y0054551D01*
X0129698Y0054551D01*
X0129698Y0052952D02*
X0129807Y0052952D01*
X0129698Y0052952D01*
X0129698Y0051354D02*
X0129807Y0051354D01*
X0129698Y0051354D01*
X0129227Y0049755D02*
X0130278Y0049755D01*
X0129227Y0049755D01*
X0128027Y0048157D02*
X0131478Y0048157D01*
X0128027Y0048157D01*
X0128112Y0046558D02*
X0171708Y0046558D01*
X0128112Y0046558D01*
X0123252Y0043924D02*
X0123252Y0043924D01*
X0125538Y0041637D02*
X0125538Y0041637D01*
X0119807Y0051354D02*
X0115237Y0051354D01*
X0119807Y0051354D01*
X0119807Y0052952D02*
X0117682Y0052952D01*
X0119807Y0052952D01*
X0119807Y0054551D02*
X0119280Y0054551D01*
X0119807Y0054551D01*
X0137127Y0064142D02*
X0166772Y0064142D01*
X0137127Y0064142D01*
X0137127Y0065740D02*
X0156155Y0065740D01*
X0137127Y0065740D01*
X0137127Y0067339D02*
X0143734Y0067339D01*
X0137127Y0067339D01*
X0137127Y0068937D02*
X0142135Y0068937D01*
X0137127Y0068937D01*
X0137127Y0070536D02*
X0140537Y0070536D01*
X0137127Y0070536D01*
X0137127Y0072134D02*
X0138938Y0072134D01*
X0137127Y0072134D01*
X0137127Y0073733D02*
X0137340Y0073733D01*
X0137127Y0073733D01*
X0138441Y0080127D02*
X0139469Y0080127D01*
X0138441Y0080127D01*
X0139668Y0081726D02*
X0136843Y0081726D01*
X0139668Y0081726D01*
X0140330Y0083324D02*
X0135244Y0083324D01*
X0140330Y0083324D01*
X0141575Y0084923D02*
X0133646Y0084923D01*
X0141575Y0084923D01*
X0143938Y0086521D02*
X0132047Y0086521D01*
X0143938Y0086521D01*
X0149599Y0086521D02*
X0208364Y0086521D01*
X0149599Y0086521D01*
X0151962Y0084923D02*
X0206765Y0084923D01*
X0151962Y0084923D01*
X0153207Y0083324D02*
X0205167Y0083324D01*
X0153207Y0083324D01*
X0153869Y0081726D02*
X0203568Y0081726D01*
X0153869Y0081726D01*
X0154068Y0080127D02*
X0155903Y0080127D01*
X0154068Y0080127D01*
X0154068Y0078529D02*
X0155518Y0078529D01*
X0154068Y0078529D01*
X0153484Y0076930D02*
X0155518Y0076930D01*
X0153484Y0076930D01*
X0152632Y0075332D02*
X0155518Y0075332D01*
X0152632Y0075332D01*
X0151033Y0073733D02*
X0156037Y0073733D01*
X0151033Y0073733D01*
X0146434Y0072134D02*
X0155785Y0072134D01*
X0146434Y0072134D01*
X0138171Y0062543D02*
X0161885Y0062543D01*
X0138171Y0062543D01*
X0139287Y0060945D02*
X0160770Y0060945D01*
X0139287Y0060945D01*
X0139698Y0059346D02*
X0160358Y0059346D01*
X0139698Y0059346D01*
X0139698Y0057748D02*
X0160358Y0057748D01*
X0139698Y0057748D01*
X0139698Y0056149D02*
X0160358Y0056149D01*
X0139698Y0056149D01*
X0139698Y0054551D02*
X0160358Y0054551D01*
X0139698Y0054551D01*
X0139698Y0052952D02*
X0160358Y0052952D01*
X0139698Y0052952D01*
X0139698Y0051354D02*
X0160358Y0051354D01*
X0139698Y0051354D01*
X0139227Y0049755D02*
X0160829Y0049755D01*
X0139227Y0049755D01*
X0138027Y0048157D02*
X0162029Y0048157D01*
X0138027Y0048157D01*
X0163193Y0065740D02*
X0167966Y0065740D01*
X0163193Y0065740D01*
X0163830Y0067339D02*
X0167329Y0067339D01*
X0163830Y0067339D01*
X0163830Y0068937D02*
X0167329Y0068937D01*
X0163830Y0068937D01*
X0163830Y0070536D02*
X0167329Y0070536D01*
X0163830Y0070536D01*
X0163563Y0072134D02*
X0167596Y0072134D01*
X0163563Y0072134D01*
X0163311Y0073733D02*
X0167848Y0073733D01*
X0163311Y0073733D01*
X0163445Y0080127D02*
X0167714Y0080127D01*
X0163445Y0080127D01*
X0155298Y0088120D02*
X0130448Y0088120D01*
X0155298Y0088120D01*
X0175256Y0080127D02*
X0201970Y0080127D01*
X0175256Y0080127D01*
X0175122Y0073733D02*
X0194560Y0073733D01*
X0175122Y0073733D01*
X0175375Y0072134D02*
X0193707Y0072134D01*
X0175375Y0072134D01*
X0175641Y0070536D02*
X0193823Y0070536D01*
X0175641Y0070536D01*
X0175641Y0068937D02*
X0194859Y0068937D01*
X0175641Y0068937D01*
X0175641Y0067339D02*
X0203205Y0067339D01*
X0175641Y0067339D01*
X0175004Y0065740D02*
X0203205Y0065740D01*
X0175004Y0065740D01*
X0173954Y0064142D02*
X0203205Y0064142D01*
X0173954Y0064142D01*
X0178722Y0062543D02*
X0202437Y0062543D01*
X0178722Y0062543D01*
X0179838Y0060945D02*
X0201321Y0060945D01*
X0179838Y0060945D01*
X0180250Y0059346D02*
X0200909Y0059346D01*
X0180250Y0059346D01*
X0180250Y0057748D02*
X0200909Y0057748D01*
X0180250Y0057748D01*
X0180250Y0056149D02*
X0200909Y0056149D01*
X0180250Y0056149D01*
X0180250Y0054551D02*
X0200909Y0054551D01*
X0180250Y0054551D01*
X0180250Y0052952D02*
X0200909Y0052952D01*
X0180250Y0052952D01*
X0180250Y0051354D02*
X0200909Y0051354D01*
X0180250Y0051354D01*
X0179779Y0049755D02*
X0201381Y0049755D01*
X0179779Y0049755D01*
X0178579Y0048157D02*
X0202580Y0048157D01*
X0178579Y0048157D01*
X0177915Y0046558D02*
X0215260Y0046558D01*
X0177915Y0046558D01*
X0177550Y0044960D02*
X0237458Y0044960D01*
X0177550Y0044960D01*
X0176766Y0044120D02*
X0176766Y0044120D01*
X0176007Y0043361D02*
X0254906Y0043361D01*
X0176007Y0043361D01*
X0174408Y0041763D02*
X0254906Y0041763D01*
X0174408Y0041763D01*
X0172029Y0048157D02*
X0168579Y0048157D01*
X0172029Y0048157D01*
X0170829Y0049755D02*
X0169779Y0049755D01*
X0170829Y0049755D01*
X0170358Y0051354D02*
X0170250Y0051354D01*
X0170358Y0051354D01*
X0170358Y0052952D02*
X0170250Y0052952D01*
X0170358Y0052952D01*
X0170358Y0054551D02*
X0170250Y0054551D01*
X0170358Y0054551D01*
X0170358Y0056149D02*
X0170250Y0056149D01*
X0170358Y0056149D01*
X0170358Y0057748D02*
X0170250Y0057748D01*
X0170358Y0057748D01*
X0170358Y0059346D02*
X0170250Y0059346D01*
X0170358Y0059346D01*
X0175265Y0055383D02*
X0175304Y0055422D01*
X0199292Y0068937D02*
X0203205Y0068937D01*
X0199292Y0068937D01*
X0200329Y0070536D02*
X0203205Y0070536D01*
X0200329Y0070536D01*
X0201473Y0072134D02*
X0203205Y0072134D01*
X0201473Y0072134D01*
X0203071Y0073733D02*
X0203205Y0073733D01*
X0203071Y0073733D01*
X0208505Y0073733D02*
X0236844Y0073733D01*
X0208505Y0073733D01*
X0208505Y0072134D02*
X0236844Y0072134D01*
X0208505Y0072134D01*
X0208505Y0070536D02*
X0236844Y0070536D01*
X0208505Y0070536D01*
X0208505Y0068937D02*
X0236844Y0068937D01*
X0208505Y0068937D01*
X0208505Y0067339D02*
X0236844Y0067339D01*
X0208505Y0067339D01*
X0208505Y0065740D02*
X0236844Y0065740D01*
X0208505Y0065740D01*
X0208505Y0064142D02*
X0214481Y0064142D01*
X0208505Y0064142D01*
X0209274Y0062543D02*
X0211871Y0062543D01*
X0209274Y0062543D01*
X0210389Y0060945D02*
X0210877Y0060945D01*
X0210389Y0060945D01*
X0215582Y0060945D02*
X0216128Y0060945D01*
X0215582Y0060945D01*
X0215582Y0062543D02*
X0216128Y0062543D01*
X0215582Y0062543D01*
X0215582Y0064142D02*
X0216128Y0064142D01*
X0215582Y0064142D01*
X0216128Y0064313D02*
X0216128Y0055695D01*
X0216128Y0055149D01*
X0216128Y0055695D01*
X0221201Y0055695D01*
X0221201Y0059388D01*
X0221069Y0060219D01*
X0220809Y0061020D01*
X0220427Y0061769D01*
X0219933Y0062450D01*
X0219338Y0063045D01*
X0218657Y0063540D01*
X0217907Y0063922D01*
X0217107Y0064182D01*
X0216276Y0064313D01*
X0216128Y0064313D01*
X0217229Y0064142D02*
X0236844Y0064142D01*
X0217229Y0064142D01*
X0219839Y0062543D02*
X0236844Y0062543D01*
X0219839Y0062543D01*
X0220833Y0060945D02*
X0236844Y0060945D01*
X0220833Y0060945D01*
X0221201Y0059346D02*
X0236844Y0059346D01*
X0221201Y0059346D01*
X0221201Y0057748D02*
X0236844Y0057748D01*
X0221201Y0057748D01*
X0221201Y0056149D02*
X0236844Y0056149D01*
X0221201Y0056149D01*
X0221201Y0054551D02*
X0236844Y0054551D01*
X0221201Y0054551D01*
X0221201Y0052952D02*
X0236844Y0052952D01*
X0221201Y0052952D01*
X0221185Y0051354D02*
X0236844Y0051354D01*
X0221185Y0051354D01*
X0220774Y0049755D02*
X0236844Y0049755D01*
X0220774Y0049755D01*
X0219695Y0048157D02*
X0236844Y0048157D01*
X0219695Y0048157D01*
X0216128Y0048157D02*
X0215582Y0048157D01*
X0216128Y0048157D01*
X0216128Y0049755D02*
X0215582Y0049755D01*
X0216128Y0049755D01*
X0216128Y0051354D02*
X0215582Y0051354D01*
X0216128Y0051354D01*
X0216128Y0052952D02*
X0215582Y0052952D01*
X0216128Y0052952D01*
X0216128Y0054551D02*
X0215582Y0054551D01*
X0216128Y0054551D01*
X0215855Y0055422D02*
X0215855Y0039083D01*
X0213217Y0036446D01*
X0097863Y0036446D01*
X0117006Y0110499D02*
X0122972Y0110499D01*
X0117006Y0110499D01*
X0117767Y0115294D02*
X0122768Y0115294D01*
X0117767Y0115294D01*
X0117624Y0116893D02*
X0122233Y0116893D01*
X0117624Y0116893D01*
X0117125Y0118491D02*
X0122233Y0118491D01*
X0117125Y0118491D01*
X0117767Y0120090D02*
X0122563Y0120090D01*
X0117767Y0120090D01*
X0144527Y0134476D02*
X0144876Y0134476D01*
X0144527Y0134476D01*
X0178581Y0094514D02*
X0185689Y0094514D01*
X0178581Y0094514D01*
X0192399Y0094514D02*
X0193563Y0094514D01*
X0192399Y0094514D01*
X0193353Y0094724D02*
X0194173Y0093904D01*
X0199663Y0093904D01*
X0200483Y0094724D01*
X0200483Y0095410D01*
X0203929Y0095410D01*
X0204529Y0094810D01*
X0212389Y0094810D01*
X0213209Y0095630D01*
X0213209Y0100490D01*
X0212389Y0101310D01*
X0204529Y0101310D01*
X0203929Y0100710D01*
X0200483Y0100710D01*
X0200483Y0101396D01*
X0199663Y0102216D01*
X0194173Y0102216D01*
X0193353Y0101396D01*
X0193353Y0094724D01*
X0194173Y0093904D01*
X0199663Y0093904D01*
X0200483Y0094724D01*
X0200483Y0095410D01*
X0203929Y0095410D01*
X0204529Y0094810D01*
X0212389Y0094810D01*
X0213209Y0095630D01*
X0213209Y0100490D01*
X0212389Y0101310D01*
X0204529Y0101310D01*
X0203929Y0100710D01*
X0200483Y0100710D01*
X0200483Y0101396D01*
X0199663Y0102216D01*
X0194173Y0102216D01*
X0193353Y0101396D01*
X0193353Y0094724D01*
X0193353Y0096112D02*
X0192609Y0096112D01*
X0193353Y0096112D01*
X0193353Y0097711D02*
X0192609Y0097711D01*
X0193353Y0097711D01*
X0193353Y0099309D02*
X0192609Y0099309D01*
X0193353Y0099309D01*
X0193353Y0100908D02*
X0192609Y0100908D01*
X0193353Y0100908D01*
X0200483Y0100908D02*
X0204127Y0100908D01*
X0200483Y0100908D01*
X0200273Y0094514D02*
X0215909Y0094514D01*
X0200273Y0094514D01*
X0212791Y0100908D02*
X0215909Y0100908D01*
X0212791Y0100908D01*
X0213209Y0099309D02*
X0215909Y0099309D01*
X0213209Y0099309D01*
X0213209Y0097711D02*
X0215909Y0097711D01*
X0213209Y0097711D01*
X0213209Y0096112D02*
X0215909Y0096112D01*
X0213209Y0096112D01*
X0219056Y0089718D02*
X0236844Y0089718D01*
X0219056Y0089718D01*
X0217458Y0088120D02*
X0236844Y0088120D01*
X0217458Y0088120D01*
X0215859Y0086521D02*
X0236844Y0086521D01*
X0215859Y0086521D01*
X0214261Y0084923D02*
X0236844Y0084923D01*
X0214261Y0084923D01*
X0212662Y0083324D02*
X0236844Y0083324D01*
X0212662Y0083324D01*
X0211064Y0081726D02*
X0236844Y0081726D01*
X0211064Y0081726D01*
X0209465Y0080127D02*
X0236844Y0080127D01*
X0209465Y0080127D01*
X0208505Y0078529D02*
X0236844Y0078529D01*
X0208505Y0078529D01*
X0208505Y0076930D02*
X0236844Y0076930D01*
X0208505Y0076930D01*
X0208505Y0075332D02*
X0236844Y0075332D01*
X0208505Y0075332D01*
X0220655Y0091317D02*
X0236844Y0091317D01*
X0220655Y0091317D01*
X0239044Y0091317D02*
X0246918Y0091317D01*
X0246918Y0092915D02*
X0239044Y0092915D01*
X0239044Y0094514D02*
X0246918Y0094514D01*
X0246918Y0096112D02*
X0239044Y0096112D01*
X0239044Y0097711D02*
X0246918Y0097711D01*
X0246918Y0099309D02*
X0239044Y0099309D01*
X0239044Y0100908D02*
X0246918Y0100908D01*
X0246918Y0102506D02*
X0239044Y0102506D01*
X0239044Y0104105D02*
X0246918Y0104105D01*
X0246918Y0105703D02*
X0239044Y0105703D01*
X0239044Y0107302D02*
X0246918Y0107302D01*
X0246918Y0108900D02*
X0239044Y0108900D01*
X0239044Y0110499D02*
X0246918Y0110499D01*
X0246918Y0112097D02*
X0239044Y0112097D01*
X0239044Y0113696D02*
X0246918Y0113696D01*
X0246918Y0115294D02*
X0239044Y0115294D01*
X0239044Y0116893D02*
X0246918Y0116893D01*
X0246918Y0118491D02*
X0239044Y0118491D01*
X0239044Y0120090D02*
X0246918Y0120090D01*
X0246918Y0121688D02*
X0239044Y0121688D01*
X0239044Y0123287D02*
X0246918Y0123287D01*
X0246918Y0124885D02*
X0239044Y0124885D01*
X0239044Y0126484D02*
X0246918Y0126484D01*
X0246918Y0128082D02*
X0239044Y0128082D01*
X0239044Y0129681D02*
X0246918Y0129681D01*
X0246918Y0131279D02*
X0239044Y0131279D01*
X0239044Y0132878D02*
X0246918Y0132878D01*
X0246918Y0134476D02*
X0239044Y0134476D01*
X0239044Y0136075D02*
X0246918Y0136075D01*
X0246918Y0137673D02*
X0239044Y0137673D01*
X0239044Y0139272D02*
X0246918Y0139272D01*
X0246918Y0140870D02*
X0239044Y0140870D01*
X0239044Y0142469D02*
X0246918Y0142469D01*
X0246918Y0144068D02*
X0239044Y0144068D01*
X0239044Y0145666D02*
X0246918Y0145666D01*
X0246918Y0147265D02*
X0239044Y0147265D01*
X0239044Y0148863D02*
X0246918Y0148863D01*
X0246918Y0150462D02*
X0239044Y0150462D01*
X0239044Y0152060D02*
X0246918Y0152060D01*
X0246918Y0153659D02*
X0239044Y0153659D01*
X0239044Y0155257D02*
X0246918Y0155257D01*
X0246918Y0156856D02*
X0239044Y0156856D01*
X0239044Y0158454D02*
X0246918Y0158454D01*
X0246918Y0160053D02*
X0239044Y0160053D01*
X0239044Y0161651D02*
X0246918Y0161651D01*
X0246918Y0163250D02*
X0239044Y0163250D01*
X0239044Y0164848D02*
X0246918Y0164848D01*
X0246918Y0166447D02*
X0239044Y0166447D01*
X0239044Y0166957D02*
X0246918Y0166957D01*
X0246918Y0046485D01*
X0239044Y0046485D01*
X0239044Y0166957D01*
X0236844Y0166447D02*
X0207068Y0166447D01*
X0236844Y0166447D01*
X0236844Y0164848D02*
X0206451Y0164848D01*
X0236844Y0164848D01*
X0236844Y0163250D02*
X0205550Y0163250D01*
X0236844Y0163250D01*
X0236844Y0161651D02*
X0203951Y0161651D01*
X0236844Y0161651D01*
X0237021Y0168045D02*
X0207068Y0168045D01*
X0237021Y0168045D01*
X0248942Y0168045D02*
X0254906Y0168045D01*
X0248942Y0168045D01*
X0249118Y0166447D02*
X0254906Y0166447D01*
X0249118Y0166447D01*
X0249118Y0164848D02*
X0254906Y0164848D01*
X0249118Y0164848D01*
X0249118Y0163250D02*
X0254906Y0163250D01*
X0249118Y0163250D01*
X0249118Y0161651D02*
X0254906Y0161651D01*
X0249118Y0161651D01*
X0249118Y0160053D02*
X0254906Y0160053D01*
X0249118Y0160053D01*
X0249118Y0158454D02*
X0254906Y0158454D01*
X0249118Y0158454D01*
X0249118Y0156856D02*
X0254906Y0156856D01*
X0249118Y0156856D01*
X0249118Y0155257D02*
X0254906Y0155257D01*
X0249118Y0155257D01*
X0249118Y0153659D02*
X0254906Y0153659D01*
X0249118Y0153659D01*
X0249118Y0152060D02*
X0254906Y0152060D01*
X0249118Y0152060D01*
X0249118Y0150462D02*
X0254906Y0150462D01*
X0249118Y0150462D01*
X0249118Y0148863D02*
X0254906Y0148863D01*
X0249118Y0148863D01*
X0249118Y0147265D02*
X0254906Y0147265D01*
X0249118Y0147265D01*
X0249118Y0145666D02*
X0254906Y0145666D01*
X0249118Y0145666D01*
X0249118Y0144068D02*
X0254906Y0144068D01*
X0249118Y0144068D01*
X0249118Y0142469D02*
X0254906Y0142469D01*
X0249118Y0142469D01*
X0249118Y0140870D02*
X0254906Y0140870D01*
X0249118Y0140870D01*
X0249118Y0139272D02*
X0254906Y0139272D01*
X0249118Y0139272D01*
X0249118Y0137673D02*
X0254906Y0137673D01*
X0249118Y0137673D01*
X0249118Y0136075D02*
X0254906Y0136075D01*
X0249118Y0136075D01*
X0249118Y0134476D02*
X0254906Y0134476D01*
X0249118Y0134476D01*
X0249118Y0132878D02*
X0254906Y0132878D01*
X0249118Y0132878D01*
X0249118Y0131279D02*
X0254906Y0131279D01*
X0249118Y0131279D01*
X0249118Y0129681D02*
X0254906Y0129681D01*
X0249118Y0129681D01*
X0249118Y0128082D02*
X0254906Y0128082D01*
X0249118Y0128082D01*
X0249118Y0126484D02*
X0254906Y0126484D01*
X0249118Y0126484D01*
X0249118Y0124885D02*
X0254906Y0124885D01*
X0249118Y0124885D01*
X0249118Y0123287D02*
X0254906Y0123287D01*
X0249118Y0123287D01*
X0249118Y0121688D02*
X0254906Y0121688D01*
X0249118Y0121688D01*
X0249118Y0120090D02*
X0254906Y0120090D01*
X0249118Y0120090D01*
X0249118Y0118491D02*
X0254906Y0118491D01*
X0249118Y0118491D01*
X0249118Y0116893D02*
X0254906Y0116893D01*
X0249118Y0116893D01*
X0249118Y0115294D02*
X0254906Y0115294D01*
X0249118Y0115294D01*
X0249118Y0113696D02*
X0254906Y0113696D01*
X0249118Y0113696D01*
X0249118Y0112097D02*
X0254906Y0112097D01*
X0249118Y0112097D01*
X0249118Y0110499D02*
X0254906Y0110499D01*
X0249118Y0110499D01*
X0249118Y0108900D02*
X0254906Y0108900D01*
X0249118Y0108900D01*
X0249118Y0107302D02*
X0254906Y0107302D01*
X0249118Y0107302D01*
X0249118Y0105703D02*
X0254906Y0105703D01*
X0249118Y0105703D01*
X0249118Y0104105D02*
X0254906Y0104105D01*
X0249118Y0104105D01*
X0249118Y0102506D02*
X0254906Y0102506D01*
X0249118Y0102506D01*
X0249118Y0100908D02*
X0254906Y0100908D01*
X0249118Y0100908D01*
X0249118Y0099309D02*
X0254906Y0099309D01*
X0249118Y0099309D01*
X0249118Y0097711D02*
X0254906Y0097711D01*
X0249118Y0097711D01*
X0249118Y0096112D02*
X0254906Y0096112D01*
X0249118Y0096112D01*
X0249118Y0094514D02*
X0254906Y0094514D01*
X0249118Y0094514D01*
X0249118Y0092915D02*
X0254906Y0092915D01*
X0249118Y0092915D01*
X0249118Y0091317D02*
X0254906Y0091317D01*
X0249118Y0091317D01*
X0249118Y0089718D02*
X0254906Y0089718D01*
X0249118Y0089718D01*
X0249118Y0088120D02*
X0254906Y0088120D01*
X0249118Y0088120D01*
X0249118Y0086521D02*
X0254906Y0086521D01*
X0249118Y0086521D01*
X0249118Y0084923D02*
X0254906Y0084923D01*
X0249118Y0084923D01*
X0249118Y0083324D02*
X0254906Y0083324D01*
X0249118Y0083324D01*
X0249118Y0081726D02*
X0254906Y0081726D01*
X0249118Y0081726D01*
X0249118Y0080127D02*
X0254906Y0080127D01*
X0249118Y0080127D01*
X0249118Y0078529D02*
X0254906Y0078529D01*
X0249118Y0078529D01*
X0249118Y0076930D02*
X0254906Y0076930D01*
X0249118Y0076930D01*
X0249118Y0075332D02*
X0254906Y0075332D01*
X0249118Y0075332D01*
X0249118Y0073733D02*
X0254906Y0073733D01*
X0249118Y0073733D01*
X0249118Y0072134D02*
X0254906Y0072134D01*
X0249118Y0072134D01*
X0249118Y0070536D02*
X0254906Y0070536D01*
X0249118Y0070536D01*
X0249118Y0068937D02*
X0254906Y0068937D01*
X0249118Y0068937D01*
X0249118Y0067339D02*
X0254906Y0067339D01*
X0249118Y0067339D01*
X0249118Y0065740D02*
X0254906Y0065740D01*
X0249118Y0065740D01*
X0249118Y0064142D02*
X0254906Y0064142D01*
X0249118Y0064142D01*
X0249118Y0062543D02*
X0254906Y0062543D01*
X0249118Y0062543D01*
X0249118Y0060945D02*
X0254906Y0060945D01*
X0249118Y0060945D01*
X0249118Y0059346D02*
X0254906Y0059346D01*
X0249118Y0059346D01*
X0249118Y0057748D02*
X0254906Y0057748D01*
X0249118Y0057748D01*
X0249118Y0056149D02*
X0254906Y0056149D01*
X0249118Y0056149D01*
X0249118Y0054551D02*
X0254906Y0054551D01*
X0249118Y0054551D01*
X0249118Y0052952D02*
X0254906Y0052952D01*
X0249118Y0052952D01*
X0249118Y0051354D02*
X0254906Y0051354D01*
X0249118Y0051354D01*
X0249118Y0049755D02*
X0254906Y0049755D01*
X0249118Y0049755D01*
X0249118Y0048157D02*
X0254906Y0048157D01*
X0249118Y0048157D01*
X0249118Y0046558D02*
X0254906Y0046558D01*
X0249118Y0046558D01*
X0248504Y0044960D02*
X0254906Y0044960D01*
X0248504Y0044960D01*
X0246918Y0046558D02*
X0239044Y0046558D01*
X0239044Y0048157D02*
X0246918Y0048157D01*
X0246918Y0049755D02*
X0239044Y0049755D01*
X0239044Y0051354D02*
X0246918Y0051354D01*
X0246918Y0052952D02*
X0239044Y0052952D01*
X0239044Y0054551D02*
X0246918Y0054551D01*
X0246918Y0056149D02*
X0239044Y0056149D01*
X0239044Y0057748D02*
X0246918Y0057748D01*
X0246918Y0059346D02*
X0239044Y0059346D01*
X0239044Y0060945D02*
X0246918Y0060945D01*
X0246918Y0062543D02*
X0239044Y0062543D01*
X0239044Y0064142D02*
X0246918Y0064142D01*
X0246918Y0065740D02*
X0239044Y0065740D01*
X0239044Y0067339D02*
X0246918Y0067339D01*
X0246918Y0068937D02*
X0239044Y0068937D01*
X0239044Y0070536D02*
X0246918Y0070536D01*
X0246918Y0072134D02*
X0239044Y0072134D01*
X0239044Y0073733D02*
X0246918Y0073733D01*
X0246918Y0075332D02*
X0239044Y0075332D01*
X0239044Y0076930D02*
X0246918Y0076930D01*
X0246918Y0078529D02*
X0239044Y0078529D01*
X0239044Y0080127D02*
X0246918Y0080127D01*
X0246918Y0081726D02*
X0239044Y0081726D01*
X0239044Y0083324D02*
X0246918Y0083324D01*
X0246918Y0084923D02*
X0239044Y0084923D01*
X0239044Y0086521D02*
X0246918Y0086521D01*
X0246918Y0088120D02*
X0239044Y0088120D01*
X0239044Y0089718D02*
X0246918Y0089718D01*
X0215909Y0113696D02*
X0213209Y0113696D01*
X0215909Y0113696D01*
X0215909Y0115294D02*
X0213209Y0115294D01*
X0215909Y0115294D01*
X0215909Y0116893D02*
X0213209Y0116893D01*
X0215909Y0116893D01*
X0215909Y0118491D02*
X0212924Y0118491D01*
X0215909Y0118491D01*
X0213209Y0118206D02*
X0212389Y0119026D01*
X0204529Y0119026D01*
X0203709Y0118206D01*
X0203709Y0117976D01*
X0200373Y0117976D01*
X0199537Y0118812D01*
X0198221Y0119357D01*
X0196796Y0119357D01*
X0195480Y0118812D01*
X0194473Y0117805D01*
X0193928Y0116489D01*
X0193928Y0115064D01*
X0194473Y0113748D01*
X0195480Y0112740D01*
X0196796Y0112195D01*
X0198221Y0112195D01*
X0199537Y0112740D01*
X0200373Y0113576D01*
X0203709Y0113576D01*
X0203709Y0113346D01*
X0204529Y0112526D01*
X0212389Y0112526D01*
X0213209Y0113346D01*
X0213209Y0118206D01*
X0212389Y0119026D01*
X0204529Y0119026D01*
X0203709Y0118206D01*
X0203709Y0117976D01*
X0200373Y0117976D01*
X0199537Y0118812D01*
X0198221Y0119357D01*
X0196796Y0119357D01*
X0195480Y0118812D01*
X0194473Y0117805D01*
X0193928Y0116489D01*
X0193928Y0115064D01*
X0194473Y0113748D01*
X0195480Y0112740D01*
X0196796Y0112195D01*
X0198221Y0112195D01*
X0199537Y0112740D01*
X0200373Y0113576D01*
X0203709Y0113576D01*
X0203709Y0113346D01*
X0204529Y0112526D01*
X0212389Y0112526D01*
X0213209Y0113346D01*
X0213209Y0118206D01*
X0208459Y0115776D02*
X0197509Y0115776D01*
X0199858Y0118491D02*
X0203994Y0118491D01*
X0199858Y0118491D01*
X0217771Y0124885D02*
X0236844Y0124885D01*
X0217771Y0124885D01*
X0219888Y0123287D02*
X0236844Y0123287D01*
X0219888Y0123287D01*
X0221486Y0121688D02*
X0236844Y0121688D01*
X0221486Y0121688D01*
X0203904Y0161603D02*
X0201221Y0160492D01*
X0198316Y0160492D01*
X0195633Y0161603D01*
X0193580Y0163657D01*
X0192469Y0166340D01*
X0192469Y0169244D01*
X0193580Y0171927D01*
X0195633Y0173981D01*
X0198316Y0175092D01*
X0201221Y0175092D01*
X0203904Y0173981D01*
X0205957Y0171927D01*
X0207068Y0169244D01*
X0207068Y0166340D01*
X0205957Y0163657D01*
X0203904Y0161603D01*
X0205957Y0163657D01*
X0207068Y0166340D01*
X0207068Y0169244D01*
X0205957Y0171927D01*
X0203904Y0173981D01*
X0201221Y0175092D01*
X0198316Y0175092D01*
X0195633Y0173981D01*
X0193580Y0171927D01*
X0192469Y0169244D01*
X0192469Y0166340D01*
X0193580Y0163657D01*
X0195633Y0161603D01*
X0198316Y0160492D01*
X0201221Y0160492D01*
X0203904Y0161603D01*
X0206903Y0169644D02*
X0254906Y0169644D01*
X0206903Y0169644D01*
X0206241Y0171242D02*
X0254906Y0171242D01*
X0206241Y0171242D01*
X0205044Y0172841D02*
X0254906Y0172841D01*
X0205044Y0172841D01*
X0202797Y0174439D02*
X0254906Y0174439D01*
X0202797Y0174439D01*
X0207440Y0184030D02*
X0213205Y0184030D01*
X0207440Y0184030D01*
X0209751Y0185629D02*
X0211959Y0185629D01*
X0209751Y0185629D01*
X0210587Y0187227D02*
X0211123Y0187227D01*
X0210587Y0187227D01*
X0210801Y0188826D02*
X0210909Y0188826D01*
X0210801Y0188826D01*
X0210801Y0190424D02*
X0210909Y0190424D01*
X0210801Y0190424D01*
X0210801Y0192023D02*
X0210909Y0192023D01*
X0210801Y0192023D01*
X0210801Y0193621D02*
X0210909Y0193621D01*
X0210801Y0193621D01*
X0210801Y0195220D02*
X0210909Y0195220D01*
X0210801Y0195220D01*
X0210794Y0196818D02*
X0210916Y0196818D01*
X0210794Y0196818D01*
X0210132Y0198417D02*
X0211578Y0198417D01*
X0210132Y0198417D01*
X0208646Y0200015D02*
X0213065Y0200015D01*
X0208646Y0200015D01*
X0215855Y0192272D02*
X0215973Y0192154D01*
X0220801Y0192023D02*
X0254906Y0192023D01*
X0220801Y0192023D01*
X0220801Y0193621D02*
X0254906Y0193621D01*
X0220801Y0193621D01*
X0220801Y0195220D02*
X0254906Y0195220D01*
X0220801Y0195220D01*
X0220794Y0196818D02*
X0254906Y0196818D01*
X0220794Y0196818D01*
X0220132Y0198417D02*
X0254906Y0198417D01*
X0220132Y0198417D01*
X0218646Y0200015D02*
X0254906Y0200015D01*
X0218646Y0200015D01*
X0220801Y0190424D02*
X0254906Y0190424D01*
X0220801Y0190424D01*
X0220801Y0188826D02*
X0254906Y0188826D01*
X0220801Y0188826D01*
X0220587Y0187227D02*
X0254906Y0187227D01*
X0220587Y0187227D01*
X0219751Y0185629D02*
X0254906Y0185629D01*
X0219751Y0185629D01*
X0218505Y0184030D02*
X0254906Y0184030D01*
X0218505Y0184030D01*
X0218505Y0182432D02*
X0254906Y0182432D01*
X0218505Y0182432D01*
X0218437Y0180833D02*
X0254906Y0180833D01*
X0218437Y0180833D01*
X0217313Y0179235D02*
X0254906Y0179235D01*
X0217313Y0179235D01*
X0215715Y0177636D02*
X0254906Y0177636D01*
X0215715Y0177636D01*
X0213710Y0176038D02*
X0254906Y0176038D01*
X0213710Y0176038D01*
X0235652Y0219225D02*
X0239768Y0217727D01*
X0244147Y0217727D01*
X0248263Y0219225D01*
X0251618Y0222040D01*
X0251618Y0222040D01*
X0251618Y0222040D01*
X0248263Y0219225D01*
X0248263Y0219225D01*
X0248263Y0219225D01*
X0244147Y0217727D01*
X0239768Y0217727D01*
X0235652Y0219225D01*
X0235652Y0219225D01*
X0235652Y0219225D01*
X0232297Y0222040D01*
X0232297Y0222040D01*
X0235652Y0219225D01*
X0232297Y0222040D02*
X0232297Y0222040D01*
X0232297Y0222040D01*
X0232297Y0222040D01*
X0230107Y0225833D01*
X0230107Y0225833D01*
X0232297Y0222040D01*
X0230107Y0225833D02*
X0230107Y0225833D01*
X0229346Y0230146D01*
X0229346Y0230146D01*
X0230107Y0225833D01*
X0229346Y0230146D02*
X0229346Y0230146D01*
X0230107Y0234460D01*
X0230107Y0234460D01*
X0232297Y0238253D01*
X0232297Y0238253D01*
X0235652Y0241068D01*
X0235652Y0241068D01*
X0239768Y0242566D01*
X0244147Y0242566D01*
X0248263Y0241068D01*
X0248263Y0241068D01*
X0251618Y0238253D01*
X0251618Y0238253D01*
X0251618Y0238253D01*
X0248263Y0241068D01*
X0244147Y0242566D01*
X0239768Y0242566D01*
X0235652Y0241068D01*
X0232297Y0238253D01*
X0232297Y0238253D01*
X0230107Y0234460D01*
X0230107Y0234460D01*
X0229346Y0230146D01*
X0235652Y0241068D02*
X0235652Y0241068D01*
X0246865Y0241577D02*
X0247834Y0241577D01*
X0246865Y0241577D01*
X0248263Y0241068D02*
X0248263Y0241068D01*
X0249562Y0239978D02*
X0250280Y0239978D01*
X0249562Y0239978D01*
X0251467Y0238380D02*
X0251879Y0238380D01*
X0251467Y0238380D01*
X0251618Y0238253D02*
X0251618Y0238253D01*
X0251618Y0238253D01*
X0253808Y0234460D01*
X0253808Y0234460D01*
X0251618Y0238253D01*
X0252468Y0236781D02*
X0252950Y0236781D01*
X0252468Y0236781D01*
X0253391Y0235183D02*
X0253873Y0235183D01*
X0253391Y0235183D01*
X0253808Y0234460D02*
X0254568Y0230146D01*
X0253808Y0225833D01*
X0251618Y0222040D01*
X0253808Y0225833D01*
X0253808Y0225833D01*
X0253808Y0225833D01*
X0254568Y0230146D01*
X0253808Y0234460D01*
X0253808Y0234460D01*
X0253962Y0233584D02*
X0254326Y0233584D01*
X0253962Y0233584D01*
X0254244Y0231986D02*
X0254755Y0231986D01*
X0254244Y0231986D01*
X0254526Y0230387D02*
X0254890Y0230387D01*
X0254526Y0230387D01*
X0254329Y0228789D02*
X0254906Y0228789D01*
X0254329Y0228789D01*
X0254047Y0227190D02*
X0254906Y0227190D01*
X0254047Y0227190D01*
X0253668Y0225592D02*
X0254906Y0225592D01*
X0253668Y0225592D01*
X0252746Y0223993D02*
X0254906Y0223993D01*
X0252746Y0223993D01*
X0251823Y0222395D02*
X0254906Y0222395D01*
X0251823Y0222395D01*
X0250135Y0220796D02*
X0254906Y0220796D01*
X0250135Y0220796D01*
X0248188Y0219198D02*
X0254906Y0219198D01*
X0248188Y0219198D01*
X0216128Y0059346D02*
X0215582Y0059346D01*
X0216128Y0059346D01*
X0216128Y0057748D02*
X0215582Y0057748D01*
X0216128Y0057748D01*
X0216128Y0056149D02*
X0215582Y0056149D01*
X0216128Y0056149D01*
X0210936Y0049755D02*
X0210330Y0049755D01*
X0210936Y0049755D01*
X0212015Y0048157D02*
X0209130Y0048157D01*
X0212015Y0048157D01*
X0215582Y0046558D02*
X0216128Y0046558D01*
X0215582Y0046558D01*
X0216450Y0046558D02*
X0236844Y0046558D01*
X0216450Y0046558D01*
X0232297Y0025654D02*
X0235652Y0028469D01*
X0235652Y0028469D01*
X0239768Y0029967D01*
X0244147Y0029967D01*
X0248263Y0028469D01*
X0248263Y0028469D01*
X0251618Y0025654D01*
X0251618Y0025654D01*
X0253808Y0021861D01*
X0253808Y0021861D01*
X0254568Y0017548D01*
X0253808Y0013235D01*
X0253808Y0013235D01*
X0254568Y0017548D01*
X0253808Y0021861D01*
X0253808Y0021861D01*
X0251618Y0025654D01*
X0251618Y0025654D01*
X0251618Y0025654D01*
X0248263Y0028469D01*
X0244147Y0029967D01*
X0239768Y0029967D01*
X0235652Y0028469D01*
X0232297Y0025654D01*
X0230107Y0021861D01*
X0229346Y0017548D01*
X0230107Y0013235D01*
X0230107Y0013235D01*
X0230107Y0013235D01*
X0229346Y0017548D01*
X0229346Y0017548D01*
X0229346Y0017548D01*
X0230107Y0021861D01*
X0230107Y0021861D01*
X0230107Y0021861D01*
X0232297Y0025654D01*
X0232297Y0025654D01*
X0232297Y0025654D01*
X0235652Y0028469D02*
X0235652Y0028469D01*
X0246875Y0028975D02*
X0254906Y0028975D01*
X0246875Y0028975D01*
X0248263Y0028469D02*
X0248263Y0028469D01*
X0249566Y0027376D02*
X0254906Y0027376D01*
X0249566Y0027376D01*
X0251471Y0025778D02*
X0254906Y0025778D01*
X0251471Y0025778D01*
X0251618Y0025654D02*
X0251618Y0025654D01*
X0252470Y0024179D02*
X0254906Y0024179D01*
X0252470Y0024179D01*
X0253393Y0022581D02*
X0254906Y0022581D01*
X0253393Y0022581D01*
X0253963Y0020982D02*
X0254906Y0020982D01*
X0253963Y0020982D01*
X0254245Y0019384D02*
X0254906Y0019384D01*
X0254245Y0019384D01*
X0254527Y0017785D02*
X0254906Y0017785D01*
X0254527Y0017785D01*
X0254328Y0016187D02*
X0254816Y0016187D01*
X0254328Y0016187D01*
X0254454Y0014588D02*
X0254047Y0014588D01*
X0254454Y0014588D01*
X0253808Y0013235D02*
X0253808Y0013235D01*
X0251618Y0009442D01*
X0251618Y0009442D01*
X0253808Y0013235D01*
X0253666Y0012990D02*
X0254026Y0012990D01*
X0253666Y0012990D01*
X0253226Y0011391D02*
X0252743Y0011391D01*
X0253226Y0011391D01*
X0252303Y0009793D02*
X0251821Y0009793D01*
X0252303Y0009793D01*
X0251618Y0009442D02*
X0251618Y0009442D01*
X0248263Y0006627D01*
X0248263Y0006627D01*
X0244147Y0005129D01*
X0239768Y0005129D01*
X0235652Y0006627D01*
X0235652Y0006627D01*
X0232297Y0009442D01*
X0232297Y0009442D01*
X0232297Y0009442D01*
X0230107Y0013235D01*
X0232297Y0009442D01*
X0235652Y0006627D01*
X0239768Y0005129D01*
X0244147Y0005129D01*
X0248263Y0006627D01*
X0251618Y0009442D01*
X0250758Y0008194D02*
X0250131Y0008194D01*
X0250758Y0008194D01*
X0248662Y0006596D02*
X0248178Y0006596D01*
X0248662Y0006596D01*
X0248263Y0006627D02*
X0248263Y0006627D01*
X0235652Y0006627D02*
X0235652Y0006627D01*
X0232297Y0009442D02*
X0232297Y0009442D01*
X0232297Y0009442D01*
D20*
X0242981Y0052784D03*
X0242981Y0068532D03*
X0197509Y0115776D03*
X0177784Y0098060D03*
X0157706Y0090776D03*
X0128965Y0099044D03*
X0157706Y0127784D03*
X0174635Y0178572D03*
X0242981Y0163020D03*
X0242981Y0151209D03*
X0058493Y0067548D03*
D21*
X0054438Y0062706D01*
X0054438Y0055422D01*
X0044438Y0055422D02*
X0044438Y0076524D01*
X0053769Y0086643D01*
X0128178Y0086643D01*
X0145501Y0069320D01*
X0159477Y0069320D01*
X0159674Y0069123D01*
X0159674Y0076997D02*
X0171485Y0076997D01*
X0202587Y0076997D01*
X0197076Y0071485D01*
X0202587Y0076997D02*
X0205855Y0080265D01*
X0232509Y0106918D01*
X0217154Y0122272D01*
X0178611Y0122272D01*
X0178611Y0130146D02*
X0178611Y0137351D01*
X0134792Y0181170D01*
X0134792Y0192233D01*
X0124753Y0192272D02*
X0124635Y0192391D01*
X0124635Y0197272D01*
X0119910Y0201997D01*
X0099044Y0201997D01*
X0094202Y0197154D01*
X0094202Y0192272D01*
X0084202Y0192272D02*
X0054438Y0192272D01*
X0091957Y0081918D02*
X0126209Y0081918D01*
X0134477Y0073650D01*
X0134477Y0055698D01*
X0134753Y0055422D01*
X0124753Y0055422D02*
X0124753Y0046170D01*
X0127784Y0043139D01*
X0172036Y0043139D01*
X0175265Y0046367D01*
X0175265Y0055383D01*
X0165304Y0055422D02*
X0165304Y0058926D01*
X0171485Y0065107D01*
X0171485Y0069123D01*
X0167351Y0098060D02*
X0177784Y0098060D01*
X0189044Y0098060D01*
X0196918Y0098060D02*
X0208459Y0098060D01*
X0205855Y0080265D02*
X0205855Y0055422D01*
X0091957Y0081918D02*
X0084202Y0074162D01*
X0084202Y0055422D01*
X0174635Y0178572D02*
X0212902Y0178572D01*
X0215855Y0181524D01*
X0215855Y0192272D01*
X0205855Y0192272D02*
X0175304Y0192272D01*
M02*
