G75*
%MOIN*%
%OFA0B0*%
%FSLAX25Y25*%
%IPPOS*%
%LPD*%
%AMOC8*
5,1,8,0,0,1.08239X$1,22.5*
%
%ADD10C,0.12000*%
%ADD11C,0.07091*%
%ADD12C,0.04362*%
%ADD13C,0.01600*%
D10*
X0044769Y0097792D03*
X0044769Y0148792D03*
D11*
X0019123Y0128454D03*
X0019123Y0118454D03*
X0044438Y0055422D03*
X0054438Y0055422D03*
X0084202Y0055422D03*
X0094202Y0055422D03*
X0124753Y0055422D03*
X0134753Y0055422D03*
X0165304Y0055422D03*
X0175304Y0055422D03*
X0205855Y0055422D03*
X0215855Y0055422D03*
X0215855Y0192272D03*
X0205855Y0192272D03*
X0175304Y0192272D03*
X0165304Y0192272D03*
X0134753Y0192272D03*
X0124753Y0192272D03*
X0094202Y0192272D03*
X0084202Y0192272D03*
X0054438Y0192272D03*
X0044438Y0192272D03*
D12*
X0128965Y0099044D03*
X0157706Y0090776D03*
X0177784Y0098060D03*
X0197509Y0115776D03*
X0157706Y0127784D03*
X0174635Y0178572D03*
X0242981Y0163020D03*
X0242981Y0151209D03*
X0242981Y0068532D03*
X0242981Y0052784D03*
X0058493Y0067548D03*
D13*
X0008747Y0008194D02*
X0250758Y0008194D01*
X0249840Y0007276D02*
X0246912Y0005586D01*
X0243648Y0004711D01*
X0241957Y0004600D01*
X0017548Y0004600D01*
X0015858Y0004711D01*
X0012593Y0005586D01*
X0009666Y0007276D01*
X0007276Y0009666D01*
X0005586Y0012593D01*
X0004711Y0015858D01*
X0004600Y0017548D01*
X0004600Y0230146D01*
X0004711Y0231837D01*
X0005586Y0235101D01*
X0007276Y0238029D01*
X0009666Y0240419D01*
X0012593Y0242109D01*
X0015858Y0242984D01*
X0017548Y0243094D01*
X0241957Y0243094D01*
X0243648Y0242984D01*
X0246912Y0242109D01*
X0249840Y0240419D01*
X0252230Y0238029D01*
X0253920Y0235101D01*
X0254795Y0231837D01*
X0254906Y0230146D01*
X0254906Y0017548D01*
X0254795Y0015858D01*
X0253920Y0012593D01*
X0253920Y0012593D01*
X0252230Y0009666D01*
X0249840Y0007276D01*
X0248662Y0006596D02*
X0010844Y0006596D01*
X0014790Y0004997D02*
X0244716Y0004997D01*
X0243591Y0009335D02*
X0246610Y0010585D01*
X0248920Y0012896D01*
X0250171Y0015914D01*
X0250171Y0019182D01*
X0248920Y0022201D01*
X0246610Y0024511D01*
X0243591Y0025761D01*
X0240324Y0025761D01*
X0237305Y0024511D01*
X0234995Y0022201D01*
X0233744Y0019182D01*
X0233744Y0015914D01*
X0234995Y0012896D01*
X0237305Y0010585D01*
X0240324Y0009335D01*
X0243591Y0009335D01*
X0244697Y0009793D02*
X0252303Y0009793D01*
X0253226Y0011391D02*
X0247416Y0011391D01*
X0248959Y0012990D02*
X0254026Y0012990D01*
X0254454Y0014588D02*
X0249622Y0014588D01*
X0250171Y0016187D02*
X0254816Y0016187D01*
X0254906Y0017785D02*
X0250171Y0017785D01*
X0250087Y0019384D02*
X0254906Y0019384D01*
X0254906Y0020982D02*
X0249425Y0020982D01*
X0248540Y0022581D02*
X0254906Y0022581D01*
X0254906Y0024179D02*
X0246942Y0024179D01*
X0254906Y0025778D02*
X0004600Y0025778D01*
X0004600Y0027376D02*
X0254906Y0027376D01*
X0254906Y0028975D02*
X0004600Y0028975D01*
X0004600Y0030573D02*
X0254906Y0030573D01*
X0254906Y0032172D02*
X0004600Y0032172D01*
X0004600Y0033770D02*
X0254906Y0033770D01*
X0254906Y0035369D02*
X0004600Y0035369D01*
X0004600Y0036967D02*
X0254906Y0036967D01*
X0254906Y0038566D02*
X0004600Y0038566D01*
X0004600Y0040164D02*
X0254906Y0040164D01*
X0254906Y0041763D02*
X0004600Y0041763D01*
X0004600Y0043361D02*
X0254906Y0043361D01*
X0254906Y0044960D02*
X0004600Y0044960D01*
X0004600Y0046558D02*
X0254906Y0046558D01*
X0254906Y0048157D02*
X0004600Y0048157D01*
X0004600Y0049755D02*
X0240946Y0049755D01*
X0240953Y0049748D02*
X0242269Y0049203D01*
X0243693Y0049203D01*
X0245010Y0049748D01*
X0246017Y0050756D01*
X0246562Y0052072D01*
X0246562Y0053497D01*
X0246017Y0054813D01*
X0245010Y0055820D01*
X0243693Y0056365D01*
X0242269Y0056365D01*
X0240953Y0055820D01*
X0239945Y0054813D01*
X0239400Y0053497D01*
X0239400Y0052072D01*
X0239945Y0050756D01*
X0240953Y0049748D01*
X0239697Y0051354D02*
X0218781Y0051354D01*
X0218657Y0051229D02*
X0220048Y0052621D01*
X0220801Y0054438D01*
X0220801Y0056406D01*
X0220048Y0058224D01*
X0218657Y0059615D01*
X0216839Y0060368D01*
X0214871Y0060368D01*
X0213054Y0059615D01*
X0211662Y0058224D01*
X0210909Y0056406D01*
X0210909Y0054438D01*
X0211662Y0052621D01*
X0213054Y0051229D01*
X0214871Y0050476D01*
X0216839Y0050476D01*
X0218657Y0051229D01*
X0220185Y0052952D02*
X0239400Y0052952D01*
X0239837Y0054551D02*
X0220801Y0054551D01*
X0220801Y0056149D02*
X0241747Y0056149D01*
X0244215Y0056149D02*
X0254906Y0056149D01*
X0254906Y0054551D02*
X0246125Y0054551D01*
X0246562Y0052952D02*
X0254906Y0052952D01*
X0254906Y0051354D02*
X0246265Y0051354D01*
X0245017Y0049755D02*
X0254906Y0049755D01*
X0254906Y0057748D02*
X0220245Y0057748D01*
X0218925Y0059346D02*
X0254906Y0059346D01*
X0254906Y0060945D02*
X0122115Y0060945D01*
X0122120Y0060962D02*
X0121688Y0059352D01*
X0121951Y0059615D01*
X0123769Y0060368D01*
X0125737Y0060368D01*
X0127554Y0059615D01*
X0128945Y0058224D01*
X0129698Y0056406D01*
X0129698Y0054438D01*
X0128945Y0052621D01*
X0127554Y0051229D01*
X0125737Y0050476D01*
X0123769Y0050476D01*
X0121951Y0051229D01*
X0120560Y0052621D01*
X0119807Y0054438D01*
X0119807Y0055234D01*
X0119594Y0054864D01*
X0117240Y0052510D01*
X0114357Y0050846D01*
X0111142Y0049984D01*
X0107813Y0049984D01*
X0104597Y0050846D01*
X0101714Y0052510D01*
X0099361Y0054864D01*
X0099147Y0055234D01*
X0099147Y0054438D01*
X0098394Y0052621D01*
X0097003Y0051229D01*
X0095185Y0050476D01*
X0093218Y0050476D01*
X0091400Y0051229D01*
X0090009Y0052621D01*
X0089256Y0054438D01*
X0089256Y0056406D01*
X0090009Y0058224D01*
X0091400Y0059615D01*
X0093218Y0060368D01*
X0095185Y0060368D01*
X0097003Y0059615D01*
X0097266Y0059352D01*
X0096835Y0060962D01*
X0096835Y0064291D01*
X0097696Y0067507D01*
X0099361Y0070389D01*
X0101714Y0072743D01*
X0104597Y0074408D01*
X0107813Y0075269D01*
X0111142Y0075269D01*
X0114357Y0074408D01*
X0117240Y0072743D01*
X0119594Y0070389D01*
X0121258Y0067507D01*
X0122120Y0064291D01*
X0122120Y0060962D01*
X0122120Y0062543D02*
X0254906Y0062543D01*
X0254906Y0064142D02*
X0122120Y0064142D01*
X0121731Y0065740D02*
X0240708Y0065740D01*
X0240953Y0065496D02*
X0242269Y0064951D01*
X0243693Y0064951D01*
X0245010Y0065496D01*
X0246017Y0066504D01*
X0246562Y0067820D01*
X0246562Y0069245D01*
X0246017Y0070561D01*
X0245010Y0071568D01*
X0243693Y0072113D01*
X0242269Y0072113D01*
X0240953Y0071568D01*
X0239945Y0070561D01*
X0239400Y0069245D01*
X0239400Y0067820D01*
X0239945Y0066504D01*
X0240953Y0065496D01*
X0239599Y0067339D02*
X0121303Y0067339D01*
X0120432Y0068937D02*
X0239400Y0068937D01*
X0239935Y0070536D02*
X0119447Y0070536D01*
X0117849Y0072134D02*
X0254906Y0072134D01*
X0254906Y0070536D02*
X0246027Y0070536D01*
X0246562Y0068937D02*
X0254906Y0068937D01*
X0254906Y0067339D02*
X0246363Y0067339D01*
X0245254Y0065740D02*
X0254906Y0065740D01*
X0254906Y0073733D02*
X0151033Y0073733D01*
X0150904Y0073603D02*
X0152957Y0075657D01*
X0154068Y0078340D01*
X0154068Y0081244D01*
X0152957Y0083927D01*
X0150904Y0085981D01*
X0148221Y0087092D01*
X0145316Y0087092D01*
X0142633Y0085981D01*
X0140580Y0083927D01*
X0139469Y0081244D01*
X0139469Y0078340D01*
X0140580Y0075657D01*
X0142633Y0073603D01*
X0145316Y0072492D01*
X0148221Y0072492D01*
X0150904Y0073603D01*
X0152632Y0075332D02*
X0254906Y0075332D01*
X0254906Y0076930D02*
X0153484Y0076930D01*
X0154068Y0078529D02*
X0254906Y0078529D01*
X0254906Y0080127D02*
X0154068Y0080127D01*
X0153869Y0081726D02*
X0254906Y0081726D01*
X0254906Y0083324D02*
X0153207Y0083324D01*
X0151962Y0084923D02*
X0254906Y0084923D01*
X0254906Y0086521D02*
X0149599Y0086521D01*
X0154670Y0088748D02*
X0154124Y0090064D01*
X0154124Y0091489D01*
X0154670Y0092805D01*
X0155677Y0093812D01*
X0156993Y0094357D01*
X0158418Y0094357D01*
X0159734Y0093812D01*
X0160741Y0092805D01*
X0161287Y0091489D01*
X0161287Y0090064D01*
X0160741Y0088748D01*
X0159734Y0087740D01*
X0158418Y0087195D01*
X0156993Y0087195D01*
X0155677Y0087740D01*
X0154670Y0088748D01*
X0155298Y0088120D02*
X0004600Y0088120D01*
X0004600Y0089718D02*
X0154268Y0089718D01*
X0154124Y0091317D02*
X0049142Y0091317D01*
X0049111Y0091293D02*
X0049922Y0091915D01*
X0050645Y0092638D01*
X0051268Y0093449D01*
X0051779Y0094335D01*
X0052170Y0095280D01*
X0052435Y0096267D01*
X0052530Y0096992D01*
X0045569Y0096992D01*
X0045569Y0098592D01*
X0052530Y0098592D01*
X0052435Y0099317D01*
X0052170Y0100305D01*
X0051779Y0101249D01*
X0051268Y0102135D01*
X0050645Y0102946D01*
X0049922Y0103669D01*
X0049111Y0104291D01*
X0048226Y0104803D01*
X0047281Y0105194D01*
X0046293Y0105459D01*
X0045568Y0105554D01*
X0045568Y0098592D01*
X0043969Y0098592D01*
X0043969Y0105554D01*
X0043244Y0105459D01*
X0042256Y0105194D01*
X0041311Y0104803D01*
X0040426Y0104291D01*
X0039615Y0103669D01*
X0038892Y0102946D01*
X0038269Y0102135D01*
X0037758Y0101249D01*
X0037367Y0100305D01*
X0037102Y0099317D01*
X0037007Y0098592D01*
X0043968Y0098592D01*
X0043968Y0096992D01*
X0037007Y0096992D01*
X0037102Y0096267D01*
X0037367Y0095280D01*
X0037758Y0094335D01*
X0038269Y0093449D01*
X0038892Y0092638D01*
X0039615Y0091915D01*
X0040426Y0091293D01*
X0041311Y0090782D01*
X0042256Y0090390D01*
X0043244Y0090126D01*
X0043969Y0090030D01*
X0043969Y0096992D01*
X0045568Y0096992D01*
X0045568Y0090030D01*
X0046293Y0090126D01*
X0047281Y0090390D01*
X0048226Y0090782D01*
X0049111Y0091293D01*
X0050858Y0092915D02*
X0154780Y0092915D01*
X0160631Y0092915D02*
X0254906Y0092915D01*
X0254906Y0091317D02*
X0161287Y0091317D01*
X0161143Y0089718D02*
X0254906Y0089718D01*
X0254906Y0088120D02*
X0160113Y0088120D01*
X0143938Y0086521D02*
X0004600Y0086521D01*
X0004600Y0084923D02*
X0141575Y0084923D01*
X0140330Y0083324D02*
X0004600Y0083324D01*
X0004600Y0081726D02*
X0139668Y0081726D01*
X0139469Y0080127D02*
X0004600Y0080127D01*
X0004600Y0078529D02*
X0139469Y0078529D01*
X0140053Y0076930D02*
X0004600Y0076930D01*
X0004600Y0075332D02*
X0140905Y0075332D01*
X0142504Y0073733D02*
X0115526Y0073733D01*
X0103429Y0073733D02*
X0004600Y0073733D01*
X0004600Y0072134D02*
X0101106Y0072134D01*
X0099507Y0070536D02*
X0060569Y0070536D01*
X0060521Y0070584D02*
X0059205Y0071129D01*
X0057781Y0071129D01*
X0056464Y0070584D01*
X0055457Y0069577D01*
X0054912Y0068260D01*
X0054912Y0066836D01*
X0055457Y0065520D01*
X0056464Y0064512D01*
X0057781Y0063967D01*
X0059205Y0063967D01*
X0060521Y0064512D01*
X0061529Y0065520D01*
X0062074Y0066836D01*
X0062074Y0068260D01*
X0061529Y0069577D01*
X0060521Y0070584D01*
X0061794Y0068937D02*
X0098522Y0068937D01*
X0097651Y0067339D02*
X0062074Y0067339D01*
X0061620Y0065740D02*
X0097223Y0065740D01*
X0096835Y0064142D02*
X0059628Y0064142D01*
X0057358Y0064142D02*
X0004600Y0064142D01*
X0004600Y0065740D02*
X0055365Y0065740D01*
X0054912Y0067339D02*
X0004600Y0067339D01*
X0004600Y0068937D02*
X0055192Y0068937D01*
X0056416Y0070536D02*
X0004600Y0070536D01*
X0004600Y0062543D02*
X0096835Y0062543D01*
X0096839Y0060945D02*
X0004600Y0060945D01*
X0004600Y0059346D02*
X0041368Y0059346D01*
X0041636Y0059615D02*
X0040245Y0058224D01*
X0039492Y0056406D01*
X0039492Y0054438D01*
X0040245Y0052621D01*
X0041636Y0051229D01*
X0043454Y0050476D01*
X0045422Y0050476D01*
X0047239Y0051229D01*
X0048631Y0052621D01*
X0049383Y0054438D01*
X0049383Y0056406D01*
X0048631Y0058224D01*
X0047239Y0059615D01*
X0045422Y0060368D01*
X0043454Y0060368D01*
X0041636Y0059615D01*
X0040048Y0057748D02*
X0004600Y0057748D01*
X0004600Y0056149D02*
X0039492Y0056149D01*
X0039492Y0054551D02*
X0004600Y0054551D01*
X0004600Y0052952D02*
X0040108Y0052952D01*
X0041512Y0051354D02*
X0004600Y0051354D01*
X0015914Y0025761D02*
X0012896Y0024511D01*
X0010585Y0022201D01*
X0009335Y0019182D01*
X0009335Y0015914D01*
X0010585Y0012896D01*
X0012896Y0010585D01*
X0015914Y0009335D01*
X0019182Y0009335D01*
X0022201Y0010585D01*
X0024511Y0012896D01*
X0025761Y0015914D01*
X0025761Y0019182D01*
X0024511Y0022201D01*
X0022201Y0024511D01*
X0019182Y0025761D01*
X0015914Y0025761D01*
X0012564Y0024179D02*
X0004600Y0024179D01*
X0004600Y0022581D02*
X0010965Y0022581D01*
X0010080Y0020982D02*
X0004600Y0020982D01*
X0004600Y0019384D02*
X0009418Y0019384D01*
X0009335Y0017785D02*
X0004600Y0017785D01*
X0004689Y0016187D02*
X0009335Y0016187D01*
X0009884Y0014588D02*
X0005051Y0014588D01*
X0005479Y0012990D02*
X0010546Y0012990D01*
X0012090Y0011391D02*
X0006280Y0011391D01*
X0007202Y0009793D02*
X0014809Y0009793D01*
X0020287Y0009793D02*
X0239218Y0009793D01*
X0236499Y0011391D02*
X0023007Y0011391D01*
X0024550Y0012990D02*
X0234956Y0012990D01*
X0234293Y0014588D02*
X0025212Y0014588D01*
X0025761Y0016187D02*
X0233744Y0016187D01*
X0233744Y0017785D02*
X0025761Y0017785D01*
X0025678Y0019384D02*
X0233828Y0019384D01*
X0234490Y0020982D02*
X0025016Y0020982D01*
X0024131Y0022581D02*
X0235375Y0022581D01*
X0236973Y0024179D02*
X0022532Y0024179D01*
X0047364Y0051354D02*
X0051512Y0051354D01*
X0051636Y0051229D02*
X0053454Y0050476D01*
X0055422Y0050476D01*
X0057239Y0051229D01*
X0058631Y0052621D01*
X0059383Y0054438D01*
X0059383Y0056406D01*
X0058631Y0058224D01*
X0057239Y0059615D01*
X0055422Y0060368D01*
X0053454Y0060368D01*
X0051636Y0059615D01*
X0050245Y0058224D01*
X0049492Y0056406D01*
X0049492Y0054438D01*
X0050245Y0052621D01*
X0051636Y0051229D01*
X0050108Y0052952D02*
X0048768Y0052952D01*
X0049383Y0054551D02*
X0049492Y0054551D01*
X0049492Y0056149D02*
X0049383Y0056149D01*
X0048828Y0057748D02*
X0050048Y0057748D01*
X0051368Y0059346D02*
X0047508Y0059346D01*
X0057508Y0059346D02*
X0081132Y0059346D01*
X0081400Y0059615D02*
X0080009Y0058224D01*
X0079256Y0056406D01*
X0079256Y0054438D01*
X0080009Y0052621D01*
X0081400Y0051229D01*
X0083218Y0050476D01*
X0085185Y0050476D01*
X0087003Y0051229D01*
X0088394Y0052621D01*
X0089147Y0054438D01*
X0089147Y0056406D01*
X0088394Y0058224D01*
X0087003Y0059615D01*
X0085185Y0060368D01*
X0083218Y0060368D01*
X0081400Y0059615D01*
X0079812Y0057748D02*
X0058828Y0057748D01*
X0059383Y0056149D02*
X0079256Y0056149D01*
X0079256Y0054551D02*
X0059383Y0054551D01*
X0058768Y0052952D02*
X0079871Y0052952D01*
X0081276Y0051354D02*
X0057364Y0051354D01*
X0087128Y0051354D02*
X0091276Y0051354D01*
X0089871Y0052952D02*
X0088532Y0052952D01*
X0089147Y0054551D02*
X0089256Y0054551D01*
X0089256Y0056149D02*
X0089147Y0056149D01*
X0088591Y0057748D02*
X0089812Y0057748D01*
X0091132Y0059346D02*
X0087271Y0059346D01*
X0097128Y0051354D02*
X0103717Y0051354D01*
X0101272Y0052952D02*
X0098532Y0052952D01*
X0099147Y0054551D02*
X0099674Y0054551D01*
X0115237Y0051354D02*
X0121827Y0051354D01*
X0120423Y0052952D02*
X0117682Y0052952D01*
X0119280Y0054551D02*
X0119807Y0054551D01*
X0127679Y0051354D02*
X0131827Y0051354D01*
X0131951Y0051229D02*
X0133769Y0050476D01*
X0135737Y0050476D01*
X0137554Y0051229D01*
X0138945Y0052621D01*
X0139698Y0054438D01*
X0139698Y0056406D01*
X0138945Y0058224D01*
X0137554Y0059615D01*
X0135737Y0060368D01*
X0133769Y0060368D01*
X0131951Y0059615D01*
X0130560Y0058224D01*
X0129807Y0056406D01*
X0129807Y0054438D01*
X0130560Y0052621D01*
X0131951Y0051229D01*
X0130423Y0052952D02*
X0129083Y0052952D01*
X0129698Y0054551D02*
X0129807Y0054551D01*
X0129807Y0056149D02*
X0129698Y0056149D01*
X0129143Y0057748D02*
X0130363Y0057748D01*
X0131683Y0059346D02*
X0127823Y0059346D01*
X0137823Y0059346D02*
X0162234Y0059346D01*
X0162502Y0059615D02*
X0161111Y0058224D01*
X0160358Y0056406D01*
X0160358Y0054438D01*
X0161111Y0052621D01*
X0162502Y0051229D01*
X0164320Y0050476D01*
X0166288Y0050476D01*
X0168105Y0051229D01*
X0169497Y0052621D01*
X0170250Y0054438D01*
X0170250Y0056406D01*
X0169497Y0058224D01*
X0168105Y0059615D01*
X0166288Y0060368D01*
X0164320Y0060368D01*
X0162502Y0059615D01*
X0160914Y0057748D02*
X0139143Y0057748D01*
X0139698Y0056149D02*
X0160358Y0056149D01*
X0160358Y0054551D02*
X0139698Y0054551D01*
X0139083Y0052952D02*
X0160974Y0052952D01*
X0162378Y0051354D02*
X0137679Y0051354D01*
X0168230Y0051354D02*
X0172378Y0051354D01*
X0172502Y0051229D02*
X0174320Y0050476D01*
X0176288Y0050476D01*
X0178105Y0051229D01*
X0179497Y0052621D01*
X0180250Y0054438D01*
X0180250Y0056406D01*
X0179497Y0058224D01*
X0178105Y0059615D01*
X0176288Y0060368D01*
X0174320Y0060368D01*
X0172502Y0059615D01*
X0171111Y0058224D01*
X0170358Y0056406D01*
X0170358Y0054438D01*
X0171111Y0052621D01*
X0172502Y0051229D01*
X0170974Y0052952D02*
X0169634Y0052952D01*
X0170250Y0054551D02*
X0170358Y0054551D01*
X0170358Y0056149D02*
X0170250Y0056149D01*
X0169694Y0057748D02*
X0170914Y0057748D01*
X0172234Y0059346D02*
X0168374Y0059346D01*
X0178374Y0059346D02*
X0202785Y0059346D01*
X0203054Y0059615D02*
X0201662Y0058224D01*
X0200909Y0056406D01*
X0200909Y0054438D01*
X0201662Y0052621D01*
X0203054Y0051229D01*
X0204871Y0050476D01*
X0206839Y0050476D01*
X0208657Y0051229D01*
X0210048Y0052621D01*
X0210801Y0054438D01*
X0210801Y0056406D01*
X0210048Y0058224D01*
X0208657Y0059615D01*
X0206839Y0060368D01*
X0204871Y0060368D01*
X0203054Y0059615D01*
X0201465Y0057748D02*
X0179694Y0057748D01*
X0180250Y0056149D02*
X0200909Y0056149D01*
X0200909Y0054551D02*
X0180250Y0054551D01*
X0179634Y0052952D02*
X0201525Y0052952D01*
X0202929Y0051354D02*
X0178230Y0051354D01*
X0208781Y0051354D02*
X0212929Y0051354D01*
X0211525Y0052952D02*
X0210185Y0052952D01*
X0210801Y0054551D02*
X0210909Y0054551D01*
X0210909Y0056149D02*
X0210801Y0056149D01*
X0210245Y0057748D02*
X0211465Y0057748D01*
X0212785Y0059346D02*
X0208925Y0059346D01*
X0254906Y0094514D02*
X0051853Y0094514D01*
X0052393Y0096112D02*
X0126833Y0096112D01*
X0126937Y0096008D02*
X0128253Y0095463D01*
X0129678Y0095463D01*
X0130994Y0096008D01*
X0132001Y0097016D01*
X0132546Y0098332D01*
X0132546Y0099756D01*
X0132001Y0101073D01*
X0130994Y0102080D01*
X0129678Y0102625D01*
X0128253Y0102625D01*
X0126937Y0102080D01*
X0125929Y0101073D01*
X0125384Y0099756D01*
X0125384Y0098332D01*
X0125929Y0097016D01*
X0126937Y0096008D01*
X0125642Y0097711D02*
X0045569Y0097711D01*
X0045568Y0099309D02*
X0043969Y0099309D01*
X0043968Y0097711D02*
X0004600Y0097711D01*
X0004600Y0099309D02*
X0037101Y0099309D01*
X0037616Y0100908D02*
X0004600Y0100908D01*
X0004600Y0102506D02*
X0038554Y0102506D01*
X0040182Y0104105D02*
X0004600Y0104105D01*
X0004600Y0105703D02*
X0254906Y0105703D01*
X0254906Y0104105D02*
X0049355Y0104105D01*
X0050983Y0102506D02*
X0127966Y0102506D01*
X0129965Y0102506D02*
X0254906Y0102506D01*
X0254906Y0100908D02*
X0132070Y0100908D01*
X0132546Y0099309D02*
X0254906Y0099309D01*
X0254906Y0097711D02*
X0132289Y0097711D01*
X0131098Y0096112D02*
X0254906Y0096112D01*
X0254906Y0107302D02*
X0004600Y0107302D01*
X0004600Y0108900D02*
X0254906Y0108900D01*
X0254906Y0110499D02*
X0004600Y0110499D01*
X0004600Y0112097D02*
X0254906Y0112097D01*
X0254906Y0113696D02*
X0200493Y0113696D01*
X0200545Y0113748D02*
X0201090Y0115064D01*
X0201090Y0116489D01*
X0200545Y0117805D01*
X0199537Y0118812D01*
X0198221Y0119357D01*
X0196796Y0119357D01*
X0195480Y0118812D01*
X0194473Y0117805D01*
X0193928Y0116489D01*
X0193928Y0115064D01*
X0194473Y0113748D01*
X0195480Y0112740D01*
X0196796Y0112195D01*
X0198221Y0112195D01*
X0199537Y0112740D01*
X0200545Y0113748D01*
X0201090Y0115294D02*
X0254906Y0115294D01*
X0254906Y0116893D02*
X0200922Y0116893D01*
X0199858Y0118491D02*
X0254906Y0118491D01*
X0254906Y0120090D02*
X0023798Y0120090D01*
X0024068Y0119437D02*
X0023316Y0121255D01*
X0021924Y0122646D01*
X0020107Y0123399D01*
X0018139Y0123399D01*
X0016321Y0122646D01*
X0014930Y0121255D01*
X0014177Y0119437D01*
X0014177Y0117470D01*
X0014930Y0115652D01*
X0016321Y0114261D01*
X0018139Y0113508D01*
X0020107Y0113508D01*
X0021924Y0114261D01*
X0023316Y0115652D01*
X0024068Y0117470D01*
X0024068Y0119437D01*
X0024068Y0118491D02*
X0195159Y0118491D01*
X0194095Y0116893D02*
X0023830Y0116893D01*
X0022958Y0115294D02*
X0193928Y0115294D01*
X0194525Y0113696D02*
X0020560Y0113696D01*
X0017685Y0113696D02*
X0004600Y0113696D01*
X0004600Y0115294D02*
X0015288Y0115294D01*
X0014416Y0116893D02*
X0004600Y0116893D01*
X0004600Y0118491D02*
X0014177Y0118491D01*
X0014447Y0120090D02*
X0004600Y0120090D01*
X0004600Y0121688D02*
X0015363Y0121688D01*
X0016321Y0124261D02*
X0014930Y0125652D01*
X0014177Y0127470D01*
X0014177Y0129437D01*
X0014930Y0131255D01*
X0016321Y0132646D01*
X0018139Y0133399D01*
X0020107Y0133399D01*
X0021924Y0132646D01*
X0023316Y0131255D01*
X0024068Y0129437D01*
X0024068Y0127470D01*
X0023316Y0125652D01*
X0021924Y0124261D01*
X0020107Y0123508D01*
X0018139Y0123508D01*
X0016321Y0124261D01*
X0015697Y0124885D02*
X0004600Y0124885D01*
X0004600Y0123287D02*
X0017868Y0123287D01*
X0020378Y0123287D02*
X0254906Y0123287D01*
X0254906Y0124885D02*
X0159871Y0124885D01*
X0159734Y0124748D02*
X0160741Y0125756D01*
X0161287Y0127072D01*
X0161287Y0128497D01*
X0160741Y0129813D01*
X0159734Y0130820D01*
X0158418Y0131365D01*
X0156993Y0131365D01*
X0155677Y0130820D01*
X0154670Y0129813D01*
X0154124Y0128497D01*
X0154124Y0127072D01*
X0154670Y0125756D01*
X0155677Y0124748D01*
X0156993Y0124203D01*
X0158418Y0124203D01*
X0159734Y0124748D01*
X0161043Y0126484D02*
X0254906Y0126484D01*
X0254906Y0128082D02*
X0161287Y0128082D01*
X0160796Y0129681D02*
X0254906Y0129681D01*
X0254906Y0131279D02*
X0158625Y0131279D01*
X0156786Y0131279D02*
X0023291Y0131279D01*
X0023968Y0129681D02*
X0154615Y0129681D01*
X0154124Y0128082D02*
X0024068Y0128082D01*
X0023660Y0126484D02*
X0154368Y0126484D01*
X0155540Y0124885D02*
X0022549Y0124885D01*
X0022882Y0121688D02*
X0254906Y0121688D01*
X0254906Y0132878D02*
X0021365Y0132878D01*
X0016881Y0132878D02*
X0004600Y0132878D01*
X0004600Y0134476D02*
X0254906Y0134476D01*
X0254906Y0136075D02*
X0004600Y0136075D01*
X0004600Y0137673D02*
X0254906Y0137673D01*
X0254906Y0139272D02*
X0004600Y0139272D01*
X0004600Y0140870D02*
X0254906Y0140870D01*
X0254906Y0142469D02*
X0048840Y0142469D01*
X0048960Y0142519D02*
X0051042Y0144600D01*
X0052168Y0147320D01*
X0052168Y0150264D01*
X0051042Y0152984D01*
X0048960Y0155066D01*
X0046240Y0156192D01*
X0043297Y0156192D01*
X0040577Y0155066D01*
X0038495Y0152984D01*
X0037369Y0150264D01*
X0037369Y0147320D01*
X0038495Y0144600D01*
X0040577Y0142519D01*
X0043297Y0141392D01*
X0046240Y0141392D01*
X0048960Y0142519D01*
X0050509Y0144068D02*
X0254906Y0144068D01*
X0254906Y0145666D02*
X0051483Y0145666D01*
X0052145Y0147265D02*
X0254906Y0147265D01*
X0254906Y0148863D02*
X0245699Y0148863D01*
X0246017Y0149181D02*
X0246562Y0150497D01*
X0246562Y0151922D01*
X0246017Y0153238D01*
X0245010Y0154245D01*
X0243693Y0154791D01*
X0242269Y0154791D01*
X0240953Y0154245D01*
X0239945Y0153238D01*
X0239400Y0151922D01*
X0239400Y0150497D01*
X0239945Y0149181D01*
X0240953Y0148174D01*
X0242269Y0147628D01*
X0243693Y0147628D01*
X0245010Y0148174D01*
X0246017Y0149181D01*
X0246547Y0150462D02*
X0254906Y0150462D01*
X0254906Y0152060D02*
X0246505Y0152060D01*
X0245596Y0153659D02*
X0254906Y0153659D01*
X0254906Y0155257D02*
X0048498Y0155257D01*
X0050367Y0153659D02*
X0240366Y0153659D01*
X0239457Y0152060D02*
X0051425Y0152060D01*
X0052087Y0150462D02*
X0239415Y0150462D01*
X0240263Y0148863D02*
X0052168Y0148863D01*
X0041039Y0155257D02*
X0004600Y0155257D01*
X0004600Y0153659D02*
X0039170Y0153659D01*
X0038112Y0152060D02*
X0004600Y0152060D01*
X0004600Y0150462D02*
X0037450Y0150462D01*
X0037369Y0148863D02*
X0004600Y0148863D01*
X0004600Y0147265D02*
X0037392Y0147265D01*
X0038054Y0145666D02*
X0004600Y0145666D01*
X0004600Y0144068D02*
X0039028Y0144068D01*
X0040697Y0142469D02*
X0004600Y0142469D01*
X0004600Y0131279D02*
X0014954Y0131279D01*
X0014278Y0129681D02*
X0004600Y0129681D01*
X0004600Y0128082D02*
X0014177Y0128082D01*
X0014586Y0126484D02*
X0004600Y0126484D01*
X0004600Y0156856D02*
X0254906Y0156856D01*
X0254906Y0158454D02*
X0004600Y0158454D01*
X0004600Y0160053D02*
X0240885Y0160053D01*
X0240953Y0159985D02*
X0242269Y0159439D01*
X0243693Y0159439D01*
X0245010Y0159985D01*
X0246017Y0160992D01*
X0246562Y0162308D01*
X0246562Y0163733D01*
X0246017Y0165049D01*
X0245010Y0166056D01*
X0243693Y0166602D01*
X0242269Y0166602D01*
X0240953Y0166056D01*
X0239945Y0165049D01*
X0239400Y0163733D01*
X0239400Y0162308D01*
X0239945Y0160992D01*
X0240953Y0159985D01*
X0239672Y0161651D02*
X0203951Y0161651D01*
X0203904Y0161603D02*
X0205957Y0163657D01*
X0207068Y0166340D01*
X0207068Y0169244D01*
X0205957Y0171927D01*
X0203904Y0173981D01*
X0201221Y0175092D01*
X0198316Y0175092D01*
X0195633Y0173981D01*
X0193580Y0171927D01*
X0192469Y0169244D01*
X0192469Y0166340D01*
X0193580Y0163657D01*
X0195633Y0161603D01*
X0198316Y0160492D01*
X0201221Y0160492D01*
X0203904Y0161603D01*
X0205550Y0163250D02*
X0239400Y0163250D01*
X0239862Y0164848D02*
X0206451Y0164848D01*
X0207068Y0166447D02*
X0241895Y0166447D01*
X0244067Y0166447D02*
X0254906Y0166447D01*
X0254906Y0168045D02*
X0207068Y0168045D01*
X0206903Y0169644D02*
X0254906Y0169644D01*
X0254906Y0171242D02*
X0206241Y0171242D01*
X0205044Y0172841D02*
X0254906Y0172841D01*
X0254906Y0174439D02*
X0202797Y0174439D01*
X0196740Y0174439D02*
X0116353Y0174439D01*
X0117240Y0174951D02*
X0114357Y0173287D01*
X0111142Y0172425D01*
X0107813Y0172425D01*
X0104597Y0173287D01*
X0101714Y0174951D01*
X0099361Y0177305D01*
X0097696Y0180188D01*
X0096835Y0183403D01*
X0096835Y0186732D01*
X0097266Y0188343D01*
X0097003Y0188080D01*
X0095185Y0187327D01*
X0093218Y0187327D01*
X0091400Y0188080D01*
X0090009Y0189471D01*
X0089256Y0191289D01*
X0089256Y0193256D01*
X0090009Y0195074D01*
X0091400Y0196465D01*
X0093218Y0197218D01*
X0095185Y0197218D01*
X0097003Y0196465D01*
X0098394Y0195074D01*
X0099147Y0193256D01*
X0099147Y0192461D01*
X0099361Y0192830D01*
X0101714Y0195184D01*
X0104597Y0196849D01*
X0107813Y0197710D01*
X0111142Y0197710D01*
X0114357Y0196849D01*
X0117240Y0195184D01*
X0119594Y0192830D01*
X0119807Y0192461D01*
X0119807Y0193256D01*
X0120560Y0195074D01*
X0121951Y0196465D01*
X0123769Y0197218D01*
X0125737Y0197218D01*
X0127554Y0196465D01*
X0128945Y0195074D01*
X0129698Y0193256D01*
X0129698Y0191289D01*
X0128945Y0189471D01*
X0127554Y0188080D01*
X0125737Y0187327D01*
X0123769Y0187327D01*
X0121951Y0188080D01*
X0121688Y0188343D01*
X0122120Y0186732D01*
X0122120Y0183403D01*
X0121258Y0180188D01*
X0119594Y0177305D01*
X0117240Y0174951D01*
X0118326Y0176038D02*
X0172104Y0176038D01*
X0172606Y0175536D02*
X0171599Y0176543D01*
X0171054Y0177859D01*
X0171054Y0179284D01*
X0171599Y0180600D01*
X0172606Y0181608D01*
X0173922Y0182153D01*
X0175347Y0182153D01*
X0176663Y0181608D01*
X0177671Y0180600D01*
X0178216Y0179284D01*
X0178216Y0177859D01*
X0177671Y0176543D01*
X0176663Y0175536D01*
X0175347Y0174991D01*
X0173922Y0174991D01*
X0172606Y0175536D01*
X0171146Y0177636D02*
X0119785Y0177636D01*
X0120708Y0179235D02*
X0171054Y0179235D01*
X0171832Y0180833D02*
X0121431Y0180833D01*
X0121859Y0182432D02*
X0254906Y0182432D01*
X0254906Y0184030D02*
X0122120Y0184030D01*
X0122120Y0185629D02*
X0254906Y0185629D01*
X0254906Y0187227D02*
X0121987Y0187227D01*
X0128300Y0188826D02*
X0131205Y0188826D01*
X0130560Y0189471D02*
X0131951Y0188080D01*
X0133769Y0187327D01*
X0135737Y0187327D01*
X0137554Y0188080D01*
X0138945Y0189471D01*
X0139698Y0191289D01*
X0139698Y0193256D01*
X0138945Y0195074D01*
X0137554Y0196465D01*
X0135737Y0197218D01*
X0133769Y0197218D01*
X0131951Y0196465D01*
X0130560Y0195074D01*
X0129807Y0193256D01*
X0129807Y0191289D01*
X0130560Y0189471D01*
X0130165Y0190424D02*
X0129340Y0190424D01*
X0129698Y0192023D02*
X0129807Y0192023D01*
X0129958Y0193621D02*
X0129547Y0193621D01*
X0128800Y0195220D02*
X0130706Y0195220D01*
X0132804Y0196818D02*
X0126702Y0196818D01*
X0122804Y0196818D02*
X0114409Y0196818D01*
X0117178Y0195220D02*
X0120706Y0195220D01*
X0119958Y0193621D02*
X0118803Y0193621D01*
X0104545Y0196818D02*
X0096150Y0196818D01*
X0098248Y0195220D02*
X0101776Y0195220D01*
X0100152Y0193621D02*
X0098996Y0193621D01*
X0096967Y0187227D02*
X0004600Y0187227D01*
X0004600Y0185629D02*
X0096835Y0185629D01*
X0096835Y0184030D02*
X0004600Y0184030D01*
X0004600Y0182432D02*
X0097095Y0182432D01*
X0097523Y0180833D02*
X0004600Y0180833D01*
X0004600Y0179235D02*
X0098246Y0179235D01*
X0099169Y0177636D02*
X0004600Y0177636D01*
X0004600Y0176038D02*
X0100628Y0176038D01*
X0102601Y0174439D02*
X0096797Y0174439D01*
X0097904Y0173981D02*
X0095221Y0175092D01*
X0092316Y0175092D01*
X0089633Y0173981D01*
X0087580Y0171927D01*
X0086469Y0169244D01*
X0086469Y0166340D01*
X0087580Y0163657D01*
X0089633Y0161603D01*
X0092316Y0160492D01*
X0095221Y0160492D01*
X0097904Y0161603D01*
X0099957Y0163657D01*
X0101068Y0166340D01*
X0101068Y0169244D01*
X0099957Y0171927D01*
X0097904Y0173981D01*
X0099044Y0172841D02*
X0106262Y0172841D01*
X0100241Y0171242D02*
X0193296Y0171242D01*
X0192634Y0169644D02*
X0100903Y0169644D01*
X0101068Y0168045D02*
X0192469Y0168045D01*
X0192469Y0166447D02*
X0101068Y0166447D01*
X0100451Y0164848D02*
X0193086Y0164848D01*
X0193987Y0163250D02*
X0099550Y0163250D01*
X0097951Y0161651D02*
X0195586Y0161651D01*
X0194493Y0172841D02*
X0112692Y0172841D01*
X0090740Y0174439D02*
X0004600Y0174439D01*
X0004600Y0172841D02*
X0088493Y0172841D01*
X0087296Y0171242D02*
X0004600Y0171242D01*
X0004600Y0169644D02*
X0086634Y0169644D01*
X0086469Y0168045D02*
X0004600Y0168045D01*
X0004600Y0166447D02*
X0086469Y0166447D01*
X0087086Y0164848D02*
X0004600Y0164848D01*
X0004600Y0163250D02*
X0087987Y0163250D01*
X0089586Y0161651D02*
X0004600Y0161651D01*
X0004600Y0188826D02*
X0040890Y0188826D01*
X0040245Y0189471D02*
X0041636Y0188080D01*
X0043454Y0187327D01*
X0045422Y0187327D01*
X0047239Y0188080D01*
X0048631Y0189471D01*
X0049383Y0191289D01*
X0049383Y0193256D01*
X0048631Y0195074D01*
X0047239Y0196465D01*
X0045422Y0197218D01*
X0043454Y0197218D01*
X0041636Y0196465D01*
X0040245Y0195074D01*
X0039492Y0193256D01*
X0039492Y0191289D01*
X0040245Y0189471D01*
X0039850Y0190424D02*
X0004600Y0190424D01*
X0004600Y0192023D02*
X0039492Y0192023D01*
X0039643Y0193621D02*
X0004600Y0193621D01*
X0004600Y0195220D02*
X0040391Y0195220D01*
X0042489Y0196818D02*
X0004600Y0196818D01*
X0004600Y0198417D02*
X0254906Y0198417D01*
X0254906Y0200015D02*
X0004600Y0200015D01*
X0004600Y0201614D02*
X0254906Y0201614D01*
X0254906Y0203212D02*
X0004600Y0203212D01*
X0004600Y0204811D02*
X0254906Y0204811D01*
X0254906Y0206409D02*
X0004600Y0206409D01*
X0004600Y0208008D02*
X0254906Y0208008D01*
X0254906Y0209606D02*
X0004600Y0209606D01*
X0004600Y0211205D02*
X0254906Y0211205D01*
X0254906Y0212803D02*
X0004600Y0212803D01*
X0004600Y0214402D02*
X0254906Y0214402D01*
X0254906Y0216001D02*
X0004600Y0216001D01*
X0004600Y0217599D02*
X0254906Y0217599D01*
X0254906Y0219198D02*
X0004600Y0219198D01*
X0004600Y0220796D02*
X0254906Y0220796D01*
X0254906Y0222395D02*
X0244705Y0222395D01*
X0243591Y0221933D02*
X0246610Y0223183D01*
X0248920Y0225494D01*
X0250171Y0228513D01*
X0250171Y0231780D01*
X0248920Y0234799D01*
X0246610Y0237109D01*
X0243591Y0238360D01*
X0240324Y0238360D01*
X0237305Y0237109D01*
X0234995Y0234799D01*
X0233744Y0231780D01*
X0233744Y0228513D01*
X0234995Y0225494D01*
X0237305Y0223183D01*
X0240324Y0221933D01*
X0243591Y0221933D01*
X0239210Y0222395D02*
X0020296Y0222395D01*
X0019182Y0221933D02*
X0022201Y0223183D01*
X0024511Y0225494D01*
X0025761Y0228513D01*
X0025761Y0231780D01*
X0024511Y0234799D01*
X0022201Y0237109D01*
X0019182Y0238360D01*
X0015914Y0238360D01*
X0012896Y0237109D01*
X0010585Y0234799D01*
X0009335Y0231780D01*
X0009335Y0228513D01*
X0010585Y0225494D01*
X0012896Y0223183D01*
X0015914Y0221933D01*
X0019182Y0221933D01*
X0023010Y0223993D02*
X0236495Y0223993D01*
X0234954Y0225592D02*
X0024551Y0225592D01*
X0025214Y0227190D02*
X0234292Y0227190D01*
X0233744Y0228789D02*
X0025761Y0228789D01*
X0025761Y0230387D02*
X0233744Y0230387D01*
X0233829Y0231986D02*
X0025676Y0231986D01*
X0025014Y0233584D02*
X0234491Y0233584D01*
X0235378Y0235183D02*
X0024127Y0235183D01*
X0022529Y0236781D02*
X0236977Y0236781D01*
X0246938Y0236781D02*
X0252950Y0236781D01*
X0253873Y0235183D02*
X0248537Y0235183D01*
X0249424Y0233584D02*
X0254326Y0233584D01*
X0254755Y0231986D02*
X0250086Y0231986D01*
X0250171Y0230387D02*
X0254890Y0230387D01*
X0254906Y0228789D02*
X0250171Y0228789D01*
X0249623Y0227190D02*
X0254906Y0227190D01*
X0254906Y0225592D02*
X0248961Y0225592D01*
X0247420Y0223993D02*
X0254906Y0223993D01*
X0251879Y0238380D02*
X0007627Y0238380D01*
X0006555Y0236781D02*
X0012567Y0236781D01*
X0010969Y0235183D02*
X0005632Y0235183D01*
X0005179Y0233584D02*
X0010082Y0233584D01*
X0009420Y0231986D02*
X0004751Y0231986D01*
X0004616Y0230387D02*
X0009335Y0230387D01*
X0009335Y0228789D02*
X0004600Y0228789D01*
X0004600Y0227190D02*
X0009882Y0227190D01*
X0010545Y0225592D02*
X0004600Y0225592D01*
X0004600Y0223993D02*
X0012086Y0223993D01*
X0014800Y0222395D02*
X0004600Y0222395D01*
X0009225Y0239978D02*
X0250280Y0239978D01*
X0247834Y0241577D02*
X0011671Y0241577D01*
X0046387Y0196818D02*
X0052489Y0196818D01*
X0051636Y0196465D02*
X0053454Y0197218D01*
X0055422Y0197218D01*
X0057239Y0196465D01*
X0058631Y0195074D01*
X0059383Y0193256D01*
X0059383Y0191289D01*
X0058631Y0189471D01*
X0057239Y0188080D01*
X0055422Y0187327D01*
X0053454Y0187327D01*
X0051636Y0188080D01*
X0050245Y0189471D01*
X0049492Y0191289D01*
X0049492Y0193256D01*
X0050245Y0195074D01*
X0051636Y0196465D01*
X0050391Y0195220D02*
X0048485Y0195220D01*
X0049232Y0193621D02*
X0049643Y0193621D01*
X0049492Y0192023D02*
X0049383Y0192023D01*
X0049025Y0190424D02*
X0049850Y0190424D01*
X0050890Y0188826D02*
X0047985Y0188826D01*
X0056387Y0196818D02*
X0082253Y0196818D01*
X0081400Y0196465D02*
X0080009Y0195074D01*
X0079256Y0193256D01*
X0079256Y0191289D01*
X0080009Y0189471D01*
X0081400Y0188080D01*
X0083218Y0187327D01*
X0085185Y0187327D01*
X0087003Y0188080D01*
X0088394Y0189471D01*
X0089147Y0191289D01*
X0089147Y0193256D01*
X0088394Y0195074D01*
X0087003Y0196465D01*
X0085185Y0197218D01*
X0083218Y0197218D01*
X0081400Y0196465D01*
X0080155Y0195220D02*
X0058485Y0195220D01*
X0059232Y0193621D02*
X0079407Y0193621D01*
X0079256Y0192023D02*
X0059383Y0192023D01*
X0059025Y0190424D02*
X0079614Y0190424D01*
X0080654Y0188826D02*
X0057985Y0188826D01*
X0086150Y0196818D02*
X0092253Y0196818D01*
X0090155Y0195220D02*
X0088248Y0195220D01*
X0088996Y0193621D02*
X0089407Y0193621D01*
X0089256Y0192023D02*
X0089147Y0192023D01*
X0088789Y0190424D02*
X0089614Y0190424D01*
X0090654Y0188826D02*
X0087749Y0188826D01*
X0136702Y0196818D02*
X0163355Y0196818D01*
X0162502Y0196465D02*
X0161111Y0195074D01*
X0160358Y0193256D01*
X0160358Y0191289D01*
X0161111Y0189471D01*
X0162502Y0188080D01*
X0164320Y0187327D01*
X0166288Y0187327D01*
X0168105Y0188080D01*
X0169497Y0189471D01*
X0170250Y0191289D01*
X0170250Y0193256D01*
X0169497Y0195074D01*
X0168105Y0196465D01*
X0166288Y0197218D01*
X0164320Y0197218D01*
X0162502Y0196465D01*
X0161257Y0195220D02*
X0138800Y0195220D01*
X0139547Y0193621D02*
X0160510Y0193621D01*
X0160358Y0192023D02*
X0139698Y0192023D01*
X0139340Y0190424D02*
X0160716Y0190424D01*
X0161756Y0188826D02*
X0138300Y0188826D01*
X0167253Y0196818D02*
X0173355Y0196818D01*
X0172502Y0196465D02*
X0171111Y0195074D01*
X0170358Y0193256D01*
X0170358Y0191289D01*
X0171111Y0189471D01*
X0172502Y0188080D01*
X0174320Y0187327D01*
X0176288Y0187327D01*
X0178105Y0188080D01*
X0179497Y0189471D01*
X0180250Y0191289D01*
X0180250Y0193256D01*
X0179497Y0195074D01*
X0178105Y0196465D01*
X0176288Y0197218D01*
X0174320Y0197218D01*
X0172502Y0196465D01*
X0171257Y0195220D02*
X0169351Y0195220D01*
X0170098Y0193621D02*
X0170510Y0193621D01*
X0170358Y0192023D02*
X0170250Y0192023D01*
X0169892Y0190424D02*
X0170716Y0190424D01*
X0171756Y0188826D02*
X0168852Y0188826D01*
X0178852Y0188826D02*
X0202307Y0188826D01*
X0201662Y0189471D02*
X0203054Y0188080D01*
X0204871Y0187327D01*
X0206839Y0187327D01*
X0208657Y0188080D01*
X0210048Y0189471D01*
X0210801Y0191289D01*
X0210801Y0193256D01*
X0210048Y0195074D01*
X0208657Y0196465D01*
X0206839Y0197218D01*
X0204871Y0197218D01*
X0203054Y0196465D01*
X0201662Y0195074D01*
X0200909Y0193256D01*
X0200909Y0191289D01*
X0201662Y0189471D01*
X0201267Y0190424D02*
X0179892Y0190424D01*
X0180250Y0192023D02*
X0200909Y0192023D01*
X0201061Y0193621D02*
X0180098Y0193621D01*
X0179351Y0195220D02*
X0201808Y0195220D01*
X0203906Y0196818D02*
X0177253Y0196818D01*
X0177437Y0180833D02*
X0254906Y0180833D01*
X0254906Y0179235D02*
X0178216Y0179235D01*
X0178123Y0177636D02*
X0254906Y0177636D01*
X0254906Y0176038D02*
X0177165Y0176038D01*
X0209403Y0188826D02*
X0212307Y0188826D01*
X0211662Y0189471D02*
X0213054Y0188080D01*
X0214871Y0187327D01*
X0216839Y0187327D01*
X0218657Y0188080D01*
X0220048Y0189471D01*
X0220801Y0191289D01*
X0220801Y0193256D01*
X0220048Y0195074D01*
X0218657Y0196465D01*
X0216839Y0197218D01*
X0214871Y0197218D01*
X0213054Y0196465D01*
X0211662Y0195074D01*
X0210909Y0193256D01*
X0210909Y0191289D01*
X0211662Y0189471D01*
X0211267Y0190424D02*
X0210443Y0190424D01*
X0210801Y0192023D02*
X0210909Y0192023D01*
X0211061Y0193621D02*
X0210650Y0193621D01*
X0209902Y0195220D02*
X0211808Y0195220D01*
X0213906Y0196818D02*
X0207804Y0196818D01*
X0217804Y0196818D02*
X0254906Y0196818D01*
X0254906Y0195220D02*
X0219902Y0195220D01*
X0220650Y0193621D02*
X0254906Y0193621D01*
X0254906Y0192023D02*
X0220801Y0192023D01*
X0220443Y0190424D02*
X0254906Y0190424D01*
X0254906Y0188826D02*
X0219403Y0188826D01*
X0246100Y0164848D02*
X0254906Y0164848D01*
X0254906Y0163250D02*
X0246562Y0163250D01*
X0246290Y0161651D02*
X0254906Y0161651D01*
X0254906Y0160053D02*
X0245078Y0160053D01*
X0125861Y0100908D02*
X0051921Y0100908D01*
X0052436Y0099309D02*
X0125384Y0099309D01*
X0045568Y0100908D02*
X0043969Y0100908D01*
X0043969Y0102506D02*
X0045568Y0102506D01*
X0045568Y0104105D02*
X0043969Y0104105D01*
X0043969Y0096112D02*
X0045568Y0096112D01*
X0045568Y0094514D02*
X0043969Y0094514D01*
X0043969Y0092915D02*
X0045568Y0092915D01*
X0045568Y0091317D02*
X0043969Y0091317D01*
X0040395Y0091317D02*
X0004600Y0091317D01*
X0004600Y0092915D02*
X0038679Y0092915D01*
X0037684Y0094514D02*
X0004600Y0094514D01*
X0004600Y0096112D02*
X0037143Y0096112D01*
M02*
